<svg xmlns="http://www.w3.org/2000/svg" viewBox="0 0 99.84 38.5"><defs><style>.cls-1{isolation:isolate;}.cls-2{fill-rule:evenodd;mix-blend-mode:multiply;}</style></defs><g class="cls-1"><g id="Camada_2" data-name="Camada 2"><g id="Camada_1-2" data-name="Camada 1"><path class="cls-2" d="M13.51,10h0ZM7.62,14.28h0a1.8,1.8,0,0,1,.22.06.38.38,0,0,0,.22,0c-.14-.17-.29-.13-.44-.1Zm5.07-4.36Zm8.85.1a.85.85,0,0,1-.11.44,1.39,1.39,0,0,1-.73.64,6.18,6.18,0,0,1-.72.26,1.7,1.7,0,0,0-.6.34,4.68,4.68,0,0,0-.43.46,2.42,2.42,0,0,1-.71.68,1,1,0,0,0-.44.59c-.17.47-.4.91-.6,1.37l-.24.54a2.6,2.6,0,0,0-.2,1.23c0,.23,0,.46,0,.69a.62.62,0,0,1-.44.59,1.81,1.81,0,0,1-.4,0l-1.49-.05a1.29,1.29,0,0,0-.39,0,.31.31,0,0,1-.38-.41c0-.07.07-.14.09-.21.09-.31.17-.62.25-.93a.53.53,0,0,0,0-.13,4.57,4.57,0,0,0-.34-1.58c-.1-.24-.2-.49-.31-.73a1,1,0,0,0-.07-.15l-.14-.15a1.81,1.81,0,0,1-1-.21,1.12,1.12,0,0,1-.45-.33.62.62,0,0,0-.14-.14.8.8,0,0,0-.2-.06,1.55,1.55,0,0,0,0,.17,5.06,5.06,0,0,0,.26,1.32l.42.17a.36.36,0,0,1,.22.18,1,1,0,0,0,.1.17,1.77,1.77,0,0,1,.24,1.43,1.48,1.48,0,0,1-.29.59c-.09.13-.2.24-.29.36a1,1,0,0,1-.6.32A2,2,0,0,1,9.66,17c-.54-.44-1.08-.87-1.66-1.26l-.45-.3a1.58,1.58,0,0,0-.14.16,1.16,1.16,0,0,1-.93.71,1.17,1.17,0,0,0-.61.32l-.22.2a1.14,1.14,0,0,1-.74.34l-.55.08A.93.93,0,0,1,3.63,17c-.06,0-.11-.11-.17-.16A.55.55,0,0,0,3,16.73a1.62,1.62,0,0,1-1.33-.24A3.73,3.73,0,0,1,.17,14.58,2.18,2.18,0,0,0,0,14a.22.22,0,0,1,0-.22.91.91,0,0,0,.12-.35,5.43,5.43,0,0,1,.16-.67,1.49,1.49,0,0,0,0-.91.5.5,0,0,0,0-.13,2.65,2.65,0,0,1-.13-1.34A5.41,5.41,0,0,1,.3,9.84a3.29,3.29,0,0,1,.86-1.43,1.85,1.85,0,0,1,.48-.35A2.59,2.59,0,0,1,2.92,7.8a1.64,1.64,0,0,1,.49.1.57.57,0,0,0,.48,0l.54-.32,0,0a1.91,1.91,0,0,1,1.78-.34c.06-.06,0-.1,0-.14a2.89,2.89,0,0,0-.5-.78,6,6,0,0,0-.61-.52,1.15,1.15,0,0,0-.86-.28.43.43,0,0,1-.31-.07l-.35-.19a.89.89,0,0,1-.46-.92,1.15,1.15,0,0,1,.18-.75A1.05,1.05,0,0,1,3.15,3a.67.67,0,0,1,.1-.34,1.48,1.48,0,0,1,1-.71,2.59,2.59,0,0,1,.92,0,2.42,2.42,0,0,0,.76,0,1,1,0,0,0,.28-.09l.66-.39c.14,0,.28,0,.42,0l.66,0,.43.05a1.41,1.41,0,0,0,1-.27c.3-.22.63-.42.95-.61A3.6,3.6,0,0,1,11,.32c.33-.11.68-.18,1-.28a1.63,1.63,0,0,1,.85,0,1.35,1.35,0,0,1,.84.49.74.74,0,0,0,.51.27l.26,0A3,3,0,0,1,16,1.56a2.44,2.44,0,0,1,.78,1.24,1.22,1.22,0,0,1,0,.82,1,1,0,0,0,0,.42,1.28,1.28,0,0,1-.2.66,1.08,1.08,0,0,1-.59.46,4.37,4.37,0,0,1-.89.27,2.29,2.29,0,0,1-.69,0,.34.34,0,0,0-.33.1,3.75,3.75,0,0,0-.88,1.14,2.83,2.83,0,0,0-.31.66c0,.08.11.06.17.06a.86.86,0,0,0,.61-.29c.2-.21.4-.41.62-.6A2.13,2.13,0,0,1,15.93,6a1.17,1.17,0,0,1,.54.22l.21.17a.39.39,0,0,0,.34.1,4.1,4.1,0,0,0,.49-.06,4.54,4.54,0,0,1,1.22-.1,2,2,0,0,1,1.44.83.85.85,0,0,1,.18.46,1.36,1.36,0,0,0,.06.29.65.65,0,0,0,.34.43l.26.15a1.08,1.08,0,0,1,.5.63.21.21,0,0,1,0,.13A4.49,4.49,0,0,0,21.54,10ZM20.13,8.13l-.4,0c-.14,0-.17,0-.28.2h.18a1.73,1.73,0,0,1,.74.13c.11,0,.24.07.36.11h0a.17.17,0,0,0,.18.11.2.2,0,0,0-.18-.11h0a.08.08,0,0,0,0,0Zm-.2-.75a.65.65,0,0,0-.66.15s-.08.07,0,.14l.26,0a.58.58,0,0,0,.41-.06s0,0,.05-.06Zm-1.59-.21a1.12,1.12,0,0,1-.13.24c-.19.29-.42.56-.59.87,0,0-.08.08,0,.15l.06,0c.24-.37.6-.65.82-1,0-.05.08-.07.13,0a.76.76,0,0,0-.11.14c0,.05-.07.1,0,.15a1.69,1.69,0,0,1,.59-.18.67.67,0,0,0,.18-.07l.52-.32c-.05,0-.09-.11-.15-.16a.21.21,0,0,0-.27-.05l-.05,0V6.71a.91.91,0,0,0-.55-.14l-.1.1A.76.76,0,0,0,18.34,7.17Zm.57,2a4,4,0,0,1,.52.09c.18,0,.34.13.55.21a.85.85,0,0,0-.06-.13l-.29-.16c-.15-.07-.3-.14-.44-.22a.75.75,0,0,0-.73,0v0l.19.12-.11.05-.11,0a2.61,2.61,0,0,0,.89.38.28.28,0,0,0-.25-.18C19,9.32,18.91,9.26,18.91,9.14Zm-.95.1a4.45,4.45,0,0,0,1.21.65,1.15,1.15,0,0,0-.14-.2,4,4,0,0,0-.82-.53A.19.19,0,0,0,18,9.24Zm0-.38a2.51,2.51,0,0,0,.35-.92,3.2,3.2,0,0,0-.41.8s0,0,0,.07Zm.42-.32-.05,0a.19.19,0,0,0,0,.08s.05,0,.06-.05,0,0,0-.05h0c.14-.06.18-.2.25-.31s0-.07,0-.1c-.11.13-.24.24-.24.41ZM17.45,7c0,.18-.11.35-.15.53s0,.09,0,.16a.65.65,0,0,0,.33-.3,2,2,0,0,1,.11-.2h0l.08-.15c0,.06,0,.12-.07.15a1.49,1.49,0,0,1,0,.21l-.06.25c0,.07-.1.11-.06.22a2.27,2.27,0,0,0,.54-.66,2,2,0,0,1,.25-.45c.06-.06.12-.13.09-.22s-.29,0-.41.11L18,6.92a.32.32,0,0,1,.14-.24l0-.12a.74.74,0,0,0-.18,0A.53.53,0,0,0,17.45,7Zm0,1.62c-.08.37-.08.37,0,.55C17.55,8.76,17.55,8.76,17.45,8.65ZM17,7.89l.07-.21c0-.09.05-.17.08-.25s.15-.37.22-.56c0,0,0,0,0-.1l-.32,0A1.21,1.21,0,0,0,17,7a5.86,5.86,0,0,0-.1.58A.46.46,0,0,0,17,7.89Zm.12,1.45v0h0s0,0,0,0Zm-.2-1.21s0,.07,0,.1a1.44,1.44,0,0,1,.12.61s0,0,.07.07C17.07,8.28,17.07,8.28,16.92,8.13ZM16.46,9.9c.05,0,.11,0,.13,0a.39.39,0,0,0,.12-.3l-.31-.11c0,.15.05.29.06.42h0l-.16-.09h0a.19.19,0,0,0,0-.08.05.05,0,0,0,0,0s0,0,0,0l0,0,.07,0h0c0,.11,0,.13.07.11l.09,0h0Zm-.94,2.43c0,.15.05.24.15.33a1,1,0,0,0,0-.9.23.23,0,0,0-.17.32A.36.36,0,0,1,15.52,12.33Zm.12-1.61a1.89,1.89,0,0,1,.09-.21.31.31,0,0,0,0-.24,2.28,2.28,0,0,0-.54,1.36h0v0a.53.53,0,0,0-.2.39.24.24,0,0,0,.12.26.44.44,0,0,0,.12-.47,1.16,1.16,0,0,1,0-.18h0v0l0,0A4.55,4.55,0,0,0,15.64,10.72Zm-.07-1.08c-.08-.1-.07-.27-.25-.38a.72.72,0,0,0,.14.39S15.53,9.7,15.57,9.64ZM15.7,9s-.06,0-.1-.06,0,.08,0,.11.13.34.2.51A.54.54,0,0,0,15.7,9Zm.14-.31s.05,0,.08,0a.39.39,0,0,0,0-.11,3.42,3.42,0,0,0-.21-.43.32.32,0,0,0-.11-.12s-.06,0-.1,0A3.21,3.21,0,0,0,15.84,8.71Zm.08.19a1.34,1.34,0,0,0,.17.48v0h0l0,.07,0,0-.05,0h0v0A.78.78,0,0,0,15.92,8.9Zm.57.3c.07-.13.07-.13.05-.2a1.57,1.57,0,0,0-.37-.81s0,.06,0,.09A5.12,5.12,0,0,0,16.49,9.2Zm-.23-1.38,0-.07-.1,0s0,0,0,0A.27.27,0,0,0,16.26,7.82Zm.63.95a.44.44,0,0,0-.31-.5A.68.68,0,0,0,16.89,8.77Zm-.24-.84,0,0s0,0,0-.06l0,0S16.65,7.89,16.65,7.93Zm-.32-1.51a3.93,3.93,0,0,0,.41,1,1.41,1.41,0,0,1,.05-.29.35.35,0,0,0-.17-.5,1.58,1.58,0,0,1-.15-.12Zm-2.21.76.1.09a2.17,2.17,0,0,1,.56.57l.34.48a.44.44,0,0,0,.1.08.32.32,0,0,0-.07-.35A1.17,1.17,0,0,1,15,7.77c0-.07,0-.16.06-.19s.11.19.25.19,0-.07,0-.11V7.53c0-.16,0-.16.22-.22s.12.19.24.26c0-.17,0-.31.06-.45s-.09-.27,0-.43a.68.68,0,0,1,.26.35l.15.36c0,.07.07.14.19.13a.38.38,0,0,0,0-.15.41.41,0,0,0,0-.16,6.6,6.6,0,0,0-.2-.63A.77.77,0,0,0,16,6.3a.36.36,0,0,0-.45,0c-.06.07-.08.07-.15,0s-.19,0-.29,0a.26.26,0,0,1,0,.09c0,.1-.05.13-.14.09s-.05,0-.08,0a.21.21,0,0,0-.24.17l.1.16c-.14.12-.16-.1-.29,0S14.17,7,14.12,7.18Zm1.13,1.56-.07,0,0,0,.06,0Zm-.34.42a.28.28,0,0,0,0-.12l-.06,0s0,0,0,0l.15.49H15C15,9.41,14.94,9.29,14.91,9.16ZM13.78,7.5s0,0,0,0a4.25,4.25,0,0,1,.65.69.52.52,0,0,0,.37.23c0-.13,0-.2-.07-.29a3.87,3.87,0,0,0-.62-.72L14,7.32Zm-.37.18a1.73,1.73,0,0,0,.21.17,2,2,0,0,1,.45.42,3.68,3.68,0,0,0,.39.4l0,0s0-.07,0-.09-.17-.23-.26-.34a5.8,5.8,0,0,0-.55-.56C13.59,7.55,13.53,7.57,13.41,7.68Zm1,1.47c0-.09,0-.15,0-.19A.91.91,0,0,0,14,8.54C14.14,8.72,14.15,9,14.39,9.15ZM13.87,9c.13.15.16.33.42.38C14.19,9.16,14.11,9,13.87,9Zm-1.1-1.18.14.07a1,1,0,0,1,.36.23h0c.14,0,.24.21.43.12a.42.42,0,0,0-.43-.12h0s0-.07,0-.08a2.45,2.45,0,0,0-.35-.29S12.82,7.72,12.77,7.81Zm-2.32,4.7a7.88,7.88,0,0,0,.44,1.08,3.44,3.44,0,0,0-.12-.91l-.14-.09C10.58,12.56,10.55,12.49,10.45,12.51Zm.27-.43v-.51A.35.35,0,0,0,10.72,12.08Zm.36-.5c-.2.08-.21.24-.23.4s0,.34.13.44C11,12.16,11,11.89,11.08,11.58Zm0,1.28s-.08,0-.13-.07a2.45,2.45,0,0,0,.31,1.4.17.17,0,0,0,0-.1c0-.3-.06-.61-.1-.91A1.17,1.17,0,0,0,11.06,12.86Zm-.53-2.23c0-.07,0-.13-.13-.11l-.05.57c-.11,0-.12-.05-.14-.11a2.61,2.61,0,0,1-.08-.69c0-.35,0-.7,0-1s0-.42,0-.63.06-.4.07-.59c0-.36,0-.71,0-1.06a12.71,12.71,0,0,1,.16-1.85s0,0,0-.06a.51.51,0,0,0-.07.15,3.75,3.75,0,0,0-.16.81c0,.38-.09.77-.14,1.15,0,0,0,.14-.11.11l0,0a6.75,6.75,0,0,1,0-1.68c0-.06,0-.11-.09-.09,0,.2-.05.4-.08.59a4.12,4.12,0,0,0-.06,1,2.2,2.2,0,0,1-.11,1,2.42,2.42,0,0,0-.16,1.1.66.66,0,0,1,0,.14,4.7,4.7,0,0,0,.12,1.05,6.9,6.9,0,0,1,.14.78c-.18-.16-.14-.39-.31-.5s0-.08,0-.13,0-.21-.05-.32l0-.21a1.56,1.56,0,0,0,.12,1,1.06,1.06,0,0,1,.06.68l-.08,0c-.18.11-.2.16-.09.31a.64.64,0,0,1,.1.24,1.45,1.45,0,0,1,.06.59c0,.08,0,.14.13.13h0l0,.32.11.17c0-.12,0-.17-.11-.17a.31.31,0,0,0,0-.32h0a1.39,1.39,0,0,1,0-.64.17.17,0,0,0,0-.1.87.87,0,0,1,.07-.61,1.86,1.86,0,0,1,0,.22.89.89,0,0,0,.08.51,1.14,1.14,0,0,0,.14.16,3,3,0,0,1,0-1,2.64,2.64,0,0,1,0,.29,1.77,1.77,0,0,1,.08.31,7.9,7.9,0,0,0,.2.84s.06.06.12.12c0-.27-.15-.48,0-.75l.09.19a2.08,2.08,0,0,1,0,.23c.06.32.13.63.19.94,0,.13,0,.26.07.39s.05.06.12.14c0-.13,0-.2,0-.27a4.35,4.35,0,0,1-.13-.58,4.61,4.61,0,0,0-.19-1.11,1.94,1.94,0,0,1,0-.72.14.14,0,0,1,0-.09A.78.78,0,0,0,10.53,10.63Zm-.26,2.83c0-.05-.06-.09-.08-.06s0,.06,0,.08a2.5,2.5,0,0,0,0,.29l.07.14.06,0Zm-.39.39s0,.08.1,0a2.53,2.53,0,0,0,0-.48,2.07,2.07,0,0,1-.09-.66.19.19,0,0,0-.09.18A4.06,4.06,0,0,0,9.88,13.85Zm-.11-.11h0v.09h0S9.77,13.77,9.77,13.74Zm-.88-1.49A.4.4,0,0,0,9,11.94l0-.3,0,0s0,.15.13.13l0-.24h.14c0-.11,0-.2,0-.29l-.18-1a9.18,9.18,0,0,1-.19-1.74c0-.39,0-.79,0-1.19s0-.55,0-.83A1.89,1.89,0,0,0,8.7,6a.11.11,0,0,0-.14-.09s0,.1,0,.15c0,.29,0,.59,0,.89s0,.46.05.69.09.66.1,1a7.73,7.73,0,0,0,.06,1,1.79,1.79,0,0,0,.11.51,1.23,1.23,0,0,1,.1.42,1.89,1.89,0,0,0,.17.7.14.14,0,0,1,0,.06c-.06.05-.11,0-.13,0s-.12-.31-.17-.47,0-.15-.12-.21c0,.19.06.36.09.54a1.74,1.74,0,0,0,.05.22.34.34,0,0,1,0,.1.22.22,0,0,1-.05.08.07.07,0,0,1-.09-.06c-.06-.41-.12-.81-.17-1.22a.24.24,0,0,1,0-.12c.08-.08,0-.16,0-.25-.06-.3-.12-.6-.19-.91s-.11-.56-.17-.84a4.37,4.37,0,0,1-.11-1c0-.37-.08-.72-.06-1.09,0-.09,0-.11-.19-.11a.39.39,0,0,0,0,.26A2.53,2.53,0,0,1,8,7c0,.29,0,.57,0,.86a3.59,3.59,0,0,0,.05.46c0,.27.12.54.18.81l.15.73a.27.27,0,0,1-.13-.15,9.19,9.19,0,0,1-.6-2.06c0-.44-.19-.86-.21-1.31a1.36,1.36,0,0,0-.13-.37s-.05-.05-.11-.11c0,.11,0,.16,0,.21,0,.25.08.5.1.76A8.06,8.06,0,0,0,7.56,8c.09.31.17.63.25,1l0,0c-.14-.26-.27-.53-.39-.8s-.16-.44-.24-.66a6,6,0,0,1-.3-1.05,5,5,0,0,0-.22-.72c0-.06,0-.12-.14-.08A4.53,4.53,0,0,0,6.85,7c.09.23.16.45.23.69a8.81,8.81,0,0,0,.53,1.46.93.93,0,0,0,.23.35c.14.11.09.3.22.4l.06.08a1.59,1.59,0,0,1,.13.22,4.59,4.59,0,0,1,.29,1.16,1.78,1.78,0,0,0,.1.51.57.57,0,0,1,.06.38.17.17,0,0,0,0,.1,4.4,4.4,0,0,1,.08.89.65.65,0,0,0,0,.19s0,0,.09.08a5.58,5.58,0,0,0-.08-.85A.46.46,0,0,1,8.89,12.25ZM7.32,13.5s0,.06,0,.07l.22.15a.34.34,0,0,0-.22-.22v0H7.08l0-.11H7a.54.54,0,0,1,0,.11h.24ZM5,12.42H5a.1.1,0,0,1,.13.05s0,0,0,0h.2l0,0c0,.1,0,.12.15.12h0a.15.15,0,0,0,.18.13h0a.34.34,0,0,0,.31.19h0c.06.06.07.06.2.07L6.09,13h0a.35.35,0,0,0-.31-.19h0c0-.09-.1-.11-.18-.13h0l-.15-.12v0h0a.15.15,0,0,0-.17,0h0c0-.07-.07-.06-.13-.06H5c0-.07,0-.11-.08-.15s-.23-.09-.28-.22h0a3,3,0,0,1,.64.32l.68.41s.07.05.12,0l-.61-.44c-.39-.26-.79-.52-1.17-.8s-.46-.38-.69-.57a.86.86,0,0,0-.56-.3c-.09.18-.08.2,0,.28l1,.62a2.74,2.74,0,0,1,.58.5h0l-.11,0-1.38-.78a1,1,0,0,0-.84-.06l0,.05.91.3a1.66,1.66,0,0,1,.27.13l.37.21.84.38C4.85,12.3,5,12.31,5,12.42ZM2.34,14.25a.8.8,0,0,0-.35.11s0,.07,0,.11,0,0,.07,0a1.83,1.83,0,0,0,.32-.14S2.35,14.3,2.34,14.25Zm-.22.63c.14-.06.3,0,.42-.15l-.12-.15A.5.5,0,0,0,2.12,14.88ZM2.25,14c0-.1,0-.16-.12-.16a3.44,3.44,0,0,0-.45.05.31.31,0,0,0-.15.11s0,.07,0,.15C1.76,14,2,14.14,2.25,14ZM2,13.67c-.09-.13-.16-.24-.28-.18s-.27,0-.33.18,0,0,0,.08A1.66,1.66,0,0,0,2,13.67Zm-1.31-1a.13.13,0,0,0,0,.12l.17.08c.06-.11,0-.17-.07-.22A.14.14,0,0,0,.67,12.69Zm.1-.32c0,.06.06.08.12.08s.07,0,.07,0a.23.23,0,0,0,0-.11,1.13,1.13,0,0,0-.15-.09A.54.54,0,0,0,.77,12.37Zm-.16.69c-.07.1-.12.18-.07.3A.47.47,0,0,0,1,13.27.59.59,0,0,0,.61,13.06Zm.46-1A.28.28,0,0,0,.77,12C.89,12.05.89,12.05,1.07,12Zm.41-.39a.32.32,0,0,0,.35-.11c-.08-.1-.19-.17-.27-.13s-.32,0-.48,0a.4.4,0,0,1-.32,0,.45.45,0,0,0-.16,0,.45.45,0,0,0,.39.19A2.63,2.63,0,0,1,1.48,11.63ZM1,11v0H1Zm.32,1c.18,0,.34.07.47-.14H1.46S1.41,11.94,1.36,12Zm.32.37s0-.07-.06-.08a.13.13,0,0,0-.18.09.08.08,0,0,0,0,.08C1.54,12.53,1.64,12.49,1.68,12.38Zm-.12.28c-.08.07-.14.13-.1.26a.6.6,0,0,0,.37,0C1.79,12.76,1.69,12.71,1.56,12.66Zm-.11.64.09,0,.27,0,0-.19C1.51,13.1,1.5,13.1,1.45,13.3Zm.44-2c.06-.15.06-.17,0-.21l-.27-.18L1.31,11A1.09,1.09,0,0,0,1.89,11.32ZM1.61,9.58h0v0h0S1.6,9.58,1.61,9.58Zm.79.28-.3-.07c0-.12-.08-.21-.25-.18a.32.32,0,0,0,.24.2c.06.23.26.31.46.44C2.56,10.07,2.44,10,2.4,9.86Zm.08-.31.2.38,0,0a.55.55,0,0,0,0-.38.14.14,0,0,0-.19-.07S2.48,9.54,2.48,9.55ZM2.14,9.1A.43.43,0,0,0,1.84,9,.43.43,0,0,0,1.68,9,.75.75,0,0,0,2,9.19C2.08,9.2,2.13,9.19,2.14,9.1ZM2,11H2l.14-.24a.59.59,0,0,0-.38-.06.1.1,0,0,0-.07.06.15.15,0,0,0,0,.09Zm.34-.41c.12-.15.12-.23,0-.31a.49.49,0,0,0-.47-.07h0a.41.41,0,0,0,.07.11A3.28,3.28,0,0,1,2.3,10.57Zm.8-.38,0,0h0l0,0S3.09,10.18,3.1,10.19Zm.32-.32a.19.19,0,0,0,.25,0c.05,0,0-.17,0-.24a.41.41,0,0,0-.29-.15C3.36,9.64,3.39,9.76,3.42,9.87Zm3.32,3.07s.07,0,.17,0l-.5-.47a.23.23,0,0,0-.23-.06h0c-.07,0-.12-.11-.21-.1h0s0-.07-.06-.09a18.13,18.13,0,0,1-1.6-1.43A3.07,3.07,0,0,0,4,10.55a.52.52,0,0,0-.39-.17.15.15,0,0,0-.1.06.15.15,0,0,0,0,.12s.11.11.19.08.13,0,.18.06l1.18,1.1a2.54,2.54,0,0,0,.82.52H6c0,.07.11.13.21.1h0s0,.1.07.12ZM3.87,9.62l.07-.12s0,0-.07,0a.06.06,0,0,0-.05.06S3.84,9.57,3.87,9.62Zm.24-.45a.74.74,0,0,0,0,.15s0,.09.1,0S4.24,9.23,4.11,9.17Zm0,1c0,.1.13.2.19.3a3.65,3.65,0,0,0,1.08,1.1.36.36,0,0,0-.07-.1L4.92,11c-.18-.25-.34-.51-.52-.76A.61.61,0,0,0,4.24,10a.13.13,0,0,0-.12,0A.11.11,0,0,0,4.11,10.15Zm.69-.38a.11.11,0,0,0-.12,0s-.09.08-.08.12a.88.88,0,0,0,.1.27l.94,1.29a.26.26,0,0,0,.09.09,2.09,2.09,0,0,1,.43.41,2.72,2.72,0,0,0,.66.6l-.1-.12L6,11.58a5.4,5.4,0,0,1-.84-1.22c-.08-.16-.18-.3-.27-.45A.67.67,0,0,0,4.8,9.77Zm0-.59s0,.07,0,.07a.17.17,0,0,0,.12,0,.11.11,0,0,0,0-.08c0-.06-.07-.1-.1-.15L4.85,9A.38.38,0,0,0,4.84,9.18Zm.38-.08a.19.19,0,0,0,.07.06.13.13,0,0,0,.09,0c.07-.11,0-.25-.15-.34a1.8,1.8,0,0,0,0,.22A.31.31,0,0,0,5.22,9.1Zm.45,2.67s-.07,0-.12,0l.65.56A1.25,1.25,0,0,0,5.67,11.77ZM4.56,9.19a1,1,0,0,0,0,.16s0,0,0,0,0,0,0,0A.13.13,0,0,0,4.56,9.19Zm0-.48c0-.16-.15-.23-.34-.22,0,.15.12.22.22.31s.06,0,.09,0S4.6,8.73,4.59,8.71Zm2.54,3.87a3.15,3.15,0,0,0,.22.29.12.12,0,0,0,.19,0s0-.11-.08-.13a.81.81,0,0,1-.29-.39A.49.49,0,0,0,7,12.12a.82.82,0,0,1-.3-.34c-.18-.32-.4-.63-.57-1a6.12,6.12,0,0,1-.5-1.07.51.51,0,0,0-.09-.18.16.16,0,0,0-.12,0s0,0,0,.07a1.94,1.94,0,0,0,.09.48,3.09,3.09,0,0,0,.63,1,2,2,0,0,1,.39.53,2.21,2.21,0,0,0,.41.6A3.65,3.65,0,0,1,7.13,12.58ZM5.55,8.91a.14.14,0,0,0,0,.06c.11,0,.18-.05.17-.15a1.37,1.37,0,0,0-.15-.56h0C5.54,8.47,5.54,8.69,5.55,8.91Zm.8-4.29a1,1,0,0,0,.1.41,5.49,5.49,0,0,1,.06-.91s0-.07-.09-.06-.14.08-.11.14A.76.76,0,0,1,6.35,4.62Zm.06-.75s.07.1.13.06c0-.39,0-.39-.11-.57A.44.44,0,0,0,6.41,3.87Zm.33,3.6c0-.08,0-.13-.11-.21,0,.12,0,.18.11.21h0c0,.14.08.21.15.29v0l0,0v0h0l-.09-.22-.07-.08h0Zm.15,1.84c.17,0,.32,0,.42-.14S7.28,9,7.14,9a.76.76,0,0,1-.1.13C7,9.22,6.88,9.18,6.89,9.31Zm.2-.44A.32.32,0,0,0,7,8.5C7,8.74,7,8.74,7.09,8.87Zm1,1.64c0-.11,0-.22-.13-.26-.29.1-.29.1-.26.33A.51.51,0,0,0,8.11,10.51ZM8,10.73a.55.55,0,0,0-.33.11c0,.06.08.13.13.15a.34.34,0,0,0,.32,0Zm-.13-.64C7.84,10,7.81,10,7.77,10s-.12,0-.12.12,0,.1.06.09A.79.79,0,0,0,7.9,10.09Zm-.21,2c0,.21,0,.21.13.21Zm-.1-2.49-.24.18.2.18C7.7,9.85,7.7,9.85,7.59,9.63Zm-.29.87a2.27,2.27,0,0,0,.14,1.4A7.15,7.15,0,0,0,7.3,10.5Zm.14-1.09-.22.15s0,0,0,.07.09.08.13,0S7.5,9.57,7.44,9.41Zm-.4.88s0-.07,0-.13a1.25,1.25,0,0,0-.09.73,1.32,1.32,0,0,0,.22.64.17.17,0,0,0,0-.1A4,4,0,0,1,7,10.29ZM6.62,7.87v.35h0c-.08-.05-.14-.17-.28-.09s0,.14.08.18a.14.14,0,0,0,.2-.09h0c.12.16.13.16.23,0Zm.1,1.24a.15.15,0,0,0,0-.21c-.06-.06-.12-.13-.23-.06a2.65,2.65,0,0,0-.06.68,10.87,10.87,0,0,0,.22,1.27h.06a.81.81,0,0,0,0-.22c0-.29-.05-.59-.07-.88A.72.72,0,0,1,6.72,9.11ZM6.49,7h0V7l0,0,0,0,0,0Zm-.17.52.1,0h0l0,0ZM7,13.07v0H7v0Zm.56.36-.35-.22,0,0,.22.18Zm0-.33h.17c0,.09.08.13.21.19-.07-.13-.12-.19-.21-.19h0c-.05-.11-.07-.11-.15,0h0c-.12,0-.19-.07-.28-.12s-.08-.08-.15,0l.35.27s0,0,.06-.06A.29.29,0,0,0,7.57,13.1ZM8,12.63l-.07-.06-.14,0C7.85,12.64,7.89,12.69,8,12.63Zm0-.69a.88.88,0,0,0,0-.23.2.2,0,0,0-.21-.05s-.08.11,0,.18Zm.05-.51s0,0,0-.07,0-.06,0-.07a.51.51,0,0,0-.17-.07s-.08,0-.08.08A.15.15,0,0,0,8.07,11.43ZM8,12.25a1.48,1.48,0,0,1,.17.67.47.47,0,0,0,0,.17.12.12,0,0,0,.18.06c0-.37-.07-.75-.06-1.13,0,0,0,0,0-.09ZM6.78,4.55a1.06,1.06,0,0,0,.14.73s0,0,.07.06,0-.06,0-.07a2.36,2.36,0,0,1-.14-.74.29.29,0,0,1,.1-.3.64.64,0,0,0,.17-.35.07.07,0,0,0,0-.1.1.1,0,0,0-.09,0A.39.39,0,0,0,6.94,4,4.44,4.44,0,0,0,6.78,4.55Zm.16-.8V3.58h0v.18Zm.36.52a1.07,1.07,0,0,0,0,.73,1.33,1.33,0,0,1,.17.52s0,.05.07.05,0,0,0-.06A3.57,3.57,0,0,0,7.3,4.27ZM7.5,4a.49.49,0,0,0,.11-.31s0-.09-.07-.09-.1,0-.1.05A.33.33,0,0,0,7.5,4Zm.4.06a.92.92,0,0,0,.17,1c0-.23,0-.43,0-.64a2.21,2.21,0,0,0,0-.25S8,4.14,7.9,4.07ZM8,3.74l.11-.08A.23.23,0,0,0,8,3.59s-.07,0-.07,0A.64.64,0,0,0,8,3.74ZM8,5.52a.2.2,0,0,0,.08.08s0,0,.08-.07l-.12,0Zm.32-.42a.41.41,0,0,0,.09.1.26.26,0,0,0,0-.1c0-.34,0-.67,0-1L8.44,4a1.67,1.67,0,0,0,0,.18c0,.25,0,.5-.05.75A.53.53,0,0,0,8.35,5.1Zm.32-1.41-.06.09.07,0s.05,0,0,0Zm0-.13s0,0,0,0v0l0,0S8.69,3.55,8.69,3.56Zm.14.77a5.41,5.41,0,0,0,.05.79S9,5.06,9,5a1.52,1.52,0,0,0-.06-.67s-.05,0-.08,0h0a.14.14,0,0,0,0-.06.05.05,0,0,0,0,0v.09ZM9,3.91H9V3.85l0,0S9,3.91,9,3.91Zm.33.46H9.24l0,.38a.43.43,0,0,0,0,.16.31.31,0,0,0,0,.12.13.13,0,0,0,.09,0s0,0,0,0a.88.88,0,0,0,0-.16C9.38,4.69,9.34,4.53,9.3,4.37Zm.12-.27L9.59,4c-.06-.09-.11-.16-.22-.14A.18.18,0,0,0,9.42,4.1ZM9.16,5.43c0,.05.06.05.1.05h0a.21.21,0,0,0,0,.08l0,0,.07-.05s0,0,0,0a.15.15,0,0,0-.09,0h0S9.22,5.4,9.16,5.43ZM9.11,8a10.41,10.41,0,0,0,0,1.58s0,0,.05.1a.81.81,0,0,0,.05-.37,4,4,0,0,1,0-.49c0-.33.09-.66.14-1a2.37,2.37,0,0,0,0-.65c0-.23,0-.46,0-.69s0-.27,0-.4,0-.12-.06-.22A.38.38,0,0,0,9.22,6c0,.06,0,.13,0,.2a5.83,5.83,0,0,1,0,1.18C9.16,7.58,9.12,7.78,9.11,8ZM8.94,12.7a.14.14,0,0,1,0,.06l0,0s0,0,0-.06Zm.08.85s.07.06.15.12c0-.35,0-.36-.14-.54A.56.56,0,0,0,9,13.55ZM9.13,12v.22C9.22,12.12,9.22,12.12,9.13,12Zm.06.85a2.8,2.8,0,0,0,.13.81s0,0,.1.07a7.92,7.92,0,0,0-.19-1S9.19,12.87,9.19,12.89Zm.9-8.69s0-.09,0-.11a2,2,0,0,0-.2-.21s0,0-.11,0l.13.33.09,0Zm0,.2c-.09.15-.09.16,0,.43C10.21,4.66,10.21,4.64,10.08,4.4Zm-.34.21a.66.66,0,0,0,0,.14h0V4.61l0-.05A.08.08,0,0,0,9.74,4.61Zm0,.47s0,0,0,0h0A.11.11,0,0,0,9.85,5a.09.09,0,0,0,0,0C9.73,5,9.72,5,9.73,5.08Zm.52-1.16h0c.05,0,0-.11,0-.17s0,0,0,0l0,0C10.17,3.85,10.2,3.91,10.25,3.92Zm.15.47c0,.06,0,.08.09.06a.41.41,0,0,0,0-.36A.47.47,0,0,0,10.4,4.39Zm.12,4.48.08-.13a.59.59,0,0,0,.05-.39,5.22,5.22,0,0,1,.07-1.25,3,3,0,0,0,.06-.43A12.43,12.43,0,0,1,11,5.05c0-.19.09-.37.12-.55a.87.87,0,0,0,0-.36s-.06,0-.07,0a2.55,2.55,0,0,0-.2.73c0,.42-.07.85-.13,1.28s-.13.73-.22,1.1A4,4,0,0,0,10.52,8.87Zm0-6.37-.08.34.17.1.22-.27c.06-.06,0-.12,0-.19Zm.1-.25s0,0,0,0,0,0-.06-.06l0,.07ZM11,3.82l.09-.56-.12,0-.06,0A1,1,0,0,0,11,3.82Zm.67-1.22a.9.9,0,0,0,0-.4C11.68,2.33,11.56,2.46,11.68,2.6Zm-.24.87s.1,0,.11,0,.06-.29.1-.46C11.49,3.13,11.49,3.13,11.44,3.47Zm-.13,2c-.06.19-.13.38-.18.57a6.77,6.77,0,0,0-.19,1.11c0,.14,0,.28-.06.42a3.67,3.67,0,0,0,0,.74A.12.12,0,0,0,11,8.18c0-.17,0-.34.07-.5.13-.47.28-.95.42-1.42.07-.21.15-.41.22-.62h0v0l.55-1.29a.19.19,0,0,0,0-.07s0-.1,0-.13,0,0,0,.06a5.2,5.2,0,0,1-.37.92.76.76,0,0,0-.12.51h0c-.07,0-.09.05-.11.09a3.28,3.28,0,0,0-.27.74c0,.07,0,.17-.12.17s0-.06,0-.09c.19-.77.39-1.54.58-2.3a.54.54,0,0,0,0-.33s-.05-.06-.1-.12a1.07,1.07,0,0,0-.07.25,4.12,4.12,0,0,1-.22,1Zm.48-3.71c0,.18.06.29.09.45C11.93,1.87,11.93,1.87,11.79,1.74Zm0,1.58c.14-.06.12-.18.14-.28A.31.31,0,0,0,11.8,3.32Zm1.45,0h0c-.06,0-.08.05-.05.07h0l0-.07h0A.38.38,0,0,0,13.38,3h0c.06,0,.08-.06,0-.07s-.05,0,0,.07h0A.42.42,0,0,0,13.25,3.29Zm.05-.86,0,0,0,0h0A.13.13,0,0,0,13.3,2.43Zm.12-.27V2h0v.13Zm-.11,1.61-.11,0v0l.1,0,0,0Zm-.26,1.17h0V5a.41.41,0,0,0-.12.32h0c-.07,0-.07.06-.06.12h0c-.06,0,0,.11,0,.16h0c-.09,0-.13.1-.16.18a5.77,5.77,0,0,1-.27.56,2.78,2.78,0,0,0-.3.69c-.05.14-.1.27-.14.41s-.06.14,0,.23.09,0,.1,0a.58.58,0,0,0,.08-.18A8.69,8.69,0,0,1,12.8,5.6h0v0l0-.16h0c.07,0,.07-.06.06-.12h0A.49.49,0,0,0,13,5h0a.72.72,0,0,0,.23-.58A.87.87,0,0,0,13.05,4.94ZM11.78,8.15c.15.18.37.06.54.15a2.18,2.18,0,0,0,.51.17h0c.07.14.21.19.33.33-.07-.29-.08-.3-.33-.33h0a2,2,0,0,0-.7-.44C12,8,11.88,8.05,11.78,8.15ZM13,2.33a.22.22,0,0,0-.07.31s.06,0,.08,0a.13.13,0,0,0,.09-.07A.27.27,0,0,0,13,2.33ZM12.67,3.6l0,.09c.06,0,.13-.06.15-.1s.18-.23.12-.42Zm0-.94,0,0,0,0,0,.14h0S12.69,2.71,12.66,2.66Zm-.08.48c-.09.2-.24.32-.21.55C12.59,3.56,12.61,3.39,12.58,3.14Zm-.26,2.22c-.1.21-.18.42-.3.62a5.59,5.59,0,0,0-.61,1.7.28.28,0,0,0,0,.25.19.19,0,0,0,.18-.14c0-.08,0-.17.05-.26s0-.24.06-.35a10.73,10.73,0,0,1,.77-2h0A1.69,1.69,0,0,1,12.56,5a.47.47,0,0,0,0-.4h0a.11.11,0,0,0,.13-.08l.12-.31s0,0,0-.13a1.46,1.46,0,0,0-.11.18c0,.11-.07.23-.11.34h0a1.47,1.47,0,0,1-.08.3.5.5,0,0,0,0,.34h0C12.39,5.22,12.35,5.28,12.32,5.36Zm0-2.61s0,0-.06-.07a1.49,1.49,0,0,0-.1.39,2.55,2.55,0,0,1-.14.35l.05,0,.06,0A1.18,1.18,0,0,0,12.34,2.75Zm-1.8,6.83a1.63,1.63,0,0,1,.83-.25l.66,0a3.5,3.5,0,0,1,.45.07A.54.54,0,0,0,13,9.25a.43.43,0,0,0,.4,0c-.16-.13-.3-.27-.46-.39a3,3,0,0,0-1.15-.54,2,2,0,0,0-.42,0s0,0-.06.07l.07,0a1.28,1.28,0,0,1,1,.25.35.35,0,0,1,.2.24c-.15,0-.29-.11-.47,0l.14.1.3.13s.11,0,.08.11l-.49-.07a.77.77,0,0,1-.26-.07A1.33,1.33,0,0,0,11.14,9h0l.12-.1.18-.08a.9.9,0,0,1,.16,0c.06,0,.13,0,.17-.06a1.32,1.32,0,0,0-.69-.16L10.82,9A.19.19,0,0,0,11,9a.11.11,0,0,1,.14.06h0l-.48.22C10.55,9.31,10.53,9.42,10.54,9.58Zm3-1,.08,0s0-.07,0-.08a2.3,2.3,0,0,0-1.06-.63.18.18,0,0,0-.22.1l.46.22a2,2,0,0,0,.4.16A.73.73,0,0,1,13.49,8.55Zm0,.44.09.08,0,0L13.47,9Zm.47-4.27a.49.49,0,0,0,0-.1,2,2,0,0,0-.37.67,1.71,1.71,0,0,0-.44.56,7.9,7.9,0,0,0-.61,1.32c0,.09-.12.19-.08.3a.13.13,0,0,0,.18,0,.75.75,0,0,0,0-.16A3,3,0,0,1,13,6.35c.19-.33.36-.67.53-1,0,0,0,0,0-.06A2.06,2.06,0,0,0,13.92,4.72Zm-.31-.31,0,0-.05,0a.08.08,0,0,0,0,0ZM14,3.74a1.25,1.25,0,0,0-.38.25.15.15,0,0,0,.21,0A.26.26,0,0,0,14,3.74Zm0-.61,0-.07-.07.06a.21.21,0,0,0,0,.06Zm.22,1.2c.08-.15.15-.26.21-.38s0,0,0-.07a1.11,1.11,0,0,0-.38.34Zm.18-1.2.08-.26C14.3,3,14.3,3,14.37,3.13Zm.09,1.66s0,0,0-.06a.06.06,0,0,0-.06,0,.13.13,0,0,0-.09.15h0v0a.09.09,0,0,0,0,.12V4.89h0C14.39,4.92,14.43,4.86,14.46,4.79Zm.19.32a.26.26,0,0,0-.12,0s0,0-.1.1a.86.86,0,0,0,.15,0s.1,0,.1,0A.17.17,0,0,0,14.65,5.11Zm0-.64s0,0,.05,0l.24-.34L15,3.93a1,1,0,0,0-.39.39.15.15,0,0,0,0,.09A.08.08,0,0,0,14.61,4.47Zm.51.72L15,4.93a.45.45,0,0,0-.14.06c-.05,0,0,.11,0,.15S14.94,5.25,15.12,5.19Zm.19-1.14c-.24.14-.26.16-.25.38C15.22,4.31,15.22,4.31,15.31,4.05Zm.29,1-.21-.2a.09.09,0,0,0-.05,0,.38.38,0,0,0-.15,0,.13.13,0,0,0,0,.12.36.36,0,0,0,.17.13C15.44,5.15,15.51,5.1,15.6,5.07Zm-.08-.51a.52.52,0,0,0,.19-.36C15.51,4.38,15.51,4.38,15.52,4.56Zm.43.37c-.21-.13-.25-.15-.42-.11C15.66,4.9,15.77,5,16,4.93Zm.16-.74c-.09,0-.17,0-.21.11s0,0,0,.06a.07.07,0,0,0,.06,0A.16.16,0,0,0,16.11,4.19ZM15.91,4a1.37,1.37,0,0,0,.1-.14s0-.09-.05-.09-.05,0-.05.06A.92.92,0,0,0,15.91,4Zm.54.32c-.26.22-.26.22-.23.39A.47.47,0,0,0,16.45,4.29ZM14.18,1.15a2.89,2.89,0,0,0,.18.73c0,.25.08.49.12.78a2.14,2.14,0,0,0,0-.84.43.43,0,0,1,0-.16.6.6,0,0,1,.09.13l.18.65a1,1,0,0,1,0,.16c0,.18,0,.36,0,.55h0a.29.29,0,0,0-.1.29l.27.11.29-.09h0a.16.16,0,0,0,0,.07s0,0,0,0h0c0-.05,0-.08,0-.1h0c0-.18,0-.21-.17-.22H15c-.1,0-.15,0-.2-.1h0s.07,0,.08-.07a.75.75,0,0,0,0-.49l-.15-.79h0a.83.83,0,0,1,.09.16c.1.22.18.44.28.66,0,0,0,0,.06,0l0-.26c.12,0,.14.1.14.2a.93.93,0,0,0,0,.29,2.77,2.77,0,0,0,.12.41s0,.14.12.13,0-.15,0-.22a.45.45,0,0,1,0-.16,3,3,0,0,1,.06-.42.06.06,0,0,1,.06-.06.08.08,0,0,1,.08,0,.43.43,0,0,1,0,.19,1.55,1.55,0,0,0,.14.67s0,.09.08.08A1.8,1.8,0,0,0,15.93,3c0-.11,0-.23,0-.35s.08,0,.09.06a4.16,4.16,0,0,1,.24.47.24.24,0,0,0,.14.12h0a.54.54,0,0,0,0,.43.34.34,0,0,0,.07.11c.08-.12,0-.21,0-.3s0-.16,0-.24h0c-.12-.1,0-.23,0-.35l.21.64,0,0a1.26,1.26,0,0,0-.15-1.07A4.61,4.61,0,0,0,16,1.87a1.07,1.07,0,0,0-.66-.41A.51.51,0,0,1,15,1.33s-.08,0-.11,0,.07.18,0,.28l-.17-.33a.53.53,0,0,0,0,.25,2.46,2.46,0,0,1,0,.26s0,0,0,0h0a.46.46,0,0,1-.09-.23.43.43,0,0,0-.24-.32l.07.42s-.06-.06-.07-.1A1.82,1.82,0,0,0,14.18,1.15Zm-.13,1.43c0,.11,0,.21-.05.34a.59.59,0,0,0,.2-.52h0v0a.68.68,0,0,0,0-.42l0,.42v0h0c-.1,0-.11.09-.14.15A0,0,0,0,0,14.05,2.58Zm-.12-1.4,0,.05v0h0l0,0v0h0V1.17ZM12.87.42A1.44,1.44,0,0,1,13.3,1a1.08,1.08,0,0,0,.14.26,1.76,1.76,0,0,1,.31.61,1.28,1.28,0,0,1-.08,1.08s0,0,0,.08a1.17,1.17,0,0,0,.23-.38.58.58,0,0,0,0-.62,1,1,0,0,1-.1-.24.56.56,0,0,0-.09-.21,1.36,1.36,0,0,1-.13-.3A1.59,1.59,0,0,0,13,.43S12.93.36,12.87.42ZM12.14.3l.37.2C12.37.26,12.35.26,12.14.3ZM11,1.08c-.21-.2-.21-.2-.43-.22.1.15.2.28.28.41a2.16,2.16,0,0,1,.42,1.17c0,.12,0,.24,0,.36s0,.05.07.05.06,0,.07-.06a.86.86,0,0,0,0-.16c0-.18-.07-.35-.1-.52a1.11,1.11,0,0,1,0-.48.39.39,0,0,1,.35.1l0,0,0,0V1.65c.19,0,.38-.13.59,0,0-.12,0-.16.14-.16s.11.07.13.13c.07.23.14.46.21.67,0-.12,0-.26,0-.4s-.06-.28-.09-.42,0-.11.06-.15l.13.17a2.44,2.44,0,0,1,.1.24c0,.07,0,.16.08.21,0-.2,0-.21-.17-.77,0,0,.1,0,.12,0a.61.61,0,0,1,.2.29c0,.16.05.16.21.3,0-.06,0-.1,0-.13L13,.84A.32.32,0,0,0,12.8.65a.91.91,0,0,0-.32-.06.47.47,0,0,1-.39-.14.61.61,0,0,0-.15-.12.42.42,0,0,0-.17,0c.07.14.28.12.29.29s-.22,0-.32-.06l0,.16L11.48.61a.1.1,0,0,0-.12.08l0,0c-.08,0-.09-.18-.21-.11l.09.21c-.11,0-.19-.15-.31-.06,0,.08.11.15.15.23S11,1.08,11,1.08Zm-.52.29a1.68,1.68,0,0,1,.15.3.77.77,0,0,0,.18.33s0,0,0,0a1,1,0,0,0-.16-.55A.14.14,0,0,0,10.44,1.37Zm0,2.38.33.2a.23.23,0,0,0,0-.25.78.78,0,0,0-.2-.16.15.15,0,0,0-.18.06S10.38,3.7,10.45,3.75ZM10,1.29l.27.32,0,0c0-.13-.11-.25-.17-.38s-.08,0-.11,0S10,1.25,10,1.29Zm-.39.15c.12.18.22.32.31.47s.12.33.26.45A2.78,2.78,0,0,0,9.9,1.3ZM7,2.36c0,.25-.08.52-.12.78,0,0,0,.09.07.1s0-.19,0-.28A.71.71,0,0,1,7,2.8a1.56,1.56,0,0,1,.17.12c.05.06,0,.16.14.17s0-.14.1-.15a.15.15,0,0,1,.16.1.67.67,0,0,0,.06.15.26.26,0,0,0,.2.18c0-.15-.08-.3,0-.45C8,2.93,8,2.94,8,3s.19.27.28.4c.1-.09,0-.21.06-.26H9a1.5,1.5,0,0,0,0,.24s0,.11.13.08.07-.26.12-.44a1.28,1.28,0,0,1,.12.21c0,.1,0,.22.08.32s0,0,.09.08c.1-.29-.06-.54,0-.85.17.24.16.52.33.75a.38.38,0,0,0,0-.34.42.42,0,0,1,0-.38h0c.08.06.09.17.12.25s.07.21.17.28,0-.05,0-.06c-.07-.24-.15-.48-.22-.72a2.38,2.38,0,0,1,0-.26h0a3.35,3.35,0,0,0-.42-.79l-.13.11a1.76,1.76,0,0,1,.43.6.1.1,0,0,0,.12.08h0a1.26,1.26,0,0,0,0,.51h0a1.09,1.09,0,0,1-.24-.45c-.07-.17-.16-.33-.25-.5s-.1-.1-.16-.16c0,.15,0,.25.05.37l0,.06L9.08,2,9,2.12c-.15.08-.2-.1-.32-.1a.34.34,0,0,1-.21.13l-.17-.24c0,.05-.05.09-.07.09L7.8,2l-.09-.21c-.16,0-.13.15-.2.19a.61.61,0,0,0-.15,0c-.05,0-.05.12-.16.08s0-.07,0-.11h0V1.84h0l0,.1h0s-.08,0-.09,0A2,2,0,0,0,7,2.36ZM5.86,3c0,.11,0,.15.14.16a.52.52,0,0,0,.13-.27,1.2,1.2,0,0,1,.39-.62h0c-.15.39-.16.6,0,.82A12.65,12.65,0,0,1,7,1.89a.74.74,0,0,0-.47.42h0l-.15,0A.78.78,0,0,0,5.86,3Zm0,1.56c0,.15.09.29.14.43H6l0-.51H5.88S5.82,4.57,5.83,4.6Zm0-.64s0,0,0,0a.16.16,0,0,0,0,.07s0,0,0,0A.16.16,0,0,0,5.85,4Zm.27-.13A.47.47,0,0,0,6,4.25.6.6,0,0,0,6.12,3.83Zm0-.4L6,3.26c0,.2-.11.32-.07.51Zm-2.65,0c.12-.14.13-.14.13-.19a.19.19,0,0,0,0-.13A.42.42,0,0,0,3.44,3,.33.33,0,0,0,3.49,3.4ZM3.84,5l0-.06a.91.91,0,0,1-.35-.49s-.08-.06-.16-.11A.63.63,0,0,0,3.84,5Zm0-1.53a1.06,1.06,0,0,0-.08.7c0,.07,0,.15.15.18a1.9,1.9,0,0,1,0-.79S4,3.47,3.88,3.47ZM4.1,2.3l-.22.13s0,0,0,0C4,2.53,4,2.53,4.1,2.3Zm.42,2.75c0-.11-.1-.11-.18-.12s0,0,0,0a0,0,0,0,0,0,0A.15.15,0,0,0,4.52,5.05Zm0-.76c0-.1,0-.21-.09-.31s-.05,0-.09-.09a.76.76,0,0,0,.22.78A.78.78,0,0,0,4.49,4.29Zm0-.85v0l0,0Zm.41,0L5,3.18,5.4,3l.13.12.23-.44a.85.85,0,0,0,.18-.41c-.11,0-.18,0-.22.07a.56.56,0,0,0-.07.18.54.54,0,0,1-.15.29H5.43l-.08-.21c0-.1.2-.12.18-.27s-.14.09-.22.13-.07,0-.11,0l.07-.16c-.17-.17-.31,0-.45,0s-.07-.09-.1-.1a.29.29,0,0,0-.16,0A1.64,1.64,0,0,0,4,2.77s0,.06,0,.09A.59.59,0,0,1,4.4,3a.3.3,0,0,0,.24.08l.12,0C4.82,3.26,4.66,3.42,4.86,3.47Zm-.05.93a.69.69,0,0,0,.25.44l-.13-.67s0,0-.06,0A.3.3,0,0,0,4.81,4.4Zm.72,1.41a2.71,2.71,0,0,0-.39-.49.61.61,0,0,0-.23-.11s-.06,0-.08,0,0,.06,0,.07l.6.51S5.48,5.81,5.53,5.81Zm0-1.2a1.19,1.19,0,0,1-.08-.21.41.41,0,0,1,0-.19.78.78,0,0,0-.12-.5,1.68,1.68,0,0,0-.06.47A.53.53,0,0,0,5.56,4.61Zm0-1.1a.54.54,0,0,0,0-.15,0,0,0,0,0,0,0s0,0,0,0a.07.07,0,0,0,0,0A.9.9,0,0,0,5.56,3.51Zm.8,3.17c-.06-.09-.05-.18-.16-.18h0a.12.12,0,0,0,0-.08c-.12-.34-.24-.68-.37-1,0-.1-.11-.13-.22-.12a.61.61,0,0,0,.11.44c.15.26.32.52.47.78h0C6.23,6.56,6.23,6.65,6.36,6.68ZM6.18,9.13s-.06-.07-.09-.07A.13.13,0,0,0,6,9.13a.2.2,0,0,0,0,.13,5.56,5.56,0,0,0,.2,1.14s0,0,.07.09a7.18,7.18,0,0,0,0-1A2.06,2.06,0,0,0,6.18,9.13Zm-.13-.65c.07-.06.18-.08.14-.23l-.26-.11C6,8.28,5.94,8.39,6.05,8.48ZM4,8.11c.12.15.31.1.43.19s.23.19.34.29a.11.11,0,0,0,0-.16c-.11-.15-.21-.3-.31-.46h0a4.67,4.67,0,0,1,.63.39c0-.18-.13-.24-.2-.35h0c.1,0,.2,0,.28.07a.22.22,0,0,0,.26,0l-.12-.25.33.08c.09-.15.15-.3.33-.33l.25.21c0-.26,0-.31-.15-.39a.85.85,0,0,0-.68,0,7,7,0,0,0-.72.37L4.87,8h0c-.15,0-.28-.11-.43,0h0A.68.68,0,0,0,4,8.11Zm-2.52.55c.13,0,.23,0,.32.07l.3.12a1.19,1.19,0,0,0,.26.05c.13,0,.26.06.31.21s.07.07.13.13c0-.28-.19-.34-.31-.48.19-.09.3.09.45.13v-.2a.28.28,0,0,1,.34,0L3.6,9c.14-.1,0-.22.07-.33a.33.33,0,0,1,.14,0A1.3,1.3,0,0,1,4,8.86l.07,0,.07-.23L4,8.5a.88.88,0,0,0-.85-.31.6.6,0,0,1-.23,0,1.28,1.28,0,0,0-.84.08c-.06,0-.13,0-.19.06a.71.71,0,0,0-.18.08s0,0,0,.08l.24.09a.49.49,0,0,1-.2,0C1.61,8.6,1.54,8.57,1.45,8.66ZM.88,9.5c.15.08.28-.05.43-.08a.67.67,0,0,0-.18-.11C1,9.24.92,9.27.88,9.5ZM.69,10A2.59,2.59,0,0,0,1.45,10c-.08-.08-.11-.14-.16-.15l-.35-.1C.74,9.7.66,9.8.69,10Zm-.13.41c.2.12.41,0,.64.07,0-.12-.05-.2-.15-.23l-.28,0C.61,10.22.6,10.23.56,10.45Zm0,.51.31,0c-.13-.28-.13-.28-.31-.32A.27.27,0,0,0,.54,11Zm-.1,2.79c0,.07.1.12.15.07s.19,0,.28-.05A.11.11,0,0,0,1,13.69a.14.14,0,0,0-.06-.11,1.33,1.33,0,0,0-.26-.05.82.82,0,0,0-.14.05A.13.13,0,0,0,.44,13.75Zm1,1.64a1.39,1.39,0,0,1,.31-.23c.09-.06.07-.13,0-.21l-.38.16c-.15-.12-.15-.12-.12-.36l.23-.14-.26-.13.1-.22L.52,14c-.06,0-.14.05-.11.11s.11.18.09.24.05.37.08.55a.78.78,0,0,0,.35.5A.35.35,0,0,0,1.41,15.39Zm.27.5c.13-.07.27-.13.4-.21s.14-.08.1-.2l-.15,0a.94.94,0,0,1-.57.1l-.27,0c-.05,0-.11,0-.13.08l.13.13A.4.4,0,0,0,1.68,15.89Zm.38.41a.53.53,0,0,0,.42-.23.15.15,0,0,0,0-.11s-.07,0-.09,0a1.42,1.42,0,0,1-.77.22C1.73,16.37,1.9,16.32,2.06,16.3Zm.93,0-.3-.07-.57.26a.32.32,0,0,0,.32.06A1,1,0,0,0,3,16.31Zm1.34-.61a2,2,0,0,1,.28-.11c.11,0,.22,0,.33,0a1.52,1.52,0,0,0,.59-.19s0,0,0-.08H5a1.54,1.54,0,0,0-.85.19s0,0,0,.07ZM4.2,16S4.11,16,4,16l.14.27c0-.06.07-.1.07-.13A.22.22,0,0,0,4.2,16Zm1.11-1c-.36,0-.64-.11-.94-.09v.16a.64.64,0,0,1-.35.1.83.83,0,0,0-.22,0s-.06.05-.06.07a.34.34,0,0,0,.08.09s0,0,.06,0a3.54,3.54,0,0,0,.45-.08.36.36,0,0,0,.18-.07.41.41,0,0,1,.33-.12A1.32,1.32,0,0,0,5.31,15Zm-1.78.94c0,.07.09.05.14.05a.7.7,0,0,0,.14,0c0-.12-.06-.15-.13-.15S3.51,15.89,3.53,15.94Zm.08-1,.41-.1a1.78,1.78,0,0,0-.82-.09C3.39,15,3.41,15,3.61,15ZM6,14.78l.12,0,.43-.07c.14,0,.3,0,.44-.09H6.13a4.85,4.85,0,0,0-.66,0,2.6,2.6,0,0,1-.88-.06c-.37-.07-.73-.17-1.09-.26a2.76,2.76,0,0,0-.86-.08c0,.21.1.28.21.37a2.73,2.73,0,0,1,.38,0,2.19,2.19,0,0,1,.36,0c.46.06.92.14,1.38.19S5.67,14.77,6,14.78Zm-3.44.39,0,.06.22-.11a.06.06,0,0,0,0-.06L2.8,15Zm.6.21c-.12-.17-.2-.18-.28,0a.15.15,0,0,0,0,.19A.67.67,0,0,0,3.19,15.38Zm.34.29c0-.1-.09-.19-.2-.15a.21.21,0,0,0-.13.13,1.22,1.22,0,0,0,0,.22Zm.3,1-.33-.09C3.62,16.73,3.62,16.73,3.83,16.65Zm.61.37-.17-.15h0c-.19-.15-.25-.14-.49,0a.65.65,0,0,0,.15.05l.34-.09h0L4,17.1C4.21,17.12,4.34,17.15,4.44,17Zm.28-1c-.2-.06-.24-.05-.27.07l-.06.29c.08,0,.12-.1.17-.14S4.71,16.17,4.72,16.05ZM5,16.2c0-.08,0-.12-.15-.11s-.13.26-.09.46A.39.39,0,0,0,5,16.2Zm.12.68,0,0L5,16.92S5,17,5,17Zm.16-.66c0-.06,0-.11-.07-.13s-.09,0-.08.11a1.25,1.25,0,0,0,0,.19C5.27,16.37,5.28,16.3,5.28,16.22Zm.18-.56a.28.28,0,0,0-.26.16C5.42,15.88,5.48,15.84,5.46,15.66Zm.15.51s0-.05-.06-.06-.09,0-.09.06,0,.28,0,.42h0C5.56,16.46,5.59,16.32,5.61,16.17ZM5.8,15l-.26,0C5.7,15.05,5.7,15.05,5.8,15ZM6,16.19s0-.07,0-.09S5.93,16,5.89,16s-.07.08,0,.12a.24.24,0,0,0,.06.08H6S6,16.2,6,16.19Zm0-.71-.25.22C5.94,15.67,5.94,15.67,6,15.48Zm.4.57S6.36,16,6.34,16s-.13,0-.11.11a.11.11,0,0,0,.07.08C6.37,16.17,6.44,16.11,6.42,16.05Zm.41-.71h0v0L7,15.19c-.16,0-.17,0-.11.14h0l-.24-.06-.34.35s0,.07,0,.12a.37.37,0,0,0,.27-.14C6.6,15.52,6.68,15.39,6.83,15.34Zm0,.6a.17.17,0,0,0-.17-.15s0,0,0,0a1.49,1.49,0,0,0,.14.12Zm.28-.28c-.08-.06-.15-.15-.28-.05a.42.42,0,0,0,.12.14C7.05,15.81,7.1,15.76,7.12,15.66Zm.22-.28s0,0,0-.08-.06,0-.07.07,0,.09.06.07A.15.15,0,0,0,7.34,15.38Zm4.41-.17a2,2,0,0,1,.18-.15c.08-.06.15.1.25,0l-.44-.19A.56.56,0,0,0,11.75,15.21Zm-.28.55c-.13.18-.18,0-.26,0s0,.16-.08.23L11,16l0,.23a.09.09,0,0,1-.14,0,.94.94,0,0,1-.1-.1c0,.11,0,.22,0,.34l-.05,0-.1,0c-.07,0-.08.12,0,.15s.1.12.12.22-.08.05-.11.05a1.39,1.39,0,0,1-.41-.12,9.9,9.9,0,0,1-1.1-.72,6.93,6.93,0,0,0-1.19-.81,1.48,1.48,0,0,1-.13-.08s0-.05,0-.05l0,0a1.67,1.67,0,0,1,.46.29h0l.24.14c-.09-.18-.1-.19-.24-.14h0v-.16h0a1.82,1.82,0,0,1,.31.16,4.11,4.11,0,0,0,.56.27s.1,0,.14,0h0a.39.39,0,0,0,.21.3l.78.44A.56.56,0,0,0,9.94,16a5,5,0,0,1-.6-.33h0l-.25-.17a.94.94,0,0,1-.18-.14A1.41,1.41,0,0,0,8.46,15a1.74,1.74,0,0,1-.26-.19.6.6,0,0,1,.42.16c.05.05.11.07.16.12a.44.44,0,0,0,.49.07c-.2-.16-.46-.2-.63-.46a1,1,0,0,1,.23.08.89.89,0,0,0,.44.2c.07,0,.12.06.18.08a.83.83,0,0,0,.22.08,1.3,1.3,0,0,1,.64.32.46.46,0,0,0,.13.08c.12-.13.12-.13,0-.27h.18c0-.13-.1-.15-.2-.13l0,.12h0l-.31-.08c-.22-.08-.43-.17-.65-.23a2.63,2.63,0,0,1-.66-.3,3.92,3.92,0,0,0-.79-.47c-.13-.15-.34-.14-.5-.22a5.45,5.45,0,0,0-.76-.3c-.23-.08-.44-.2-.66-.29h0l-.16,0H6s0,0,0-.05l-1-.65a1.12,1.12,0,0,0-.51-.22,1.38,1.38,0,0,1-.34-.12L4,12.24,3.3,12l-.81-.29a.31.31,0,0,0-.36.1l.12.06,1,.31a3.29,3.29,0,0,1,.68.26,6.22,6.22,0,0,0,.69.33,5.77,5.77,0,0,1,1.1.51.33.33,0,0,0,.27.07H6c0,.08.1,0,.16,0h0a.15.15,0,0,0,.11.17l.44.2.67.28c.1,0,.2.09.21.22-.06-.11-.19-.11-.29-.14l-1-.25a3.73,3.73,0,0,1-.44-.14,3.84,3.84,0,0,0-.82-.23h0c0-.08-.1-.11-.16-.14l-.36-.12h0c0-.07-.07-.06-.12-.06h0c0-.06-.07-.06-.13,0h0s0,0,0,0a7.33,7.33,0,0,0-1.92-.79.31.31,0,0,0-.19,0c-.09,0-.19.07-.22.17l0,.06.19,0A6,6,0,0,1,3.77,13a1.25,1.25,0,0,0,.5.14h0s.08,0,.13,0h0a.1.1,0,0,0,.12.06h0a.08.08,0,0,0,0,.05l.42.22a.12.12,0,0,0,.08,0h0a.4.4,0,0,1-.39.08,4.27,4.27,0,0,1-.48-.13l-1-.34c-.23-.07-.46-.15-.7-.2s-.27,0-.35.22c.38.08.76.14,1.13.24A9.47,9.47,0,0,0,5,13.75c.42,0,.85.12,1.27.19a.68.68,0,0,1,.4.15.28.28,0,0,0,.18.06,1.61,1.61,0,0,1,.78.23.44.44,0,0,1,.27.26.29.29,0,0,1,.2.14c-.09,0-.18,0-.21-.13l-.19-.09-.24-.11a4,4,0,0,0-.9-.2c-.27,0-.55-.05-.82-.09L4.63,14c-.24,0-.48-.07-.72-.13a9.07,9.07,0,0,0-1.27-.2.71.71,0,0,0-.38,0l.15.15.11.13a2.88,2.88,0,0,1,1.31.12,6.14,6.14,0,0,0,.74.18c.37.05.75.08,1.12.11l1.25.06a.4.4,0,0,1,.3.11.33.33,0,0,0,.17.1A1,1,0,0,1,8,15l.31.28h0A1.16,1.16,0,0,1,7.89,15a1,1,0,0,0-.77-.24l-.52.08L6,14.94s.07.07.09.07a.94.94,0,0,0,.5,0l.45-.1a1.14,1.14,0,0,1,.55,0s.07,0,.12.09l-.22.1.34.22,1,.69c.38.27.76.57,1.14.84a1.92,1.92,0,0,0,.44.25,1.46,1.46,0,0,0,.8.19l.06-.12c.06-.08.09-.08.16,0s0,0,.05.05c.19-.07.28-.25.4-.38a1.51,1.51,0,0,0,.38-.66.21.21,0,0,0,0-.06c-.05,0-.14,0-.17-.09l.06-.1.16,0c0-.18,0-.18-.07-.26s-.08-.12,0-.16.09,0,.09-.07l-.26-.22-.15.14-.2-.06a.13.13,0,0,0,.09.09.29.29,0,0,1,.22.18s0,.09,0,.12-.07,0-.12,0l-.11-.09c-.13.17.08.28,0,.43l-.15.05Zm-.79.12.11.22c.05-.16.06-.16.19-.13C10.91,15.82,10.9,15.82,10.68,15.88Zm.1-.19.05,0v-.05s0,0-.05,0S10.78,15.67,10.78,15.69Zm-.41.09-.83-.39a1.44,1.44,0,0,0,.73.57C10.36,15.91,10.4,15.85,10.37,15.78Zm0,.84a.32.32,0,0,0-.13-.1l-.82-.43a.08.08,0,0,0-.13,0l.5.33.51.33C10.36,16.72,10.37,16.67,10.34,16.62Zm.75-1.12h.08c.06,0,0-.07,0-.11l0-.07s-.06,0-.06.06A.2.2,0,0,0,11.09,15.5Zm.26.09h0s0,0,0-.06l0,0A.08.08,0,0,0,11.35,15.59Zm-.1-.51c.05.12.16.14.27.22A.24.24,0,0,0,11.25,15.08Zm0-.53h-.3a.14.14,0,0,0-.11-.1,8.55,8.55,0,0,0-1.22-.26.18.18,0,0,1-.09,0,3.29,3.29,0,0,0-.68-.26.6.6,0,0,1-.41-.26.54.54,0,0,0-.23-.22H8.14L8,13.51c-.14,0-.2-.15-.35-.13l.16.32-.22.18c.31,0,.49.29.77.3a.34.34,0,0,1,.11.07.71.71,0,0,0,.39.16,1.63,1.63,0,0,1,.6.27l.42.26a1.23,1.23,0,0,0,.2,0l-1.25-.82v0l0,0,.28.16a2.59,2.59,0,0,0,.81.37,2.14,2.14,0,0,1,.39.16l.49.22c.06,0,.13,0,.14-.11l-.19-.09c-.19-.07-.38-.13-.56-.21S10,14.5,10,14.38l.36.08.63.08h.3c0,.15,0,.15.15.11Zm.15-2.67a1.89,1.89,0,0,1,.17-.43c-.19.12-.2.12-.25.21a1.14,1.14,0,0,0-.19.56.31.31,0,0,0,.09.28.46.46,0,0,0,.07-.1A4.82,4.82,0,0,0,11.39,11.88Zm-.18-.65,0,0,0,0,0,0S11.21,11.21,11.21,11.23ZM12,12.79l-.09-.07s0,0,0,0,0,.05.06.08Zm.24-.52c0-.2.09-.39.14-.61a.58.58,0,0,0-.26.35,2.16,2.16,0,0,0,0,1s0,.1.15.1a1.28,1.28,0,0,0,0-.34A1.11,1.11,0,0,1,12.23,12.27Zm1.14-.46a2.24,2.24,0,0,0,.08-.29,1.19,1.19,0,0,0-.33.48,2.2,2.2,0,0,1-.29.69.3.3,0,0,0,0,.19.55.55,0,0,0,.23.44c.09,0,.15-.05.13-.12s0-.35,0-.52a.22.22,0,0,1,0-.16C13.19,12.28,13.29,12.05,13.37,11.81ZM13.46,13c.2,0,.29-.11.27-.26a2.24,2.24,0,0,1,0-.52.55.55,0,0,0,0-.18h0a.23.23,0,0,0,.14-.11c.08-.16.17-.31.24-.48a2.42,2.42,0,0,1,.79-.86s.07,0,.14,0a1,1,0,0,1-.11.13,1.64,1.64,0,0,0-.47.51.22.22,0,0,0,0,.28.61.61,0,0,0,.24-.32.74.74,0,0,1,.41-.41c0,.18-.29.27-.2.51l.45-.5a.45.45,0,0,0,.1-.21s0-.11-.07-.17l0,0H15l0-.19a.39.39,0,0,0-.36,0l-.32.1a1.6,1.6,0,0,1-.23,0,.54.54,0,0,1,.23-.15c.07,0,.17,0,.22-.11l0,0h-.07A.38.38,0,0,0,14,9.89a.81.81,0,0,1-.45.11c.08-.1.2-.11.32-.15A.51.51,0,0,0,14,9.76a1.49,1.49,0,0,0-.65-.06.25.25,0,0,1-.17,0,.77.77,0,0,0-.45,0l-.33.05h0v0c0-.05,0-.1,0-.15l-.15,0h0s.09-.05.07-.13a3.38,3.38,0,0,0-.84,0,.48.48,0,0,0-.24.11,1.35,1.35,0,0,1-.62.34l-.05,0c0,.09,0,.19.09.25l.09-.1a1,1,0,0,1,.77-.4,1.29,1.29,0,0,0,.28-.08.87.87,0,0,1,.45-.07h0l-.09.07c-.13.06-.28,0-.41.1a2.18,2.18,0,0,0-.88.62.19.19,0,0,0,0,.15s.06.05.1.07a1.51,1.51,0,0,1,.34-.37c.32-.17.66-.3,1-.45h.12a2.83,2.83,0,0,1-.28.2l-.3.15a.31.31,0,0,0-.19.24h0l-.18.06a.47.47,0,0,0-.36.52h0v0l0,0h0v-.07h0l.48-.46s0-.08,0-.12h0a.3.3,0,0,0,.28-.11.9.9,0,0,1,.51-.26c.1,0,.2-.08.31,0s0,.05,0,.05a2.46,2.46,0,0,0-.9.45.65.65,0,0,0-.17.16,1.09,1.09,0,0,0-.26.49,1,1,0,0,0,.15-.16A1.35,1.35,0,0,1,12,10.4a2,2,0,0,0,.24-.16h0c0,.14-.09.22-.17.3a.94.94,0,0,0-.27.46s0,.07,0,.15l.22-.2.23-.19c.06,0,.08-.16.22-.17a2.34,2.34,0,0,1-.15.25,2.69,2.69,0,0,0-.56.93.58.58,0,0,1-.18.23.73.73,0,0,0-.23.54c0,.07,0,.12.14.08s0-.36.19-.53c0,.12,0,.21.07.3s0,.11.12.09A2,2,0,0,1,12,11.7a2.32,2.32,0,0,1,.61-.9s.1-.05.12,0a1.08,1.08,0,0,0-.25.67,1.39,1.39,0,0,0,.29-.36.48.48,0,0,1,.12-.16s.09-.06.13,0-.14.19-.15.29a2.3,2.3,0,0,1-.25.78,2.73,2.73,0,0,0-.25,1.24l.24.07a5,5,0,0,0,0-.55.91.91,0,0,1,.09-.51,5.89,5.89,0,0,0,.21-.59,1.56,1.56,0,0,1,.34-.6.25.25,0,0,1,.2-.1.26.26,0,0,1,.25.1.88.88,0,0,1,.49-.18,2.34,2.34,0,0,1-.34.52.3.3,0,0,0-.09.36.17.17,0,0,1,0,.18h0v0c0,.11-.07.17-.16.23s-.15.26-.2.4A.4.4,0,0,0,13.46,13Zm1.37-1.41a.53.53,0,0,0-.18.31,2,2,0,0,0-.07.35c0,.09.06.1.14.08l.06-.05C14.75,12.05,14.94,11.84,14.83,11.57Zm-.55.81a1,1,0,0,0,.1-.59.35.35,0,0,0-.23.27c0,.15-.2.14-.25.28l.09.21A.29.29,0,0,0,14.28,12.38Zm-.14.47h0l0,0h0A0,0,0,0,1,14.14,12.85Zm.14.58a2.18,2.18,0,0,1,.22.55c.08.3.18.59.27.88a.5.5,0,0,0,.08.14s0-.06,0-.08,0-.1,0-.15a2.13,2.13,0,0,1-.14-.37c-.08-.37-.23-.71-.32-1.07a.43.43,0,0,0-.05-.12s-.05-.08-.1-.05S14.23,13.35,14.28,13.43Zm.45,0h0a3.54,3.54,0,0,0-.08-.45s-.05-.08-.08-.12l-.05.06c0,.16.07.31.11.47s.06,0,.1,0h0v.06h0S14.73,13.46,14.73,13.44Zm-.11,3.42c-.08,0,0,.09-.08.13a.87.87,0,0,0-.07.17.09.09,0,0,1,0-.05,1.56,1.56,0,0,0-.06-.91.74.74,0,0,1,0-.33,1.67,1.67,0,0,0-.14-.91c-.08-.19-.15-.39-.24-.58a2.68,2.68,0,0,0-.48-.74,2.17,2.17,0,0,1,.15.35,4.32,4.32,0,0,0,.45,1.09.73.73,0,0,1,.07.29,6.1,6.1,0,0,1-.3,2.11.56.56,0,0,0,0,.13h.24c.06-.23,0-.47.13-.67a.81.81,0,0,1,0,.22c0,.13,0,.26,0,.4a.78.78,0,0,0,0,.07h.21s0,0,.07,0A2.28,2.28,0,0,0,14.62,16.86Zm2-1.4,0,0v0c-.07.05-.13.11-.2.15s-.1,0-.1,0a2.3,2.3,0,0,1,0-.26c0-.06,0-.12,0-.24-.07.08-.12.12-.13.16s0,.24,0,.36,0,.16-.08.15-.06-.11-.06-.17,0-.2,0-.3.1-.4.14-.61c.07-.38.13-.76.19-1.14a.19.19,0,0,0-.08-.22c0,.05,0,.08,0,.12s0,.37-.05.56a2.84,2.84,0,0,1-.2,1,.74.74,0,0,0-.07.32,2.43,2.43,0,0,1,0,.27s-.05.06-.08.07-.06,0-.07-.06a.86.86,0,0,1,0-.16c0-.36.09-.71.13-1.07h0c0-.21.06-.43.1-.65a.37.37,0,0,0-.06-.33c0,.17,0,.32-.06.47a1,1,0,0,0,0,.51h0l-.15.05a1.64,1.64,0,0,1,0-.44,2.89,2.89,0,0,0,0-.72,1,1,0,0,0-.07-.12c0,.39,0,.73,0,1.06a4.11,4.11,0,0,0,.09,1.05l-.19.14a2.43,2.43,0,0,1,0,.3.13.13,0,0,1-.1.06.11.11,0,0,1-.09-.08.71.71,0,0,1,0-.29,8.2,8.2,0,0,0,.1-.85,8.09,8.09,0,0,0,0-1.39s0-.07-.06-.12l0,.07a4.53,4.53,0,0,0,0,.9.43.43,0,0,1,0,.16c0,.18-.06.36-.09.48,0-.38-.09-.82-.16-1.26a2.59,2.59,0,0,0-.12-.48c0-.05-.05-.1-.14-.06s.05.37.09.55a7.35,7.35,0,0,1,.15,1.87,4.81,4.81,0,0,1-.07.53s0,.05-.07.05-.07,0-.07-.06a1.25,1.25,0,0,1,0-.19,1,1,0,0,0,0-.3l-.66-1.62a1.27,1.27,0,0,0-.13-.19.25.25,0,0,0-.09,0c-.06.13,0,.22.06.32a2.47,2.47,0,0,1,.3.66,4.3,4.3,0,0,0,.23.69,1.46,1.46,0,0,1,.1.8c0,.24,0,.48,0,.72.09-.19.1-.39.17-.58a5.54,5.54,0,0,1,0,.71,1.9,1.9,0,0,1-.09.78c0,.07,0,.11.14.07,0-.26.1-.52.13-.8s0-.46,0-.69a.38.38,0,0,1,.12-.33c0,.33-.07.62-.06.91a2.58,2.58,0,0,0,.05.92l.67,0a1.13,1.13,0,0,0,.32-.05.48.48,0,0,0,.34-.44c0-.54.05-1.07.07-1.61h0ZM16,12.79h.19c.17-.38.17-.38,0-.63C16,12.57,16,12.7,16,12.79Zm1.24,0c0-.22,0-.41,0-.61l-.07,0c0,.13-.07.26-.1.38s0,.13-.12.14-.12,0-.13-.12,0-.17,0-.26,0-.22,0-.33a.11.11,0,0,0-.11-.1.18.18,0,0,0-.05.07c-.09.17,0,.34,0,.51a.42.42,0,0,0,.2.36A1,1,0,0,0,17.28,12.83Zm0,.29v0Zm-.79,1.34a2.75,2.75,0,0,0,.26-1c0-.05,0-.11-.09-.1A2.53,2.53,0,0,0,16.46,14.46Zm.62-.76a1.13,1.13,0,0,0,0-.18c-.09,0-.13,0-.15.05a1.39,1.39,0,0,0-.14.72h0a.3.3,0,0,0,0,.29h0v0l-.07,0a3.87,3.87,0,0,0-.25.61.45.45,0,0,0,.25-.33c0-.1.05-.2.07-.3h0v0c0-.1.06-.19,0-.29h0s.06,0,.06,0C17,14.07,17,13.88,17.08,13.7Zm.44-.29a2,2,0,0,0-.43,1h0v0s.07,0,.08-.07l.36-.85A.15.15,0,0,0,17.52,13.41Zm.13-.26v0h-.07s0,0,0,0Zm0-.19,0,0v0h0Zm1-1.84a1.25,1.25,0,0,0-.5-.59l-.06-.09.16-.19.22.1c-.08-.15-.2-.26-.12-.43.15.06.25.22.44.21a.51.51,0,0,0-.31-.38,1.16,1.16,0,0,1-.16-.11c-.14-.08-.28-.17-.43-.24s-.07,0-.15,0l.27.31c-.13,0-.22-.11-.33,0l0,.2c-.15-.07-.15-.07-.21-.16s0-.11-.11-.08.13.28-.06.4a.76.76,0,0,1-.08-.11s0-.14-.12-.11-.05.09-.05.15a.28.28,0,0,1,0,.13s0,.08-.1.05l-.05-.22a.27.27,0,0,0-.15.32c0,.06,0,.11-.06.14l-.1-.21-.32,0c0,.13-.06.26-.09.43l-.09-.17-.13.33s-.05-.05-.05-.07l0-.31h0l0-.05v0l0,0v.05h0v0l-.06.06a1.57,1.57,0,0,0-.18.63.42.42,0,0,0,.1.37c.06-.14,0-.31.18-.42a2.5,2.5,0,0,0,.05.29c0,.09,0,.23.14.27.06-.2-.05-.41.1-.61-.06.28.19.33.31.56a1.33,1.33,0,0,0,0-.29,5,5,0,0,1-.11-.85.11.11,0,0,1,.08-.14,2.33,2.33,0,0,1,.09.57,1.31,1.31,0,0,0,.21.55,2,2,0,0,0,.35.47c-.08-.32-.17-.64-.26-1H17l.35.29a.61.61,0,0,1,.16.74.4.4,0,0,0,0,.41.6.6,0,0,1,.05.16.25.25,0,0,0,.15-.25c0-.2,0-.4,0-.59a.26.26,0,0,0-.09-.24.24.24,0,0,1-.06-.08l-.06-.25c0-.08-.07-.15-.11-.25a1,1,0,0,1,.15,0,.66.66,0,0,1,.41.32c0,.09.1.18.15.28h0a1.91,1.91,0,0,1-.07.28,1.83,1.83,0,0,0-.11.8c.19-.07.25-.1.27-.19a1.5,1.5,0,0,0,0-.89h-.06a.32.32,0,0,0,0-.27c-.08-.17-.17-.33-.26-.5,0,0,.05,0,.08,0a.7.7,0,0,1,.63.52,1.19,1.19,0,0,1,0,.87v0c.22-.18.24-.21.23-.43a.89.89,0,0,1,0-.23A.49.49,0,0,0,18.65,11.12Zm.43,0a1.82,1.82,0,0,0-.32-.59,2.36,2.36,0,0,0,0,.44.94.94,0,0,1,0,.55s0,0,0,.06a.25.25,0,0,0,.21-.18A.45.45,0,0,0,19.08,11.12Zm.32,0-.16-.42-.07,0c0,.11,0,.2.06.29a2.7,2.7,0,0,1,0,.28C19.37,11.22,19.42,11.18,19.4,11.1Zm.12-.76-.18-.05h0v0h0l0,0v0h0c0,.13.06.25.08.38a.55.55,0,0,0,.16.3C19.68,10.73,19.56,10.54,19.52,10.34ZM20,10.1c-.08-.07-.15-.12-.25,0l.15.73C20.11,10.55,20,10.31,20,10.1Zm.28-.92s0-.07-.05-.08L20,9l0,0a0,0,0,0,0,0,0A.41.41,0,0,0,20.28,9.18Zm.23.92a.22.22,0,0,0,0-.22c-.05-.08-.11-.09-.21-.06a.81.81,0,0,0,0,.55l.14-.23Zm.16-.37s0-.1-.07-.14,0-.08-.11,0a2.12,2.12,0,0,0,.1.36.51.51,0,0,1,0,.42.86.86,0,0,0-.07.41c.06,0,.11-.05.12-.07s.08-.27.13-.41A.46.46,0,0,0,20.67,9.73Zm.44-.05A.42.42,0,0,0,21,9.4,1.16,1.16,0,0,0,20.73,9a1.18,1.18,0,0,1-.25-.25.55.55,0,0,0-.3-.2,1.86,1.86,0,0,1-.31-.1.33.33,0,0,0-.42,0,.3.3,0,0,1-.18.06c-.05,0-.1,0-.15,0l-.2,0c.09-.13.23-.09.29-.2a.57.57,0,0,1,.4-.27c.11,0,.22,0,.33-.06s.11-.06,0-.19a1.39,1.39,0,0,0-1,.46.45.45,0,0,0-.18.32h.37a1,1,0,0,1,.42.08h0l-.33.09a.63.63,0,0,0,.44.14s.05,0,.06-.06l-.17-.17h0a1,1,0,0,1,.79.13,3.31,3.31,0,0,1,.44.4.37.37,0,0,1,.1.34.27.27,0,0,0,.07.24.54.54,0,0,1,.08.28s0,.11,0,.14C21.19,10,21.06,9.85,21.11,9.68Zm-6.44.65-.26.08c-.09,0-.19-.06-.29.07C14.45,10.57,14.53,10.55,14.67,10.33Zm-1.91-.27a.35.35,0,0,0-.26.08l-.23.1h0A.54.54,0,0,0,12.76,10.06Zm1.32,0h.14l.27-.08h0A.42.42,0,0,0,14.08,10.05Zm.56.6.08-.07,0,0-.09.06Zm-1.27-.81h0v0h0Zm.38.32.05-.06,0,.06Zm-1-.11h.11S12.81,10,12.78,10.05Zm0,0h0Zm.68,0,0-.05S13.44,10,13.46,10.05Zm0-.05h0Zm-.82-.08h0Zm0,0Zm0,0Zm1,.23h0Zm1.65,6.44a2.25,2.25,0,0,0,0-.26,1,1,0,0,0-.09-.17c0,.23,0,.41,0,.58a1.84,1.84,0,0,0,.13.66.29.29,0,0,0,.06-.33A1.34,1.34,0,0,1,15.35,16.59Zm.53,0c0-.11,0-.22,0-.32a.3.3,0,0,0-.07.36.85.85,0,0,1,0,.39.26.26,0,0,0,0,.25.52.52,0,0,0,0-.42A.75.75,0,0,1,15.88,16.58Zm-.27,0a.13.13,0,0,0-.09.12c0,.14,0,.29,0,.43a.83.83,0,0,0,0,.22s.05.06.11.13v-.25Zm0,0h0Zm.71-.44a.07.07,0,0,0-.06,0,.47.47,0,0,0,0,.47l.05,0s.08,0,.08,0,0-.17,0-.22a1,1,0,0,0,0-.2S16.34,16.19,16.32,16.17Zm-.71.44h0Zm0-.53a.79.79,0,0,0,0,.53A1.19,1.19,0,0,0,15.6,16.08ZM7.84,9a.08.08,0,0,0,0,0V9Zm0,0v0h0Zm2.1,1.39a1.76,1.76,0,0,1-.06-.39A15.41,15.41,0,0,1,9.93,8a.85.85,0,0,0,0-.16s0-.07,0-.07a.16.16,0,0,0-.11,0s0,.06,0,.09l-.12.79a3.26,3.26,0,0,0,0,1.08c0,.19,0,.38.06.56a5.14,5.14,0,0,0,.12.8.19.19,0,0,0,.23,0A.61.61,0,0,1,10,11,2.23,2.23,0,0,0,9.92,10.33Zm.12.81Zm.06.9c.1-.12,0-.19,0-.28A.28.28,0,0,0,10.1,12Zm-.06-.9Zm0,0c0,.11-.11.22,0,.34C10.12,11.37,10,11.25,10,11.14ZM11.42,16l-.27.1a.08.08,0,0,0,0,.08s.05.06.07.05a.67.67,0,0,0,.24-.07C11.5,16.09,11.5,16,11.42,16Zm-.05.29c-.06,0-.11,0-.1.12s0,.07.06.14.1-.12.11-.17S11.4,16.28,11.37,16.26Zm-.32.36a.11.11,0,0,0-.07-.08c-.05,0-.1.05-.08.1s0,.05.09.1S11.06,16.65,11.05,16.62Zm.41,0s0,.05.06.05a.11.11,0,0,0,.12-.14.25.25,0,0,0-.09,0A.1.1,0,0,0,11.46,16.59Zm.34-.15a.18.18,0,0,0,.08-.09s0-.05,0-.06H11.8l-.09.11S11.79,16.45,11.8,16.44Zm-.16.47.13,0c0-.06,0-.11-.07-.12a.1.1,0,0,0-.1,0S11.6,16.91,11.64,16.91Zm-.37-.17c-.1,0-.09.1-.08.18l0,0c.1,0,.12-.1.09-.18Zm-.2.23c-.08,0-.12,0-.1.1a.09.09,0,0,0,.06.06c.05,0,.1,0,.09-.11S11.08,17,11.07,17Zm.73-.29.08.08s0-.06,0-.08a.09.09,0,0,0-.06-.06S11.83,16.66,11.8,16.68ZM16.28,2.56v0l0,0s0,0,0,0Zm-.35-.15v0h0a0,0,0,0,1,0,0Zm-.06.18v.07h0ZM8.07,13.68a.42.42,0,0,0,.28.18h0s0,0,0,0S8.21,13.66,8.07,13.68Zm1.86.69h0Zm0,0h0S9.91,14.32,9.88,14.37Zm4.45,2.26,0-.08h0ZM13,9.21a.29.29,0,0,0-.25-.14A.31.31,0,0,0,13,9.21Z"/><path d="M34.9,7a3.16,3.16,0,0,1-2.27,3c-.27.1-.42.12-.42.14s.15,0,.42.07a3.28,3.28,0,0,1,2.89,3.1c0,2.21-1.9,4.42-6.12,4.42H22.18c-.25,0-.39-.1-.39-.35a.4.4,0,0,1,.33-.41c1-.33,1.16-1.2,1.18-2.09l.27-8.29c0-.77-.13-1.53-1.06-1.72a.35.35,0,0,1-.33-.39A.37.37,0,0,1,22.57,4h3c1.43,0,3.52-.1,4.65-.1C34,3.91,34.9,5.44,34.9,7Zm-4,4.9a3.62,3.62,0,0,0-2.67-.91c-.81,0-1.16.11-1.16.38l-.14,4.07a.84.84,0,0,0,.45.83,3.32,3.32,0,0,0,1.53.31A2.88,2.88,0,0,0,31,15.72a2.68,2.68,0,0,0,.7-1.88A2.9,2.9,0,0,0,30.91,11.85Zm-.54-6.14A3.17,3.17,0,0,0,28.2,5c-.41,0-.89.08-.91.41l-.15,3.87c0,.25.15.35.38.43a4.22,4.22,0,0,0,1.13.13,2.7,2.7,0,0,0,1.78-.6,2.32,2.32,0,0,0,.75-1.72A2.41,2.41,0,0,0,30.37,5.71Z"/><path d="M47,12.08c0,2.83-2.13,5.79-6.26,5.79-3.6,0-5.17-2.21-5.17-4.65a5.93,5.93,0,0,1,6.26-5.88C45.32,7.34,47,9.64,47,12.08ZM38.7,11.5c0,2.11,1.43,4.78,3.31,4.78,1.2,0,1.72-1,1.72-2.3,0-2.15-1.33-5-3.29-5C39.16,8.94,38.7,10.12,38.7,11.5Z"/><path d="M48.25,9.52c0-.11,0-.13-.16-.13H46.72c-.18,0-.24-.23-.27-.49s.07-.54.29-.58a5.84,5.84,0,0,0,4-3.37c.06-.17.35-.25.6-.25s.53.1.53.33l-.1,2.65c0,.08,0,.14.15.14h2.83c.27,0,.35.25.35.54s-.12.68-.39.7l-3,.31-.14,4.14A2.15,2.15,0,0,0,52.08,15a1.83,1.83,0,0,0,1.34.52,2.14,2.14,0,0,0,1.23-.38.9.9,0,0,1,.22-.06.36.36,0,0,1,.35.39.6.6,0,0,1-.1.32,4.7,4.7,0,0,1-3.83,2.06,3.15,3.15,0,0,1-2.5-1,3.6,3.6,0,0,1-.7-2.4Z"/><path d="M57.46,11.6c-.71,0-1.76-.62-1.76-1.3S56.42,9,57,8.58a6.87,6.87,0,0,1,4-1.24c2.28,0,4.39,1.18,4.39,4l-.13,3.57c0,1,.46,1.55.89,1.55a.6.6,0,0,1,.33.07.25.25,0,0,1,.13.24.32.32,0,0,1-.09.25,4,4,0,0,1-2.52.83c-1.26,0-2.13-.58-2.13-1.8,0,0,0,0-.06,0s-.09,0-.09,0a3.57,3.57,0,0,1-3.24,1.86,2.93,2.93,0,0,1-3-3.12,1.11,1.11,0,0,1,.54-1.14,16.51,16.51,0,0,1,5.62-2.07c.17,0,.29,0,.29-.29,0-1.38-1.22-2-2.54-2a2.6,2.6,0,0,0-.58,0c-.25,0-.42.14-.42.45C58.3,10.88,58.16,11.6,57.46,11.6Zm2.6,4.18c1.72,0,1.78-1.88,1.78-2.77v-.49a.11.11,0,0,0-.12-.11s-.13,0-.23.06c-1,.29-2.9,1-2.9,1.6A1.58,1.58,0,0,0,60.06,15.78Z"/><path d="M74.7,7.32c2.38,0,3.29,1.53,3.29,3.73l-.14,3.86c0,1,.06,1.8.87,2a.37.37,0,0,1,.31.37.38.38,0,0,1-.38.39H73.26a.31.31,0,0,1-.34-.35.43.43,0,0,1,.31-.41c1-.33,1.08-1.32,1.12-2.3l.1-2.62c0-1-.12-2.42-1.53-2.42s-1.77,1.67-1.84,3.22L71,15.16c0,.93.15,1.57.87,1.72a.35.35,0,0,1,.29.37.37.37,0,0,1-.37.39h-5.4a.32.32,0,0,1-.33-.35.42.42,0,0,1,.31-.41c1-.39,1.09-1.34,1.13-2.3l.15-3.78c0-.79-.37-1.18-1.37-1.18a.46.46,0,0,1-.16-.37.47.47,0,0,1,.45-.5,8.56,8.56,0,0,0,2.8-1,1.89,1.89,0,0,1,1-.38,1,1,0,0,1,.75.32L71,9.77c0,.06,0,.08,0,.08s0,0,.06-.06A4,4,0,0,1,74.7,7.32Z"/><path d="M80.61,10.7c0-.81-.45-1.18-1.44-1.18A.44.44,0,0,1,79,9.14a.48.48,0,0,1,.45-.49,9.31,9.31,0,0,0,2.92-1.06,2.08,2.08,0,0,1,1-.33,1.25,1.25,0,0,1,.87.31l-.27,7.59c0,.71.07,1.53,1,1.72a.33.33,0,0,1,.28.37.37.37,0,0,1-.37.39H79.33a.32.32,0,0,1-.31-.35.42.42,0,0,1,.29-.41c1-.27,1.14-1.14,1.18-2.3Zm3.81-6.79a1.88,1.88,0,0,1-2.07,2c-1.32,0-1.88-.71-1.88-1.74a1.85,1.85,0,0,1,2-2C83.84,2.17,84.42,2.86,84.42,3.91Z"/><path d="M94.12,11.58a.39.39,0,0,1-.35-.22C93,9.79,92,8.9,90.58,8.9a2.68,2.68,0,0,0-2.6,3,3.29,3.29,0,0,0,3.35,3.48,4.45,4.45,0,0,0,2.81-1.06.56.56,0,0,1,.33-.12.25.25,0,0,1,.27.27.49.49,0,0,1,0,.23,5.39,5.39,0,0,1-5,3.2,4.59,4.59,0,0,1-4.88-4.69c0-2.82,2.09-5.84,6.52-5.84,2.35,0,3.59.62,3.59,2.3C94.92,10.07,94.76,11.58,94.12,11.58Z"/><path d="M17.65,26.61c0,3.83-2.69,7.26-8.11,7.26-1.28,0-2.55-.14-3.5-.14H3.13c-.19,0-.31-.13-.31-.36A.4.4,0,0,1,3.11,33c1-.33,1.17-1.2,1.2-2.09l.29-8.48c0-.72-.25-1.42-1.1-1.53a.32.32,0,0,1-.31-.35.39.39,0,0,1,.37-.41H6.5C8,20.1,9,20,10.3,20,15.14,20,17.65,22.78,17.65,26.61ZM8.34,32.18a3.17,3.17,0,0,0,1.61.37,3.85,3.85,0,0,0,3.25-1.72,6,6,0,0,0,.91-3.35,6.42,6.42,0,0,0-1.57-4.3,5.74,5.74,0,0,0-3.91-2c-.27,0-.37.12-.37.35l-.34,9.68A1.16,1.16,0,0,0,8.34,32.18Z"/><path d="M19.56,27.69c-.7,0-1.75-.62-1.75-1.31s.72-1.3,1.3-1.71a6.8,6.8,0,0,1,3.95-1.24c2.28,0,4.39,1.18,4.39,3.95L27.32,31c0,1,.46,1.55.89,1.55a.72.72,0,0,1,.33.06.27.27,0,0,1,.13.25.4.4,0,0,1-.09.25,4.09,4.09,0,0,1-2.52.82c-1.26,0-2.13-.58-2.13-1.8,0,0,0,0-.06,0s-.08,0-.08,0A3.58,3.58,0,0,1,20.54,34a2.93,2.93,0,0,1-3-3.12A1.13,1.13,0,0,1,18,29.69a16.48,16.48,0,0,1,5.63-2.06c.17-.05.29,0,.29-.29,0-1.39-1.22-2-2.54-2a2.6,2.6,0,0,0-.58,0c-.25,0-.42.15-.42.46C20.41,27,20.27,27.69,19.56,27.69Zm2.61,4.17C23.89,31.86,24,30,24,29.09V28.6a.12.12,0,0,0-.12-.11s-.13.05-.23.07c-1,.29-2.9,1-2.9,1.59A1.57,1.57,0,0,0,22.17,31.86Z"/><path d="M30,26.78c0-.81-.46-1.18-1.45-1.18a.45.45,0,0,1-.21-.37.49.49,0,0,1,.46-.5,9.33,9.33,0,0,0,2.91-1.05,2.07,2.07,0,0,1,1-.34,1.32,1.32,0,0,1,.87.31l-.27,7.6c0,.7.06,1.53,1,1.71a.33.33,0,0,1,.29.37.38.38,0,0,1-.37.4H28.75a.32.32,0,0,1-.31-.36.43.43,0,0,1,.28-.41c1-.27,1.14-1.14,1.18-2.29ZM33.83,20a1.87,1.87,0,0,1-2.06,2c-1.33,0-1.89-.7-1.89-1.74a1.85,1.85,0,0,1,2.05-2C33.25,18.26,33.83,18.94,33.83,20Z"/><path d="M39.64,31.27c0,.68.07,1.59.93,1.69a.34.34,0,0,1,.29.37.36.36,0,0,1-.37.4H35c-.18,0-.31-.13-.33-.36A.42.42,0,0,1,35,33c1-.29,1.14-1.38,1.16-2.27l.29-8.57c0-.78-.4-1.17-1.37-1.17a.44.44,0,0,1-.2-.4.45.45,0,0,1,.45-.45,8.8,8.8,0,0,0,2.77-1,2.12,2.12,0,0,1,1-.37A1.31,1.31,0,0,1,40,19Z"/><path d="M39.68,35.86c0-.56.17-.89.56-.89a1.49,1.49,0,0,1,.64.27,7,7,0,0,0,2.9.74.77.77,0,0,0,.76-.87A14.67,14.67,0,0,0,43.86,33l-2.52-7.22c-.35-1-.93-1.18-1.24-1.24a.36.36,0,0,1-.33-.37.38.38,0,0,1,.41-.39H46c.27,0,.35.18.35.39s-.08.37-.33.37c-.62,0-.91.33-.91.83a1.31,1.31,0,0,0,.07.41c.2,1,.88,2.78,1.09,3.71a22.28,22.28,0,0,1,.46,2.85h.08l2.5-6.56a1,1,0,0,0,.08-.45c0-.58-.64-.77-1.4-.79a.34.34,0,0,1-.35-.37.35.35,0,0,1,.37-.39h4.51c.23,0,.33.18.33.39a.34.34,0,0,1-.31.37,2,2,0,0,0-1.43,1.24l-2.4,5.13c-.47,1-1,2.26-1.59,3.42C46,36.48,44.94,38.5,42.35,38.5A2.48,2.48,0,0,1,39.68,35.86Z"/><path d="M70.48,26.61c0,3.83-2.69,7.26-8.11,7.26-1.28,0-2.55-.14-3.5-.14H56c-.19,0-.31-.13-.31-.36a.4.4,0,0,1,.29-.41c1-.33,1.17-1.2,1.19-2.09l.29-8.48c0-.72-.24-1.42-1.09-1.53a.32.32,0,0,1-.31-.35.39.39,0,0,1,.37-.41h2.94c1.45,0,2.46-.11,3.8-.11C68,20,70.48,22.78,70.48,26.61Zm-9.31,5.57a3.17,3.17,0,0,0,1.61.37A3.83,3.83,0,0,0,66,30.83a6,6,0,0,0,.91-3.35,6.42,6.42,0,0,0-1.57-4.3,5.72,5.72,0,0,0-3.91-2c-.27,0-.37.12-.37.35l-.34,9.68A1.16,1.16,0,0,0,61.17,32.18Z"/><path d="M72.4,27.69c-.71,0-1.76-.62-1.76-1.31s.72-1.3,1.3-1.71a6.8,6.8,0,0,1,4-1.24c2.28,0,4.39,1.18,4.39,3.95L80.15,31c0,1,.46,1.55.89,1.55a.72.72,0,0,1,.33.06.27.27,0,0,1,.13.25.35.35,0,0,1-.09.25,4.09,4.09,0,0,1-2.52.82c-1.26,0-2.13-.58-2.13-1.8,0,0,0,0-.06,0s-.09,0-.09,0A3.57,3.57,0,0,1,73.37,34a2.93,2.93,0,0,1-3-3.12,1.13,1.13,0,0,1,.53-1.14,16.48,16.48,0,0,1,5.63-2.06c.17-.05.29,0,.29-.29,0-1.39-1.22-2-2.54-2a2.6,2.6,0,0,0-.58,0c-.25,0-.42.15-.42.46C73.24,27,73.1,27.69,72.4,27.69ZM75,31.86c1.72,0,1.78-1.88,1.78-2.77V28.6a.12.12,0,0,0-.12-.11s-.13.05-.23.07c-1,.29-2.9,1-2.9,1.59A1.57,1.57,0,0,0,75,31.86Z"/><path d="M82,25.6c0-.1,0-.12-.17-.12H80.42c-.19,0-.25-.23-.27-.5s.06-.54.29-.58a5.82,5.82,0,0,0,4-3.37c.06-.17.35-.25.6-.25s.54.1.54.33l-.1,2.65a.13.13,0,0,0,.14.14h2.83c.27,0,.36.25.36.54s-.13.68-.4.7l-3,.31-.15,4.14a2.15,2.15,0,0,0,.43,1.53,1.86,1.86,0,0,0,1.35.52,2.1,2.1,0,0,0,1.22-.37.88.88,0,0,1,.23-.07.37.37,0,0,1,.35.4.53.53,0,0,1-.11.31A4.7,4.7,0,0,1,85,34a3.12,3.12,0,0,1-2.5-1,3.58,3.58,0,0,1-.71-2.4Z"/><path d="M90.74,27.69c-.71,0-1.76-.62-1.76-1.31s.72-1.3,1.3-1.71a6.8,6.8,0,0,1,4-1.24c2.28,0,4.39,1.18,4.39,3.95L98.49,31c0,1,.46,1.55.89,1.55a.72.72,0,0,1,.33.06.26.26,0,0,1,.13.25.35.35,0,0,1-.09.25,4.09,4.09,0,0,1-2.52.82c-1.26,0-2.13-.58-2.13-1.8,0,0,0,0-.06,0s-.09,0-.09,0A3.57,3.57,0,0,1,91.71,34a2.93,2.93,0,0,1-3-3.12,1.12,1.12,0,0,1,.54-1.14,16.33,16.33,0,0,1,5.62-2.06c.17-.05.29,0,.29-.29,0-1.39-1.22-2-2.54-2a2.6,2.6,0,0,0-.58,0c-.25,0-.42.15-.42.46C91.58,27,91.44,27.69,90.74,27.69Zm2.6,4.17c1.72,0,1.78-1.88,1.78-2.77V28.6a.12.12,0,0,0-.12-.11s-.13.05-.23.07c-1,.29-2.9,1-2.9,1.59A1.57,1.57,0,0,0,93.34,31.86Z"/></g></g></g></svg>