<svg xmlns="http://www.w3.org/2000/svg" viewBox="0 0 101.75 39.42"><defs><style>.cls-1{isolation:isolate;}.cls-2{mix-blend-mode:multiply;}</style></defs><g class="cls-1"><g id="Camada_2" data-name="Camada 2"><g id="Camada_1-2" data-name="Camada 1"><path class="cls-2" d="M20.65,8.45c-.13,0-.23.05-.32,0A.33.33,0,0,1,20.65,8.45Zm-3.77,2h0v-.19h0Zm4.37-1a1.83,1.83,0,0,1-.13-.16A.26.26,0,0,0,21,9.24a.1.1,0,0,0-.09,0,.13.13,0,0,0,0,.09.1.1,0,0,0,0,.07,1,1,0,0,1,.26.73.3.3,0,0,0,.14.26.47.47,0,0,0,.13-.32A.74.74,0,0,0,21.25,9.47Zm2.12.2a.84.84,0,0,1-.23.46,1.55,1.55,0,0,0-.21.35,4.28,4.28,0,0,1-.37.57.57.57,0,0,1-.4.26c-.24,0-.48.06-.73.08a4.87,4.87,0,0,1-.54,0,.63.63,0,0,0-.47.2l-.39.45a2.23,2.23,0,0,0-.45.88l-.18.54-.06.17c-.14.46-.27.92-.42,1.37a6.6,6.6,0,0,1-.81,1.72l-.16.2a5.5,5.5,0,0,0-.38.56,2,2,0,0,1-.91.86,1.33,1.33,0,0,0-.19.14.79.79,0,0,1-.49.22,1.63,1.63,0,0,0-.3.07.42.42,0,0,1-.25,0,.55.55,0,0,0-.18,0l-.83,0a.75.75,0,0,1-.21,0l-.58-.13a.52.52,0,0,0-.44,0,.74.74,0,0,0-.15-.08,4.76,4.76,0,0,0-.65-.06,4.33,4.33,0,0,1-1-.1l-.3-.05a.74.74,0,0,0-.26,0,1.9,1.9,0,0,1-.75,0l-1-.11a1.78,1.78,0,0,1-.74-.23c-.1-.06-.2-.15-.34-.12a.1.1,0,0,0-.09-.12s0,0,0,0a.86.86,0,0,1-.36-.32A5.4,5.4,0,0,0,7.07,17c0-.15-.17-.21-.26-.32s-.14-.21-.22-.33a.48.48,0,0,1-.43-.11A.66.66,0,0,0,6,16.12a.29.29,0,0,0-.13,0l-.37.09c-.2,0-.39.1-.58.13a.62.62,0,0,1-.55-.19A1.56,1.56,0,0,1,4,15.46a.64.64,0,0,1,.12-.61,2.41,2.41,0,0,1,.78-.64,1,1,0,0,1,.25-.07,2.74,2.74,0,0,0,.28-.05.73.73,0,0,1,.46,0,.62.62,0,0,0,.38,0A1.25,1.25,0,0,1,6.78,14a.51.51,0,0,1,.33.13,1.77,1.77,0,0,1,.46.56l.06.08a1.52,1.52,0,0,1,.35.55.49.49,0,0,0,.14.21c.16.17.31.35.46.53a2.34,2.34,0,0,0,.4.37c.15.11.3.2.46.3s0-.06,0-.08A7.28,7.28,0,0,1,8.27,15.2L8.12,15l-.43-.65a4.28,4.28,0,0,0-.4-.45c-.06-.07-.16-.06-.24-.07l-1-.11a.53.53,0,0,1-.44-.29c-.06-.12-.12-.23-.17-.35a.67.67,0,0,1,.22-.76.29.29,0,0,1,.16-.07.25.25,0,0,0,.21-.15L6,12a3.25,3.25,0,0,1-.42-.31l-.79-.64a.54.54,0,0,0-.41-.11c-.27,0-.54.05-.8.07a2.59,2.59,0,0,1-1.37-.26A1,1,0,0,1,2,10.66a.57.57,0,0,0-.52-.09l-.4.1a.54.54,0,0,1-.43,0A1.3,1.3,0,0,1,0,9.22a4.75,4.75,0,0,1,.23-.63.26.26,0,0,1,0-.09l.35-.42a2.37,2.37,0,0,1,.78-.59A5.38,5.38,0,0,1,2.77,7a4.65,4.65,0,0,1,1.29-.09,5.28,5.28,0,0,1,.9.14l.21,0a.54.54,0,0,1,.25.06.28.28,0,0,0,.12,0,6,6,0,0,0,.85.06,3.53,3.53,0,0,0,.73-.17A1.3,1.3,0,0,1,7.63,7a.47.47,0,0,1,.4.19,1.56,1.56,0,0,1-.52.15.47.47,0,0,0-.32.08.14.14,0,0,1-.14,0c-.1,0-.18,0-.28.08l0,.17a.18.18,0,0,0,.06.17A1.09,1.09,0,0,1,7,8.16a.64.64,0,0,0,.15.13c.1,0,.11-.18.24-.14s.09.25.27.25a.75.75,0,0,0,0-.15.71.71,0,0,0,0-.15.18.18,0,0,1,.21,0l.13.3c.12-.09.06-.21.1-.31.24-.22.24-.22.11-.48,0,0,0,0,0,0a.3.3,0,0,0-.12-.41.38.38,0,0,1-.15-.2,1.77,1.77,0,0,0-.12-.17c-.05,0-.09.08-.13,0a.83.83,0,0,1,0-.15.29.29,0,0,0-.21-.29c-.05-.12,0-.26-.13-.34s-.14-.19-.24-.26a2.05,2.05,0,0,1-.36-.42.44.44,0,0,0-.34-.2A2.07,2.07,0,0,1,5.94,5a1.5,1.5,0,0,1-.58-.38A1.28,1.28,0,0,1,5,3.77a.86.86,0,0,1,.17-.56c.12-.17.26-.34.4-.51a1.12,1.12,0,0,1,.2-.17,3,3,0,0,1,.63-.35A1.36,1.36,0,0,0,7,1.79l.14-.12c.12-.08.25-.16.25-.35a.3.3,0,0,0,.28-.06A7.55,7.55,0,0,1,9.19.47,6.46,6.46,0,0,1,10.8.06C11.2,0,11.61,0,12,0A3.68,3.68,0,0,1,13,.1a3.18,3.18,0,0,1,1,.36l.26.17.09-.07a1.72,1.72,0,0,0,.53.25l.59.22a1.74,1.74,0,0,0,.68.16c.21,0,.41.05.62.06a1.89,1.89,0,0,1,1.07.44,2.86,2.86,0,0,1,.61.64,2.18,2.18,0,0,1,.36,1.38.66.66,0,0,1-.15.39,1.26,1.26,0,0,0-.21.49,1,1,0,0,1-.37.55,4.81,4.81,0,0,0-.62.47c-.16.17-.34.32-.49.5a1.13,1.13,0,0,1-.37.32,3.5,3.5,0,0,0-.43.33,2.13,2.13,0,0,0-.71.88,2.1,2.1,0,0,0-.13.26.57.57,0,0,0,0,.51l.14,0a1,1,0,0,1,.48-.08H16a.21.21,0,0,1,.27.07.25.25,0,0,0,.17.06,2,2,0,0,0,1.11-.19A2.32,2.32,0,0,1,18,8.09s.09,0,.13,0a1.57,1.57,0,0,1,.52-.16,2.85,2.85,0,0,1,.51,0c.19,0,.38,0,.57.07H20l.65,0a1.84,1.84,0,0,1,.41,0,4.06,4.06,0,0,1,1.76.75,3.89,3.89,0,0,1,.36.34A.82.82,0,0,1,23.37,9.67Zm-3.73-1.2.23-.16a1.23,1.23,0,0,0,.25-.14.38.38,0,0,0-.39.07C19.66,8.28,19.63,8.35,19.64,8.47Zm.08.3a.19.19,0,0,0,.22-.08C19.78,8.7,19.78,8.7,19.72,8.77Zm-.16-.25-.1.08v0h0a.36.36,0,0,0,.07-.1Zm-.44-.11c0,.11-.07.22-.1.32a.33.33,0,0,0,0,.1.21.21,0,0,0,.2-.15.5.5,0,0,1,.17-.23.36.36,0,0,0,.16-.3.33.33,0,0,0-.24,0A.5.5,0,0,0,19.12,8.41Zm.09.54s0,0-.05,0l0,0s0,0,.07,0ZM16.89,8.7c0,.06,0,.13.05.17a.35.35,0,0,1,.07.31,1.13,1.13,0,0,0,0,.18.18.18,0,0,0,.09.19A2.32,2.32,0,0,0,17.3,9l.21.14a1.52,1.52,0,0,0,0,.21s.05.07.07.07a.21.21,0,0,0,.1-.06c0-.07.05-.15.08-.23L18,9l.14.12c.08-.17.15-.33.36-.32l0,.17.09-.08a3.56,3.56,0,0,1,.46-.62s0-.06,0-.1h-.22l-.19.17s-.06,0-.09,0,0-.07,0-.11l0,0a3.53,3.53,0,0,0-.54.13.38.38,0,0,0-.12.1s0-.06-.07-.06c-.18,0-.37,0-.47.21a.74.74,0,0,0-.21,0A3.42,3.42,0,0,0,16.89,8.7Zm.76,1.66a.06.06,0,0,0,0-.07.62.62,0,0,0-.11-.37.12.12,0,0,0-.2,0,1,1,0,0,0-.09.18l0,0,0-.17h-.27a1.75,1.75,0,0,0-.34.51s0,0,0,0l0-.16-.17.26a.66.66,0,0,0,.06.2.47.47,0,0,1,0,.33,1.9,1.9,0,0,0,0,.67c0,.21.1.26.3.2,0,0,0,0,0,0-.1-.16-.08-.37-.19-.53a.11.11,0,0,1,0-.08c0-.19.07-.37.12-.56a.15.15,0,0,1,.18-.11c.06.06,0,.14,0,.22s0,.26-.05.39a1.36,1.36,0,0,0,0,.4.27.27,0,0,0,.14.23l.29-.13c-.08-.14,0-.3-.18-.4s0,0,0,0a3.4,3.4,0,0,1-.07-.46c0-.13.1-.21.15-.32h0l.12.06c0,.13,0,.25,0,.37s0,.31.06.47a.62.62,0,0,0,0,.13s0,.1.09.1.15,0,.16-.1a.85.85,0,0,0,0-.16c0-.26,0-.52-.07-.78C17.58,10.52,17.55,10.43,17.65,10.36ZM17.56,12a.52.52,0,0,0-.14.31l-.09.51c0,.2-.09.41-.11.61a4,4,0,0,0,0,.49l0,0a4.19,4.19,0,0,1,.17-1c.07-.27.12-.54.18-.81A.09.09,0,0,0,17.56,12Zm-1.09,2.33,0-.63,0-.54a2.46,2.46,0,0,0,0-.47.35.35,0,0,0-.23-.35c0,.11,0,.19,0,.29a1,1,0,0,1,0,.3c0,.3-.06.61-.09.91,0,.1,0,.2,0,.31a.59.59,0,0,1,0,.23.92.92,0,0,0,0,.33,1.92,1.92,0,0,1,0,.24c0,.21,0,.43,0,.64a4.76,4.76,0,0,0,0,.55.58.58,0,0,0,.14-.34c0-.11,0-.22.05-.33a4.39,4.39,0,0,0,.06-.88Zm0-5.34a1.63,1.63,0,0,1,.07.3.36.36,0,0,0,.11.22.65.65,0,0,0,.14-.34,1.16,1.16,0,0,0,0-.49.55.55,0,0,0-.36,0A.65.65,0,0,0,16.42,9Zm-.07.9c-.14.07-.28.15-.42.21s-.26.35-.36.54c.09.17,0,.32,0,.49a.23.23,0,0,1,0,.14.49.49,0,0,0-.07.35v.21l-.1-.13c0-.1-.07-.2-.1-.3a.93.93,0,0,1,.12-.84l.24-.34a.5.5,0,0,1,.24-.19l.29-.13s.08,0,.05-.1h-.1a1.61,1.61,0,0,0-.74.42.46.46,0,0,0-.17.32,2.22,2.22,0,0,1-.1.5,1,1,0,0,0,0,.59.36.36,0,0,0,.2.22,2.43,2.43,0,0,0,.89.17.34.34,0,0,0,.11,0,2.56,2.56,0,0,1-.15-.59,1.47,1.47,0,0,1,.12-.75l.09-.19a1,1,0,0,1,.29-.43s.08,0,.05-.09h-.06l-.53.45a.39.39,0,0,0-.15.28A1,1,0,0,1,16,11a7,7,0,0,1-.17.91s0,0,0,0a.9.9,0,0,1-.16-.39,5.85,5.85,0,0,1,0-.73.41.41,0,0,1,.11-.23,2.51,2.51,0,0,1,.52-.51l.14-.1,0,0ZM16,14.08l.09.27C16.13,14.18,16.13,14.18,16,14.08Zm-.12-1.72c-.11,0-.12,0-.12.09s0,.24,0,.36a.32.32,0,0,0,0,.09c.07.12.15.23.22.34A1.87,1.87,0,0,0,15.9,12.36Zm-2.43,4c.12.22.26.42.4.63,0,.05-.08.1,0,.14a.09.09,0,0,0,.14,0,.46.46,0,0,1,.18-.13.6.6,0,0,0,.31-.28l-.18-.12a1.39,1.39,0,0,1-.44-.43c-.15-.22-.32-.41-.45-.64h0a2,2,0,0,0,.82,1.26c-.06.12-.11.15-.17.1a2.13,2.13,0,0,1-.22-.18,2.62,2.62,0,0,1-.59-1.07c-.11-.33-.18-.67-.26-1a1.55,1.55,0,0,0-.06-.23,4.31,4.31,0,0,1-.18-1,.57.57,0,0,0,0-.18c0-.18-.09-.36-.14-.55a7.44,7.44,0,0,1-.28-1.48,3.53,3.53,0,0,1,0-.86c0-.27.08-.55.1-.82s0-.68,0-1c0-.11,0-.22,0-.34.07-.56.15-1.13.23-1.7A9.06,9.06,0,0,1,13,5.12a.56.56,0,0,1,0-.07l-.17,0a1.21,1.21,0,0,0,0,.14c0,.13,0,.26-.05.39s-.12.54-.17.81,0,.29,0,.44l0,.57c0,.3,0,.61-.07.91s0,.52-.05.78,0,.41-.05.62l-.06.49a4.78,4.78,0,0,0-.07.65c0,.27,0,.55.07.82,0,0,0,0,0,.06l.18.84a.8.8,0,0,1,0,.15,3.86,3.86,0,0,0,.16,1,12.43,12.43,0,0,1,.29,1.24,6.59,6.59,0,0,0,.24.87A3.74,3.74,0,0,0,13.47,16.36Zm-.19.31a1.37,1.37,0,0,1-.13-.2.56.56,0,0,0-.16-.21.8.8,0,0,0,.44.61C13.38,16.8,13.32,16.74,13.28,16.67Zm-.52-1.09v0h0a.47.47,0,0,1-.08-.26c0-.18,0-.35-.06-.52a6,6,0,0,0-.14-.95c-.08-.31-.16-.61-.23-.91s-.06-.34-.09-.51-.08-.52-.09-.78a4,4,0,0,1-.05-.77c0-.11,0-.21,0-.31a11.21,11.21,0,0,1,.11-1.3,1.1,1.1,0,0,0,0-.18c0-.22,0-.43.05-.65s0-.28,0-.41c0-.35,0-.7.07-1,0-.51.07-1,.1-1.54,0-.15,0-.31,0-.47s0-.09-.16-.08a.93.93,0,0,1,0,.23,6.82,6.82,0,0,1,0,1,1.77,1.77,0,0,0,0,.65.11.11,0,0,1,0,0,.94.94,0,0,0,0,.37c0,.32,0,.63,0,.94,0,0,0,.07,0,.06a.53.53,0,0,1,0-.12L12,7.28a2.83,2.83,0,0,1,0-.65A4.33,4.33,0,0,0,12,6c0-.26,0-.52,0-.78a2,2,0,0,0-.05-.35c-.07-.06-.14-.1-.22,0a7.48,7.48,0,0,1,.15,1.77,2.84,2.84,0,0,0,0,.41,3.13,3.13,0,0,1,0,.44c0,.15,0,.31,0,.46a4.25,4.25,0,0,1,0,1.07,2.47,2.47,0,0,0,0,.72.74.74,0,0,1,0,.21l-.06.49a2.69,2.69,0,0,0,0,.85,1,1,0,0,1,0,.16,3,3,0,0,0,.1.72,2.49,2.49,0,0,1,.08.72.75.75,0,0,0,0,.15c.05.22.09.44.16.66a4.6,4.6,0,0,1,.14.74c0,.23.08.46.12.69,0,0,0,.08,0,.12a3.36,3.36,0,0,0,.16.33s0,0,.06,0ZM11.13,12s0,.05,0,.07v0l0,0,0-.05h0a4.34,4.34,0,0,0-.08-.63,1.65,1.65,0,0,1,0-.31,2.67,2.67,0,0,0-.13-.89c0-.08,0-.16-.06-.23a4.68,4.68,0,0,0-.07-.54c0-.19,0-.39-.12-.55a4.44,4.44,0,0,0-.17-1c-.09-.41-.32-.77-.43-1.17A.47.47,0,0,0,10,6.57a2.55,2.55,0,0,1-.23-.43A6,6,0,0,0,9.16,5s0-.09-.1-.08S9,5,9,5a2,2,0,0,0,.21.41.57.57,0,0,1,.12.23,1.25,1.25,0,0,0,.2.42,1.13,1.13,0,0,1,.12.18c.14.36.28.72.41,1.09,0,0,0,.07,0,.1l.12.48a1,1,0,0,1,.1.5v0c.05.23.09.46.13.69.09.42.21.82.26,1.24s.13.78.2,1.16A1.72,1.72,0,0,0,11,12l.08,0h0Zm-.32,1a.18.18,0,0,0,0,.19h.3c0-.21-.06-.4-.09-.59a.67.67,0,0,1-.12-.06.45.45,0,0,1-.09-.1l0,0,.1.28A.2.2,0,0,1,10.81,13ZM9.09,11.24a2.55,2.55,0,0,0,.13.29.13.13,0,0,0,.14.08c.09,0,.06-.09.12-.11s.13.19.28.09l-.25-.7c0-.12-.07-.23-.1-.35s-.09-.28-.13-.42-.07-.29-.11-.43H9c.06.19.12.36.17.53s.07.18.09.27a3.34,3.34,0,0,0,.12.63s0,.09,0,.11A1.42,1.42,0,0,1,9,10.75L8.76,10c-.12.08-.13.09-.09.18a1.23,1.23,0,0,1,.17.41A1.43,1.43,0,0,0,9,11,1.6,1.6,0,0,1,9.09,11.24Zm-.2.64L9,12C9,11.89,9,11.86,8.89,11.88Zm-1,.1H7.81a2.32,2.32,0,0,1-.64-.06h0a2.06,2.06,0,0,0-.64.24s.09,0,.12,0a1.33,1.33,0,0,1,.59-.09A1.93,1.93,0,0,0,7.94,12Zm-.13.15h0Zm.08-1.58c0,.19.05.29.35.5C8.13,10.88,8.07,10.67,7.89,10.55Zm.69.31a1.53,1.53,0,0,0-.2-.49l-.05,0-.12.1C8.31,10.72,8.39,10.8,8.58,10.86Zm-.82.08c-.06-.1-.09-.22-.21-.29a.38.38,0,0,0,0,.4c.08.12.17.23.25.34a.31.31,0,0,0,.35.13A1.41,1.41,0,0,0,8,11.21Zm-.65,0s-.09,0-.16-.05a.79.79,0,0,0,.24.43,1.92,1.92,0,0,1,.18.22.13.13,0,0,0,.2,0,.07.07,0,0,0,0,0Zm-.42.2A.23.23,0,0,0,6.6,11s-.09,0-.12,0a.1.1,0,0,0,0,.09c.14.17.29.34.45.5s.09,0,.12,0a.11.11,0,0,0,0-.06A4.87,4.87,0,0,0,6.69,11.09ZM8,11.86a.58.58,0,0,1,.49.12s.1,0,.16,0a1.24,1.24,0,0,0-1.22-.16.25.25,0,0,0,.21.06Zm.85-.29c-.1-.16-.31-.14-.41-.28h0v0l.2.27C8.71,11.68,8.76,11.67,8.88,11.57ZM8.56,8.79a4.8,4.8,0,0,1,.26.57s0,.05,0,.08.12.11.27,0A.62.62,0,0,0,9,9.12a.52.52,0,0,1-.1-.18s0-.08,0-.13a.12.12,0,0,0-.16-.09Zm.12-1.08-.18-.2a.08.08,0,0,0-.12,0,2,2,0,0,0,0,.77ZM8.37,4c-.1.08-.19.11-.24.21a1,1,0,0,1-.2.3.14.14,0,0,0,0,.19.57.57,0,0,0,.36-.07C8.23,4.45,8.36,4.26,8.37,4Zm-.49,1.4a.43.43,0,0,0,0,.07,6.84,6.84,0,0,0,.53.86c.1.17.21.32.3.49a1.49,1.49,0,0,1,.26.5c0,.06.06.1.09.16a1.19,1.19,0,0,1,.13.25,1.62,1.62,0,0,0,.17.35.59.59,0,0,1,.1.26,2.05,2.05,0,0,0,.17.7,1.52,1.52,0,0,1,.15.66,1,1,0,0,0,0,.23A7.28,7.28,0,0,1,10,11.18a2.14,2.14,0,0,0,.08.44.3.3,0,0,0,.1.17,1.78,1.78,0,0,0,.27.17c0-.05,0-.07,0-.1l-.12-.77-.06-.25c-.06-.32-.13-.63-.18-.95A4.15,4.15,0,0,0,10,9.41c0-.12-.07-.25-.11-.37a2.32,2.32,0,0,0-.13-.45,3.19,3.19,0,0,1-.19-.48,2.47,2.47,0,0,1-.15-.46c-.13-.09-.14-.25-.21-.38A3.34,3.34,0,0,0,9,6.87a8.24,8.24,0,0,1-.81-1.21c0-.06-.07-.13-.11-.2L8,5.37a.07.07,0,0,0-.09,0A.19.19,0,0,0,7.88,5.42Zm2.53,7.2v0h0ZM9.16,9.07a.52.52,0,0,0,.12.34l.18-.24c-.1-.25-.32-.41-.44-.67l-.12.18A.18.18,0,0,0,9,8.73.29.29,0,0,1,9.16,9.07Zm.11-.46c0-.07,0-.12,0-.15s-.06,0-.06,0S9.19,8.6,9.27,8.61Zm.15,1.22a5.54,5.54,0,0,1,.11.56,4.47,4.47,0,0,0,.16.63s0,.09.09.08a12.85,12.85,0,0,0-.17-1.52C9.39,9.65,9.38,9.67,9.42,9.83Zm.32,2.1a.13.13,0,0,0-.21-.06c.12.25.14.28.29.3S9.77,12,9.74,11.93Zm-.17.79a.38.38,0,0,0,.28-.05s0,0,.08-.11A.8.8,0,0,0,9.57,12.72Zm.42-.56a.11.11,0,0,0,.08.05s.06,0,.13,0c-.11-.11-.08-.29-.29-.31A.59.59,0,0,0,10,12.16ZM9.46,13a.49.49,0,0,0,.33.11s0,0,0-.06a.41.41,0,0,1,.26-.32s.07-.06.1-.1a.08.08,0,0,0-.14,0,1.24,1.24,0,0,1-.34.22Zm.47.15a1.23,1.23,0,0,0,.32,0l.06-.43-.33.3A.3.3,0,0,0,9.93,13.15Zm0,.37,0,.1a4.2,4.2,0,0,1,.3.6,1.88,1.88,0,0,0,.14.24.4.4,0,0,0,.12.1s0,0,0-.06a4.14,4.14,0,0,0-.38-.93C10.12,13.49,10,13.48,9.93,13.52Zm.46-1.38a.1.1,0,0,0,0-.05l0,0,0,.05ZM8.83,8.35a.52.52,0,0,0,.31-.16l-.33-.36A.42.42,0,0,0,8.83,8.35Zm.33,3.52.23.18,0,0a.44.44,0,0,0-.19-.19S9.18,11.8,9.16,11.87Zm.11.77v0h.14l.21-.11s0-.05,0-.08ZM9,13h.23a.21.21,0,0,0,.23-.2A.5.5,0,0,0,9,13Zm.42.8a1.19,1.19,0,0,0,.09.15,8.84,8.84,0,0,1,.57.88.83.83,0,0,0,.19.23c.13.13.26.26.4.38s0,.07.07,0,0,0,0-.05a5.68,5.68,0,0,1-.57-.9.47.47,0,0,0-.06-.09,2.52,2.52,0,0,1-.44-.9.16.16,0,0,0-.18-.14,1.22,1.22,0,0,0-.06.26A.26.26,0,0,0,9.42,13.79Zm1.17-.58c0-.15.07-.29.1-.42s0-.16,0-.15-.09.08-.11.13v.05a.36.36,0,0,1-.09.24l0,0c0,.05,0,.1.06.11Zm.31-1.11c0-.16-.06-.29-.09-.43a1.43,1.43,0,0,0,0-.22.93.93,0,0,1-.08-.35c0-.2-.07-.4-.1-.59s-.11-.42-.14-.64a7.15,7.15,0,0,0-.22-1.12,4.26,4.26,0,0,0-.28-.7,5.54,5.54,0,0,1-.33-.64,9.85,9.85,0,0,0-.51-1L9,6.25a3.11,3.11,0,0,1-.5-.84,2.69,2.69,0,0,0-.16-.29c0-.06-.09-.06-.16,0a.3.3,0,0,0,.05.1,1.42,1.42,0,0,1,.27.48A4.79,4.79,0,0,0,9,6.55a4.12,4.12,0,0,1,.48.81c.1.26.2.53.28.81a2.22,2.22,0,0,0,.2.48,1.17,1.17,0,0,1,.14.35.72.72,0,0,0,.1.29.94.94,0,0,1,.11.32c0,.23.08.46.1.69a4.82,4.82,0,0,0,.11.85.38.38,0,0,1,0,.15.54.54,0,0,0,0,.31,1.17,1.17,0,0,1,0,.2c0,.1.05.2.08.31Zm2.71-8.9a1,1,0,0,0,0-.25l-.43-.16a1,1,0,0,0-.47-.12,7.61,7.61,0,0,0-1,.1.54.54,0,0,0-.36.2c-.12.15-.28.26-.3.47l-.39.7a1.71,1.71,0,0,0-.07.18,2.36,2.36,0,0,0,.59,0A.65.65,0,0,0,11.18,4a.33.33,0,0,1,0-.26,1,1,0,0,1,.3-.47l.27,0c-.05.11-.1.2-.14.3s-.18.37-.26.56a.24.24,0,0,0,0,.23.79.79,0,0,0,.37,0c0-.12,0-.23,0-.34a.89.89,0,0,1,0-.23A1,1,0,0,1,12,3.33c.08-.1.13-.1.27,0,0,0,0,.08,0,.12-.1.2-.18.4-.29.58a.41.41,0,0,0,0,.4l.26,0A1,1,0,0,0,12.11,4c.06-.18.11-.34.16-.51s.15-.24.32-.16c0,0,0,0,0,0a2.69,2.69,0,0,0-.31,1c0,.1,0,.15.12.17l.26,0c.26.06.3,0,.3-.24,0,0,0,0,0-.06-.16,0-.2-.16-.24-.3a.36.36,0,0,1,0-.1c0-.13,0-.26,0-.39s0-.14.18-.12l0,0c.05.14.08.29.14.44a1,1,0,0,1,0,.74.26.26,0,0,0,0,.07l.62.13a.49.49,0,0,0,.06-.38.72.72,0,0,1-.36-.35.83.83,0,0,0-.11-.15.63.63,0,0,1-.19-.39.31.31,0,0,1,0-.08h.1a.21.21,0,0,1,.08,0,4.33,4.33,0,0,1,.36.4.88.88,0,0,1,.22.82.84.84,0,0,0,0,.18,1.65,1.65,0,0,0,.52.1l.14,0V4.56a.21.21,0,0,0-.13-.21A.75.75,0,0,1,14,4a.5.5,0,0,0-.1-.14,1.14,1.14,0,0,1-.26-.36A.54.54,0,0,1,13.61,3.2Zm.44,0A.76.76,0,0,0,14,3a.12.12,0,0,0-.17,0,.45.45,0,0,0,.17.5c.07.05.14.13.22.18a.91.91,0,0,1,.4.58,1.35,1.35,0,0,1,.05.66.75.75,0,0,0,.61.05V4.57a.5.5,0,0,1-.33-.27,1.4,1.4,0,0,0-.37-.4A1.37,1.37,0,0,1,14.05,3.22Zm.21.22a.9.9,0,0,0,.41.25,1.3,1.3,0,0,0-.22-.29c-.08-.08-.09-.22-.23-.26A.29.29,0,0,0,14.26,3.44Zm.59,7.48c.06-.16.06-.36.22-.48l.08-.13a.92.92,0,0,1,.26-.26c.05,0,.12-.06.14-.13h.07s0,0,0,0,0,0,0,0h0a1.16,1.16,0,0,0-.22.06c-.14.09-.3.14-.39.29a3.67,3.67,0,0,0-.27.81.09.09,0,0,0,0,.07c0,.15.09.3.14.45a.22.22,0,0,0,.2.13.35.35,0,0,1,0-.06,1.5,1.5,0,0,1-.18-.54A.3.3,0,0,1,14.85,10.92Zm.4,1.42-.12.1c0,.16.08.31.14.45a2.93,2.93,0,0,0,.21.39c.08.12.1.29.27.36.06-.13,0-.23-.07-.32a1.37,1.37,0,0,1-.19-.51c0-.12-.05-.24-.07-.36a.7.7,0,0,0-.19-.36Zm-.18.38c0-.1-.06-.2-.1-.3a.13.13,0,0,0-.14-.09.34.34,0,0,0,0,.1,3.64,3.64,0,0,0,.14.47c.15.37.28.74.43,1.11a5.29,5.29,0,0,1,.27,1.11.9.9,0,0,1,0,.46.54.54,0,0,0,0,.18h.05a.84.84,0,0,0,.06-.14,1.45,1.45,0,0,0,0-.92,4.33,4.33,0,0,0-.41-1.14s0-.05,0-.07c-.07-.17-.14-.34-.2-.51A2.68,2.68,0,0,1,15.07,12.72Zm-.49,3.61s0,.06,0,.07,0,0,0,0v0l-.06,0h0a1.36,1.36,0,0,1-.36-.43,8.09,8.09,0,0,1-.5-.79c-.09-.2-.2-.39-.27-.59a6.09,6.09,0,0,1-.21-.73c-.05-.18-.07-.37-.11-.56a4.87,4.87,0,0,1-.1-1c0-.26,0-.52,0-.78a.44.44,0,0,0,0-.2,1.1,1.1,0,0,1,0-.74.94.94,0,0,0,0-.41,1.08,1.08,0,0,1,0-.36c0-.26.06-.52.11-.77a6.54,6.54,0,0,1,.32-1.15,2.85,2.85,0,0,0,.14-.5A12.91,12.91,0,0,1,14,5.39a.18.18,0,0,0,0-.06h-.14a.66.66,0,0,0-.14.32c0,.17-.09.33-.14.5a8,8,0,0,0-.35,1.44C13.17,8,13,8.4,13,8.82c0,.25-.13.48-.16.74a2.56,2.56,0,0,0,0,.62.38.38,0,0,1,0,.15,1,1,0,0,0,0,.46,1.79,1.79,0,0,1,0,.92,1.73,1.73,0,0,0,0,1l0,.12c.09.5.18,1,.28,1.48a1.83,1.83,0,0,0,.14.47c.14.3.29.6.45.89a1.66,1.66,0,0,0,.65.61s.07,0,.11,0h0Zm-1.69-2.79A1.43,1.43,0,0,0,13,14s0,.09.09.07a3.66,3.66,0,0,0-.13-.87c-.06-.19-.13-.37-.19-.57a1.66,1.66,0,0,1-.09-.37c0-.3,0-.59,0-.89s0-.41,0-.62l-.06,0s0,0,0,.06a1.79,1.79,0,0,0-.09.72,5.62,5.62,0,0,0,.09.57,1.34,1.34,0,0,0,.07.27s0,.1,0,.15l.15.49A1.32,1.32,0,0,1,12.89,13.54ZM13,6.8a.36.36,0,0,1,0,.1c-.1.41-.2.83-.29,1.24a3,3,0,0,0-.05.52c0,.32,0,.65,0,1,0,.11,0,.22,0,.33a1.22,1.22,0,0,0,.07-.38,7.61,7.61,0,0,1,.15-1.26c.06-.4.14-.79.18-1.19a6.37,6.37,0,0,1,.46-1.95c-.17,0-.2,0-.24.09a.83.83,0,0,0,0,.15c0,.18-.08.36-.11.54A4,4,0,0,0,13,6.8Zm-.29,3.39a1.27,1.27,0,0,1,0,.15l0,0s0,0,0-.05S12.68,10.28,12.66,10.19Zm2-.4h0l0,0v0h0l.16-.12C14.67,9.66,14.65,9.69,14.65,9.79Zm-.2-.37a1,1,0,0,0-.44.22s.07,0,.08,0a.47.47,0,0,1,.41-.1h.1s.05,0,.08-.07A.24.24,0,0,0,14.45,9.42Zm.19-.12h0c0-.07-.07-.07-.16,0Zm-1,1.51a.75.75,0,0,1,.31-.6,4,4,0,0,0,.34-.23l0-.05s-.05,0-.06,0a1,1,0,0,0-.61.46,4.37,4.37,0,0,0-.25.48.42.42,0,0,0,0,.38.48.48,0,0,0,.37.24,1.61,1.61,0,0,0-.1-.25.44.44,0,0,1-.05-.3S13.61,10.84,13.62,10.81Zm.86-1.12a.22.22,0,0,0-.21,0,.77.77,0,0,1-.23.1.61.61,0,0,0-.3.15l-.32.23a1.74,1.74,0,0,0-.22.18c.09.16-.09.3,0,.45h0a1.89,1.89,0,0,0,.09-.21.81.81,0,0,1,.29-.43,1.56,1.56,0,0,1,.6-.34A.76.76,0,0,0,14.48,9.69Zm-1.22,3.25c0-.31,0-.62,0-.93l0-.36c0-.07,0-.11-.1-.11a.45.45,0,0,0-.05.32.91.91,0,0,1,0,.33,1.73,1.73,0,0,0,.1,1Zm.92-4.52a1.82,1.82,0,0,0-.15.23c-.08.17-.15.34-.23.52a.07.07,0,0,0,0,.05s0,.11,0,.2c.07-.06.12-.08.15-.13s.07-.13.11-.2.08-.14.06-.19.11-.1.1-.19,0-.15.05-.22S14.25,8.42,14.18,8.42Zm-.06-1,.06-.06,0,0,0,.09Zm.17-.34c.31-.49.59-1,.85-1.49,0,0,0-.06,0-.09l-.07,0a.18.18,0,0,0-.24.14c-.06.15-.14.3-.21.45a.14.14,0,0,0,0,.07.94.94,0,0,1-.13.42c-.09.18-.17.36-.25.55h0v0h0V7.13h0S14.28,7.11,14.29,7.09Zm.32-1.67a.14.14,0,0,0-.21.07c-.11.29-.21.58-.34.87a10.24,10.24,0,0,0-.33,1,3.2,3.2,0,0,0-.13.92,2.06,2.06,0,0,1,0,.26c0,.18-.09.35-.13.53a2.53,2.53,0,0,0-.07.63c.11,0,.17-.07.18-.17a7.42,7.42,0,0,1,.3-1.32.52.52,0,0,0,0-.18h0l.1-.17.09-.2h0V7.6h0l0,0,0,0h0l-.12,0c.06-.39.23-.74.32-1.11S14.52,5.79,14.61,5.42Zm.22,10.83s.06,0,.14,0L14.64,16s-.07,0-.14,0A1.44,1.44,0,0,0,14.83,16.25Zm.25-.29s0,0,0-.06a2.25,2.25,0,0,0,.09-1.31l0-.18a5,5,0,0,0-.31-1.15c0-.14-.14-.26-.2-.4a3.16,3.16,0,0,0-.5-.83l-.59-.24c0,.14,0,.28-.07.4a2.52,2.52,0,0,0,0,1.06,1.54,1.54,0,0,0,.17.54.56.56,0,0,1,.09.21c.09.28.17.55.25.82a1.74,1.74,0,0,0,.35.64A1.54,1.54,0,0,0,15.08,16Zm-.68-4.89a4.51,4.51,0,0,1,.17-.52.3.3,0,0,1,.11-.14c.14-.13.24-.29.38-.42l0-.05a.77.77,0,0,0-.16.07l-.35.34a.7.7,0,0,0-.23.7.62.62,0,0,1,0,.13.72.72,0,0,0,.13.42c.08.12.06.14.22.1,0-.08-.07-.16-.1-.23s0-.21-.13-.28A.17.17,0,0,1,14.4,11.07Zm.19,1.18v0Zm.76-2.51h0l.18-.1c-.21,0-.22,0-.34,0s-.54.23-.81.37a1.13,1.13,0,0,0-.29.25.3.3,0,0,0-.06.14c0,.05,0,.1,0,.15l-.08.07a.37.37,0,0,0-.12.44.29.29,0,0,1,0,.13c0,.26.1.33.38.4a.11.11,0,0,0,0,0A.75.75,0,0,1,14.1,11a2,2,0,0,1,.49-.93l.06,0a2.82,2.82,0,0,1,.7-.27h0s-.11,0-.12.14.09,0,.1-.05,0-.06,0-.09Zm-.48-.34h0l0,0,0,0Zm.26-.06A1.2,1.2,0,0,0,15.07,9a.16.16,0,0,0-.23-.08.41.41,0,0,0-.2.21Zm-.45-1.21a2.81,2.81,0,0,1,.21-.47,9.78,9.78,0,0,1,.79-1.22c.06-.08.13-.15.19-.22s.4-.43.59-.65c0,0,0,0,0-.06a.18.18,0,0,0-.22.08c-.16.21-.28.46-.55.57l0,0c-.08.11-.17.22-.24.33s-.19.22-.25.36-.19.28-.28.43a2.64,2.64,0,0,0-.44,1.07,1,1,0,0,1-.09.27.85.85,0,0,0-.07.42C14.43,8.75,14.57,8.45,14.68,8.13Zm1.24-2.65-.18,0-.41.48,0,0-.16.26a.81.81,0,0,0-.1.18c-.13.37-.32.71-.46,1.08-.09.21-.2.42-.3.63v0A.12.12,0,0,0,14.44,8c.14-.29.28-.58.4-.88a2.61,2.61,0,0,1,.28-.52s.07-.09.09-.13a4.36,4.36,0,0,1,.45-.67A2.51,2.51,0,0,0,15.92,5.48ZM11.74,9.19a4.27,4.27,0,0,0,0-1c0-.09,0-.18-.05-.26a.09.09,0,0,0-.12-.06h0a1.62,1.62,0,0,0-.07-.58c-.18-.71-.4-1.4-.56-2.11,0-.1,0-.2-.08-.3a.34.34,0,0,0-.06-.12s-.08-.06-.13,0a2.25,2.25,0,0,0,.08.24.88.88,0,0,1,.05.15c0,.22.07.44.11.66a3.39,3.39,0,0,0,.11.43,6,6,0,0,1,.32,1c0,.15.07.3.11.45a.68.68,0,0,0,.12.22h0a4.1,4.1,0,0,1,0,.49,14.93,14.93,0,0,0,0,1.77v.13a6.22,6.22,0,0,0,0,1.22c0,.2.05.41.08.62a.25.25,0,0,1,0,.17c0,.09,0,.11.12.16v-.17c0-.09,0-.19,0-.28,0-.51-.05-1-.05-1.54A10.28,10.28,0,0,1,11.74,9.19ZM11,9.44a3.21,3.21,0,0,0,.07.82l.09.83c0,.24.05.48.09.72a2.62,2.62,0,0,0,.11.4s.08,0,.08-.06a.75.75,0,0,0,0-.15c0-.24,0-.48,0-.73s0-.64,0-1a.86.86,0,0,0,0-.16l-.15-.71L11,8.29a1.87,1.87,0,0,0-.07-.22c-.08-.21-.13-.43-.2-.64A9.16,9.16,0,0,0,10.24,6c-.16-.35-.3-.7-.45-1.05l0,0a.25.25,0,0,0-.17.16l.1.25a1.19,1.19,0,0,1,.12.29.87.87,0,0,0,.2.47,3.62,3.62,0,0,1,.22.32.55.55,0,0,1,.12.31,2.94,2.94,0,0,0,.12.59c.05.16.1.33.14.5a1.15,1.15,0,0,0,.11.31.82.82,0,0,1,.1.3,5.1,5.1,0,0,0,.19.88A.44.44,0,0,1,11,9.44Zm.18-4.61a.8.8,0,0,0,0,.15l.09.4c0,.25.06.5.1.75a2.64,2.64,0,0,0,.18.68,1.88,1.88,0,0,0,0-.54c-.05-.36-.1-.71-.16-1.06a2.62,2.62,0,0,0-.11-.4s-.06,0-.1-.08S11.18,4.8,11.19,4.83Zm0-1.78h-.06a1.73,1.73,0,0,1-.45.1.17.17,0,0,0-.15.17,1,1,0,0,1-.15.38,1,1,0,0,0-.08.69l.26,0c0-.11,0-.2,0-.28A1,1,0,0,1,11,3.22l.14-.11S11.14,3.07,11.15,3.05Zm-1,1.71c.07.21.12.41.18.61s.1.35.16.52.17.45.25.68a4.56,4.56,0,0,1,.13.53c.06.28.14.56.22.83s.17.4.25.6c0,0,0,.05,0,.1a1,1,0,0,0,0-.61,6.38,6.38,0,0,1-.29-1L11,6.83c-.16-.53-.37-1-.49-1.57a1.72,1.72,0,0,0-.18-.42A.15.15,0,0,0,10.11,4.76Zm.08-1.45c-.13,0-.22,0-.28.1a1,1,0,0,1-.1.17A1.14,1.14,0,0,0,9.63,4c0,.13,0,.27-.06.43a3.46,3.46,0,0,0,.48-.07s.06-.06,0-.08a.22.22,0,0,0,0-.14A.29.29,0,0,1,10,3.77l.1-.24C10.11,3.46,10.14,3.39,10.19,3.31Zm-.53.11a.16.16,0,0,0-.19,0,1.56,1.56,0,0,0-.16.2L9,4.29a.32.32,0,0,0,0,.3,2.89,2.89,0,0,0,.51-.11.23.23,0,0,0,0-.25.28.28,0,0,1-.06-.29,1.15,1.15,0,0,1,.3-.45S9.65,3.45,9.66,3.42ZM8.51,5.24A5,5,0,0,1,9,6a.29.29,0,0,0,.1.12,1.73,1.73,0,0,1,.43.38c0,.05.1.1.18.18a.45.45,0,0,0-.11-.26,3.25,3.25,0,0,0-.35-.39,1,1,0,0,1-.2-.3c-.08-.16-.19-.33-.29-.49S8.64,5.17,8.51,5.24ZM8.56,5V5h0V5Zm.52-1.44A.63.63,0,0,0,8.75,4a.76.76,0,0,1-.29.5s0,.09,0,.16l.3,0a1.84,1.84,0,0,1,0-.26.76.76,0,0,1,.06-.25c.09-.16.19-.31.28-.46S9.13,3.61,9.08,3.57Zm2.09,9a.06.06,0,0,0,.09,0,.09.09,0,0,0,0-.07.12.12,0,0,0-.12-.11C11.1,12.51,11.14,12.56,11.17,12.61Zm0,.08c0,.16,0,.26,0,.35a.45.45,0,0,0,0,.11c.09,0,.12,0,.11-.1A.89.89,0,0,0,11.18,12.69Zm.33.33a.29.29,0,0,0,.2-.32c0-.15-.17-.28-.41-.31A.92.92,0,0,1,11.51,13Zm0,.64a2.79,2.79,0,0,0,.33,1.24s0,.06.09.12a9.51,9.51,0,0,1-.26-1.63q-.13,0-.15.09C11.53,13.54,11.54,13.6,11.53,13.66Zm.43.46c0,.17.07.35.11.53s.11.29.15.44.14.56.22.83a.48.48,0,0,0,.22.3c0-.1,0-.16,0-.23a7,7,0,0,1-.37-1.28c0-.23-.06-.46-.1-.69a2.54,2.54,0,0,0-.25-.81h0l0,0,0,0,0,0h0a.89.89,0,0,0,0,.58C11.9,13.9,11.93,14,12,14.12Zm1.82,3.3c.13.13.17.14.29.07s.37-.28.57-.4a1.64,1.64,0,0,0,.65-.73c0-.08.05-.18.09-.26a2.08,2.08,0,0,0,.13-.82s0,0,0-.08a.84.84,0,0,0,0,.1,6.42,6.42,0,0,1-.15.63A2.55,2.55,0,0,1,14.56,17a.78.78,0,0,1-.37.22A.77.77,0,0,0,13.78,17.42Zm.5.31c.06.05.11,0,.16,0l.83-.63a1.71,1.71,0,0,0,.37-.39.39.39,0,0,0,.08-.19.48.48,0,0,1,.1-.23.47.47,0,0,0,.08-.37s-.06.07-.08.11-.15.23-.23.35a1.62,1.62,0,0,1-.45.49.78.78,0,0,0-.36.36.48.48,0,0,1-.13.16Zm1.41-9.1.17.25c.12,0,.14.08.16.17a.39.39,0,0,0,.2.3.67.67,0,0,0,0-.18,1.47,1.47,0,0,0,0-.21c0-.33,0-.36-.37-.37C15.83,8.59,15.75,8.54,15.69,8.63Zm-.61.2a1.62,1.62,0,0,1,.46.52c.08,0,.16,0,.23,0a.91.91,0,0,0-.27-.71A.78.78,0,0,0,15.08,8.83ZM17,5.5c-.12,0-.12,0-.15,0a5.78,5.78,0,0,1-.82.82,1.53,1.53,0,0,0-.18.18,6.41,6.41,0,0,0-.48.68,1.32,1.32,0,0,0-.21.43h0a.14.14,0,0,0,0,.12h0s-.05,0-.06,0a1.66,1.66,0,0,0-.26.61h0a.09.09,0,0,0,0,.1h0s0,0-.07.08v0h0s0-.06,0-.09h0c.06,0,.06-.05,0-.1h0s.05,0,.06,0a1.64,1.64,0,0,0,.26-.59h0v0s0-.07,0-.12h.06l.08-.13a2,2,0,0,1,.42-.62A1.8,1.8,0,0,0,16,6.61a2.9,2.9,0,0,1,.49-.5A3.1,3.1,0,0,0,17,5.5Zm.32-1a.25.25,0,0,1-.27-.16L17,4.19a1.29,1.29,0,0,0-.71-.61l-.14-.08a.61.61,0,0,0-.42-.06.37.37,0,0,1-.31,0l-.33-.15c-.05,0-.1,0-.14,0a.27.27,0,0,0,.21.19,3,3,0,0,1,.43.11.92.92,0,0,0,.28,0,.62.62,0,0,1,.44.13,2.08,2.08,0,0,1,.32.27,1.1,1.1,0,0,1,.29.83s0,.07-.07.14l-.08-.19a.3.3,0,0,0-.07-.11c-.15,0-.2-.19-.27-.3a1.18,1.18,0,0,0-.37-.4l-.14-.12a1.23,1.23,0,0,0-.72-.31.53.53,0,0,1-.31-.17s-.06-.09-.1-.12a.28.28,0,0,0-.3-.08.3.3,0,0,0,.14.28,1.15,1.15,0,0,1,.19.14.32.32,0,0,0,.28.08.5.5,0,0,1,.43.08,2.24,2.24,0,0,1,.38.31.66.66,0,0,1,.18.47,1.93,1.93,0,0,0,0,.24s0,.07,0,.08h0a.76.76,0,0,0-.24-.35.27.27,0,0,1-.1-.15,1.8,1.8,0,0,0-.45-.5c-.07-.07-.15-.06-.25,0l.19.16a.58.58,0,0,1,.2.51c0,.16,0,.33,0,.5a2.84,2.84,0,0,0,.51.05c.38,0,.76,0,1.14,0a.79.79,0,0,0,.42-.12A.62.62,0,0,0,17.34,4.48Zm.46-.11a.7.7,0,0,1-.23-.28,1.44,1.44,0,0,0-.71-.69,1.51,1.51,0,0,1-.28-.15.4.4,0,0,0-.22-.06,3.15,3.15,0,0,1-.92,0s0,0-.08,0,.06.06.09.07l.59.12.51.06a1,1,0,0,1,.33.14,1.19,1.19,0,0,1,.61.92c0,.15,0,.29.06.43a.49.49,0,0,0,.32-.1.1.1,0,0,0,0-.07C17.91,4.61,17.93,4.45,17.8,4.37Zm.44-.07A1.94,1.94,0,0,0,18.17,4a.25.25,0,0,0,0-.09l-.52-.52a.62.62,0,0,0-.19-.12L17,3.09a1,1,0,0,0-.5-.06.21.21,0,0,1-.11,0,2,2,0,0,0-.64,0s0,0-.07.06a1.09,1.09,0,0,0,.4,0,1.09,1.09,0,0,1,.51,0,1.09,1.09,0,0,0,.3.07,1,1,0,0,1,.77.39,1.58,1.58,0,0,1,.37.82,1.64,1.64,0,0,0,0,.22c.13,0,.16-.06.18-.13A.49.49,0,0,0,18.24,4.3ZM16,2.09l-.48.25a.35.35,0,0,0-.18.29h0c.33-.2.69-.33,1-.54h.06l.05.13s-.08,0-.1.07a.16.16,0,0,0,0,.12.24.24,0,0,0,.23.12l.12,0c.06.07,0,.12,0,.13-.21.05-.42.09-.64.12a.5.5,0,0,0-.32.15,1.46,1.46,0,0,1,.35,0A4.86,4.86,0,0,1,17,3a1.55,1.55,0,0,0,.21,0,.88.88,0,0,1,.28,0,1.47,1.47,0,0,1,.76.56.39.39,0,0,1,.07.39s0,0,0,0c.18-.1.22-.16.17-.31a2.3,2.3,0,0,0-.18-.43A.39.39,0,0,0,18.07,3a1.27,1.27,0,0,1-.23-.12l-.29-.17,0,0V2.49a1.1,1.1,0,0,1,.66.25.32.32,0,0,1,.16.28s0,.08.1.06a.42.42,0,0,0,0-.12A1.62,1.62,0,0,0,18,2.4a.53.53,0,0,0-.54-.17.15.15,0,0,1-.18-.08L17.2,2l.2,0a.25.25,0,0,0-.15-.12A.81.81,0,0,1,17,1.77a.57.57,0,0,0-.59,0l-.12,0C16.23,2,16.23,2,16,2.09Zm0,.46.19-.06c-.08-.05-.14,0-.2,0l0,0Zm-.34-1L15.23,2a.64.64,0,0,0-.19.43l.16-.18A2.72,2.72,0,0,1,15.44,2c.08-.06.18-.1.26-.15a.94.94,0,0,1,.48-.18,0,0,0,0,1,0,0A1,1,0,0,0,15.7,1.54Zm-.36-.11A3,3,0,0,0,15,1.7a.79.79,0,0,0-.14.18c-.11.2-.21.41-.31.61s-.07.15-.1.23,0,.08,0,.07a4.48,4.48,0,0,1,.42-.7,3.27,3.27,0,0,1,.63-.6C15.47,1.4,15.4,1.38,15.34,1.43Zm-.61-.24a.69.69,0,0,0-.29.32,3.18,3.18,0,0,1-.18.37,1.86,1.86,0,0,0-.21.72c.14-.15.14-.15.16-.31s0,0,0-.07l.48-.5a3.07,3.07,0,0,0,.51-.38,1.3,1.3,0,0,0-.2-.15A.32.32,0,0,0,14.73,1.19ZM11.59.42c.05.07.08.13.12.18a1.26,1.26,0,0,1,.18.32c.15.39.26.79.37,1.19a1.2,1.2,0,0,1,0,.2.12.12,0,0,0,.09-.13c0-.21,0-.42-.05-.63a2.41,2.41,0,0,1,0-.38.06.06,0,0,1,.05,0s0,0,.06,0a.08.08,0,0,1,0,.05c.06.3.12.61.17.92a.38.38,0,0,1,0,.17s0,.06,0,.1h.14a2.9,2.9,0,0,0,.1-.88.58.58,0,0,1,0-.23c0-.05.06-.05.13,0,.07.29,0,.6.1.91.08-.06.06-.14.08-.2l.14-.53a.15.15,0,0,1,.1-.07s.06,0,.07.09a.34.34,0,0,1,0,.2,4,4,0,0,0-.09.48,1.71,1.71,0,0,0,0,.31s0,0,0,.05.06-.05.06-.08l0-.29a1.89,1.89,0,0,1,.16-.62c0-.05.06-.09.13,0a1,1,0,0,1,0,.46.67.67,0,0,0,0,.37l.07-.08L13.92,2a1.47,1.47,0,0,1,.53-.72.15.15,0,0,0,.05-.06l.13-.18a.57.57,0,0,0-.28-.18c-.22-.07-.42-.16-.63-.24a.29.29,0,0,0-.2,0,.64.64,0,0,1-.36-.06.66.66,0,0,0-.15,0L12.26.42l0,0c0,.06,0,.14-.08.18A.45.45,0,0,0,11.59.42Zm-.41,0a.25.25,0,0,0,0,.07l.09.12a2,2,0,0,1,.56,1.09,1,1,0,0,1,.06.43.54.54,0,0,0,0,.1s0,.05.09,0a.91.91,0,0,0,0-.17c0-.22-.11-.44-.15-.66a2.07,2.07,0,0,0-.31-.79,1.9,1.9,0,0,0-.19-.21A.13.13,0,0,0,11.18.45Zm-.53.18a1.1,1.1,0,0,1,.21.14c.18.21.31.46.49.67,0,0,0,.06,0,.09.06.22.13.43.19.65,0,0,0,.1.12.11a2.79,2.79,0,0,0-.18-1.11A2,2,0,0,0,11.06.6a.67.67,0,0,0-.14-.09.27.27,0,0,0-.25,0C10.62.51,10.61.6,10.65.63Zm-.74,0c.18.23.4.35.55.55a6.68,6.68,0,0,1,.49.57l.42.69a1.67,1.67,0,0,0,0-.23A2.73,2.73,0,0,0,10.48.61a.23.23,0,0,0-.22-.06ZM9.2.91c.06,0,.08.07.11.07a1.67,1.67,0,0,1,.5.37c.24.24.51.46.74.72s.26.29.4.45a.3.3,0,0,0,0-.23,2.76,2.76,0,0,0-.8-1.19A1.78,1.78,0,0,0,9.65.74Zm-.57.27c.23.16.46.3.67.46s.43.35.65.52.38.37.63.53c0-.06,0-.08,0-.09A1.71,1.71,0,0,0,10.22,2c-.06-.06-.11-.15-.17-.22a1.63,1.63,0,0,0-.27-.31,7,7,0,0,0-.68-.43.27.27,0,0,0-.17,0A.75.75,0,0,0,8.63,1.18Zm-.55.32.31.13c.24.12.45.29.69.4l.11.08.24.2c.18.16.41.25.58.43,0,0,.06,0,.14,0a.69.69,0,0,0-.06-.14l-.34-.39a4.34,4.34,0,0,0-1.08-.82,1.2,1.2,0,0,0-.42-.07A.15.15,0,0,0,8.08,1.5ZM5.24,3.56v0Zm.69.64a.74.74,0,0,1,.35-.55l.31-.13.53-.16a3.12,3.12,0,0,1,.53-.11,3.4,3.4,0,0,0,.46-.06l.07-.06a2.82,2.82,0,0,0-.43,0c-.14,0-.28.09-.44,0l.17-.21.43,0c-.07-.06-.19,0-.22-.12l.16-.21c.3.12.54.35.85.5-.24-.3-.28-.33-.48-.4l-.14-.29a2.25,2.25,0,0,1,.49.21L9.09,3l.06,0V3a4.48,4.48,0,0,0-1-.75l0-.14c.19,0,.31.16.45.23L9,2.54a1.47,1.47,0,0,0,.47.23,1.46,1.46,0,0,0-.44-.45l-.18-.15a2.41,2.41,0,0,0-.63-.4l-.1,0c-.13,0-.21,0-.27-.16-.09.08-.19.11-.26.2l.19.12a.32.32,0,0,1-.39,0,.21.21,0,0,0-.14.15s0,.09-.08.09-.1.12-.16.17a.5.5,0,0,0-.4.18l.23.13-.13.12a2.36,2.36,0,0,0-.37,0c-.13,0-.23.13-.36.07a.71.71,0,0,0-.3.27h0l-.06,0,0,0,0-.05h0c.07,0,.12,0,.18-.08a.94.94,0,0,1,.75-.11c.06,0,.09.05,0,.12a.58.58,0,0,1-.14,0,.38.38,0,0,0-.25.07.62.62,0,0,1-.24.08.85.85,0,0,0-.69.49.49.49,0,0,1-.18.22.47.47,0,0,0,.16.33.42.42,0,0,0,.27.17,3.29,3.29,0,0,0,0-.45.36.36,0,0,1,.06-.27,1.19,1.19,0,0,1,.52-.42l.24-.09a.58.58,0,0,1,.18,0l.33,0s0,0,.06.05a.65.65,0,0,1-.28.09.52.52,0,0,0-.36.14A.75.75,0,0,1,6,3.63.41.41,0,0,0,5.71,4c0,.17,0,.34,0,.5.17.08.17.08.29.07L6,4.43A.31.31,0,0,1,5.93,4.2ZM6.7,4a1.45,1.45,0,0,1,.85-.45l.23,0a2.08,2.08,0,0,0,.64-.16l-.07,0a2.59,2.59,0,0,0-1.17.21,3.25,3.25,0,0,0-.67.39.85.85,0,0,0-.33.74.41.41,0,0,0,.34.05.69.69,0,0,1,0-.13A.71.71,0,0,1,6.7,4Zm.41.2a.47.47,0,0,1,.34-.3,2.54,2.54,0,0,0,.37-.1l.43-.11a1.06,1.06,0,0,0,.45-.19s0,0,0,0l-.12-.06a.47.47,0,0,1-.39.2H8.05a.94.94,0,0,0-.68.23l-.09.05A1,1,0,0,0,7,4.06a.8.8,0,0,1-.13.13.48.48,0,0,0-.19.36.17.17,0,0,0,.17.21H7a.58.58,0,0,1,.06-.51A.36.36,0,0,1,7.11,4.16Zm0,.62a2.09,2.09,0,0,0,.56,0V4.67A.9.9,0,0,1,8,4s.13-.09.11-.19h0A1,1,0,0,0,7.82,4a6.26,6.26,0,0,0-.57.45A.29.29,0,0,0,7.15,4.78Zm.61.33a.14.14,0,0,0,0,.06l0,0,0-.05Zm.81,2.06s.07.07.15,0S8.65,7,8.55,7a.72.72,0,0,1-.28-.24l-.34-.45C7.85,6.16,7.78,6,7.7,5.9s-.17-.3-.26-.45a.23.23,0,0,0-.09-.08.16.16,0,0,0-.12,0s0,.08,0,.12l.22.26a1.81,1.81,0,0,0,.1.27c.09.17.2.32.3.48A1.59,1.59,0,0,0,8.57,7.17Zm-.14,2.5a.42.42,0,0,0,.3-.12c0-.1,0-.2-.14-.23s-.15-.13-.16-.24a1,1,0,0,1,0-.24H8.27C8.28,9.13,8.22,9.43,8.43,9.67Zm-.59,0c0,.22.16.3.34.18l.14-.1L8.1,9.43a.61.61,0,0,1,0-.12.62.62,0,0,1,0-.38.43.43,0,0,1,0,0L8,8.85H7.91c0,.1,0,.19-.06.27A4.51,4.51,0,0,0,7.84,9.64ZM6.71,8.89c0,.13-.08.23-.09.35a.42.42,0,0,1-.17.34c0,.12-.11.19-.18.28a1.42,1.42,0,0,0-.25.56.24.24,0,0,0,0,.23.75.75,0,0,0,.44,0,.41.41,0,0,1,0-.51l.14-.25c.05-.09.06-.09.18,0a1.46,1.46,0,0,1-.15.57.15.15,0,0,0,0,.19,1.27,1.27,0,0,0,.69-.28l-.08-.1a.49.49,0,0,1-.1-.34c0-.07,0-.08.15-.1a.94.94,0,0,1,.09.44A.53.53,0,0,0,7.88,10c-.23-.18-.19-.47-.34-.7A1.43,1.43,0,0,0,7.62,9c0-.08.15-.1.12-.21-.21-.06-.29,0-.39.39a.43.43,0,0,1-.25,0,1.4,1.4,0,0,1,.28-.47c-.16-.05-.16-.05-.22,0A.42.42,0,0,0,7.05,9c0,.11-.07.22-.11.33a.24.24,0,0,1-.2,0A1.84,1.84,0,0,1,7,8.64a.31.31,0,0,0-.13,0C6.79,8.69,6.7,8.77,6.71,8.89Zm-.34-.16h0l.06-.05,0,0h0a.14.14,0,0,0,0,.07h0s0,0,0,0,0,0,0,0l0,0ZM6.22,7.64c.06.11.1.22.16.31a.49.49,0,0,0,.24.23s.07,0,.12,0c-.07-.21-.13-.41-.19-.61C6.44,7.59,6.33,7.55,6.22,7.64Zm-.49-.08.32.4C6,7.85,6,7.81,6,7.77A.91.91,0,0,1,6,7.6C5.86,7.53,5.86,7.53,5.73,7.56Zm-.68-.17a1,1,0,0,0,.33.48.35.35,0,0,0,.26.1,1,1,0,0,1-.06-.22,2,2,0,0,1,0-.24ZM4.4,7.33a.81.81,0,0,1,.36.45.41.41,0,0,0,0,.09.16.16,0,0,0,.13.07h.17A.63.63,0,0,0,5,7.81a1.84,1.84,0,0,0-.17-.22.2.2,0,0,1,0-.22A.86.86,0,0,0,4.4,7.33Zm-.81-.08a4.09,4.09,0,0,1,.47.46l.07.07.3.15a.12.12,0,0,0,.1,0,.09.09,0,0,0,0-.09l-.1-.18s-.08-.09-.08-.13a.2.2,0,0,0-.09-.18.31.31,0,0,0-.21-.07Zm-.91.17,0,0a1.79,1.79,0,0,1,.88.41A2.39,2.39,0,0,0,3.82,8l.05,0c-.05-.08-.1-.17-.15-.24a2,2,0,0,0-.16-.24.49.49,0,0,0-.47-.15l-.33.06S2.69,7.38,2.68,7.42ZM1.3,10.22c0-.08-.05-.15-.07-.22a.29.29,0,0,1,0-.24c.05-.09,0-.11,0-.29A1.49,1.49,0,0,0,.83,10a.27.27,0,0,0,0,.27A.66.66,0,0,0,1.3,10.22Zm2.61.16c.08-.12.15-.25.24-.36a.32.32,0,0,1,.29-.16.59.59,0,0,0,.25-.07,3.58,3.58,0,0,1,.85-.3.85.85,0,0,0,.37-.16A.3.3,0,0,1,6,9a1.61,1.61,0,0,1,.38-.4s.06,0,0-.08-.14,0-.19,0L6,8.65s0,0,0,0a2.08,2.08,0,0,1-.33.58.23.23,0,0,1-.17.11,1,1,0,0,0-.34.11l-.25.08s-.09,0-.09-.08a1.74,1.74,0,0,1,.36-.13.64.64,0,0,0,.18-.1,5.13,5.13,0,0,0,.56-.76.22.22,0,0,0-.22,0,.82.82,0,0,0-.35.34,1,1,0,0,1-.62.48s-.07,0-.08,0l.18-.21C4.9,9,5,8.91,5,8.84a1.9,1.9,0,0,1,.21-.19l.23-.18c.06-.05.16-.06.22-.15a.72.72,0,0,0-.39,0l0-.08A.51.51,0,0,0,5,8.32a1.53,1.53,0,0,0-.56.45A1.42,1.42,0,0,1,4.1,9a.14.14,0,0,1-.18,0,2.12,2.12,0,0,0,.15-.21,1,1,0,0,1,.62-.52s0,0,.06-.07c-.22,0-.4,0-.51.19,0,0,0,0,0,.07a.93.93,0,0,1-.6.42H3.49a3.37,3.37,0,0,1,.69-.66c-.11,0-.18,0-.22,0a1.14,1.14,0,0,0-.25.18.78.78,0,0,1-.48.29l0,0c-.17,0-.35.07-.57.1.06-.06.09-.1.12-.11L3,8.69l.38-.11s.06,0,0-.09l-.27,0a.5.5,0,0,1-.29,0,.26.26,0,0,1,.1,0h.26c.08,0,.11-.07.1-.15l-.37,0s-.08,0-.06-.1h.55a1,1,0,0,0-.56-.2.35.35,0,0,1-.25-.1h.34l.18,0c.05,0,.09.06.13,0L3,7.71a.64.64,0,0,0-.25-.12,1.8,1.8,0,0,0-.92.09s-.06.05-.09.08c.16,0,.31,0,.45,0,0,.11-.14.09-.21.08a2.7,2.7,0,0,0-1,.27,2.4,2.4,0,0,0-.64.5c0,.07,0,.13,0,.17a1.82,1.82,0,0,0-.17.73A.56.56,0,0,0,.34,10l.19-.45a.25.25,0,0,0,0-.12A.36.36,0,0,1,.71,9.1,3.08,3.08,0,0,0,1,8.86a.67.67,0,0,1,.49-.25s.07,0,.1,0L2,8.52a.18.18,0,0,1-.12.09,1.21,1.21,0,0,0-.49.22A1.83,1.83,0,0,1,1,9.09c-.14.07-.19.22-.27.33l-.11.15a1.1,1.1,0,0,0-.19.54c.13.11.13.11.27.12a1.77,1.77,0,0,1,0-.23,2.08,2.08,0,0,0,0-.23c0-.14.05-.23.11-.33a1.62,1.62,0,0,1,.18-.19,1,1,0,0,1,.52-.31c.16,0,.31-.07.46-.1h.21s0,0,0,.07c-.2.06-.42.07-.56.24A1,1,0,0,0,2,9.2a2.17,2.17,0,0,0,.25,0c-.17.08-.29.21-.45.3a.75.75,0,0,0-.41.57c0,.16,0,.2.19.17l.13,0a.15.15,0,0,0,0-.06s0-.08,0-.1,0-.24.06-.33a1.4,1.4,0,0,1,.45-.35.27.27,0,0,1,.33,0,.27.27,0,0,1-.19.24,1.44,1.44,0,0,0-.48.47.73.73,0,0,0,0,.12.62.62,0,0,0,.35.18v-.22a.29.29,0,0,1,0-.13.88.88,0,0,1,.4-.43l.25-.08A.17.17,0,0,1,3,9.58l0,.05a1.62,1.62,0,0,0-.64.73c0,.05,0,.11,0,.14a.4.4,0,0,0,.36.08A.44.44,0,0,1,2.8,10a1,1,0,0,1,.08-.11.67.67,0,0,1,.53-.21h0a.5.5,0,0,1-.19.24.88.88,0,0,0-.31.35,1,1,0,0,0-.08.24.09.09,0,0,0,.07.12,1.29,1.29,0,0,0,.48,0,.48.48,0,0,0,0-.27.37.37,0,0,1,0-.18.88.88,0,0,1,.32-.37.65.65,0,0,1,.2-.05c.05,0,.11,0,.12.06-.2.25-.47.45-.45.82a.43.43,0,0,0,.35,0,.93.93,0,0,1,0-.13A.2.2,0,0,1,3.91,10.38ZM1.39,9.44l.15-.15c-.08-.08-.14-.08-.19,0S1.32,9.39,1.39,9.44Zm3.27.7A1,1,0,0,1,5,9.93,3.08,3.08,0,0,0,6,9.53a.5.5,0,0,0,.11-.1.18.18,0,0,0-.19,0,1.77,1.77,0,0,1-.63.23l-.15.05c-.14.06-.28.13-.43.18a.77.77,0,0,0-.5.61s0,.06,0,.11a.49.49,0,0,0,.35-.06v-.17A.3.3,0,0,1,4.66,10.14Zm.58.42A.58.58,0,0,1,5.36,10c-.19,0-.19,0-.22.06s0,.11-.11.13-.18.16-.26.25a.28.28,0,0,0,0,.11h.38Zm.58.89-.05,0a.61.61,0,0,0-.43-.32s0,.06,0,.07A1.3,1.3,0,0,0,5.82,11.45Zm0,.07a.17.17,0,0,0,0-.07h0s0,.05,0,.07v0Zm0-.88c0-.08,0-.15-.08-.22a.34.34,0,0,1,0-.37,1.43,1.43,0,0,1,.23-.27,1.55,1.55,0,0,0,.32-.44.27.27,0,0,0,0-.25.13.13,0,0,0-.09.15.33.33,0,0,1-.16.31l-.37.28a.5.5,0,0,0-.15.14c-.09.19-.16.38-.24.57,0,0,0,0,0,.06A.93.93,0,0,0,5.88,10.64Zm.29.84c.08.11.14.23.22.35.09,0,.18-.05.22-.14-.11-.15-.22-.31-.34-.46a.31.31,0,0,0-.14-.11.26.26,0,0,0-.23.05C6,11.29,6.1,11.38,6.17,11.48ZM5.9,12.81a.5.5,0,0,1,.1-.14,1.7,1.7,0,0,1,.61-.28c.26,0,.51-.11.76-.17l0,0a1.23,1.23,0,0,0-.69.05l-.27.09a1.11,1.11,0,0,0-.42.21,3,3,0,0,0-.25.25.24.24,0,0,0-.09.27A.42.42,0,0,0,5.9,12.81Zm1.89.48.07-.24a.75.75,0,0,1,.51-.22A1.71,1.71,0,0,0,9,12.65l.31-.15s.07,0,.05-.08-.14,0-.21,0L9,12.52c-.06-.13.13-.12.1-.23s-.33.09-.51,0c0-.05,0-.09-.08-.08l-.18,0a.51.51,0,0,1-.4,0,.63.63,0,0,0-.36,0,1.09,1.09,0,0,1-.26,0,2.67,2.67,0,0,0-1,.34,1.1,1.1,0,0,0-.49.51c.14.13.14.13.27,0h0l0,.12a.54.54,0,0,0,.31,0h.09a.74.74,0,0,0,.62,0l0-.29.45-.34a.67.67,0,0,0-.29.08L7,13c-.09.06-.17,0-.26,0A.64.64,0,0,1,7,12.81a.94.94,0,0,1,.73-.11,2.34,2.34,0,0,0,.38,0l.14,0v0l-.29.07a1.23,1.23,0,0,0-.26.12l-.25.19a.29.29,0,0,0-.16.27A3.53,3.53,0,0,0,7.79,13.29Zm.41.33.12.11a1.9,1.9,0,0,1,.4.53,1.39,1.39,0,0,0,.17.44.52.52,0,0,0,.3.33c.22.09.33.31.52.44l0,0,.2.37a5.13,5.13,0,0,0,.41.72.58.58,0,0,0,.11.1c0-.06,0-.09,0-.11a3.36,3.36,0,0,1-.3-.6,1.41,1.41,0,0,0-.17-.32c-.18-.26-.42-.46-.59-.73l-.11-.11a1.41,1.41,0,0,1-.34-.46,3.65,3.65,0,0,0-.4-.69C8.43,13.54,8.41,13.54,8.2,13.62Zm.46-.54a.26.26,0,0,0,.22-.26c-.18,0-.33.09-.48.11a.75.75,0,0,0-.41.22.64.64,0,0,0-.06.1l.23,0C8.32,13.17,8.49,13.14,8.66,13.08Zm-.3,1.49.39.49a.39.39,0,0,0,.33.16,1.84,1.84,0,0,0-.14-.14,2.36,2.36,0,0,1-.59-.74l-.09-.16a4,4,0,0,0-.3-.39c-.1-.12-.17-.12-.36,0a.55.55,0,0,0,.12.14A3.13,3.13,0,0,1,8.36,14.57Zm.49,1a1.91,1.91,0,0,0,.36.13.48.48,0,0,1,.22.12.44.44,0,0,1,.19.3,1,1,0,0,0,.36.53c.14.13.29.24.44.36h.05l-.12-.17-.18-.22-.57-.77a.76.76,0,0,0-.37-.27l-.15,0a.8.8,0,0,1-.49-.31l-.08,0h0l0,0,0,0h0l.06.14A.45.45,0,0,0,8.85,15.61Zm.74.93A1.4,1.4,0,0,0,9,16C9.2,16.19,9.31,16.43,9.59,16.54Zm-1,.24a.74.74,0,0,1-.42-.19c-.1-.09-.19-.18-.34-.14s-.13-.06-.19-.08A1,1,0,0,1,7,15.93l-.1-.08c-.05,0-.09,0-.09.09l.25.23a1.33,1.33,0,0,0,.55.35,2.55,2.55,0,0,1,1,.55,1.15,1.15,0,0,0,.35.22l.19.09a1.27,1.27,0,0,0,.54.17,1.31,1.31,0,0,0,.28,0,.76.76,0,0,0,.18-.09l.06,0a.52.52,0,0,0-.37-.16,1.38,1.38,0,0,1-.53-.13.42.42,0,0,1-.16-.09A.94.94,0,0,0,8.61,16.78Zm-1.7-1.4a.69.69,0,0,0,0-.32c-.1.08-.11.1-.1.35C6.87,15.43,6.9,15.42,6.91,15.38Zm1.6,1c0,.18,0,.2.25.2A.42.42,0,0,0,8.51,16.39Zm-.8-.54a1.49,1.49,0,0,0,.66.49.11.11,0,0,0,0-.08A3.61,3.61,0,0,0,8,15.91a1,1,0,0,0-.17-.12S7.75,15.79,7.71,15.85Zm0-.42s0,0,.06,0a.1.1,0,0,0,0-.15S7.63,15.38,7.67,15.43ZM7.32,15l.14.46s.07,0,.08-.05a.51.51,0,0,0-.07-.4A.09.09,0,0,0,7.32,15Zm-.05.9a.44.44,0,0,0,.39.19l-.22-.23C7.39,15.83,7.34,15.84,7.27,15.92Zm0-1.2c0-.11,0-.11-.1-.17A.16.16,0,0,0,7.26,14.72ZM7.07,15c0,.12,0,.21-.06.3s0,.16.14.19,0,0,.1,0A.58.58,0,0,0,7.18,15S7.13,15,7.07,15Zm-.37-.65a.71.71,0,0,1,.21.39c0,.08,0,.09.18,0C7,14.59,7,14.37,6.7,14.31Zm-.41.06c.07.11.17.14.3.22a.5.5,0,0,0-.15-.3Zm-.7,0a.78.78,0,0,0,.54.23C6,14.3,5.86,14.25,5.59,14.33Zm-.18,0h0v0Zm-.52.28c.21,0,.4.07.67.05a2.26,2.26,0,0,0-.27-.2C5.11,14.36,5,14.4,4.89,14.62Zm-.53.7c-.09,0-.09.08-.1.14s0,.08.06.09A.16.16,0,0,0,4.36,15.32Zm0-.12a3.87,3.87,0,0,0,.67-.26.51.51,0,0,0-.33-.13.19.19,0,0,0-.16.07A.78.78,0,0,0,4.4,15.2Zm2-.27-.09,0a1,1,0,0,1-.1.11s-.09,0-.12,0,.08-.09,0-.15S6,15.1,5.8,15l0-.13a.89.89,0,0,0-.67.36L5,15.13c-.12.1-.22.2-.32.3l-.1.09a.2.2,0,0,0-.11.19v.22l.29.08c0-.14,0-.25,0-.35A.39.39,0,0,1,5,15.32a.11.11,0,0,1,.16,0,.11.11,0,0,1,0,.16c0,.06-.09.12-.13.19A.29.29,0,0,0,5,16a.39.39,0,0,0,.31-.1v-.37a.27.27,0,0,1,.34,0,1.12,1.12,0,0,0-.15.19c0,.06-.08.12,0,.2l.35-.11a1.92,1.92,0,0,1,0-.24.07.07,0,0,1,.08-.08s.09,0,.09.07,0,.1,0,.16a.38.38,0,0,0,.25-.11c0-.06,0-.13,0-.2l.06-.22C6.35,15.06,6.41,15,6.4,14.93Zm.08.55.15,0,.09-.4-.11,0s-.06,0-.06.06-.08.24-.1.37Zm1.14,1.36.09,0a4.59,4.59,0,0,1-.44-.21,1.1,1.1,0,0,1-.36-.32h0l-.3-.34a0,0,0,0,0-.08,0l.35.33h0a.2.2,0,0,0,.09.26A2.73,2.73,0,0,0,7.62,16.84Zm1.56,1.25s0-.05,0-.06l-.39-.15a1.92,1.92,0,0,1-.88-.54,1.83,1.83,0,0,0-.26-.21H7.54c.18.28.35.41,1,.79A1.44,1.44,0,0,0,9.18,18.09Zm1.51-.27c-.07-.08-.14-.13-.25-.08a2.06,2.06,0,0,1-.26,0H9.85a1.88,1.88,0,0,1-.62-.11c-.25-.12-.49-.25-.73-.38A1.86,1.86,0,0,1,8.18,17s-.07-.06-.12,0l.12.16a1.12,1.12,0,0,0,.78.48l.14,0a3,3,0,0,0,.77.26A1,1,0,0,0,10.69,17.82Zm.16.22c-.14,0-.14,0-.4.15C10.68,18.23,10.78,18.19,10.85,18Zm0-1h0v0Zm.51.69s-.07-.08-.11-.1-.05,0-.06,0a.06.06,0,0,0,0,.06C11.23,17.78,11.27,17.8,11.36,17.75Zm.76.14a.74.74,0,0,0-.26-.29,2.19,2.19,0,0,1-.61-.52,5.6,5.6,0,0,1-.59-.85l-.27-.45a6.33,6.33,0,0,1-.39-.61,3.7,3.7,0,0,0-.25-.43,1.84,1.84,0,0,1-.19-.4.31.31,0,0,0-.11-.16.43.43,0,0,1-.2-.2A1.93,1.93,0,0,0,9,13.62l-.05,0a1.51,1.51,0,0,0,.53.95l.17.16a.53.53,0,0,1,.14.3.42.42,0,0,0,.08.18,4.6,4.6,0,0,1,.42.63,7.39,7.39,0,0,0,1,1.29,4.1,4.1,0,0,0,.83.73Zm.25.26,0-.08a.06.06,0,0,0-.09,0,.08.08,0,0,0,0,0,.12.12,0,0,0,0,0A.33.33,0,0,0,12.37,18.15Zm.13-.28a.38.38,0,0,0-.13-.26c-.22-.23-.4-.49-.64-.71a1.3,1.3,0,0,1-.15-.18l-.29-.39-.07,0h0c0-.11-.08-.17-.13-.26h0L11,15.8c0,.12,0,.2.13.21h0c0,.11,0,.15.13.26h0s0,0,0,.05a.85.85,0,0,0,.32.68c.18.14.35.3.52.46A3,3,0,0,0,12.5,17.87Zm.94.31-.06-.1a5.29,5.29,0,0,1-.77-.8.41.41,0,0,1-.07-.11,2.38,2.38,0,0,0-.43-.56,1.41,1.41,0,0,1-.27-.37c-.1-.18-.21-.37-.32-.54a4,4,0,0,1-.46-1,1.75,1.75,0,0,0-.12-.32c0-.1-.09-.18-.13-.28s-.08-.2-.15-.35a1.18,1.18,0,0,0,0,.34A3.81,3.81,0,0,0,11,15.14s0,.13.06.19a3.11,3.11,0,0,0,.22.53c.18.29.38.57.58.86a1.54,1.54,0,0,0,.17.19,4.11,4.11,0,0,0,.3.29.14.14,0,0,1,.05.16c0,.05,0,.08.06.1a.17.17,0,0,0,.1,0,.29.29,0,0,1,.26.15,1.83,1.83,0,0,0,.13.16c.1.1.21.21.32.3S13.35,18.14,13.44,18.18Zm.41.23c-.15-.12-.15-.12-.27-.13C13.62,18.4,13.66,18.42,13.85,18.41Zm.86,0a.33.33,0,0,0-.14-.1.62.62,0,0,1-.29-.21l-.18-.16a.77.77,0,0,1-.15,0s-.11,0-.12-.08-.14-.17-.23-.24-.34-.24-.5-.37a1.32,1.32,0,0,1-.22-.18c-.16-.18-.31-.35-.46-.54a3.87,3.87,0,0,1-.57-1c-.06-.16-.14-.31-.21-.47a5.27,5.27,0,0,1-.4-1c0-.17-.08-.35-.13-.53h-.18a.52.52,0,0,1,.14.4,1.75,1.75,0,0,0,.08.51,2,2,0,0,1,.14.47.1.1,0,0,0,0,.07l.35.67a5.31,5.31,0,0,0,.52.81c0,.05.07.12.12.12s.14.1.18.17l.26.36c.16.2.34.39.52.59a.49.49,0,0,1,.41.22,1.77,1.77,0,0,0,.17.2,3.23,3.23,0,0,0,.73.4h.08a.07.07,0,0,0,.05,0S14.73,18.41,14.71,18.4Zm0-.39a4.79,4.79,0,0,0,1-1,1.83,1.83,0,0,0,.35-.66c-.06,0-.11,0-.14,0a.45.45,0,0,0-.06.12,1.52,1.52,0,0,1-.46.58s-.05,0-.06.05a2,2,0,0,1-.53.55l-.3.25C14.68,18.06,14.69,18.06,14.76,18Zm1.13-.66a3.45,3.45,0,0,0,.71-1.23,4.38,4.38,0,0,0,.33-1.43,1.13,1.13,0,0,1,0-.18,4.39,4.39,0,0,0,0-.81A3.26,3.26,0,0,1,17,12.62a2.25,2.25,0,0,0,.06-.36.06.06,0,0,0-.05-.09l-.1.2a2.18,2.18,0,0,0-.2,1,4.6,4.6,0,0,1,0,.83c0,.17,0,.35,0,.52a2.12,2.12,0,0,1-.05.44,8.12,8.12,0,0,0-.27,1.08s0,.06-.05.09a2.45,2.45,0,0,0-.26.51A.28.28,0,0,1,16,17a.58.58,0,0,0-.19.25,1,1,0,0,1-.3.35.28.28,0,0,0-.1.09l-.39.56h0s-.09,0-.09.08.09,0,.09-.08h0a.35.35,0,0,0,.11,0,2.61,2.61,0,0,0,.24-.23Zm-.15.57c.11-.12.23-.23.34-.36a2.51,2.51,0,0,1,.36-.37,1.34,1.34,0,0,0,.45-.93,1.23,1.23,0,0,0,0-.28l-.1.23a3,3,0,0,1-.3.63,4.14,4.14,0,0,0-.42.61l0,.05-.39.44s0,0,0,.09A.71.71,0,0,0,15.74,17.92Zm.38,0,.54-.45a1.42,1.42,0,0,0,.32-.41c.08-.16.15-.33.24-.49a1.09,1.09,0,0,0,.11-.43,4.42,4.42,0,0,1,.35-1.56.94.94,0,0,0,.08-.33q0-.37.09-.75c.07-.39.16-.78.24-1.17a1,1,0,0,0,0-.3s-.07.06-.08.09-.18.36-.26.54a.3.3,0,0,0,0,.1,3.55,3.55,0,0,0-.07.57,1.84,1.84,0,0,1,0,.33,2.34,2.34,0,0,0,0,.26,1.19,1.19,0,0,1-.07.27,2.52,2.52,0,0,0-.28,1,.19.19,0,0,1,0,.07,2.91,2.91,0,0,0-.14.93.68.68,0,0,1,0,.2,2.22,2.22,0,0,1-.48.94c-.09.1-.19.2-.28.31A3.12,3.12,0,0,1,16,18,.75.75,0,0,0,16.12,17.94Zm2-4.75a2.61,2.61,0,0,0-.21,1L18,14a9.07,9.07,0,0,0,.32-.87,1,1,0,0,0,.08-.22.55.55,0,0,0,.07-.23.92.92,0,0,1,0-.33.53.53,0,0,0,0-.29c0,.07,0,.12,0,.17a1.36,1.36,0,0,1-.13.42.25.25,0,0,0,0,.09A2.92,2.92,0,0,1,18.14,13.19Zm.06-1.56a1.43,1.43,0,0,0,.16-.76.46.46,0,0,1-.05.21c-.11.14-.09.31-.15.46S18.14,11.61,18.2,11.63ZM16.91,17.9a1.12,1.12,0,0,0-.33.27C16.82,18.09,16.86,18.06,16.91,17.9Zm.14-.06h0v0Zm.36-.54s0,0-.05.05a.43.43,0,0,1,0,0h0S17.44,17.34,17.41,17.3Zm.23-.95a1.44,1.44,0,0,1,.09-.4c0-.11.08-.21.12-.32a6.5,6.5,0,0,1,.4-1.12l.06-.17c.07-.2.14-.39.22-.59s.12-.3.16-.46.14-.54.2-.81c0-.1,0-.2.05-.3a.4.4,0,0,0-.12.15,4.59,4.59,0,0,0-.29.81c0,.09-.07.17,0,.27s0,.1-.05.15c-.08.21-.17.43-.26.65s-.15.42-.21.64-.2.42-.28.64a1.91,1.91,0,0,0-.17.62.77.77,0,0,1-.06.3,3.07,3.07,0,0,1-.59,1.06.81.81,0,0,0-.12.14,1.52,1.52,0,0,1-.38.38c-.07.06-.15.1-.21.16a.59.59,0,0,0-.09.11h.09c.23-.15.45-.3.66-.46a.88.88,0,0,0,.23-.24,2.63,2.63,0,0,0,.27-.41A1.91,1.91,0,0,0,17.64,16.35Zm1.3-2.22,0,0c-.11.15-.21.31-.33.46a.79.79,0,0,0-.13.28,5.47,5.47,0,0,1-.43,1,2.88,2.88,0,0,0-.13.31,1.34,1.34,0,0,0-.06.4c0,.13-.15.22-.14.38l.08-.07a3.38,3.38,0,0,0,.44-.73,9.63,9.63,0,0,0,.54-1.38C18.81,14.57,18.87,14.35,18.94,14.13Zm.06-1a3.61,3.61,0,0,1,.32-.76,1.33,1.33,0,0,0,.09-.21,2.4,2.4,0,0,1,.11-.23.08.08,0,0,0-.12,0,1.47,1.47,0,0,0-.14.28c-.07.18-.13.37-.22.55a1.34,1.34,0,0,0-.15.48h0v0s0,.08-.05.13h0v0a.14.14,0,0,0,0,.18h0l-.06,0a.72.72,0,0,0-.15.42,2.23,2.23,0,0,0,.21-.44h0v-.18h0c.06,0,.07,0,.05-.13h0C19,13.24,19,13.16,19,13.1Zm.85-1.21a1.06,1.06,0,0,0-.43.68h0a.54.54,0,0,0-.13.42.8.8,0,0,0,.13-.42h0c.08,0,.09-.1.13-.16s.21-.32.31-.48A.06.06,0,0,0,19.85,11.89Zm.62-.77c0-.12,0-.24,0-.36s0-.06,0-.07-.11-.23-.14-.35A1.23,1.23,0,0,0,20,9.69a.07.07,0,0,1,0,0l0-.09a0,0,0,0,0,0,0c-.15-.26-.16-.26-.35-.35a.39.39,0,0,0-.26,0l0,0,0,.13c-.09,0-.17,0-.18-.09s-.1-.11-.17-.15l-.12.1c.06.07.17.06.19.19l-.24-.09.06.09s0,.07,0,.09-.05,0-.06,0-.09-.11-.17-.1a.07.07,0,0,0-.05,0c0,.07.14.05.12.17l-.15,0a.42.42,0,0,0-.25,0l0,0a.8.8,0,0,1,0,.15c-.06,0-.08,0-.1-.07s-.1,0-.14,0,0,.07,0,.11l0,.05c-.14,0-.31-.1-.45.07a2,2,0,0,1,.08.22.44.44,0,0,1,0,.15,2,2,0,0,0,.16.63.58.58,0,0,1,0,.5.36.36,0,0,0-.07.24c.17.07.21,0,.23-.1s.05-.28.07-.41a1.51,1.51,0,0,0,0-.6.36.36,0,0,1,0-.1l.06,0,.06,0a1.16,1.16,0,0,1,0,.18c0,.05,0,.11.06.12h0c0-.1.05-.2.08-.3s.06-.1.15-.07a.81.81,0,0,1,0,.22,4.16,4.16,0,0,1-.31,1.2c.11,0,.13,0,.14,0l.15-.33a1.59,1.59,0,0,0,.17-.38,1.63,1.63,0,0,0,0-.44,1.17,1.17,0,0,1,.08-.37.19.19,0,0,1,.14.19,1,1,0,0,1,0,.6c-.07.13-.1.28-.16.41a1,1,0,0,0-.1.18,1.51,1.51,0,0,1-.09.18.74.74,0,0,0,.64-.09h0l.15,0a.3.3,0,0,0,.25-.29,1.06,1.06,0,0,0,0-.56.8.8,0,0,0-.06-.38c0-.14-.13-.27-.06-.42a.21.21,0,0,0,0-.07s0-.07.05-.08a3.51,3.51,0,0,1,.4.77.14.14,0,0,1,0,.14,1.53,1.53,0,0,0-.13.56s0,.07,0,.13l.16-.06a.67.67,0,0,0,.12-.06c0-.2,0-.41-.09-.58s0-.07,0-.11a1.62,1.62,0,0,0,0-.2c-.06-.2-.12-.39-.17-.59.11,0,.16.06.21.15a2.39,2.39,0,0,1,.13.28,1.41,1.41,0,0,1,.1.81,1,1,0,0,0,0,.18A.4.4,0,0,0,20.47,11.12Zm.3-.25a2.51,2.51,0,0,0,0-.39c0-.21-.09-.41-.14-.61a.88.88,0,0,0-.12-.28.48.48,0,0,1-.09-.27,1.22,1.22,0,0,0-.48-.15,1.64,1.64,0,0,0,.33.44,1.11,1.11,0,0,1,.31.88c0,.12,0,.24,0,.36a.37.37,0,0,0,.06.26l.14,0A1.46,1.46,0,0,0,20.77,10.87Zm2-.86a.62.62,0,0,0-.41-.52,4.38,4.38,0,0,1,.16.47,2.75,2.75,0,0,1,0,.51A.48.48,0,0,0,22.8,10ZM23,9.25l0,0a1.15,1.15,0,0,0-.35-.31,5.79,5.79,0,0,0-.54-.31A6.35,6.35,0,0,0,21,8.26a1,1,0,0,0-.78.05,1.33,1.33,0,0,0-.24.11c0,.07.08.14.07.19s.11.11,0,.2a.86.86,0,0,1-.34.12.24.24,0,0,1-.24-.07s-.08,0-.06.09.21.05.31.09.4,0,.57.15h.06a.37.37,0,0,1,.29.19.45.45,0,0,0,.16.2.28.28,0,0,1,.06.09,1.23,1.23,0,0,1,.1.42,1.41,1.41,0,0,0,0,.29.29.29,0,0,1-.05.22.22.22,0,0,0,0,.22c0,.09,0,.16-.06.25.27,0,.49-.08.72,0,0,0,.06,0,.09,0l.09-.08c.06,0,.1.09.14.09a.62.62,0,0,0,.34-.13.31.31,0,0,0,.16-.25.35.35,0,0,1,.06-.14s0-.08,0-.1,0-.36-.23-.48A1.8,1.8,0,0,1,22,9.62a.33.33,0,0,1-.09-.29s0-.08,0-.11a1,1,0,0,0-.09-.13s0,0,0-.05l.06,0,.23.13c0-.11,0-.2-.08-.27s-.15-.2-.3-.17-.19,0-.25-.17l.36.08h.05s.07,0,.09.06a.48.48,0,0,0,.22.12,1.71,1.71,0,0,1,.33.17.66.66,0,0,1,.32.39A1,1,0,0,0,23,9.7C23.14,9.48,23.14,9.43,23,9.25Zm-1.62-.39c-.07,0,0,.1,0,.15a.2.2,0,0,1,0,.2.21.21,0,0,0,0,.19c.05.13.09.26.13.4a.6.6,0,0,0,.22.36c.19-.14.2-.15.15-.34a2.25,2.25,0,0,0-.08-.24c-.05-.13-.11-.26-.17-.38A1.46,1.46,0,0,0,21.39,8.86ZM6.7,7.09v0ZM13.87,8h0V8Zm0,0ZM2,8.18H1.89a3.05,3.05,0,0,0-1.09.4l-.12,0a.24.24,0,0,0-.17.24.44.44,0,0,1-.09.24.51.51,0,0,0-.09.3c.06-.09.1-.16.15-.22a2.28,2.28,0,0,1,.29-.33,2.68,2.68,0,0,1,1.1-.56.11.11,0,0,0,.07,0,.1.1,0,0,0,0,0S2,8.18,2,8.18Zm3.15.29a1,1,0,0,0-.8.66c.18,0,.28-.1.4-.18A.84.84,0,0,0,5.11,8.47Zm2.2,4a.87.87,0,0,1-.48.08.2.2,0,0,0-.13,0,1.3,1.3,0,0,0-.42.25.2.2,0,0,0,0,.08c.21,0,.21.05.31,0a1.85,1.85,0,0,1,.68-.32.59.59,0,0,0,.24-.09C7.4,12.44,7.36,12.47,7.31,12.49Zm1.1.22h0ZM5.29,8.36h0ZM19.75,9.74l0,0v0ZM5.25,8.39l0,0h0ZM19.4,10.24a.46.46,0,0,0-.22-.33s-.05.06-.05.08a2.34,2.34,0,0,0,0,.26c0,.1,0,.2,0,.3a3.38,3.38,0,0,1,0,.9.14.14,0,0,0,0,.11l.05,0a.65.65,0,0,0,.11-.22A2.69,2.69,0,0,0,19.4,10.24ZM5.29,8.36h0Zm14.48,1.4v0h0Z"/><path d="M36.82,7.87a3.17,3.17,0,0,1-2.28,3,4.14,4.14,0,0,0-.41.14s.14,0,.41.07a3.28,3.28,0,0,1,2.9,3.1c0,2.21-1.9,4.42-6.12,4.42H24.1c-.25,0-.4-.1-.4-.35A.4.4,0,0,1,24,17.8c1-.33,1.15-1.2,1.17-2.09l.27-8.29c0-.77-.12-1.54-1.05-1.72a.35.35,0,0,1-.33-.39.36.36,0,0,1,.39-.38h3c1.43,0,3.52-.1,4.65-.1C35.87,4.83,36.82,6.36,36.82,7.87Zm-4,4.9a3.63,3.63,0,0,0-2.67-.91c-.81,0-1.16.11-1.16.37l-.14,4.08a.84.84,0,0,0,.45.83,3.29,3.29,0,0,0,1.53.31,2.88,2.88,0,0,0,2.07-.81,2.68,2.68,0,0,0,.7-1.88A2.9,2.9,0,0,0,32.83,12.77Zm-.54-6.14A3.17,3.17,0,0,0,30.12,6c-.42,0-.89.08-.91.41l-.15,3.87c0,.25.15.35.38.43a4.22,4.22,0,0,0,1.13.13,2.7,2.7,0,0,0,1.78-.6,2.32,2.32,0,0,0,.75-1.72A2.41,2.41,0,0,0,32.29,6.63Z"/><path d="M48.87,13c0,2.83-2.13,5.79-6.26,5.79-3.6,0-5.18-2.21-5.18-4.65A5.94,5.94,0,0,1,43.7,8.26C47.24,8.26,48.87,10.56,48.87,13Zm-8.25-.58c0,2.11,1.43,4.78,3.31,4.78,1.2,0,1.72-1,1.72-2.3,0-2.15-1.33-5-3.29-5C41.08,9.86,40.62,11,40.62,12.42Z"/><path d="M50.17,10.44c0-.11,0-.13-.16-.13H48.64c-.18,0-.25-.23-.27-.5s.07-.53.29-.58a5.79,5.79,0,0,0,4-3.37c.06-.16.35-.24.6-.24s.53.1.53.33l-.1,2.64a.13.13,0,0,0,.15.15h2.83c.27,0,.35.25.35.54s-.12.68-.39.7l-3,.31-.14,4.14A2.15,2.15,0,0,0,54,16a1.82,1.82,0,0,0,1.34.51,2.08,2.08,0,0,0,1.22-.37,1.12,1.12,0,0,1,.23-.06.36.36,0,0,1,.35.39.55.55,0,0,1-.1.31,4.73,4.73,0,0,1-3.83,2.07,3.15,3.15,0,0,1-2.5-1,3.6,3.6,0,0,1-.7-2.4Z"/><path d="M59.37,12.52c-.7,0-1.75-.62-1.75-1.3s.72-1.3,1.3-1.72a6.87,6.87,0,0,1,3.95-1.24c2.28,0,4.38,1.18,4.38,4l-.12,3.58c0,1,.46,1.55.89,1.55a.62.62,0,0,1,.33.07.26.26,0,0,1,.12.24.36.36,0,0,1-.08.25,4,4,0,0,1-2.52.83c-1.26,0-2.13-.58-2.13-1.8,0,0,0,0-.06,0s-.09,0-.09,0a3.57,3.57,0,0,1-3.24,1.86,2.93,2.93,0,0,1-3-3.12,1.12,1.12,0,0,1,.53-1.14,16.67,16.67,0,0,1,5.63-2.07c.17,0,.29,0,.29-.29,0-1.38-1.22-2-2.54-2a2.6,2.6,0,0,0-.58,0c-.25,0-.42.14-.42.45C60.22,11.8,60.08,12.52,59.37,12.52ZM62,16.7c1.72,0,1.78-1.88,1.78-2.77v-.5a.11.11,0,0,0-.12-.1s-.13,0-.23.06c-1,.29-2.9.95-2.9,1.6A1.58,1.58,0,0,0,62,16.7Z"/><path d="M76.62,8.24c2.38,0,3.29,1.53,3.29,3.73l-.15,3.86c0,1,.07,1.8.87,2a.35.35,0,0,1,.31.37.37.37,0,0,1-.37.39h-5.4a.31.31,0,0,1-.33-.35.43.43,0,0,1,.31-.41c1-.33,1.08-1.33,1.12-2.3l.1-2.62c0-1-.12-2.42-1.53-2.42S73.06,12.13,73,13.68l-.08,2.4c0,.93.14,1.57.87,1.72a.34.34,0,0,1,.29.37.38.38,0,0,1-.38.39H68.31a.32.32,0,0,1-.33-.35.42.42,0,0,1,.31-.41c1-.39,1.09-1.35,1.13-2.3l.15-3.78c0-.79-.37-1.18-1.37-1.18a.46.46,0,0,1-.16-.37.47.47,0,0,1,.45-.5,8.56,8.56,0,0,0,2.8-1,1.89,1.89,0,0,1,1-.38,1,1,0,0,1,.74.31l-.12,2.09c0,.06,0,.09,0,.09s0,0,.06-.07A4,4,0,0,1,76.62,8.24Z"/><path d="M82.53,11.61c0-.8-.45-1.17-1.45-1.17a.46.46,0,0,1-.2-.38.48.48,0,0,1,.45-.49,9.5,9.5,0,0,0,2.92-1.06,2.08,2.08,0,0,1,1-.33,1.25,1.25,0,0,1,.87.31l-.27,7.59c0,.7.07,1.53,1,1.72a.33.33,0,0,1,.29.37.37.37,0,0,1-.37.39H81.25a.31.31,0,0,1-.31-.35.42.42,0,0,1,.29-.41c1-.27,1.14-1.14,1.18-2.3Zm3.81-6.78a1.88,1.88,0,0,1-2.07,2c-1.32,0-1.88-.71-1.88-1.74a1.85,1.85,0,0,1,2-2C85.76,3.09,86.34,3.77,86.34,4.83Z"/><path d="M96,12.5a.39.39,0,0,1-.35-.22c-.77-1.58-1.78-2.47-3.19-2.47a2.69,2.69,0,0,0-2.61,3,3.3,3.3,0,0,0,3.35,3.48,4.46,4.46,0,0,0,2.82-1.06.56.56,0,0,1,.33-.12.25.25,0,0,1,.27.27.49.49,0,0,1,0,.23,5.39,5.39,0,0,1-5,3.2,4.59,4.59,0,0,1-4.88-4.69c0-2.82,2.09-5.84,6.51-5.84,2.36,0,3.6.62,3.6,2.3C96.84,11,96.68,12.5,96,12.5Z"/><path d="M19.57,27.53c0,3.83-2.69,7.26-8.11,7.26-1.29,0-2.55-.14-3.5-.14H5c-.18,0-.31-.13-.31-.36A.41.41,0,0,1,5,33.88c1-.33,1.18-1.2,1.2-2.09l.29-8.48c0-.72-.24-1.43-1.09-1.53a.32.32,0,0,1-.31-.35A.39.39,0,0,1,5.48,21H8.42c1.44,0,2.46-.11,3.8-.11C17.06,20.91,19.57,23.7,19.57,27.53Zm-9.31,5.56a3.07,3.07,0,0,0,1.61.38,3.85,3.85,0,0,0,3.25-1.72A6,6,0,0,0,16,28.4a6.42,6.42,0,0,0-1.57-4.3,5.74,5.74,0,0,0-3.91-2c-.27,0-.38.12-.38.35L9.84,32.1A1.13,1.13,0,0,0,10.26,33.09Z"/><path d="M21.48,28.61c-.7,0-1.75-.62-1.75-1.31s.72-1.3,1.3-1.71A6.8,6.8,0,0,1,25,24.35c2.27,0,4.38,1.17,4.38,3.95l-.12,3.58c0,1,.46,1.55.89,1.55a.75.75,0,0,1,.33.06.27.27,0,0,1,.13.25.36.36,0,0,1-.09.24,4,4,0,0,1-2.52.83c-1.26,0-2.13-.58-2.13-1.8,0,0,0,0-.06,0s-.09,0-.09,0a3.57,3.57,0,0,1-3.24,1.86,2.93,2.93,0,0,1-3-3.12A1.12,1.12,0,0,1,20,30.61a16.67,16.67,0,0,1,5.63-2.07c.16,0,.29,0,.29-.28,0-1.39-1.22-2-2.54-2a2.6,2.6,0,0,0-.58,0c-.25,0-.42.14-.42.46C22.33,27.88,22.19,28.61,21.48,28.61Zm2.61,4.17c1.72,0,1.78-1.88,1.78-2.77v-.49a.12.12,0,0,0-.13-.11s-.12,0-.22.06c-1,.3-2.9,1-2.9,1.6A1.57,1.57,0,0,0,24.09,32.78Z"/><path d="M32,27.7c0-.81-.46-1.18-1.45-1.18a.45.45,0,0,1-.21-.37.49.49,0,0,1,.46-.5,9.34,9.34,0,0,0,2.91-1.06,2.09,2.09,0,0,1,1-.33,1.32,1.32,0,0,1,.87.31l-.27,7.59c0,.71.06,1.53.95,1.72a.34.34,0,0,1,.29.37.38.38,0,0,1-.37.4H30.66a.33.33,0,0,1-.31-.36.44.44,0,0,1,.29-.41c1-.27,1.14-1.14,1.18-2.3Zm3.8-6.79a1.88,1.88,0,0,1-2.07,2c-1.32,0-1.88-.7-1.88-1.74a1.85,1.85,0,0,1,2.05-2C35.17,19.18,35.75,19.86,35.75,20.91Z"/><path d="M41.56,32.18c0,.69.06,1.6.93,1.7a.34.34,0,0,1,.29.37.36.36,0,0,1-.37.4H37c-.19,0-.31-.13-.33-.36a.42.42,0,0,1,.31-.41c1-.29,1.14-1.39,1.16-2.27L38.38,23c0-.78-.4-1.18-1.37-1.18a.41.41,0,0,1-.2-.39.45.45,0,0,1,.45-.45A9.05,9.05,0,0,0,40,20a2.08,2.08,0,0,1,1-.37,1.26,1.26,0,0,1,.86.31Z"/><path d="M41.6,36.78c0-.56.17-.89.56-.89a1.49,1.49,0,0,1,.64.27,7,7,0,0,0,2.9.74.77.77,0,0,0,.76-.87,14.67,14.67,0,0,0-.68-2.13l-2.52-7.22c-.36-1-.94-1.18-1.24-1.24a.37.37,0,0,1-.34-.37.39.39,0,0,1,.42-.39h5.83c.27,0,.35.18.35.39s-.08.37-.33.37c-.62,0-.91.33-.91.83a1.69,1.69,0,0,0,.06.41c.21.95.89,2.77,1.1,3.71a20.63,20.63,0,0,1,.45,2.85h.09l2.5-6.56a1,1,0,0,0,.08-.45c0-.58-.64-.77-1.4-.79a.34.34,0,0,1-.35-.37.35.35,0,0,1,.37-.39h4.51c.22,0,.33.18.33.39a.34.34,0,0,1-.31.37A2,2,0,0,0,53,26.68l-2.4,5.13c-.48,1-1,2.26-1.59,3.42-1.16,2.17-2.2,4.19-4.78,4.19A2.47,2.47,0,0,1,41.6,36.78Z"/><path d="M72.39,27.53c0,3.83-2.68,7.26-8.1,7.26-1.29,0-2.55-.14-3.5-.14H57.88a.32.32,0,0,1-.32-.36.41.41,0,0,1,.29-.41c1-.33,1.18-1.2,1.2-2.09l.29-8.48c0-.72-.24-1.43-1.09-1.53a.32.32,0,0,1-.31-.35.39.39,0,0,1,.37-.41h2.94c1.44,0,2.46-.11,3.8-.11C69.89,20.91,72.39,23.7,72.39,27.53Zm-9.3,5.56a3.07,3.07,0,0,0,1.61.38A3.85,3.85,0,0,0,68,31.75a6,6,0,0,0,.91-3.35,6.42,6.42,0,0,0-1.57-4.3,5.74,5.74,0,0,0-3.91-2c-.27,0-.38.12-.38.35l-.33,9.68A1.13,1.13,0,0,0,63.09,33.09Z"/><path d="M74.31,28.61c-.7,0-1.75-.62-1.75-1.31s.72-1.3,1.3-1.71a6.8,6.8,0,0,1,4-1.24c2.28,0,4.38,1.17,4.38,3.95l-.12,3.58c0,1,.46,1.55.89,1.55a.72.72,0,0,1,.33.06.27.27,0,0,1,.12.25.35.35,0,0,1-.08.24,4,4,0,0,1-2.52.83c-1.26,0-2.13-.58-2.13-1.8,0,0,0,0-.06,0s-.09,0-.09,0a3.57,3.57,0,0,1-3.24,1.86,2.93,2.93,0,0,1-3-3.12,1.12,1.12,0,0,1,.53-1.14,16.67,16.67,0,0,1,5.63-2.07c.17,0,.29,0,.29-.28,0-1.39-1.22-2-2.55-2a2.55,2.55,0,0,0-.57,0c-.25,0-.42.14-.42.46C75.16,27.88,75,28.61,74.31,28.61Zm2.61,4.17c1.72,0,1.78-1.88,1.78-2.77v-.49a.11.11,0,0,0-.12-.11s-.13,0-.23.06c-1,.3-2.9,1-2.9,1.6A1.57,1.57,0,0,0,76.92,32.78Z"/><path d="M83.87,26.52c0-.11,0-.13-.17-.13H82.34c-.19,0-.25-.22-.27-.49s.06-.54.29-.58a5.82,5.82,0,0,0,4-3.37c.06-.17.35-.25.6-.25s.54.1.54.33l-.11,2.65a.13.13,0,0,0,.15.14H90.4c.27,0,.35.25.35.54s-.12.68-.39.7l-3,.31-.14,4.14A2.15,2.15,0,0,0,87.69,32a1.84,1.84,0,0,0,1.35.52,2.11,2.11,0,0,0,1.22-.38.86.86,0,0,1,.23-.06.37.37,0,0,1,.35.4.53.53,0,0,1-.11.31,4.69,4.69,0,0,1-3.82,2.06,3.15,3.15,0,0,1-2.51-1,3.63,3.63,0,0,1-.7-2.4Z"/><path d="M92.65,28.61c-.7,0-1.75-.62-1.75-1.31s.72-1.3,1.3-1.71a6.8,6.8,0,0,1,4-1.24c2.27,0,4.39,1.17,4.39,3.95l-.13,3.58c0,1,.46,1.55.89,1.55a.75.75,0,0,1,.33.06.27.27,0,0,1,.12.25.35.35,0,0,1-.08.24,4,4,0,0,1-2.52.83c-1.26,0-2.13-.58-2.13-1.8,0,0,0,0-.06,0s-.09,0-.09,0a3.57,3.57,0,0,1-3.24,1.86,2.93,2.93,0,0,1-3-3.12,1.12,1.12,0,0,1,.53-1.14,16.67,16.67,0,0,1,5.63-2.07c.16,0,.29,0,.29-.28,0-1.39-1.22-2-2.54-2a2.6,2.6,0,0,0-.58,0c-.25,0-.42.14-.42.46C93.5,27.88,93.36,28.61,92.65,28.61Zm2.61,4.17C97,32.78,97,30.9,97,30v-.49a.12.12,0,0,0-.13-.11s-.12,0-.22.06c-1,.3-2.9,1-2.9,1.6A1.57,1.57,0,0,0,95.26,32.78Z"/></g></g></g></svg>