<svg xmlns="http://www.w3.org/2000/svg" viewBox="0 0 98.3 85.69"><defs><style>.cls-1{isolation:isolate;}.cls-2{font-size:18px;font-family:Monarcha-Bold, Monarcha;font-weight:700;}.cls-2,.cls-6{letter-spacing:-0.02em;}.cls-3{letter-spacing:-0.04em;}.cls-4{letter-spacing:-0.02em;}.cls-5{letter-spacing:-0.06em;}.cls-7{letter-spacing:-0.04em;}.cls-8{fill-rule:evenodd;mix-blend-mode:multiply;}</style></defs><g class="cls-1"><g id="Camada_2" data-name="Camada 2"><g id="Camada_1-2" data-name="Camada 1"><text class="cls-2" transform="translate(10.17 66.65)">B<tspan class="cls-3" x="12.44" y="0">o</tspan><tspan class="cls-4" x="22.75" y="0">t</tspan><tspan class="cls-3" x="30.33" y="0">ani</tspan><tspan x="57.53" y="0">c </tspan><tspan class="cls-5"><tspan x="0.36" y="14">D</tspan><tspan class="cls-3" x="13.27" y="14">ail</tspan><tspan class="cls-6" x="34.33" y="14">y </tspan><tspan x="48.15" y="14">Da</tspan><tspan class="cls-7" x="70.52" y="14">t</tspan><tspan class="cls-4" x="77.74" y="14">a</tspan></tspan></text><path class="cls-8" d="M30.22,19.54c.52.24.52.25.37.84C29.89,20.13,29.87,20.09,30.22,19.54Zm0-2.06a1.89,1.89,0,0,0,.5.28.22.22,0,0,0,.29-.23.53.53,0,0,0-.72-.48A.27.27,0,0,0,30.24,17.48Zm-1.52-.15.16.06.24-.12a.57.57,0,0,0,.16-.15.38.38,0,0,0,0-.47.32.32,0,0,0-.37-.16c-.3,0-.55.23-.56.4S28.56,17.22,28.72,17.33Zm7.83,5c-.12-.05-.26.08-.28.25s.07.27.3.3c0-.05.16-.12.18-.2A.3.3,0,0,0,36.55,22.34Zm-5.63-6.16c.06,0,.08-.12.11-.16a.35.35,0,0,0-.28-.39.45.45,0,0,0-.45.15s0,.05,0,.07C30.32,16.07,30.74,16.29,30.92,16.18Zm1,1.33c-.06,0-.16.15-.15.21a.65.65,0,0,0,.57.51c.07,0,.15-.08.2-.1s0-.11,0-.13A.61.61,0,0,0,31.92,17.51Zm.85.06c0,.12.17.27.3.21s.13-.12.24-.23c-.15-.08-.25-.16-.34-.16S32.8,17.49,32.77,17.57Zm2.36-3.72a2.23,2.23,0,0,0,.24.08c.08,0,.14,0,.18,0s.23-.12.26-.21a.34.34,0,0,0-.09-.32,1,1,0,0,0-.45-.18.37.37,0,0,0-.4.25C34.82,13.59,34.94,13.78,35.13,13.85Zm-1.52,2.67a.41.41,0,0,0,.17-.45,1.67,1.67,0,0,0-.16-.41c-.17-.29-.43-.3-.66,0a5.55,5.55,0,0,0-.34.51c.21.16.36.28.52.39A.35.35,0,0,0,33.61,16.52Zm-.34-1.85a.34.34,0,0,0,.4-.08.32.32,0,0,0,0-.4.66.66,0,0,0-.57-.22c-.05,0-.17.1-.21.2a.31.31,0,0,0,.07.25A1.24,1.24,0,0,0,33.27,14.67Zm3.56.13a.76.76,0,0,0,.26-.16.81.81,0,0,0,0-.2.49.49,0,0,0-.79-.17.24.24,0,0,0-.05.2A.58.58,0,0,0,36.83,14.8Zm-1.74,6a.64.64,0,0,0-.38.49.22.22,0,0,0,.06.19.44.44,0,0,0,.54.06,1.12,1.12,0,0,0,.28-.31A.39.39,0,0,0,35.09,20.83Zm-.58-5.27a.37.37,0,0,0,.29-.17.65.65,0,0,0-.14-.73c-.25-.16-.39.08-.55.21s-.12.14-.19.22A.58.58,0,0,0,34.51,15.56ZM37.17,14a.44.44,0,0,0,.31-.15.29.29,0,0,0,0-.27,3.87,3.87,0,0,0-.34-.41,2.84,2.84,0,0,0-.4.23.27.27,0,0,0-.06.26A.54.54,0,0,0,37.17,14ZM32.3,16.9a.41.41,0,0,0-.44-.45.24.24,0,0,0-.24.24c0,.17.16.33.41.33S32.22,16.94,32.3,16.9Zm5.62-1.43a.39.39,0,0,0,.33,0,.42.42,0,0,0,.13-.31c0-.27-.19-.53-.33-.52a.56.56,0,0,0-.45.33,1.84,1.84,0,0,0-.07.24A2.25,2.25,0,0,0,37.92,15.47Zm-6.08.12a.48.48,0,0,0,.27.08.82.82,0,0,0,.24-.13c0-.13-.05-.23-.09-.32a.35.35,0,0,0-.42-.2c-.1,0-.24.17-.23.23A.82.82,0,0,0,31.84,15.59Zm-1,5.65a.58.58,0,0,0-.47.5.42.42,0,0,0,.29.45.23.23,0,0,0,.14,0,.73.73,0,0,0,.5-.57s0-.05,0-.08A.49.49,0,0,0,30.86,21.24Zm.84-.88a.27.27,0,0,0-.29.25.29.29,0,0,0,.31.24A.76.76,0,0,0,32,20.7.3.3,0,0,0,31.7,20.36Zm.22,1.19a.22.22,0,0,0-.06.19.4.4,0,0,0,.5.28c.08,0,.14-.11.21-.17s0-.17-.08-.22A.41.41,0,0,0,31.92,21.55ZM35.36,20a2.56,2.56,0,0,0-.22-.35.27.27,0,0,0-.44,0,4.37,4.37,0,0,0-.34.8c0,.11,0,.23.2.23A1.79,1.79,0,0,1,35.36,20Zm-2.54.1a.33.33,0,0,0-.34.32c0,.16.22.31.5.31.05-.07.18-.16.21-.27S33,20.14,32.82,20.13Zm1,.57c-.2-.1-.33,0-.46.14s-.13.35.11.45a1.91,1.91,0,0,0,.33.1c.06-.12.11-.18.13-.24C34,20.9,34,20.76,33.87,20.7Zm-.56-1.61a2.69,2.69,0,0,0-.23-.52,2.48,2.48,0,0,0-.33.11.26.26,0,0,0-.17.13.48.48,0,0,0,0,.33.5.5,0,0,0,.61.23A.34.34,0,0,0,33.31,19.09Zm.34,3a.58.58,0,0,0-.31.6.51.51,0,0,0,.51.2C34.07,22.39,34.07,22.39,33.65,22.05Zm-2.13-1.94a.34.34,0,0,0,.22-.57,7,7,0,0,0-.54-.47c.07-.42,0-.62-.29-.77a.39.39,0,0,0-.46.13.31.31,0,0,0,.1.39.38.38,0,0,0,.13.09c.28.08.35.32.41.56s0,.3.08.44A.3.3,0,0,0,31.52,20.11Zm-2,.71a.25.25,0,0,0-.12.41,1.39,1.39,0,0,0,.41.27.28.28,0,0,0,.34-.28A.46.46,0,0,0,29.49,20.82Zm4.89-2.67a7.11,7.11,0,0,0,.34-.67c0-.26-.16-.4-.29-.35a1.28,1.28,0,0,0-.66.55.33.33,0,0,0,.07.46C34,18.26,34.29,18.29,34.38,18.15Zm-.41.68a.46.46,0,0,0-.41.26c0,.17.19.4.43.42a.33.33,0,0,0,.35-.3A.39.39,0,0,0,34,18.83Zm1.91-.16a.6.6,0,0,0-.64.24.23.23,0,0,0,0,.2.52.52,0,0,0,.5.23c.18,0,.32-.2.35-.48C36,18.81,36,18.68,35.88,18.67Zm-6.39.43a.39.39,0,0,0,.26-.22.7.7,0,0,0-.44-.89,3.57,3.57,0,0,0-.32.51A.46.46,0,0,0,29.49,19.1ZM28,18.6a1.18,1.18,0,0,0,.26,0c.08,0,.18-.1.2-.17a.36.36,0,0,0-.1-.25.3.3,0,0,0-.45,0c-.1.08-.18.19-.1.31S28,18.56,28,18.6Zm0,.66a1.07,1.07,0,0,0-.27.12.22.22,0,0,0,0,.37.4.4,0,0,0,.58-.13,2.83,2.83,0,0,0,.15-.45ZM51.74,15a.39.39,0,0,0,.67,0,1.23,1.23,0,0,0,.14-.42.56.56,0,0,0-.51-.55.71.71,0,0,0-.18.08A.76.76,0,0,0,51.74,15Zm2,3a.43.43,0,0,0-.31.37.38.38,0,0,0,.24.34c.09,0,.19.06.3.1a1.92,1.92,0,0,0,.39-.17.31.31,0,0,0,.08-.26A.63.63,0,0,0,53.7,18Zm.35,1.61a.32.32,0,0,0,0-.27,1.34,1.34,0,0,0-.29-.23.27.27,0,0,0-.34,0,.3.3,0,0,0-.09.4,1,1,0,0,0,.12.16,2.07,2.07,0,0,0,.43.1A.31.31,0,0,0,54.05,19.64Zm0-2.8a.86.86,0,0,0-.29.31.28.28,0,0,0,.17.42,4.1,4.1,0,0,0,.49.06,2.91,2.91,0,0,0,.17-.3.3.3,0,0,0-.08-.39A.39.39,0,0,0,54,16.84Zm1.71,2.34a1.43,1.43,0,0,0-.26-.41.47.47,0,0,0-.71.06.31.31,0,0,0,.09.49A.64.64,0,0,0,55.75,19.18Zm.31-1.37a.37.37,0,0,0,.47.09c.3-.13.47-.75.23-1a4.86,4.86,0,0,1-.48-.64.28.28,0,0,0-.45,0,.29.29,0,0,0,0,.45,3.4,3.4,0,0,0,.34.2,4.2,4.2,0,0,0-.23.52A.46.46,0,0,0,56.06,17.81Zm-1.54,2.42a.28.28,0,0,1-.08-.08.37.37,0,0,0-.37-.18.49.49,0,0,0-.38.31.3.3,0,0,0,.11.39.67.67,0,0,0,.35.1,7.16,7.16,0,0,1,.93-.12c.08,0,.18-.15.22-.25a1.06,1.06,0,0,0,0-.31C55,19.92,54.78,20.14,54.52,20.23Zm.13-4.17a.5.5,0,0,0,.58.31,1.26,1.26,0,0,0,.24-.19.55.55,0,0,0-.44-.57.33.33,0,0,0-.14,0A.37.37,0,0,0,54.65,16.06Zm.62-1a.9.9,0,0,0,.28-.24c.09-.18-.11-.46-.31-.5a.46.46,0,0,0-.48.36c0,.15.09.28.31.34Zm-.87,2.59,0,0h0v0Zm.05-4.59a.32.32,0,0,0-.5.12.25.25,0,0,0,0,.33c.21.15.52.14.61,0a.56.56,0,0,0,0-.19A1.55,1.55,0,0,0,54.45,13.06Zm.6,5a.64.64,0,0,0,.37-.2c.09-.14,0-.28-.15-.37s-.42-.2-.71,0l-.14.12C54.59,17.84,54.73,18.11,55.05,18.05Zm-1.31-3.13a1.3,1.3,0,0,0-.26.17c-.21.21-.17.39.08.52a1.57,1.57,0,0,0,.28.1.3.3,0,0,0,.38-.14.38.38,0,0,0-.07-.33A2.24,2.24,0,0,0,53.74,14.92ZM60.9,17a.38.38,0,0,0-.49,0A.34.34,0,0,1,60,17a.39.39,0,0,0-.21-.08.57.57,0,0,0-.59.35c0,.18.12.39.39.47l.29.06c.24-.2.59-.09.93-.12.16,0,.37,0,.4-.25S61,17.1,60.9,17Zm-1.4,1.2a.44.44,0,0,0-.45.39.34.34,0,0,0,.28.3c.27,0,.5-.05.56-.24S59.74,18.24,59.5,18.2Zm-3.79,1.68a.34.34,0,0,0-.13.25c0,.17.12.26.27.31a.36.36,0,0,0,.4-.09.52.52,0,0,0,.06-.13A.43.43,0,0,0,55.71,19.88Zm5.52-5a1.46,1.46,0,0,0,.22.09c.25,0,.46,0,.51-.16s0-.28-.13-.4a1.1,1.1,0,0,0-.15-.16.34.34,0,0,0-.4-.08.44.44,0,0,0-.31.38C61,14.72,61.1,14.81,61.23,14.88Zm1.05.16a.35.35,0,0,0-.07.2.45.45,0,0,0,.07.28.7.7,0,0,0,.6.2c.13,0,.26-.22.2-.33s-.23-.37-.37-.58c.1-.13.18-.24.28-.35.23-.27.14-.67-.35-.74-.22,0-.36.13-.46.4C62.44,14.41,62.56,14.7,62.28,15Zm-4.37.52a3.48,3.48,0,0,0,.65.08c.06.07.14.19.24.29a.57.57,0,0,0,.56.12.28.28,0,0,0,.19-.45.93.93,0,0,0-.37-.34c-.12,0-.28,0-.49,0a4.07,4.07,0,0,0-.4-.43.39.39,0,0,0-.48,0,.37.37,0,0,0-.21.37A.42.42,0,0,0,57.91,15.56Zm-.41,1.37a.45.45,0,0,0,.21.27,2.53,2.53,0,0,0,.6,0,2.52,2.52,0,0,0-.19-.5.46.46,0,0,0-.31-.15C57.65,16.58,57.46,16.8,57.5,16.93ZM58.33,18h0L57.9,18a1.17,1.17,0,0,0,0-.3.26.26,0,0,0-.12-.16.56.56,0,0,0-.66.2.27.27,0,0,0,.08.38c.18.09.36.15.54.22,0,.24,0,.47.25.57s.18.2.17.36a1,1,0,0,0,.07.24c.25.06.45.05.54-.17s-.19-.34-.31-.53a.53.53,0,0,0-.07-.77h0Zm-1.12,1.18c-.28-.14-.42-.4-.64-.58a.31.31,0,0,0-.46,0,1.13,1.13,0,0,0-.16.27c.24.24.42.44.61.62a.53.53,0,0,0,.55.12C57.31,19.58,57.39,19.27,57.21,19.18Zm1.45-1.74c-.08,0-.22.07-.3.15s-.07.26,0,.4a5,5,0,0,0,.56-.06s.13-.2.1-.23A.75.75,0,0,0,58.66,17.44Zm2.51-5.66,0,0h0Zm-9.46,8.89c-.19-.14-.39-.09-.56.12s-.09.27.09.44.14.12.21.18l-.13.49a1.29,1.29,0,0,0,.25.12c.31.05.45-.07.36-.34s-.14-.29,0-.47S52,20.84,51.71,20.67Zm-.08-1.16a.22.22,0,0,0-.32,0,.85.85,0,0,0-.15.4c0,.13.21.25.4.24a.44.44,0,0,0,.45-.34A4.14,4.14,0,0,0,51.63,19.51Zm-8.05-5.66a.37.37,0,0,0-.31.28c0,.2.12.31.27.38a.57.57,0,0,0,.34,0c.1,0,.17-.13.26-.21A1.78,1.78,0,0,0,44,14,.38.38,0,0,0,43.58,13.85Zm17.1-1.22c-.09.1-.07.3-.16.4s-.29.17-.41.28a.3.3,0,0,0,0,.26.4.4,0,0,0,.45.18c.16,0,.15-.17.17-.3a.82.82,0,0,1,.06-.19c.38.2.74.34,1.13,0l-.2-.64a1.56,1.56,0,0,0,.3-.35.32.32,0,0,0-.27-.48,5.07,5.07,0,0,0-.55,0c0,.17,0,.33,0,.47A2.58,2.58,0,0,0,60.68,12.63Zm-21.87.61a.45.45,0,0,0,.31-.14.35.35,0,0,0,0-.27.51.51,0,0,0-.41-.39c-.22,0-.37.09-.54.29C38.49,13.14,38.56,13.22,38.81,13.24Zm24-.91c-.09,0-.18.06-.27.09a.24.24,0,0,0-.17.28.44.44,0,0,0,.18.29.78.78,0,0,0,.74,0,3,3,0,0,0-.18-.53A.41.41,0,0,0,62.78,12.33Zm-15.49,1.4a1.07,1.07,0,0,0-.38-.2.44.44,0,0,0-.51.21c-.06.14.08.33.32.44a.48.48,0,0,0,.49,0A1,1,0,0,0,47.4,14,.64.64,0,0,0,47.29,13.73Zm16-.73h0v0ZM60,15.21c-.09.1-.15.23-.06.33a1.06,1.06,0,0,0,.34.26.69.69,0,0,1,.32.29.87.87,0,0,0,.32.28.42.42,0,0,0,.29,0c.28-.12.52,0,.78.07s.39,0,.44-.16a.37.37,0,0,0-.19-.44.5.5,0,0,0-.34,0,1.19,1.19,0,0,0-.34.24l-.11-.17a.9.9,0,0,0-.55-.33c-.2-.07-.32-.34-.51-.48S60.13,15.09,60,15.21Zm1.14-3.43,0,0h0Zm-12.48,2a2.65,2.65,0,0,0-.27-.37.88.88,0,0,0-.63.35.26.26,0,0,0,0,.34.66.66,0,0,0,.51.24A.4.4,0,0,0,48.69,13.78Zm4.15,3.9a.33.33,0,0,0,0,.26.22.22,0,0,0,.31.09.3.3,0,0,0,.14-.21,1.65,1.65,0,0,0-.11-.45C53,17.52,52.89,17.58,52.84,17.68Zm.56,2h0v0h0Zm-.88.51c-.18,0-.39.26-.37.48a.38.38,0,0,0,.42.32.34.34,0,0,0,.33-.33A.48.48,0,0,0,52.52,20.22Zm.2-1.3c-.13,0-.32.15-.35.32s.1.27.27.3.38-.1.39-.25A.43.43,0,0,0,52.72,18.92Zm.42.77c-.06,0-.11.08-.14.13s0,.11,0,.11a.3.3,0,0,0,.19,0,1.73,1.73,0,0,0,.17-.21A1.18,1.18,0,0,0,53.14,19.69ZM52.62,16a.47.47,0,0,0,.53-.18,3.39,3.39,0,0,0-.2-.38.31.31,0,0,0-.39-.11.41.41,0,0,0-.25.41A.34.34,0,0,0,52.62,16Zm-3.77-1.5c-.16,0-.4.08-.41.22a.39.39,0,0,0,.11.32,1.15,1.15,0,0,0,.36.19c.32,0,.43-.22.33-.42A.58.58,0,0,0,48.85,14.54Zm1-.45-.13.05a.42.42,0,0,0,0,.53.49.49,0,0,0,.71.07s0-.09,0-.14A.54.54,0,0,0,49.81,14.09Zm3.12,3.09a.82.82,0,0,0,.2-.22.54.54,0,0,0-.36-.48.42.42,0,0,0-.48.25.41.41,0,0,0,0,.34A.48.48,0,0,0,52.93,17.18ZM51,14.87c-.22,0-.43.12-.44.29a.23.23,0,0,0,.06.2.93.93,0,0,0,.25.16c.3,0,.53-.18.51-.37A.4.4,0,0,0,51,14.87Zm-5.4-.43c-.2,0-.4.24-.34.4a.58.58,0,0,0,.69.29.24.24,0,0,0,.19-.28A.53.53,0,0,0,45.59,14.44Zm13.9-1.23a.44.44,0,0,0-.7-.08c-.16.12-.14.37.05.58,0,0,.07.09.11.11a.87.87,0,0,1,.4.48.63.63,0,0,0,.83.29c.08,0,.12-.13.2-.21a1.31,1.31,0,0,0-.25-.39A1.88,1.88,0,0,1,59.49,13.21Zm-17.58-1a.42.42,0,0,0,.45-.38.41.41,0,0,0-.42-.41.51.51,0,0,0-.55.38C41.38,12,41.64,12.22,41.91,12.22Zm-.06,2.19a.45.45,0,0,0,.31-.52c0-.08-.11-.14-.17-.22a3.56,3.56,0,0,0-.58.2.24.24,0,0,0-.08.24A.44.44,0,0,0,41.85,14.41Zm-6.43,3.78a.32.32,0,0,0,.36-.29.41.41,0,0,0-.43-.4c-.24,0-.43.15-.41.32A.47.47,0,0,0,35.42,18.19Zm2.65-1.37a.37.37,0,0,0-.29.44.51.51,0,0,0,.76.11.25.25,0,0,0,.05-.13A.49.49,0,0,0,38.07,16.82Zm7-4.7a.48.48,0,0,0,.57-.22A.65.65,0,0,0,45.6,11c-.68.18-.68.18-1,.68C45,12.08,45,12.08,45.12,12.12Zm-2,1.27a.33.33,0,0,0,.43-.29.88.88,0,0,0,0-.36.26.26,0,0,0-.35-.16.78.78,0,0,0-.49.51l.23.21A.88.88,0,0,0,43.11,13.39ZM35,16.4a.42.42,0,0,0-.39-.16.43.43,0,0,0-.34.36.59.59,0,0,0,.44.32.34.34,0,0,0,.36-.19C35.09,16.6,35,16.5,35,16.4Zm9.74-2.28a.47.47,0,0,0,.29-.19.35.35,0,0,0,0-.28.61.61,0,0,0-.47-.33c-.22,0-.38.07-.51.33A.8.8,0,0,0,44.69,14.12Zm-1.53-2a1.09,1.09,0,0,0,.35.07.33.33,0,0,0,.26-.11.7.7,0,0,0,.06-.84,1.2,1.2,0,0,0-.76.32A.3.3,0,0,0,43.16,12.08Zm-6.08,5a.24.24,0,0,0,.14-.3.82.82,0,0,0-.51-.37c-.22,0-.37.18-.34.3A.58.58,0,0,0,37.08,17.1Zm3.36-1.82a.22.22,0,0,0,0,.2,1.43,1.43,0,0,0,.37.23c.16.06.35-.1.36-.34-.06-.07-.13-.22-.24-.26A.42.42,0,0,0,40.44,15.28Zm-.28-.65c.14,0,.25-.17.27-.46a.71.71,0,0,0-.16-.31c-.12-.1-.28,0-.4.07a.82.82,0,0,0-.19.22.28.28,0,0,0,0,.2A.51.51,0,0,0,40.16,14.63ZM40.38,13a.42.42,0,0,0,.43-.32.41.41,0,0,0-.4-.43.39.39,0,0,0-.43.3A.46.46,0,0,0,40.38,13Zm-1.69.8a.26.26,0,0,0-.09.18.33.33,0,0,0,.26.31.69.69,0,0,0,.35,0s.09-.09.15-.16a1.34,1.34,0,0,0-.21-.3A.34.34,0,0,0,38.69,13.84Zm.43,1.88a2.66,2.66,0,0,0-.32.35c.36.34.41.37.64.34a.27.27,0,0,0,.27-.2.45.45,0,0,0-.18-.45A.32.32,0,0,0,39.12,15.72Zm6.26-3c.24.21.45.48.82.3s.38-.41.24-.8l-.64,0C45.54,12.31,45.42,12.47,45.38,12.74Zm-8.52,6.09a.32.32,0,0,0,.4,0,.28.28,0,0,0,.08-.33c0-.11-.05-.22-.1-.41a4.79,4.79,0,0,0-.46.29A.27.27,0,0,0,36.86,18.83Zm1.14.8a.35.35,0,0,0,0-.41,2.56,2.56,0,0,0-.35-.31l-.27.58a1.44,1.44,0,0,0,.22.15C37.74,19.7,37.88,19.76,38,19.63Zm-1.51-3.75a.63.63,0,0,0,.17-.23c.06-.19,0-.34-.22-.53-.24.08-.47.15-.7.24a.23.23,0,0,0-.1.32A.64.64,0,0,0,36.49,15.88Zm1.32.5a2.29,2.29,0,0,0-.34-.35s-.18,0-.25.07a.21.21,0,0,0,0,.2.68.68,0,0,0,.27.21C37.54,16.52,37.65,16.44,37.81,16.38ZM42,14.76a.23.23,0,0,0,0,.2,1.12,1.12,0,0,0,.44.21c.09,0,.21-.08.35-.15a2.09,2.09,0,0,0-.24-.38A.38.38,0,0,0,42,14.76Zm15.86-2.64a.6.6,0,0,0,.15-.18.63.63,0,0,0-.65-.62c-.19,0-.38.25-.33.41A.64.64,0,0,0,57.85,12.12Zm-1.23,3.7c.1.06.22.1.29.14.22,0,.43-.1.46-.24s-.07-.27-.18-.37-.42-.12-.62.15A.22.22,0,0,0,56.62,15.82Zm.49-1.4a.56.56,0,0,0,.75-.09,4,4,0,0,0-.35-.48A.38.38,0,0,0,57,14,.32.32,0,0,0,57.11,14.42ZM55.72,11a.6.6,0,0,0,.08-.16.25.25,0,0,0,0-.1.85.85,0,0,0-.81-.39.36.36,0,0,0-.22.52A.65.65,0,0,0,55.72,11Zm-.11,2.27a.34.34,0,0,0,.23.4.89.89,0,0,0,.36.07.28.28,0,0,0,.24-.37A.47.47,0,0,0,56,13,.41.41,0,0,0,55.61,13.24Zm.62,1.3a.38.38,0,0,0-.38.28c0,.18.13.34.39.35a1,1,0,0,0,.35-.1A.47.47,0,0,0,56.23,14.54Zm2.85-2.77a.34.34,0,0,0,0,.41.57.57,0,0,0,.49.27.37.37,0,0,0,.38-.3.73.73,0,0,0-.4-.49A.35.35,0,0,0,59.08,11.77Zm.14-.42c.06,0,.1-.1.17-.19a1.66,1.66,0,0,0-.25-.41.39.39,0,0,0-.48,0,.25.25,0,0,0-.11.32A.51.51,0,0,0,59.22,11.35Zm-.57,1.27c.15-.07.13-.3,0-.58,0-.06-.11-.09-.18-.14a.59.59,0,0,0-.33.52C58.24,12.62,58.41,12.73,58.65,12.62Zm-12-.76a.78.78,0,0,0,.24.16.75.75,0,0,1,.52.46.54.54,0,0,0,.62.29.28.28,0,0,0,.18-.49,4.51,4.51,0,0,0-.6-.41c-.12-.26.07-.64-.31-.89a4.87,4.87,0,0,0-.57.2A.4.4,0,0,0,46.66,11.86ZM57.29,13a.39.39,0,0,0,0,.33.63.63,0,0,0,.64.24.65.65,0,0,0,.25-.17.6.6,0,0,0-.37-.61A.46.46,0,0,0,57.29,13ZM51,11.1c.16.08.34.14.48,0a1,1,0,0,0,.37-.89,1.42,1.42,0,0,0-1,.3.47.47,0,0,0-.13.25C50.69,10.93,50.82,11,51,11.1Zm-1.43.2a1.7,1.7,0,0,0,.62.18c.08,0,.17-.13.23-.19a.73.73,0,0,0-.6-.63.37.37,0,0,0-.34.24A.28.28,0,0,0,49.52,11.3Zm-.19,1.84a1.1,1.1,0,0,0,.36.07.45.45,0,0,1,.42.24.46.46,0,0,0,.31.15,3.78,3.78,0,0,1,.95,0c.08,0,.21-.1.27-.19a.29.29,0,0,0,0-.27c-.14-.17-.31-.36-.55-.31a1.4,1.4,0,0,1-.58,0,1.09,1.09,0,0,0-.4.07c-.27-.17-.47-.31-.68-.42a.22.22,0,0,0-.3.14.5.5,0,0,0,0,.34A.42.42,0,0,0,49.33,13.14Zm-1.1-2.2a.37.37,0,0,0,.33,0,2.17,2.17,0,0,0,.33-.55.26.26,0,0,0-.1-.17,1.57,1.57,0,0,0-.32-.09c-.15,0-.27,0-.39,0a.34.34,0,0,0-.2.56A.87.87,0,0,0,48.23,10.94Zm3.43.36c-.29.18-.48.28-.65.41a.31.31,0,0,0-.08.26.5.5,0,0,0,.59.31c.2,0,.3-.19.28-.45A3.55,3.55,0,0,0,51.66,11.3Zm-15,9.75a.45.45,0,0,0-.29.16.61.61,0,0,0-.1.7,3.13,3.13,0,0,0,.55-.25.41.41,0,0,0,.12-.31A.3.3,0,0,0,36.61,21.05Zm16.64-9.34a.3.3,0,0,0,.28-.35.72.72,0,0,0-.66-.45,1,1,0,0,0-.23.2.32.32,0,0,0,0,.27A.64.64,0,0,0,53.25,11.71Zm.38,2.67a1.18,1.18,0,0,0,.42,0c.07,0,.14-.11.24-.2a2.19,2.19,0,0,0-.3-.4.35.35,0,0,0-.32-.07.52.52,0,0,0-.27.31C53.34,14.23,53.49,14.33,53.63,14.38Zm-1-1.24a.54.54,0,0,0,.56,0,.34.34,0,0,0,.2-.36,5,5,0,0,0-.1-.55c-.27.09-.44.13-.6.2a.53.53,0,0,0-.25.24A.4.4,0,0,0,52.65,13.14Zm1.62-.91a2.83,2.83,0,0,0,.5,0c.29.45.31.47.5.53a.38.38,0,0,0,.49-.2.42.42,0,0,0-.28-.53c-.19,0-.39,0-.6-.06l-.26-.41a4,4,0,0,0-.53-.08c-.09,0-.22.08-.23.15a.41.41,0,0,0,0,.33A.78.78,0,0,0,54.27,12.23ZM28.64,20a.94.94,0,0,0-.18.25c0,.13.09.24.28.26s.29-.06.29-.16A.45.45,0,0,0,28.64,20ZM63.83,38.35v0Zm-4,6.42c-.1.08-.21.17-.15.3a1.46,1.46,0,0,0,.24.27,3.59,3.59,0,0,0,1.18-1.41,2.75,2.75,0,0,0-.52.24C60.33,44.35,60.09,44.57,59.84,44.77Zm4.75-7.49c-.62.3-.7.41-.74,1.06.12-.1.24-.21.37-.3A.7.7,0,0,0,64.59,37.28Zm.56-.55c.06,0,.17,0,.19,0a1.31,1.31,0,0,0,.38-1c-.2.17-.41.34-.6.52a.35.35,0,0,0-.1.4A.24.24,0,0,0,65.15,36.73Zm-2.79,1.69A3.14,3.14,0,0,0,63,38c.26-.29.49-.62.73-.93a1.1,1.1,0,0,0,.08-.24c-.11,0-.2-.07-.28,0a1,1,0,0,0-.63.48,1.61,1.61,0,0,1-.53.6.66.66,0,0,0-.2.29.24.24,0,0,0,.05.2A.22.22,0,0,0,62.36,38.42Zm1.34-.07a3,3,0,0,0-1.12.67.37.37,0,0,0-.09.2.24.24,0,0,0,.07.19.21.21,0,0,0,.2,0,1.22,1.22,0,0,0,.27-.24l.8-.84A.34.34,0,0,0,63.7,38.35Zm.14,0h0Zm.82-3a6.11,6.11,0,0,0-.53.34.79.79,0,0,0-.36.54.23.23,0,0,0,.07.19.19.19,0,0,0,.2,0,1.5,1.5,0,0,0,.81-.81.52.52,0,0,1,.25-.34,1.68,1.68,0,0,0,.72-1,1.61,1.61,0,0,1,.36-.62,2.46,2.46,0,0,0,.28-.59c0-.1-.13-.26-.24-.21s-.42.21-.62.33c0,.23,0,.47,0,.73A1.48,1.48,0,0,0,64.66,35.41ZM50.1,47.47a.5.5,0,0,1-.18.23c-.45.38-.49,1-.93,1.4a.16.16,0,0,0-.05.14c0,.33-.17.49-.4.66a.65.65,0,0,0-.3.64c0,.1-.09.21-.15.31s-.15.14-.2.21a.33.33,0,0,0,.1.46.25.25,0,0,0,.36-.14.75.75,0,0,0,.13-.34,1,1,0,0,1,.23-.54c.14-.22.25-.48.38-.72a1,1,0,0,1,.2-.3,4.4,4.4,0,0,0,1-1.36,3,3,0,0,1,.75-.8c.31-.26.32-.72.69-1a3.94,3.94,0,0,0,.61-.55.66.66,0,0,0,.21-.29.68.68,0,0,1,.51-.5,1.24,1.24,0,0,0,.7-.63c.07-.13.15-.25.21-.35a3.56,3.56,0,0,0,.55-.11.71.71,0,0,0,.4-.29A1.34,1.34,0,0,1,55.7,43c.44-.18.53-.29.77-.77-.1,0-.2-.09-.27-.07a6.59,6.59,0,0,0-1,.4,3.39,3.39,0,0,1-.66.33,1.22,1.22,0,0,0-.83.69.6.6,0,0,1-.28.32,1.86,1.86,0,0,0-1.1.82,1,1,0,0,1-.29.23l-1.05.8c0,.16,0,.37-.13.47A3,3,0,0,0,50.1,47.47ZM68.83,27.84c.12-.4.23-.81.33-1.22,0-.07,0-.16-.07-.26-.54.34-.53.34-.56.8,0,.27-.08.53-.13.86C68.7,28,68.78,28,68.83,27.84ZM47.86,52a.47.47,0,0,0-.35.62.31.31,0,0,0,.22.16.19.19,0,0,0,.18-.09c.08-.17.13-.36.22-.59C48,52.05,47.92,52,47.86,52ZM51,45.77v0h0v0Zm9.4-5.89s-.08.15,0,.19a.37.37,0,0,0,.21.18.35.35,0,0,0,.39-.13c.36-.37.72-.74,1.07-1.12a.27.27,0,0,0,0-.4.5.5,0,0,0-.53.16A7.55,7.55,0,0,1,60.44,39.88Zm-5.11,5.73c-.25.57-.78,1-1,1.52l-.21,0c-.62,0-.7-.15-.47-.84a1,1,0,0,0-.27.16,2.09,2.09,0,0,1-.74.61c-.12.05-.2.2-.29.32-.35.47-.7,1-1.06,1.43a1,1,0,0,1-.34.27.42.42,0,0,1-.49-.05.41.41,0,0,1,0-.54,13,13,0,0,1,1.12-1.45,9.25,9.25,0,0,0,1.36-1.44c.6-.29.91-.92,1.5-1.2A1.59,1.59,0,0,0,55,44a1.86,1.86,0,0,1,.43-.41c.51-.34,1-.66,1.54-1a7,7,0,0,1,1.53-.91c.23-.09.39-.36.59-.54s.48-.43.73-.62a.57.57,0,0,1,.29-.08s.08,0,.13,0a.22.22,0,0,1-.07.32,3.13,3.13,0,0,1-.84.59,1.23,1.23,0,0,0-.86,1l.57-.16s0,.11,0,.14a6.51,6.51,0,0,0-.43.6.34.34,0,0,1-.35.2.29.29,0,0,1-.29-.35s-.05-.08-.09-.14c-.35,0-.53.29-.69.6l.36.15c-.13.72-.19.78-.95.89a6.6,6.6,0,0,0-.41.58,1,1,0,0,1-.62.59A.34.34,0,0,0,55.33,45.61Zm-.86-.27c-.11.09-.21.17-.3.26l.06.1a.77.77,0,0,0,.18-.1C54.47,45.54,54.6,45.5,54.47,45.34Zm1.76-1.06a.8.8,0,0,0,.25-.11c.09-.22.17-.42.25-.64-.16-.17-.3,0-.4.1a1.88,1.88,0,0,1-1.34.78c0,.28-.21.49-.14.78.29-.09.3-.09.42-.26A1.45,1.45,0,0,1,56.23,44.28Zm-1.91,2.86h0v0Zm2.51.57a1.18,1.18,0,0,0,0,.37c.47-.34.47-.34.75-1.06A1,1,0,0,0,56.83,47.71Zm3.8-6.88a1.32,1.32,0,0,1-.66.55.79.79,0,0,0-.3.2c-.05.05,0,.18,0,.26a.16.16,0,0,0,.25,0,4.23,4.23,0,0,1,.7-.52,2.78,2.78,0,0,0,1.07-1.08C61.19,40.34,60.83,40.44,60.63,40.83ZM58.3,45.89a.3.3,0,0,0,0,.44.32.32,0,0,0,.4-.06,1.05,1.05,0,0,0,.19-.8C58.69,45.61,58.49,45.74,58.3,45.89Zm-5,2.74a10.44,10.44,0,0,0,1-1.49,2,2,0,0,1,.49-.11.35.35,0,0,1,.3.53s0,.1-.07.13a4.63,4.63,0,0,0-.9,1.16.68.68,0,0,1-.27.24c-.33.09-.45.35-.6.61a4.16,4.16,0,0,1-.41.62c-.25.29-.33.29-.79,0-.12.1-.31.19-.35.32a1,1,0,0,1-.74.62c0,.18,0,.32,0,.47-.32.2-.33.21-.55-.07a.24.24,0,0,0-.23-.11c-.08,0-.22,0-.24-.09a.43.43,0,0,1,0-.35c.09-.21.29-.31.56-.42,0,.18,0,.32,0,.47.2.05.28-.08.35-.21a.66.66,0,0,0,0-.58s-.07-.07-.09-.11c-.2-.34-.19-.44.09-.7a5.32,5.32,0,0,1,.47-.36l.94-.66a1.49,1.49,0,0,1,.57-1.22.52.52,0,0,1,.6,0,2.54,2.54,0,0,1-.47,1,1,1,0,0,1-.36.24c-.41.22-.49.42-.41,1,.25.08.33-.16.49-.26A1,1,0,0,0,53.28,48.63Zm-1.8,1.17h-.06a.31.31,0,0,0-.07.09l.06,0A.61.61,0,0,0,51.48,49.8Zm3.26-1.35a1.47,1.47,0,0,0-.28.42c0,.07,0,.18.06.27-.43.47-.82.88-1.18,1.31a3.74,3.74,0,0,0-.45.67.31.31,0,0,0,.25.44.37.37,0,0,0,.39-.14,7,7,0,0,0,.86-1.37,3.46,3.46,0,0,1,.6-1,1.25,1.25,0,0,0,.32-.78A.54.54,0,0,0,54.74,48.45Zm4.43-8.15a.25.25,0,0,0,.14,0c.46-.31.93-.62,1.39-.95A1.56,1.56,0,0,0,61,39a.37.37,0,0,0,0-.16s-.14-.09-.17-.07a2.09,2.09,0,0,0-.55.36,2.2,2.2,0,0,1-.69.52,3,3,0,0,0-.56.46s0,.11,0,.13A.28.28,0,0,0,59.17,40.3Zm-.89.91a.31.31,0,0,0,0-.21.23.23,0,0,0-.16-.13c-.49,0-.81.22-1,.86a1.8,1.8,0,0,0,1.08-.41A.31.31,0,0,0,58.28,41.21Zm-3.85,9.67a.32.32,0,0,0,.18.43A.29.29,0,0,0,55,51.1c.11-.3.19-.6.33-1A1.54,1.54,0,0,0,54.43,50.88Zm-2.4,0a.38.38,0,0,0-.27.45c0,.09.14.16.19.21a.39.39,0,0,0,.39-.41A.31.31,0,0,0,52,50.89ZM69.38,27a5.37,5.37,0,0,1-.54,1.61,7.13,7.13,0,0,0-.32,1c0,.13,0,.24.22.3a5.4,5.4,0,0,0,.3-.47c.11-.24.2-.5.3-.75,0,0,.08,0,.12,0s.1.25.14.37l.13,0a.24.24,0,0,0,.11-.09c.2-.47.4-.95.59-1.43,0,0,0-.09,0-.15-.22,0-.27.15-.37.28s-.12.37-.42.41A1.51,1.51,0,0,1,70,27c.56.08.69-.07.63-.76l-.53.17-.25-.61a1.19,1.19,0,0,1-.16.47A1.46,1.46,0,0,0,69.38,27ZM42,20.34a.64.64,0,0,0-.17-.63c-.32.3-.49.62-.24,1a.61.61,0,0,1,0,.57.88.88,0,0,0-.1.35.4.4,0,0,0,.26.45.46.46,0,0,0,.26-.53A4,4,0,0,1,42,20.34Zm.27,7.51c0,.11.1.23.26.19a1.19,1.19,0,0,0-.2-1.61A1.47,1.47,0,0,0,42.27,27.85Zm.55-7.75a.47.47,0,0,0,0-.6C42.57,19.77,42.56,19.83,42.82,20.1Zm-1.06,2.59c-.2.3-.32.46-.41.63a.37.37,0,0,0,.06.41.26.26,0,0,0,.31.13c.16,0,.29-.16.26-.3S41.86,23.09,41.76,22.69Zm.87-.66c-.31.27-.35.3-.23.55a1.16,1.16,0,0,1-.06,1.19,1.42,1.42,0,0,0-.11.35.63.63,0,0,0,.2.67c.4-.14.51-.22.52-.52a3.76,3.76,0,0,0-.09-.65A4,4,0,0,1,42.63,22Zm-1.48-2.71c-.34.33-.35.35-.34.77,0,.1,0,.2.21.17A3.5,3.5,0,0,0,41.15,19.32Zm1.21-1.4a.39.39,0,0,0-.09-.42c-.08-.08-.25,0-.37.15a.6.6,0,0,0,0,.78A.79.79,0,0,0,42.36,17.92Zm-2.07,7.2a.75.75,0,0,0,.16.81c.46-.67.48-.85.19-1.81C40.5,24.51,40.39,24.81,40.29,25.12Zm1.36-.24a2.39,2.39,0,0,0-.58.81.44.44,0,0,0,.26.6.43.43,0,0,0,.55-.25A1.07,1.07,0,0,0,41.65,24.88Zm-.09-6.94a.13.13,0,0,0-.07-.11.13.13,0,0,0-.13,0,.62.62,0,0,0-.11.68C41.39,18.27,41.48,18.11,41.56,17.94ZM69.8,25.79h0v0ZM43.28,17.16a.32.32,0,0,0-.5.11,1.2,1.2,0,0,0-.11.72c0,.16.08.27.3.3a1.7,1.7,0,0,0,.18-.19l.44-.62A3.2,3.2,0,0,0,43.28,17.16Zm-1.43,26.1A1.2,1.2,0,0,0,42.71,42c0-.26-.18-.39-.39-.48a.42.42,0,0,0-.53.12,1.52,1.52,0,0,0-.37.86A.6.6,0,0,0,41.85,43.26ZM43.5,21a1,1,0,0,0-.08.92.31.31,0,0,0,.22.15.29.29,0,0,0,.22-.16,1.69,1.69,0,0,0,0-1.25C43.7,20.76,43.58,20.85,43.5,21Zm26.3,4.83,0,0,0,0ZM45.42,44.7a.37.37,0,0,0-.32.1,2,2,0,0,0-.55,1c-.06.29.08.46.37.58A2.21,2.21,0,0,0,45.59,45,.35.35,0,0,0,45.42,44.7ZM39.1,50.62a.44.44,0,0,0-.22-.16.24.24,0,0,0-.18.1,1.44,1.44,0,0,0-.09.31,3.66,3.66,0,0,0,.45,2,.27.27,0,0,0,.37.12.35.35,0,0,0,.09-.39,4.8,4.8,0,0,1-.38-1.8A.36.36,0,0,0,39.1,50.62Zm3.32-6.78a.48.48,0,0,0-.48-.47.39.39,0,0,0-.44.31,9,9,0,0,0-.15,1,5.65,5.65,0,0,1,0,.59,8.78,8.78,0,0,1-.29,1,1.83,1.83,0,0,0-.06.87,4.7,4.7,0,0,1,.11,1.54.73.73,0,0,0,.14.64,1.65,1.65,0,0,1,.31,1c0,.27,0,.54,0,.81a7.77,7.77,0,0,0,.1,1,.48.48,0,0,0,.41.43c.06-.06.11-.09.11-.13a1.11,1.11,0,0,0,0-.36c0-.37-.06-.74-.06-1.11a1,1,0,0,0-.3-.88.47.47,0,0,1-.11-.55c0-.11.11-.22.14-.34a1.59,1.59,0,0,0,0-1.3c-.11-.24-.19-.5-.3-.79A1.55,1.55,0,0,0,42,45.73c0-.17,0-.34,0-.52a.6.6,0,0,1,.17-.47A1,1,0,0,0,42.42,43.84ZM38.76,50a2.05,2.05,0,0,0,.06-.39,5.12,5.12,0,0,0,0-.56c0-.06-.08-.13-.15-.15a.27.27,0,0,0-.19.06,1,1,0,0,0-.13,1.11.21.21,0,0,0,.19.08C38.62,50.12,38.74,50.06,38.76,50ZM44.6,17.35a.3.3,0,0,0-.19-.36,2.65,2.65,0,0,0-.42-.06,2.08,2.08,0,0,0-.05,2.14,8.92,8.92,0,0,0,.6-1.51A1.66,1.66,0,0,0,44.6,17.35Zm-.33,6.36a.62.62,0,0,0,.16.55.23.23,0,0,0,.35.08,4.29,4.29,0,0,0,0-1.38A1.37,1.37,0,0,0,44.27,23.71Zm-1,18.48a.44.44,0,0,0,.53-.14,1,1,0,0,0,.23-.68,2.89,2.89,0,0,0-.08-.59,1.74,1.74,0,0,1,0-1.15,1.61,1.61,0,0,0,.05-.58.24.24,0,0,0-.35-.16.86.86,0,0,0-.26.24,1,1,0,0,0,.12,1.36l-.29.83a4,4,0,0,0-.15.49A.35.35,0,0,0,43.29,42.19Zm-4.74,6A2.5,2.5,0,0,0,38.69,47a.8.8,0,0,1,.06-.64A1.58,1.58,0,0,0,38.87,45c.22-.45.58-.82.41-1.35a.57.57,0,0,0-.23,0,.86.86,0,0,0-.46.87,1.45,1.45,0,0,1-.15.92,1.21,1.21,0,0,0,0,1.28c-.13.41-.26.76-.35,1.12a.39.39,0,0,0,.35.5S38.53,48.28,38.55,48.22Zm35.31-21h0v0Zm-4.63-4.5c.08,0,.14-.1.27-.19-.15-.1-.24-.19-.33-.2s-.16.11-.18.19S69.12,22.78,69.23,22.75Zm-.64-.11a.27.27,0,0,0-.34.17c0,.1,0,.21.19.24s.32,0,.35-.21S68.68,22.68,68.59,22.64Zm-.19-.59c-.13-.07-.24-.18-.35-.19a.26.26,0,0,0-.29.26.27.27,0,0,0,.11.17.3.3,0,0,0,.39,0S68.33,22.16,68.4,22.05Zm.93,1.36a.29.29,0,0,0-.33.21.3.3,0,0,0,.22.32.32.32,0,0,0,.38-.24C69.62,23.58,69.49,23.44,69.33,23.41ZM69.77,22c-.12,0-.23.11-.21.24a.27.27,0,0,0,.31.24c.09,0,.17-.13.31-.25A2.29,2.29,0,0,0,69.77,22Zm.11,1c0,.17.05.33.06.5a.33.33,0,0,0,.24.33c.2.06.34,0,.43-.25-.06-.15-.12-.33-.2-.51S70.19,22.75,69.88,22.92Zm1.45-.69A.34.34,0,0,0,71,22a.67.67,0,0,0-.18.22c0,.14.1.27.26.29A.26.26,0,0,0,71.33,22.23ZM65.74,25a.3.3,0,0,0-.31.24c0,.14.13.26.37.25a.93.93,0,0,0,.25-.24C66.1,25.18,65.9,25,65.74,25Zm2-2.18c-.19,0-.39.15-.32.28a.72.72,0,0,0,.21.19c.2,0,.33-.15.29-.3A.28.28,0,0,0,67.73,22.85Zm-1.7,0c-.06,0-.15.12-.14.15.1.27-.06.39-.25.53s-.06.26,0,.32.23.08.39.14c.09-.11.23-.21.24-.31s0-.28.11-.39.09-.21,0-.32A.33.33,0,0,0,66,22.81Zm1.3.66a.72.72,0,0,0-.61-.11c.09.39.25.56.53.54a.24.24,0,0,0,.08-.43Zm-.19-1c0-.14-.18-.29-.42-.31a1.28,1.28,0,0,0-.24.27c0,.11.12.28.27.29S67.15,22.64,67.14,22.49Zm-1.48,1.72a.24.24,0,0,0-.08.19.36.36,0,0,0,.46.23c.08,0,.14-.11.2-.16s0-.14-.06-.17A.36.36,0,0,0,65.66,24.21Zm8,.88c0,.1-.07.29,0,.33.25.19.53.34.83.53.06-.05.19-.09.21-.16s0-.28,0-.33A5.08,5.08,0,0,0,74,25C73.9,25,73.73,25,73.71,25.09Zm.68-1.22a2.1,2.1,0,0,0-.33-.06,1.54,1.54,0,0,0-.14.22c-.06.13-.11.26-.2.49a1.77,1.77,0,0,0,.37.14.4.4,0,0,0,.23-.14,4,4,0,0,0,.32-.4s0-.09,0-.16A1.45,1.45,0,0,0,74.39,23.87Zm4,1.65a1.63,1.63,0,0,1-.08.43c-.1.38-.25.76-.31,1.14a3.28,3.28,0,0,1-.4,1.11,3.84,3.84,0,0,0-.21.4,4.62,4.62,0,0,1-1.54,2,12.43,12.43,0,0,1-1.7,1.2,7.28,7.28,0,0,1-1.67.63,1.53,1.53,0,0,0-1.14.92c-.36.82-.82,1.58-1.24,2.38-.58,1.12-1.39,2.11-2,3.19A14.83,14.83,0,0,1,66,41.65c-.71.72-1.48,1.39-2.24,2.07s-1.57,1.37-2.36,2.05a6.28,6.28,0,0,1-.77.59,7.19,7.19,0,0,0-1.34,1.06c-.67.69-1.37,1.36-2,2.08a4.55,4.55,0,0,0-1,1.39c-.1.25-.18.51-.28.76h0l0,.07c-.06.18-.14.71-.21,1.08l2,0c1.54,0,3.08-.06,4.61-.18a6.27,6.27,0,0,1,.74,0c.23,0,.37.13.4.4a4.19,4.19,0,0,1-1.31.42c-.09,0-.21,0-.29,0a4.33,4.33,0,0,1-1.95.27c-.67,0-1.34.06-2,0-1.79,0-3.57-.13-5.36,0-.82.06-1.64,0-2.46,0-1.66,0-3.32,0-5,.1-1.29,0-2.58.12-3.86.18a41.51,41.51,0,0,1-4.32,0c-1-.06-1.94,0-2.9,0-1.12,0-2.23-.15-3.34-.19a11.89,11.89,0,0,0-2.46,0,2.64,2.64,0,0,1-.88-.07,5.37,5.37,0,0,0-1.55-.09c-.57.05-1.14,0-1.71,0a4.35,4.35,0,0,0-.88.07,6.22,6.22,0,0,1-1.55.1l-.38,0,.26.08c-1.79-.12-3.57,0-5.36,0-.67,0-1.34,0-2,0a4.34,4.34,0,0,1-1.95-.27c-.07,0-.2,0-.29,0a4.47,4.47,0,0,1-1.31-.42c0-.27.17-.41.4-.41s.49,0,.74.05c1.53.13,3.07.21,4.61.19l2,0c-.2-.32-.49-.59-.7-.9s-.39-.51-.56-.78A6.79,6.79,0,0,1,16.51,50c-.59-1.56-1.08-3.15-1.55-4.74-.31-1-.54-2.12-.84-3.17-.34-1.22-.71-2.43-1.07-3.64-.19-.62-.36-1.24-.57-1.85-.38-1.15-.83-2.28-1.17-3.46a15.9,15.9,0,0,0-.7-1.72.39.39,0,0,0-.4-.27,6.26,6.26,0,0,0-.75,0,11.57,11.57,0,0,1-2.88-.1C6,31,5.44,31,4.87,30.93c-1.23-.14-2.46-.28-3.69-.46A1.36,1.36,0,0,1,.05,28.72a3.19,3.19,0,0,1,.56-1.21,16,16,0,0,1,2.5-2.64,31.34,31.34,0,0,0,3.16-2.94c.4-.44.86-.82,1.3-1.22L9.42,19.1a8.55,8.55,0,0,1,3-1.53,4.09,4.09,0,0,1,2.14,0,12.16,12.16,0,0,1,3.79,1.5c.7.42,1.44.78,2.16,1.17a33.71,33.71,0,0,0,3.21,1.38l2.88,1.19a2.55,2.55,0,0,1,.46.25.57.57,0,0,1,.08.94,1.07,1.07,0,0,0-.25.35,2.33,2.33,0,0,1-1.3,1.33c-1,.43-1.94.9-2.91,1.35a1.14,1.14,0,0,1-.35.13,7.65,7.65,0,0,0-2.32,1c-.56.25-1.1.56-1.65.85l-.38.23a4.83,4.83,0,0,0,.26,1.47c.14.63.3,1.25.49,1.86.3,1,.6,2,1,3,.5,1.3,1,2.58,1.59,3.85a26.06,26.06,0,0,0,2.74,4.68c.73,1,1.54,2,2.35,2.89a.45.45,0,0,0,.16.12c.18,0,.2-.16.22-.27.19-1,.41-1.95.56-2.93A16.32,16.32,0,0,0,27.44,42,1.31,1.31,0,0,0,27,41a.48.48,0,0,0-.2,0,.91.91,0,0,1-1.06-.5A4.34,4.34,0,0,0,24.11,39c-.34-.2-.7-.37-1.05-.54a1.5,1.5,0,0,1-.84-1A5.9,5.9,0,0,1,22,36.14a3.72,3.72,0,0,1,.23-1.23,8.06,8.06,0,0,1,1.15-2.24c.77-1,1.47-2.13,2.22-3.18.37-.52.77-1,1.19-1.52a5.63,5.63,0,0,1,1-.9c.61-.43,1.24-.83,1.87-1.21a1.57,1.57,0,0,1,.57-.17c.46-.08.93-.13,1.4-.18a.71.71,0,0,1,.29,0,7,7,0,0,1,2.39,1.14,7.12,7.12,0,0,1,1.44,1.51c.43.6.87,1.21,1.29,1.82a12.89,12.89,0,0,1,1.28,2.26A11,11,0,0,1,38.9,34a2.51,2.51,0,0,0,.19.46,1.25,1.25,0,0,0,.18-.78c0-1.11,0-2.23,0-3.35,0-1.29,0-2.58.07-3.87a5.65,5.65,0,0,0-.06-1.09L38,25.13h-.15a26.26,26.26,0,0,1-5-.53c-1.07-.19-2.13-.43-3.2-.66-.07,0-.17,0-.2-.07-.31-.44-.83-.54-1.26-.76A5.4,5.4,0,0,1,27,22.31a1.49,1.49,0,0,0-.49-.34,1.49,1.49,0,0,1-.79-.73,5.76,5.76,0,0,1-.64-1.59,4.35,4.35,0,0,1,0-1.76,8.46,8.46,0,0,1,.89-2.51,23.47,23.47,0,0,1,1.54-2.72c.68-1,1.26-2.08,2-3s1.57-1.73,2.36-2.58c.27-.29.53-.59.79-.88A.88.88,0,0,1,32.86,6a7,7,0,0,0,1.5-1.21A13.59,13.59,0,0,1,36.1,3.47a27.68,27.68,0,0,1,3.33-2c.39-.21.82-.36,1.23-.53S41.4.69,41.75.51a2.34,2.34,0,0,1,.86-.23c.36,0,.73-.12,1.1-.16C44.3.07,44.89,0,45.48,0c.74,0,1.48,0,2.23.07a6.25,6.25,0,0,1,1,.1A16,16,0,0,1,52.5,1.33a14.1,14.1,0,0,1,2.07.81,7.49,7.49,0,0,1,1.06.53c1.37.7,2.78,1.33,4.1,2.12A39.74,39.74,0,0,1,63.4,7.31a16.15,16.15,0,0,1,2,1.83A3.8,3.8,0,0,1,66.44,11a1.33,1.33,0,0,0,.1.28,3.61,3.61,0,0,1,.23,1.46,14.69,14.69,0,0,1-.15,2,2.93,2.93,0,0,1-.44,1.1,15.93,15.93,0,0,1-2,2.53,8.94,8.94,0,0,1-2.56,2,2.4,2.4,0,0,0-.38.23,24,24,0,0,1-3,1.5,6.27,6.27,0,0,1-.77.24c-.78.25-1.58.46-2.33.78a10.23,10.23,0,0,1-1.62.53l-2.77.64a2.47,2.47,0,0,0-.11.43c0,1.69-.08,3.38-.07,5.07,0,1.29.09,2.58.14,3.87,0,.29.08.58.12.94a1.57,1.57,0,0,0,.36-.16,7.65,7.65,0,0,0,.62-.55c0-.19-.06-.35-.09-.52s-.1-.27-.06-.36a2.17,2.17,0,0,0,.08-1.1,4.33,4.33,0,0,1,1.5-3.42A9.56,9.56,0,0,1,57,26.55a10.53,10.53,0,0,1,1.66-.39,4.63,4.63,0,0,1,2.62.32,1,1,0,0,0,.67.21,2.7,2.7,0,0,0-.06-.41,4.39,4.39,0,0,1,.6-3.35,11.63,11.63,0,0,1,1.66-2.29l0-.05a13.52,13.52,0,0,1,2.4-1.86L68,18a9,9,0,0,1,3.09-.79,2.59,2.59,0,0,1,.87.1c.43.12.85.29,1.26.45.16.07.32.16.47.24l.77.44a2.34,2.34,0,0,1,1.19,1.07,1.13,1.13,0,0,0,.28.34,7.21,7.21,0,0,0,.83.74,2,2,0,0,1,.75,1.08,2.21,2.21,0,0,0,.51.89,1.1,1.1,0,0,1,.3.81C78.33,24.08,78.38,24.8,78.4,25.52ZM25.93,20l-.07-.1s-.07.07-.07.1.05.07.07.11Zm44.59-1.9A5.16,5.16,0,0,1,71,19.85a.26.26,0,0,0,.12.17.81.81,0,0,0,.27.05L71,19.45c.48.06.82.08,1.16.14a.78.78,0,0,1,.38.2,2,2,0,0,0,1.29.64,1.7,1.7,0,0,1,.31.06c.13.12,0,.37.28.33l.21-.62a.88.88,0,0,0-.35-1.15,5.43,5.43,0,0,0-.91-.51,3.6,3.6,0,0,0-1.88-.3A1.46,1.46,0,0,1,70.52,18.11Zm-1.21,2.08c.15,0,.3,0,.36-.12-.08-.35-.15-.67-.23-1-.28.27-.25.59-.37.85S69.15,20.17,69.31,20.19Zm-2-1.11c.14.08.23.16.33.16s.12-.13.14-.22a.13.13,0,0,0-.18-.15A1.67,1.67,0,0,0,67.33,19.08Zm.32,1c-.24.36-.24.36-.19.66.13-.07.3-.11.35-.2S67.74,20.35,67.65,20.12ZM65.85,20s.08.15.09.15a1.66,1.66,0,0,0,.25-.16c-.1-.07-.16-.13-.2-.12A.19.19,0,0,0,65.85,20Zm-1.25,1.2c0,.16.06.32.09.49a2.08,2.08,0,0,0,0,.43,1.81,1.81,0,0,0,.15.35l.34-.31c-.26-.39-.27-.38-.52-.47,0-.17.1-.32.13-.49s-.08-.08-.13-.1S64.6,21.2,64.6,21.23Zm-1.44,2.06a3.43,3.43,0,0,1,.28.27,2.93,2.93,0,0,1,.24.34c.21-.16.29-.31.2-.52l-.37-.8A.94.94,0,0,0,63.16,23.29Zm-.52,3.43.13,0-.05-.14s-.1,0-.11.06S62.63,26.67,62.64,26.72Zm-.15-1.53,0,0s.06,0,.05,0,0-.09,0-.13Zm-.27,5.92c0,.06.08.13.16.24a3.62,3.62,0,0,0,.19-1.67c0-.05-.08-.1-.12-.14l-.07,0C62.32,30.09,62.26,30.6,62.22,31.11ZM62,32.4c.31-.13.25-.27.19-.47Zm-.37,2.93a.76.76,0,0,1-.19.21A7.07,7.07,0,0,1,59,36.86a3.43,3.43,0,0,0-.95.4,1.67,1.67,0,0,1-1.42.27.71.71,0,0,0-.73.22l-.49.46a.66.66,0,0,0-.2.31,1.84,1.84,0,0,1-.57,1.17c-.34.33-.29.85-.62,1.17-.07.07-.13.15-.19.22a3.42,3.42,0,0,0-.65,1.16,1.73,1.73,0,0,0,0,.41l.45-.3c1.11-.79,2.21-1.59,3.33-2.37a23.26,23.26,0,0,0,3.23-2.62c.71-.72,1.43-1.45,2.11-2.19a11.45,11.45,0,0,0,2.39-3.82c0-.14.07-.28.12-.45-.56-.24-.74-.88-1.33-1.1a2.52,2.52,0,0,0-.14,1,7.24,7.24,0,0,1-.58,2.6C62.37,34,62,34.68,61.64,35.33Zm3-1.43.09-.32a.14.14,0,0,0,0-.09v0a1.26,1.26,0,0,0,.64-1,1.66,1.66,0,0,0-.64,1h0l0,.12C64.66,33.65,64.54,33.72,64.64,33.9ZM53.39,40.06a1,1,0,0,0,.46-.71A.66.66,0,0,1,54.1,39a2.14,2.14,0,0,0,.68-1.33,4.64,4.64,0,0,0-.57.44,8.47,8.47,0,0,0-.58.76,1.25,1.25,0,0,0-.23.38,3.1,3.1,0,0,1-.72,1.19c-.1.1-.2.23-.17.28C52.79,40.5,53.1,40.3,53.39,40.06Zm5-4.5s.09.07.1.06a2.73,2.73,0,0,0,.25-.23l-.11-.12-.24.22A.08.08,0,0,0,58.36,35.56Zm.66-.62s0,.08.06.14.15,0,.18-.08a2.35,2.35,0,0,1,.65-.61.83.83,0,0,0,.44-.72,5.57,5.57,0,0,1,.1-.61A12.66,12.66,0,0,0,59,34.94Zm1.47-2.11a.19.19,0,0,0,.11,0,3,3,0,0,0,.06-.32l-.1,0c-.05.1-.1.19-.14.29S60.46,32.82,60.49,32.83ZM61,30.69a4.62,4.62,0,0,0-.39.88c0,.15-.12.34.11.48a1.57,1.57,0,0,0,.17-.21c.15-.34.31-.68.44-1,.19-.51.37-1,.54-1.54a1.68,1.68,0,0,0,0-.45c-.11.07-.2.09-.23.14a3.56,3.56,0,0,0-.25.61A3.67,3.67,0,0,1,61,30.69Zm-.27-1.77c-.11.08-.2.11-.22.17a7.57,7.57,0,0,1-.77,1.43,22.15,22.15,0,0,1-1.5,2.64,1.14,1.14,0,0,0,0,.22,4.27,4.27,0,0,0,.39-.33c.24-.29.45-.59.7-.87a7.56,7.56,0,0,0,1.38-2.69A2.54,2.54,0,0,0,60.74,28.92Zm-.36-.6a.27.27,0,0,0,.12,0,.15.15,0,0,0,.07-.1s0,0-.08-.09Zm-.4.2a8.2,8.2,0,0,0-2.41,2.77c-.12.17-.29.35-.13.66a.76.76,0,0,0,.21-.13c.73-.84,1.45-1.68,2.17-2.54a1.85,1.85,0,0,0,.25-.53S60,28.63,60,28.52ZM57.6,27c.15.14.26,0,.37-.05h0v0c.14,0,.33,0,.39-.26-.2,0-.37,0-.39.26h0A.26.26,0,0,0,57.6,27Zm-4.55,5.9s0,.07.08.12c.33-.15.19-.61.57-.79a1,1,0,0,0,1.06.18,3.49,3.49,0,0,1,.44,0,.31.31,0,0,1,.36.36c0,.17-.06.34-.07.51a1.6,1.6,0,0,0,.21.93c.15.29.44.36.68.49-.07.26-.42.39-.16.7a2.76,2.76,0,0,0,1.7-.5l-.23-.51c-.06-.16.18-.33,0-.49l-.48.09a4.46,4.46,0,0,0,0-1.82,2.23,2.23,0,0,1-1.15,0c0-.09,0-.19,0-.23a21.87,21.87,0,0,1,1.45-1.88c.63-.69,1.35-1.3,2-2,.09-.08.24-.16.17-.37A11.25,11.25,0,0,0,57.43,29c-.12-.17-.22-.33-.34-.49l1.61-1.33a.78.78,0,0,0-.64.15c-.37.24-.74.49-1.1.75a6.13,6.13,0,0,1-1,.57,5,5,0,0,0-2,1.63,1.42,1.42,0,0,0-.34.8,2.85,2.85,0,0,1-.56,1.57A.64.64,0,0,0,53.05,32.92Zm-.17-1.53.06,0-.06,0ZM53.2,23a.35.35,0,0,0-.16-.27,2.09,2.09,0,0,0-.57,0,2.12,2.12,0,0,0,.38.42C53,23.15,53.2,23.07,53.2,23Zm3.62-1.2c0-.06,0-.15-.09-.17a.83.83,0,0,0-.35,0,.2.2,0,0,0-.14.13.22.22,0,0,0,.09.17.46.46,0,0,0,.19.08.81.81,0,0,0,.22-.07S56.83,21.77,56.82,21.75Zm3.08-1.36c-.13-.12-.22-.22-.32-.3a.25.25,0,0,0-.17.11c0,.11.09.27.26.3S59.78,20.45,59.9,20.39Zm2.35-1.95-.16,0a1.63,1.63,0,0,0-.76.69l.81-.06c.19,0,.36-.07.39-.28S62.39,18.51,62.25,18.44Zm2.17-1.7a.39.39,0,0,0-.19-.19.5.5,0,0,0-.26,0,.23.23,0,0,0,0,.12l.38.2C64.37,16.85,64.44,16.77,64.42,16.74Zm.64-4c.35-.16.35-.16.36-.45C65,12.39,65,12.4,65.06,12.72Zm-.53,2.95a2.93,2.93,0,0,0,1.23-1.24l-.09-.08-.84.23A6,6,0,0,0,64.53,15.67Zm-.59-4.59c.26,0,.48-.06.58-.35a.72.72,0,0,0-.26-.86C64.23,10.29,63.84,10.61,63.94,11.08ZM62.16,8.9c-.28.43-.09.87,0,1.32l.39-.52a.47.47,0,0,0,0-.55A.42.42,0,0,0,62.16,8.9ZM62,8c0,.13.1.23.24.19s.14-.1.27-.2l-.4-.23C62.08,7.87,62,8,62,8Zm-2.53-1.2c.08.44.16.73.18,1a5.86,5.86,0,0,0,.42,1.41c0,.12.13.23.27.19a.4.4,0,0,0,.27-.22,1.26,1.26,0,0,0-.11-1.07A12.12,12.12,0,0,0,59.48,6.83ZM58.89,6a.29.29,0,0,0,.39.07,2.08,2.08,0,0,0,.22-.21,1.07,1.07,0,0,0-.23-.21c-.16-.08-.28,0-.36.14A.31.31,0,0,0,58.89,6Zm.41.5,0,0,.05.07,0-.05Zm-2,1a.94.94,0,0,1,.21,1.15c-.08.18-.12.37-.18.55a.44.44,0,0,0,.59.13c0-.44.07-.91.09-1.37a.71.71,0,0,0,0-.29c-.17-.41-.34-.82-.53-1.23,0-.08-.17-.13-.29-.22A1,1,0,0,0,57.34,7.5ZM54.06,5.65c.09.63.09.63.76.74.26,0,.32.11.4.37a1.1,1.1,0,0,1-.1.85.24.24,0,0,0,.12.39l.41-.49a.92.92,0,0,0,.05-1.23,2.6,2.6,0,0,1-.52-1.36.52.52,0,0,0-.11-.19c-.44-.07-.44-.07-.89-.49,0,.27,0,.45,0,.61s-.1.33-.13.5A1.05,1.05,0,0,0,54.06,5.65ZM51.73,1.92l0,.06,0,0Zm-2,.42a5.12,5.12,0,0,0,.44.54,1.41,1.41,0,0,0,.53.38.84.84,0,0,1,.62.57c.12.35.22.71.36,1a.64.64,0,0,1-.15.68c-.14.17-.26.35-.37.51.13.32.25.59.37.9.66.23,1,.89,1.66,1.34a2.57,2.57,0,0,0-.76-2.45,1.61,1.61,0,0,1-.5-1,3.24,3.24,0,0,0-.48-1.31,6,6,0,0,1-.59-1,2.87,2.87,0,0,0-.62-.82.35.35,0,0,0-.46-.13C49.79,1.87,49.78,2.11,49.76,2.34ZM53,8.65s0,0,0,0,0,0,0,.05l.08-.06ZM49.34,7.43a1.56,1.56,0,0,1,.91,1.34.41.41,0,0,0,.23-.49c-.1-.68,0-1.41-.66-1.9-.09-.07-.1-.23-.17-.33s-.13,0-.19-.06c-.11.34-.21.67-.3,1A.35.35,0,0,0,49.34,7.43Zm-2-5.51c0,.27.08.47.1.66a.45.45,0,0,0,.35.43c.1,0,.18.09.27.12a1,1,0,0,1,.66.55,2.78,2.78,0,0,0,.44.47A2.08,2.08,0,0,0,48.78,3c-.28-.46-.58-.91-.88-1.36,0,0-.08-.05-.14-.08Zm-.49,4c.15,1,.31,2,.47,3,.22,0,.23-.17.22-.31-.06-.67-.12-1.33-.2-2A2.94,2.94,0,0,0,47.11,6c0-.07-.13-.12-.2-.18S46.8,5.92,46.81,6ZM45.6,3a3.24,3.24,0,0,1,.74,1.33,2.87,2.87,0,0,0,.36.55,2.42,2.42,0,0,0,0-1.47c-.1-.32-.22-.65-.34-1a2.34,2.34,0,0,0-.51-.86c-.28.1-.48.24-.49.52A1.22,1.22,0,0,0,45.6,3Zm-1.15.9c0,.07.1.14.26.34,0-.58,0-1,0-1.36a1.71,1.71,0,0,0-.1-.5c0-.09-.08-.18-.25-.12A5,5,0,0,0,44.45,3.86Zm.2,5.31.5-.54a1.35,1.35,0,0,1,0-.82.38.38,0,0,0,0-.21,5.23,5.23,0,0,0-.59-.85,4.19,4.19,0,0,0-.25,1.72A.67.67,0,0,0,44.65,9.17Zm-3.9-5.6c.65,0,.65,0,.87-.37l.4-.65c-.06-.29,0-.62-.34-.86-.41.18-.51.6-.74.91A1.47,1.47,0,0,0,40.75,3.57Zm-.49,2.5-.11-.56a4.13,4.13,0,0,1-.34.72c-.13.17-.32.3-.47.46a1.29,1.29,0,0,0-.27,1.19,1.14,1.14,0,0,0,.13.35.81.81,0,0,1,0,.65,3.76,3.76,0,0,0-.12.52c.1.07.21.16.34.24a1.15,1.15,0,0,0,.24.1c.09-.23.17-.45.26-.7a4.32,4.32,0,0,0,1.81-.63c0,.25.1.47.15.71.47-.27.47-.91,1-1.08a3.7,3.7,0,0,0,0-.69,3,3,0,0,0-.17-.56.85.85,0,0,1,0-.22c0-.64-.06-1.29-.08-1.93A.61.61,0,0,1,43,4a.61.61,0,0,0,.39-.42,1.87,1.87,0,0,0-.11-1.31,1.07,1.07,0,0,0-.64.73c-.09.44-.19.87-.26,1.31a1.62,1.62,0,0,0,0,.58,5,5,0,0,1,0,1.49,1.71,1.71,0,0,1-.1.3c-.08-.12-.13-.17-.17-.23s-.06-.14-.1-.2a.91.91,0,0,0-1.23-.35Zm-1.4-3a.7.7,0,0,0,.63-.51A.64.64,0,0,0,38.86,3.08ZM32.44,9.62a.63.63,0,0,1,.1.27c0,.12,0,.25,0,.37a.84.84,0,0,0,1.24.7l.31-.13a2.78,2.78,0,0,0,.44.54c.26.17.12.47.3.65a1.07,1.07,0,0,0,.68-.28,4,4,0,0,1-.35-.37.64.64,0,0,1,.08-1,6.82,6.82,0,0,0,1.93-2.69c0-.07.13-.11.28-.22,0,.37-.05.64-.06.9s-.32.44-.3.78c.6-.17.78-.7,1.15-1.06A1,1,0,0,1,38.4,7c.15-.19.29-.4.44-.59a6.9,6.9,0,0,0,.54-.7A2.72,2.72,0,0,1,40,4.82.67.67,0,0,0,40.23,4a.76.76,0,0,0-.62-.48,1.21,1.21,0,0,0-.72.11c-.47.22-1,.43-1.43.63a3.93,3.93,0,0,0-1,.62A17.88,17.88,0,0,0,33.3,8.23c-.17.24-.36.46-.55.71l-.26-.23C32.16,9.2,32.17,9.2,32.44,9.62Zm-.76,2.51a1.27,1.27,0,0,1,.21,1s.06.06.13.13l.65-.25a.83.83,0,0,1-.46-.84c0-.34,0-.68,0-1a.65.65,0,0,0-.19-.55c-.39.45-.21,1-.36,1.48A.19.19,0,0,0,31.68,12.13ZM30.48,9.6c.22.3.22.3.81.36A1.51,1.51,0,0,0,31,9.05Zm-.27,2c.41,0,.56-.13.49-.47Zm-.14,2.73a.39.39,0,0,0,.45-.22C30.27,13.8,30.23,13.81,30.07,14.3Zm-.22-2.38H30a.66.66,0,0,0,0-.14h-.06Zm-.18.5,0,0v0Zm-.33.39a1,1,0,0,0,.62.32C29.79,13,29.74,12.71,29.34,12.81Zm-1.86,1.26A.36.36,0,0,0,28,14a3.55,3.55,0,0,0,.4-1.33,5.46,5.46,0,0,0-1,1.26S27.43,14,27.48,14.07Zm-.82,5.41c0-.12,0-.29-.22-.29a.42.42,0,0,0,.19.64A1.5,1.5,0,0,0,26.66,19.48Zm.28-2.68a.33.33,0,0,0-.26,0,.45.45,0,0,0-.15.24c-.11.27-.2.54-.3.83l.29.14c.18-.37.35-.7.5-1A.19.19,0,0,0,26.94,16.8Zm1.36,5.95c-.13-.31-.24-.46-.55-.42C27.83,22.6,28,22.67,28.3,22.75Zm4.08,1.33s0-.11,0-.11L32,24s0,.09.06.1S32.26,24.18,32.38,24.08Zm4.49.31c0-.15,0-.26-.11-.32s-.31-.11-.47,0c0,0,0,.11,0,.14A.67.67,0,0,0,36.87,24.39Zm2.3.17,0,0,0,0ZM39.4,20a6.18,6.18,0,0,0,.15-1.31,5,5,0,0,1-.63.34.51.51,0,0,1-.54-.17.61.61,0,0,1,.38-.93,1.86,1.86,0,0,0,.9-.3L39.43,17a2.42,2.42,0,0,1,.4,0c.27,0,.53.12.8.14.12,0,.22-.09.2-.29a2.11,2.11,0,0,1-.48.12.49.49,0,0,1-.48-.29c-.08-.21.09-.32.22-.42a.55.55,0,0,1,.18-.08l1,.34c.19-.17.54-.13.59-.48,0-.07.2-.12.31-.15.36-.09.48.28.71.44.33-.16.7-.14,1-.36a1.15,1.15,0,0,0-.73-.81S43,15,43,14.89a.16.16,0,0,1,.24-.09,5.86,5.86,0,0,1,1.5.83,2,2,0,0,1,.69.07,3,3,0,0,0,1.38.21c.1,0,.21,0,.22-.14a3.49,3.49,0,0,1-.53-.22.41.41,0,0,1-.16-.3.31.31,0,0,1,.29-.29.35.35,0,0,1,.39.14.52.52,0,0,0,.66.19c.11,0,.22-.12.37,0a1.7,1.7,0,0,0-.09.39.35.35,0,0,0,.12.24.24.24,0,0,0,.2,0c.15-.1.27-.22.45-.36a1.22,1.22,0,0,0,1.11-.26,1.12,1.12,0,0,1,.18.08c.26.21.32.37.22.63s-.3.22-.5.19a.58.58,0,0,0-.22,0,1,1,0,0,0-.26.16,4.28,4.28,0,0,0,1.53.52c.1,0,.21-.07.33-.11-.06-.09-.09-.12-.12-.16-.17-.26-.17-.39,0-.51a.38.38,0,0,1,.53.11,1,1,0,0,1,.12.26c0,.13.08.28.12.42s0,.36-.21.47l-.93.41c0,.22,0,.36.24.37l.5-.34a1,1,0,0,0,.69.25c.16,0,.24.16.25.32a.28.28,0,0,1-.3.26l-.22,0c-.28-.08-.42.05-.5.3,0,.06-.09.11-.13.15h-.36c0,.56,0,1.11,0,1.64s-.2,1.07,0,1.6A4.44,4.44,0,0,0,53,21.88c-.28-.37-.29-.51,0-.73a.35.35,0,0,1,.41-.06.38.38,0,0,1,.19.44,2.22,2.22,0,0,1-.15.32c.72-.1.72-.1,1.09-.54.11-.13.26-.2.39-.1a.43.43,0,0,0,.66-.07c.21-.33.39-.55.82-.37.09,0,.23-.07.34-.12a27,27,0,0,0,3.7-1.91,5.23,5.23,0,0,0,.64-.5c.42-.36.8-.75,1.23-1.08a3.48,3.48,0,0,0,1.17-1.41c.11-.28.26-.54.37-.81a2.19,2.19,0,0,0,.21-.88l-.4-.19c-.47-.23-.5-.3-.33-.86.16,0,.33,0,.49,0s.21.34.51.27c0-.1,0-.22,0-.27a11.45,11.45,0,0,0-1.17-1,8.63,8.63,0,0,0-1.3-.72.72.72,0,0,0-.65-.13l0,.65a.63.63,0,0,1-.61,0c-.24-.1-.31-.28-.13-.46a3.26,3.26,0,0,1,.45-.34A6.64,6.64,0,0,0,59,10.53a9.47,9.47,0,0,0-1.73-.29c0,.27,0,.48,0,.68l-.16.07A.26.26,0,0,1,57,11c-.39-.08-.46-.2-.34-.63a.86.86,0,0,0,0-.24c-.33-.06-.64-.11-.95-.18a16.24,16.24,0,0,0-3.26-.26c-1.59,0-3.16.22-4.75.26a1,1,0,0,0-.63.2.94.94,0,0,1-.84.18,3.89,3.89,0,0,0-1.18,0c-.52.09-1,.21-1.54.26a8.87,8.87,0,0,0-2.09.51,4.28,4.28,0,0,1-.73.13c-.17,0-.34,0-.51.07-.63.14-1.26.27-1.88.45-1.23.37-2.48.7-3.69,1.15s-2.32,1-3.47,1.54a5,5,0,0,0-.8.53c-.23.15-.44.32-.66.48a8.28,8.28,0,0,0-1.56,1.26,1.78,1.78,0,0,0-.6,1.39.58.58,0,0,1-.07.28,2.75,2.75,0,0,0-.16,1.17,1.61,1.61,0,0,0,.4,1.1c.32.37.67.72.91,1l1.24.42a12.86,12.86,0,0,0,1.5.43,6.5,6.5,0,0,1,1.35.39,3.13,3.13,0,0,0,1.66.24,1.31,1.31,0,0,0,.06-.23,1,1,0,0,1,.08-.28c.07-.1.16-.21.26-.23s.21.08.24.09a4.27,4.27,0,0,1,.7-.2c.06,0,.18.09.2.17a.34.34,0,0,1-.36.48c-.13,0-.26-.18-.39,0s0,.13.06.13a19.21,19.21,0,0,0,4,.22c0-.2,0-.4,0-.59s.06-.37-.17-.45c0,0-.09,0-.13,0s-.1.25-.11.4a.3.3,0,0,1-.41.28c-.25-.06-.39-.22-.31-.42a1.71,1.71,0,0,0,.14-.64.73.73,0,0,1,.36-.61c.17-.13.33,0,.5,0s.09,0,.18-.08C39.32,20.82,39.37,20.41,39.4,20ZM40,30.91c0-.08-.1-.14-.22-.27,0,.8,0,1.5-.06,2.24.22,0,.26-.1.23-.18a2.33,2.33,0,0,1,0-1.43A.89.89,0,0,0,40,30.91Zm-.26,3a2.17,2.17,0,0,0-.12,1.41c.14-.37.26-.65.34-.94A.38.38,0,0,0,39.78,33.91Zm-2.17,2.61a1.53,1.53,0,0,0,.57-1.21.89.89,0,0,0-.24-.77.93.93,0,0,0-.11.63,2.82,2.82,0,0,1-.1.58C37.7,36,37.66,36.17,37.61,36.52Zm-1.22.71a1.13,1.13,0,0,0-.13.33c0,.12,0,.2-.15.22s-.18-.05-.19-.16-.1-.2-.19-.26c.12-.25.21-.49-.12-.68a5.16,5.16,0,0,0-.24.69,1.37,1.37,0,0,0,0,.57c0,.08.21.1.3.18s.18.21.3.34c.21-.23.41-.42.58-.63a.54.54,0,0,0,.08-.56.13.13,0,0,0-.11-.08A.13.13,0,0,0,36.39,37.23Zm-.09-6.69.06.09.07-.09-.1-.05S36.29,30.53,36.3,30.54Zm-.56,3.6a4.18,4.18,0,0,1,.5,1.07s.09.08.15.12c.13-.69.13-.7-.25-2.58a4.87,4.87,0,0,0-.6-1.52,1.34,1.34,0,0,0-.31.79A3.94,3.94,0,0,0,35.74,34.14Zm-2.28-7.22A9.07,9.07,0,0,0,35,28.76s.09,0,.13,0A4.32,4.32,0,0,0,33.46,26.92Zm-1.34,6.67A2.69,2.69,0,0,1,32.67,35a4.5,4.5,0,0,0,.15.73.63.63,0,0,1,0,.62c-.08.14,0,.38,0,.57s.1.18.11.27a.67.67,0,0,1-.09.34c0,.05-.17,0-.26,0s-.22,0-.25.11A1.43,1.43,0,0,0,32.19,39a.24.24,0,0,0,.32.1.76.76,0,0,0,.17-.13,2.61,2.61,0,0,1,1-.65c.1,0,.17-.09.26,0s.23.14.34,0,.25-.23.24-.34a1.9,1.9,0,0,1,.18-.64,5.51,5.51,0,0,0,.15-1.09,5.89,5.89,0,0,0-.19-2.13.76.76,0,0,1,0-.15,5.37,5.37,0,0,0-.45-2.09,1.46,1.46,0,0,1-.07-.3c-.22-.7-.44-1.41-.68-2.12,0-.07-.1-.12-.26-.31.1.42.17.67.21.93a5.37,5.37,0,0,1,.09.89,4.78,4.78,0,0,0,.27,1.3c.17.57.36,1.14.5,1.71a9.74,9.74,0,0,1,.18,1.32,4.45,4.45,0,0,0,0,1,.33.33,0,0,1-.48.36,1.06,1.06,0,0,1-.33-.27c-.14-.17-.23-.39-.38-.55a.75.75,0,0,1-.23-.52c0-.55-.08-1.09-.1-1.64a8.18,8.18,0,0,0-.6-2.91c-.12,0-.16.05-.16.06-.12.68-.24,1.36-.34,2A.81.81,0,0,0,32.12,33.59Zm2.09,12.55s0,.08.07.12.07-.07.07-.11,0-.08-.06-.12S34.21,46.1,34.21,46.14Zm0-.62a1.82,1.82,0,0,0-.14-1.18Zm.15-7-.08.1s0,0,.06,0l.1-.06A.6.6,0,0,1,34.41,38.54Zm-4.24-11.1a.43.43,0,0,0,.45-.36.19.19,0,0,0-.07-.11.15.15,0,0,0-.13,0C30.34,27.11,30.27,27.25,30.17,27.44Zm.14,7a1,1,0,0,1,.09.43A3.8,3.8,0,0,0,30.68,36a2.68,2.68,0,0,1,.17,1c0,.15,0,.29,0,.47.27,0,.3-.14.27-.25a3.75,3.75,0,0,1,0-1.11c0-.14,0-.29,0-.44,0-.62-.08-1.23-.13-1.85a5.58,5.58,0,0,1,.06-1.47,3.33,3.33,0,0,0,.07-1.26.6.6,0,0,0-.59.26c-.14.2-.34.36-.33.64s-.08.54-.07.81A4,4,0,0,0,30.31,34.42Zm.78,3.47A.19.19,0,0,0,31,37.8a.22.22,0,0,0-.13.05c-.06.37-.29.73-.08,1.14A1,1,0,0,0,31.09,37.89Zm-5.85-6.34a4.74,4.74,0,0,0,.43-.36,22.48,22.48,0,0,0,2.43-3.48A13.59,13.59,0,0,0,25.24,31.55Zm-.7,6.78c-.31-.35-.54-.6-.76-.86a2,2,0,0,1-.27-.44,3.37,3.37,0,0,1,.08-2.66,2.21,2.21,0,0,0,0-.46,2.09,2.09,0,0,0-.22.33,9.46,9.46,0,0,0-.35,2c0,.71,0,1.39.79,1.76.13.07.23.2.35.27S24.37,38.33,24.54,38.33Zm2.95-.61a4.56,4.56,0,0,1,.73,1.42h0L28.05,39c-.11-.07-.21-.13-.24.08l.41,0h0l.36.14a2.6,2.6,0,0,1,.79-.76l.31.27a4,4,0,0,1,.25-.33.69.69,0,0,0,.1-.7,3,3,0,0,0-.31-.59.3.3,0,0,0-.25-.11c-.11,0-.24.14-.25.23a1.7,1.7,0,0,0,0,.59.55.55,0,0,1-.31.67,2.54,2.54,0,0,0-.63-.37.77.77,0,0,1-.57-.61,5.4,5.4,0,0,1-.24-1.91,17.84,17.84,0,0,1,.26-2.29A4.41,4.41,0,0,1,29,31.27H29c.08.38-.15.72-.18,1.08a.77.77,0,0,1-.33.56,1.58,1.58,0,0,0-.58,1.24,6.09,6.09,0,0,0,0,.74c0,.64.21.82.89,1a.35.35,0,0,1,.13.08c.14.12,0,.42.35.44a1.69,1.69,0,0,1,0-.55c.07-.17.26-.29.38-.45a2.13,2.13,0,0,0,.21-2.11,1.05,1.05,0,0,0-.22-.3l-.32-.3c0-.22.08-.41.11-.61a13.41,13.41,0,0,0,.37-2.54c0-.44,0-.89,0-1.33a4.29,4.29,0,0,1-.43-.16.83.83,0,0,0-1.06.24l-.26.27A31.06,31.06,0,0,0,25.52,32a2,2,0,0,0-.33,1.2c0,.74-.22,1.46-.15,2.2a.83.83,0,0,1,0,.22,2.72,2.72,0,0,0,.8,2.64.19.19,0,0,0,.31,0c-.82-1.53-1-2.32-.63-3.46a1.24,1.24,0,0,0,1.12-.44,8,8,0,0,0,.55-.61c.06-.06.11-.17.25-.08,0,.11,0,.23-.08.35a6.41,6.41,0,0,0-.18,2.65A2.6,2.6,0,0,0,27.49,37.72Zm1.44,1.75s-.07,0-.1.07.05.08.08.08.07,0,.1-.07S29,39.47,28.93,39.47ZM25.8,23.92c.1-.15.19-.27.26-.39s0-.09,0-.17c-.23-.14-.44-.35-.78-.24C25.17,23.55,25.41,23.73,25.8,23.92ZM21.51,22c.3.52.53.9.75,1.27.08.13.21.08.43-.17C22.23,22.84,22.23,22.17,21.51,22Zm-2,.6c0,.26,0,.5.05.83.27,0,.47,0,.66-.06a.9.9,0,0,0,.32-.17.32.32,0,0,0,0-.52.55.55,0,0,0-.31-.16A1.64,1.64,0,0,0,19.55,22.58ZM18.76,21a.13.13,0,0,0,.21.1c.13-.1.23,0,.34,0a.37.37,0,0,0,.25-.12.4.4,0,0,0,0-.25h0l0,0,.12,0,0-.05-.09.07h0v0a2.73,2.73,0,0,0-.48-.1.37.37,0,0,0-.27.09A.35.35,0,0,0,18.76,21Zm-.55-1a1.53,1.53,0,0,0,.13.32s.14.05.18,0,.11-.15.09-.17a1.85,1.85,0,0,0-.28-.28ZM18,22.63a1.78,1.78,0,0,0-.49.1c0,.21,0,.38,0,.59.38.07.69.15,1-.16C18.44,22.88,18.31,22.65,18,22.63Zm-.82-2.1.05.12.43-.06c0-.12.11-.24-.09-.34Zm-.33.51,0,0,0,0Zm-1.59,1.83a1.28,1.28,0,0,0,.69.58c.2-.12.44-.19.52-.5A2.6,2.6,0,0,0,15.26,22.87ZM16.07,21c.06,0,.13,0,.13,0a.58.58,0,0,0,0-.18l-.11,0A1.23,1.23,0,0,0,16.07,21ZM14.55,18.6c.28.39.47.84.95,1.08a2.84,2.84,0,0,1,.52.41l.34.26a1,1,0,0,0-.33-1,13.26,13.26,0,0,0-1.16-.8.66.66,0,0,0-.21,0Zm.21,2.23c.25-.65.25-.65-.48-1.25A1.46,1.46,0,0,0,14.76,20.83Zm-.92,1.93a1.19,1.19,0,0,0,.18.72c.2-.09.4-.21.32-.47A.36.36,0,0,0,13.84,22.76Zm-.26-1.49c.41-.38.4-.48,0-.7C13.42,20.78,13.51,21,13.58,21.27Zm-1.08.11c0,.11.11.13.26.06-.11-.57.21-1.1.25-1.73l-.18.05A2.84,2.84,0,0,0,12.5,21.38Zm-.22-2.23s.1.07.11.06a.34.34,0,0,0,.1-.16L12.38,19Zm-1.23,2.92a.83.83,0,0,0,.26,1.22l.46.3c0,.19,0,.33.05.51l.65-.14-.28-.39a8.8,8.8,0,0,0,.64-.73.71.71,0,0,0-.05-.95A1.34,1.34,0,0,0,11.05,22.07Zm-3.41.73a2,2,0,0,0-.26.44,1.38,1.38,0,0,0-.11.87c.1.48.46.69.88.47a2.21,2.21,0,0,0,.63-.51c.57-.65,1.13-1.31,1.69-2a5.27,5.27,0,0,0,.52-.63c.64-.94.62-.66.39-1.84a2.29,2.29,0,0,0-1.44.65A20.43,20.43,0,0,0,7.64,22.8Zm2.77.6c-.39.14-.42.51-.66.72a9.93,9.93,0,0,0-.72.73c.54-.12,1.13-.08,1.57-.53C10.54,24,10.48,23.72,10.41,23.4ZM6.62,23a16.25,16.25,0,0,0,2-1.85,1,1,0,0,0,.08-.18h0v0c.43-.16.43-.18.5-.62-.21.23-.45.34-.5.62h0v0a.43.43,0,0,0-.18.05c-.58.5-1.16,1-1.72,1.51A.4.4,0,0,0,6.62,23ZM6,25.84a1.11,1.11,0,0,0,.27.06,6.56,6.56,0,0,0,.62-.23c.39-.16.42-.25.32-.85C6.8,25.15,6.42,25.47,6,25.84ZM5.08,24.4l.57-.49C5.23,24,5.23,24,5.08,24.4ZM5.54,26a1.42,1.42,0,0,0-.12.25h0l-.2-.07H5.14s0,.08.06.08a1.48,1.48,0,0,0,.21,0h0a1.49,1.49,0,0,0,.25-.13s0-.08,0-.12S5.56,26,5.54,26Zm-3.33.68c.12.05.2.11.24.09a1.07,1.07,0,0,0,.37-.22A12.51,12.51,0,0,1,4.59,25a.61.61,0,0,0,.14-.17s0-.12,0-.13a.27.27,0,0,0-.19-.06.35.35,0,0,0-.19.1Zm1,1.63c.31,0,.41-.08.9-.69C3.49,28,3.49,28,3.24,28.34Zm-.71-.82a1.37,1.37,0,0,0-.23.17s0,.12,0,.19.11,0,.14,0S2.63,27.7,2.53,27.52Zm8.78,2c-.11-.1-.23-.18-.33-.29a.27.27,0,0,1,.14-.46.67.67,0,0,1,.42.07,4,4,0,0,1,.53.43l1.54-.58c-.09-.17-.17-.31-.27-.47l.31-.24s.1,0,.2,0l.5.6c.25-.05.53,0,.77-.24L15,28a5.53,5.53,0,0,1-.74-.21A.36.36,0,0,1,14,27.3c0-.09.1-.18,0-.25s-.06,0-.08,0-.22.09-.33.11a.82.82,0,0,1-.35,0c-.12,0-.16-.25-.06-.31a2,2,0,0,1,.33-.15.25.25,0,0,0,.2-.24c.53,0,.56,0,.65.53l.93.81a2.28,2.28,0,0,0,.64,0c.22-.06.43-.23.63-.09a2.35,2.35,0,0,1,.44.52L17.5,28l.63-.19s.06-.06.09-.09,0-.24,0-.36c.36-.32.58.06.87.19a.48.48,0,0,1,.64-.39.58.58,0,0,0,.29,0,.28.28,0,0,0,.18-.11.23.23,0,0,0,0-.2,1.57,1.57,0,0,0-.77-.55,2.54,2.54,0,0,1-.46-.24l.26-.51a1.18,1.18,0,0,1-.13-.18c-.1-.2-.06-.35.14-.4a.69.69,0,0,1,.35,0c.26.1.31.3.2.6s-.09.46.26.5a.81.81,0,0,1,.61.36.6.6,0,0,0,.59.25c.23,0,.42-.2.41-.36s-.21-.27-.36-.33a2.29,2.29,0,0,0-.36-.07.84.84,0,0,1-.27-.13c-.1-.07-.18-.19-.1-.31a.28.28,0,0,1,.23-.15,4,4,0,0,0,.56.12.65.65,0,0,1,.76.55.27.27,0,0,0,.32.23c.1,0,.18-.11.31-.19l-.78-.93c.06-.18.11-.34.17-.5s.27-.3.54-.24a.35.35,0,0,1,.26.46c0,.14-.07.27-.11.41l.57.55.4-.23s0-.08.05-.12c-.29-.28-.29-.28-.51-.94a.64.64,0,0,1,.54-.25h.05c.11.28.23.56.35.85l.45,0c0-.24,0-.44-.05-.63a1,1,0,0,0-.75-.18h-.05a1.54,1.54,0,0,0-.42-.22,8.76,8.76,0,0,0-1-.09,5.33,5.33,0,0,0-.56,0,1.2,1.2,0,0,0-.07.18c-.09.36-.21.42-.48.22s-.29-.26-.4-.35-.45,0-.65,0-.12.06-.18.09.07.34.1.5c-.53.15-.62.08-.63-.41-.18,0-.37,0-.55.06a1.75,1.75,0,0,1-.5.06A2.06,2.06,0,0,1,18,24l-.5.36c-.13-.08-.22-.16-.33-.22s-.28,0-.35.14a1.2,1.2,0,0,1,.16.32.3.3,0,0,1-.08.26.31.31,0,0,1-.26.05c-.19-.11-.36-.25-.55-.38a.83.83,0,0,0-.1.84s-.11.17-.18.17a.32.32,0,0,1-.39-.39.73.73,0,0,0,0-.42c0-.13,0-.29.08-.49l-.81.25c-.32-.23-.54,0-.8.14-.07,0-.19,0-.28,0h-.42a1,1,0,0,1,0,.19c0,.3-.21.42-.43.29s-.28-.2-.42-.3-.09,0-.14,0l-.24.33c-.66-.16-.66-.16-1.09.07,0,.09.05.18.07.27.06.25-.07.41-.3.32a2.57,2.57,0,0,1-.91-.3c-.19-.14-.37,0-.38.24s0,.28,0,.42a1.23,1.23,0,0,1-.65-.28.34.34,0,0,0-.54.26.57.57,0,0,1-.2.37.51.51,0,0,0-.1.25c-.06.29-.18.39-.43.35S7,26.94,6.82,27s-.57.07-.85.12l-.12.44a.79.79,0,0,1-.76,0c-.24-.14-.31-.1-.72.09a1,1,0,0,0,.17.14.34.34,0,0,1,.14.45c0,.18-.2.19-.36.19l-.27,0-.33.61-1,.06c.09.12.13.22.2.26.28.14.54.36.86.31s.21-.45.52-.38.26.42.32.69l.44,0c-.2-.35,0-.73-.25-1A.41.41,0,0,1,5,28.85a.3.3,0,0,1,.25.06.27.27,0,0,1,.09.2c0,.14,0,.24.12.3s.24.35.18.58c0,0,0,.08.07.16l.4,0,.29-.58c.34.06.5.21.45.52,0,.06,0,.12.06.18.22-.11.42-.28.61-.27a2,2,0,0,1,.63.29,1.18,1.18,0,0,0,.34-1.2.38.38,0,0,1,0-.15.23.23,0,0,1,.31-.21c.09,0,.22.13.22.18,0,.38.3.66.24,1a1.75,1.75,0,0,0,0,.33A.74.74,0,0,0,10,30.2c-.08-.14-.2-.24-.22-.37a1.76,1.76,0,0,1,.07-.49c-.12-.13-.35-.15-.33-.43s0-.39-.29-.47-.7-.2-1-.32a.26.26,0,0,1-.14-.21c0-.07.13-.14.21-.17a.28.28,0,0,1,.22,0A.71.71,0,0,0,9,27.9c.32,0,.56.37.93.28,0,0,.12.09.15.15a2,2,0,0,0,.1.35c.18.36.26.78.66,1C11,29.79,11,29.81,11.31,29.55Zm5.76,3.26a.21.21,0,0,0,0,.2.31.31,0,0,0,.19.09s.09-.05.1-.09a3.15,3.15,0,0,1,0-.44,2,2,0,0,1,.11-.32l.44.14c-.21-1-.4-2-.61-2.93,0-.12-.15-.22-.22-.32-.14.16-.24.3-.36.41s-.27.05-.34-.13,0-.31-.24-.34c-.19.34.17.63.13,1A1.54,1.54,0,0,1,16,31.12c.38-.08.54.05.63.28a.7.7,0,0,0,.48.49A1.52,1.52,0,0,1,17.07,32.81ZM16,32.41l.58.06c0-.15,0-.24,0-.37-.23-.09-.46-.27-.67-.25-.37,0-.49-.18-.57-.45a2.32,2.32,0,0,1-.07-.59.93.93,0,0,0-.38-.73l-.3.24c.29.43.6.84.44,1.38,0,.08.06.18.1.27s.14.17.14.25c0,.48.38.87.26,1.37,0,.1.06.24.14.33s.33.36.52.56c.11-.1.25-.17.27-.26a.62.62,0,0,0-.26-.71c-.1-.06-.24-.13-.27-.23A1,1,0,0,1,16,32.41Zm-.47-2.49a3.84,3.84,0,0,1-.12.52l.47.25a3,3,0,0,0-.46-1.6l-.88.19c-.1,0-.14.23-.06.32a.31.31,0,0,0,.25.08c.11-.05.18-.16.28-.23a.29.29,0,0,1,.44.12A.82.82,0,0,1,15.52,29.92ZM16,28.33l.1-.06-.06-.1-.08.1A.31.31,0,0,0,16,28.33ZM15,41.27c0-.12,0-.29-.31-.34a2.69,2.69,0,0,0,.13.4.1.1,0,0,0,.18-.06Zm4.49,11.6-.17-.12s-.08.1-.07.12a.88.88,0,0,0,.15.12ZM25.43,52a3.63,3.63,0,0,1-.57-.87,1.48,1.48,0,0,0-.56-.75c-.12-.07-.18-.28-.24-.43a1.21,1.21,0,0,0-.4-.7,1.09,1.09,0,0,1-.44-.83c0-.13-.1-.33-.21-.36-.41-.13-.48-.46-.56-.8a1.14,1.14,0,0,0-.45-.73,1.16,1.16,0,0,1-.42-.77,1.46,1.46,0,0,0-.16-.56,8,8,0,0,0-.64-.78v0h0a1.13,1.13,0,0,0-.3-1.07,1.22,1.22,0,0,1-.3-1.24s.06-.06.11-.1.32.24.52.07c0-.06,0-.12,0-.15a2.73,2.73,0,0,1-.51-1.38s-.07-.06-.13-.11l-.34.47a1.4,1.4,0,0,1-.61-1,10.62,10.62,0,0,0-.54-1.68,2.48,2.48,0,0,1-.12-.66,1.61,1.61,0,0,0-.23-.7,2.57,2.57,0,0,1-.27-.52c-.1-.34-.29-.69-.06-1.08l.84.21h0a2.09,2.09,0,0,0-.25,1.32.47.47,0,0,0,.28.42c0-.23,0-.41.05-.57.21,0,.28.26.48.14h0c0,.22,0,.45,0,.67a2.07,2.07,0,0,0,.51,1.34.34.34,0,0,0,.4.08c-.08.14-.14.28,0,.41v0h0a2.26,2.26,0,0,0,.44,1.57,1.88,1.88,0,0,1,.28.59,3,3,0,0,0,.71,1.1.17.17,0,0,0,.26,0s0,0,0-.07c-.5-1-1-2-1.51-3,0-.07-.12-.12-.19-.18v0h0v-.42c-.27-.18-.26-.51-.37-.78a6.09,6.09,0,0,1-.52-1.3h0c-.18-.44-.37-.88-.56-1.31v0h0A8.39,8.39,0,0,0,18,33l-.42.23c-.13.49.39.43.51.82-.4-.08-.42.23-.52.48-.42-.2-.39-.68-.63-1-.24.21-.05.4-.08.57a3.94,3.94,0,0,1-.22.55,1.22,1.22,0,0,1,.62.68,7.67,7.67,0,0,0,.46.84,3,3,0,0,1,.31.9c0,.31.35.56.22.92H18a.3.3,0,0,0-.17.08.12.12,0,0,0,0,.13.57.57,0,0,0,.16.15,1.37,1.37,0,0,1,.62,1.2c0,.12,0,.25,0,.37a1.26,1.26,0,0,0,.61,1.19,1.34,1.34,0,0,1,.32.31.69.69,0,0,1,.22.53,3.12,3.12,0,0,0,.81,2.16,1.5,1.5,0,0,1,.15.25v0h0a.86.86,0,0,0,.33.83,1.81,1.81,0,0,1,.28.42,1.71,1.71,0,0,1,.11,1.07,1.64,1.64,0,0,1-.81-1.4.75.75,0,0,0-.19-.46,3.11,3.11,0,0,1-.67-1.39,1.36,1.36,0,0,0-.39-.7,2.66,2.66,0,0,1-.75-1.59,1.59,1.59,0,0,0-.51-1,2,2,0,0,1-.7-1.28.75.75,0,0,0-.2-.46A4.48,4.48,0,0,1,16.43,37a.64.64,0,0,1,.05-.68c.4-.16.54.31.9.33-.21-.49-.4-.93-.59-1.39l-.3,0a.8.8,0,0,0-.2.07v.23a.27.27,0,0,1-.19.35c-.18.06-.28-.07-.33-.21-.19-.5-.51-1-.29-1.54-.52-.34-.66-.45-.66-.76a4,4,0,0,0-.43-1.63,2.09,2.09,0,0,1-.08-.36c-.08-.36-.17-.71-.26-1.08l-.46.13c-.06-.16-.11-.29-.17-.43s.07-.35-.19-.44c-.18.26.06.68-.33.86l-.34-.16a.91.91,0,0,1-.15.33,1.39,1.39,0,0,1-.34.2c.11.19.15.46.42.46a.41.41,0,0,1,.46.28c.06.21.23.4.13.63a.26.26,0,0,1-.15.14.21.21,0,0,1-.19-.06c-.12-.18-.23-.37-.34-.55-.25.07-.43,0-.51-.21a4.07,4.07,0,0,1-.13-.5c-.07-.35-.13-.42-.51-.68a1.32,1.32,0,0,0,0,.44,11.12,11.12,0,0,0,.51,1.4,23.2,23.2,0,0,1,1,2.71c.14.41.34.8.51,1.21h0l0,0a2.11,2.11,0,0,0,.29,1l.13-.08c.22-.22.39-.2.5,0a.5.5,0,0,1,.08.2,4.14,4.14,0,0,0,.48,1.53.47.47,0,0,1-.11.67l-.42-.08a5.3,5.3,0,0,0,.35,1,2.42,2.42,0,0,0,.15-.24c.07-.11.15-.21.29-.19a.34.34,0,0,1,.31.28,3,3,0,0,1,.06.52c0,.14-.05.32,0,.44.28.47.19,1.07.57,1.51a.65.65,0,0,1,.06.81c-.42-.26-.43-.26-.51-.59a1.36,1.36,0,0,0-.42-.92,2.1,2.1,0,0,0,0,.4c.16.62.37,1.24.5,1.87a16.57,16.57,0,0,0,.66,2.36c.2.55.37,1.12.57,1.68.12.35.25.7.38,1a5.8,5.8,0,0,1,.27.69,5.41,5.41,0,0,0,1.27,2c.09-.45.06-.76-.25-1a1,1,0,0,1-.43-.76.86.86,0,0,0-.4-.67.44.44,0,0,1-.21-.52.91.91,0,0,0-.27-.88.75.75,0,0,1-.19-.46,1.33,1.33,0,0,0-.28-.9.39.39,0,0,1,0-.48c.05-.08.15-.16.22-.15a.27.27,0,0,1,.2.16.77.77,0,0,1,0,.37.78.78,0,0,0,.28.72.67.67,0,0,1,.23.67.61.61,0,0,0,.23.66.82.82,0,0,1,.25.6,2.45,2.45,0,0,0,0,.38c.18.19.53.2.58.53a1.84,1.84,0,0,0,.61,1.3c.07.56.54.93.68,1.47A2.35,2.35,0,0,0,21.13,53,1.12,1.12,0,0,0,21,52.7a1.42,1.42,0,0,0-.35-.38,1.65,1.65,0,0,1-.75-1.45.76.76,0,0,0-.22-.54,1.06,1.06,0,0,1-.33-.8,1.11,1.11,0,0,0-.4-.85,1,1,0,0,1-.34-.79c0-.15,0-.34-.06-.44A4.15,4.15,0,0,1,17.9,46a2.6,2.6,0,0,0-.35-.56,1.35,1.35,0,0,1-.21-.39.88.88,0,0,1,0-.42s.11-.1.17-.11a.24.24,0,0,1,.18.1,1.12,1.12,0,0,1,.15.49,1.26,1.26,0,0,0,.49,1.1.82.82,0,0,1,.3.65,1.08,1.08,0,0,0,.31.8,1.46,1.46,0,0,1,.32.73,1.22,1.22,0,0,0,.4.85,1.13,1.13,0,0,1,.4.92.92.92,0,0,0,.14.4,9.68,9.68,0,0,1,.42.94,1.31,1.31,0,0,0,.7.9,1.1,1.1,0,0,1,.43.4.64.64,0,0,0,.9.21.67.67,0,0,0,0-.24,7.2,7.2,0,0,0-.7-1.21,1.85,1.85,0,0,1-.52-1.12,1.58,1.58,0,0,1-.85-1.17,1,1,0,0,0-.35-.56,1.72,1.72,0,0,1-.61-1.23,1.27,1.27,0,0,0-.27-.68,1.61,1.61,0,0,1-.3-.58,2.54,2.54,0,0,0-.54-1.27,1.25,1.25,0,0,1-.2-.4,1,1,0,0,1,0-1,.57.57,0,0,1,.58,0,.67.67,0,0,1,.31.48c0,.42,0,.83.08,1.29a.83.83,0,0,1,.5.94c0,.22,0,.44,0,.66.7.41.76,1.12.93,1.79.69.27.81.88.86,1.51a2.48,2.48,0,0,1,.42.44A4.33,4.33,0,0,0,23.49,52c0,.27,0,.58,0,.9.12.06.21.14.3.14a15.08,15.08,0,0,0,2,0A1.33,1.33,0,0,0,25.43,52ZM13.27,36.08Zm6.23,2.69c0,.06-.11.12-.1.17s.09.09.14.13l.13-.18Zm6.25,11.32c-.16-.31-.24-.69-.58-.84a1.31,1.31,0,0,1-.73-.8,1.1,1.1,0,0,0-.27-.35A1.88,1.88,0,0,1,23.61,47c-.09-.57-.67-.93-.67-1.54,0,0-.05-.08-.08-.13a.12.12,0,0,0-.05,0,2.34,2.34,0,0,1-.73-1.35,1.66,1.66,0,0,0-.39-.62c-.13-.16-.27-.35-.51-.35-.17.17-.2.35,0,.46a1.14,1.14,0,0,1,.57,1.06v.08a.51.51,0,0,0,.37.5.45.45,0,0,1,.31.38,3.43,3.43,0,0,1,.09.44,1.23,1.23,0,0,0,.48.88.77.77,0,0,1,.28,1s0,.09,0,.18a1.3,1.3,0,0,1,.78,1.36,1,1,0,0,1,.73.95.41.41,0,0,0,.15.24c.23.19.47.35.8.6A1.42,1.42,0,0,0,25.75,50.09Zm.33-.74a1.06,1.06,0,0,0-.06-.19l-.85-1.22c-.09-.14-.11-.28.11-.36.23.08.31.55.72.32,0-.28-.22-.44-.37-.63s-.3-.32-.45-.49a37,37,0,0,1-2.48-3.24L22.29,43a2,2,0,0,0,.46,1.1c.17.33.37.65.57,1s.44.58.66.86l-.22.33a1.15,1.15,0,0,0,.18.16,1.23,1.23,0,0,1,.67.84c.05.17.07.34.12.51a1,1,0,0,0,.2.38,1.15,1.15,0,0,1,.43.83c0,.12.13.26.24.35A.36.36,0,0,0,26.08,49.35Zm7.23,1.56c-.24.05-.24.2-.25.35s0,.44,0,.66a4.64,4.64,0,0,1-.11.65c-.06.2-.16.38-.26.62l.43,0C33.16,52.38,33.24,51.65,33.31,50.91ZM33.67,45c.06-.1.1-.13.1-.17,0-1.39.16-2.76.32-4.15l-.55-.18c0,.3,0,.57,0,.84a.41.41,0,0,1-.34.4,1.24,1.24,0,0,1,.08-1.44,1.32,1.32,0,0,0-.39-.06.32.32,0,0,0-.22.35,3.15,3.15,0,0,1-.09,1.33,2.07,2.07,0,0,1-.25.45,1.29,1.29,0,0,1-.24-.9c0-.22,0-.45,0-.67,0-.41-.08-.54-.5-.51s-.54.09-.81.1a1.34,1.34,0,0,0-1.2.59.42.42,0,0,1-.12.06,2.58,2.58,0,0,0-.38-.1.86.86,0,0,0-.81.21,2.82,2.82,0,0,1,.13,1.71,1.15,1.15,0,0,0,0,.37,3.63,3.63,0,0,1-.17,1.54,31.24,31.24,0,0,1-.87,3.15,2.09,2.09,0,0,0-.08.51,2.06,2.06,0,0,1,0,.44c-.31.84-.25,1.77-.59,2.61a1.57,1.57,0,0,0,0,.44,2.27,2.27,0,0,1,0,.52,2.53,2.53,0,0,1-.29.52,3,3,0,0,0,1,0,.39.39,0,0,0,0-.16,1.71,1.71,0,0,1,0-1.71c0-.08.17-.13.28-.22a2.75,2.75,0,0,1,.28,1.06,2.55,2.55,0,0,0,.54,1s.23,0,.23-.07,0-.35,0-.42c-.3-.29-.24-.61-.2-1a4.24,4.24,0,0,0,0-1.18,1.59,1.59,0,0,1,0-.65,1.53,1.53,0,0,0,0-1c-.09.09-.16.13-.17.19-.07.29-.11.58-.17.87a1.86,1.86,0,0,1-.14.49.42.42,0,0,1-.31.13c-.14,0-.2-.14-.19-.28a8.22,8.22,0,0,1,.12-1.1,12.33,12.33,0,0,0,.51-1.7.29.29,0,0,1,.23-.1c.08,0,.18.13.17.2s-.09.28-.11.42,0,.35.19.41c.05-.06.13-.12.13-.18a3.73,3.73,0,0,1,.33-1.43.33.33,0,0,0,0-.22,2.17,2.17,0,0,1,.43-1.67c.05-.07.15-.1.26-.18a1.93,1.93,0,0,1,0,1.63,1.37,1.37,0,0,0-.1,1.18l-.3.48a1.33,1.33,0,0,1-.06,1.28.49.49,0,0,0-.08.35,1,1,0,0,1-.41.94A3,3,0,0,1,29,52a.75.75,0,0,0,.15.47c.14.22.24.49.55.58a.7.7,0,0,0,0-.67,2.07,2.07,0,0,1-.24-.78,2.85,2.85,0,0,0-.06-1.16c-.06-.18.1-.44.08-.65a2.82,2.82,0,0,1,.23-1.38c0-.09.08-.21,0-.27a.91.91,0,0,1,0-.86.88.88,0,0,0,.05-.58c-.08-.31.13-.57.2-.85s.08-.29.31-.33a.91.91,0,0,1,.22,1.06,2.21,2.21,0,0,0-.15.94.62.62,0,0,1-.26.58,1.24,1.24,0,0,0-.18.21c.19.28.43.53.33.84a2.2,2.2,0,0,0,0,1,3.9,3.9,0,0,1,0,1.18A3.25,3.25,0,0,0,30.59,53c0,.06.13.1.24.18a3.34,3.34,0,0,0,.11-.7,6.52,6.52,0,0,0-.13-1.4c-.1-.42.11-.78.09-1.17s-.23-.76-.09-1.17a3.64,3.64,0,0,0,.11-.66,1.13,1.13,0,0,0,0-.44,9.63,9.63,0,0,1,0-1.78,1.43,1.43,0,0,1,.18-.86c.42.28.47.34.34.71a1.05,1.05,0,0,0,.05.85,2.27,2.27,0,0,1,.11.65,1.09,1.09,0,0,0,0,1.13.93.93,0,0,1,0,.44,2,2,0,0,0,.08.88,2.51,2.51,0,0,1,.1.66c0,.32-.05.64-.07,1s.26.57.2.91h0v0c-.07.09-.17.18-.18.27a4.2,4.2,0,0,0,0,.69l.33,0-.18-.93,0,0v0a.31.31,0,0,0,.23-.32,5.13,5.13,0,0,1,.15-1.24,1.18,1.18,0,0,0,0-.59,1.73,1.73,0,0,1,0-1.1,1.36,1.36,0,0,0,0-.8,1.39,1.39,0,0,1,0-.88,1.69,1.69,0,0,0,0-1,1.06,1.06,0,0,1,.3-1.07.49.49,0,0,1,.26.53,4.57,4.57,0,0,1-.12.74.63.63,0,0,0,.07.57.91.91,0,0,1-.09,1.33,1.68,1.68,0,0,1,.25,1.37.17.17,0,0,0,0,.14c.06.12.09.28.3.25a3.89,3.89,0,0,0,0-1.63.89.89,0,0,1,0-.51,2.94,2.94,0,0,0,.08-1.32,13,13,0,0,1-.1-1.4l0-.07a.93.93,0,0,1,0-.73,1.51,1.51,0,0,0,0-.94,2.14,2.14,0,0,1,.16-1.31,1.05,1.05,0,0,1,.21,1.21.8.8,0,0,0,0,.57c0,.16.13.32.17.49A4,4,0,0,1,33.67,45Zm.8,7.09a8.8,8.8,0,0,1-.08-1.85,1.12,1.12,0,0,0-.17-.71.62.62,0,0,1-.12-.41A2.31,2.31,0,0,0,34,47.75c-.08-.17,0-.44,0-.66s-.08-.15-.14-.23l-.08.09c-.09.57.18,1.17-.07,1.75,0,.09.06.23.08.35.1.44.19.87.28,1.31a2.93,2.93,0,0,0,0,1.38A1.67,1.67,0,0,1,34,52c0,.19,0,.38-.08.58s-.08.33-.1.5,0,.08.06.17l.51-.05c0-.24,0-.44.06-.63A2.26,2.26,0,0,0,34.47,52.09Zm.19-10.68,0-.06c-.29.33-.31.4-.22,1.12C34.49,42.12,34.57,41.77,34.66,41.41Zm.43-1.32S35,40,35,40l-.52.43.26.31A.82.82,0,0,0,35.09,40.09Zm0,9.56L35,49.26C34.89,49.57,34.89,49.57,35.11,49.65Zm.33,3.49a.16.16,0,0,0-.08-.1.53.53,0,0,0-.17.08l.12.24A.93.93,0,0,0,35.44,53.14Zm-.08-2.26a1,1,0,0,0,0,1.3C35.6,51.32,35.6,51.16,35.36,50.88ZM36,49.46A20.74,20.74,0,0,0,37.11,52l.23.45c.08.15.18.27.24.22s-.14-.71-.14-.71h0a6.83,6.83,0,0,1-.5-1.65,14.49,14.49,0,0,1,0-5c.25-1.45.6-2.87.92-4.3.28-1.24.57-2.47.84-3.7a3.65,3.65,0,0,0,0-.53,7.05,7.05,0,0,0-1,1.5c-.23.38-.38.81-.58,1.21a1.22,1.22,0,0,1-1,.83,1,1,0,0,0-.21.09.72.72,0,0,0-.11.19c-.1.69-.35,1.34-.5,2a2.15,2.15,0,0,0,0,.51c0,.17,0,.35,0,.52a23.26,23.26,0,0,0,.13,3.12A17.86,17.86,0,0,0,36,49.46Zm.42,3.81h.37a1,1,0,0,0-.28-.4l-.14-.09,0,0-.19,0c-.06.18-.1.33-.16.52A4.12,4.12,0,0,0,36.43,53.27Zm9.63-.49c.2-.75.39-1.49.57-2.24a1.63,1.63,0,0,0,0-.73,2.27,2.27,0,0,1,.15-1.8c.07-.12.05-.29.1-.43a1.5,1.5,0,0,1,.22-.46.43.43,0,0,1,.6-.1.44.44,0,0,1,.08.65c-.13.15-.28.28-.4.41a.81.81,0,0,0,.11.63c.32-.42.6-.83.91-1.2a1.1,1.1,0,0,0,.25-.83,6.12,6.12,0,0,1,0-.74,2.72,2.72,0,0,1,.46-1.32A.38.38,0,0,0,49,44c-.06.08-.16.14-.18.22a4,4,0,0,1-.49,1.32.5.5,0,0,0,0,.21c0,.47-.36.68-.65.93,0,0-.14,0-.22,0a1.23,1.23,0,0,1-.07-1,.69.69,0,0,0,.1-.35,1.25,1.25,0,0,1,.5-1.11.77.77,0,0,0,.28-.51,2.46,2.46,0,0,1,.56-1.2c.34-.48.63-1,1-1.48a2.11,2.11,0,0,1,.44-.5.34.34,0,0,1,.41,0c.11.06.09.22-.05.39s-.24.25-.35.39a1,1,0,0,0-.18.31,1.67,1.67,0,0,1-.51.89s0,.2,0,.33l.27-.06.28-.09a.37.37,0,0,1,.42.52c-.21.45-.44.88-.7,1.37a3.45,3.45,0,0,1,0,.38,2.26,2.26,0,0,1,0,.45,4.25,4.25,0,0,1-.14.46c.49-.3.6-.79.85-1.17a1.22,1.22,0,0,0,.17-.7c0-.41.17-.65.61-1a5.37,5.37,0,0,0,0,.69c0,.25-.31.38-.23.72.2-.15.36-.26.5-.38a5,5,0,0,0,.4-.4c-.24-.73.31-1.3.27-2l-.38-.26.26-.46a5.43,5.43,0,0,0,.44-.77,3.63,3.63,0,0,1,.47-.84c.54-.74,1.07-1.49,1.6-2.24.07-.09.18-.18.11-.32s-.11,0-.14,0l-.42.3c-.1.07-.21.14-.31,0,.06-.28.42-.42.37-.8l-.71.31c.11-.27.17-.42.24-.57s.09-.17,0-.24a1.64,1.64,0,0,0-.71.51c-.25.27-.6.5-.74.82a1.76,1.76,0,0,1-.77.76.19.19,0,0,0-.09.11c-.16.46-.59.74-.79,1.16a1,1,0,0,1-1,.56c0-.13,0-.27,0-.36a5,5,0,0,1,.76-1c.73-.63,1.41-1.31,2.08-2,.26-.27.49-.56.73-.84a.19.19,0,0,0,0-.07s0,0-.1-.08a1.69,1.69,0,0,0-1.28,1,1.65,1.65,0,0,1-.89.94c-.11,0-.25.13-.28.22-.15.51-.59.71-1,1-.18.87-.34,1-1.22.71a1.87,1.87,0,0,1,.57-.77.91.91,0,0,0,.27-.34,1.47,1.47,0,0,1,.68-.67,1.42,1.42,0,0,0,.57-.46,4.7,4.7,0,0,1,1-.93,14.82,14.82,0,0,0,1.08-1c.16-.16.11-.24-.17-.45A8.58,8.58,0,0,1,50.52,36a2.2,2.2,0,0,0-.34.28c-.57.59-1.15,1.17-1.71,1.76-.39.41-.77.84-1.13,1.28a16.19,16.19,0,0,0-2,3.22,20.8,20.8,0,0,0-1.46,3.9c-.34,1.3-.51,2.63-.72,3.95a3.76,3.76,0,0,0,0,1.11c0,.2,0,.4,0,.6s0,.41,0,.65a1,1,0,0,1-.25-.08,1.16,1.16,0,0,1-.44-.75,11.34,11.34,0,0,1,0-3.49,6.61,6.61,0,0,0,.25-2.34.41.41,0,0,1,0-.22,3.05,3.05,0,0,0,.06-1.47,4.48,4.48,0,0,1,.18-1.32c.08-.32.4-.36.64-.11s.07.37.33.33c.21-.44.42-.89.64-1.33l.7-1.38c-.59-.25-.6-.26-.55-.76A5.37,5.37,0,0,1,45,39c0-.1.13-.17.21-.26a1,1,0,0,1,.34,1c0,.13-.11.29.09.37.36-.35.38-.35.39-.73,0-.67,0-1.34,0-2a1.2,1.2,0,0,0-.14-.57,1.16,1.16,0,0,1,.19-1.42.46.46,0,0,1,.35.46,2.13,2.13,0,0,1,0,.44,2.6,2.6,0,0,0,.18,1.46c.08.21,0,.48.26.67a1.33,1.33,0,0,0,.71-1.24,4.06,4.06,0,0,0-.15-1.1c-.07-.21-.11-.43-.16-.65a1,1,0,0,1,.2-.84.28.28,0,0,1,.45,0,.65.65,0,0,1,.14.33c0,.29,0,.59,0,.89s0,.54,0,.81c0,.1.09.2.17.37l.81-.82a4.6,4.6,0,0,0-.34-1.79.87.87,0,0,1-.07-.43c0-.42,0-.84,0-1.27a1.19,1.19,0,0,0-.1-.49,4.14,4.14,0,0,1-.25-2.48.66.66,0,0,1,.35-.55.61.61,0,0,1,.33.61,15.18,15.18,0,0,1-.1,2.52,2.7,2.7,0,0,1,.53,2,1.46,1.46,0,0,0,.44,1.23c.17-.13.31-.24.5-.37-.69-.49-.63-1.17-.67-1.83l.42-.06,0-.75c0-1.36-.11-2.73-.11-4.09,0-1.17.08-2.33.12-3.5a1.82,1.82,0,0,0,0-.52.26.26,0,0,0-.39-.2c.16,1,.16,1-.18,1.43a.63.63,0,0,1-.16-.61,1.74,1.74,0,0,0-.07-1.23c-.09-.22,0-.43.25-.62l.31.63a.53.53,0,0,0,.32-.51,5.24,5.24,0,0,1,0-1A17.06,17.06,0,0,0,50.14,20c0-.45,0-.9,0-1.34a2,2,0,0,0-.15-.76c-.21-.11-.23.16-.39,0,0-.29-.11-.58-.16-.82-.32-.31-.63-.15-.87-.08l-.38-.33-.38.64c.07.23.2.44.17.6-.09.38,0,.82-.31,1.12,0,0-.09,0-.14,0a1.77,1.77,0,0,1,.07-1.84c0-.17-.1-.36-.15-.56-.38.35-.51.51-.39.74a1.06,1.06,0,0,1,0,.84,8.87,8.87,0,0,0-.22,1.46,2,2,0,0,1-.12.8,5.17,5.17,0,0,0-.29.81c-.07-.06-.13-.09-.14-.13a4.77,4.77,0,0,1,0-2,4.72,4.72,0,0,0,.17-1.4,1,1,0,0,1,.12-.57.66.66,0,0,0,0-.69.89.89,0,0,0-.7.15,1.36,1.36,0,0,0-.26,1,.41.41,0,0,1-.07.28c-.16.22.07.45,0,.65a4,4,0,0,0-.3.67,2.94,2.94,0,0,0-.07,1.25c0,.15.08.29.08.44a1.21,1.21,0,0,1-.44,1.1,1,1,0,0,1-.18-.39,4.08,4.08,0,0,1,.19-1.47,2.07,2.07,0,0,0,.05-1.39.71.71,0,0,1,0-.5,9.65,9.65,0,0,0,.45-1.76,5.68,5.68,0,0,0-2.63.46c-.46.16-.83.55-1.34.61a.35.35,0,0,0-.13.08,2.47,2.47,0,0,0-.78,1.15,7,7,0,0,0-.31,1.83,2.32,2.32,0,0,1-.06.44c-.06.56-.13,1.13-.18,1.7a2.64,2.64,0,0,0,0,.54c.15,0,.32,0,.38-.05A1.25,1.25,0,0,0,40.62,22a1.21,1.21,0,0,1,.49-1.28,2.06,2.06,0,0,1,0,.39,2.56,2.56,0,0,0-.16,1.31,2.08,2.08,0,0,1-.32,1.32c-.09-.05-.16-.11-.24-.15-.28-.13-.52,0-.55.26a5.61,5.61,0,0,0,0,.82c0,.47,0,.94,0,1.42s0,.79,0,1.18c0,.09,0,.21.14.22l.22-.45.33-.62c0,.37,0,.57,0,.76s-.05.59-.1.89a1.7,1.7,0,0,1-.16.34l-.46-.35a9.12,9.12,0,0,0,0,1.48c.11-.18.19-.3.27-.41s.15-.2.33-.11a3.34,3.34,0,0,1,0,1.3,2.3,2.3,0,0,0,0,.74,2.62,2.62,0,0,1,0,1.39,1.29,1.29,0,0,0,0,.34c.32-.33.61-.72.42-1.16a1.72,1.72,0,0,1,.09-1.5A3.62,3.62,0,0,0,41,29.8a1.19,1.19,0,0,0-.09-1.07.65.65,0,0,1-.11-.42A2.1,2.1,0,0,1,41.35,27c.52.29.31.82.44,1.21s-.19.74-.46,1.05c.08.19.15.38.24.56s.08.41.28.55a3.3,3.3,0,0,1,.57-1.29c.06.16.11.24.13.32a4.6,4.6,0,0,1,0,1.92,1.56,1.56,0,0,0,.54,1.52,7.19,7.19,0,0,0,.31-1.07,1.22,1.22,0,0,0,0-.8,4,4,0,0,1-.07-2.06,1.77,1.77,0,0,0,0-.51,5.94,5.94,0,0,1,0-1.93,3.8,3.8,0,0,0-.13-1.61c0-.12-.09-.23-.1-.35a1,1,0,0,1,.49-1.06,1.24,1.24,0,0,1,.17,1.23,2.15,2.15,0,0,0,.09,1.52,2.51,2.51,0,0,1,.15,1.24c-.05.32-.15.63-.22.94,0,.14-.07.33,0,.43a6.22,6.22,0,0,1,.5,1.47.88.88,0,0,0,.19.21c.12-.44.15-.46,0-.69a1.41,1.41,0,0,1-.07-1,6.45,6.45,0,0,1,.27-.85.64.64,0,0,0,0-.64,1.8,1.8,0,0,1,0-1.78c0-.08.12-.13.18-.2a.76.76,0,0,1,.25.71c0,.32-.08.65-.09,1a3.24,3.24,0,0,0,0,.88A3.25,3.25,0,0,1,45,29.52a2,2,0,0,0,0,1,2.91,2.91,0,0,1,0,1.68.58.58,0,0,0,0,.5c.08.12.15.25.23.38a.93.93,0,0,1,.11.79,1.62,1.62,0,0,0,0,1,2.53,2.53,0,0,1-.2,2.08l.16.27a2.06,2.06,0,0,1,.17.33.64.64,0,0,1-.23.79.25.25,0,0,1-.37-.1.75.75,0,0,1,0-.36,3.58,3.58,0,0,1,.14-.65.48.48,0,0,0-.09-.49,1.1,1.1,0,0,1-.28-1c0-.25.05-.5.05-.75a2.11,2.11,0,0,0-.06-.8,1.68,1.68,0,0,1,0-1.3,1.67,1.67,0,0,0-.3-1.57c-.2.37-.21.38-.15.56a2.45,2.45,0,0,1,0,1.11,3.19,3.19,0,0,0,.06,1.47,2,2,0,0,1,0,1.24,1.57,1.57,0,0,0,0,1.29A1.21,1.21,0,0,1,44,38.07a.48.48,0,0,1-.32.15c-.06,0-.16-.1-.2-.18a1.07,1.07,0,0,1,0-1,1.52,1.52,0,0,0,0-1.5.8.8,0,0,1-.08-.64c0-.2.09-.39.12-.59a1,1,0,0,0-.34-1c-.17.52-.33,1-.49,1.52a2.42,2.42,0,0,1,.31,1.84,2.31,2.31,0,0,0,0,1.4,1.13,1.13,0,0,0-.26,1.11,3.39,3.39,0,0,1,.08.95,1,1,0,0,1-.67,1,1,1,0,0,1-.38-.8,3.46,3.46,0,0,1,.22-1.47A2.16,2.16,0,0,0,42,37.61a3,3,0,0,1,0-.89A6.34,6.34,0,0,0,42,35.1a5.17,5.17,0,0,1,.06-1.62c.06-.37.08-.74.14-1.11a1.05,1.05,0,0,0-.11-.65l-.32-.62c-.1.14-.19.25-.27.37l-.25.36c0,.24.1.46.13.68a1.16,1.16,0,0,1-.3,1.22.33.33,0,0,0,0,.14.77.77,0,0,0,0,.15,2.28,2.28,0,0,1,.06,2.14.58.58,0,0,0,0,.43,4.19,4.19,0,0,1,.15,1.32.62.62,0,0,1-.25.58s0,.13-.06.21l.46.41c-.06.28-.13.54-.16.81a6.4,6.4,0,0,1-.06.88,1.5,1.5,0,0,0,0,.73,1.28,1.28,0,0,1-.08.8c-.08.21-.19.4-.29.61a1.32,1.32,0,0,1,.1,1.22c.1.48-.29.75-.53,1.1a1.55,1.55,0,0,1,.18.4.58.58,0,0,1,0,.42,4.39,4.39,0,0,0-.5,1c-.05.1-.09.24-.25.24-.41-.42-.4-.42-.31-.88a1.75,1.75,0,0,0,.07-.44,11.49,11.49,0,0,1,.31-2.27,5.08,5.08,0,0,0,.32-1.89c0-.07,0-.14,0-.22l0-.73a5.53,5.53,0,0,1,.19-1.77,1.08,1.08,0,0,0,0-.93.7.7,0,0,1,0-.43c.07-.32.15-.63.23-.94a1,1,0,0,0,0-.72,1.56,1.56,0,0,1-.11-.65,4.28,4.28,0,0,1,.14-1.33.5.5,0,0,0-.28-.7,1.4,1.4,0,0,0-.1.94,1.11,1.11,0,0,1,0,.72,2,2,0,0,0-.07,1.32.53.53,0,0,1,0,.22,18.78,18.78,0,0,1-.17,2.59A4.35,4.35,0,0,0,40,40a2.9,2.9,0,0,1-.22,1.24,1.22,1.22,0,0,0-.08.57,1.44,1.44,0,0,1-.37,1.1.27.27,0,0,1-.25.08.29.29,0,0,1-.15-.23,5.78,5.78,0,0,1,.12-.57,2,2,0,0,0,.14-.57,2.12,2.12,0,0,1,.14-.79,2.69,2.69,0,0,0,.2-.94,4.19,4.19,0,0,1,.15-1.54,1.33,1.33,0,0,0,0-.94.73.73,0,0,1,0-.44c.05-.24.14-.47.21-.71s.06-.31-.31-.57a1.65,1.65,0,0,0-.14.72,23.42,23.42,0,0,1-.41,3,32.27,32.27,0,0,0-.73,3.35c0,.12-.07.24-.09.36-.15.7-.33,1.4-.43,2.11a11,11,0,0,0-.18,2.22,23.76,23.76,0,0,0,.08,2.38c.11.66.28,1.31.45,2h0l.17.65v0l.2.78h1.62c.21,0,.35-.24.22-.36a1.07,1.07,0,0,1-.29-.89,1.06,1.06,0,0,0-.08-.43,4.22,4.22,0,0,1-.25-1.31,1.23,1.23,0,0,0-.12-.5,2.25,2.25,0,0,1,.08-1.93.21.21,0,0,1,.32-.05,1.06,1.06,0,0,1,.41,1,2.89,2.89,0,0,0,.16,1.74,2.22,2.22,0,0,1,.18,1.09,2.52,2.52,0,0,0,.09.81.86.86,0,0,0,1,.76l1.71-.1A2.23,2.23,0,0,0,44,53a6.36,6.36,0,0,1,.07-.7,1.47,1.47,0,0,0-.1-1,1.7,1.7,0,0,1-.11-1c.06-.62.09-1.24.14-1.85A2.87,2.87,0,0,1,44.5,47a.23.23,0,0,1,.38,0,1.18,1.18,0,0,1,.09.49,6,6,0,0,1-.26.92,1.81,1.81,0,0,0-.22,1.08,4,4,0,0,1,0,1.25,4.21,4.21,0,0,0,.15,1.54,3.42,3.42,0,0,1,.07.75l.46-.06c0-.27,0-.52,0-.76a7.46,7.46,0,0,1,.1-.81.27.27,0,0,1,.22-.15.3.3,0,0,1,.23.14,1.61,1.61,0,0,1,.07.43c0,.3,0,.6,0,.9,0,.08,0,.2.14.19S46.05,52.82,46.06,52.78ZM71.13,31l-.31.17c-.27,0-.07-.37-.34-.44a1.46,1.46,0,0,1-.43.81.32.32,0,0,0-.1.19,1.26,1.26,0,0,1-.28.82,3.27,3.27,0,0,0-.42.75c-.21,0-.28-.1-.23-.21a4,4,0,0,0,.27-1.14.38.38,0,0,1,.13-.26,1.25,1.25,0,0,0,.45-.89.47.47,0,0,1,.19-.31c.27-.2.29-.63.68-.7a1.92,1.92,0,0,0,.42-1c0-.3,0-.59,0-.89a2.18,2.18,0,0,1,.12-.87.88.88,0,0,0,0-.86c-.13-.21,0-.38,0-.62l-.6-.34c-.26.08-.38.32-.57.47a1.11,1.11,0,0,1-.29.14,2,2,0,0,0,.27-.54c-.15-.16-.25-.08-.33,0a1.29,1.29,0,0,1-.62.53c0-.11-.07-.21-.13-.37-.18.13-.33.26-.33.47a.56.56,0,0,1-.27.48,1.22,1.22,0,0,0-.52,1,2,2,0,0,1-.29,1.06.39.39,0,0,0-.1.27A2.27,2.27,0,0,1,67,29.93a.77.77,0,0,0,.63-.6c0-.14,0-.29,0-.44a.75.75,0,0,1,.62-.61c0,.18,0,.38,0,.45a1.5,1.5,0,0,0-.42,1.2.86.86,0,0,1-.15.42,2.55,2.55,0,0,0-.34,1,.83.83,0,0,1-.53.73c-.29-.08-.2-.38-.33-.54-.06,0-.13,0-.14,0a4.74,4.74,0,0,0-.42.95,2.93,2.93,0,0,1-.39.71l0,0v0h0a9.1,9.1,0,0,1-1.33,1.64,1.41,1.41,0,0,0-.41.61A2.46,2.46,0,0,1,63,36.66a3.85,3.85,0,0,0-.78.88,1.58,1.58,0,0,1-.91.72.69.69,0,0,1,.26-.68,6.64,6.64,0,0,0,1.12-1.19,5.37,5.37,0,0,1,.64-.62,1,1,0,0,0,.38-.84,1.45,1.45,0,0,0-.26.19,13.73,13.73,0,0,1-1.2,1.32,18.56,18.56,0,0,1-1.94,1.82,4.6,4.6,0,0,0-.63.62,14.64,14.64,0,0,1-2.21,1.63,3.81,3.81,0,0,0-.82.63,2.41,2.41,0,0,1-.68.44c-.8.46-1.49,1.07-2.24,1.6a28.5,28.5,0,0,0-2.35,2,2.18,2.18,0,0,0-.36.52c-.18-.06-.28.06-.36.18-.59.93-1.39,1.68-2,2.57a11.87,11.87,0,0,0-1,1.8c-.35.73-.63,1.5-.93,2.26a1.77,1.77,0,0,0-.08.33A1.4,1.4,0,0,0,47,53c.37,0,.74,0,1.13,0,.24-.33.51-.66.74-1a.87.87,0,0,0,.1-.42.68.68,0,0,1,.19-.55.88.88,0,0,0,.38-.75c0-.1.1-.23.19-.3a5.82,5.82,0,0,1,.59-.38c.25.13.27.29.16.45s-.2.17-.26.27c-.16.27-.49.43-.49.81a.39.39,0,0,1-.15.24c-.46.43-.42,1-.61,1.61.42-.09.35-.61.78-.62l.16.34.36-.22c.05.15.08.26.12.39l1,0c0-.2,0-.36,0-.53s.1-.3.32-.32.33.09.31.3a1.43,1.43,0,0,1,0,.22,1.62,1.62,0,0,0,0,.22.48.48,0,0,0,.55,0l.24-.69c.35.13.35.13.31.64l.44,0c.29-.42.32-1,.86-1.3.16.23,0,.44,0,.64s0,.39,0,.63l.59.06H55a3.61,3.61,0,0,1,.11-.86.49.49,0,0,1,0-.12c.16-.47.34-.94.51-1.4.07-.16.16-.31.23-.46-.11-.18-.41-.14-.43-.39a.76.76,0,0,1,.34-.63,2.18,2.18,0,0,1,.42-.24c.13.18,0,.27,0,.38a3.45,3.45,0,0,0,0,.37c.2-.16.33-.25.45-.36l1.54-1.61c.16-.16.3-.33.46-.49a4.57,4.57,0,0,1,.68-.57,20.12,20.12,0,0,0,3.29-2.67,3.08,3.08,0,0,1,.33-.3,10.27,10.27,0,0,0,1.65-1.51,19.62,19.62,0,0,0,2.26-2.56q.59-.91,1.14-1.83a.26.26,0,0,0,0-.15c-.09-.1-.18,0-.25,0s-.41.42-.63.63a1.75,1.75,0,0,1-.33.28.2.2,0,0,1-.21,0,.24.24,0,0,1-.08-.19.32.32,0,0,1,.06-.21c.08-.13,0-.19-.07-.3-.26-.26-.25-.38,0-.62l.27-.26a1.3,1.3,0,0,0,.6-.9c0-.11.17-.23.28-.32a.24.24,0,0,1,.2,0,.21.21,0,0,1,.08.18.74.74,0,0,1-.3.58,2.31,2.31,0,0,0-.72,1.11.81.81,0,0,0,.94-.37,1.56,1.56,0,0,1,.87-.86c.23-.12.38-.28.31-.52-.14-.46.08-.7.46-.88l.14-.1c0-.31,0-.62,0-.94a.77.77,0,0,1,.23-.68,1,1,0,0,0,.34-.71.54.54,0,0,1,.37-.46.23.23,0,0,1,.14.33,2.37,2.37,0,0,1-.3.67,3.79,3.79,0,0,0-.45,1.19A6.48,6.48,0,0,0,71.13,31Zm-3.65-4.38a4.46,4.46,0,0,0-.81,1.88,2,2,0,0,1-.34.89,1.29,1.29,0,0,0-.22.95c.43-.18.72-.39.73-.86A.78.78,0,0,1,67,29a1.16,1.16,0,0,0,.25-.76,1.72,1.72,0,0,1,.15-.64,1.54,1.54,0,0,0,.13-1.05v0l0,0c.17-.07.18-.09.25-.41-.12.21-.19.31-.25.41h0Zm-1.6,4.25a.26.26,0,0,0-.13.16,3.14,3.14,0,0,0-.21,1,2,2,0,0,0,.65-.87s0-.1,0-.14,0-.18-.07-.19A.36.36,0,0,0,65.88,30.84Zm-.31,2.44Zm5.93-4c0,.2-.06.42-.12.63a5.18,5.18,0,0,1-.3.63.21.21,0,0,0,.31-.14,8.46,8.46,0,0,0,.29-1C71.71,29.34,71.65,29.27,71.5,29.31Zm1.32.57s-.07-.09-.08-.09a1.86,1.86,0,0,0-.25.17c.09.06.17.13.18.12A1,1,0,0,0,72.82,29.88Zm2,.45c-.2,0-.34,0-.41,0a.46.46,0,0,0-.22.57A1.12,1.12,0,0,0,74.85,30.33Zm.87-6.79a.44.44,0,0,1-.54.11.2.2,0,0,1,0-.36,3.81,3.81,0,0,1,.45-.19c0-.14-.06-.25-.13-.32a8.36,8.36,0,0,0-.81-.76,6.5,6.5,0,0,0-3.1-1.15c-.21,0-.43,0-.74,0a2.84,2.84,0,0,1,.21.46.24.24,0,0,1-.28.32c-.26,0-.35-.17-.33-.46a1.65,1.65,0,0,1,0-.21,1,1,0,0,0-.24,0L70,21a.85.85,0,0,0,0,.16c0,.16,0,.3-.17.36s-.28,0-.37-.15-.06-.21-.12-.26-.18,0-.33,0a4,4,0,0,0,.15.37c.06.15.09.29,0,.41s-.3.06-.45-.12a3.24,3.24,0,0,1-.26-.38c-.73-.1-1.21.46-1.83.58-.31.25-.63.48-.92.75a2.06,2.06,0,0,0-.71.95l.37.39c-.24.56-.56.11-.84.11a3.31,3.31,0,0,0-.27.53c-.07.18-.08.39-.14.57a6.39,6.39,0,0,0-.26.6,2,2,0,0,0,0,.55c.22.1.46,0,.53.3s-.43.18-.62.41a1.63,1.63,0,0,0,.36,1.54c.3-.09.59-.4.87,0l-.33.44a.88.88,0,0,0,.5.5,4,4,0,0,0,.42-1.11,1.37,1.37,0,0,1-.29-.2c-.16-.19-.1-.37.15-.44s.28,0,.42-.06l.69-1.46a1.54,1.54,0,0,1-.25-.26.25.25,0,0,1,.16-.4c.12,0,.24,0,.36,0a.44.44,0,0,0,.39-.36l-.5-.19a1.22,1.22,0,0,0,.09-.38,3,3,0,0,0-.11-.4.33.33,0,0,1,.57-.24c.12.1.13.25,0,.45s0,.13-.08.19l.31.35.51-.35c0-.32.15-.63-.07-.93-.08-.11,0-.23.17-.27s.35,0,.38.13a1.45,1.45,0,0,1,0,.36.42.42,0,0,0,.27.43l1.51-.3a.3.3,0,0,0,.17-.12c.19-.38.59-.29.9-.41a.3.3,0,0,1,.21.16c0,.07-.05.17-.09.25s-.3-.07-.33.2l.61.26a2,2,0,0,0,.1-.22,1.67,1.67,0,0,1,.08-.2.23.23,0,0,1,.37-.07,1.2,1.2,0,0,1,.19.27l-.34.39c.14,0,.24.11.31.09s.2-.15.31-.2a.25.25,0,0,1,.32.12.21.21,0,0,1-.07.32l-.2.17c.15.33.34.53.7.49.06,0,.18.1.2.17s-.07.16-.12.23-.09,0-.14.05a.21.21,0,0,0-.18.27c0,.08.09.21.16.22a.52.52,0,0,1,.46.55h-.54a4.72,4.72,0,0,0-.49,1.94l.61.35c.29-.08.25-.26.21-.48s.12-.36.36-.32l.29.08s.08,0,.15-.08.06-.31.09-.47c.59-.34.59-.34.74-1.13a.48.48,0,0,1,.12-.27,1.25,1.25,0,0,0,.33-.92,4.85,4.85,0,0,1-.37-.49c-.11-.17.19-.37,0-.53a3.88,3.88,0,0,1-.58,0,.2.2,0,0,1-.09-.35.53.53,0,0,1,.32-.12.94.94,0,0,1,.34.14c.13-.31.15-.62.47-.77C75.9,23.79,75.85,23.61,75.72,23.54Zm.4,4.38c-.12.09-.2.11-.22.16a2,2,0,0,0-.06.32c.12-.08.19-.11.21-.16A1.19,1.19,0,0,0,76.12,27.92Zm-.19-6.86c-.08.28-.15.56-.23.86a1.71,1.71,0,0,0,.2.18.68.68,0,0,0,.14,0C76.44,21.46,76.42,21.31,75.93,21.06Zm1.12,4.34a.79.79,0,0,0-.31-.08c-.15.49-.15.49,0,.85.24-.09.3-.32.39-.51A.26.26,0,0,0,77.05,25.4Zm-2.68-2.47a.29.29,0,0,1-.39-.07.29.29,0,0,0-.13-.08.31.31,0,0,0-.41.19.32.32,0,0,0,.21.35.48.48,0,0,0,.29,0,.37.37,0,0,1,.41.07c.09.07.21.13.32.2.25-.18.23-.35.14-.51A.31.31,0,0,0,74.37,22.93Zm-1.27.79a.28.28,0,0,0-.29.26.35.35,0,0,0,.35.29.3.3,0,0,0,.29-.27A.31.31,0,0,0,73.1,23.72Zm.7-1.17c.13,0,.24-.12.33-.16,0-.24-.15-.47-.33-.46a.36.36,0,0,0-.34.24A.34.34,0,0,0,73.8,22.55Zm1.38,4.07a1.51,1.51,0,0,0,.21-.14.33.33,0,0,0,0-.5.37.37,0,0,0-.51,0q-.15.16.09.45A1.56,1.56,0,0,0,75.18,26.62Zm-1.6,1.32c-.08,0-.18.12-.33.22a3,3,0,0,0,.42.35.27.27,0,0,0,.25-.09.28.28,0,0,0,0-.25A.67.67,0,0,0,73.58,27.94ZM71.4,22.78a.25.25,0,0,0-.27.2.31.31,0,0,0,.24.33.27.27,0,0,0,.3-.25A.27.27,0,0,0,71.4,22.78Zm.81.31c-.06.05-.2.12-.25.23s.11.29.31.3a.27.27,0,0,0,.32-.21C72.61,23.25,72.47,23.11,72.21,23.09Zm.33-1.22a.27.27,0,0,0-.13-.38.33.33,0,0,0-.41.05.44.44,0,0,0,0,.34.75.75,0,0,1,.11.4c0,.37.11.43.68.34l-.34-.56ZM75,27l-.4-.27a2.37,2.37,0,0,0,.08-.31.29.29,0,0,0-.31-.32.3.3,0,0,0-.26.31.58.58,0,0,0,0,.14.59.59,0,0,1-.22.69,5.3,5.3,0,0,0,.67.23C74.78,27.54,75,27.28,75,27Zm-9,10.1a.3.3,0,0,0-.4.06c-.17.18-.3.39-.45.58s-.17.33-.31.41a3.29,3.29,0,0,0-.74.7c-.26.27-.54.51-.8.77-.11.11-.23.27-.13.39s.07.53.18.8a.83.83,0,0,0,.29,0,1.07,1.07,0,0,0,.29-.31,5.34,5.34,0,0,0,.3-.58l-.23-.2a1.5,1.5,0,0,1,.83-.89c.11.15.16.4.42.35s.24-.23.29-.39,0-.22.08-.36H65c.13-.16.21-.27.31-.38s.36-.34.53-.52S66,37.18,65.9,37.11ZM68,32a2.44,2.44,0,0,1,.38-.95.8.8,0,0,0,.12-.87,2.45,2.45,0,0,0-.28.28c-.2.24-.16.56-.25.83s-.4.43-.44.76a2.71,2.71,0,0,1-.7,1.44.94.94,0,0,0-.19.32.24.24,0,0,0,.1.32A.2.2,0,0,0,67,34a6.55,6.55,0,0,1,.59-1.11A3.26,3.26,0,0,0,68,32Zm-1.06,3.61c-.08,0-.22,0-.25,0-.22.33-.42.67-.61,1,0,0,0,.08,0,.12s.12,0,.14,0c.24-.31.47-.62.7-.94A.32.32,0,0,0,66.94,35.62Zm-.63-.31c.1-.19.17-.39.29-.69a.72.72,0,0,0-.69.47.24.24,0,0,0,.09.32A.21.21,0,0,0,66.31,35.31Zm-2,5.67a.73.73,0,0,0-.6.47.23.23,0,0,0,0,.21.39.39,0,0,0,.26.09.68.68,0,0,0,.46-.69S64.33,41,64.28,41Zm1.33-1.46A.8.8,0,0,0,65,40a.42.42,0,0,0,.07.32.27.27,0,0,0,.38-.09c.11-.21.2-.43.3-.64C65.68,39.58,65.64,39.52,65.61,39.52Zm-3.45,3.17a.37.37,0,0,0,.53.29,1,1,0,0,0,.37-.79l-.88.23A1.27,1.27,0,0,0,62.16,42.69Zm0-.26h0Zm.11-1.4a3.81,3.81,0,0,0-1.16,1,1.64,1.64,0,0,1-.82.62.59.59,0,0,0-.32.17,5.16,5.16,0,0,1-1,1,2.09,2.09,0,0,0-.18.35l.6-.06c0,.06.07.12.06.15a3.65,3.65,0,0,1-.23.54.54.54,0,0,1-.46.33.67.67,0,0,0-.59.49c0,.12-.12.22-.17.33a.77.77,0,0,1-.76.49c-.38,0-.53.32-.68.6s-.16.42-.26.61a1.08,1.08,0,0,1-.24.28.33.33,0,0,1-.42,0,.32.32,0,0,1-.09-.4c0-.11.14-.2.2-.31s.11-.21.18-.35l-.59-.09a.9.9,0,0,1,.38-.88,3.61,3.61,0,0,0,.79-.77.61.61,0,0,1,.16-.16,7.71,7.71,0,0,0,1.26-1,5.17,5.17,0,0,0,.77-.78,1.42,1.42,0,0,1,.78-.55,1.66,1.66,0,0,0,.68-.44,1,1,0,0,1,.42-.28,1.53,1.53,0,0,0,.85-.68,1.9,1.9,0,0,1,.94-.71.62.62,0,0,1,.19,0c.11.12,0,.2,0,.26A1.55,1.55,0,0,1,62.26,41Zm-5.5,4.69a3,3,0,0,0-.18.35.15.15,0,0,0,.05.12c.07.05.21-.07.22-.21S56.82,45.87,56.76,45.72Zm5.41-3.32,0,0,0,0Zm3.52-15.79c-.2,0-.45.22-.38.34a1.4,1.4,0,0,0,.36.26c.11-.12.24-.2.28-.31S65.82,26.62,65.69,26.61ZM62.41,41.25a3,3,0,0,0-.56.37c-.15.12-.33.24-.27.48s.31.26.53.29h.06l.65-1.2A1.33,1.33,0,0,0,62.41,41.25Zm2.33-15.59c0-.05.15-.12.19-.21s-.12-.28-.28-.29a.29.29,0,0,0-.29.27C64.36,25.57,64.5,25.68,64.74,25.66ZM60.17,43.31a.35.35,0,0,0,.12.51.32.32,0,0,0,.45-.12c.16-.3.29-.61.47-1A1.36,1.36,0,0,0,60.17,43.31ZM73.86,27.25v0l0,0Zm-8.38-1.1c.06-.12-.14-.3-.32-.32a.3.3,0,0,0-.33.22c0,.15.12.29.39.31C65.28,26.31,65.42,26.25,65.48,26.15ZM65,27.33a.41.41,0,0,0-.48,0,.35.35,0,0,0-.15.23.33.33,0,0,0,.16.21.41.41,0,0,0,.53-.12s0-.09.05-.15S65.1,27.37,65,27.33Zm3.28,5.2c-.32.08-.48.24-.51.5a.28.28,0,0,0,.11.23.27.27,0,0,0,.26,0C68.41,33.07,68.45,32.85,68.32,32.53Zm0,2a.35.35,0,0,0,.16.3c.13.09.23,0,.28-.14s.16-.37,0-.56A.41.41,0,0,0,68.27,34.58Zm-.52-.94a.54.54,0,0,0-.22.89A.92.92,0,0,0,68,33.8C68,33.7,67.83,33.6,67.75,33.64Zm1.44-3.27s.14,0,.18-.09a.79.79,0,0,0,.11-.89,2.61,2.61,0,0,0-.44.4.75.75,0,0,0-.06.42C69,30.27,69.11,30.35,69.19,30.37Zm-.44,1s-.06,0-.07,0-.12.3-.17.45.1.06.11.05.18-.26.25-.37Zm-23,3.48c.06,0,.22.06.25,0a1.13,1.13,0,0,0,.32-1.14.93.93,0,0,1,.08-1,1,1,0,0,0,.06-1.12l-.15-.34a.89.89,0,0,1,0-.78,1.52,1.52,0,0,0-.21-1.78c-.09,0-.12,0-.13,0A.52.52,0,0,0,46,29a2.36,2.36,0,0,0,0,1.53,1.46,1.46,0,0,1,0,1,1.93,1.93,0,0,0-.15.87,6.45,6.45,0,0,1-.06,1.7,2.9,2.9,0,0,0,0,.51A.47.47,0,0,0,45.8,34.86ZM17,26h0v0Zm-4.2,2.22c-.2-.08-.46.06-.46.23s.15.23.29.28l.14,0h.08c.08,0,.2-.05.23-.11a.34.34,0,0,0-.06-.27A.5.5,0,0,0,12.76,28.26Zm-5.57-.8a.34.34,0,0,0-.34.22c-.06.13.12.34.3.33a1.28,1.28,0,0,0,.34-.14A.37.37,0,0,0,7.19,27.46Zm1.12-.53c-.12.12-.23.19-.27.29s.17.27.37.27.25-.15.19-.24A2,2,0,0,0,8.31,26.93Zm1.55.16-.34,0a1.91,1.91,0,0,0-.24,0c-.13,0-.25.08-.25.22a.34.34,0,0,0,.15.23,3.33,3.33,0,0,0,.64.16c.13,0,.22-.09.24-.23A.27.27,0,0,0,9.86,27.09ZM6.61,28.56a1.17,1.17,0,0,0-.3.22.51.51,0,0,0,.48.46c.13,0,.24-.18.21-.33S6.78,28.5,6.61,28.56ZM8.7,26.37a.32.32,0,0,0-.37.15c-.05.11,0,.27.2.33l.19,0c0-.05.13-.1.17-.17A.31.31,0,0,0,8.7,26.37Zm8.13,3.45a.25.25,0,0,0-.21.26.27.27,0,0,0,.24.31c.16,0,.31-.12.3-.25S17,29.79,16.83,29.82ZM5.32,28.06a.19.19,0,0,0-.09.11.43.43,0,0,0,.4.5.54.54,0,0,0,.12-.09.32.32,0,0,0,0-.46A.29.29,0,0,0,5.32,28.06ZM16.06,26.6c.1,0,.18-.12.24-.16A.43.43,0,0,0,16,26c-.15,0-.31.15-.29.26A.43.43,0,0,0,16.06,26.6Zm-.95.27a.33.33,0,0,0,.11.31.75.75,0,0,0,.81.13.43.43,0,0,0-.17-.54.94.94,0,0,0-.49-.12A.36.36,0,0,0,15.11,26.87Zm-.3-1.2c-.13,0-.22.13-.19.27a.43.43,0,0,0,.58.26c.05,0,.09-.09.12-.13A.44.44,0,0,0,14.81,25.67Zm0-.45a.23.23,0,0,0,.15-.14c0-.18-.1-.26-.25-.32l-.12,0c-.05.07-.17.16-.16.25A.29.29,0,0,0,14.85,25.22Zm2.72,6.29c-.07-.18-.15-.38-.45-.34,0,.23,0,.46,0,.69a.74.74,0,0,0,.26,0C17.55,31.79,17.63,31.65,17.57,31.51Zm-.49.36v0h0Zm-6.45-4.46a.23.23,0,0,0-.24.22.36.36,0,0,0,.41.32c.07,0,.14-.1.18-.13A.34.34,0,0,0,10.63,27.41Zm.22-.93h0v0ZM16.94,26a1,1,0,0,0,.09-.32c0-.26-.23-.37-.47-.24-.07,0-.11.14-.15.2A.61.61,0,0,0,16.94,26Zm.14,5.83,0,0v0Zm-6-3.8c0,.09.09.22.17.29a1.82,1.82,0,0,0,.39.12c.09-.07.28-.14.29-.22a.46.46,0,0,0-.19-.35.57.57,0,0,0-.41-.06A.37.37,0,0,0,11.12,28.07Zm-.28-1.57v0l0,0Zm1.44.86a.29.29,0,0,0,.16.36c.13.07.27.11.35.15H13c.17,0,.28-.17.19-.3a2.16,2.16,0,0,0-.41-.39C12.63,27.07,12.36,27.19,12.28,27.36Zm-.17-.3a.32.32,0,0,0,.27-.38s-.07-.1-.13-.12a.45.45,0,0,0-.47.11.21.21,0,0,0,0,.13A.35.35,0,0,0,12.11,27.06Zm-1.3-1a1.07,1.07,0,0,0-.29.1s0,.12-.08.21l.39.13C10.82,26.34,10.82,26.21,10.81,26Zm-.06.71a.51.51,0,0,0,.19.29.27.27,0,1,0,.31-.44,2.71,2.71,0,0,0-.41-.09C10.8,26.58,10.73,26.67,10.75,26.74ZM7.93,28.4a.44.44,0,0,0-.49-.07.26.26,0,0,0-.08.33c0,.09.07.18.1.26a.58.58,0,0,0-.06.15c-.09.33-.05.47.2.61a.22.22,0,0,0,.32-.08c0-.1.1-.27,0-.34s-.18-.33,0-.52A.25.25,0,0,0,7.93,28.4Zm1.4-2.24,0,0h0ZM34,37.57l-.06,0,.06,0ZM13.66,26.43l0,0h0Zm.32-.32a.41.41,0,0,0,.25-.53.38.38,0,0,0-.47-.11c-.2.09-.39.2-.58.3s-.11,0-.14-.07c-.33-.44-.47-.5-.91,0,0,0-.09,0-.14,0-.53-.39-.53-.39-.8,0,.27.27.27.27,1.16.51l.36-.29c.27.3.49.68.95.51a1.75,1.75,0,0,1,.11-.24S13.91,26.14,14,26.11Zm-4.65.05h0v0Zm4.33.27h0v0Zm23.76-4.66c-.19,0-.46.29-.46.5s.24.34.49.34.42-.16.42-.33A.59.59,0,0,0,37.42,21.77Zm8.73,2.86c.06,0,.15-.07.16-.12a2,2,0,0,0-.13-1.6L46,23a1.27,1.27,0,0,0,0,1.63A.18.18,0,0,0,46.15,24.63Zm-7.57-5a.39.39,0,0,0-.32.35.35.35,0,0,0,.38.34c.13,0,.23-.13.32-.18C39,19.83,38.77,19.59,38.58,19.61Zm-2.88,18v-.2l-.08.18Zm0-.2v0h0ZM17.62,25.22c.07,0,.12-.13.15-.17,0-.24-.17-.37-.35-.35a.28.28,0,0,0-.25.23A.37.37,0,0,0,17.62,25.22Zm.4.8a.42.42,0,0,0,.49,0,.57.57,0,0,0,.15-.17c0-.24-.14-.4-.31-.39a.88.88,0,0,0-.29.06.36.36,0,0,0-.16.21A.32.32,0,0,0,18,26Zm18.46-6.14a.5.5,0,0,0-.34.42c0,.18.33.38.57.33s.17-.14.21-.19C36.91,20.12,36.69,19.86,36.48,19.88ZM16.89,26.32a.62.62,0,0,0,.65.49,1.38,1.38,0,0,1,.85.17.54.54,0,0,0,.28.08.29.29,0,0,0,.25-.07.33.33,0,0,0,0-.27.53.53,0,0,0-.66-.33,2.75,2.75,0,0,0-.29.11.9.9,0,0,0-1-.44C16.93,26.15,16.87,26.25,16.89,26.32ZM18.64,25c.08,0,.13-.13.16-.17,0-.24-.17-.38-.34-.35s-.25.07-.25.23A.36.36,0,0,0,18.64,25ZM9.58,26.66a.26.26,0,0,0,.33,0,.3.3,0,0,0,.11-.25.38.38,0,0,0-.21-.25,1.56,1.56,0,0,0-.48,0C9.38,26.36,9.39,26.55,9.58,26.66Zm7.36-.59h0v0ZM5.87,27.57l0,0h0Zm11.63-.48a.71.71,0,0,0-.4-.11c-.2,0-.25.2-.29.45a2.87,2.87,0,0,0,.4.23c.22.08.41,0,.45-.12A.37.37,0,0,0,17.5,27.09Zm-11.64.48h0Zm.53.41a.21.21,0,0,0,.1-.34.47.47,0,0,0-.3-.14.89.89,0,0,0-.32.08.65.65,0,0,0,0,.2A.35.35,0,0,0,6.39,28Zm14.72-2.79s.15-.08.18-.15a.31.31,0,0,0-.06-.26.58.58,0,0,0-.58-.23.37.37,0,0,0-.21.18s0,.15,0,.2A.72.72,0,0,0,21.11,25.19Zm16.78-5-.26.35a.3.3,0,0,0,.18.5c.16.05.36.09.45-.09a.51.51,0,0,0,0-.4C38.2,20.45,38.08,20.38,37.89,20.19Zm14.74,18.3a.19.19,0,0,0,0,.19.23.23,0,0,0,.2,0,1.18,1.18,0,0,0,.62-1.09c-.24.22-.42.37-.58.54A1.73,1.73,0,0,0,52.63,38.49Zm-1.36,3.92a.13.13,0,0,0,0,.13c.06,0,.15.08.19.06a.58.58,0,0,0,.27-.21.66.66,0,0,0-.09-.67ZM53,37.18a1.16,1.16,0,0,0-.75.56c0,.06,0,.16,0,.25C53,37.79,53.1,37.72,53,37.18ZM29.94,41.65a.76.76,0,0,0-.1,1.09.76.76,0,0,0,.28-.79C30.12,41.85,30,41.75,29.94,41.65Zm18.42-14.3a2.18,2.18,0,0,0-.3,1.28.16.16,0,0,0,.3.08,1.88,1.88,0,0,0,.21-1.21C48.56,27.45,48.46,27.42,48.36,27.35Zm3.4,11.79c.18-.21.24-.42.11-.52s-.28,0-.46.12a.6.6,0,0,0-.2.22c-.13.26-.24.54-.44,1,.24-.07.35-.07.4-.13S51.56,39.36,51.76,39.14Zm-19.28,4a1.56,1.56,0,0,0-.32,1.2c0,.07.12.19.19.19s.27-.05.3-.13a1.56,1.56,0,0,0,.08-1C32.7,43.31,32.58,43.24,32.48,43.14Zm16-4h0c0,.19-.11.26-.22.35a2.53,2.53,0,0,0-1.08,1.44c0,.15-.21.26-.32.39s-.37.33-.42.6a2.66,2.66,0,0,1-.68,1.28,1.47,1.47,0,0,0-.24.37c-.06.13,0,.31.22.43a.27.27,0,0,0,.39-.06c.17-.35.53-.59.55-1a.67.67,0,0,1,.36-.53,4.94,4.94,0,0,1,.55-.32,1.36,1.36,0,0,1,.48-1.23,1.29,1.29,0,0,0,.46-1.33c0-.12,0-.24-.05-.36ZM31.66,41.57a.49.49,0,0,0-.14-.54c-.07-.07-.19-.14-.25-.11a.41.41,0,0,0-.23.25.54.54,0,0,0,0,.35,1,1,0,0,1,0,.72l-.47-.17c-.17.87-.32,1.64-.46,2.41a1.82,1.82,0,0,0,0,.52,1.25,1.25,0,0,0,.15.31.6.6,0,0,0,.44-.42,1.62,1.62,0,0,0-.1-1.22,2.78,2.78,0,0,1,.23-.31c.07-.08.08-.25.3-.16,0,.31-.07.62-.11.94a2.23,2.23,0,0,0,0,.36.36.36,0,0,0,.15.23c.13.07.24,0,.32-.12a.55.55,0,0,0,.06-.5l-.22-.64a.88.88,0,0,0,.15-1.31C31.54,41.94,31.59,41.76,31.66,41.57Zm15.17,1.76a1.07,1.07,0,0,0-.32,1.13,6.37,6.37,0,0,0-.39.51c-.19.36-.1.78-.2,1.15a5.48,5.48,0,0,0-.42,1.09s0,.1,0,.14a1.18,1.18,0,0,1-.1.42,1.31,1.31,0,0,0,0,1.52c-.25.74-.25.74,0,1.18a.42.42,0,0,0,.44-.32.88.88,0,0,0-.1-.95,1.85,1.85,0,0,0,.41-1.59A7.56,7.56,0,0,0,46.6,47c.19-.31,0-.62-.07-.87a7.94,7.94,0,0,1,.52-.8c.22-.28.07-.56,0-.77.27-.29.49-.52.69-.77s.12-.62.18-.88c0-.05.06-.08.08-.09.31-.21.62-.42.59-.87,0-.1.12-.21.18-.31s.29-.41.41-.62.1-.39,0-.47-.34,0-.47.08a1.58,1.58,0,0,0-.37.36,5.45,5.45,0,0,0-.33.58,1,1,0,0,1-.42.48A3.42,3.42,0,0,1,46.83,43.33Zm.75-1.3h0Zm3.86-1.85c-.38.63-.77,1.25-1.14,1.89,0,.1,0,.27,0,.42a.8.8,0,0,0,.78-.64,2.07,2.07,0,0,1,.52-1,1.07,1.07,0,0,0,.26-.52.8.8,0,0,1,.44-.63c.29-.15.33-.4.2-.75a1.88,1.88,0,0,0-.73.69C51.66,39.85,51.54,40,51.44,40.18ZM48.78,19.27c.12,0,.22.09.34.13a.39.39,0,0,0,.45-.18l.11-.19a.41.41,0,0,0-.24-.6,1.8,1.8,0,0,0-.44-.06A2.43,2.43,0,0,0,49,18a5.61,5.61,0,0,0,0-.58c0-.05-.1-.12-.16-.12a.2.2,0,0,0-.18.1,2.59,2.59,0,0,1,0,.56,2.62,2.62,0,0,1-.34.48.21.21,0,0,0,0,.14C48.23,19,48.37,19.17,48.78,19.27ZM47.41,28a.49.49,0,0,0,.34-.08.66.66,0,0,0,.28-.58,3.64,3.64,0,0,0-.14-.79c-.12-.43-.1-.51.34-.71a.62.62,0,0,0,.43-.55,1.14,1.14,0,0,0-.29-1,3.11,3.11,0,0,1-.48.17c-.38.06-.52.13-.55.46a5.78,5.78,0,0,0,0,1.1,2.62,2.62,0,0,1,0,.74,5,5,0,0,0-.08.95A.36.36,0,0,0,47.41,28Zm2.15,2.2c0-.08-.09-.23-.18-.27s-.23.06-.29.17a.62.62,0,0,0,.25.8A4.16,4.16,0,0,0,49.56,30.2ZM47.26,33a1.24,1.24,0,0,0,0,.87c0,.14.12.31.29.29a.59.59,0,0,0,.35-.23.9.9,0,0,0-.11-1.15l-.21-.3a1.78,1.78,0,0,0,.07-2.12,1.41,1.41,0,0,0,.28-1.41.39.39,0,0,0-.23-.26c-.15-.07-.27,0-.36.17a1.12,1.12,0,0,0-.14,1.06,1.84,1.84,0,0,1,0,1.16,1.36,1.36,0,0,0,.08,1.21A.69.69,0,0,1,47.26,33Zm-1-6.88c-.46.55-.49,1-.1,2,.25-.38.53-.67.44-1.12S46.59,26.33,46.25,26.11Zm-24.41,22a2.89,2.89,0,0,1,.68,1.59c.05.32.33.54.53.79a4.87,4.87,0,0,1,.44.85.54.54,0,0,0,.22.2,1.25,1.25,0,0,1,.52.69c.08.23.16.49.46.53.32-.27.34-.32.35-.52s-.18-.34-.33-.46-.33-.18-.49-.27c0-.23,0-.43,0-.63a.62.62,0,0,0-.1-.34,3.3,3.3,0,0,1-.79-1.22c-.07-.19-.28-.33-.44-.49a1.22,1.22,0,0,0-.23-.18,3.65,3.65,0,0,0-.3-.9,5.34,5.34,0,0,0-.82-1l.24,1.11A.49.49,0,0,0,21.84,48.1ZM49.22,29c.32-.43.38-.6.31-.88a.23.23,0,0,0-.14-.15c-.06,0-.17,0-.19,0a1.57,1.57,0,0,0-.22.45A.49.49,0,0,0,49.22,29Zm.1,2.43c-.21.41,0,.74.2,1.17a1.17,1.17,0,0,0,.13-1.17.23.23,0,0,0-.17-.11A.24.24,0,0,0,49.32,31.47Zm.25-11.1c0-.07-.11-.18-.18-.18s-.17.09-.19.16a1.27,1.27,0,0,0,.13.88A1.4,1.4,0,0,0,49.57,20.37Zm-.38,6.82c.06,0,.12,0,.15,0a.58.58,0,0,0,.2-.65.14.14,0,0,0-.1-.08c-.06,0-.16,0-.18.05A.65.65,0,0,0,49.19,27.19Zm.21-5.63c-.29.5-.29.5,0,1.09.27-.49.29-.51.24-.8C49.57,21.76,49.47,21.67,49.4,21.56Zm-2,1.29a3.11,3.11,0,0,0-.08.74.33.33,0,0,0,.54.23.53.53,0,0,0,.2-.29,1,1,0,0,0-.1-.79,1.38,1.38,0,0,1-.17-.48c0-.11,0-.26.19-.21l.26,1.09a1.17,1.17,0,0,0,.51-1c0-.38.22-.85-.26-1.14l-.34.18c-.08-.21-.15-.42-.24-.62s-.12-.13-.17-.12a.39.39,0,0,0-.23.14,1.37,1.37,0,0,0-.13,1.15A1.92,1.92,0,0,1,47.42,22.85ZM12.25,32.1s-.13.12-.13.19a.59.59,0,0,0,.1.34c0,.06.16.14.21.12a.28.28,0,0,0,.15-.21A.38.38,0,0,0,12.25,32.1Zm1.29-.72a.2.2,0,0,0-.3.08,1,1,0,0,0,.33,1c.14.12.27.09.4-.13-.09-.24-.17-.46-.27-.69A.87.87,0,0,0,13.54,31.38Zm.68,1.48-.12,0c0,.06-.13.14-.12.21a5.19,5.19,0,0,0,.18.78.22.22,0,0,0,.3.15c.09,0,.22-.16.22-.25A1,1,0,0,0,14.22,32.86ZM29.78,43.08c-.09.38-.18.75-.26,1.12.24.08.32.08.38,0a1,1,0,0,0,0-1.18ZM15.34,35.7c.15-.39-.07-.7-.26-1,0,0,0,0-.06,0s-.24,0-.25.08a1,1,0,0,0,.42,1.12C15.27,35.77,15.32,35.74,15.34,35.7Zm-.87,1.37a1.2,1.2,0,0,0,.6,1,1.5,1.5,0,0,0,0-1.21.82.82,0,0,0-.6-.57C14.47,36.55,14.45,36.81,14.47,37.07Zm-.83-.78-.35-.2a8.62,8.62,0,0,0-.82-2.67.74.74,0,0,1,0-.21.29.29,0,0,1,0-.1l.46.1.17-.35c.1.06.21.09.25.16a7.92,7.92,0,0,1,.31.75.41.41,0,0,1-.1.48c-.27.27-.15.6-.12.91,0,.05.1.09.19.16L14,35c.26,0,.35.17.43.36a1.76,1.76,0,0,1,0,.91L14,35.9Zm-.5-2.46s-.07,0-.12.08a.86.86,0,0,0,.1.16.16.16,0,0,0,.13,0A.15.15,0,0,0,13.14,33.83Zm1.33,2.43,0,0v0Zm7,10.52v0h0v0Zm-7-10.52,0,0h0Zm1.75,8.65h0Zm0,0h0Zm12.26.43a.91.91,0,0,0,0,.33.22.22,0,0,0,.17,0,.66.66,0,0,0,.2-.27,1.84,1.84,0,0,0-.09-.47C28.59,45.19,28.5,45.25,28.48,45.34Zm.05.74a.21.21,0,0,0-.18.07,2.49,2.49,0,0,0-.2.54c0,.05.1.16.17.2a.23.23,0,0,0,.19-.06c.09-.17.16-.35.24-.54A1,1,0,0,0,28.53,46.08Zm2-4.24c.13,0,.29-.16.34-.42a.7.7,0,0,0-.33-.68s0,0-.1,0-.13.08-.14.12a2.91,2.91,0,0,0,0,.59C30.33,41.58,30.35,41.77,30.55,41.84Zm-1.57,0a1.06,1.06,0,0,0-.06.19,8.76,8.76,0,0,1-.25,2.28c0,.06.06.16.14.34a2.28,2.28,0,0,0,.28-.52c.08-.46.13-.93.18-1.39a3.65,3.65,0,0,0,0-.74C29.25,41.84,29.15,41.75,29,41.81ZM17.92,41.5a.37.37,0,0,1-.3-.45,2.1,2.1,0,0,0-.14-.86,4.2,4.2,0,0,0-.88-1.35c0-.05-.16,0-.25,0h0c.34.17.36.49.35.81a1.88,1.88,0,0,0,.58,1.55.9.9,0,0,1,.26.74,3.13,3.13,0,0,0,.1.8.59.59,0,0,0,.48.52.81.81,0,0,0,.18-.1,1.11,1.11,0,0,0,.28-1A.69.69,0,0,0,17.92,41.5Zm-1.69,3.41c.2.12.07.3.06.45a.55.55,0,0,0,.3.53s.11,0,.13,0a.26.26,0,0,0,.14-.15C16.9,45.28,16.74,45.08,16.23,44.91Zm.33-6.69a14.71,14.71,0,0,0-.49-1.46.32.32,0,0,0-.45-.2,4.12,4.12,0,0,0,.45,1.67c.11.17.31.32.28.56A.49.49,0,0,0,16.56,38.22ZM16.1,43.9a.56.56,0,0,0,.12.87s0,.09,0,.14C16.62,44.39,16.61,44.29,16.1,43.9ZM15.86,39a.53.53,0,0,0-.53-.3A1.74,1.74,0,0,0,16,40.45s.12,0,.19,0A2.59,2.59,0,0,0,15.86,39Zm.32,1.47v0h0l0,0Zm1,2.24a3.34,3.34,0,0,0-.39-.42c0-.35,0-.62,0-.9a.81.81,0,0,0-.6-.9.64.64,0,0,0-.1.91,3,3,0,0,1,.53,1.45,1.15,1.15,0,0,0,.5.93.47.47,0,0,0,.22-.53A1.52,1.52,0,0,0,17.14,42.69Z"/></g></g></g></svg>