<svg fill="#a7ff83" xmlns="http://www.w3.org/2000/svg" viewBox="0 0 97.02 76"><defs><style>.cls-1{isolation:isolate;}.cls-2{fill-rule:evenodd;mix-blend-mode:multiply;}</style></defs><g class="cls-1"><g id="Camada_2" data-name="Camada 2"><g id="Camada_1-2" data-name="Camada 1"><path class="cls-2" d="M41.82,14.56c.39.18.39.18.27.62C41.57,15,41.56,15,41.82,14.56Zm0-1.54a1.58,1.58,0,0,0,.38.21.18.18,0,0,0,.22-.17.4.4,0,0,0-.54-.36A.2.2,0,0,0,41.83,13Zm-1.13-.11a.68.68,0,0,0,.13,0l.17-.08a.43.43,0,0,0,.12-.11.29.29,0,0,0,0-.36.27.27,0,0,0-.28-.12c-.22,0-.41.17-.41.3S40.58,12.83,40.7,12.91Zm5.84,3.73c-.1,0-.2.06-.22.18s.06.21.23.23.12-.09.13-.15A.21.21,0,0,0,46.54,16.64Zm-4.2-4.59s.06-.08.08-.12a.26.26,0,0,0-.2-.29.32.32,0,0,0-.34.12.07.07,0,0,0,0,.05A.4.4,0,0,0,42.34,12.05Zm.74,1a.21.21,0,0,0-.1.16.49.49,0,0,0,.42.38c.05,0,.11-.06.15-.08a.51.51,0,0,0,0-.09A.46.46,0,0,0,43.08,13Zm.64.05c0,.09.13.2.23.16a1,1,0,0,0,.17-.18C44,13,43.94,13,43.87,13S43.74,13,43.72,13.09Zm1.76-2.77.18,0a.55.55,0,0,0,.13,0c.07,0,.17-.09.19-.16a.24.24,0,0,0-.06-.23.61.61,0,0,0-.34-.14.27.27,0,0,0-.29.19C45.25,10.12,45.34,10.26,45.48,10.32Zm-1.13,2a.31.31,0,0,0,.12-.34,1.05,1.05,0,0,0-.12-.31c-.13-.21-.32-.22-.49,0s-.14.21-.25.37l.38.3A.29.29,0,0,0,44.35,12.31Zm-.26-1.38a.23.23,0,0,0,.27-.36.51.51,0,0,0-.43-.17s-.12.08-.15.16a.19.19,0,0,0,.06.18A.76.76,0,0,0,44.09,10.93Zm2.65.1c.08,0,.14-.09.2-.12s0-.12,0-.15a.37.37,0,0,0-.59-.13.16.16,0,0,0,0,.15A.44.44,0,0,0,46.74,11Zm-1.29,4.48a.5.5,0,0,0-.29.37.19.19,0,0,0,.05.14.32.32,0,0,0,.4.05c.1-.06.16-.18.21-.23A.3.3,0,0,0,45.45,15.51ZM45,11.59a.28.28,0,0,0,.21-.12.49.49,0,0,0-.1-.55c-.19-.12-.29.06-.41.16a.73.73,0,0,0-.14.16A.43.43,0,0,0,45,11.59Zm2-1.18a.31.31,0,0,0,.23-.11.2.2,0,0,0,0-.2A2.1,2.1,0,0,0,47,9.8a1.49,1.49,0,0,0-.31.17.21.21,0,0,0,0,.19A.39.39,0,0,0,47,10.41Zm-3.63,2.18a.31.31,0,0,0-.33-.34.19.19,0,0,0-.18.18c0,.13.13.25.31.25S43.31,12.62,43.37,12.59Zm4.19-1.07a.26.26,0,0,0,.24,0,.31.31,0,0,0,.1-.23c0-.2-.14-.39-.25-.39a.42.42,0,0,0-.33.25,1.25,1.25,0,0,0-.06.18A2.1,2.1,0,0,0,47.56,11.52ZM43,11.61a.28.28,0,0,0,.2.06c.06,0,.11-.06.17-.1a1.09,1.09,0,0,0-.06-.23.25.25,0,0,0-.31-.15c-.07,0-.18.12-.17.17A.51.51,0,0,0,43,11.61Zm-.73,4.21a.46.46,0,0,0-.36.37.33.33,0,0,0,.22.34.2.2,0,0,0,.11,0,.56.56,0,0,0,.37-.43.07.07,0,0,0,0-.05A.35.35,0,0,0,42.3,15.82Zm.62-.66c-.11,0-.22.09-.21.19a.21.21,0,0,0,.23.18.61.61,0,0,0,.18-.11A.23.23,0,0,0,42.92,15.16Zm.17.89a.16.16,0,0,0-.05.14.29.29,0,0,0,.37.21.61.61,0,0,0,.16-.12c0-.07,0-.13-.06-.17A.31.31,0,0,0,43.09,16.05Zm2.56-1.13c-.06-.08-.1-.18-.17-.26a.2.2,0,0,0-.32,0,4.41,4.41,0,0,0-.26.59.14.14,0,0,0,.15.18A1.34,1.34,0,0,1,45.65,14.92Zm-1.9.08a.23.23,0,0,0-.24.23c0,.12.16.24.36.24s.14-.12.16-.21S43.92,15,43.75,15Zm.79.42c-.15-.08-.25,0-.34.1s-.1.26.08.34l.24.08a.89.89,0,0,0,.1-.19C44.67,15.57,44.64,15.47,44.54,15.42Zm-.42-1.2a1.54,1.54,0,0,0-.17-.39l-.25.08a.29.29,0,0,0-.12.1.38.38,0,0,0,0,.25.39.39,0,0,0,.46.17A.27.27,0,0,0,44.12,14.22Zm.26,2.2a.45.45,0,0,0-.24.45.39.39,0,0,0,.38.15C44.69,16.68,44.69,16.68,44.38,16.42ZM42.79,15a.25.25,0,0,0,.16-.42,5,5,0,0,0-.4-.35c.05-.32,0-.47-.22-.58a.3.3,0,0,0-.34.1.23.23,0,0,0,.08.29l.09.06c.22.06.26.25.31.42s0,.22.06.33A.21.21,0,0,0,42.79,15Zm-1.52.53a.18.18,0,0,0-.09.3.83.83,0,0,0,.32.2c.11,0,.25-.08.24-.21A.33.33,0,0,0,41.27,15.51Zm3.65-2a3.84,3.84,0,0,0,.25-.5c0-.19-.12-.3-.21-.26a.91.91,0,0,0-.49.41.24.24,0,0,0,.05.34C44.66,13.6,44.86,13.62,44.92,13.52Zm-.31.51a.31.31,0,0,0-.3.19c0,.13.14.29.32.31a.25.25,0,0,0,.26-.22A.29.29,0,0,0,44.61,14ZM46,13.9a.47.47,0,0,0-.48.18.2.2,0,0,0,0,.15.4.4,0,0,0,.37.18.34.34,0,0,0,.26-.36S46.1,13.92,46,13.9Zm-4.77.33c.08,0,.19-.1.2-.16a.52.52,0,0,0-.33-.67,3.36,3.36,0,0,0-.24.38A.35.35,0,0,0,41.27,14.23Zm-1.08-.38a.78.78,0,0,0,.19,0c.06,0,.14-.08.15-.13a.28.28,0,0,0-.07-.19.23.23,0,0,0-.34,0c-.07.06-.13.14-.07.24A.33.33,0,0,0,40.19,13.85Zm0,.49a1.21,1.21,0,0,0-.2.09.17.17,0,0,0,0,.28.28.28,0,0,0,.42-.09,1.75,1.75,0,0,0,.12-.34Zm17.68-3.16a.29.29,0,0,0,.5,0,.94.94,0,0,0,.1-.31.4.4,0,0,0-.37-.41.28.28,0,0,0-.14.06A.56.56,0,0,0,57.85,11.18Zm1.46,2.25a.28.28,0,0,0-.05.53l.22.07a1.26,1.26,0,0,0,.29-.12.21.21,0,0,0,.06-.2A.47.47,0,0,0,59.31,13.43Zm.26,1.2a.24.24,0,0,0,0-.2.87.87,0,0,0-.21-.17.21.21,0,0,0-.26,0,.22.22,0,0,0-.07.3l.1.12c.1,0,.21.06.31.07A.22.22,0,0,0,59.57,14.63Zm0-2.08a.58.58,0,0,0-.21.23.2.2,0,0,0,.12.3,1.57,1.57,0,0,0,.37.05c0-.07.09-.14.13-.22a.23.23,0,0,0-.06-.29A.28.28,0,0,0,59.56,12.55Zm1.28,1.74a1.35,1.35,0,0,0-.19-.31.35.35,0,0,0-.53,0,.22.22,0,0,0,.06.36A.48.48,0,0,0,60.84,14.29Zm.23-1a.27.27,0,0,0,.35.06c.22-.1.35-.55.17-.71a3.34,3.34,0,0,1-.36-.48.21.21,0,0,0-.33,0,.21.21,0,0,0,0,.34,1.86,1.86,0,0,0,.25.14A2,2,0,0,0,61,13,.34.34,0,0,0,61.07,13.27Zm-1.15,1.8s-.05,0-.06-.06a.27.27,0,0,0-.28-.13.37.37,0,0,0-.28.23.21.21,0,0,0,.09.28c.08,0,.18.1.25.08a5.59,5.59,0,0,1,.7-.09c.06,0,.14-.11.16-.18a1,1,0,0,0,0-.24C60.25,14.84,60.11,15,59.92,15.07ZM60,12a.38.38,0,0,0,.43.24.71.71,0,0,0,.18-.15.41.41,0,0,0-.33-.42.17.17,0,0,0-.1,0A.26.26,0,0,0,60,12Zm.46-.74c.06-.05.17-.1.21-.18s-.08-.34-.23-.37a.34.34,0,0,0-.36.27c0,.1.07.2.23.25Zm-.65,1.93h0v0Zm0-3.42a.23.23,0,0,0-.37.09.16.16,0,0,0,0,.24c.15.11.38.11.45,0a.37.37,0,0,0,0-.14A.8.8,0,0,0,59.87,9.73Zm.45,3.72a.48.48,0,0,0,.27-.15c.07-.11,0-.21-.11-.28s-.31-.14-.53,0l-.1.09C60,13.29,60.08,13.49,60.32,13.45Zm-1-2.34a1.56,1.56,0,0,0-.19.13c-.16.16-.13.29.06.39l.21.07a.2.2,0,0,0,.27-.11.26.26,0,0,0,0-.24A2,2,0,0,0,59.34,11.11Zm5.33,1.55a.29.29,0,0,0-.36,0,.26.26,0,0,1-.35,0,.23.23,0,0,0-.15-.06.42.42,0,0,0-.44.26c0,.13.09.29.29.35l.22.05c.18-.16.44-.07.69-.1s.28,0,.3-.18S64.77,12.74,64.67,12.66Zm-1,.9a.34.34,0,0,0-.34.29.25.25,0,0,0,.22.22.35.35,0,0,0,.41-.18C64,13.77,63.81,13.58,63.63,13.56Zm-2.82,1.25a.22.22,0,0,0-.1.18c0,.13.09.2.2.24a.26.26,0,0,0,.3-.07.21.21,0,0,0,0-.1A.31.31,0,0,0,60.81,14.81Zm4.11-3.73a.64.64,0,0,0,.16.07c.19,0,.35,0,.38-.12s0-.21-.09-.29a.43.43,0,0,0-.11-.12.27.27,0,0,0-.31-.06.3.3,0,0,0-.22.28C64.73,11,64.82,11,64.92,11.08Zm.79.12a.22.22,0,0,0-.06.15.36.36,0,0,0,0,.21.53.53,0,0,0,.45.15c.1,0,.2-.17.15-.25s-.17-.27-.27-.43c.07-.09.13-.18.2-.26s.1-.5-.26-.55c-.17,0-.27.09-.35.29C65.82,10.73,65.91,11,65.71,11.2Zm-3.26.39a2.71,2.71,0,0,0,.48.06,1.46,1.46,0,0,0,.18.22.45.45,0,0,0,.42.09.22.22,0,0,0,.14-.34.75.75,0,0,0-.28-.25.89.89,0,0,0-.36,0c-.1-.11-.19-.22-.3-.32a.29.29,0,0,0-.36,0,.3.3,0,0,0-.16.28A.33.33,0,0,0,62.45,11.59Zm-.31,1a.38.38,0,0,0,.16.21,2.7,2.7,0,0,0,.45,0,1.73,1.73,0,0,0-.15-.38.34.34,0,0,0-.23-.11C62.26,12.35,62.12,12.52,62.14,12.61Zm.62.8h0l-.32,0a1.43,1.43,0,0,0,0-.23.29.29,0,0,0-.1-.12.43.43,0,0,0-.49.15.22.22,0,0,0,.06.29l.4.16c0,.18,0,.35.19.42s.13.15.13.27a.48.48,0,0,0,0,.18c.18.05.33,0,.4-.12s-.14-.26-.23-.4a.39.39,0,0,0-.06-.57h0Zm-.83.88a2.54,2.54,0,0,1-.48-.44.24.24,0,0,0-.35,0,1,1,0,0,0-.11.2l.45.47a.4.4,0,0,0,.41.09C62,14.59,62.06,14.35,61.93,14.29ZM63,13a.35.35,0,0,0-.23.12c-.08.08-.05.19,0,.29a2,2,0,0,0,.42-.05s.09-.14.07-.17A.55.55,0,0,0,63,13Zm1.86-4.21h0Zm-7,6.62c-.14-.11-.29-.07-.42.09s-.06.19.07.33l.16.13c0,.12-.06.22-.1.36a.75.75,0,0,0,.19.09c.23,0,.33,0,.26-.25s-.1-.22,0-.35S58,15.52,57.83,15.4Zm-.06-.87a.17.17,0,0,0-.24,0,.58.58,0,0,0-.11.3c0,.09.16.18.3.18a.34.34,0,0,0,.33-.25A2.34,2.34,0,0,0,57.77,14.53Zm-6-4.21a.27.27,0,0,0-.23.2c0,.16.09.23.2.29a.47.47,0,0,0,.26,0c.07,0,.12-.1.19-.16a1.56,1.56,0,0,0-.1-.22A.27.27,0,0,0,51.77,10.32Zm12.74-.91c-.07.07-.05.22-.12.29s-.22.13-.31.21a.23.23,0,0,0,0,.2.28.28,0,0,0,.33.13c.11,0,.11-.13.12-.22a.78.78,0,0,1,0-.14c.28.15.55.25.84,0l-.15-.47a1.72,1.72,0,0,0,.23-.26.24.24,0,0,0-.21-.36,2.88,2.88,0,0,0-.41,0v.35A2.37,2.37,0,0,0,64.51,9.41Zm-16.29.45a.33.33,0,0,0,.23-.1.25.25,0,0,0,0-.21.38.38,0,0,0-.3-.28c-.17,0-.28.06-.4.21C48,9.79,48,9.85,48.22,9.86Zm17.85-.68a1,1,0,0,0-.2.07.18.18,0,0,0-.12.21.31.31,0,0,0,.13.21.54.54,0,0,0,.55,0,2.55,2.55,0,0,0-.13-.39C66.27,9.23,66.15,9.19,66.07,9.18ZM54.54,10.23a.85.85,0,0,0-.28-.15.36.36,0,0,0-.39.15c0,.11.06.25.24.33a.38.38,0,0,0,.37,0,1.14,1.14,0,0,0,.14-.16C54.58,10.32,54.58,10.26,54.54,10.23Zm11.89-.55h0ZM64,11.33c-.06.07-.11.17,0,.25a.7.7,0,0,0,.26.19.49.49,0,0,1,.23.22.68.68,0,0,0,.24.2.29.29,0,0,0,.22,0c.21-.09.39,0,.58,0s.29,0,.33-.12a.27.27,0,0,0-.15-.32.31.31,0,0,0-.25,0,1,1,0,0,0-.25.17l-.08-.12a.73.73,0,0,0-.41-.25c-.15,0-.25-.25-.38-.36A.23.23,0,0,0,64,11.33Zm.85-2.55h0Zm-9.29,1.49a1.62,1.62,0,0,0-.2-.28.66.66,0,0,0-.47.26.18.18,0,0,0,0,.25.46.46,0,0,0,.38.18A.29.29,0,0,0,55.58,10.27Zm3.09,2.9a.21.21,0,0,0,0,.19.15.15,0,0,0,.22.07.23.23,0,0,0,.11-.16,1.34,1.34,0,0,0-.08-.33A1.18,1.18,0,0,0,58.67,13.17Zm.41,1.51h0Zm-.65.38c-.13,0-.29.2-.27.36a.28.28,0,0,0,.31.24.25.25,0,0,0,.24-.25A.36.36,0,0,0,58.43,15.06Zm.15-1c-.1,0-.24.12-.26.24a.2.2,0,0,0,.2.22.26.26,0,0,0,.29-.18A.32.32,0,0,0,58.58,14.09Zm.31.58a.18.18,0,0,0-.1.09.1.1,0,0,0,0,.09.22.22,0,0,0,.14,0,.67.67,0,0,0,.12-.16A.61.61,0,0,0,58.89,14.67ZM58.51,12a.35.35,0,0,0,.39-.14,2.49,2.49,0,0,0-.15-.28.23.23,0,0,0-.29-.08.29.29,0,0,0-.18.31A.25.25,0,0,0,58.51,12ZM55.7,10.83c-.12,0-.3.06-.31.17a.38.38,0,0,0,.08.24,2.41,2.41,0,0,0,.27.14c.24,0,.32-.17.25-.32A.44.44,0,0,0,55.7,10.83Zm.71-.33a.11.11,0,0,0-.09,0,.31.31,0,0,0,0,.39.37.37,0,0,0,.53.05.34.34,0,0,0-.4-.48Zm2.32,2.3a.64.64,0,0,0,.16-.17.39.39,0,0,0-.27-.35.32.32,0,0,0-.36.18.34.34,0,0,0,0,.26A.36.36,0,0,0,58.73,12.8Zm-1.44-1.72c-.16,0-.32.08-.33.21a.2.2,0,0,0,0,.15.59.59,0,0,0,.19.12c.22,0,.39-.13.37-.27A.29.29,0,0,0,57.29,11.08Zm-4-.33c-.15,0-.3.18-.25.3a.43.43,0,0,0,.51.22.18.18,0,0,0,.14-.21A.41.41,0,0,0,53.27,10.75Zm10.36-.91c-.09-.2-.34-.21-.53-.06s-.1.28,0,.44,0,.06.08.07a.66.66,0,0,1,.3.36.46.46,0,0,0,.62.22s.09-.1.15-.16a1.12,1.12,0,0,0-.19-.29A1.33,1.33,0,0,1,63.63,9.84ZM50.53,9.1a.31.31,0,0,0,.33-.28.29.29,0,0,0-.31-.3c-.21,0-.4.12-.41.27A.38.38,0,0,0,50.53,9.1Zm0,1.63a.34.34,0,0,0,.23-.38c0-.06-.09-.11-.13-.17a3.76,3.76,0,0,0-.44.15.22.22,0,0,0-.06.18A.34.34,0,0,0,50.49,10.73ZM45.7,13.55a.23.23,0,0,0,.26-.22.31.31,0,0,0-.32-.3c-.17,0-.32.11-.3.25A.35.35,0,0,0,45.7,13.55Zm2-1a.27.27,0,0,0-.21.33.36.36,0,0,0,.56.08.23.23,0,0,0,0-.1A.38.38,0,0,0,47.67,12.53ZM52.92,9a.37.37,0,0,0,.43-.17.48.48,0,0,0-.08-.64c-.5.14-.5.14-.71.51C52.79,9,52.79,9,52.92,9ZM51.43,10a.25.25,0,0,0,.32-.21.82.82,0,0,0,0-.27.19.19,0,0,0-.26-.12.61.61,0,0,0-.37.38l.18.16A.34.34,0,0,0,51.43,10Zm-6.09,2.25a.29.29,0,0,0-.28-.12.3.3,0,0,0-.26.26.42.42,0,0,0,.33.24.25.25,0,0,0,.27-.14C45.45,12.37,45.4,12.29,45.34,12.22Zm7.26-1.7a.32.32,0,0,0,.21-.15s0-.14,0-.2a.46.46,0,0,0-.34-.25.34.34,0,0,0-.38.25A.59.59,0,0,0,52.6,10.52ZM51.46,9a.8.8,0,0,0,.26.05A.24.24,0,0,0,51.91,9,.52.52,0,0,0,52,8.34a1,1,0,0,0-.57.24A.23.23,0,0,0,51.46,9Zm-4.53,3.74c.09,0,.15-.16.11-.23a.64.64,0,0,0-.39-.27c-.16,0-.27.13-.24.22A.43.43,0,0,0,46.93,12.74Zm2.51-1.36a.15.15,0,0,0,0,.15.77.77,0,0,0,.27.17c.12.05.26-.07.27-.25s-.1-.16-.18-.19A.3.3,0,0,0,49.44,11.38Zm-.22-.48c.11,0,.19-.13.21-.35,0-.05,0-.16-.12-.22s-.21,0-.3.05a.54.54,0,0,0-.14.16.2.2,0,0,0,0,.15A.37.37,0,0,0,49.22,10.9Zm.17-1.19a.28.28,0,1,0,0-.56.3.3,0,0,0-.32.23A.33.33,0,0,0,49.39,9.71Zm-1.26.6a.24.24,0,0,0-.07.13.26.26,0,0,0,.2.24.75.75,0,0,0,.26,0s.06-.08.11-.13a1.21,1.21,0,0,0-.15-.22A.26.26,0,0,0,48.13,10.31Zm.32,1.4a2,2,0,0,0-.24.26c.27.25.3.28.48.26s.18-.05.2-.16a.33.33,0,0,0-.14-.33A.24.24,0,0,0,48.45,11.71Zm4.66-2.22c.18.16.34.36.61.22s.28-.3.18-.59l-.47,0C53.23,9.17,53.15,9.29,53.11,9.49ZM46.76,14a.26.26,0,0,0,.31,0,.22.22,0,0,0,.06-.25c0-.09-.05-.17-.08-.3a1.68,1.68,0,0,0-.34.21A.19.19,0,0,0,46.76,14Zm.86.6a.24.24,0,0,0,0-.3c0-.07-.13-.12-.26-.23l-.2.43.16.11C47.42,14.68,47.53,14.72,47.62,14.62Zm-1.13-2.79a.4.4,0,0,0,.13-.18c0-.13,0-.25-.17-.39l-.52.18a.17.17,0,0,0-.07.24A.47.47,0,0,0,46.49,11.83Zm1,.37a1.57,1.57,0,0,0-.25-.26s-.13,0-.18.05a.14.14,0,0,0,0,.15.45.45,0,0,0,.2.16C47.28,12.31,47.36,12.25,47.47,12.2ZM50.59,11s0,.13,0,.14a.88.88,0,0,0,.32.16c.07,0,.16-.06.26-.11-.07-.11-.1-.22-.18-.28A.27.27,0,0,0,50.59,11ZM62.4,9c.06,0,.09-.11.11-.14A.46.46,0,0,0,62,8.43c-.14,0-.28.19-.25.31A.49.49,0,0,0,62.4,9Zm-.91,2.75a2.21,2.21,0,0,0,.21.11.34.34,0,0,0,.35-.18.3.3,0,0,0-.14-.27c-.15-.13-.31-.09-.46.1A.16.16,0,0,0,61.49,11.78Zm.36-1a.41.41,0,0,0,.56-.06,2.24,2.24,0,0,0-.26-.36c-.11-.12-.32-.05-.42.1A.24.24,0,0,0,61.85,10.74Zm-1-2.57s0-.09.07-.12,0-.06,0-.07a.62.62,0,0,0-.6-.29.26.26,0,0,0-.17.38A.48.48,0,0,0,60.81,8.17Zm-.08,1.69a.25.25,0,0,0,.18.3.58.58,0,0,0,.26.05.2.2,0,0,0,.18-.27A.34.34,0,0,0,61,9.68.31.31,0,0,0,60.73,9.86Zm.46,1a.27.27,0,0,0-.27.21c0,.13.09.25.28.26a.71.71,0,0,0,.26-.07A.34.34,0,0,0,61.19,10.83Zm2.13-2.07a.27.27,0,0,0,0,.31.44.44,0,0,0,.37.21A.29.29,0,0,0,64,9.05a.55.55,0,0,0-.3-.37A.28.28,0,0,0,63.32,8.76Zm.1-.3s.07-.08.13-.15a1,1,0,0,0-.19-.3A.27.27,0,0,0,63,8a.16.16,0,0,0-.07.23A.37.37,0,0,0,63.42,8.46ZM63,9.4c.11-.05.09-.22,0-.43a.75.75,0,0,0-.13-.11.44.44,0,0,0-.25.39A.31.31,0,0,0,63,9.4Zm-8.93-.57a.44.44,0,0,0,.18.12.56.56,0,0,1,.38.34.39.39,0,0,0,.46.22.21.21,0,0,0,.14-.36,3.94,3.94,0,0,0-.45-.31c-.09-.19.06-.47-.23-.66a2.76,2.76,0,0,0-.43.15A.3.3,0,0,0,54.07,8.83ZM62,9.7A.35.35,0,0,0,62,10a.47.47,0,0,0,.48.18c.08,0,.14-.09.19-.12a.44.44,0,0,0-.28-.46A.36.36,0,0,0,62,9.7ZM57.26,8.27c.12.06.26.1.36,0a.74.74,0,0,0,.27-.66,1,1,0,0,0-.71.22.32.32,0,0,0-.1.18C57.07,8.14,57.16,8.21,57.26,8.27Zm-1.06.15a1.43,1.43,0,0,0,.46.13c.06,0,.12-.1.17-.14a.54.54,0,0,0-.45-.47.28.28,0,0,0-.25.18A.21.21,0,0,0,56.2,8.42Zm-.14,1.37a.75.75,0,0,0,.26.05.33.33,0,0,1,.32.18.31.31,0,0,0,.22.11,2.41,2.41,0,0,1,.71,0c.06,0,.16-.08.21-.15a.21.21,0,0,0,0-.2c-.1-.13-.23-.27-.41-.23a1,1,0,0,1-.43,0,.76.76,0,0,0-.3,0c-.2-.12-.34-.23-.5-.31a.16.16,0,0,0-.23.1.39.39,0,0,0,0,.26A.34.34,0,0,0,56.06,9.79Zm-.83-1.64a.3.3,0,0,0,.25,0,1.73,1.73,0,0,0,.25-.41s0-.11-.08-.13a1.27,1.27,0,0,0-.24-.07,2.36,2.36,0,0,0-.29,0A.24.24,0,0,0,55,8,.64.64,0,0,0,55.23,8.15Zm2.56.27a3.81,3.81,0,0,0-.48.3.2.2,0,0,0-.06.19.36.36,0,0,0,.44.23c.14,0,.22-.14.2-.33A2,2,0,0,0,57.79,8.42ZM46.58,15.68a.37.37,0,0,0-.22.12.45.45,0,0,0-.07.52,2,2,0,0,0,.41-.18.32.32,0,0,0,.09-.24A.23.23,0,0,0,46.58,15.68Zm12.4-7a.22.22,0,0,0,.2-.26.54.54,0,0,0-.49-.34s-.13.09-.17.16a.23.23,0,0,0,0,.2A.47.47,0,0,0,59,8.72Zm.28,2a.83.83,0,0,0,.31,0c.06,0,.11-.08.18-.15a2,2,0,0,0-.22-.3.27.27,0,0,0-.24-.05.43.43,0,0,0-.21.23C59,10.6,59.16,10.67,59.26,10.71Zm-.73-.92a.4.4,0,0,0,.42,0,.28.28,0,0,0,.15-.28c0-.12-.05-.24-.08-.4a2.44,2.44,0,0,0-.44.15.31.31,0,0,0-.19.18A.29.29,0,0,0,58.53,9.79Zm1.21-.68a2.33,2.33,0,0,0,.37,0c.21.33.23.35.37.39a.29.29,0,0,0,.37-.15A.31.31,0,0,0,60.64,9a3.27,3.27,0,0,0-.45,0c-.07-.11-.13-.22-.2-.31a2,2,0,0,0-.39-.06c-.06,0-.16.06-.17.11a.31.31,0,0,0,0,.25A.61.61,0,0,0,59.74,9.11Zm-19.1,5.78a.53.53,0,0,0-.13.19c0,.09.07.17.21.19s.22,0,.21-.12A.32.32,0,0,0,40.64,14.89ZM66.86,28.57h0v0Zm-3,4.78c-.07.06-.15.12-.11.22a.84.84,0,0,0,.18.2,2.64,2.64,0,0,0,.88-1.05,2.76,2.76,0,0,0-.39.18C64.25,33,64.07,33.2,63.88,33.35Zm3.55-5.58c-.47.23-.53.3-.56.79a1.93,1.93,0,0,1,.28-.22A.54.54,0,0,0,67.43,27.77Zm.41-.41s.12,0,.14,0a1,1,0,0,0,.29-.77c-.15.13-.31.25-.45.39a.28.28,0,0,0-.08.3S67.8,27.35,67.84,27.36Zm-2.08,1.26a2.36,2.36,0,0,0,.44-.32,6.08,6.08,0,0,0,.54-.69.54.54,0,0,0,.06-.18.88.88,0,0,0-.2,0,.76.76,0,0,0-.47.37,1.3,1.3,0,0,1-.4.44.57.57,0,0,0-.15.22s0,.11,0,.15A.2.2,0,0,0,65.76,28.62Zm1-.05a2,2,0,0,0-.83.5.26.26,0,0,0-.07.15.19.19,0,0,0,0,.14.16.16,0,0,0,.15,0,1.71,1.71,0,0,0,.2-.18l.59-.63A.14.14,0,0,0,66.76,28.57Zm.1,0h0Zm.61-2.19c-.14.09-.27.16-.39.25a.57.57,0,0,0-.27.4.25.25,0,0,0,0,.15.17.17,0,0,0,.15,0c.25-.15.52-.3.6-.61a.46.46,0,0,1,.19-.26,1.19,1.19,0,0,0,.54-.74,1.23,1.23,0,0,1,.27-.47,2,2,0,0,0,.21-.44c0-.07-.1-.19-.18-.16l-.47.25c0,.18,0,.36,0,.54A1.11,1.11,0,0,0,67.47,26.38Zm-10.84,9a.37.37,0,0,1-.13.17c-.34.28-.37.76-.7,1a.18.18,0,0,0,0,.1c0,.24-.12.37-.29.49a.49.49,0,0,0-.23.48c0,.07-.06.16-.11.23S55,38,55,38a.24.24,0,0,0,.08.34.19.19,0,0,0,.27-.1.67.67,0,0,0,.09-.26.84.84,0,0,1,.17-.4,5.52,5.52,0,0,0,.28-.54.73.73,0,0,1,.16-.22,3.56,3.56,0,0,0,.74-1,2.07,2.07,0,0,1,.55-.59c.23-.2.24-.54.52-.71a3.47,3.47,0,0,0,.45-.41.5.5,0,0,0,.16-.22.51.51,0,0,1,.37-.37.88.88,0,0,0,.53-.47c0-.09.11-.18.15-.26a2.13,2.13,0,0,0,.41-.08.54.54,0,0,0,.31-.21.94.94,0,0,1,.58-.47c.33-.14.39-.22.57-.58-.07,0-.14-.07-.2,0a4.87,4.87,0,0,0-.71.3A2,2,0,0,1,60,32a.9.9,0,0,0-.61.52.55.55,0,0,1-.21.24,1.35,1.35,0,0,0-.83.61c0,.07-.14.11-.21.17l-.78.59c0,.12,0,.28-.1.35A2.26,2.26,0,0,0,56.63,35.36ZM70.58,20.74c.09-.3.17-.6.25-.91,0,0,0-.12,0-.19-.41.25-.4.25-.42.59s-.06.4-.1.64C70.48,20.87,70.55,20.85,70.58,20.74ZM55,38.72a.36.36,0,0,0-.26.47c0,.06.1.1.16.12a.16.16,0,0,0,.14-.07c.06-.13.1-.27.16-.44S55,38.71,55,38.72Zm2.37-4.63h0v0Zm7-4.39s-.06.12,0,.15a.29.29,0,0,0,.16.13.27.27,0,0,0,.29-.09l.8-.84a.2.2,0,0,0,0-.29.35.35,0,0,0-.39.11A5.24,5.24,0,0,1,64.33,29.7ZM60.53,34c-.19.42-.58.7-.76,1.13h-.16c-.46,0-.52-.11-.35-.63a.76.76,0,0,0-.2.13,1.6,1.6,0,0,1-.55.45c-.09,0-.15.15-.22.24-.26.35-.52.71-.79,1.06a.82.82,0,0,1-.25.2.3.3,0,0,1-.37,0,.31.31,0,0,1,0-.4,8.79,8.79,0,0,1,.84-1.09,6.81,6.81,0,0,0,1-1.07c.44-.21.68-.68,1.12-.89a1.1,1.1,0,0,0,.42-.35,1.52,1.52,0,0,1,.32-.3c.38-.26.78-.49,1.15-.76A5.42,5.42,0,0,1,62.85,31c.17-.07.29-.27.44-.4s.36-.32.55-.47a.43.43,0,0,1,.21-.05s.06,0,.1,0a.17.17,0,0,1-.05.24,2.32,2.32,0,0,1-.63.44.94.94,0,0,0-.65.74l.44-.12s0,.08,0,.1-.23.29-.32.45a.25.25,0,0,1-.26.15c-.16,0-.22-.11-.22-.26s0-.06-.06-.11a.67.67,0,0,0-.51.45l.26.11c-.09.54-.14.59-.71.67-.09.13-.21.27-.3.43a.74.74,0,0,1-.47.44A.23.23,0,0,0,60.53,34Zm-.65-.21-.22.19.05.08a.54.54,0,0,0,.13-.07S60,33.89,59.88,33.77ZM61.19,33a.56.56,0,0,0,.19-.09c.07-.16.13-.31.19-.48-.12-.12-.23,0-.3.08a1.4,1.4,0,0,1-1,.58c0,.21-.16.36-.1.58.21-.07.22-.06.31-.19A1.07,1.07,0,0,1,61.19,33Zm-1.42,2.13h0Zm1.87.42a1,1,0,0,0,0,.27c.34-.25.34-.25.56-.78A.77.77,0,0,0,61.64,35.54Zm2.83-5.13a.94.94,0,0,1-.49.41.57.57,0,0,0-.22.15s0,.14,0,.2a.13.13,0,0,0,.19,0,3.07,3.07,0,0,1,.52-.39,2,2,0,0,0,.79-.8C64.89,30.05,64.62,30.12,64.47,30.41Zm-1.73,3.77a.22.22,0,0,0,0,.33.23.23,0,0,0,.3,0,.79.79,0,0,0,.14-.59Zm-3.74,2a8.45,8.45,0,0,0,.77-1.11,2.22,2.22,0,0,1,.37-.09.27.27,0,0,1,.22.4s0,.08,0,.09a3.32,3.32,0,0,0-.67.87.43.43,0,0,1-.21.17c-.24.08-.33.27-.44.46a2.32,2.32,0,0,1-.31.46c-.18.22-.24.22-.58,0-.09.08-.24.14-.27.24a.69.69,0,0,1-.54.46c0,.14,0,.24,0,.35-.24.16-.25.16-.41-.05a.19.19,0,0,0-.18-.08c-.06,0-.16,0-.17-.07a.33.33,0,0,1,0-.26.7.7,0,0,1,.42-.31c0,.13,0,.24,0,.35s.21-.06.26-.16a.46.46,0,0,0,0-.43s-.05-.05-.07-.08c-.14-.25-.14-.33.07-.52a3,3,0,0,1,.35-.27l.7-.49a1.09,1.09,0,0,1,.43-.91.4.4,0,0,1,.45,0,2,2,0,0,1-.36.77.81.81,0,0,1-.26.18c-.31.17-.37.31-.31.72.19.06.25-.12.36-.19A.79.79,0,0,0,59,36.23Zm-1.34.87s0,0,0,0l0,.07h0Zm2.43-1a1.1,1.1,0,0,0-.22.31c0,.05,0,.14.05.2-.32.35-.61.66-.88,1a2.7,2.7,0,0,0-.33.5.23.23,0,0,0,.19.33.29.29,0,0,0,.29-.11,5.64,5.64,0,0,0,.64-1,2.47,2.47,0,0,1,.44-.75.9.9,0,0,0,.24-.58A.4.4,0,0,0,60.09,36.09ZM63.39,30a.13.13,0,0,0,.1,0c.35-.23.69-.46,1-.71a.82.82,0,0,0,.2-.25s0-.07,0-.12-.1-.07-.12-.05a1.51,1.51,0,0,0-.41.26,1.65,1.65,0,0,1-.52.39,2.71,2.71,0,0,0-.41.35.09.09,0,0,0,0,.1A.26.26,0,0,0,63.39,30Zm-.67.68a.3.3,0,0,0,0-.16.16.16,0,0,0-.12-.09c-.36,0-.6.15-.76.63a1.28,1.28,0,0,0,.8-.3A.18.18,0,0,0,62.72,30.7Zm-2.87,7.2a.24.24,0,0,0,.14.32.21.21,0,0,0,.25-.16c.08-.22.15-.44.25-.77A1.23,1.23,0,0,0,59.85,37.9Zm-1.78,0a.28.28,0,0,0-.21.33c0,.07.11.12.15.16a.29.29,0,0,0,.29-.31A.23.23,0,0,0,58.07,37.91ZM71,20.09a4.18,4.18,0,0,1-.4,1.19,4.91,4.91,0,0,0-.24.74c0,.09,0,.18.17.22s.16-.22.22-.35.14-.37.22-.56c0,0,.06,0,.09,0s.07.19.1.28l.1,0s.07,0,.08-.06c.15-.36.3-.71.44-1.07a.17.17,0,0,0,0-.11c-.16,0-.2.11-.28.2s-.08.28-.3.31a1.14,1.14,0,0,1,.25-.72c.42.06.52-.05.48-.56l-.4.12-.19-.45a1,1,0,0,1-.11.35A1.07,1.07,0,0,0,71,20.09ZM50.6,15.15a.5.5,0,0,0-.13-.47.58.58,0,0,0-.18.78.42.42,0,0,1,0,.42.79.79,0,0,0-.08.26.32.32,0,0,0,.2.34.35.35,0,0,0,.19-.4A2.9,2.9,0,0,1,50.6,15.15Zm.2,5.6c0,.08.07.17.19.14a.89.89,0,0,0-.15-1.2A1.08,1.08,0,0,0,50.8,20.75ZM51.21,15a.36.36,0,0,0,0-.45C51,14.73,51,14.77,51.21,15Zm-.79,1.93c-.15.23-.24.34-.31.47a.3.3,0,0,0,0,.31.23.23,0,0,0,.43-.13C50.55,17.37,50.49,17.2,50.42,16.9Zm.64-.49c-.23.2-.26.22-.17.41a.86.86,0,0,1,0,.89,1,1,0,0,0-.08.26.46.46,0,0,0,.15.5c.29-.11.37-.17.38-.39a2.63,2.63,0,0,0-.06-.48A3,3,0,0,1,51.06,16.41Zm-1.1-2c-.25.25-.26.26-.25.58,0,.07,0,.14.16.12A3,3,0,0,0,50,14.39Zm.9-1A.27.27,0,0,0,50.8,13c-.06-.06-.19,0-.28.11a.44.44,0,0,0,0,.58A.56.56,0,0,0,50.86,13.35Zm-1.54,5.36a.54.54,0,0,0,.12.6c.35-.49.36-.63.14-1.34Zm1-.18a1.89,1.89,0,0,0-.43.61c-.09.17,0,.35.2.45a.32.32,0,0,0,.4-.19A.78.78,0,0,0,50.33,18.53Zm-.06-5.17s0-.07-.05-.08a.12.12,0,0,0-.1,0,.45.45,0,0,0-.08.51C50.14,13.61,50.21,13.49,50.27,13.36Zm21,5.85h0v0ZM51.55,12.78a.24.24,0,0,0-.37.09.88.88,0,0,0-.09.53.22.22,0,0,0,.23.22s.09-.08.13-.14.21-.29.33-.46A2.71,2.71,0,0,0,51.55,12.78ZM50.48,32.22a.91.91,0,0,0,.65-.94c0-.2-.14-.29-.29-.36a.32.32,0,0,0-.4.09,1.16,1.16,0,0,0-.28.64A.45.45,0,0,0,50.48,32.22Zm1.23-16.6a.72.72,0,0,0-.06.68.23.23,0,0,0,.17.11.22.22,0,0,0,.16-.12,1.25,1.25,0,0,0,0-.93A2,2,0,0,0,51.71,15.62ZM71.3,19.21h0ZM53.14,33.3a.26.26,0,0,0-.23.07,1.45,1.45,0,0,0-.41.77c0,.22,0,.34.27.43a1.68,1.68,0,0,0,.5-1.07A.25.25,0,0,0,53.14,33.3Zm-4.71,4.4a.26.26,0,0,0-.16-.11.16.16,0,0,0-.13.07,1.23,1.23,0,0,0-.07.24,2.8,2.8,0,0,0,.33,1.5.2.2,0,0,0,.28.09.18.18,0,0,0,.09-.23l0,0a3.67,3.67,0,0,1-.29-1.35A.29.29,0,0,0,48.43,37.7Zm2.48-5c0-.19-.15-.32-.36-.36a.3.3,0,0,0-.33.24c0,.25-.08.51-.11.76s0,.29,0,.43-.13.51-.21.75a1.31,1.31,0,0,0,0,.65,3.42,3.42,0,0,1,.08,1.15.56.56,0,0,0,.11.47,1.3,1.3,0,0,1,.23.78c0,.21,0,.41,0,.61s0,.48.07.72a.37.37,0,0,0,.31.32s.08-.06.09-.09a1.23,1.23,0,0,0,0-.27c0-.28,0-.56,0-.83a.74.74,0,0,0-.23-.65.35.35,0,0,1-.08-.41c0-.09.08-.17.11-.26a1.26,1.26,0,0,0,0-1c-.09-.18-.15-.37-.23-.58a1.14,1.14,0,0,0,.34-1c0-.13,0-.26,0-.39a.41.41,0,0,1,.12-.35A.78.78,0,0,0,50.91,32.66Zm-2.73,4.58a1,1,0,0,0,0-.29,3.21,3.21,0,0,0,0-.42.2.2,0,0,0-.11-.11.2.2,0,0,0-.15,0,.78.78,0,0,0-.09.83.18.18,0,0,0,.14.06C48.08,37.34,48.17,37.29,48.18,37.24Zm4.35-24.32a.22.22,0,0,0-.14-.26,1,1,0,0,0-.31-.05,1.55,1.55,0,0,0,0,1.6,7.57,7.57,0,0,0,.45-1.13A.75.75,0,0,0,52.53,12.92Zm-.24,4.74a.42.42,0,0,0,.12.41c.05.08.12.13.26.06a3.26,3.26,0,0,0,0-1A1,1,0,0,0,52.29,17.66Zm-.73,13.77a.34.34,0,0,0,.39-.1.76.76,0,0,0,.17-.52,1.59,1.59,0,0,0-.06-.43,1.33,1.33,0,0,1,0-.86,1.25,1.25,0,0,0,0-.43.18.18,0,0,0-.26-.12.66.66,0,0,0-.19.18.71.71,0,0,0,.09,1c-.08.21-.15.41-.22.62a2.47,2.47,0,0,0-.11.36A.27.27,0,0,0,51.56,31.43ZM48,35.92a1.92,1.92,0,0,0,.1-.92.62.62,0,0,1,0-.48,1.19,1.19,0,0,0,.08-1c.17-.33.44-.6.31-1-.07,0-.13,0-.17,0a.62.62,0,0,0-.34.64,1.09,1.09,0,0,1-.12.69.9.9,0,0,0,0,1,8.63,8.63,0,0,0-.26.83c0,.18,0,.32.26.37A.52.52,0,0,0,48,35.92ZM74.33,20.3h0v0ZM70.88,17a.93.93,0,0,0,.2-.15c-.11-.07-.17-.13-.25-.14s-.11.08-.13.14S70.79,17,70.88,17Zm-.48-.08a.19.19,0,0,0-.25.12c0,.08,0,.16.14.18s.24,0,.26-.16A.51.51,0,0,0,70.4,16.87Zm-.14-.44c-.1-.06-.18-.14-.26-.14a.17.17,0,0,0-.14.31.24.24,0,0,0,.3,0S70.21,16.51,70.26,16.43Zm.69,1a.2.2,0,0,0-.24.15.22.22,0,0,0,.16.24.24.24,0,0,0,.29-.18C71.17,17.56,71.07,17.46,71,17.44Zm.33-1.09c-.09,0-.17.08-.16.18a.2.2,0,0,0,.23.18c.07,0,.13-.1.24-.18A1.57,1.57,0,0,0,71.28,16.35Zm.09.72c0,.13,0,.25,0,.37a.25.25,0,0,0,.49.07,3.57,3.57,0,0,0-.14-.38C71.68,17,71.6,17,71.37,17.07Zm1.07-.51c0-.11-.11-.19-.27-.19a.61.61,0,0,0-.14.17c0,.1.08.2.2.21A.18.18,0,0,0,72.44,16.56Zm-4.16,2.08a.23.23,0,0,0-.23.19c0,.1.1.19.28.18a1,1,0,0,0,.18-.18C68.55,18.76,68.4,18.65,68.28,18.64ZM69.76,17c-.14,0-.29.11-.24.21a.5.5,0,0,0,.16.14c.15,0,.24-.11.22-.22A.25.25,0,0,0,69.76,17Zm-1.27,0s-.11.09-.1.11c.08.2,0,.3-.19.4s0,.19,0,.23l.29.11c.06-.08.16-.15.17-.23s0-.21.09-.29.07-.16,0-.24A.25.25,0,0,0,68.49,17Zm1,.5A.54.54,0,0,0,69,17.4c.07.29.18.42.39.4a.2.2,0,0,0,.14-.13A.21.21,0,0,0,69.47,17.49Zm-.15-.73c0-.11-.13-.23-.31-.24a.76.76,0,0,0-.18.21c0,.08.09.2.2.21S69.33,16.86,69.32,16.76ZM68.22,18a.14.14,0,0,0-.06.13c0,.13.19.22.34.18s.11-.09.15-.12,0-.11,0-.13A.26.26,0,0,0,68.22,18Zm6,.65c0,.07-.06.21,0,.24a7.36,7.36,0,0,0,.62.4c.05,0,.14-.06.15-.12S75,19,75,19a2.84,2.84,0,0,0-.56-.33S74.23,18.65,74.22,18.69Zm.5-.91-.24-.05a1.19,1.19,0,0,0-.1.17c0,.1-.09.2-.16.36a.93.93,0,0,0,.28.11.27.27,0,0,0,.17-.11,3.36,3.36,0,0,0,.24-.29.47.47,0,0,0,0-.12A1.07,1.07,0,0,0,74.72,17.78Zm3,1.23a1.2,1.2,0,0,1-.06.32c-.07.29-.18.56-.23.85a2.43,2.43,0,0,1-.3.83,2,2,0,0,0-.15.29,3.44,3.44,0,0,1-1.15,1.53,7.85,7.85,0,0,1-1.27.89,4.88,4.88,0,0,1-1.24.47,1.17,1.17,0,0,0-.85.69c-.27.61-.62,1.18-.92,1.77-.44.84-1,1.57-1.52,2.38a10.89,10.89,0,0,1-1.58,2c-.53.54-1.1,1-1.66,1.55s-1.17,1-1.76,1.52a4.58,4.58,0,0,1-.57.44,5.52,5.52,0,0,0-1,.79c-.51.52-1,1-1.51,1.56a3.27,3.27,0,0,0-.73,1l-.21.56h0l0,.05c0,.13-.11.53-.15.8l1.51,0c1.14,0,2.29,0,3.43-.13a5.09,5.09,0,0,1,.55,0q.25,0,.3.3a3.57,3.57,0,0,1-1,.32c-.08,0-.17,0-.22,0A3.3,3.3,0,0,1,64,40c-.49,0-1,.05-1.49,0-1.33,0-2.66-.1-4,0-.6,0-1.22,0-1.83,0-1.24,0-2.47,0-3.71.07-1,0-1.92.09-2.88.14s-2.15.09-3.22,0c-.72,0-1.44,0-2.16,0s-1.66-.11-2.49-.15a9.32,9.32,0,0,0-1.83,0,2,2,0,0,1-.65,0A3.78,3.78,0,0,0,38.55,40c-.42,0-.85,0-1.27,0a3,3,0,0,0-.66.06,4.91,4.91,0,0,1-1.15.07h-.28l.19.06c-1.33-.1-2.66,0-4,0-.5,0-1,0-1.5,0a3.12,3.12,0,0,1-1.45-.2c-.06,0-.15,0-.22,0a3.62,3.62,0,0,1-1-.31c0-.21.13-.31.3-.31s.37,0,.55,0c1.14.09,2.29.16,3.44.14l1.45,0c-.15-.24-.36-.44-.52-.67s-.29-.39-.42-.59a5.2,5.2,0,0,1-.43-1c-.44-1.15-.8-2.34-1.15-3.53-.23-.78-.41-1.57-.63-2.36s-.53-1.8-.8-2.71c-.14-.46-.27-.92-.42-1.38-.29-.86-.62-1.7-.87-2.57a11.89,11.89,0,0,0-.53-1.28.3.3,0,0,0-.3-.21c-.18,0-.37,0-.55,0a8.15,8.15,0,0,1-2.15-.08c-.42-.06-.85-.05-1.27-.1-.92-.1-1.84-.21-2.75-.34a1,1,0,0,1-.84-1.31,2.53,2.53,0,0,1,.41-.9,12,12,0,0,1,1.87-2A24.17,24.17,0,0,0,24,16.34a11.87,11.87,0,0,1,1-.91c.45-.41.92-.8,1.38-1.2a6.27,6.27,0,0,1,2.26-1.14,3,3,0,0,1,1.59,0A9.1,9.1,0,0,1,33,14.2c.52.31,1.07.58,1.61.87.76.41,1.59.69,2.39,1l2.15.89a1.59,1.59,0,0,1,.34.18.43.43,0,0,1,.06.7.79.79,0,0,0-.19.26,1.72,1.72,0,0,1-1,1c-.73.32-1.44.67-2.16,1a.89.89,0,0,1-.26.09,5.63,5.63,0,0,0-1.73.73c-.42.19-.82.42-1.23.64l-.29.17a3.9,3.9,0,0,0,.2,1.09c.1.47.22.93.36,1.39.23.75.45,1.49.72,2.22.37,1,.76,1.92,1.18,2.87a19.12,19.12,0,0,0,2.05,3.49c.54.75,1.14,1.44,1.74,2.15a.54.54,0,0,0,.12.09c.14,0,.15-.13.16-.21.15-.72.31-1.45.42-2.18a12.63,12.63,0,0,0,.07-1.38,1,1,0,0,0-.31-.76.37.37,0,0,0-.15,0,.66.66,0,0,1-.78-.37A3.26,3.26,0,0,0,37.27,29c-.25-.14-.52-.27-.79-.4a1.1,1.1,0,0,1-.62-.74,4.68,4.68,0,0,1-.17-1,3.25,3.25,0,0,1,.17-.92,6.16,6.16,0,0,1,.86-1.67c.57-.77,1.09-1.58,1.65-2.36a14,14,0,0,1,.89-1.14,4.72,4.72,0,0,1,.74-.67c.45-.32.92-.61,1.39-.9a1.47,1.47,0,0,1,.42-.13l1-.13a.54.54,0,0,1,.22,0,5.28,5.28,0,0,1,1.79.85A5.68,5.68,0,0,1,45.93,21l1,1.36a9.65,9.65,0,0,1,1,1.69,8.32,8.32,0,0,1,.45,1.3,1.63,1.63,0,0,0,.14.34.93.93,0,0,0,.13-.58c0-.83,0-1.66,0-2.49s0-1.92.05-2.88a4.46,4.46,0,0,0,0-.82l-.91-.17h-.11a19.33,19.33,0,0,1-3.73-.39c-.8-.15-1.59-.33-2.38-.49-.05,0-.13,0-.15-.06-.23-.33-.62-.4-.94-.56a4.07,4.07,0,0,1-.93-.59,1.23,1.23,0,0,0-.36-.25,1.15,1.15,0,0,1-.6-.55A4.62,4.62,0,0,1,38,14.64a3.4,3.4,0,0,1,0-1.31,6.25,6.25,0,0,1,.67-1.87,15.52,15.52,0,0,1,1.14-2c.51-.75.94-1.55,1.51-2.26S42.45,5.89,43,5.25l.59-.66a1.14,1.14,0,0,1,.15-.16,4.87,4.87,0,0,0,1.12-.9,10,10,0,0,1,1.3-.94,22.15,22.15,0,0,1,2.48-1.47c.3-.15.61-.26.92-.39s.55-.22.81-.35a1.79,1.79,0,0,1,.64-.17c.27,0,.54-.09.82-.12.44,0,.88-.09,1.32-.09s1.1,0,1.66.06a4.17,4.17,0,0,1,.71.07A11.94,11.94,0,0,1,58.42,1,10.72,10.72,0,0,1,60,1.6a4.83,4.83,0,0,1,.79.39c1,.52,2.07,1,3,1.58a29.55,29.55,0,0,1,2.74,1.88A12.42,12.42,0,0,1,68,6.8a2.88,2.88,0,0,1,.8,1.37c0,.07,0,.14.07.21a2.66,2.66,0,0,1,.18,1.09A10.55,10.55,0,0,1,68.93,11a2.16,2.16,0,0,1-.32.82,11.55,11.55,0,0,1-1.46,1.88,6.44,6.44,0,0,1-1.9,1.5,2.19,2.19,0,0,0-.29.17,18.59,18.59,0,0,1-2.23,1.12,4.91,4.91,0,0,1-.58.18c-.57.19-1.17.34-1.73.58a8.14,8.14,0,0,1-1.21.39l-2.06.48a1.49,1.49,0,0,0-.08.32c0,1.26-.06,2.52,0,3.78,0,1,.06,1.92.1,2.88,0,.22.06.43.09.7a1.23,1.23,0,0,0,.27-.11c.16-.13.3-.27.46-.42,0-.14,0-.26-.07-.38s-.07-.21,0-.27a1.64,1.64,0,0,0,.06-.82A3.25,3.25,0,0,1,59,21.2a7,7,0,0,1,2.74-1.42A6.66,6.66,0,0,1,63,19.49a3.31,3.31,0,0,1,2,.24.78.78,0,0,0,.5.15c0-.1,0-.21-.05-.31a3.26,3.26,0,0,1,.45-2.49,8.56,8.56,0,0,1,1.23-1.7s0,0,0,0A10,10,0,0,1,68.89,14L70,13.4a6.55,6.55,0,0,1,2.3-.58,1.61,1.61,0,0,1,.65.07c.32.09.63.22.94.34a2.16,2.16,0,0,1,.34.17l.58.33a1.76,1.76,0,0,1,.89.79.73.73,0,0,0,.2.26,6.42,6.42,0,0,0,.62.55,1.53,1.53,0,0,1,.56.8,1.6,1.6,0,0,0,.38.67.76.76,0,0,1,.22.6C77.66,17.94,77.7,18.47,77.71,19Zm-39.09-4.1,0-.08s0,.05,0,.08a.56.56,0,0,1,0,.08Zm33.22-1.42a3.84,3.84,0,0,1,.35,1.3.18.18,0,0,0,.09.12.65.65,0,0,0,.2,0l-.26-.46c.36,0,.61.06.86.11a.53.53,0,0,1,.29.14,1.48,1.48,0,0,0,1,.48l.23,0c.09.09,0,.28.21.25,0-.15.1-.31.16-.46a.66.66,0,0,0-.27-.86,4.09,4.09,0,0,0-.68-.38,2.59,2.59,0,0,0-1.4-.22A1.06,1.06,0,0,1,71.84,13.49ZM70.94,15c.11,0,.22,0,.27-.09-.06-.26-.11-.5-.18-.78-.2.2-.18.45-.27.64S70.82,15,70.94,15Zm-1.47-.83a.83.83,0,0,0,.24.13s.09-.11.11-.17-.07-.14-.14-.11A1.44,1.44,0,0,0,69.47,14.21Zm.23.78c-.18.27-.18.27-.14.49.1-.05.23-.08.26-.15S69.77,15.16,69.7,15Zm-1.34-.07s.06.11.07.11a.93.93,0,0,0,.19-.12c-.08-.05-.12-.1-.15-.09A.16.16,0,0,0,68.36,14.92Zm-.93.89c0,.13,0,.25.06.37s0,.21,0,.32a1.23,1.23,0,0,0,.11.26l.26-.23c-.2-.29-.2-.28-.4-.35,0-.12.08-.24.11-.36s-.06-.07-.1-.08A.12.12,0,0,0,67.43,15.81Zm-1.08,1.54a1.33,1.33,0,0,1,.22.2c.06.08.11.17.18.25.15-.11.21-.23.14-.39l-.27-.59A.74.74,0,0,0,66.35,17.35ZM66,19.9l.1,0,0-.1s-.08,0-.08,0S66,19.87,66,19.9Zm-.11-1.14,0,0,0,0,0-.09Zm-.2,4.41s.06.1.12.19a2.75,2.75,0,0,0,.14-1.25s-.06-.07-.09-.11l0,0C65.73,22.42,65.69,22.79,65.66,23.17Zm-.16,1c.23-.11.19-.21.14-.35Zm-.27,2.17a.49.49,0,0,1-.15.17,5.53,5.53,0,0,1-1.84,1,2.59,2.59,0,0,0-.71.29,1.26,1.26,0,0,1-1.06.21.5.5,0,0,0-.54.16l-.37.35c-.06.06-.14.14-.14.22a1.45,1.45,0,0,1-.43.88c-.26.24-.22.62-.46.87l-.15.16a2.48,2.48,0,0,0-.48.87,1.05,1.05,0,0,0,0,.3l.33-.22c.82-.59,1.65-1.19,2.48-1.77a17.33,17.33,0,0,0,2.4-2c.54-.54,1.07-1.08,1.58-1.64a8.32,8.32,0,0,0,1.78-2.84c0-.1,0-.21.09-.33-.42-.18-.55-.66-1-.82a1.81,1.81,0,0,0-.11.72A5.58,5.58,0,0,1,66,24.85C65.77,25.35,65.49,25.83,65.23,26.31Zm2.23-1.06.07-.24a.16.16,0,0,0,0-.07v0a1,1,0,0,0,.48-.75,1.24,1.24,0,0,0-.48.75h0l0,.08C67.48,25.07,67.39,25.11,67.46,25.25Zm-8.38,4.59a.72.72,0,0,0,.35-.53c0-.09.1-.19.18-.26a1.59,1.59,0,0,0,.5-1,3.36,3.36,0,0,0-.42.32,6.07,6.07,0,0,0-.43.57.91.91,0,0,0-.17.28,2.17,2.17,0,0,1-.54.88c-.07.08-.15.18-.12.21C58.64,30.17,58.87,30,59.08,29.84Zm3.7-3.35s.07.05.08,0a1,1,0,0,0,.18-.17L63,26.27l-.18.17A0,0,0,0,0,62.78,26.49Zm.5-.46s0,.06,0,.1.11,0,.13-.06a1.91,1.91,0,0,1,.49-.45.64.64,0,0,0,.33-.54,3.37,3.37,0,0,1,.07-.45A9.22,9.22,0,0,0,63.28,26Zm1.09-1.58s.08,0,.08,0a2,2,0,0,0,0-.24l-.07,0-.1.21S64.34,24.45,64.37,24.45Zm.38-1.59a3.85,3.85,0,0,0-.28.66c0,.11-.1.25.08.35a.61.61,0,0,0,.12-.16q.18-.37.33-.75c.14-.38.28-.76.4-1.15a1.22,1.22,0,0,0,0-.34c-.09.06-.16.07-.17.11a1.73,1.73,0,0,0-.19.45A2.76,2.76,0,0,1,64.75,22.86Zm-.19-1.32c-.09.06-.15.09-.17.13a6.09,6.09,0,0,1-.57,1.07,16.52,16.52,0,0,1-1.12,2s0,0,0,.17c.13-.12.22-.17.29-.25s.34-.44.52-.65a5.57,5.57,0,0,0,1-2A1.78,1.78,0,0,0,64.56,21.54Zm-.28-.44s.07,0,.1,0a.18.18,0,0,0,.05-.07s0,0-.06-.07Zm-.29.14a6,6,0,0,0-1.79,2.07c-.1.13-.23.26-.11.49l.17-.09c.54-.63,1.08-1.26,1.61-1.9a1.38,1.38,0,0,0,.18-.39S64,21.33,64,21.24Zm-1.77-1.11c.11.1.19,0,.27,0h0v0c.11,0,.25,0,.3-.19-.15,0-.28,0-.3.19h0A.18.18,0,0,0,62.22,20.13Zm-3.39,4.39s0,.06.06.09c.24-.11.14-.46.42-.59a.75.75,0,0,0,.79.14,1.86,1.86,0,0,1,.33,0,.22.22,0,0,1,.26.27c0,.13,0,.25,0,.38a1.2,1.2,0,0,0,.16.69c.11.21.33.27.51.36-.06.2-.32.3-.13.52A1.94,1.94,0,0,0,62.45,26l-.16-.37c0-.12.12-.25,0-.37l-.36.07a3.45,3.45,0,0,0,0-1.36A1.78,1.78,0,0,1,61,24c0-.08,0-.15,0-.18.35-.47.68-1,1.08-1.4s1-1,1.51-1.45c.07-.07.18-.13.13-.28a8.63,8.63,0,0,0-1.64.93l-.25-.36,1.2-1a.59.59,0,0,0-.48.11c-.28.18-.56.37-.82.56a3.9,3.9,0,0,1-.71.42,3.76,3.76,0,0,0-1.49,1.22,1.1,1.1,0,0,0-.25.59,2,2,0,0,1-.42,1.17A.49.49,0,0,0,58.83,24.52Zm-.13-1.14,0,0,0,0Zm.24-6.28a.28.28,0,0,0-.12-.21,2.2,2.2,0,0,0-.43,0,2.69,2.69,0,0,0,.29.32C58.76,17.25,58.94,17.18,58.94,17.1Zm2.7-.9a.23.23,0,0,0-.07-.13.77.77,0,0,0-.26,0,.17.17,0,0,0-.11.09.19.19,0,0,0,.07.13.28.28,0,0,0,.14.06.43.43,0,0,0,.16-.05S61.64,16.22,61.64,16.2Zm2.29-1a1.55,1.55,0,0,0-.24-.22s-.11,0-.13.07.07.21.19.23S63.84,15.23,63.93,15.19Zm1.75-1.46-.12,0a1.33,1.33,0,0,0-.57.52l.61-.05c.14,0,.27-.05.29-.2S65.78,13.79,65.68,13.73Zm1.61-1.26a.26.26,0,0,0-.13-.14.47.47,0,0,0-.2,0s0,.09,0,.09l.27.16S67.31,12.49,67.29,12.47Zm.48-3c.27-.13.27-.13.27-.34C67.69,9.23,67.7,9.23,67.77,9.48Zm-.39,2.19a2.14,2.14,0,0,0,.92-.92s-.06-.06-.08-.06l-.61.17A3.49,3.49,0,0,0,67.38,11.67Zm-.44-3.42c.2,0,.36,0,.43-.26a.54.54,0,0,0-.19-.64C67.15,7.67,66.86,7.91,66.94,8.25ZM65.62,6.63c-.22.32-.07.64,0,1,.1-.13.2-.25.29-.38a.33.33,0,0,0,0-.41A.3.3,0,0,0,65.62,6.63ZM65.5,6c0,.1.08.17.18.14s.1-.07.2-.15l-.3-.16A.38.38,0,0,0,65.5,6Zm-1.88-.89c.06.33.11.54.13.76a4.36,4.36,0,0,0,.31,1.05c0,.08.1.17.21.14s.17-.09.19-.16a.9.9,0,0,0-.08-.8A8.82,8.82,0,0,0,63.62,5.09Zm-.44-.62c0,.09.18.12.29.06s.1-.1.16-.16a.76.76,0,0,0-.17-.15.2.2,0,0,0-.27.1A.2.2,0,0,0,63.18,4.47Zm.3.38,0,0,0,0v0ZM62,5.58a.73.73,0,0,1,.16.87,3.1,3.1,0,0,0-.13.4.32.32,0,0,0,.43.1c0-.33.05-.67.07-1a.43.43,0,0,0,0-.22c-.12-.3-.25-.61-.39-.91,0-.06-.12-.1-.22-.17A.78.78,0,0,0,62,5.58ZM59.58,4.21c.06.47.06.47.56.55.2,0,.24.08.3.27a.8.8,0,0,1-.07.64.18.18,0,0,0,.09.29l.31-.37a.68.68,0,0,0,0-.91,2,2,0,0,1-.39-1,.35.35,0,0,0-.08-.13c-.33-.06-.33-.06-.66-.37,0,.2,0,.33,0,.45s-.07.25-.09.38A.86.86,0,0,0,59.58,4.21ZM57.84,1.43l0,.05v0Zm-1.46.31a3.43,3.43,0,0,0,.32.41,1.08,1.08,0,0,0,.4.28.61.61,0,0,1,.46.42c.09.26.17.53.27.78a.47.47,0,0,1-.11.51l-.28.38.28.67c.49.17.73.67,1.24,1a1.92,1.92,0,0,0-.57-1.82A1.15,1.15,0,0,1,58,3.66a2.63,2.63,0,0,0-.36-1,4.07,4.07,0,0,1-.44-.76,2.23,2.23,0,0,0-.46-.61.28.28,0,0,0-.35-.1Zm2.42,4.7,0,0,0,0,.06,0Zm-2.73-.9a1.15,1.15,0,0,1,.67,1,.32.32,0,0,0,.18-.37c-.08-.5,0-1-.5-1.41-.07,0-.07-.17-.13-.24s-.09,0-.14,0c-.08.26-.15.5-.22.75A.26.26,0,0,0,56.07,5.54ZM54.54,1.43c0,.2.06.35.08.49a.33.33,0,0,0,.26.32c.07,0,.13.07.2.09a.7.7,0,0,1,.49.41,2.37,2.37,0,0,0,.33.35,1.55,1.55,0,0,0-.25-.87L55,1.2l-.1-.05Zm-.36,3c.11.74.23,1.47.35,2.21.16,0,.17-.12.16-.23,0-.49-.08-1-.15-1.47a2,2,0,0,0-.14-.47c0-.06-.1-.1-.15-.15S54.17,4.41,54.18,4.43Zm-.9-2.23a2.4,2.4,0,0,1,.55,1,1.82,1.82,0,0,0,.27.41,1.76,1.76,0,0,0,0-1.1c-.07-.24-.16-.48-.25-.72a1.73,1.73,0,0,0-.38-.64c-.21.07-.36.18-.37.39A.87.87,0,0,0,53.28,2.2Zm-.86.67c0,.06.08.11.19.26,0-.43,0-.72,0-1a1.59,1.59,0,0,0-.07-.38.13.13,0,0,0-.19-.09A3.86,3.86,0,0,0,52.42,2.87Zm.15,4,.37-.4a1,1,0,0,1,0-.61s0-.11,0-.16A4.1,4.1,0,0,0,52.5,5a3.27,3.27,0,0,0-.19,1.28A.52.52,0,0,0,52.57,6.83Zm-2.9-4.17c.48,0,.48,0,.64-.28l.3-.48c0-.22,0-.47-.25-.64-.31.14-.39.44-.55.68A1,1,0,0,0,49.67,2.66ZM49.3,4.52l-.09-.42a3.74,3.74,0,0,1-.24.54,2.9,2.9,0,0,1-.36.34,1,1,0,0,0-.2.89.82.82,0,0,0,.1.26.58.58,0,0,1,0,.48c0,.1,0,.21-.08.39l.25.18a1.78,1.78,0,0,0,.18.08c.07-.18.13-.34.19-.53a3,3,0,0,0,1.35-.47c0,.19.07.35.11.53.35-.2.35-.68.74-.8a3.64,3.64,0,0,0,0-.51,2.92,2.92,0,0,0-.13-.42.51.51,0,0,1,0-.17l-.06-1.44A.45.45,0,0,1,51.36,3a.43.43,0,0,0,.28-.32,1.32,1.32,0,0,0-.08-1,.81.81,0,0,0-.47.54c-.07.33-.14.65-.2,1a1.55,1.55,0,0,0,0,.43,3.45,3.45,0,0,1,0,1.11c0,.06,0,.12-.07.22a1.1,1.1,0,0,1-.13-.17s0-.1-.07-.14a.68.68,0,0,0-.92-.27Zm-1-2.23a.49.49,0,0,0,.46-.38A.47.47,0,0,0,48.26,2.29ZM43.48,7.17a.62.62,0,0,1,.07.19,2.53,2.53,0,0,0,0,.28.62.62,0,0,0,.92.52l.23-.09a2,2,0,0,0,.33.4c.19.12.09.35.22.48a.77.77,0,0,0,.51-.2,3.32,3.32,0,0,1-.26-.28.48.48,0,0,1,.06-.77A5.32,5.32,0,0,0,47,5.7s.1-.08.21-.16c0,.27,0,.47,0,.67s-.24.32-.22.58c.45-.13.58-.52.85-.8a.74.74,0,0,1,.11-.78l.33-.44c.13-.18.3-.34.41-.53a1.93,1.93,0,0,1,.49-.65A.52.52,0,0,0,49.28,3a.57.57,0,0,0-.46-.36.85.85,0,0,0-.54.09l-1.06.46a3.28,3.28,0,0,0-.76.46,12.91,12.91,0,0,0-2.34,2.5c-.13.18-.28.35-.42.53l-.18-.17C43.27,6.86,43.27,6.85,43.48,7.17ZM42.91,9c.2.21.15.47.16.72,0,0,0,.05.09.1l.49-.19a.58.58,0,0,1-.34-.62c0-.25,0-.51,0-.76a.5.5,0,0,0-.14-.41c-.29.34-.15.75-.26,1.11C42.89,9,42.9,9,42.91,9ZM42,7.15c.16.23.16.23.6.27a1.19,1.19,0,0,0-.2-.68Zm-.21,1.47c.31,0,.42-.1.37-.35Zm-.1,2a.3.3,0,0,0,.34-.16C41.86,10.28,41.83,10.29,41.71,10.65Zm-.16-1.77h.07a.28.28,0,0,0,0-.09h0Zm-.14.37,0,0v0Zm-.24.29c.24.2.24.2.45.24C41.5,9.65,41.46,9.47,41.17,9.54Zm-1.39.94a.27.27,0,0,0,.42-.08,2.58,2.58,0,0,0,.29-1,4.34,4.34,0,0,0-.77.94S39.74,10.46,39.78,10.48Zm-.61,4c0-.09,0-.21-.17-.21a.31.31,0,0,0,.14.47A1.22,1.22,0,0,0,39.17,14.51Zm.21-2a.28.28,0,0,0-.2,0,.37.37,0,0,0-.11.18c-.08.2-.15.41-.22.62l.21.11c.14-.28.27-.52.38-.77A.2.2,0,0,0,39.38,12.51Zm1,4.44c-.09-.23-.18-.35-.41-.32C40,16.83,40.18,16.88,40.39,17Zm3,1s0-.08,0-.08a1,1,0,0,0-.25,0s0,.07.05.08S43.34,18,43.43,17.94Zm3.35.23c0-.11,0-.19-.09-.24a.24.24,0,0,0-.34,0s0,.08,0,.1S46.59,18.16,46.78,18.17Zm1.71.12v0l0,0Zm.17-3.4a5.05,5.05,0,0,0,.11-1,4.44,4.44,0,0,1-.47.25.37.37,0,0,1-.4-.13.46.46,0,0,1,.28-.69c.23-.06.48,0,.67-.23l-.17-.48H49c.2,0,.39.09.59.1s.17-.06.16-.21a2.7,2.7,0,0,1-.36.09.36.36,0,0,1-.36-.22c-.06-.15.06-.24.16-.31A.36.36,0,0,1,49.3,12l.74.25c.14-.12.4-.09.45-.36,0,0,.14-.09.23-.11.26-.06.35.21.53.33.24-.12.52-.11.72-.27a.85.85,0,0,0-.55-.6s-.06-.13-.05-.19a.12.12,0,0,1,.18-.07,4.83,4.83,0,0,1,1.12.62,1.54,1.54,0,0,1,.51,0,2.17,2.17,0,0,0,1,.16c.07,0,.15,0,.16-.1a2.71,2.71,0,0,1-.39-.17.27.27,0,0,1-.12-.22c0-.12.09-.19.21-.22a.29.29,0,0,1,.3.11.37.37,0,0,0,.48.14c.09,0,.17-.09.28,0a1.32,1.32,0,0,0-.07.3.25.25,0,0,0,.1.17s.11,0,.15,0,.2-.16.33-.27a.91.91,0,0,0,.82-.19l.14.06c.2.16.24.27.16.47s-.22.17-.37.14-.11,0-.16,0a.83.83,0,0,0-.2.11,3.39,3.39,0,0,0,1.14.4c.08,0,.16-.06.25-.09l-.09-.12c-.12-.19-.13-.29,0-.37a.27.27,0,0,1,.38.07.75.75,0,0,1,.1.2c0,.1,0,.2.08.31s0,.27-.15.35-.47.21-.7.3c0,.17,0,.27.19.28l.37-.25a.8.8,0,0,0,.51.19c.12,0,.18.11.19.23a.2.2,0,0,1-.23.19l-.16,0c-.21-.06-.31,0-.37.22s-.07.08-.1.12h-.26a9.9,9.9,0,0,0,0,1.22c0,.4-.16.8,0,1.19a3.34,3.34,0,0,0,1.6-.26c-.21-.28-.22-.38,0-.54a.23.23,0,0,1,.3,0,.28.28,0,0,1,.14.33c0,.07-.07.14-.11.24.53-.08.53-.08.82-.41.08-.09.19-.15.28-.07a.31.31,0,0,0,.49-.06c.16-.24.3-.41.62-.27.06,0,.17-.05.25-.08A19.91,19.91,0,0,0,64.29,14a4.37,4.37,0,0,0,.48-.37c.31-.27.6-.56.92-.81a2.61,2.61,0,0,0,.87-1c.08-.21.19-.4.28-.6a1.63,1.63,0,0,0,.15-.66l-.3-.14c-.35-.17-.37-.22-.24-.64l.36,0c.15,0,.16.26.38.2,0-.07,0-.16,0-.2a7.77,7.77,0,0,0-.86-.77,7,7,0,0,0-1-.53c-.14-.07-.28-.19-.49-.1,0,.16,0,.32,0,.48a.48.48,0,0,1-.45,0c-.18-.07-.23-.21-.1-.34a2.14,2.14,0,0,1,.34-.25,4.94,4.94,0,0,0-1.35-.36A7.08,7.08,0,0,0,62,7.63c0,.2,0,.35,0,.5l-.12.06h-.11c-.29-.07-.33-.16-.25-.47a.5.5,0,0,0,0-.18l-.71-.13a11.67,11.67,0,0,0-2.43-.2c-1.18,0-2.36.16-3.54.2a.65.65,0,0,0-.46.14.69.69,0,0,1-.63.14,2.6,2.6,0,0,0-.88,0c-.38.06-.76.15-1.15.19a6.28,6.28,0,0,0-1.55.38,2.43,2.43,0,0,1-.55.09l-.38.05c-.46.11-.94.21-1.4.35-.92.27-1.85.52-2.74.85s-1.73.75-2.59,1.15a4.38,4.38,0,0,0-.6.39c-.17.11-.32.24-.49.36a5.83,5.83,0,0,0-1.16.94,1.3,1.3,0,0,0-.45,1,.38.38,0,0,1,0,.21,2,2,0,0,0-.12.87,1.19,1.19,0,0,0,.3.82c.24.28.5.54.68.74.36.12.64.23.92.31a9.27,9.27,0,0,0,1.11.32,4.89,4.89,0,0,1,1,.29,2.2,2.2,0,0,0,1.24.18c0-.07,0-.12,0-.17a.73.73,0,0,1,.06-.21c0-.07.12-.16.19-.17s.16.06.18.07a2.77,2.77,0,0,1,.51-.15s.14.07.16.12a.26.26,0,0,1-.27.36c-.1,0-.19-.13-.29,0s0,.09,0,.09a14.2,14.2,0,0,0,3,.17,3.42,3.42,0,0,0,0-.45c0-.12,0-.27-.12-.33a.13.13,0,0,0-.1,0c-.12.07-.08.19-.09.3s-.13.25-.3.21-.29-.17-.23-.31a1.3,1.3,0,0,0,.11-.48.54.54,0,0,1,.26-.46c.13-.09.25,0,.38,0s.06,0,.13-.06C48.6,15.51,48.64,15.2,48.66,14.89ZM49.14,23c0-.05-.08-.1-.17-.2,0,.6,0,1.12,0,1.67.16,0,.19-.07.17-.13a1.78,1.78,0,0,1,0-1.07A.82.82,0,0,0,49.14,23Zm-.2,2.24a1.59,1.59,0,0,0-.09,1c.1-.28.2-.48.26-.7A.28.28,0,0,0,48.94,25.26Zm-1.62,1.95a1.15,1.15,0,0,0,.43-.91.65.65,0,0,0-.18-.57.71.71,0,0,0-.08.47,3.21,3.21,0,0,1-.07.43C47.39,26.79,47.37,26.94,47.32,27.21Zm-.9.52a.87.87,0,0,0-.1.25c0,.09,0,.15-.11.16s-.14,0-.14-.12a.25.25,0,0,0-.15-.19c.1-.19.16-.37-.08-.51a3.63,3.63,0,0,0-.19.52,1,1,0,0,0,0,.42c0,.06.16.08.22.13a2,2,0,0,1,.22.26c.17-.17.31-.32.44-.47a.39.39,0,0,0,.06-.41.14.14,0,0,0-.08-.07A.09.09,0,0,0,46.42,27.73Zm-.07-5,0,.06.05-.06-.08,0A.15.15,0,0,0,46.35,22.75Zm-.42,2.68a2.65,2.65,0,0,1,.37.8s.07.06.12.09c.09-.51.1-.52-.19-1.92a3.64,3.64,0,0,0-.44-1.14,1,1,0,0,0-.24.59A2.92,2.92,0,0,0,45.93,25.43Zm-1.7-5.37a7.15,7.15,0,0,0,1.15,1.36s.07,0,.1,0A3.13,3.13,0,0,0,44.23,20.06Zm-1,5a2,2,0,0,1,.4,1.07,5.23,5.23,0,0,0,.12.54.5.5,0,0,1,0,.46c-.06.11,0,.28,0,.43s.08.13.08.19a.46.46,0,0,1-.06.26s-.13,0-.2,0-.16,0-.18.08a1.06,1.06,0,0,0-.09,1,.17.17,0,0,0,.23.07.45.45,0,0,0,.14-.1,2,2,0,0,1,.78-.48c.07,0,.12-.07.19,0s.17.11.25,0,.19-.17.18-.25a1.49,1.49,0,0,1,.13-.47A3.67,3.67,0,0,0,45.3,27a4.26,4.26,0,0,0-.13-1.59.45.45,0,0,1,0-.11,4,4,0,0,0-.34-1.56c0-.07,0-.15,0-.22-.16-.53-.33-1.06-.5-1.58,0-.06-.08-.09-.2-.23.07.31.13.5.16.69a3.68,3.68,0,0,1,.06.66,3.56,3.56,0,0,0,.2,1c.13.43.27.85.37,1.28a6.43,6.43,0,0,1,.14,1,3.35,3.35,0,0,0,0,.77c.06.19-.18.35-.36.27a.81.81,0,0,1-.24-.21,4.1,4.1,0,0,0-.29-.4.6.6,0,0,1-.17-.4c0-.4-.06-.81-.07-1.21a6.23,6.23,0,0,0-.45-2.17c-.09,0-.12,0-.12,0-.09.51-.18,1-.26,1.53A.61.61,0,0,0,43.24,25Zm1.55,9.35s0,.06.05.09.06-.06.06-.08,0-.06,0-.09S44.79,34.34,44.79,34.37Zm0-.46a1.41,1.41,0,0,0-.1-.88C44.77,33.4,44.8,33.65,44.83,33.91Zm.11-5.2-.06.08s0,0,0,0l.08,0Zm-3.16-8.27a.31.31,0,0,0,.33-.27s0-.07,0-.08-.09,0-.1,0S41.86,20.3,41.78,20.44Zm.11,5.2A.83.83,0,0,1,42,26a2.72,2.72,0,0,0,.21.85,2,2,0,0,1,.12.76c0,.11,0,.22,0,.35.21,0,.23-.1.21-.19a2.82,2.82,0,0,1,0-.82,1.82,1.82,0,0,0,0-.33c0-.46-.06-.92-.1-1.38a4.06,4.06,0,0,1,.05-1.1,2.63,2.63,0,0,0,0-.93.44.44,0,0,0-.43.19c-.11.15-.25.27-.25.48s-.06.4,0,.6A2.88,2.88,0,0,0,41.89,25.64Zm.58,2.58a.1.1,0,0,0-.08-.06l-.1,0c0,.28-.21.55-.06.86A.8.8,0,0,0,42.47,28.22ZM38.11,23.5a2.47,2.47,0,0,0,.32-.27,16.06,16.06,0,0,0,1.81-2.59A10.16,10.16,0,0,0,38.11,23.5Zm-.52,5.06c-.23-.27-.4-.45-.56-.65a1.6,1.6,0,0,1-.21-.32,2.59,2.59,0,0,1,.06-2c0-.06,0-.13,0-.34a2,2,0,0,0-.16.25A7.1,7.1,0,0,0,36.48,27c0,.53,0,1,.58,1.31.1.05.17.15.26.2A.94.94,0,0,0,37.59,28.56Zm2.2-.46a3.43,3.43,0,0,1,.54,1.06h0l-.13-.1c-.07,0-.15-.09-.17.06l.3,0h0l.27.1a1.86,1.86,0,0,1,.59-.56l.23.19a3,3,0,0,1,.18-.24.5.5,0,0,0,.08-.52,2,2,0,0,0-.23-.44.22.22,0,0,0-.19-.08c-.08,0-.18.1-.19.17a1.25,1.25,0,0,0,0,.43.4.4,0,0,1-.23.5,2,2,0,0,0-.46-.27A.58.58,0,0,1,40,28a4.11,4.11,0,0,1-.18-1.43,16.07,16.07,0,0,1,.19-1.7,3.37,3.37,0,0,1,.88-1.57h.06c.06.29-.12.54-.14.81a.54.54,0,0,1-.24.41,1.19,1.19,0,0,0-.43.93,3.37,3.37,0,0,0,0,.55c0,.48.15.61.66.72a.47.47,0,0,1,.09.06c.11.09,0,.31.27.33a.94.94,0,0,1,0-.41c0-.13.19-.21.28-.33a1.6,1.6,0,0,0,.15-1.58.82.82,0,0,0-.16-.22c-.07-.08-.16-.15-.24-.23s.06-.3.08-.45A9.91,9.91,0,0,0,41.53,22c0-.33,0-.66,0-1a3,3,0,0,1-.32-.12.62.62,0,0,0-.79.18l-.19.2a23,23,0,0,0-1.93,2.57,1.47,1.47,0,0,0-.25.89c0,.55-.16,1.09-.11,1.64a.5.5,0,0,1,0,.17,2,2,0,0,0,.59,2c.07.07.15.11.23,0a3,3,0,0,1-.46-2.57.93.93,0,0,0,.83-.33c.15-.14.27-.3.41-.45s.08-.13.18-.06,0,.17,0,.26a4.85,4.85,0,0,0-.14,2A2,2,0,0,0,39.79,28.1Zm1.07,1.3s0,0-.08.05,0,.06.07.07,0,0,.07-.06S40.88,29.4,40.86,29.4ZM38.53,17.82c.07-.11.14-.2.19-.29s0-.07,0-.13c-.17-.1-.33-.26-.58-.18C38.06,17.54,38.24,17.68,38.53,17.82Zm-3.2-1.45.56.95c.06.09.16.06.32-.13C35.87,17,35.87,16.52,35.33,16.37Zm-1.46.45c0,.2,0,.38,0,.62.2,0,.35,0,.49-.05a.56.56,0,0,0,.24-.13.23.23,0,0,0,0-.38.43.43,0,0,0-.23-.12A1.22,1.22,0,0,0,33.87,16.82Zm-.58-1.19c0,.08.08.14.15.08s.17,0,.25,0a.26.26,0,0,0,.19-.08.31.31,0,0,0,0-.19h0l0,0H34l0,0-.07,0h0v0a1.53,1.53,0,0,0-.36-.07.28.28,0,0,0-.2.06A.26.26,0,0,0,33.29,15.63Zm-.41-.73a1.06,1.06,0,0,0,.09.25s.1,0,.14,0,.08-.11.06-.12a1.39,1.39,0,0,0-.21-.21Zm-.16,2a1.72,1.72,0,0,0-.37.07c0,.16,0,.28,0,.44.29.05.52.11.71-.11C33.05,17,33,16.87,32.72,16.86Zm-.61-1.57,0,.09.33,0c0-.09.08-.18-.07-.25Zm-.25.38,0,0,0,0ZM30.67,17a1,1,0,0,0,.52.43c.15-.09.33-.14.39-.37A1.9,1.9,0,0,0,30.67,17Zm.61-1.4.1,0a.5.5,0,0,0,0-.13s-.08,0-.08,0A.71.71,0,0,0,31.28,15.64Zm-1.13-1.78c.21.28.35.62.71.8a2.15,2.15,0,0,1,.38.31l.25.19a.7.7,0,0,0-.24-.78,8.85,8.85,0,0,0-.87-.59s-.1,0-.15,0Zm.16,1.66c.18-.49.18-.49-.36-.94A1.07,1.07,0,0,0,30.31,15.52ZM29.62,17a.88.88,0,0,0,.13.53c.15-.07.3-.15.24-.35A.26.26,0,0,0,29.62,17Zm-.2-1.12c.31-.28.31-.35,0-.51C29.3,15.48,29.37,15.63,29.42,15.84Zm-.8.08c0,.09.09.11.2.05-.09-.42.15-.82.18-1.29l-.13,0A2.19,2.19,0,0,0,28.62,15.92Zm-.16-1.66s.07.06.08.05a.24.24,0,0,0,.07-.12l-.08-.06Zm-.92,2.18a.63.63,0,0,0,.19.91l.35.22,0,.38.49-.1-.21-.29c.16-.18.34-.35.48-.54a.53.53,0,0,0,0-.71A1,1,0,0,0,27.54,16.44ZM25,17a2.23,2.23,0,0,0-.2.33,1,1,0,0,0-.07.65.42.42,0,0,0,.65.35,1.57,1.57,0,0,0,.47-.38c.43-.48.84-1,1.26-1.47a5.58,5.58,0,0,0,.38-.47c.49-.71.47-.5.3-1.38a1.72,1.72,0,0,0-1.07.49A14.52,14.52,0,0,0,25,17Zm2.06.45c-.29.1-.31.38-.49.54a6.75,6.75,0,0,0-.53.54c.4-.09.84-.06,1.17-.4C27.16,17.89,27.11,17.67,27.06,17.43Zm-2.82-.33a11,11,0,0,0,1.5-1.38.26.26,0,0,0,.06-.13h0v0c.32-.12.32-.12.38-.46-.16.18-.34.26-.38.46h0s-.1,0-.13,0c-.43.37-.86.74-1.28,1.12C24.31,16.82,24.18,16.91,24.24,17.1Zm-.46,2.15a.74.74,0,0,0,.2,0,3.61,3.61,0,0,0,.46-.17c.29-.12.32-.18.24-.63C24.37,18.74,24.09,19,23.78,19.25Zm-.69-1.08.43-.36C23.21,17.91,23.21,17.91,23.09,18.17Zm.34,1.22c0,.06-.05.13-.09.19h0l-.15,0h-.05s0,.06,0,.06h.16l.19-.1s0-.06,0-.09S23.45,19.37,23.43,19.39ZM21,19.9c.1,0,.15.08.18.07a.88.88,0,0,0,.28-.17,8.57,8.57,0,0,1,1.32-1.16.45.45,0,0,0,.1-.13s0-.09,0-.1a.23.23,0,0,0-.14,0,.37.37,0,0,0-.14.07Zm.78,1.21c.23,0,.3-.06.66-.51C21.91,20.84,21.91,20.84,21.73,21.11Zm-.54-.61a.76.76,0,0,0-.17.13s0,.09,0,.14.08,0,.1,0S21.27,20.63,21.19,20.5ZM27.74,22a2.76,2.76,0,0,1-.25-.21.21.21,0,0,1,.11-.35.5.5,0,0,1,.3.05,3.87,3.87,0,0,1,.4.33l1.15-.43-.2-.36a1.5,1.5,0,0,1,.23-.17s.07,0,.15,0l.37.45c.18,0,.39,0,.57-.18l-.12-.28c-.2-.06-.38-.09-.55-.16a.26.26,0,0,1-.17-.36c0-.06.08-.13,0-.18l-.05,0-.25.09a.75.75,0,0,1-.26,0c-.09,0-.12-.19,0-.23a1,1,0,0,1,.24-.11.19.19,0,0,0,.15-.18c.39,0,.41,0,.49.39l.69.61a1.91,1.91,0,0,0,.48,0c.15-.05.31-.17.46-.07A1.65,1.65,0,0,1,32,21l.4-.13.46-.15s0-.05.08-.07,0-.17,0-.26c.27-.24.44,0,.66.14a.35.35,0,0,1,.47-.29.55.55,0,0,0,.22,0,.17.17,0,0,0,.13-.08.16.16,0,0,0,0-.15,1.12,1.12,0,0,0-.57-.41,1.86,1.86,0,0,1-.34-.18l.19-.38a.6.6,0,0,1-.09-.13c-.08-.15-.05-.26.1-.3a.46.46,0,0,1,.26,0c.19.07.23.22.15.45s-.07.34.19.36a.6.6,0,0,1,.45.28.46.46,0,0,0,.44.18c.18,0,.32-.15.31-.27s-.15-.2-.27-.24a1.17,1.17,0,0,0-.27,0,.57.57,0,0,1-.19-.1c-.08-.06-.14-.14-.08-.24a.21.21,0,0,1,.17-.1,3.1,3.1,0,0,0,.42.08.48.48,0,0,1,.56.41.21.21,0,0,0,.24.18c.08,0,.14-.09.23-.15l-.58-.69c.05-.13.08-.25.13-.37s.2-.22.4-.18a.26.26,0,0,1,.2.34c0,.11-.06.21-.08.31l.42.4.3-.16S37,19,37,19c-.21-.21-.21-.21-.38-.71a.49.49,0,0,1,.4-.18h0l.26.63.34,0c0-.18,0-.33,0-.47a.73.73,0,0,0-.56-.13h0a1,1,0,0,0-.31-.16c-.25,0-.51-.05-.76-.07h-.42l-.06.13c-.06.27-.15.31-.35.16a2.81,2.81,0,0,1-.3-.26l-.48,0s-.09.05-.14.07.05.25.08.37c-.4.11-.46.07-.47-.31l-.41.05a1.23,1.23,0,0,1-.37,0,1.41,1.41,0,0,1-.37-.18l-.37.27c-.1-.06-.17-.12-.25-.16s-.21,0-.26.1a.77.77,0,0,1,.12.24.22.22,0,0,1-.06.19.22.22,0,0,1-.19,0c-.15-.08-.27-.19-.41-.28a.61.61,0,0,0-.08.62s-.08.13-.13.13a.24.24,0,0,1-.29-.29.54.54,0,0,0,0-.31.89.89,0,0,1,.06-.37l-.6.18c-.24-.17-.41,0-.6.11s-.14,0-.21,0-.21,0-.31,0a.62.62,0,0,1,0,.15c0,.22-.16.31-.32.22s-.21-.16-.31-.23-.07,0-.11,0l-.18.25c-.49-.13-.49-.13-.81.05l.06.2c0,.19-.06.3-.23.24a2.16,2.16,0,0,1-.68-.22c-.14-.11-.27,0-.28.18s0,.2,0,.31a1,1,0,0,1-.48-.21.26.26,0,0,0-.41.19.47.47,0,0,1-.14.28.3.3,0,0,0-.08.18c-.05.22-.14.3-.32.27s-.33-.13-.42-.07-.42.05-.63.09l-.09.32a.58.58,0,0,1-.57,0c-.17-.1-.23-.07-.54.07l.13.11a.25.25,0,0,1,.11.33c0,.14-.15.14-.27.14l-.2,0-.25.46-.71,0c.07.09.1.17.15.19.21.11.4.28.65.24s.15-.34.38-.29.19.32.24.52l.33,0c-.15-.27,0-.55-.19-.76a.29.29,0,0,1,.11-.16.23.23,0,0,1,.19.05.15.15,0,0,1,.06.14.19.19,0,0,0,.1.23c.19.1.17.26.13.43s0,.06.05.12l.3,0,.22-.43c.25,0,.36.16.33.39,0,0,0,.09,0,.13s.31-.21.45-.2a1.43,1.43,0,0,1,.47.22.89.89,0,0,0,.25-.9.37.37,0,0,1,0-.11.17.17,0,0,1,.24-.15c.06,0,.16.09.16.13,0,.28.22.49.18.77a1,1,0,0,0,0,.25.53.53,0,0,0,.54-.05.81.81,0,0,1-.17-.27,1.56,1.56,0,0,1,.05-.36c-.09-.1-.26-.12-.25-.33s0-.28-.21-.34-.52-.15-.77-.24c-.05,0-.12-.12-.11-.16a.35.35,0,0,1,.16-.13.21.21,0,0,1,.16,0,.53.53,0,0,0,.35.1c.24,0,.42.28.7.21,0,0,.08.07.1.11s0,.19.08.27c.13.26.19.58.49.74S27.5,22.21,27.74,22ZM32,24.44s0,.11,0,.15a.23.23,0,0,0,.14.07s.06,0,.07-.07,0-.22,0-.33a1.55,1.55,0,0,1,.08-.23l.33.09c-.15-.74-.3-1.46-.45-2.17a.79.79,0,0,0-.17-.25,2.22,2.22,0,0,1-.26.31c-.11.08-.21,0-.26-.1s0-.23-.18-.25c-.14.26.13.47.1.71a1.13,1.13,0,0,1-.27.81c.28-.06.4,0,.47.21a.5.5,0,0,0,.36.36A1.16,1.16,0,0,1,32,24.44Zm-.8-.29.43,0v-.28c-.16-.07-.33-.2-.49-.19s-.37-.13-.43-.33a2.12,2.12,0,0,1,0-.44.71.71,0,0,0-.28-.54l-.22.17c.21.33.44.63.32,1,0,.05,0,.13.07.19s.11.13.11.19c0,.36.28.65.19,1,0,.07.05.18.11.25s.24.26.39.42c.08-.08.18-.13.2-.2a.48.48,0,0,0-.2-.53.42.42,0,0,1-.2-.17A.73.73,0,0,1,31.22,24.15Zm-.35-1.86a2.37,2.37,0,0,1-.09.39l.35.18a2.19,2.19,0,0,0-.34-1.19l-.66.14c-.07,0-.1.17,0,.24s.14.08.18.06.14-.12.22-.17a.21.21,0,0,1,.32.08A.63.63,0,0,1,30.87,22.29Zm.37-1.19.07,0,0-.08a.35.35,0,0,0-.05.08S31.23,21.1,31.24,21.1Zm-.76,9.64c0-.09,0-.22-.23-.25a1.58,1.58,0,0,0,.1.29.07.07,0,0,0,.08,0S30.49,30.77,30.48,30.74Zm3.35,8.64-.13-.08s-.06.07-.05.08a.48.48,0,0,0,.11.09Zm4.42-.65a3.44,3.44,0,0,1-.42-.65,1.16,1.16,0,0,0-.42-.56c-.09-.05-.14-.21-.18-.32a.88.88,0,0,0-.29-.52.79.79,0,0,1-.33-.62.38.38,0,0,0-.16-.27c-.3-.09-.36-.34-.42-.59a.84.84,0,0,0-.33-.55.84.84,0,0,1-.31-.57,1.09,1.09,0,0,0-.13-.42,5.18,5.18,0,0,0-.47-.58v0h0a.84.84,0,0,0-.23-.8.91.91,0,0,1-.22-.92s0-.05.08-.08.24.18.39,0,0-.09,0-.11a2,2,0,0,1-.38-1s0-.05-.1-.09l-.25.36a1.08,1.08,0,0,1-.46-.76,6.74,6.74,0,0,0-.4-1.25,2.11,2.11,0,0,1-.09-.49,1.07,1.07,0,0,0-.17-.52,2.05,2.05,0,0,1-.2-.39c-.08-.26-.22-.51-.05-.81l.63.16h0a1.64,1.64,0,0,0-.19,1,.36.36,0,0,0,.21.31c0-.17,0-.3,0-.43s.21.2.36.11h0c0,.17,0,.33,0,.5a1.54,1.54,0,0,0,.38,1,.24.24,0,0,0,.29.06c-.06.1-.1.21,0,.3v0h0a1.71,1.71,0,0,0,.33,1.17,1.38,1.38,0,0,1,.21.44,2.11,2.11,0,0,0,.53.82.12.12,0,0,0,.19,0,.43.43,0,0,1,0-.05c-.37-.76-.75-1.51-1.12-2.26a.64.64,0,0,0-.15-.13v0h0v-.31c-.21-.13-.2-.38-.28-.58a4.21,4.21,0,0,1-.39-1h0l-.42-1h0a6.45,6.45,0,0,0-.63-1.8l-.31.17c-.1.36.29.32.37.61-.29-.06-.31.18-.38.36-.32-.15-.29-.51-.47-.74-.18.15,0,.3-.06.43a2.24,2.24,0,0,1-.17.41.89.89,0,0,1,.47.5,6.47,6.47,0,0,0,.34.63,2.31,2.31,0,0,1,.23.67c0,.23.26.41.16.68h-.17a.27.27,0,0,0-.12.06.09.09,0,0,0,0,.1.32.32,0,0,0,.12.11,1,1,0,0,1,.46.9c0,.09,0,.18,0,.27a.9.9,0,0,0,.45.88,1.09,1.09,0,0,1,.24.24.56.56,0,0,1,.17.39,2.32,2.32,0,0,0,.6,1.61l.11.19h0a.65.65,0,0,0,.24.62.85.85,0,0,1,.21.31,1.3,1.3,0,0,1,.08.8,1.22,1.22,0,0,1-.6-1,.52.52,0,0,0-.14-.35,2.31,2.31,0,0,1-.5-1,1,1,0,0,0-.29-.52,2,2,0,0,1-.56-1.18,1.21,1.21,0,0,0-.38-.78,1.5,1.5,0,0,1-.52-.95.53.53,0,0,0-.15-.34,3.31,3.31,0,0,1-.63-1.09.45.45,0,0,1,0-.5c.29-.12.4.23.66.24-.15-.36-.29-.69-.44-1l-.22,0a1.56,1.56,0,0,0-.15.06.91.91,0,0,0,0,.17.22.22,0,0,1-.15.26c-.13,0-.2-.05-.24-.16-.15-.37-.38-.72-.22-1.14-.38-.25-.49-.34-.49-.57A3,3,0,0,0,30,23.66a1.18,1.18,0,0,1-.06-.27c-.06-.26-.13-.52-.19-.8l-.35.1c0-.12-.08-.22-.12-.32s.05-.26-.14-.33c-.14.2,0,.51-.25.64l-.25-.11a1.33,1.33,0,0,1-.11.24,1.1,1.1,0,0,1-.26.15c.08.14.11.34.31.34s.29.05.34.21.18.29.1.47a.2.2,0,0,1-.11.11A.19.19,0,0,1,28.8,24l-.25-.41c-.19.05-.32,0-.39-.16s-.06-.24-.09-.37-.09-.32-.38-.51a.94.94,0,0,0,0,.33,9.25,9.25,0,0,0,.39,1,18.13,18.13,0,0,1,.75,2c.11.31.26.6.38.9h0l0,0a1.72,1.72,0,0,0,.22.74s.07,0,.09-.07c.17-.15.3-.15.38,0a.44.44,0,0,1,.06.16,2.92,2.92,0,0,0,.36,1.14.35.35,0,0,1-.09.5l-.31-.07a4,4,0,0,0,.26.78l.12-.18c0-.08.1-.16.21-.14a.24.24,0,0,1,.23.21,1.58,1.58,0,0,1,0,.38c0,.11,0,.25,0,.33.2.35.13.8.41,1.13a.46.46,0,0,1,0,.6c-.31-.19-.31-.19-.38-.44a1,1,0,0,0-.31-.68,2,2,0,0,0,0,.29c.12.47.28.93.37,1.39a13.12,13.12,0,0,0,.5,1.76c.14.42.27.84.42,1.26l.28.78a5.49,5.49,0,0,1,.21.51,4,4,0,0,0,.94,1.47c.07-.33.05-.57-.19-.75a.76.76,0,0,1-.32-.56.61.61,0,0,0-.3-.5.35.35,0,0,1-.15-.39.66.66,0,0,0-.2-.65.59.59,0,0,1-.14-.34,1,1,0,0,0-.21-.68.29.29,0,0,1,0-.36.23.23,0,0,1,.16-.11.22.22,0,0,1,.15.12.67.67,0,0,1,0,.28.56.56,0,0,0,.21.53.52.52,0,0,1,.16.51.49.49,0,0,0,.18.49.57.57,0,0,1,.18.45c0,.09,0,.18,0,.28s.4.15.44.39a1.38,1.38,0,0,0,.45,1c.05.42.4.69.51,1.1a1.74,1.74,0,0,0,.78-.06,1,1,0,0,0-.1-.21,1.22,1.22,0,0,0-.26-.29,1.19,1.19,0,0,1-.56-1.08.59.59,0,0,0-.17-.4.82.82,0,0,1-.25-.6.77.77,0,0,0-.29-.63.72.72,0,0,1-.25-.59.54.54,0,0,0-.05-.32,3.22,3.22,0,0,1-.48-1.09,1.71,1.71,0,0,0-.26-.42,1.35,1.35,0,0,1-.16-.29.82.82,0,0,1,0-.31s.09-.08.13-.08a.17.17,0,0,1,.14.07.79.79,0,0,1,.11.36,1,1,0,0,0,.36.83.55.55,0,0,1,.22.48.86.86,0,0,0,.24.6,1.1,1.1,0,0,1,.24.54.91.91,0,0,0,.29.63.81.81,0,0,1,.3.69,1,1,0,0,0,.1.3,5.55,5.55,0,0,1,.32.7,1,1,0,0,0,.52.66.84.84,0,0,1,.32.3.48.48,0,0,0,.67.16.38.38,0,0,0,0-.18,5.28,5.28,0,0,0-.52-.9,1.34,1.34,0,0,1-.39-.84,1.17,1.17,0,0,1-.64-.87.68.68,0,0,0-.25-.41,1.27,1.27,0,0,1-.46-.92,1,1,0,0,0-.2-.51,1.1,1.1,0,0,1-.22-.43,2,2,0,0,0-.4-1,1,1,0,0,1-.16-.29.73.73,0,0,1,0-.73.41.41,0,0,1,.43,0,.54.54,0,0,1,.23.37c0,.3,0,.61.06.95.31.11.38.38.37.7a4.18,4.18,0,0,0,0,.5c.52.3.57.83.69,1.33.52.2.61.65.64,1.12a2.34,2.34,0,0,1,.31.33,3.13,3.13,0,0,0,1.05.92c0,.2,0,.44,0,.68.1,0,.16.1.22.1a12.52,12.52,0,0,0,1.5,0A1,1,0,0,0,38.25,38.73ZM29.19,26.87Zm4.64,2s-.07.09-.07.13.07.06.11.1L34,29Zm4.66,8.43c-.12-.23-.18-.51-.43-.62a1,1,0,0,1-.54-.6,1,1,0,0,0-.21-.26A1.4,1.4,0,0,1,36.9,35c-.07-.43-.5-.7-.51-1.15a.19.19,0,0,0,0-.1l0,0a1.71,1.71,0,0,1-.54-1,1.19,1.19,0,0,0-.29-.46c-.1-.13-.2-.27-.38-.27s-.15.27,0,.35a.83.83,0,0,1,.42.79.43.43,0,0,0,0,0,.39.39,0,0,0,.27.38.36.36,0,0,1,.24.28l.06.33a.9.9,0,0,0,.36.66.57.57,0,0,1,.21.77s0,.07,0,.14a1,1,0,0,1,.58,1,.77.77,0,0,1,.55.71.29.29,0,0,0,.11.18c.17.14.35.26.6.44A1.06,1.06,0,0,0,38.49,37.31Zm.25-.55a.58.58,0,0,0-.05-.14l-.63-.91c-.07-.1-.08-.21.08-.27s.23.41.53.24c0-.2-.15-.33-.27-.47s-.22-.24-.33-.36a27.15,27.15,0,0,1-1.85-2.42L35.91,32a1.52,1.52,0,0,0,.35.82,7,7,0,0,0,.42.71c.16.23.33.44.49.65l-.16.24c.06,0,.09.1.13.12a.91.91,0,0,1,.5.63c0,.12,0,.25.09.37a.73.73,0,0,0,.15.29.86.86,0,0,1,.32.62c0,.09.1.19.18.26A.27.27,0,0,0,38.74,36.76Zm5.38,1.17c-.18,0-.18.14-.18.25s0,.33,0,.49a2.64,2.64,0,0,1-.08.49,3.23,3.23,0,0,1-.19.46H44C44,39,44.07,38.47,44.12,37.93Zm.27-4.41c0-.07.07-.1.07-.13,0-1,.13-2.06.25-3.09l-.42-.13a4.19,4.19,0,0,1,0,.62.3.3,0,0,1-.25.3A.9.9,0,0,1,44.08,30a.89.89,0,0,0-.29,0,.23.23,0,0,0-.17.26,2.32,2.32,0,0,1-.06,1,1.45,1.45,0,0,1-.19.34,1,1,0,0,1-.18-.67c0-.16,0-.33,0-.5s-.06-.4-.37-.38-.4.07-.61.07a1,1,0,0,0-.89.45l-.09,0A1.63,1.63,0,0,0,41,30.5a.61.61,0,0,0-.6.16,2.07,2.07,0,0,1,.09,1.27,1.23,1.23,0,0,0,0,.27,2.62,2.62,0,0,1-.12,1.15,20.77,20.77,0,0,1-.65,2.34,2.44,2.44,0,0,0-.06.39,1.16,1.16,0,0,1,0,.32c-.23.63-.18,1.32-.43,1.94a.91.91,0,0,0,0,.33,1.67,1.67,0,0,1,0,.39,2.54,2.54,0,0,1-.21.39,2.25,2.25,0,0,0,.73,0,.47.47,0,0,0,0-.12,1.25,1.25,0,0,1,0-1.27c0-.07.13-.1.21-.17a2,2,0,0,1,.21.79,1.8,1.8,0,0,0,.4.76s.17,0,.17,0,0-.26,0-.32c-.22-.21-.18-.45-.15-.72a3.17,3.17,0,0,0,0-.87,1.16,1.16,0,0,1,0-.49,1.18,1.18,0,0,0,0-.72c-.06.07-.12.1-.13.14,0,.22-.08.44-.12.65a1.45,1.45,0,0,1-.11.37.26.26,0,0,1-.23.09c-.11,0-.15-.1-.14-.2a7.09,7.09,0,0,1,.09-.82,10.93,10.93,0,0,0,.38-1.27s.13-.09.17-.08a.21.21,0,0,1,.13.16c0,.1-.07.2-.09.31s0,.25.15.3.09-.09.1-.13a2.83,2.83,0,0,1,.24-1.07.29.29,0,0,0,0-.16,1.69,1.69,0,0,1,.32-1.25s.11-.07.2-.13a1.42,1.42,0,0,1,0,1.21,1,1,0,0,0-.07.88c-.09.13-.15.24-.23.36a1,1,0,0,1-.05,1,.44.44,0,0,0,0,.27.73.73,0,0,1-.31.7,2.25,2.25,0,0,1,.28,1.15.52.52,0,0,0,.11.35c.1.16.18.36.41.43a.52.52,0,0,0,0-.5,1.52,1.52,0,0,1-.18-.57,2.12,2.12,0,0,0,0-.87c0-.14.07-.33,0-.49a2.16,2.16,0,0,1,.18-1,.36.36,0,0,0,0-.2.64.64,0,0,1,0-.63.66.66,0,0,0,0-.44c-.06-.23.11-.42.16-.63s.06-.22.23-.24a.68.68,0,0,1,.16.78,1.71,1.71,0,0,0-.11.7.45.45,0,0,1-.2.43s-.08.11-.13.16c.14.21.32.4.25.63a1.51,1.51,0,0,0,0,.76,3.18,3.18,0,0,1,0,.87,2.37,2.37,0,0,0,.19,1.24c0,.05.09.08.18.14a3,3,0,0,0,.08-.53,5.24,5.24,0,0,0-.1-1c-.08-.31.08-.58.07-.87s-.17-.57-.07-.87a4.21,4.21,0,0,0,.09-.49.93.93,0,0,0,0-.33,8.46,8.46,0,0,1,0-1.33,1.11,1.11,0,0,1,.14-.64c.31.21.35.25.26.53a.79.79,0,0,0,0,.64,1.51,1.51,0,0,1,.08.48c-.21.28-.11.55,0,.84a.73.73,0,0,1,0,.33,1.47,1.47,0,0,0,.05.66,1.57,1.57,0,0,1,.08.49c0,.24,0,.47-.06.71s.2.43.15.68h0v0c0,.07-.13.13-.13.2a3,3,0,0,0,0,.51l.24,0-.13-.69h0v0a.23.23,0,0,0,.17-.24,3.65,3.65,0,0,1,.12-.93.89.89,0,0,0,0-.43,1.28,1.28,0,0,1,0-.82,1,1,0,0,0,0-.6,1.11,1.11,0,0,1,0-.65,1.23,1.23,0,0,0,0-.76.79.79,0,0,1,.23-.8.37.37,0,0,1,.19.4,3.2,3.2,0,0,1-.09.54.53.53,0,0,0,0,.43.67.67,0,0,1-.06,1,1.25,1.25,0,0,1,.18,1,.21.21,0,0,0,0,.11c0,.09.06.21.22.18a2.9,2.9,0,0,0,0-1.21.7.7,0,0,1,0-.38,2.17,2.17,0,0,0,.06-1c-.06-.35,0-.7-.08-1.05,0,0,0,0,0,0a.68.68,0,0,1,0-.54,1.15,1.15,0,0,0,0-.71,1.51,1.51,0,0,1,.12-1,.77.77,0,0,1,.16.9.56.56,0,0,0,0,.42c0,.13.1.24.12.37A2.27,2.27,0,0,1,44.39,33.52ZM45,38.8a6.36,6.36,0,0,1-.06-1.38.81.81,0,0,0-.13-.52.51.51,0,0,1-.09-.31,1.7,1.7,0,0,0-.09-1c-.06-.13,0-.33,0-.49s-.06-.11-.1-.18-.06.05-.06.07c-.07.43.13.87-.06,1.3,0,.07,0,.18.06.27l.21,1a2.24,2.24,0,0,0,0,1,1.6,1.6,0,0,1,0,.21c0,.15,0,.29-.06.44s0,.24-.07.37,0,.06,0,.12l.39,0c0-.18,0-.32,0-.47A1.64,1.64,0,0,0,45,38.8Zm.14-7.95s0,0,0-.05c-.22.25-.23.3-.17.83C45,31.37,45.06,31.11,45.13,30.85Zm.32-1s0-.05-.07-.09l-.4.31.2.24A.62.62,0,0,0,45.45,29.86Zm0,7.12c0-.11-.07-.2-.11-.29C45.3,36.93,45.3,36.93,45.47,37Zm.24,2.6s0-.07-.06-.07a.52.52,0,0,0-.13.06l.09.18A1.19,1.19,0,0,0,45.71,39.58Zm-.06-1.68a.78.78,0,0,0,0,1C45.83,38.23,45.83,38.11,45.65,37.9Zm.48-1.06A15.57,15.57,0,0,0,47,38.71c.06.12.12.23.17.34s.14.2.18.16-.1-.53-.1-.53h0a5.23,5.23,0,0,1-.38-1.22,10.94,10.94,0,0,1,0-3.7c.19-1.08.45-2.14.69-3.21s.42-1.83.63-2.75c0-.1,0-.2,0-.39a4.93,4.93,0,0,0-.75,1.11c-.17.29-.29.6-.43.9a.92.92,0,0,1-.78.62.46.46,0,0,0-.16.07c0,.05-.07.09-.08.14-.07.52-.26,1-.37,1.5a1.7,1.7,0,0,0,0,.39c0,.12,0,.25,0,.38a18,18,0,0,0,.09,2.32A15.21,15.21,0,0,0,46.13,36.84Zm.32,2.84h.27a.72.72,0,0,0-.21-.3l-.1-.07h0a.57.57,0,0,0-.15,0c0,.13-.07.24-.12.38Zm7.17-.37c.15-.55.29-1.1.42-1.66a1.13,1.13,0,0,0,0-.55,1.7,1.7,0,0,1,.11-1.34c.06-.09,0-.22.08-.32a1.33,1.33,0,0,1,.16-.34.32.32,0,0,1,.45-.08.33.33,0,0,1,.06.49c-.09.11-.21.21-.3.3a.65.65,0,0,0,.08.48c.24-.32.45-.62.68-.9a.84.84,0,0,0,.19-.62,5,5,0,0,1,0-.55,1.93,1.93,0,0,1,.34-1,.29.29,0,0,0-.09-.45c0,.06-.12.11-.13.17a3.13,3.13,0,0,1-.36,1,.27.27,0,0,0,0,.16c0,.34-.27.5-.49.69,0,0-.1,0-.16,0a.92.92,0,0,1,0-.76.68.68,0,0,0,.07-.26A.94.94,0,0,1,55,33a.56.56,0,0,0,.21-.38,1.83,1.83,0,0,1,.42-.89c.25-.35.47-.74.72-1.11a1.61,1.61,0,0,1,.33-.36.25.25,0,0,1,.31,0c.07,0,.06.16,0,.28s-.18.19-.26.29a.58.58,0,0,0-.14.24,1.32,1.32,0,0,1-.37.66s0,.15,0,.25l.19,0,.21-.06a.27.27,0,0,1,.31.38c-.15.33-.33.66-.51,1,0,.07,0,.18,0,.29s0,.22,0,.33a2.6,2.6,0,0,1-.11.34c.37-.22.45-.58.64-.87a.92.92,0,0,0,.13-.52c0-.31.12-.49.45-.74a4.46,4.46,0,0,0,0,.51c0,.18-.23.28-.17.53.14-.11.27-.19.37-.28s.21-.2.3-.29c-.18-.55.23-1,.2-1.47l-.28-.2.19-.34a3.66,3.66,0,0,0,.33-.57,3,3,0,0,1,.35-.63L60,27.62c.05-.08.14-.14.08-.24a.18.18,0,0,0-.1,0l-.31.22c-.08.06-.16.11-.23,0s.31-.31.27-.6l-.53.24c.09-.2.13-.32.18-.43s.07-.13,0-.18a1.33,1.33,0,0,0-.53.38c-.18.21-.45.37-.55.61a1.31,1.31,0,0,1-.57.57.18.18,0,0,0-.07.08c-.12.35-.44.55-.59.87a.74.74,0,0,1-.75.41c0-.1,0-.2,0-.26a3.49,3.49,0,0,1,.56-.75c.55-.47,1-1,1.56-1.49.19-.2.36-.42.54-.63a.07.07,0,0,0,0-.05l-.07-.06a1.27,1.27,0,0,0-1,.72,1.2,1.2,0,0,1-.66.7c-.08,0-.18.09-.2.16-.12.38-.45.53-.73.71-.14.66-.26.73-.91.53a1.37,1.37,0,0,1,.42-.57.69.69,0,0,0,.2-.25,1.12,1.12,0,0,1,.51-.5,1.07,1.07,0,0,0,.42-.34,3.37,3.37,0,0,1,.71-.7,9.59,9.59,0,0,0,.81-.75c.12-.12.09-.19-.12-.34a6.78,6.78,0,0,1-1.43,1.13,1.21,1.21,0,0,0-.25.21c-.43.44-.86.87-1.28,1.31s-.57.63-.84.95a13,13,0,0,0-1.49,2.4A15,15,0,0,0,52,34.58a26.66,26.66,0,0,0-.54,2.94,2.89,2.89,0,0,0,0,.83c0,.14,0,.29,0,.44s0,.31,0,.49a.85.85,0,0,1-.19-.06.87.87,0,0,1-.32-.56,8.4,8.4,0,0,1,0-2.6,5.15,5.15,0,0,0,.19-1.75.29.29,0,0,1,0-.16,2.24,2.24,0,0,0,0-1.09,3.23,3.23,0,0,1,.14-1c0-.24.3-.27.47-.09s0,.28.25.25c.16-.33.31-.66.48-1s.34-.69.52-1c-.44-.18-.45-.19-.41-.56a4,4,0,0,1,.11-.6c0-.07.1-.13.15-.2a.72.72,0,0,1,.26.72c0,.1-.08.22.06.29.28-.27.29-.27.3-.55q0-.75,0-1.5a.87.87,0,0,0-.1-.42.86.86,0,0,1,.14-1.06.34.34,0,0,1,.26.34c0,.11,0,.22,0,.33A1.93,1.93,0,0,0,54,28.1c.06.15,0,.35.19.5a1,1,0,0,0,.53-.93,2.85,2.85,0,0,0-.11-.82c0-.16-.08-.32-.12-.48a.72.72,0,0,1,.15-.63.22.22,0,0,1,.34,0,.55.55,0,0,1,.1.25c0,.22,0,.44,0,.66s0,.4,0,.61.06.14.13.27l.6-.61a3.43,3.43,0,0,0-.26-1.33.74.74,0,0,1-.05-.33c0-.31,0-.62,0-.94a1,1,0,0,0-.08-.37,3.05,3.05,0,0,1-.18-1.84.48.48,0,0,1,.26-.41.46.46,0,0,1,.25.45A11.66,11.66,0,0,1,55.66,24a2,2,0,0,1,.4,1.51,1.09,1.09,0,0,0,.32.92l.37-.28c-.51-.36-.46-.87-.49-1.36l.31-.05c0-.19,0-.37,0-.55,0-1-.09-2-.09-3s.06-1.74.1-2.61a1.62,1.62,0,0,0,0-.38.19.19,0,0,0-.29-.16c.12.77.12.77-.13,1.07a.45.45,0,0,1-.12-.45,1.38,1.38,0,0,0,0-.92c-.08-.16,0-.32.18-.46l.23.47a.4.4,0,0,0,.24-.38,5.74,5.74,0,0,1,0-.72,13.08,13.08,0,0,0,0-1.77c0-.33,0-.67,0-1a1.38,1.38,0,0,0-.11-.57c-.16-.08-.17.13-.29,0s-.09-.43-.12-.61c-.24-.24-.47-.12-.65-.06l-.28-.25-.29.48c.06.17.16.33.13.45-.07.28,0,.6-.23.83,0,0-.07,0-.1,0a1.32,1.32,0,0,1,0-1.38c0-.12-.07-.26-.11-.42-.29.27-.38.39-.3.56a.75.75,0,0,1,0,.62,6.51,6.51,0,0,0-.16,1.09,1.69,1.69,0,0,1-.09.59,4,4,0,0,0-.22.61c-.05,0-.1-.07-.1-.09a3.4,3.4,0,0,1,0-1.49,3.65,3.65,0,0,0,.12-1,.68.68,0,0,1,.09-.42.51.51,0,0,0,0-.52.69.69,0,0,0-.53.11c-.11.24-.27.45-.19.74a.34.34,0,0,1-.06.21c-.11.16.06.33,0,.48a2.12,2.12,0,0,0-.28,1.43c0,.11.06.22.06.33a.9.9,0,0,1-.33.82c0-.12-.13-.21-.13-.3A3.37,3.37,0,0,1,52.62,15a1.52,1.52,0,0,0,0-1,.55.55,0,0,1,0-.38,7.5,7.5,0,0,0,.34-1.3,4.29,4.29,0,0,0-2,.33c-.34.13-.62.42-1,.46a.18.18,0,0,0-.09.06,2,2,0,0,0-.59.86,5.16,5.16,0,0,0-.22,1.36c0,.11,0,.22,0,.33-.05.42-.1.84-.14,1.26a3.17,3.17,0,0,0,0,.41c.12,0,.24,0,.28,0a.94.94,0,0,0,.3-1,.91.91,0,0,1,.36-.95,1.19,1.19,0,0,1,0,.29,1.93,1.93,0,0,0-.11,1,1.51,1.51,0,0,1-.25,1,.82.82,0,0,0-.17-.11c-.21-.1-.39,0-.41.19s0,.41,0,.61l0,1.06c0,.29,0,.59,0,.88,0,.07,0,.15.11.16l.16-.33.25-.47c0,.28,0,.43,0,.57s0,.44-.07.66a1.57,1.57,0,0,1-.13.26L49,20.91A6.85,6.85,0,0,0,49,22c.09-.14.15-.22.2-.31s.12-.14.25-.08a2.27,2.27,0,0,1,0,1,1.45,1.45,0,0,0,0,.55,2,2,0,0,1,0,1,1,1,0,0,0,0,.25c.24-.25.45-.54.31-.86a1.29,1.29,0,0,1,.07-1.12,2,2,0,0,0,.1-.26.91.91,0,0,0-.07-.8.45.45,0,0,1-.08-.31,1.61,1.61,0,0,1,.4-1c.39.22.24.61.33.91s-.15.55-.34.78c.06.14.11.28.17.41s.06.31.21.42a2.37,2.37,0,0,1,.43-1,2,2,0,0,1,.09.23,3.49,3.49,0,0,1,0,1.44,1.16,1.16,0,0,0,.4,1.13,6.48,6.48,0,0,0,.23-.8.88.88,0,0,0,0-.6,3,3,0,0,1-.05-1.53,1.64,1.64,0,0,0,0-.38,4.63,4.63,0,0,1,0-1.44,3,3,0,0,0-.09-1.2,2.58,2.58,0,0,1-.08-.26.71.71,0,0,1,.36-.79.91.91,0,0,1,.13.92A1.57,1.57,0,0,0,52,19.54a1.82,1.82,0,0,1,.11.92c0,.24-.11.47-.16.7a.59.59,0,0,0,0,.32,4.35,4.35,0,0,1,.38,1.1c0,.05.08.09.14.16.09-.34.11-.35,0-.52a1.08,1.08,0,0,1,0-.75,3.3,3.3,0,0,1,.2-.63.48.48,0,0,0,0-.48,1.37,1.37,0,0,1,0-1.33.66.66,0,0,1,.14-.15.59.59,0,0,1,.18.53c0,.24,0,.48-.06.72a2.43,2.43,0,0,0,0,.66,2.56,2.56,0,0,1-.05,1.2,1.32,1.32,0,0,0,0,.71,2.31,2.31,0,0,1,0,1.25.42.42,0,0,0,0,.38l.17.28a.73.73,0,0,1,.08.59,1.23,1.23,0,0,0,0,.71A2,2,0,0,1,53,27.46l.12.2c0,.08.09.16.12.24a.47.47,0,0,1-.17.59.19.19,0,0,1-.28-.07.84.84,0,0,1,0-.27c0-.17.07-.33.11-.49a.35.35,0,0,0-.06-.36.8.8,0,0,1-.21-.72c0-.18,0-.37,0-.55a1.48,1.48,0,0,0-.05-.6,1.21,1.21,0,0,1,0-1,1.29,1.29,0,0,0-.22-1.17c-.15.28-.17.28-.12.42a1.75,1.75,0,0,1,0,.82,2.56,2.56,0,0,0,0,1.1,1.41,1.41,0,0,1,0,.93,1.15,1.15,0,0,0,0,1,.89.89,0,0,1-.14.84c0,.06-.15.1-.23.11s-.13-.08-.16-.14a.8.8,0,0,1,0-.74,1.1,1.1,0,0,0,0-1.11.7.7,0,0,1-.06-.49c0-.14.07-.28.1-.43a.76.76,0,0,0-.26-.73c-.13.39-.24.75-.37,1.13a1.74,1.74,0,0,1,.23,1.37,1.79,1.79,0,0,0,0,1.05.83.83,0,0,0-.2.82,2.12,2.12,0,0,1,.06.71.73.73,0,0,1-.5.71.71.71,0,0,1-.28-.59,2.5,2.5,0,0,1,.17-1.09,1.74,1.74,0,0,0,.05-.93,2,2,0,0,1,0-.65,5.59,5.59,0,0,0,.07-1.22,4,4,0,0,1,0-1.2c.05-.27.07-.55.1-.83a.72.72,0,0,0-.07-.48l-.24-.47-.21.28-.18.27c0,.18.08.34.1.5a.87.87,0,0,1-.23.91.35.35,0,0,0,0,.11s0,.08,0,.11a1.69,1.69,0,0,1,0,1.59.44.44,0,0,0,0,.32,3,3,0,0,1,.11,1,.45.45,0,0,1-.19.43s0,.1,0,.16l.34.3c0,.21-.09.41-.12.6a4.78,4.78,0,0,1,0,.66,1,1,0,0,0,0,.55,1,1,0,0,1-.06.59,4.81,4.81,0,0,1-.22.46.93.93,0,0,1,.08.9c.07.36-.21.56-.39.83a1.23,1.23,0,0,1,.13.29.48.48,0,0,1,0,.32,3.38,3.38,0,0,0-.38.73c0,.08-.07.18-.19.18-.3-.31-.3-.31-.23-.66a1.2,1.2,0,0,0,.06-.32,8.18,8.18,0,0,1,.23-1.7,3.89,3.89,0,0,0,.24-1.4c0-.05,0-.11,0-.16s0-.37,0-.55a4.22,4.22,0,0,1,.15-1.32.8.8,0,0,0,0-.69.58.58,0,0,1,0-.32c0-.24.11-.47.17-.7a.77.77,0,0,0,0-.54,1.1,1.1,0,0,1-.08-.48,3,3,0,0,1,.1-1,.37.37,0,0,0-.21-.52,1,1,0,0,0-.07.69.86.86,0,0,1,0,.55,1.41,1.41,0,0,0-.05,1,1,1,0,0,1,0,.17,13.91,13.91,0,0,1-.13,1.93,3,3,0,0,0,0,.61,2.27,2.27,0,0,1-.17.92,1,1,0,0,0-.06.42,1.12,1.12,0,0,1-.27.82.2.2,0,0,1-.19.06.23.23,0,0,1-.11-.17,3.67,3.67,0,0,1,.09-.43,1.6,1.6,0,0,0,.1-.42,1.66,1.66,0,0,1,.1-.59,1.82,1.82,0,0,0,.16-.7,3,3,0,0,1,.11-1.15,1,1,0,0,0,0-.7.5.5,0,0,1,0-.32A5.26,5.26,0,0,1,49,27c.07-.2,0-.23-.23-.43a1.26,1.26,0,0,0-.1.54,18.85,18.85,0,0,1-.31,2.24,23.67,23.67,0,0,0-.54,2.5,2.5,2.5,0,0,1-.07.26c-.11.53-.25,1-.32,1.57a8.39,8.39,0,0,0-.13,1.66,15,15,0,0,0,.06,1.77c.08.5.21,1,.33,1.46h0l.12.48v0l.15.58h1.21c.15,0,.26-.17.16-.27a.81.81,0,0,1-.22-.66.89.89,0,0,0,0-.32,3.27,3.27,0,0,1-.19-1,.88.88,0,0,0-.09-.37,1.69,1.69,0,0,1,.06-1.44.15.15,0,0,1,.24,0,.77.77,0,0,1,.3.73,2.19,2.19,0,0,0,.12,1.29,1.76,1.76,0,0,1,.14.82,1.78,1.78,0,0,0,.06.6.65.65,0,0,0,.75.57l1.27-.08a1.42,1.42,0,0,0,.28-.07c0-.2,0-.36.05-.52a1.08,1.08,0,0,0-.07-.75,1.14,1.14,0,0,1-.08-.71c0-.46.06-.92.1-1.38A2.13,2.13,0,0,1,52.46,35a.17.17,0,0,1,.28,0,.81.81,0,0,1,.07.37,4.48,4.48,0,0,1-.2.69,1.41,1.41,0,0,0-.16.8,2.92,2.92,0,0,1,0,.93,3.2,3.2,0,0,0,.11,1.15,2.34,2.34,0,0,1,0,.55l.35,0a5.47,5.47,0,0,1,0-.57,4.09,4.09,0,0,1,.07-.6.19.19,0,0,1,.16-.11.2.2,0,0,1,.17.11,1.13,1.13,0,0,1,.06.32c0,.22,0,.44,0,.66s0,.16.11.15S53.62,39.35,53.62,39.31ZM72.29,23.07l-.23.13c-.2,0,0-.28-.25-.33a1.11,1.11,0,0,1-.32.6.31.31,0,0,0-.08.15.93.93,0,0,1-.2.61,2.39,2.39,0,0,0-.32.56c-.16,0-.2-.08-.17-.16a2.77,2.77,0,0,0,.2-.85.32.32,0,0,1,.1-.19.92.92,0,0,0,.33-.67.39.39,0,0,1,.15-.23c.2-.15.21-.47.5-.52a1.38,1.38,0,0,0,.31-.76c0-.22,0-.44,0-.66a1.6,1.6,0,0,1,.09-.65.64.64,0,0,0,0-.64c-.1-.16,0-.29,0-.46L72,18.74c-.2.06-.29.24-.43.35a.76.76,0,0,1-.22.11,1.23,1.23,0,0,0,.21-.41c-.11-.11-.18-.06-.24,0a1,1,0,0,1-.46.39c0-.08-.06-.16-.11-.27-.13.1-.24.19-.24.34a.45.45,0,0,1-.2.37.93.93,0,0,0-.39.74,1.43,1.43,0,0,1-.22.79.35.35,0,0,0-.07.2,1.64,1.64,0,0,1-.36.92.55.55,0,0,0,.47-.44c0-.11,0-.22,0-.33a.56.56,0,0,1,.47-.45c0,.13,0,.28,0,.33a1.08,1.08,0,0,0-.31.9.57.57,0,0,1-.12.31,1.89,1.89,0,0,0-.25.77.61.61,0,0,1-.39.55c-.22-.06-.16-.29-.25-.41s-.1,0-.11,0a4,4,0,0,0-.31.7,2.46,2.46,0,0,1-.28.53v0h0a6.45,6.45,0,0,1-1,1.22,1.14,1.14,0,0,0-.31.45,1.75,1.75,0,0,1-.61.85,3,3,0,0,0-.58.65,1.13,1.13,0,0,1-.68.54.52.52,0,0,1,.2-.51,4.33,4.33,0,0,0,.83-.88,2.62,2.62,0,0,1,.48-.46.72.72,0,0,0,.28-.63.92.92,0,0,0-.19.14,10.47,10.47,0,0,1-.89,1,14.32,14.32,0,0,1-1.45,1.36,3.41,3.41,0,0,0-.47.46,10.29,10.29,0,0,1-1.65,1.21,3.48,3.48,0,0,0-.61.48A2,2,0,0,1,61,31c-.59.34-1.1.8-1.66,1.2a19.44,19.44,0,0,0-1.75,1.52,1.8,1.8,0,0,0-.27.39c-.13,0-.21.05-.27.14-.44.68-1,1.25-1.51,1.9a9.42,9.42,0,0,0-.77,1.35c-.26.54-.47,1.12-.69,1.68a1.15,1.15,0,0,0-.06.25,1.08,1.08,0,0,0,.26.08l.84,0c.18-.25.38-.49.55-.75a.62.62,0,0,0,.08-.31A.49.49,0,0,1,55.9,38a.63.63,0,0,0,.28-.55.35.35,0,0,1,.15-.23c.14-.11.3-.2.43-.29.19.1.2.22.12.35s-.15.12-.19.19-.37.32-.36.6c0,.07-.07.14-.12.19-.34.32-.31.76-.45,1.2.31-.07.26-.46.58-.47l.12.26.27-.17c0,.11.06.2.09.29l.73,0c0-.14,0-.26,0-.39s.07-.22.24-.24.25.07.23.23a.9.9,0,0,1,0,.16s0,.11,0,.16a.35.35,0,0,0,.41,0l.18-.52c.26.1.26.1.23.49l.33,0c.22-.31.23-.75.64-1,.12.17,0,.33,0,.48a3.8,3.8,0,0,1,0,.47c.16,0,.3,0,.45,0h.05a2.66,2.66,0,0,1,.08-.64.28.28,0,0,1,0-.09c.12-.35.25-.7.38-1a3.59,3.59,0,0,1,.17-.34c-.08-.14-.3-.11-.32-.3a.56.56,0,0,1,.25-.46,1.65,1.65,0,0,1,.32-.18c.09.13,0,.2,0,.28s0,.14,0,.28l.34-.27,1.15-1.2c.11-.12.22-.25.34-.36a3,3,0,0,1,.51-.43,15.56,15.56,0,0,0,2.45-2,2.5,2.5,0,0,1,.24-.22,8.18,8.18,0,0,0,1.23-1.12,13.92,13.92,0,0,0,1.68-1.92c.29-.45.57-.9.85-1.36,0,0,0-.07,0-.11s-.14,0-.19,0-.31.32-.47.47a1.31,1.31,0,0,1-.25.22.2.2,0,0,1-.15,0,.25.25,0,0,1,0-.3c.06-.1,0-.15,0-.23s-.18-.28,0-.46a1.8,1.8,0,0,1,.2-.19,1,1,0,0,0,.44-.67c0-.09.13-.17.21-.24a.16.16,0,0,1,.15,0,.17.17,0,0,1,.07.13.56.56,0,0,1-.23.43,1.79,1.79,0,0,0-.54.83.6.6,0,0,0,.7-.28,1.23,1.23,0,0,1,.65-.64c.17-.09.28-.21.23-.39-.1-.34.07-.52.34-.65l.11-.07c0-.23,0-.47,0-.7a.55.55,0,0,1,.17-.51.67.67,0,0,0,.25-.53.41.41,0,0,1,.28-.34.17.17,0,0,1,.11.24,2.07,2.07,0,0,1-.23.5,3,3,0,0,0-.34.89A4.79,4.79,0,0,0,72.29,23.07Zm-2.72-3.26a3.51,3.51,0,0,0-.6,1.4,1.48,1.48,0,0,1-.25.66,1,1,0,0,0-.16.71c.31-.14.53-.29.54-.64a.53.53,0,0,1,.08-.31,1,1,0,0,0,.19-.56,1.13,1.13,0,0,1,.11-.48,1.12,1.12,0,0,0,.09-.78h0l0,0c.12-.05.13-.07.19-.31l-.19.31h0ZM68.39,23a.19.19,0,0,0-.1.12,2.46,2.46,0,0,0-.16.76,1.4,1.4,0,0,0,.48-.65.19.19,0,0,0,0-.1c0-.05,0-.13-.06-.14A.25.25,0,0,0,68.39,23Zm-.24,1.82Zm4.42-2.95a4.14,4.14,0,0,1-.09.46,5,5,0,0,1-.22.47.15.15,0,0,0,.23-.11c.08-.23.15-.48.22-.72S72.68,21.81,72.57,21.84Zm1,.42a.23.23,0,0,0-.07-.07l-.18.13.13.09A.57.57,0,0,0,73.56,22.26Zm1.51.33c-.15,0-.26,0-.31,0a.34.34,0,0,0-.16.42A.86.86,0,0,0,75.07,22.59Zm.64-5.06c-.12.1-.24.18-.4.09a.16.16,0,0,1,0-.27,2.52,2.52,0,0,1,.33-.14c0-.11,0-.19-.09-.24a6.43,6.43,0,0,0-.6-.57,4.85,4.85,0,0,0-2.31-.85,4.53,4.53,0,0,0-.55,0,2.76,2.76,0,0,1,.15.34.18.18,0,0,1-.21.24c-.19,0-.26-.12-.25-.34,0,0,0-.1,0-.16H71.6l-.15.06v.11c0,.12,0,.23-.12.28a.23.23,0,0,1-.28-.12c0-.06,0-.16-.09-.19s-.13,0-.25,0l.11.28c.05.11.07.21,0,.3s-.22.05-.34-.09-.13-.2-.19-.28c-.54-.07-.9.34-1.36.43-.23.19-.47.36-.69.56a1.65,1.65,0,0,0-.53.71l.28.29c-.18.42-.42.08-.63.08a3.73,3.73,0,0,0-.2.4c0,.13-.06.28-.1.42a3.62,3.62,0,0,0-.2.45,1.88,1.88,0,0,0,0,.41c.16.07.35,0,.39.22s-.32.14-.46.3A1.22,1.22,0,0,0,67,21.36c.22-.06.44-.3.65,0l-.25.33a.62.62,0,0,0,.37.37,3,3,0,0,0,.32-.82,1.7,1.7,0,0,1-.22-.15c-.12-.14-.07-.28.11-.33a1.87,1.87,0,0,1,.32,0c.17-.37.33-.72.51-1.09a1.16,1.16,0,0,1-.18-.2.18.18,0,0,1,.11-.29,1.24,1.24,0,0,1,.27,0,.32.32,0,0,0,.29-.27L69,18.78a.77.77,0,0,0,.07-.27c0-.11-.07-.2-.08-.31A.23.23,0,0,1,69,18a.26.26,0,0,1,.35,0c.09.07.1.18,0,.33a.94.94,0,0,0-.06.15l.22.26.39-.27c0-.24.11-.46-.06-.69-.06-.08,0-.17.13-.2s.26,0,.28.1a1.18,1.18,0,0,1,0,.27.29.29,0,0,0,.2.31l1.12-.22a.21.21,0,0,0,.13-.09c.14-.28.44-.22.67-.3,0,0,.14.06.16.12s0,.12-.07.18-.23-.05-.25.15l.46.2.08-.17a.88.88,0,0,1,0-.15.17.17,0,0,1,.28-.05.9.9,0,0,1,.14.2l-.26.29c.11,0,.19.08.24.06s.15-.1.23-.14a.2.2,0,0,1,.24.09.15.15,0,0,1-.06.23l-.14.13c.11.25.25.4.52.37,0,0,.13.07.15.13s0,.12-.09.17-.07,0-.11,0a.16.16,0,0,0-.13.2.24.24,0,0,0,.11.17.39.39,0,0,1,.35.41h-.4a3.38,3.38,0,0,0-.36,1.45L74,22c.22-.07.19-.2.17-.36s.08-.27.26-.24a1.8,1.8,0,0,0,.22.06s.06,0,.11-.06l.06-.35c.45-.25.45-.25.56-.84a.4.4,0,0,1,.08-.2.93.93,0,0,0,.25-.69,3.75,3.75,0,0,1-.27-.36c-.08-.13.14-.27,0-.4a2.23,2.23,0,0,1-.44,0c-.11,0-.15-.19-.06-.26a.42.42,0,0,1,.24-.09c.08,0,.15.06.25.11.1-.24.12-.47.35-.58C75.85,17.72,75.81,17.59,75.71,17.53ZM76,20.8c-.09.06-.14.08-.16.11a1,1,0,0,0,0,.25A1.22,1.22,0,0,0,76,21,.89.89,0,0,0,76,20.8Zm-.14-5.11c-.06.21-.11.41-.17.64a1,1,0,0,0,.15.13s.07,0,.11,0C76.25,16,76.24,15.87,75.87,15.69Zm.84,3.23a.84.84,0,0,0-.24-.06c-.11.37-.11.37,0,.63.17-.07.22-.23.29-.38A.24.24,0,0,0,76.71,18.92Zm-2-1.84a.21.21,0,0,1-.29,0,.21.21,0,0,0-.1-.06.22.22,0,0,0-.3.14.23.23,0,0,0,.15.26.33.33,0,0,0,.22,0,.27.27,0,0,1,.3.05,1.94,1.94,0,0,0,.24.15.26.26,0,0,0,.11-.38A.23.23,0,0,0,74.71,17.08Zm-.95.59a.2.2,0,0,0-.21.19.26.26,0,0,0,.26.22.22.22,0,0,0,.21-.2A.23.23,0,0,0,73.76,17.67Zm.53-.87a.77.77,0,0,0,.24-.12c0-.18-.12-.35-.25-.34a.25.25,0,0,0-.25.17A.26.26,0,0,0,74.29,16.8Zm1,3a.48.48,0,0,0,.15-.11c.12-.13.13-.27,0-.37a.29.29,0,0,0-.39,0c-.07.08,0,.19.07.33A.88.88,0,0,0,75.31,19.83Zm-1.19,1c-.06,0-.14.08-.25.16.13.1.21.2.31.26a.22.22,0,0,0,.19-.07.21.21,0,0,0,0-.19A.48.48,0,0,0,74.12,20.82ZM72.49,17a.19.19,0,0,0-.2.15.24.24,0,0,0,.18.24.2.2,0,0,0,.23-.18A.19.19,0,0,0,72.49,17Zm.61.23s-.15.09-.19.17.09.21.23.23a.23.23,0,0,0,.25-.16C73.4,17.32,73.29,17.21,73.1,17.2Zm.24-.91a.19.19,0,0,0-.09-.28.23.23,0,0,0-.3,0,.27.27,0,0,0,0,.25.59.59,0,0,1,.09.3c0,.27.07.32.5.25-.1-.17-.18-.29-.25-.42Zm1.8,3.83-.3-.2a.78.78,0,0,0,.06-.23.22.22,0,0,0-.23-.24.22.22,0,0,0-.19.23.43.43,0,0,0,0,.11.44.44,0,0,1-.16.51,4,4,0,0,0,.49.17A.28.28,0,0,0,75.14,20.12ZM68.4,27.64a.23.23,0,0,0-.3.05,4.58,4.58,0,0,0-.34.43c-.07.11-.12.25-.22.31A2.31,2.31,0,0,0,67,29c-.19.2-.4.38-.59.57s-.17.2-.1.29,0,.39.13.59c.09,0,.17,0,.22,0a.8.8,0,0,0,.22-.23,3.48,3.48,0,0,0,.22-.43l-.17-.15a1.13,1.13,0,0,1,.62-.66c.08.11.12.29.31.26s.18-.17.21-.29a1.56,1.56,0,0,0,.06-.27h-.38l.23-.29.39-.39C68.46,27.82,68.47,27.7,68.4,27.64ZM70,23.84a1.71,1.71,0,0,1,.29-.7.63.63,0,0,0,.09-.65l-.22.2c-.14.19-.11.42-.18.63s-.29.32-.33.56A2,2,0,0,1,69.09,25a.68.68,0,0,0-.14.23.18.18,0,0,0,.07.24.16.16,0,0,0,.22-.1,6,6,0,0,1,.44-.83A2.38,2.38,0,0,0,70,23.84Zm-.79,2.7a.24.24,0,0,0-.19,0c-.16.24-.3.49-.45.75,0,0,0,.06,0,.09h.1c.18-.24.36-.47.52-.71C69.21,26.65,69.19,26.54,69.17,26.54Zm-.46-.23c.07-.15.12-.3.21-.52a.55.55,0,0,0-.52.35.17.17,0,0,0,.08.23A.16.16,0,0,0,68.71,26.31Zm-1.52,4.22a.5.5,0,0,0-.44.35.16.16,0,0,0,0,.15.28.28,0,0,0,.19.07.51.51,0,0,0,.35-.51S67.23,30.52,67.19,30.53Zm1-1.09a.59.59,0,0,0-.48.38.3.3,0,0,0,.06.24c0,.07.23,0,.28-.06s.15-.33.22-.48S68.2,29.44,68.19,29.44ZM65.61,31.8A.28.28,0,0,0,66,32a.79.79,0,0,0,.28-.59l-.66.17A1.5,1.5,0,0,0,65.61,31.8Zm0-.19h0Zm.07-1.05a2.85,2.85,0,0,0-.85.77,1.24,1.24,0,0,1-.62.46c-.08,0-.19.06-.23.13a4.32,4.32,0,0,1-.73.75s-.07.12-.14.26l.44,0s.06.09.05.11a2.4,2.4,0,0,1-.17.4.41.41,0,0,1-.34.25.5.5,0,0,0-.44.37l-.13.24a.58.58,0,0,1-.56.37c-.29,0-.4.23-.51.44s-.12.31-.2.46a.58.58,0,0,1-.18.2.23.23,0,0,1-.3,0,.22.22,0,0,1-.07-.3,1.82,1.82,0,0,1,.15-.23l.13-.27-.44-.06a.67.67,0,0,1,.28-.66,2.66,2.66,0,0,0,.59-.57.46.46,0,0,1,.12-.12,5.69,5.69,0,0,0,.94-.76,3.48,3.48,0,0,0,.57-.58,1.06,1.06,0,0,1,.58-.41,1.08,1.08,0,0,0,.51-.33.78.78,0,0,1,.31-.21,1.13,1.13,0,0,0,.64-.51,1.42,1.42,0,0,1,.69-.52.39.39,0,0,1,.15,0c.08.09,0,.15,0,.2A1.18,1.18,0,0,1,65.68,30.56Zm-4.09,3.5a1.55,1.55,0,0,0-.13.26.09.09,0,0,0,0,.09s.15-.06.16-.16S61.63,34.17,61.59,34.06Zm4-2.47v0l0,0Zm2.62-11.77c-.14,0-.33.16-.28.25s.16.12.27.2a1.41,1.41,0,0,0,.21-.23C68.47,20,68.34,19.83,68.24,19.82ZM65.8,30.73a2.31,2.31,0,0,0-.42.27c-.11.09-.24.18-.2.36s.23.19.39.21l.05,0,.49-.9C66,30.71,65.87,30.69,65.8,30.73Zm1.73-11.61a.51.51,0,0,0,.15-.17c0-.08-.1-.2-.21-.21a.23.23,0,0,0-.22.2C67.25,19.05,67.36,19.13,67.53,19.12Zm-3.4,13.14a.25.25,0,0,0,.09.38.23.23,0,0,0,.33-.09c.12-.22.22-.45.35-.72A1,1,0,0,0,64.13,32.26Zm10.2-12v0l0,0Zm-6.24-.82c0-.09-.11-.22-.24-.24a.24.24,0,0,0-.25.16c0,.12.09.22.29.23A.52.52,0,0,0,68.09,19.48Zm-.33.88a.29.29,0,0,0-.36,0,.27.27,0,0,0-.11.17.23.23,0,0,0,.12.16.31.31,0,0,0,.39-.09.36.36,0,0,0,0-.11A.35.35,0,0,0,67.76,20.36Zm2.44,3.87a.43.43,0,0,0-.38.37.23.23,0,0,0,.08.18.24.24,0,0,0,.2,0C70.27,24.64,70.3,24.47,70.2,24.23Zm0,1.53a.29.29,0,0,0,.12.22c.1.07.17,0,.21-.1s.12-.28,0-.42A.31.31,0,0,0,70.16,25.76Zm-.38-.7a.4.4,0,0,0-.17.66.68.68,0,0,0,.32-.55C69.93,25.1,69.84,25,69.78,25.06Zm1.07-2.43a.16.16,0,0,0,.13-.07.59.59,0,0,0,.08-.67,1.92,1.92,0,0,0-.32.3.55.55,0,0,0,0,.31C70.7,22.55,70.79,22.61,70.85,22.63Zm-.33.75h0l-.13.33.08.05.19-.28A.3.3,0,0,0,70.52,23.38ZM53.43,26s.16.05.18,0a.81.81,0,0,0,.24-.85.71.71,0,0,1,.06-.73.76.76,0,0,0,.05-.83c0-.09-.08-.17-.11-.26a.63.63,0,0,1,0-.58,1.13,1.13,0,0,0-.17-1.32l-.09,0a.67.67,0,0,0-.09.14,1.85,1.85,0,0,0,0,1.14,1,1,0,0,1,0,.75,1.38,1.38,0,0,0-.11.65,5.3,5.3,0,0,1,0,1.26,1.7,1.7,0,0,0,0,.39A.31.31,0,0,0,53.43,26ZM31.94,19.4h0v0Zm-3.13,1.65c-.14-.06-.34.05-.33.18s.11.17.21.2l.1,0s0,0,.06,0,.15,0,.17-.08a.22.22,0,0,0,0-.2A.35.35,0,0,0,28.81,21.05Zm-4.14-.59a.25.25,0,0,0-.26.16c0,.1.09.25.23.24a.69.69,0,0,0,.25-.1A.26.26,0,0,0,24.67,20.46Zm.83-.4c-.09.09-.18.14-.2.22s.13.2.27.2.19-.11.15-.19A1.53,1.53,0,0,0,25.5,20.06Zm1.16.12-.26,0h-.18c-.09,0-.19.06-.18.16a.23.23,0,0,0,.11.17,1.91,1.91,0,0,0,.47.12.17.17,0,0,0,.18-.17A.2.2,0,0,0,26.66,20.18Zm-2.43,1.09a.76.76,0,0,0-.22.17.37.37,0,0,0,.36.34c.09,0,.18-.13.15-.25S24.36,21.23,24.23,21.27Zm1.56-1.63a.26.26,0,0,0-.28.11.22.22,0,0,0,.16.25l.13,0s.11-.07.13-.13A.22.22,0,0,0,25.79,19.64Zm6.05,2.57c-.1,0-.14.1-.15.2a.19.19,0,0,0,.18.22.19.19,0,0,0,.22-.18C32.08,22.33,32,22.19,31.84,22.21ZM23.27,20.9a.18.18,0,0,0-.07.08.32.32,0,0,0,.31.37l.09-.06a.25.25,0,0,0,0-.34A.22.22,0,0,0,23.27,20.9Zm8-1.09c.06,0,.13-.08.17-.12a.32.32,0,0,0-.26-.33c-.11,0-.23.11-.21.2A.31.31,0,0,0,31.28,19.81Zm-.72.2a.3.3,0,0,0,.08.24.57.57,0,0,0,.61.09.32.32,0,0,0-.13-.4.74.74,0,0,0-.36-.09A.29.29,0,0,0,30.56,20Zm-.22-.89a.17.17,0,0,0-.14.2.33.33,0,0,0,.43.2.28.28,0,0,0,.09-.1A.33.33,0,0,0,30.34,19.12Zm0-.33a.17.17,0,0,0,.11-.11c0-.13-.07-.19-.18-.24l-.09,0c0,.06-.13.12-.12.19A.22.22,0,0,0,30.37,18.79Zm2,4.68c0-.14-.11-.28-.33-.26,0,.18,0,.35,0,.53a1.23,1.23,0,0,0,.2,0A.19.19,0,0,0,32.4,23.47Zm-.37.27h0Zm-4.8-3.33a.18.18,0,0,0-.18.17.26.26,0,0,0,.3.24c.06,0,.11-.07.14-.1A.26.26,0,0,0,27.23,20.41Zm.16-.69h0v0Zm4.54-.32a.53.53,0,0,0,.06-.24.21.21,0,0,0-.34-.18c-.06,0-.08.1-.12.15A.5.5,0,0,0,31.93,19.4Zm.1,4.34h0ZM27.6,20.91a.27.27,0,0,0,.12.21.9.9,0,0,0,.29.09c.07-.05.21-.1.22-.16a.36.36,0,0,0-.14-.26.47.47,0,0,0-.31,0C27.71,20.76,27.6,20.84,27.6,20.91Zm-.21-1.17v0Zm1.07.64a.21.21,0,0,0,.12.27,2.49,2.49,0,0,0,.26.11H29c.13,0,.21-.13.13-.22a1,1,0,0,0-.3-.29C28.72,20.16,28.52,20.26,28.46,20.38Zm-.13-.22a.25.25,0,0,0,.2-.29.3.3,0,0,0-.1-.09.33.33,0,0,0-.34.09.11.11,0,0,0,0,.09C28.05,20.07,28.19,20.17,28.33,20.16Zm-1-.77a.93.93,0,0,0-.22.08s0,.08-.06.15l.3.1Zm0,.53a.38.38,0,0,0,.14.21.2.2,0,0,0,.32-.05.19.19,0,0,0-.09-.27,1.46,1.46,0,0,0-.3-.07C27.36,19.8,27.31,19.87,27.32,19.92Zm-2.11,1.24a.31.31,0,0,0-.35-.06c-.1.06-.09.15-.07.25a1.08,1.08,0,0,0,.08.19l-.05.11c-.07.25,0,.36.15.46a.17.17,0,0,0,.24-.06c0-.08.07-.2,0-.25s-.14-.25,0-.39A.18.18,0,0,0,25.21,21.16Zm1.05-1.68,0,0h0ZM44.64,28l0,0,0,0ZM29.48,19.69l0,0h0Zm.24-.24a.31.31,0,0,0,.19-.4.29.29,0,0,0-.35-.08c-.15.07-.29.15-.43.23s-.08,0-.1-.06c-.25-.32-.36-.37-.68,0,0,0-.07,0-.11,0-.39-.29-.39-.29-.59,0,.2.2.2.2.86.38l.27-.21c.2.22.36.5.71.37a.45.45,0,0,1,.08-.17S29.67,19.47,29.72,19.45Zm-3.46,0h0Zm3.22.2h0v0Zm17.7-3.47c-.13,0-.34.22-.34.37s.18.25.37.25.31-.12.31-.25A.44.44,0,0,0,47.18,16.22Zm6.5,2.13s.12-.06.13-.1a1.53,1.53,0,0,0-.1-1.18c-.07,0-.1,0-.11,0a.92.92,0,0,0,0,1.2A.09.09,0,0,0,53.68,18.35Zm-5.63-3.74a.29.29,0,0,0-.24.26.26.26,0,0,0,.29.25.58.58,0,0,0,.23-.13C48.34,14.77,48.19,14.6,48.05,14.61ZM45.91,28v-.15l-.06.14Zm0-.15v0h0ZM32.43,18.79c.06,0,.09-.1.12-.13s-.13-.27-.27-.26a.21.21,0,0,0-.18.17A.28.28,0,0,0,32.43,18.79Zm.3.59a.33.33,0,0,0,.37,0,.42.42,0,0,0,.11-.13c0-.18-.1-.3-.23-.3a.87.87,0,0,0-.22.05.28.28,0,0,0-.12.16A.24.24,0,0,0,32.73,19.38Zm13.76-4.57a.36.36,0,0,0-.26.31.38.38,0,0,0,.43.25c.07,0,.12-.11.16-.14C46.81,15,46.64,14.8,46.49,14.81Zm-14.6,4.8c.09.22.24.39.49.36a1.06,1.06,0,0,1,.63.13.51.51,0,0,0,.21.06c.06,0,.16,0,.18-.05a.23.23,0,0,0,0-.2.39.39,0,0,0-.49-.25,1.19,1.19,0,0,0-.22.08.68.68,0,0,0-.74-.33C31.92,19.48,31.87,19.56,31.89,19.61Zm1.31-1s.09-.09.12-.12c0-.18-.13-.28-.26-.26s-.19.05-.18.17A.25.25,0,0,0,33.2,18.63Zm-6.76,1.23c.09.05.18.07.25,0s.1-.14.08-.19-.09-.17-.15-.18a1.09,1.09,0,0,0-.36,0C26.29,19.63,26.3,19.78,26.44,19.86Zm5.49-.44h0Zm-8.25,1.12h0Zm8.67-.36a.54.54,0,0,0-.3-.08c-.15,0-.19.15-.22.33a1.33,1.33,0,0,0,.3.17c.17.06.3,0,.34-.08A.29.29,0,0,0,32.35,20.18Zm-8.67.36h0Zm.39.3a.15.15,0,0,0,.08-.25.41.41,0,0,0-.23-.11.73.73,0,0,0-.24.07.33.33,0,0,0,0,.14A.26.26,0,0,0,24.07,20.84Zm11-2.07s.12-.06.14-.12a.27.27,0,0,0,0-.19.45.45,0,0,0-.44-.17.28.28,0,0,0-.16.13s0,.11,0,.15A.56.56,0,0,0,35,18.77ZM47.53,15c-.08.11-.14.18-.19.26a.22.22,0,0,0,.13.37c.13,0,.28.07.34-.06a.4.4,0,0,0,0-.3C47.77,15.23,47.68,15.18,47.53,15Zm11,13.63a.14.14,0,0,0,0,.14.14.14,0,0,0,.14,0,.88.88,0,0,0,.47-.81l-.44.4A2.56,2.56,0,0,0,58.51,28.67Zm-1,2.92a.12.12,0,0,0,0,.1s.11.06.14,0a.42.42,0,0,0,.21-.16.46.46,0,0,0-.07-.49Zm1.31-3.9a.87.87,0,0,0-.55.42s0,.12,0,.19C58.82,28.15,58.86,28.09,58.81,27.69ZM41.61,31a.57.57,0,0,0-.07.82.59.59,0,0,0,.21-.59C41.75,31.17,41.66,31.1,41.61,31ZM55.33,20.37a1.62,1.62,0,0,0-.22.95.12.12,0,0,0,.22.07,1.37,1.37,0,0,0,.16-.91S55.41,20.42,55.33,20.37Zm2.53,8.79c.14-.16.18-.32.09-.39s-.21,0-.35.09a.7.7,0,0,0-.14.16c-.1.2-.18.4-.33.73.18-.06.26-.06.3-.1S57.72,29.32,57.86,29.16Zm-14.36,3a1.13,1.13,0,0,0-.23.9.2.2,0,0,0,.14.14c.07,0,.2,0,.22-.1a1.11,1.11,0,0,0,.06-.74C43.67,32.26,43.58,32.21,43.5,32.13Zm11.92-3h0c0,.13-.09.19-.17.26a1.84,1.84,0,0,0-.8,1.07c0,.11-.16.2-.24.29s-.28.25-.31.44a2,2,0,0,1-.51,1,1.34,1.34,0,0,0-.18.28c-.05.09,0,.23.16.31a.19.19,0,0,0,.29,0c.13-.26.4-.44.41-.76a.52.52,0,0,1,.27-.4c.13-.09.27-.16.41-.24a1,1,0,0,1,.36-.92.94.94,0,0,0,.34-1l0-.27h0ZM42.89,31a.37.37,0,0,0-.1-.4s-.15-.1-.19-.08a.32.32,0,0,0-.17.19.48.48,0,0,0,0,.26.75.75,0,0,1,0,.53l-.36-.12-.34,1.8a1.59,1.59,0,0,0,0,.38.8.8,0,0,0,.11.23.45.45,0,0,0,.33-.31,1.25,1.25,0,0,0-.08-.91,2.77,2.77,0,0,1,.17-.23c.05-.06.06-.19.23-.12,0,.23-.06.46-.08.7a1.26,1.26,0,0,0,0,.27.28.28,0,0,0,.11.17c.1,0,.18,0,.24-.09a.4.4,0,0,0,0-.37c0-.16-.1-.31-.16-.48a.66.66,0,0,0,.11-1C42.8,31.24,42.84,31.1,42.89,31Zm11.3,1.32a.81.81,0,0,0-.24.84,2.82,2.82,0,0,0-.28.38c-.15.27-.08.58-.16.85a5.22,5.22,0,0,0-.31.81s0,.08,0,.11a1.27,1.27,0,0,1-.08.31,1,1,0,0,0,0,1.13c-.19.56-.19.56,0,.89a.33.33,0,0,0,.33-.25.66.66,0,0,0-.08-.7,1.4,1.4,0,0,0,.31-1.19c.14-.19.26-.32.36-.47s0-.46-.06-.65a5.21,5.21,0,0,1,.39-.6c.16-.2,0-.41,0-.57l.52-.57c.16-.2.08-.46.12-.66,0,0,0-.06.07-.07.23-.15.46-.31.44-.64,0-.08.08-.16.13-.24s.22-.3.31-.46.07-.29,0-.35-.25,0-.35.06a1.15,1.15,0,0,0-.27.27,3.18,3.18,0,0,0-.25.43.75.75,0,0,1-.32.36A2.32,2.32,0,0,1,54.19,32.28Zm.56-1h0Zm2.88-1.38c-.29.47-.58.93-.85,1.41,0,.08,0,.2,0,.31a.6.6,0,0,0,.58-.47,1.59,1.59,0,0,1,.39-.72.76.76,0,0,0,.19-.38.59.59,0,0,1,.33-.47c.22-.11.25-.3.15-.56a1.29,1.29,0,0,0-.54.52A3.27,3.27,0,0,0,57.63,29.93Zm-2-15.58a2.77,2.77,0,0,1,.26.1.28.28,0,0,0,.33-.13,1,1,0,0,0,.08-.14.3.3,0,0,0-.17-.45,1.53,1.53,0,0,0-.33-.05c0-.1,0-.17,0-.24a3.09,3.09,0,0,0,0-.43.16.16,0,0,0-.12-.09s-.13,0-.13.07a1.93,1.93,0,0,1,0,.42c0,.13-.17.23-.25.35a.35.35,0,0,0,0,.11C55.24,14.15,55.34,14.28,55.64,14.35Zm-1,6.51a.36.36,0,0,0,.26-.06.47.47,0,0,0,.2-.43,2,2,0,0,0-.1-.59c-.09-.33-.07-.39.26-.53a.47.47,0,0,0,.32-.41.87.87,0,0,0-.22-.75,2,2,0,0,1-.36.13c-.28.05-.38.1-.41.34a4.49,4.49,0,0,0,0,.82,1.69,1.69,0,0,1,0,.55,3.41,3.41,0,0,0-.06.71A.3.3,0,0,0,54.62,20.86Zm1.61,1.64c0-.06-.07-.17-.14-.21s-.17.05-.21.13a.47.47,0,0,0,.18.6A2.8,2.8,0,0,0,56.23,22.5Zm-1.72,2.07a1,1,0,0,0,0,.65c0,.11.09.23.21.22a.44.44,0,0,0,.27-.17.7.7,0,0,0-.08-.86c-.06-.07-.1-.14-.16-.22a1.33,1.33,0,0,0,0-1.58A1.07,1.07,0,0,0,55,21.56a.31.31,0,0,0-.17-.2c-.12-.05-.2,0-.27.13a.83.83,0,0,0-.11.79,1.33,1.33,0,0,1,0,.86,1,1,0,0,0,.06.91A.49.49,0,0,1,54.51,24.57Zm-.75-5.12c-.34.41-.36.74-.07,1.51.18-.28.39-.5.32-.83S54,19.61,53.76,19.45ZM35.58,35.83A2.24,2.24,0,0,1,36.09,37c0,.24.24.4.39.58a4.28,4.28,0,0,1,.33.64.36.36,0,0,0,.16.14.93.93,0,0,1,.39.52c.06.17.12.36.34.39.24-.2.26-.24.26-.38s-.13-.26-.25-.34a2.6,2.6,0,0,0-.36-.21c0-.17,0-.32,0-.46a.42.42,0,0,0-.07-.26,2.49,2.49,0,0,1-.58-.91,1.24,1.24,0,0,0-.33-.36,1.12,1.12,0,0,0-.18-.14,2.63,2.63,0,0,0-.22-.67,4.16,4.16,0,0,0-.61-.72l.18.83A.28.28,0,0,0,35.58,35.83ZM56,21.63c.24-.32.29-.45.24-.66a.18.18,0,0,0-.11-.1s-.13,0-.14,0a1.29,1.29,0,0,0-.17.33A.38.38,0,0,0,56,21.63ZM56,23.44c-.15.31,0,.55.16.88a.89.89,0,0,0,.09-.88.15.15,0,0,0-.12-.08A.18.18,0,0,0,56,23.44Zm.19-8.27A.17.17,0,0,0,56.1,15c-.05,0-.13.06-.14.12a.93.93,0,0,0,.09.65A1,1,0,0,0,56.23,15.17ZM56,20.26s.09,0,.11,0a.42.42,0,0,0,.15-.48s-.05-.06-.07-.06-.12,0-.14,0A.52.52,0,0,0,56,20.26Zm.16-4.2c-.21.37-.21.37,0,.81.2-.36.22-.38.18-.59A1.13,1.13,0,0,0,56.11,16.06Zm-1.48,1a2.05,2.05,0,0,0-.05.55.26.26,0,0,0,.14.21.31.31,0,0,0,.26,0,.37.37,0,0,0,.14-.22.71.71,0,0,0-.07-.58,1,1,0,0,1-.13-.36c0-.08,0-.19.15-.15l.19.8a.86.86,0,0,0,.38-.72c0-.28.16-.63-.19-.84l-.26.13c-.06-.16-.11-.31-.18-.46s-.09-.1-.12-.09a.27.27,0,0,0-.18.1,1,1,0,0,0-.09.86A1.4,1.4,0,0,1,54.63,17Zm-26.2,6.89s-.1.09-.1.14a.53.53,0,0,0,.08.25c0,.05.12.11.16.1a.24.24,0,0,0,.11-.16A.28.28,0,0,0,28.43,23.91Zm1-.54a.16.16,0,0,0-.23.06.72.72,0,0,0,.25.73c.1.09.2.06.3-.1-.07-.18-.13-.35-.2-.51A1.88,1.88,0,0,0,29.4,23.37Zm.5,1.11-.08,0c0,.05-.1.11-.09.16a3.75,3.75,0,0,0,.13.58.16.16,0,0,0,.22.11.32.32,0,0,0,.17-.19A.77.77,0,0,0,29.9,24.48Zm11.59,7.61c-.06.28-.13.56-.19.84.18.06.24,0,.28,0a.77.77,0,0,0,0-.88ZM30.74,26.6c.11-.3-.06-.53-.19-.77l-.05,0c-.05,0-.18,0-.18.05,0,.32-.05.63.3.84Zm-.65,1a.9.9,0,0,0,.44.74,1.09,1.09,0,0,0,0-.9.59.59,0,0,0-.44-.42C30.09,27.22,30.08,27.42,30.09,27.61ZM29.47,27l-.26-.16a6.51,6.51,0,0,0-.61-2,.43.43,0,0,1,0-.16s0,0,0-.08l.34.08.12-.27c.08.05.16.08.19.13a5.48,5.48,0,0,1,.23.56.33.33,0,0,1-.07.36c-.2.2-.12.44-.09.67,0,0,.07.07.14.12l.25-.26c.19,0,.26.12.32.26a1.35,1.35,0,0,1,0,.69l-.36-.26C29.63,26.83,29.56,26.92,29.47,27ZM29.1,25.2s-.05,0-.09.06a.32.32,0,0,0,.08.12.11.11,0,0,0,.09,0C29.22,25.31,29.16,25.2,29.1,25.2Zm1,1.81h0v0Zm5.25,7.83v0h0v0ZM30.09,27h0Zm1.31,6.44Zm0,0Zm9.12.32a.7.7,0,0,0,0,.25s.11,0,.13,0a.52.52,0,0,0,.14-.2c0-.08,0-.16-.07-.36A1.64,1.64,0,0,0,40.52,33.77Zm0,.56a.11.11,0,0,0-.13.05,1.49,1.49,0,0,0-.15.4s.07.12.12.15.13,0,.14,0,.12-.25.19-.4S40.62,34.35,40.56,34.33Zm1.51-3.16c.09,0,.21-.12.25-.32a.53.53,0,0,0-.25-.51l-.07,0s-.1.06-.1.1a1.55,1.55,0,0,0,0,.43C41.9,31,41.91,31.12,42.07,31.17Zm-1.17,0c0,.05,0,.1,0,.15A6.44,6.44,0,0,1,40.67,33c0,.05,0,.12.1.26a2.25,2.25,0,0,0,.21-.39c.06-.34.1-.69.13-1a2.53,2.53,0,0,0,0-.55C41.1,31.17,41,31.1,40.9,31.14Zm-8.24-.23a.27.27,0,0,1-.23-.33,1.39,1.39,0,0,0-.1-.64,3.24,3.24,0,0,0-.65-1s-.13,0-.19,0h0a.57.57,0,0,1,.26.61,1.42,1.42,0,0,0,.43,1.15.66.66,0,0,1,.2.55,2.46,2.46,0,0,0,.07.6.44.44,0,0,0,.36.39.91.91,0,0,0,.13-.08.84.84,0,0,0,.21-.77C33.11,31.07,32.93,31,32.66,30.91ZM31.4,33.45c.15.09.05.23,0,.34a.41.41,0,0,0,.23.4.18.18,0,0,0,.1,0s.09-.07.1-.11C31.9,33.73,31.78,33.58,31.4,33.45Zm.25-5c-.11-.37-.23-.73-.37-1.09a.24.24,0,0,0-.34-.15,3,3,0,0,0,.34,1.24c.08.14.23.24.21.43A.38.38,0,0,0,31.65,28.47ZM31.3,32.7a.42.42,0,0,0,.09.65s0,.07,0,.1C31.69,33.06,31.68,33,31.3,32.7ZM31.12,29a.36.36,0,0,0-.39-.21,1.27,1.27,0,0,0,.49,1.31s.09,0,.14,0A1.93,1.93,0,0,0,31.12,29Zm.24,1.1v0h0l0,0Zm.71,1.67a1.46,1.46,0,0,0-.28-.31c0-.27,0-.47,0-.67a.61.61,0,0,0-.45-.67.48.48,0,0,0-.07.68,2.17,2.17,0,0,1,.39,1.07.88.88,0,0,0,.37.7.35.35,0,0,0,.17-.39A1.12,1.12,0,0,0,32.07,31.8Z"/><path d="M25.05,44.45a3.14,3.14,0,0,1-2.27,2.95c-.27.11-.41.13-.41.15s.14,0,.41.06c1.84.42,2.9,1.64,2.9,3.1,0,2.22-1.91,4.43-6.13,4.43H12.33c-.24,0-.39-.1-.39-.35a.4.4,0,0,1,.33-.41c1-.34,1.16-1.21,1.18-2.09l.27-8.3c0-.76-.12-1.53-1.05-1.71a.37.37,0,0,1-.34-.4.36.36,0,0,1,.4-.37h3c1.42,0,3.51-.1,4.65-.1C24.1,41.41,25.05,42.94,25.05,44.45Zm-4,4.9a3.62,3.62,0,0,0-2.67-.91c-.8,0-1.15.1-1.15.37l-.15,4.08a.82.82,0,0,0,.46.82,3.17,3.17,0,0,0,1.53.31,2.93,2.93,0,0,0,2.07-.8,2.72,2.72,0,0,0,.7-1.88A2.86,2.86,0,0,0,21.06,49.35Zm-.54-6.14a3.16,3.16,0,0,0-2.17-.69c-.41,0-.89.09-.91.42l-.14,3.87c0,.24.14.35.37.43a4.71,4.71,0,0,0,1.14.12,2.67,2.67,0,0,0,1.78-.6,2.31,2.31,0,0,0,.74-1.71A2.4,2.4,0,0,0,20.52,43.21Z"/><path d="M37.11,49.58c0,2.83-2.13,5.79-6.27,5.79-3.6,0-5.17-2.22-5.17-4.66a5.93,5.93,0,0,1,6.27-5.87C35.47,44.84,37.11,47.13,37.11,49.58ZM28.86,49c0,2.11,1.42,4.77,3.3,4.77,1.21,0,1.72-1,1.72-2.29,0-2.15-1.32-5-3.29-5C29.31,46.43,28.86,47.61,28.86,49Z"/><path d="M38.41,47c0-.1,0-.12-.17-.12H36.88c-.19,0-.25-.23-.27-.5s.06-.54.29-.58a5.77,5.77,0,0,0,4-3.37c.06-.16.35-.25.6-.25s.54.11.54.33L42,45.17a.13.13,0,0,0,.14.15h2.83c.27,0,.36.24.36.53s-.13.69-.4.71l-3,.31L41.8,51a2.15,2.15,0,0,0,.43,1.53,1.82,1.82,0,0,0,1.35.52,2.1,2.1,0,0,0,1.22-.37.86.86,0,0,1,.23-.06.36.36,0,0,1,.35.39.57.57,0,0,1-.1.31,4.73,4.73,0,0,1-3.83,2.07,3.12,3.12,0,0,1-2.5-1,3.6,3.6,0,0,1-.71-2.4Z"/><path d="M47.61,49.1c-.7,0-1.76-.62-1.76-1.3s.73-1.31,1.3-1.72a6.83,6.83,0,0,1,4-1.24c2.27,0,4.38,1.18,4.38,3.95l-.12,3.58c0,1,.45,1.55.89,1.55a.78.78,0,0,1,.33.06.28.28,0,0,1,.12.25.38.38,0,0,1-.08.25,4.14,4.14,0,0,1-2.52.83c-1.27,0-2.14-.58-2.14-1.8,0,0,0,0-.06,0s-.08,0-.08,0a3.57,3.57,0,0,1-3.25,1.86,2.93,2.93,0,0,1-3-3.13,1.1,1.1,0,0,1,.54-1.13A16.3,16.3,0,0,1,51.7,49c.17,0,.29,0,.29-.29,0-1.39-1.22-2-2.54-2a2.64,2.64,0,0,0-.58,0c-.25,0-.41.15-.41.46C48.46,48.38,48.31,49.1,47.61,49.1Zm2.61,4.18c1.71,0,1.77-1.88,1.77-2.77V50a.11.11,0,0,0-.12-.1s-.12,0-.23.06c-1,.29-2.89,1-2.89,1.59A1.58,1.58,0,0,0,50.22,53.28Z"/><path d="M64.86,44.82c2.38,0,3.29,1.53,3.29,3.72L68,52.41c0,1,.06,1.8.87,2a.35.35,0,0,1,.31.37.37.37,0,0,1-.37.39h-5.4a.31.31,0,0,1-.33-.35.41.41,0,0,1,.31-.41c1-.34,1.07-1.33,1.12-2.3l.1-2.63c0-1-.13-2.42-1.53-2.42s-1.78,1.68-1.84,3.23l-.09,2.4c0,.93.15,1.57.87,1.72a.34.34,0,0,1,.29.37.37.37,0,0,1-.37.39h-5.4a.32.32,0,0,1-.33-.35.42.42,0,0,1,.31-.41c1-.4,1.1-1.35,1.14-2.3l.14-3.79c0-.78-.37-1.18-1.36-1.18a.45.45,0,0,1-.17-.37.48.48,0,0,1,.46-.49,8.43,8.43,0,0,0,2.79-1,2,2,0,0,1,1-.37,1,1,0,0,1,.75.31l-.12,2.09c0,.06,0,.08,0,.08s0,0,.06-.06A4,4,0,0,1,64.86,44.82Z"/><path d="M70.77,48.19c0-.81-.46-1.18-1.45-1.18a.45.45,0,0,1-.21-.37.49.49,0,0,1,.46-.5,9.48,9.48,0,0,0,2.92-1,2,2,0,0,1,1-.33,1.27,1.27,0,0,1,.87.31l-.27,7.59c0,.7.06,1.53,1,1.72a.33.33,0,0,1,.29.37.37.37,0,0,1-.37.39H69.49a.31.31,0,0,1-.31-.35.41.41,0,0,1,.29-.41c1-.27,1.13-1.14,1.17-2.3Zm3.8-6.78a1.87,1.87,0,0,1-2.06,2c-1.33,0-1.89-.7-1.89-1.73a1.85,1.85,0,0,1,2-2C74,39.67,74.57,40.35,74.57,41.41Z"/><path d="M84.27,49.08a.4.4,0,0,1-.35-.23c-.76-1.57-1.78-2.46-3.18-2.46a2.69,2.69,0,0,0-2.61,3,3.29,3.29,0,0,0,3.35,3.47,4.48,4.48,0,0,0,2.81-1.05.6.6,0,0,1,.33-.13.25.25,0,0,1,.27.27.45.45,0,0,1,0,.23,5.35,5.35,0,0,1-5,3.21A4.6,4.6,0,0,1,75,50.67c0-2.81,2.09-5.83,6.52-5.83,2.36,0,3.6.62,3.6,2.29C85.08,47.57,84.91,49.08,84.27,49.08Z"/><path d="M14.83,64.11c0,3.82-2.69,7.26-8.11,7.26-1.28,0-2.54-.15-3.49-.15H.31c-.19,0-.31-.12-.31-.35a.39.39,0,0,1,.29-.41,2,2,0,0,0,1.2-2.09l.29-8.48c0-.73-.25-1.43-1.1-1.53A.33.33,0,0,1,.37,58a.4.4,0,0,1,.37-.42H3.68c1.45,0,2.46-.1,3.81-.1C12.33,57.49,14.83,60.28,14.83,64.11ZM5.52,69.67A3.11,3.11,0,0,0,7.14,70a3.83,3.83,0,0,0,3.24-1.71A6,6,0,0,0,11.29,65a6.47,6.47,0,0,0-1.57-4.31,5.74,5.74,0,0,0-3.91-2c-.27,0-.37.12-.37.35l-.33,9.68A1.15,1.15,0,0,0,5.52,69.67Z"/><path d="M16.75,65.18c-.7,0-1.76-.62-1.76-1.3s.72-1.3,1.3-1.72a6.89,6.89,0,0,1,3.95-1.24c2.28,0,4.39,1.18,4.39,4l-.12,3.58c0,1,.45,1.55.89,1.55a.78.78,0,0,1,.33.06.29.29,0,0,1,.12.25.38.38,0,0,1-.08.25,4.09,4.09,0,0,1-2.53.83c-1.26,0-2.13-.58-2.13-1.8,0,0,0,0-.06,0s-.08,0-.08,0a3.57,3.57,0,0,1-3.25,1.86,2.93,2.93,0,0,1-3-3.12,1.11,1.11,0,0,1,.54-1.14,16.51,16.51,0,0,1,5.62-2.07c.17,0,.29,0,.29-.29,0-1.38-1.22-2-2.54-2a2.13,2.13,0,0,0-.58,0c-.25,0-.41.14-.41.45C17.6,64.46,17.45,65.18,16.75,65.18Zm2.61,4.18c1.71,0,1.77-1.88,1.77-2.77v-.5A.11.11,0,0,0,21,66s-.12,0-.23.06c-1,.29-2.89,1-2.89,1.59A1.57,1.57,0,0,0,19.36,69.36Z"/><path d="M27.21,64.27c0-.8-.45-1.18-1.45-1.18a.42.42,0,0,1-.2-.37.48.48,0,0,1,.45-.49,9.76,9.76,0,0,0,2.92-1.06,2,2,0,0,1,1-.33,1.27,1.27,0,0,1,.87.31l-.27,7.59c0,.7.06,1.53.95,1.72a.33.33,0,0,1,.29.37.37.37,0,0,1-.37.39H25.93a.31.31,0,0,1-.31-.35.41.41,0,0,1,.29-.41c1-.27,1.14-1.14,1.18-2.3ZM31,57.49a1.88,1.88,0,0,1-2.07,2c-1.32,0-1.88-.71-1.88-1.74a1.85,1.85,0,0,1,2-2C30.44,55.75,31,56.43,31,57.49Z"/><path d="M36.83,68.76c0,.68.06,1.59.93,1.7a.34.34,0,0,1,.29.37.35.35,0,0,1-.37.39H32.22a.33.33,0,0,1-.34-.35.42.42,0,0,1,.31-.41c1-.29,1.14-1.39,1.16-2.28l.29-8.56c0-.79-.39-1.18-1.36-1.18a.41.41,0,0,1-.21-.39.45.45,0,0,1,.46-.46,8.88,8.88,0,0,0,2.77-1,2,2,0,0,1,1-.37,1.31,1.31,0,0,1,.87.31Z"/><path d="M36.87,73.35c0-.56.16-.89.56-.89a1.69,1.69,0,0,1,.64.27,6.81,6.81,0,0,0,2.89.75.77.77,0,0,0,.77-.87,15.38,15.38,0,0,0-.68-2.13l-2.53-7.22c-.35-1-.93-1.18-1.24-1.24a.37.37,0,0,1-.33-.37.39.39,0,0,1,.41-.4H43.2c.26,0,.35.19.35.4a.33.33,0,0,1-.33.37c-.62,0-.91.33-.91.83a1.76,1.76,0,0,0,.06.41c.21.95.89,2.77,1.09,3.7a20.55,20.55,0,0,1,.46,2.86H44l2.51-6.56a1.06,1.06,0,0,0,.08-.46c0-.57-.64-.76-1.41-.78a.34.34,0,0,1-.35-.37.35.35,0,0,1,.37-.4h4.51c.23,0,.33.19.33.4a.34.34,0,0,1-.31.37,2,2,0,0,0-1.43,1.24l-2.4,5.13c-.47,1-1,2.25-1.59,3.41C43.15,74,42.12,76,39.54,76A2.48,2.48,0,0,1,36.87,73.35Z"/><path d="M67.66,64.11c0,3.82-2.69,7.26-8.11,7.26-1.28,0-2.54-.15-3.49-.15H53.14c-.19,0-.31-.12-.31-.35a.39.39,0,0,1,.29-.41,2,2,0,0,0,1.2-2.09l.29-8.48c0-.73-.25-1.43-1.1-1.53A.33.33,0,0,1,53.2,58a.4.4,0,0,1,.37-.42h2.94c1.45,0,2.46-.1,3.81-.1C65.16,57.49,67.66,60.28,67.66,64.11Zm-9.31,5.56A3.11,3.11,0,0,0,60,70a3.83,3.83,0,0,0,3.24-1.71A6,6,0,0,0,64.12,65a6.47,6.47,0,0,0-1.57-4.31,5.74,5.74,0,0,0-3.91-2c-.27,0-.37.12-.37.35l-.33,9.68A1.15,1.15,0,0,0,58.35,69.67Z"/><path d="M69.58,65.18c-.7,0-1.76-.62-1.76-1.3s.73-1.3,1.3-1.72a6.9,6.9,0,0,1,4-1.24c2.27,0,4.38,1.18,4.38,4l-.12,3.58c0,1,.45,1.55.88,1.55a.8.8,0,0,1,.34.06.29.29,0,0,1,.12.25.38.38,0,0,1-.08.25,4.09,4.09,0,0,1-2.53.83c-1.26,0-2.13-.58-2.13-1.8,0,0,0,0-.06,0s-.08,0-.08,0a3.57,3.57,0,0,1-3.25,1.86,2.93,2.93,0,0,1-3-3.12,1.11,1.11,0,0,1,.54-1.14,16.51,16.51,0,0,1,5.62-2.07c.17,0,.29,0,.29-.29,0-1.38-1.22-2-2.54-2a2.13,2.13,0,0,0-.58,0c-.25,0-.41.14-.41.45C70.43,64.46,70.28,65.18,69.58,65.18Zm2.6,4.18c1.72,0,1.78-1.88,1.78-2.77v-.5a.11.11,0,0,0-.12-.1s-.12,0-.23.06c-1,.29-2.89,1-2.89,1.59A1.57,1.57,0,0,0,72.18,69.36Z"/><path d="M79.13,63.09c0-.1,0-.12-.16-.12H77.6c-.19,0-.25-.23-.27-.5s.06-.53.29-.58a5.81,5.81,0,0,0,4-3.37c.06-.16.35-.25.6-.25s.53.11.53.34l-.1,2.64c0,.09,0,.15.14.15h2.84c.27,0,.35.25.35.54s-.12.68-.39.7l-3,.31-.15,4.14A2.15,2.15,0,0,0,83,68.62a1.82,1.82,0,0,0,1.34.51,2.08,2.08,0,0,0,1.22-.37,1,1,0,0,1,.23-.06.35.35,0,0,1,.35.39.55.55,0,0,1-.1.31,4.73,4.73,0,0,1-3.83,2.07,3.15,3.15,0,0,1-2.5-1,3.6,3.6,0,0,1-.7-2.4Z"/><path d="M87.92,65.18c-.7,0-1.76-.62-1.76-1.3s.73-1.3,1.3-1.72a6.89,6.89,0,0,1,4-1.24c2.28,0,4.39,1.18,4.39,4l-.12,3.58c0,1,.45,1.55.89,1.55a.78.78,0,0,1,.33.06.29.29,0,0,1,.12.25.38.38,0,0,1-.08.25,4.09,4.09,0,0,1-2.53.83c-1.26,0-2.13-.58-2.13-1.8,0,0,0,0-.06,0s-.08,0-.08,0a3.57,3.57,0,0,1-3.25,1.86,2.93,2.93,0,0,1-3-3.12,1.11,1.11,0,0,1,.54-1.14A16.5,16.5,0,0,1,92,65.12c.16,0,.28,0,.28-.29,0-1.38-1.22-2-2.54-2a2.13,2.13,0,0,0-.58,0c-.25,0-.41.14-.41.45C88.77,64.46,88.62,65.18,87.92,65.18Zm2.61,4.18c1.71,0,1.77-1.88,1.77-2.77v-.5a.11.11,0,0,0-.12-.1s-.12,0-.23.06c-1,.29-2.89,1-2.89,1.59A1.57,1.57,0,0,0,90.53,69.36Z"/></g></g></g></svg>
