<svg fill="#a7ff83" xmlns="http://www.w3.org/2000/svg" viewBox="0 0 101.35 39.05"><defs><style>.cls-1{isolation:isolate;}.cls-2{mix-blend-mode:multiply;}</style></defs><g class="cls-1"><g id="Camada_2" data-name="Camada 2"><g id="Camada_1-2" data-name="Camada 1"><path class="cls-2" d="M10.62,12.39a.14.14,0,0,1,0,.07.64.64,0,0,0,0-.07Zm-.29,2.25h0Zm-.21,1.62h0Zm9.74.09h0ZM8.93,12.18h0ZM22.5,18.33l-.09,0c-.27,0-.53,0-.8.06l-1.28,0h-.27l-.63,0h-.29a3,3,0,0,0-.42,0c-.36,0-.73,0-1.1,0s-.53,0-.8,0-.51,0-.77,0H14.53c-.56-.06-1.11,0-1.67-.05a.54.54,0,0,1-.18,0,1.43,1.43,0,0,0-.65-.05H10.72a1.85,1.85,0,0,1-.47,0,1.68,1.68,0,0,0-.5,0,6.67,6.67,0,0,1-1.34.11,5.68,5.68,0,0,1-1.36-.11,1.46,1.46,0,0,0-.36,0l-.41,0c-.61,0-1.21,0-1.82,0l-.5,0h0a3.54,3.54,0,0,1-.86,0,4.71,4.71,0,0,0-.53,0c-.1,0-.21,0-.23-.09s-.16-.18-.08-.32a.28.28,0,0,0,0-.13,6.07,6.07,0,0,1,.25-2.24,5.7,5.7,0,0,1,.33-.9,7.91,7.91,0,0,0,.35-1.29.26.26,0,0,0,0-.15.21.21,0,0,1,0-.19.73.73,0,0,0,0-.2c0-.11,0-.22,0-.35L3,12.41l-.45,0A.93.93,0,0,1,2,12.33a1.16,1.16,0,0,0-.61-.13A1.45,1.45,0,0,1,.65,12L.08,11.6A.18.18,0,0,1,0,11.42c0-.16.05-.31.08-.47l.1-.37a2.89,2.89,0,0,1,.45-1c.08-.1.14-.2.21-.3a3.69,3.69,0,0,1,1.8-1.31,2.16,2.16,0,0,1,.44-.1,2.5,2.5,0,0,0,1-.39,3.26,3.26,0,0,1,.79-.4,3.43,3.43,0,0,1,1.74-.11l.2.06.83.31a1.67,1.67,0,0,1,.54.25,1.35,1.35,0,0,0,.5.23,1.89,1.89,0,0,0,.06-.18c.07-.54.13-1.08.2-1.63V5.9c0-.18,0-.26-.23-.26-.42,0-.84,0-1.25,0l-.54,0-1.4.1a4.78,4.78,0,0,0-.65.07,1.6,1.6,0,0,1-.38,0c-.08-.05-.08-.14-.08-.22A3.22,3.22,0,0,1,4.6,4.27c.08-.18.12-.38.2-.56a10,10,0,0,1,.78-1.34A5.38,5.38,0,0,1,6.86,1.13,2.9,2.9,0,0,1,7.22.88,3.52,3.52,0,0,1,7.71.66L8.22.5A1.32,1.32,0,0,0,8.66.32,2.31,2.31,0,0,1,9.94,0,6.34,6.34,0,0,1,11,.07a2.75,2.75,0,0,0,1,0,5.07,5.07,0,0,1,1.1,0,6.47,6.47,0,0,1,1.16.25A1.9,1.9,0,0,1,15,.68l.82.7a2.41,2.41,0,0,0,.48.3,2.41,2.41,0,0,1,.89.69c.14.17.28.36.41.55a2.15,2.15,0,0,1,.19.37c0,.06,0,.13.08.19a2.47,2.47,0,0,1,.21.92,1,1,0,0,1-.1.46.34.34,0,0,1-.31.2l-1.39.11a1.84,1.84,0,0,0-.41.06,2.61,2.61,0,0,1-.62.06,3.83,3.83,0,0,0-.83.08,1.71,1.71,0,0,1-.39,0,2.12,2.12,0,0,1-.71,0l-.11,0a.25.25,0,0,0,0,.24c.13.34.28.68.4,1s.13.42.2.63.07.31.12.46c.14.44.29.89.44,1.33a1,1,0,0,0,.23.37,4,4,0,0,0,.87-.6A1.46,1.46,0,0,1,16,8.49a8,8,0,0,1,1.37-.41.66.66,0,0,1,.2,0,4.05,4.05,0,0,1,.92.1,1,1,0,0,0,.23,0,2,2,0,0,1,1.08.4,1,1,0,0,0,.34.17,1,1,0,0,1,.6.37,6.61,6.61,0,0,1,.44.6,2.48,2.48,0,0,1,.28,1,2.57,2.57,0,0,1-.11,1.2c0,.17-.09.33-.14.49a.45.45,0,0,1-.32.32,1.74,1.74,0,0,1-.78.13,1.18,1.18,0,0,0-.37,0c0,.07,0,.13,0,.19.07.23.15.45.22.68a9,9,0,0,1,.44,2.84,3.53,3.53,0,0,1-.17,1,1.56,1.56,0,0,1-.16.28L20,18a.53.53,0,0,0,.15,0h.63l1.37,0a.47.47,0,0,1,.17,0l.25.08C22.59,18.29,22.54,18.31,22.5,18.33Zm-2.43-1.2s-.06,0-.07,0a.16.16,0,0,0-.05.1s0,.07.07.14a.69.69,0,0,0,.06-.13A.17.17,0,0,0,20.07,17.13Zm.05-.21a.28.28,0,0,0,0-.09h0s0,.07,0,.1l0,0Zm-.32-4.37c0-.05-.05-.08-.12,0l0,.18C19.85,12.7,19.8,12.61,19.8,12.55Zm-.19.82a.21.21,0,0,0,0,.07.15.15,0,0,0,0,.07l.07,0ZM20,11.85c-.15.08-.2.2-.33.22l0-.32c-.14,0-.13,0-.14.1a2.35,2.35,0,0,1,0,.26c0,.05,0,.07.07.06s.16,0,.23.1C20,12.2,19.91,12,20,11.85Zm-.71,1.22c0-.1,0-.2-.08-.29C19.2,12.91,19.32,13,19.32,13.07Zm-.06-1.22a1.43,1.43,0,0,0,.06-.21s0,0,0-.07S19.21,11.73,19.26,11.85Zm.19-.82a.14.14,0,0,0-.2.09.26.26,0,0,0,.08.29A.54.54,0,0,0,19.45,11Zm.05-.29.09-.19-.11-.14h-.06C19.44,10.52,19.35,10.64,19.5,10.74Zm0-.51s.07,0,.13,0-.05-.1-.08-.11-.06,0-.09,0A.25.25,0,0,0,19.53,10.23Zm.19,1.17a.5.5,0,0,0,0,.17l0,0,.05,0c0-.14.05-.28.08-.42h0Zm.21-.43v-.28C19.82,10.76,19.82,10.76,19.93,11Zm.19,1.64,0,0s0,0-.11,0l.11,0Zm.5-2.38a1.72,1.72,0,0,0,0-.24l0,0C20.43,10.09,20.44,10.13,20.62,10.23Zm0,.52v.05h0l0,0Zm0,.27h0l0,0v.4C20.66,11.28,20.56,11.15,20.58,11Zm.22,1.11L20.7,12l-.17.09c0,.11,0,.2,0,.28a0,0,0,0,0,0,0h.07A3.16,3.16,0,0,0,20.8,12.13Zm.19.08s0,0-.07-.05l0,.24.06,0C21,12.35,21,12.28,21,12.21Zm.17-1h0v0h0c0,.06,0,.11.07.15s0-.14-.07-.15h0l0,0Zm-.07-.65s0,0,0,.06,0-.05,0-.07a.35.35,0,0,0-.05-.08S21.08,10.56,21.09,10.58Zm-.18.56s0,.06,0,.08a.22.22,0,0,1-.09.25s0,.06,0,.09h.06a3.13,3.13,0,0,0,.19-.36.09.09,0,0,0,0-.09S20.94,11.12,20.91,11.14Zm0-.35h0l0,0h0Zm-.24-.42s0,0,0,0,.11,0,.25,0Zm.06-.65s-.05,0-.08.06l.08.07a.9.9,0,0,0,.05-.09Zm-.51-.62a.74.74,0,0,0,.27.41c0-.09,0-.14,0-.18h0l.25.16a.29.29,0,0,0-.11-.24.12.12,0,0,0-.1,0s0,.07,0,.1h0C20.34,9.31,20.37,9.11,20.22,9.1Zm0,1.25a.34.34,0,0,0,.08.09h0a.4.4,0,0,0,0-.11.11.11,0,0,0,0-.07l-.06,0S20.18,10.33,20.19,10.35Zm0,.69,0,0v0h0Zm-.08,1.2a.11.11,0,0,0,0,0h0l.09-.14h0v0l.06-.18c0-.06.1-.11.07-.21-.17.13-.17.13-.15.27a.5.5,0,0,0,0,.12h0A.14.14,0,0,0,20.15,12.24Zm0-.94a2,2,0,0,0-.15.2c0,.05,0,.08,0,.09s.09,0,.09,0A1.2,1.2,0,0,0,20.18,11.3Zm-.11-1.55.11.09a1.19,1.19,0,0,0-.09-.53C19.94,9.47,20.09,9.61,20.07,9.75Zm-.12.43c-.06,0-.1,0-.13.07s.09.12.18.11S20,10.22,20,10.18Zm-.06-.4.06,0,0-.05-.06,0Zm0-.22v0l0,0Zm-1-1c.11.12.19.29.35.37h0a.46.46,0,0,0,.12.45l-.18.27.19.07c.14-.16,0-.33.09-.5a.37.37,0,0,0,.39.09A1.71,1.71,0,0,0,20,9.19a.26.26,0,0,0-.23-.35l-.26-.05c0,.11-.11.15-.19.2h0c0-.23-.08-.29-.34-.43C18.94,8.57,18.92,8.6,18.93,8.61ZM18.75,12s.06,0,.08,0,0-.19,0-.33a.34.34,0,0,0-.16.29S18.73,12,18.75,12Zm-.05,1.05s-.05,0-.06,0,0,0,0,.06l.06,0Zm.12-3.65a.22.22,0,0,0,.1.27C19.05,9.53,19.05,9.53,18.82,9.42Zm.17.85s0,0,0,0l.07,0,0,0ZM18.75,10c0,.09.05.14.15.18l0-.27-.06,0S18.75,10,18.75,10Zm.07,2.81a.12.12,0,0,0,.05,0l.08-.08-.08,0S18.83,12.78,18.82,12.81ZM19,11.23a1,1,0,0,0,0-.17c0-.17,0-.33,0-.48s-.1-.15-.21-.15,0,.09,0,.13a1.61,1.61,0,0,1,.07.49c0,.1,0,.21,0,.32l0,0A1.66,1.66,0,0,0,19,11.23Zm.06.86a.48.48,0,0,0,.11-.08c-.05,0-.08-.07-.11-.07A.19.19,0,0,0,19,12,.06.06,0,0,0,19,12.09ZM16.19,8.92l0,.2c.24,0,.42-.12.63-.11l.12.22L17.05,9l.18,0c.06.07,0,.18.15.18s.05-.12.12-.18a.74.74,0,0,1,.38.07.28.28,0,0,0,0,.13s.05,0,.07.07.07-.06.07-.09S18,9,18,9l.12-.1.14-.14c0,.23,0,.47.27.57a.34.34,0,0,0,0-.3.48.48,0,0,1-.06-.29.09.09,0,0,1,.14-.05.3.3,0,0,1,.14.27.32.32,0,0,0,0,.14l.16.14c.11-.05.11-.12.07-.18a.48.48,0,0,1-.13-.32c0-.12-.09-.19-.18-.25l-.21.12a.47.47,0,0,0-.12-.15s-.11-.07-.12,0-.24,0-.34,0a.6.6,0,0,1-.18.07c-.27,0-.52.09-.79.08,0,0-.07,0-.1.06s-.05.06-.09.07A1.3,1.3,0,0,0,16.19,8.92Zm2.19,2.87c-.05,0-.1.05-.09.1l.06.21a.21.21,0,0,0,.13-.22A.09.09,0,0,0,18.38,11.79Zm0-.24a.3.3,0,0,0,.1-.33A.36.36,0,0,0,18.39,11.55Zm0,1.51,0,0a.08.08,0,0,0,0,0s0,0,0-.05S18.4,13,18.4,13.06Zm.09-.33s.05,0,.05-.06,0,0-.05-.07,0,.05,0,.07S18.47,12.71,18.49,12.73Zm.06-1.84a.54.54,0,0,0,0-.1l-.05,0a.3.3,0,0,0,0,.1Zm0-.76A.09.09,0,0,0,18.5,10h0s0-.08,0-.12,0,0,0,0,0,0,0,0a.61.61,0,0,0,.05.12h0s0,.07,0,.1,0,.1.05.08A.09.09,0,0,0,18.56,10.13Zm-1,3.26c.12-.09.13-.26.26-.34a.18.18,0,0,1,0-.05l-.07-.21-.2.1.14.1c0,.15-.11.07-.18.09a.68.68,0,0,0,0,.14S17.42,13.32,17.51,13.39Zm-1.27,1.68c.13,0,.27.06.41,0l-.09-.14,0-.05,0-.07a.71.71,0,0,0-.44.08l.06.22h0c-.11,0-.1.1-.1.21.09-.07.12-.13.1-.21h0Zm-.15-1a.09.09,0,0,0,0,.07,0,0,0,0,0,0,0l0,0a.08.08,0,0,0,0-.05l0,0h0s0-.09,0-.12a1.62,1.62,0,0,0,.28-.11.2.2,0,0,0,.06-.14c0-.06-.06-.08-.11-.08h-.13c0,.1,0,.2-.11.23a.22.22,0,0,0-.16.24h0l-.12-.16a.66.66,0,0,0,0,.25s.07,0,.1,0,0-.05,0-.08h0l.14,0h0Zm-.35.41c0-.05,0-.11,0-.13s-.08,0-.1.05l-.12.19a.23.23,0,0,0,0,.22s0,.05,0,.08l.07-.06c-.07-.13,0-.22.1-.29Zm-.21,1v.28l.18-.14Zm0-3.46-.08-.33a.58.58,0,0,0-.06.19C15.37,11.89,15.43,11.94,15.52,12Zm-.09,2.14v.09h0V14.1ZM15,16.84a.08.08,0,0,0,.08,0c.07,0,0-.1,0-.16l0-.07H15A.15.15,0,0,0,15,16.84Zm.11-.49c0-.1,0-.2-.05-.32-.21,0-.19.18-.24.28l.07.08.07,0C15,16.47,15.06,16.43,15.06,16.35Zm.26-2s0,0,0-.08-.09,0-.12,0-.06.11-.09.11-.19.15-.23.27l-.15.38h0l-.09.36a.52.52,0,0,1,.19.28.11.11,0,0,0,.08.07s.06,0,.08-.07,0-.11,0-.18l-.29-.19c0-.09,0-.18,0-.28h0a.14.14,0,0,0,.19-.08C15,14.72,15.24,14.58,15.32,14.34Zm-.72,1.25a2.12,2.12,0,0,0-.16.78l.1-.05a2.06,2.06,0,0,1,.12-.26A.33.33,0,0,0,14.6,15.59Zm.75-4.34c-.09.14-.09.14-.08.25C15.44,11.42,15.44,11.42,15.35,11.25Zm-.09,3.62c0,.11,0,.13.13.19v-.28C15.3,14.76,15.27,14.8,15.26,14.87Zm.07-2.29,0,0,0,0a.08.08,0,0,1,0-.05Zm-.08-.19v0h0a0,0,0,0,0,0,0ZM15.17,14l.06,0c.08,0,.11-.09.1-.21Zm0-3.2s0,0-.06,0l.06.11C15.24,10.82,15.24,10.78,15.19,10.75Zm.23,4.49c-.08,0-.14,0-.16,0s0,.11,0,.14Zm-.19.43,0,.32C15.36,15.87,15.36,15.86,15.23,15.67ZM16.51,10a.22.22,0,0,0,.12.21c.08-.09,0-.14,0-.2s.07-.13.07-.19a.17.17,0,0,0-.12-.18C16.55,9.78,16.52,9.89,16.51,10Zm.07-.68,0,0a.76.76,0,0,0,0-.11l0,.06A.25.25,0,0,0,16.58,9.33Zm.35.48c-.05.06,0,.13.09.16a1.25,1.25,0,0,0,0-.51s0,0,0,0a0,0,0,0,0,0,0,.22.22,0,0,0,0,.11C17,9.66,17,9.73,16.93,9.81Zm.13.26s-.11.09-.11.12.08.32.13.54C17.18,10.46,17,10.28,17.06,10.07Zm.1.92a.08.08,0,0,0-.11-.06c-.07,0-.1.08-.07.13l.14.19C17.14,11.14,17.15,11.06,17.16,11Zm.06,1.13.07,0c0-.11,0-.23-.13-.32C17.13,11.9,17.21,12,17.22,12.12ZM16.8,13c0,.13,0,.22.13.27C17,13.11,17,13.11,16.8,13Zm0-.22v0l0,0v0Zm.17-.54s0,0,.06,0L17,12.12c0,.05-.06.07-.05.09A.12.12,0,0,0,17,12.28ZM16.92,12h0l0-.06a0,0,0,0,0,0,0l0,0S16.89,12,16.92,12Zm.06.67h0l.06,0,0,0Zm-.12-1.21c-.07.1,0,.15,0,.21S16.92,11.54,16.86,11.46Zm0-.41-.06,0h-.05c-.07.08-.06.14,0,.25A.25.25,0,0,0,16.88,11.05Zm-.06-.45-.18-.13,0,0,.16.18.05,0A.06.06,0,0,0,16.82,10.6Zm-.21,1.71h0c0-.15,0-.16-.05-.19s0,0-.05,0S16.51,12.21,16.61,12.31Zm0,.78,0,0a.11.11,0,0,0,0,.05l.05,0Zm-.12-1.75a1.2,1.2,0,0,0,0,.2c0,.05.05,0,.1,0l-.06-.2ZM16.31,13l.18-.14v0C16.35,12.83,16.35,12.83,16.31,13Zm.13-2,0-.36c-.08,0-.14,0-.14.07s0,.2.06.31l.08,0A0,0,0,0,0,16.44,11ZM16.3,10l0,0,0,0,0,0Zm-.1,2.06.05.05,0,0a.21.21,0,0,0,0-.06Zm-.35.87,0,0H16s0,0,0-.05h-.1S15.86,13,15.85,13Zm.08-.55a.09.09,0,0,0,.15,0,.21.21,0,0,0-.17-.23A.17.17,0,0,0,15.93,12.41Zm-.09.77.18,0h0c0,.07.05.09.12.08s.09-.06.06-.13l-.18.05h0S15.91,13.07,15.84,13.18Zm.38-1.44a1,1,0,0,1-.18-.58s-.06.05-.06.06,0,.21,0,.32A.22.22,0,0,0,16.22,11.74ZM16,10.91l0-.23-.07,0a.83.83,0,0,0,0,.15S15.93,10.86,16,10.91Zm-.25.45-.07,0-.1.15c.16.4.16.4.3.44C15.83,11.72,15.79,11.54,15.75,11.36Zm0,1.87c-.1.07-.16.12-.14.23C15.66,13.4,15.77,13.38,15.75,13.23Zm-.06-2.44c-.12.05-.12.11,0,.22l0-.11S15.69,10.83,15.69,10.79Zm0-.34-.08,0a.08.08,0,0,0,0,.06s0,0,0,.06Zm-.14,2.61a.27.27,0,0,0-.08.07s0,0,0,.07l.07,0s0,0,0-.06Zm.31.65c0-.18,0-.18-.13-.13Zm-.07,1.35c.12,0,.13-.13.16-.2s-.07-.1-.2-.11A.63.63,0,0,0,15.8,15.06Zm.21-.58s0,0,.06,0l-.07,0-.05,0S16,14.48,16,14.48Zm.49-.41L16.3,14l0,0c0,.12.08.17.19.16S16.48,14.1,16.5,14.07Zm-.07.43.09.06.12-.27-.05,0-.08.12S16.41,14.41,16.43,14.5Zm.12.78c.07.11.15.09.24.05s.09-.06.08-.13-.1-.07-.17,0Zm.35-1.42-.24.11C16.77,14,16.82,14,16.9,13.86Zm.13-.22s-.06-.07-.09-.07l-.27,0h0l0-.17-.2-.06v.13l.23.1h0C16.76,13.72,16.81,13.73,17,13.64Zm.14-.5c0-.07.06-.12.1-.18L17,12.88l0,0Zm.2-.45,0,0,0,0c-.06,0-.09,0-.11.07s0,0,0,0S17.33,12.71,17.37,12.69Zm.08-3.3-.13.29.06.07h0l.27-.13Zm.2.1v0h0Zm-.06,1.86-.06-.06a.12.12,0,0,0-.06.06s0,.09.07.07S17.57,11.38,17.59,11.35Zm-.09.35a1.14,1.14,0,0,0,0,.58l.06,0v-.61Zm-.08-1.47s0,.1.06.11.1-.06.12-.17S17.44,10.12,17.42,10.23Zm-.14,3.53c.06,0,.1,0,.12,0s0-.12-.06-.18Zm.25-2.8c0-.08.08-.15,0-.21s-.09,0-.16,0S17.42,10.91,17.53,11Zm.2-1.14,0,0a.08.08,0,0,0,0,0l0,0Zm0,2.46,0,0,0,0,0,0Zm0,1.24a.08.08,0,0,0,.07,0,.68.68,0,0,0,.05-.19c-.08.08-.12.1-.14.14S17.69,13.51,17.74,13.52Zm.09-.85,0,0,0,0h0S17.83,12.65,17.83,12.67Zm0-.59s0,0,0-.05l-.07,0s0,0,0,.05Zm.2-.33a1.44,1.44,0,0,0,.09-.24c0-.06,0-.11-.1-.1l0,.05c0,.12,0,.24-.2.2l0,.12ZM18,10.91s0,.07.08.12a.83.83,0,0,0,0-.56.86.86,0,0,1,0-.17l0-.1-.05,0a.37.37,0,0,0-.07.12C18,10.51,18,10.71,18,10.91Zm.07-.92c.09-.19,0-.3,0-.43A1,1,0,0,0,18.06,10Zm0,2.1c0,.06-.05.08-.05.11a.21.21,0,0,0,0,.07h0l0,0A.53.53,0,0,0,18.07,12.09Zm-.11,1,.11.17s.07,0,.09,0,.1-.12.06-.23S18.05,13.08,18,13.13Zm.24-.42v0ZM16.13,9.43a.11.11,0,0,0,.06.09.11.11,0,0,0,.06,0s0-.05,0-.08,0-.05,0-.05h-.07S16.12,9.41,16.13,9.43Zm-.2.57c0,.06-.06.13.06.17l.09-.21,0,0C16,9.9,16,9.94,15.93,10Zm-.14-1s.07,0,.08,0,.06-.06.09-.1l0,0a.28.28,0,0,0-.11.08S15.8,8.94,15.79,9Zm-1.26.9h0v0Zm0,.61c.14-.1.27-.13.33-.26a.27.27,0,0,1,.24-.13,2.8,2.8,0,0,0,0,.5c.11-.06.1-.16.14-.24s-.07-.24,0-.4l.27-.17c.13,0,.12.16.14.26l.08-.37c.18-.17.12-.37.05-.6l-.11.12a.21.21,0,0,1-.22.07c-.12,0-.19,0-.22.12s0,.06-.06.06c-.18,0-.25.18-.43.21a.18.18,0,0,1,0,.24,1,1,0,0,0-.1.21Zm.6,1.72,0,0a.43.43,0,0,0,0,.05l0,0S15.12,12.21,15.11,12.2ZM15,11.8a1.34,1.34,0,0,0-.15-.66.42.42,0,0,1,0,.16s0,.11,0,.17a.77.77,0,0,0,.08.19Zm-.26.59a.69.69,0,0,0,.21.32C14.9,12.52,14.87,12.47,14.7,12.39Zm-.17-.58v.24c.05,0,.09,0,.1-.06S14.64,11.87,14.53,11.81Zm-.07-.49-.05,0a.31.31,0,0,0,0,.08h.05Zm0-.33-.08-.07s0,0,0,.07l0,.06Zm-.07,1.59h0l0,.1h0v-.11h0a.28.28,0,0,1-.08-.11c0-.1-.06-.21-.09-.31a.36.36,0,0,0-.13-.25s0,0,0,.05a1.13,1.13,0,0,0,.24.6S14.34,12.57,14.38,12.58Zm-.33-1.24c0-.13,0-.27,0-.44L14,11a2.16,2.16,0,0,0,0,.76l.05,0C14.17,11.6,14,11.47,14.05,11.34Zm.09-.76v-.05h0a.13.13,0,0,0,0,.06Zm.18-.19s0,.08.06.07a.18.18,0,0,0,0-.23C14.37,10.29,14.34,10.34,14.32,10.39ZM15.76,5l-.1-.21-.26,0a1.85,1.85,0,0,1-.24,0c-.11,0-.15.09-.21.09-.28-.14-.54-.23-.8,0-.16-.16-.16-.16-.32-.14l.12.19c-.07,0-.16,0-.2,0s0-.14-.07-.22a.72.72,0,0,0-.36,0c0,.09.07.07.1.1s.05.06,0,.07a.46.46,0,0,1-.12.12.09.09,0,0,1-.12,0c0-.09-.06-.19-.16-.25l-.26,0h0a.52.52,0,0,0-.37,0s0,.12,0,.13a.18.18,0,0,0,.16,0,.52.52,0,0,1,.18-.12h0l-.06.17c.09.09.2.12.25.23s.07.05.12,0a.1.1,0,0,1,.11.09c0,.06,0,.07-.09.08s0,0-.05,0a.36.36,0,0,0,.33.06.29.29,0,0,1,0-.29s.05,0,.08,0a.17.17,0,0,1,.06.06v.25c.25,0,.49,0,.72,0a2,2,0,0,0,.35-.08s0,0,0-.07h0c.05,0,.11,0,.16,0a.51.51,0,0,1,.16.09l.25-.19a.1.1,0,0,1,.15.07s0,.08,0,.11a.5.5,0,0,1,.3,0S15.74,5,15.76,5ZM12.41,3.84a.06.06,0,0,0,.05,0c0-.08,0-.13-.12-.18a1.09,1.09,0,0,0,0,.19S12.39,3.84,12.41,3.84Zm0,1.44a0,0,0,0,0-.08.06s0,0,0,.08.05,0,.05-.07S12.39,5.29,12.37,5.28Zm.45-3.1c0,.06-.08.12,0,.19.14-.12.15-.22,0-.46Zm0,.93s0,0,0,.07a.58.58,0,0,0,0-.48s-.05,0-.07,0,0,0,0,0A1.07,1.07,0,0,1,12.83,3.11Zm0,.48c0,.06-.09.11,0,.18.17-.23.17-.23,0-.35A1,1,0,0,0,12.79,3.59Zm.08.45s0,0,0,.06a.06.06,0,0,0,.08.06L13,4.09C12.93,4.07,12.9,4,12.87,4ZM13.31,3l-.09-.08a.41.41,0,0,0-.05.09s0,0,.05.07Zm-.07.35a.28.28,0,0,0-.07.33.62.62,0,0,1,.09.3s0,0,.08.09a1,1,0,0,0,0-.29A3.41,3.41,0,0,0,13.24,3.33Zm.07-.86-.09-.29s-.07,0-.07,0S13.21,2.38,13.31,2.47Zm-.16-.87,0,0,0,0,0,0Zm-.1.35h0s0,0,0,0l0,0Zm.39-.42,0,0a.93.93,0,0,0-.05-.1l0,0A.22.22,0,0,0,13.44,1.53ZM13.62,3l-.1.17c.1.17.1.17.11.49,0,0,.09,0,.09-.08a1.54,1.54,0,0,0,0-.43.58.58,0,0,1,0-.32.74.74,0,0,0,0-.18l-.19.21Zm0-.55v0h0v0Zm.41-1.35V1.06C14,1,14.07.83,13.93.79c-.08.15,0,.25.13.27a.43.43,0,0,0,0,.05s0,0,0,0S14.06,1.12,14.06,1.11ZM14,2.6,14,2.43h0l-.05.17C13.92,2.63,14,2.67,14,2.6Zm0,.54s0,0,0,0a.17.17,0,0,0,0,.05s0,0,0-.05S14,3.16,14,3.14Zm-.12,1C14,4,14,3.84,14,3.73a.13.13,0,0,0,0-.06s0,0,0,0l-.07,0A.78.78,0,0,0,13.89,4.14Zm.17-2-.16-.07,0,0a.27.27,0,0,0,.07.08Zm0-.51s0,0,.06-.08l-.1-.06s0,.05,0,.08S14.08,1.64,14.11,1.63Zm-.28,0h0a.11.11,0,0,0,0,.13s0,0,.07.05a.37.37,0,0,0,0-.09S13.89,1.64,13.83,1.63Zm0-.31V1.18c0-.07-.09-.13-.11-.1a.16.16,0,0,0,0,.13c0,.05.06.09.09.14ZM13.65,4h-.06a.24.24,0,0,0-.06.08l0,0s.07,0,.09-.06S13.66,4,13.65,4Zm.6.08.09,0s.05,0,.05-.07a1.21,1.21,0,0,0-.11-.39c0,.05-.09.07-.09.1S14.23,3.94,14.25,4.08Zm.15-1.64.07.1s0,0,.08,0a.16.16,0,0,0-.06-.21Zm.08-.77s0,0,0-.09,0,0-.06-.08,0,.09,0,.12S14.46,1.67,14.48,1.67Zm.17,1.49c-.13.21-.14.23-.06.36l.15-.3Zm0-1.27V2.1C14.83,2,14.83,2,14.7,1.89Zm0,2.17h0l0,0V4.06Zm-.05.26v0h0ZM14.6,2.75l0,0-.06.09.06,0A1,1,0,0,0,14.6,2.75Zm.4.45c-.05.06,0,.09,0,.13v0h0s-.14,0-.08.13L15,3.35h0a0,0,0,0,0,0,0S15.07,3.23,15,3.2ZM15,4a.86.86,0,0,0,0,.21.11.11,0,0,0,.06.09s.07,0,.08-.06,0-.21.05-.33l-.09-.07L15,3.74C14.85,3.84,14.85,3.84,15,4Zm-.07-1.46c-.14.15,0,.25,0,.37C15.06,2.78,15.06,2.78,14.94,2.53Zm.38.64a.47.47,0,0,0,.08.47C15.39,3.49,15.46,3.31,15.32,3.17Zm.29.57c0,.07,0,.14.08.16a.14.14,0,0,0,0-.18s0,0,0,0A.05.05,0,0,0,15.61,3.74Zm0-.35.05.06,0,0,0-.06,0-.06s0,0-.06,0A.14.14,0,0,0,15.62,3.39Zm0,.81s0,.06.07.08.07,0,.07-.07,0-.06-.08-.11S15.58,4.18,15.59,4.2Zm.05-1.57c0,.12-.1.23,0,.33C15.8,2.77,15.79,2.74,15.64,2.63Zm.43,2.13c-.12.06-.21.17-.19.25l.18,0ZM16.12,4a1.43,1.43,0,0,0-.1.29s0,.09.1,0Zm.16-1,0-.26a.62.62,0,0,0-.21.62c.14-.08,0-.22.11-.32ZM16,2.74l0-.06s0,0-.06,0a.08.08,0,0,0,0,0Zm1.53,1.6s0,0,0,0H17.5l0,.07Zm-.12-.71c0,.08.05.16.09.27s.09-.07.08-.09S17.59,3.69,17.45,3.63ZM17,3.1a1.35,1.35,0,0,1,.06.49c0,.23,0,.45.07.68,0,0,0,.05.06,0a.08.08,0,0,0,.07,0s0-.09,0-.12a.57.57,0,0,1-.08-.42.07.07,0,0,0,0-.06,1.66,1.66,0,0,1-.11-.58A.21.21,0,0,0,17.06,3S17,3.08,17,3.1Zm-.37,1.67a.26.26,0,0,0,.38.05A.5.5,0,0,0,16.67,4.77Zm.24-2.2a.08.08,0,0,0,0,0l0,0,0,0Zm-.28.26a.21.21,0,0,0,0,.24.67.67,0,0,1,.12.64,3.91,3.91,0,0,0-.07.45L16.86,4a.54.54,0,0,1,0-.41,1.06,1.06,0,0,0,0-.53A.3.3,0,0,0,16.63,2.83Zm-.07-.2,0,0,0,0,0,0Zm0,2.11-.28,0v.08s0,0,0,.07C16.51,4.91,16.51,4.91,16.54,4.74ZM16.35,4l0,.23.18.06a.59.59,0,0,1-.05-.42s0-.09-.1-.07A1.33,1.33,0,0,1,16.35,4Zm.14-1.79s0,0,0,0l0,0,0-.05Zm-.13,1.27c0,.06,0,.07.13,0l-.09-.34h0ZM16.19,2.4l.15.19C16.38,2.41,16.35,2.37,16.19,2.4Zm-.54-.09a.5.5,0,0,1,.28.14s.07,0,.12,0L16,2.3H16a.14.14,0,0,0,.19-.09.2.2,0,0,0,0-.24A.87.87,0,0,0,16,1.85a.16.16,0,0,0-.24.16.87.87,0,0,0,.06.23l-.13-.06s-.07-.05-.11,0S15.59,2.3,15.65,2.31Zm-.36-1c0,.1.08.2.1.3s0,.23,0,.35c.12-.07.05-.17.06-.25a2,2,0,0,0,0-.26l-.19-.17Zm0,1.27s.05,0,.08,0h0l0,.15v0h0v0h0v0l0-.15h0s0,0,0-.06,0-.12-.08-.14-.06,0-.07,0S15.24,2.59,15.28,2.62Zm-.12-.93c-.1,0-.1.06,0,.34C15.23,1.91,15.15,1.8,15.16,1.69ZM13.71.49A2.8,2.8,0,0,0,14,.4h0c-.09.12,0,.21,0,.33a.2.2,0,0,0,.1.13l.25.16.28.19c-.06.29-.06.29.16.39.06-.06,0-.15,0-.22h.23v.06l0,0,0,0h0a.25.25,0,0,1,0-.08A.33.33,0,0,0,15,.9a.83.83,0,0,0-.22-.14L14.44.61a.29.29,0,0,0-.2,0A.21.21,0,0,1,14,.41h0l-.39,0C13.61.45,13.64.5,13.71.49Zm-.15,1.43s0,.09,0,.14.11-.07.1-.13a0,0,0,0,0,0,0S13.56,1.91,13.56,1.92ZM13.38.74h0l-.3-.26a1.28,1.28,0,0,0,0,.3c.07.15.16.28.25.44a.4.4,0,0,0,0-.29.18.18,0,0,1,.05-.19h0l.17,0c0-.19,0-.19-.15-.24l0,.14S13.38.71,13.38.74Zm-.45.33c0,.12,0,.17.16.18A.25.25,0,0,0,12.93,1.07ZM12.71.66a.16.16,0,0,0,.13.14c.05,0,.1,0,.15-.05-.05-.19-.05-.19-.16-.26a.09.09,0,0,1,0-.1V.29A.4.4,0,0,0,12.71.66Zm0,.91a.11.11,0,0,0,.09.05s.07,0,.07,0a.13.13,0,0,0,0-.11,2.19,2.19,0,0,0-.21-.23A.5.5,0,0,0,12.67,1.57ZM12.6,3l-.24,0a1,1,0,0,0,0,.21.21.21,0,0,0,.11.07.11.11,0,0,0,.08-.07A1,1,0,0,0,12.6,3Zm-.15-.83c-.1.22-.1.22,0,.31C12.52,2.29,12.52,2.29,12.45,2.19ZM12.28.86c.08,0,.12,0,.11-.09a.84.84,0,0,1,0-.35s0,0,0-.11A.63.63,0,0,0,12.28.86Zm0,.38c0,.13,0,.25.06.39l.08,0a.93.93,0,0,0,0-.23C12.43,1.28,12.37,1.23,12.26,1.24Zm0,.64a.14.14,0,0,0,.19.1,0,0,0,0,0,0,0s0,0,0,0ZM12,4.44c-.1-.05-.13.14-.23,0s-.15,0-.23,0l0,0a.09.09,0,0,0,.08.11.55.55,0,0,0,.47,0l.2.07V4.46A1,1,0,0,1,12,4.44Zm0,.66s0,0-.08.05l.24.13C12.05,5.12,12.05,5.11,12,5.1Zm-.39.54s0,.06,0,.09v0l0,0a.2.2,0,0,0,0-.08v0h0l-.05-.11h0s0,0,0,0l.1.07v0Zm.05-.81h0v0h0Zm.08-.75s0,0,.09.12c0-.16,0-.26,0-.37,0-.28,0-.57,0-.85,0,0,0,0-.05-.08L11.64,3l.07.1a.21.21,0,0,1,0,.2C11.65,3.53,11.77,3.8,11.73,4.08Zm-.11-1.61.12.21C11.78,2.57,11.76,2.52,11.62,2.47Zm0-.82a.33.33,0,0,0,.08.34A.42.42,0,0,0,11.6,1.65ZM12.2,4l-.07-.06s0,0-.05,0,0,.11.07.11Zm-.11-.63h0s0,0,0-.05,0,0,0,.05Zm0-.4V2.68c-.1,0-.15.06-.13.13s.05.13.13.13h0l0,.23c.09-.12.08-.18,0-.23h0ZM12,2.36l0-.06L12,2.24a.15.15,0,0,0,0,.06ZM12,.48s0,0,0,0,0,0,0,0a.49.49,0,0,0,0-.16A.46.46,0,0,0,12,.48Zm0,1.1-.09-.1s0,0,0,0,0,.1.06.11S12,1.6,12,1.58ZM11.75.35c0,.09,0,.17,0,.34.05-.1.07-.13.08-.16a.5.5,0,0,0,0-.12C11.89.34,11.85.32,11.75.35ZM11.4.62l.19.25L11.54,1,11.8,1l.06.27L12,1.19c0-.11-.06-.2-.09-.29a.22.22,0,0,0-.15-.13c-.19-.05-.22-.12-.18-.34l-.05,0Zm-.33,5.31s0,.07.06.11l.15-.3,0,0a1,1,0,0,0-.13.09A.21.21,0,0,0,11.07,5.93Zm0-.31s0,0,0,0l0,0,0,.05S11.06,5.63,11.08,5.62Zm.32-1V4.52a2.81,2.81,0,0,0-.41,0,3.8,3.8,0,0,0-.43,0,.54.54,0,0,0,0,.11c0,.08.09.1.15,0s0-.06,0-.1A.84.84,0,0,0,11.4,4.65Zm-.49.78v0h0v0Zm0,1a.18.18,0,0,0,0-.24A.21.21,0,0,0,10.94,6.4Zm-.1,1.06,0,0A.18.18,0,0,0,11,7.33a.76.76,0,0,0-.07-.19Zm0-1.46V6Zm0,1.78c0,.1,0,.18.11.22A.44.44,0,0,0,11,7.71c0,.06-.06,0-.12,0Zm0-.77c0-.19-.05-.34-.07-.52a3.1,3.1,0,0,0-.16.3A.7.7,0,0,0,10.82,7ZM10.67,8.3h0v.16h0Zm-.06-1.05h0a.05.05,0,0,0,0,0s0,0,0,0Zm0-1.4c.09,0,.11-.11.12-.21C10.58,5.72,10.58,5.72,10.6,5.85Zm.07-.65h0v0h0Zm0,1v0a.11.11,0,0,0,.06,0s0,0,0,0Zm.21-3.13c0,.06.07.11.09.07a.11.11,0,0,0,0-.1s-.05-.07-.1-.14Zm.53,2.2h0l0,0Zm0-1.59a.55.55,0,0,1-.08-.51l0,0c-.09,0-.11.08-.09.15a1.82,1.82,0,0,1,.06.46.86.86,0,0,0,0,.18C11.48,3.82,11.49,3.81,11.44,3.72ZM11.3,2.3s-.07,0-.08.06a.08.08,0,0,0,.06.11l.13,0A.81.81,0,0,0,11.3,2.3Zm-.06-.79c-.11.14,0,.23,0,.34A.24.24,0,0,0,11.24,1.51ZM11.05.67a.59.59,0,0,1,0,.29,2.21,2.21,0,0,0,.05.33c.11,0,.14-.06.09-.11a.27.27,0,0,1-.06-.27.53.53,0,0,0,0-.18s.05-.11,0-.16S11,.59,11.05.67Zm0,3c-.11.11-.12.2-.06.3C11,3.83,11.05,3.76,11,3.62Zm0-.23v0l0,0,0,0Zm0-1.05c0,.15-.09.25,0,.36,0-.09,0-.16,0-.23S11,2.41,10.94,2.34Zm-.06-.7a.83.83,0,0,0-.08.18.77.77,0,0,0,0,.15.48.48,0,0,0,.1.15C10.9,2,11,1.82,10.88,1.64Zm0-.52c-.06.08-.12.12-.07.21S10.92,1.23,10.9,1.12ZM10.76.27s0,0,0,.06,0,0,.09,0L10.82.25Zm-.11,3.19c0,.08-.07.15,0,.22s.08-.11.06-.18S10.68,3.47,10.65,3.46Zm-.12-2c.12-.18.12-.18,0-.34C10.55,1.25,10.47,1.35,10.53,1.48Zm0,.24c0,.11,0,.11.06.15S10.65,1.75,10.56,1.72Zm0,1.22c.08-.11,0-.17,0-.24a1.31,1.31,0,0,1,0-.25A.44.44,0,0,0,10.6,2.94Zm0,1s0,0,.08,0a.45.45,0,0,0-.09-.1s-.05,0-.06,0A.09.09,0,0,0,10.57,4ZM10.41,6c0,.07-.08.11-.11.16s0,.07,0,.11l.17-.21-.15-.22c-.07,0-.14,0-.19,0Zm-.22-.71h0v0h0A0,0,0,0,0,10.19,5.31ZM9,.7a.11.11,0,0,0,.09.05.74.74,0,0,0,.14,0A2.36,2.36,0,0,1,9.9.62a.6.6,0,0,0,0,.37S10,.94,10,.91s0-.13,0-.2a.12.12,0,0,1,.14-.09.94.94,0,0,1,.15.06h0c-.12.05-.14.08-.13.17s0,.13.08.17,0-.22.05-.34h0l.09-.19a.2.2,0,0,0-.18-.28A1.76,1.76,0,0,0,9,.55l0,0S9,.67,9,.7Zm.91,1-.05,0a.08.08,0,0,0-.09.09s0,0,0,0ZM9.8,2.9v0h0v0Zm-.25,0s0,0,0,0l.17-.08a.69.69,0,0,1,0-.64c0-.05,0-.08,0-.09s-.07,0-.07.05ZM9.61.92c.07,0,.09,0,.1-.09s0,0,0,0h0l-.09.1Zm-.06.31c0-.05,0-.07-.06-.06-.11.29-.11.29,0,.41C9.55,1.45,9.55,1.34,9.55,1.23ZM9.41,3.76s0,.06.06.05l.08-.07-.08-.06A.16.16,0,0,0,9.41,3.76Zm0,.47.25-.12c0-.06,0-.13-.08-.15s-.1,0-.12.1Zm.35-.76c0-.12,0-.21,0-.31l-.15,0H9.52a1.77,1.77,0,0,1,.06.17,1.68,1.68,0,0,1,0,.2Zm.16-2,0-.08-.07-.08s-.05.06-.05.09S9.88,1.41,9.9,1.44Zm0,2.09s.06.06.1.1.05-.06.05-.08,0-.1-.09-.1S9.93,3.52,9.94,3.53Zm0,.45S10,4,10,4s.06,0,.07,0a2.45,2.45,0,0,0,.1-.26.94.94,0,0,0-.18.09A.4.4,0,0,0,9.94,4Zm.24-1.26a.12.12,0,0,0-.11-.15c0,.08-.09.15,0,.22S10.18,2.8,10.18,2.72Zm0-.51c.07-.22.07-.22-.11-.39h0a.25.25,0,0,0,0-.09s0,0-.05,0,0,0,0,0a.23.23,0,0,1,.07.07h0c0,.11,0,.21,0,.32A.07.07,0,0,0,10.2,2.21Zm0,1,0,0,0,0,0,0Zm0-1.84-.08.17C10.34,1.45,10.34,1.45,10.23,1.34Zm-.92,1a.53.53,0,0,1,0-.28s0-.08-.08,0-.05.36-.08.55l.13,0A.74.74,0,0,0,9.31,2.31Zm-.08.45c-.07.15-.07.15.07.26ZM9.36.82H9.09l.14.25C9.29,1,9.37.93,9.36.82ZM9,3.84a.31.31,0,0,0,0-.12S9,3.66,9,3.65s-.07,0-.08.06A.11.11,0,0,0,9,3.84ZM9,4.1l-.06,0s0,0,0,.07l.06,0A.24.24,0,0,0,9,4.1Zm.09-.86s0,0,.09,0l-.06-.07s-.05,0-.05,0S9,3.24,9.05,3.24ZM8.85,1.7s.07,0,.08,0,.11-.2.16-.31,0,0,0-.07-.06,0-.07,0S8.91,1.58,8.85,1.7Zm-.13.5h.07s0,0,.07-.06-.06-.05-.08,0,0,0-.08,0A.11.11,0,0,0,8.72,2.2Zm0,.63s-.05,0-.05,0,0,.05,0,.05,0,0,.08,0S8.76,2.83,8.74,2.83Zm-.1-.33s0,.11,0,.17,0,0,0,0h.05c.12-.1.13-.2,0-.39C8.67,2.4,8.66,2.45,8.64,2.5Zm-.06,1h0a.3.3,0,0,0,0-.13s0-.06-.07-.12-.06.09-.06.13A.12.12,0,0,0,8.58,3.55Zm-.06.56a.36.36,0,0,0,0,.09s0,0,0,0a.23.23,0,0,0,0-.11ZM8.46,1.26l0,0,0,0,0,0S8.46,1.25,8.46,1.26ZM8.3,2.53a.47.47,0,0,0,0-.1,1.57,1.57,0,0,1,.2-.7.35.35,0,0,0,.08-.24c-.08,0-.12,0-.14.05a1,1,0,0,1-.08.26A1.21,1.21,0,0,0,8.3,2.53Zm0,1.84,0,0,.09.07,0,0S8.39,4.36,8.35,4.37ZM6.7,1.94a.6.6,0,0,0,.49-.16,2.84,2.84,0,0,1,.74-.42.8.8,0,0,0,.27-.18.17.17,0,0,0,0-.19.15.15,0,0,0-.17-.1L7.8,1l-.18.1A1.83,1.83,0,0,0,6.7,1.94ZM8.16,3.18h0v0c.08-.08.08-.09,0-.25-.1.08,0,.17,0,.25l0,0h0s-.06.1,0,.16Zm0,.51s0,0-.06,0-.06,0-.06,0A1.22,1.22,0,0,1,8,4.15s0,.09.09.1.06-.26.08-.39A1,1,0,0,0,8.18,3.69Zm-.45-.2h0l0,0,0,0S7.73,3.47,7.73,3.49Zm0-1.23,0-.07s-.05,0-.05.05,0,0,0,.06S7.73,2.27,7.73,2.26Zm.12.89c0-.21.16-.4,0-.7-.1.25-.06.46-.13.64S7.78,3.16,7.85,3.15ZM7.9,1.91l0,0s0,0,0,0l0,0S7.9,1.9,7.9,1.91ZM7.36,4.16a.1.1,0,0,0,0,.15c.08,0,.1-.07.11-.16S7.39,4.14,7.36,4.16Zm.1-.39s0,0,0,0a.12.12,0,0,0-.05-.05l0,.05Zm.08-.61a.36.36,0,0,0-.21.24s0,.09,0,.1a.1.1,0,0,0,.07,0C7.47,3.38,7.49,3.3,7.54,3.16Zm-.2-.63s0-.06,0-.09c-.19.12-.11.32-.16.5.13,0,.19-.06.16-.13A.52.52,0,0,1,7.34,2.53Zm0-.37c.09-.1.09-.1.09-.3C7.38,2,7.31,2,7.37,2.16ZM7.08,4.08V3.8l0,0A2.33,2.33,0,0,0,7,4S7,4.12,7.08,4.08ZM7,2.37s0-.06,0-.07-.07,0-.07.06,0,0,0,0S7,2.38,7,2.37Zm0,1v0Zm-.24-.72c-.1.12-.1.12,0,.27A.22.22,0,0,0,6.84,2.66ZM6.63,4.25l0,0,0,0,0,0Zm-.11.47,0,0a.41.41,0,0,0,0,.09h0a.11.11,0,0,0,0,0Zm.22-.95c0-.09,0-.18-.1-.24a.44.44,0,0,0,0,.34C6.73,3.81,6.74,3.8,6.74,3.77Zm0-.38,0,0s0-.05,0-.08-.05,0-.06,0A.31.31,0,0,0,6.69,3.39Zm-.13-.94c.07-.05.12-.06.14-.1s0-.06,0-.1-.08,0-.09,0A.58.58,0,0,0,6.56,2.45Zm-.08-.68,0,0,0,0,0,0Zm0,2.76h0a0,0,0,0,0,0,0h0ZM6.42,2.88l0,0h0v0l0,0,0,0v0h0S6.4,2.84,6.42,2.88Zm-.6-.16a.19.19,0,0,0,.08.18c.13.05.11.17.17.28a.38.38,0,0,0,0-.1.44.44,0,0,1,.07-.27,1.51,1.51,0,0,1,.16-.31l0-.06a.17.17,0,0,0-.07-.18.13.13,0,0,0-.16,0l-.31.28Zm.53.58s0,0,0,.05l0,0,0,0S6.36,3.32,6.35,3.3Zm0,.22v0h0Zm-.13.63a.45.45,0,0,0,.07-.35C6.08,3.88,6.17,4,6.17,4.15Zm-.06.46,0,.09s0,0,0,0l0,0s0-.06,0-.1ZM6,3.46s-.07,0,0,.13l0-.13Zm-.25,1s0,.06.08.06.07-.05.07-.07a1.51,1.51,0,0,1,0-.52s0,0,0,0-.07.09-.08.14S5.73,4.28,5.72,4.42Zm-.17-.77h0l0,0,0,0h0a.45.45,0,0,0,.1-.33l-.09,0A.23.23,0,0,0,5.55,3.65Zm-.19.46,0,0h0l0,0Zm-.1.52,0,0a.05.05,0,0,0,0,0l0-.06s0-.06,0-.07,0,0-.05-.06,0,0,0,0A.33.33,0,0,0,5.26,4.63Zm-.21-.34a1.17,1.17,0,0,0,.09-.24c0-.14,0-.28.06-.42h0a.61.61,0,0,0,0-.12s0,0,0,0l0,0s0,.09,0,.13h0C5,3.8,5,4.05,5.05,4.29Zm-.13.38h0l0,0a0,0,0,0,1,0,0Zm-.27.26c-.07.05-.06.09,0,.14Zm.08-.37s-.05,0-.06.06,0,0,0,.08a.24.24,0,0,0,.08-.06S4.75,4.6,4.73,4.56Zm4.2.9L9.3,5V5a.13.13,0,0,1,0-.06c.1,0,.1,0,.2.08l.27-.07V4.75l.09,0c0,.06.08.1.14.08s.21,0,.24-.12.08-.06.11,0,.07.07.11,0,0-.07,0-.11a.14.14,0,0,0,0-.06h-.11a3.88,3.88,0,0,0-.75.17l-.23,0c-.11,0-.25,0-.34.1H9a.28.28,0,0,1-.2,0,.46.46,0,0,0-.22-.06,3,3,0,0,1-.6,0,2.27,2.27,0,0,0-.41.08L7.62,5a.11.11,0,0,1,0,.08.08.08,0,0,1-.08,0L7.32,5,7,5.05s0,0,0,0,0,.09,0,.11-.08,0-.1,0a.15.15,0,0,0-.15-.07c-.3.07-.61.11-.91.19s-.6.19-.9.29a.39.39,0,0,0-.11.08,8.2,8.2,0,0,0,.92-.09,1,1,0,0,0,.17,0A.92.92,0,0,0,6,5.41a.38.38,0,0,0,.46.06c0-.09,0-.18,0-.23a.08.08,0,0,1,.08,0,.15.15,0,0,1,0,.06c0,.06-.06.14.05.19l.21-.13a.07.07,0,0,1,.06,0l0,.11.32,0a.45.45,0,0,0,0-.08c0-.06,0-.12.11-.1s0,.07,0,.12,0,0,0,.06a2.6,2.6,0,0,0,.63,0c0-.06,0-.12.08-.13a.24.24,0,0,1,.14,0s0,0,0,0,.07.07.12.07Zm1.12,1.35c.08,0,.12,0,.11-.09a1.3,1.3,0,0,1-.09-.39s-.05,0-.07,0-.06,0-.06,0,0,.19,0,.3C10.11,6.61,10,6.74,10.05,6.81Zm0,1.4-.29.2a2.62,2.62,0,0,0,.22.25C10,8.5,10.06,8.37,10.08,8.21Zm0,1.78v0S10.07,10,10.06,10Zm0,.49v-.15C10,10.4,10,10.4,10,10.48Zm-.13-.67a.79.79,0,0,0-.1.16A.06.06,0,0,0,9.9,10S10,9.91,9.89,9.81ZM10,8c0-.12,0-.25-.12-.35a.21.21,0,0,1-.09-.25c0-.07,0-.15-.07-.25a.74.74,0,0,1-.12.09,1.63,1.63,0,0,1-.21,0c.16.07.26.13.27.25.17.12.17.3.19.47s0,.09,0,.14S10,8.05,10,8Zm-.27,2.5c.08-.09,0-.19,0-.3s-.2.12-.3.17l.05.14Zm-.09.36s-.08.06-.09.09a.17.17,0,0,0,0,.1s.09,0,.09-.06S9.66,10.89,9.64,10.83Zm-.32.29a2,2,0,0,0-.17.23s0,0,0,.06l.15,0A2.39,2.39,0,0,0,9.48,11a1,1,0,0,1-.2-.06.76.76,0,0,1-.14-.16L9,10.86C9.05,11,9.23,11,9.32,11.12Zm-.09-.47.08-.11a.11.11,0,0,0,0,0h0A.1.1,0,0,0,9.23,10.65ZM9.59,8l-.2.11v0l.2.11A.57.57,0,0,0,9.59,8Zm.09-1.8h0c-.05,0-.11,0-.14.05s.12,0,.14-.05h0c.07,0,.06-.12.07-.18s0-.07-.09,0Zm0,.61,0,0c0,.05.06.12.1.12s0,0,.06,0S9.75,6.76,9.69,6.78Zm.1-1.64h0Zm-.21.29,0,0s0,0,0,0h.05ZM9.52,6.75s0-.09,0-.14,0-.08,0-.16C9.4,6.66,9.4,6.66,9.52,6.75Zm0-1s0,0-.06,0-.07,0,0,.07,0,0,.07.07A.26.26,0,0,0,9.5,5.7Zm-.18.88v0h0v0Zm-.25-.22.18,0-.07-.19ZM9.16,6h0Zm0,1.17c.12-.06.14-.2.05-.41C9.15,6.82,9.15,6.82,9.17,7.12Zm-.33.71c.14,0,.09-.15.23-.2s.1.09.13.08.15.07.22.11c.07-.12.07-.15,0-.18s-.21-.15-.35-.11-.11,0-.16-.06S8.87,7.71,8.84,7.83Zm.38.4-.08.12.17.13C9.3,8.37,9.3,8.3,9.22,8.23ZM9,8.32c-.05.12,0,.19.1.25C9.06,8.48,9.11,8.37,9,8.32Zm-.41-.25a2,2,0,0,0,.13.43s0,.07.1,0S8.74,8.22,8.57,8.07Zm-.24.46s0,0,0,0,0,0,.07,0l0-.06ZM8.07,8a.32.32,0,0,0,0,.3l.08-.08,0-.06ZM8,7.75l0,0,0,0,0,0Zm-.16.53c-.1.15-.17.24,0,.38A.36.36,0,0,0,7.84,8.28Zm-.21-.79A.58.58,0,0,0,7.79,8c.07-.08,0-.13,0-.19S7.73,7.58,7.63,7.49Zm-.28.77a3,3,0,0,0,.06.38c.08-.17.08-.17.06-.29a.25.25,0,0,1,0-.22h0c0-.08.06-.2-.1-.3l.1.3h0a.35.35,0,0,0-.11,0S7.34,8.23,7.35,8.26ZM7,7.59a.61.61,0,0,1,0,.35c0,.13,0,.27,0,.44.16-.25,0-.48.06-.7s0-.24-.12-.35A.25.25,0,0,0,7,7.59Zm-.28.22,0,.42c.12,0,.12-.13.11-.22A.21.21,0,0,0,6.76,7.81ZM6.7,7.4s0,.13.1.11,0-.18,0-.3A.16.16,0,0,0,6.7,7.4Zm-.22.17.08-.27C6.4,7.39,6.38,7.47,6.48,7.57ZM6.5,8l0,.13h0V8Zm-.38-.1c0,.07,0,.15,0,.22h.07a1,1,0,0,1,0-.55.34.34,0,0,0,0-.14l0,0s0,0,0,0a.44.44,0,0,0-.06.16C6.11,7.67,6.11,7.77,6.12,7.88Zm.08.45,0,0,.06.06,0-.06ZM6,7.6a1.11,1.11,0,0,1,0-.19.41.41,0,0,0,0-.08C5.83,7.43,5.83,7.45,6,7.6Zm-.14.22,0,0,.06,0,0,0Zm0,.57c.09-.12.09-.12.09-.25A.2.2,0,0,0,5.81,8.39ZM5.7,7.75a.43.43,0,0,0,.07-.31H5.69A.24.24,0,0,0,5.7,7.75Zm-.15.65h0l0,0,0,0v0a.06.06,0,0,1,0,0h0v0l0,.12,0,0,0,0Zm.09-.32v0h0v0ZM4.21,8h0a.31.31,0,0,0,.09-.07.29.29,0,0,1,.19-.13c.05,0,.06,0,.07.06h0a.23.23,0,0,0-.13.25.34.34,0,0,0,.13-.25h0a1.28,1.28,0,0,1,.67-.27,1,1,0,0,0,.22-.08c.07,0,.14-.08.14-.18a.2.2,0,0,0-.15-.17.32.32,0,0,0-.17,0A1.36,1.36,0,0,0,4.21,8Zm.86.6h0l0-.06,0,0-.05.06v0h0v0ZM4.81,8S4.75,8,4.74,8s0,.05,0,.08h0s.06,0,.06-.06S4.82,8,4.81,8Zm-.46.81a.37.37,0,0,0,.16-.24C4.36,8.61,4.36,8.61,4.35,8.79ZM4.2,8.61c.08-.06.13-.12.09-.21S4.21,8.51,4.2,8.61Zm0,.5,0,0v0l0,0Zm-.32-1.3v0l.05,0v0Zm0,.7L4,8.33C3.88,8.41,3.88,8.41,3.92,8.51Zm0,.64C4,9,4,9,4.09,8.71c0,0,0,0,0,0l-.18.36A.41.41,0,0,0,3.89,9.15Zm-.24-.76,0,0,0,0,0-.06h0A.16.16,0,0,0,3.65,8.39Zm0,.55v0l.08,0s0,0,0-.06,0,0-.06,0S3.62,8.92,3.61,8.94Zm0-.42c-.17.1-.17.1-.12.26C3.52,8.7,3.59,8.64,3.57,8.52Zm-1.29,0a.23.23,0,0,0,.22.07l.25-.11,0,0c0,.05,0,.1.1.09s.08,0,.09-.1,0,0,0-.07l.33-.06a.16.16,0,0,0,.13-.17,1.79,1.79,0,0,1,0-.23L3.23,8s-.07,0-.08,0-.17,0-.27,0a.57.57,0,0,1-.33.22.61.61,0,0,0-.17.07A.19.19,0,0,0,2.28,8.52Zm1,.43,0,.15h0L3.34,9Zm-.17-.21v0h0v0ZM2.88,9a3.79,3.79,0,0,0-.2.34s0,.06,0,.12c.18-.12.11-.31.21-.43ZM2.66,9h0V9h0Zm-.16.2-.06.06a.19.19,0,0,0,0,.07l.07-.05S2.52,9.2,2.5,9.17ZM2.35,9,2.3,9V9l0,0Zm-.13.83s0,0,0,.05l.06-.05,0-.05A.15.15,0,0,0,2.22,9.83Zm-.91-.71s0,0,.05,0a.06.06,0,0,0,0,0h0a.93.93,0,0,0,.22,0,.16.16,0,0,0,.14,0c.16-.13.31-.27.45-.4l-.32-.14a1.43,1.43,0,0,0-.23.26c-.07.1-.2.14-.26.26h0l-.06,0S1.31,9.1,1.31,9.12Zm.75.3s0,0,0,0,0,0,0-.08,0,0,0,0h0ZM2.1,9C2,9,2,9,2,9.14Zm-.27.25-.07.07,0,0a.27.27,0,0,0,.1-.06ZM1.46,10l0,.05,0,0,0-.05Zm-.32-.45s.07,0,.08-.06,0,0,0-.08-.05,0-.06,0S1.15,9.52,1.14,9.57Zm0,.45c-.06,0-.05.07-.05.12l0,0,0,0s.07-.08,0-.13ZM.9,9.88a.26.26,0,0,0,.22-.12l-.07-.07Zm-.29.76c.09-.15.24-.28.21-.48-.14.06-.15.06-.14.09a.53.53,0,0,1-.07.28A.41.41,0,0,0,.61,10.64Zm.36.64-.2-.11V11a.28.28,0,0,0-.22.33s0,.05,0,.07l.22-.1v.17C.88,11.46.89,11.35,1,11.28ZM.51,10.22l0,0h0a.21.21,0,0,0,0-.06s0,0,0,0l0,0v.07h0Zm-.18.62c.09-.05.1-.11.06-.18A.2.2,0,0,0,.33,10.84ZM1.68,12a.73.73,0,0,1-.28-.33c0-.05-.08,0-.13,0a.53.53,0,0,1,0,.34l.2,0A.56.56,0,0,0,1.68,12Zm1,.23c-.07-.06-.12,0-.17,0Zm.65-.07c0-.1,0-.2.07-.29a1.05,1.05,0,0,1-.21-.06s0-.08,0-.09a.2.2,0,0,1,.21-.07c.08,0,.08,0,.08-.13s-.17,0-.26,0-.11,0-.12-.05a.39.39,0,0,1,.05-.14s.11,0,.09-.14-.25,0-.34.1a1.46,1.46,0,0,0,0,.22,1,1,0,0,0,.13.18c-.11.17-.29.17-.44.24s-.09,0-.12-.07a.09.09,0,0,1,0-.13l.12-.07c0-.09,0-.2,0-.24s-.05-.14,0-.21,0-.07.07-.08c.18-.06.37-.1.55-.15l.09-.14.13-.1h0l.07,0a.35.35,0,0,0,.13.05s.06-.05.09-.07l0-.14c.19-.16.19-.16.41-.1l.23-.15c-.06-.14-.06-.23,0-.27a.18.18,0,0,1,.22,0l.13.13a.74.74,0,0,0,.55-.15.35.35,0,0,1,0-.17.19.19,0,0,1,.13-.15c.07,0,.11,0,.19.13L5.38,10c.28,0,.54,0,.79,0,0,0,.08,0,.12-.07s.13-.05.19,0,0,.22.12.25a1.1,1.1,0,0,0,.26,0l.45-.05c0,.06,0,.16.13.16a.07.07,0,0,1,0,0,.11.11,0,0,1,0,0s0,.06,0,.06a.82.82,0,0,0-.39.13s-.06,0-.07,0a.12.12,0,0,1,0-.1s0,0,.07,0,.1,0,.11-.06,0-.06-.14,0l-.31.11.31.27h0s0,.06,0,.07-.09,0-.13.06,0,.05,0,.09h.2l0-.07s0-.1,0-.14h0l.19.07c.15,0,.15,0,.07.19a.21.21,0,0,0,0,.06l.39-.17-.08-.15c.11,0,.2-.1.32,0s.15,0,.21-.06a.33.33,0,0,0-.07-.27c.08-.11-.12-.16-.06-.27a.24.24,0,0,1,.2-.09c.1,0,.05.12.1.16s.06,0,.12.07c-.13.12-.07.24,0,.35s.15-.06.13-.13,0-.17.11-.21.14,0,.2.1a.8.8,0,0,0,.19-.13.59.59,0,0,0,.1-.21A.23.23,0,0,0,9.43,10s0,0,0-.05l-.07,0c-.06,0-.09.12-.17,0s.12-.18.17-.27l.25,0s.05-.11.07-.17.09-.08.08-.17-.34-.05-.5-.13c.11-.11.12-.13.19-.08s.14,0,.21,0h0s0,.08.06.09,0,0,0,0a.07.07,0,0,0-.11,0h0s0,0,0,0A1.11,1.11,0,0,0,8.9,9a.15.15,0,0,1-.16,0l-.1,0c-.06.05,0,.15-.11.17s-.14,0-.18,0L8.42,9a.22.22,0,0,0-.24,0A.16.16,0,0,0,8.11,9c0,.14,0,.14-.2.14,0,0,0,0,0-.05S7.83,9,7.77,9s-.08.06-.13.07-.12,0-.14,0a.46.46,0,0,0-.4-.15s0,0-.07,0a.63.63,0,0,0-.5-.12s0,0-.09.06.18.06.26.08.08,0,.06.08S6.7,9,6.69,9A.84.84,0,0,0,6.3,9c-.06-.09-.12-.19-.26-.13s-.21,0-.26.16h.15a.06.06,0,0,1,0,.1.17.17,0,0,1-.24,0,.38.38,0,0,0-.45,0s.17,0,.15.14-.2.08-.26,0S5,9.16,5,9.19s-.14.1-.24.09a.38.38,0,0,0-.41.19c-.21-.09-.41,0-.62,0a1.27,1.27,0,0,0-.63.12c0,.1.2,0,.21.14-.18.11-.19.11-.32,0a.18.18,0,0,0-.26,0,.47.47,0,0,0-.14.41.54.54,0,0,0-.56.18l.24.05c0,.12-.06.19-.16.2a.22.22,0,0,1-.16,0c-.19-.11-.3-.12-.44,0a.31.31,0,0,1-.21.09s-.09,0-.13,0A1.15,1.15,0,0,0,.78,11a.65.65,0,0,1,.47.09c0,.05,0,.11-.07.14s-.17.09-.16.22-.05.08-.09.11-.12.06-.16-.07l-.05,0c-.14.09-.15.09-.19-.08-.07,0-.14,0-.17.09s.12.2.28.14.11,0,.17,0l.17.06a1.26,1.26,0,0,1,.07-.16.46.46,0,0,0,.1-.18c0-.05.1-.08.15-.06l.28.16a.15.15,0,0,1,.08.11.21.21,0,0,0,.15.2l.1.06-.07.16c.06,0,.11,0,.14,0S2,12,2,12v0c0-.2,0-.2.12-.28s.12-.1.09-.2L2,11.28c-.07,0-.14.08-.18.07a.53.53,0,0,0-.28,0H1.47a.15.15,0,0,1-.08-.2c0-.07.09-.09.17-.05l.12.09.05,0,.21-.12c.05,0,.11.09.15.08s.25.07.33.18.12.17,0,.28l-.09,0,0,.15L2.17,12a1.52,1.52,0,0,1,.39.06c.12.06.18,0,.25,0l.11-.09.27.05s.05,0,.08.06c-.13.18-.31.07-.45.11s0,.09.07.08ZM9,11.17v0H9Zm-.17-.43a.75.75,0,0,0-.13.06.08.08,0,0,0,0,.08s.06,0,.07,0l.09-.1Zm-1.75.83a.07.07,0,0,0,0,.06c.15.53.32,1.06.48,1.6,0,0,0,.07.08,0,0-.24.11-.48.16-.73s.13-.5.18-.75A4.07,4.07,0,0,0,8.11,11a1,1,0,0,0-.46.23A1,1,0,0,1,7.06,11.57Zm.15-.27v0h0v0ZM7,11.2l0,0,0,0s0,0,0,0Zm-.9-.73c-.06,0-.15,0-.18.12l.15.29c.1-.08.11-.2.15-.31S6.15,10.45,6.09,10.47Zm-.48,0c0,.12-.13,0-.18.06s0,.28,0,.43.1,0,.12-.07,0-.22.12-.3.07-.24,0-.38l-.2.08C5.54,10.31,5.64,10.32,5.61,10.44Zm.09.72s.07,0,.08-.05a1.36,1.36,0,0,1,0-.2l-.06,0a1.42,1.42,0,0,0-.08.18A.1.1,0,0,0,5.7,11.16Zm-.42.05c0,.11,0,.19,0,.27l0,0s.07-.06.08-.1A.18.18,0,0,0,5.28,11.21Zm-.23-.73s0,0,.07.1l.1-.25C5,10.4,5,10.41,5.05,10.48Zm-.46,2.89-.11-.17.1-.17c-.11,0-.11,0-.48.07,0,0,0,.09,0,.13a.6.6,0,0,0,.08.16A.25.25,0,0,0,4.59,13.37Zm-.12.39.13.15.22-.12v-.2C4.7,13.59,4.7,13.59,4.47,13.76Zm-1,.26c-.06.1-.06.1,0,.4l.18-.23a1.16,1.16,0,0,0-.09-.14S3.51,14,3.49,14Zm0-2.79,0,0s0,0,0,0l0,0Zm.2,1.08c-.05,0-.08,0-.09,0a.38.38,0,0,0,0,.33A.39.39,0,0,0,3.7,12.31Zm0,.7,0,.4c.09,0,.09,0,.19-.28C3.81,13,3.81,13,3.67,13Zm.14,1.26A2.49,2.49,0,0,0,3.92,14s0-.08-.06-.07a2.52,2.52,0,0,0-.12.29S3.75,14.27,3.81,14.27ZM4,12.59a.11.11,0,0,0,0-.06c0-.07-.08-.08-.14-.07l-.06,0C3.87,12.55,3.88,12.63,4,12.59Zm.11-.5a0,0,0,0,1,0,0L4,11.94c0-.09,0-.16,0-.2l.3-.15,0-.15c0-.12,0-.15-.13-.18s-.09,0-.13,0a.28.28,0,0,0,0,.09.15.15,0,0,1-.08.22.32.32,0,0,0-.17.42h0c-.07-.09-.06-.23-.19-.32,0,.15,0,.27.07.39a.1.1,0,0,0,0,0,.11.11,0,0,0,.08,0s0,0,0-.05,0-.05,0-.08h0C4,12,4,12.11,4.09,12.09Zm-.3-.69v0h0Zm.56.71L4.47,12c-.09-.07-.15-.16-.26-.18C4.14,12,4.27,12,4.35,12.11Zm-.16.43v0s0,0,0,0l0,0Zm.16.06.12.09c0-.13.08-.25.11-.36s0-.05,0-.11l-.09.21C4.42,12.48,4.33,12.49,4.35,12.6Zm.22-1.51,0-.15-.24-.12v.26Zm-.5,2.69a.28.28,0,0,0,.08-.32A.36.36,0,0,0,4.07,13.78Zm.87-2.07s0,0,0-.06-.28.06-.37.22C4.73,11.89,4.83,11.78,4.94,11.71Zm0-.32c0-.14,0-.16-.08-.17s-.19-.05-.28,0C4.7,11.43,4.7,11.43,5,11.39Zm-.07-.58a2.09,2.09,0,0,0,0-.25s0,0-.06,0,0,0,0,0A.19.19,0,0,0,4.9,10.81Zm-1.71,4c.1-.11.1-.11,0-.24C3.18,14.64,3.12,14.72,3.19,14.8Zm-.34.63a.06.06,0,0,0,0,.05.1.1,0,0,0,.07,0,.25.25,0,0,0,0-.22C2.85,15.27,2.86,15.35,2.85,15.43Zm0,.41a1.83,1.83,0,0,0,.06.25s0,0,.08,0a.42.42,0,0,0,0-.39S2.81,15.82,2.81,15.84Zm-.13,1.82a.31.31,0,0,0,0-.08s0,0-.05.05,0,0,0,.07S2.68,17.67,2.68,17.66Zm.45-.13c-.06,0-.11,0-.1.13A.15.15,0,0,0,3.13,17.53Zm.44-.44L3.43,17c-.12.12-.17.24-.06.39s-.07.14,0,.21l0-.21,0-.14h.1c.07,0,.11,0,.13-.08S3.63,17.11,3.57,17.09Zm.18-.21-.25-.4-.13.21-.19-.16a3.07,3.07,0,0,0,.11-.32c0-.2.06-.39.09-.59a.63.63,0,0,0-.07-.43s-.08.05-.08.08,0,.29,0,.44a1.29,1.29,0,0,1-.1.64.75.75,0,0,0-.2,0c-.09,0-.12-.05-.18-.06s-.1,0-.11.07c.17.13.17.13.17.33a1.92,1.92,0,0,0,0,.24.4.4,0,0,0,.07.19,3.2,3.2,0,0,0,.26.28,4,4,0,0,0,0-.44c-.08,0-.08,0-.11.06s-.16,0-.17-.07,0-.23,0-.35,0-.13.11-.12a.18.18,0,0,1,.09.1,1.4,1.4,0,0,1,.06.24l.39,0C3.65,16.91,3.65,16.91,3.75,16.88Zm.11.79-.07-.31a.27.27,0,0,0,0,.34s0,0,.07,0S3.86,17.69,3.86,17.67Zm.74,0,0-.05-.06,0s0,0,0,.05Zm1.56,0,0-.34-.07,0c-.11,0-.14,0-.16-.07a.69.69,0,0,1,0-.13h0l-.07.31-.26-.06-.11-.26a.44.44,0,0,0,0,.08c.06.23.06.23-.13.34,0,0,0,.06-.06.08.2.11.27-.06.4-.14.07.09.1.22.24.16s0-.13.09-.14S6,17.79,6.16,17.71Zm.74-.12c-.09-.12-.16-.23-.23-.34.1-.2,0-.43.11-.63,0,0,0-.1,0-.18l-.11.14a1.8,1.8,0,0,1,0-.37c0-.24,0-.48,0-.71a2.33,2.33,0,0,0,0-.59c0-.09,0-.18,0-.26a.76.76,0,0,1,0-.15.12.12,0,0,1,.07-.05s.06,0,.06.05,0,.07,0,.11a2,2,0,0,0,.05.74.66.66,0,0,1,0,.24.72.72,0,0,0,0,.41s0,0,0,0H7l.1-.19s0,0,.05,0,.06,0,.06,0a.25.25,0,0,1,0,.12.68.68,0,0,0,.07.62v0c-.12.12-.12.12-.09.23a.46.46,0,0,1,.37-.27.64.64,0,0,0,0-.39.57.57,0,0,1,0-.46c.17-.05.17-.05.16-.19a.5.5,0,0,1,0-.12h0a.3.3,0,0,0,.08-.23c0-.26-.08-.53-.14-.79a4.53,4.53,0,0,1-.13-.64,1.25,1.25,0,0,0-.09-.25,1.36,1.36,0,0,1-.11-.28.63.63,0,0,0-.23-.34.43.43,0,0,1-.14-.48.45.45,0,0,0,0-.23,2.6,2.6,0,0,1,0-.26.09.09,0,0,0,0,0H6.7c-.07-.23,0-.46,0-.71,0,.06-.07.09-.07.12a.25.25,0,0,1-.07.21.18.18,0,0,0,0,.28s0,.11,0,.17,0,.17.08.24a.2.2,0,0,1,0,.22c0,.08-.06.13-.15.12s0-.21-.1-.29,0-.19-.11-.26a2.29,2.29,0,0,1-.21-.23c.3-.29.39-.35.35-.77l-.14,0a.34.34,0,0,1,0,.11s0,.1-.06.12-.07,0-.11-.06-.12,0-.16,0a.2.2,0,0,0,0,.17c0,.11,0,.18-.09.26l-.26-.14c-.06.05-.06.11,0,.15a1.3,1.3,0,0,0,.25.1.31.31,0,0,1,.09.07c0,.05.06.11,0,.16s-.11,0-.15,0l0,0L5.42,12l-.14-.2a.29.29,0,0,1,0,.09.5.5,0,0,1,0,.13s-.09,0-.13,0l-.09,0a1,1,0,0,0-.1.47c-.12.05-.17,0-.26-.08s0,.19,0,.25a1.17,1.17,0,0,0,0,.52,1.12,1.12,0,0,1,.16.1c0,.05,0,.11,0,.17s-.07.05,0,.11.09-.11.1-.17A.33.33,0,0,1,5.18,13a1.37,1.37,0,0,1-.2-.13s0-.07,0-.1a.13.13,0,0,1,.07,0c.09.07.16,0,.26,0s0,.2,0,.29l.14.06a.89.89,0,0,0,.28-.43.13.13,0,0,1,.07-.09.12.12,0,0,1,.1,0,.14.14,0,0,1,0,.11c0,.13,0,.26.13.34a.11.11,0,0,1,0,0,1,1,0,0,1,0,.1s-.07,0-.08,0-.07-.15-.11-.24c-.13.12-.24.24-.14.42v0s0,.07,0,.07a.15.15,0,0,1-.11,0s0-.14-.13-.13a2.29,2.29,0,0,1-.09.28.11.11,0,0,1-.09.06.11.11,0,0,1-.08-.07c0-.06,0-.16-.08-.21s-.14.08-.13.13,0,.24.06.34l.22.12a.12.12,0,0,1,0,.21c-.1.05-.06.11,0,.18a.09.09,0,0,0,.11.07.12.12,0,0,0,.08-.06,1.54,1.54,0,0,0,0-.3,1.32,1.32,0,0,1,0-.44l.09-.09a1.08,1.08,0,0,1,0,.61,1.51,1.51,0,0,0,0,.56l0,.05H5.5l-.11,0c-.08.27-.08.28,0,.47L5.5,15c0,.17,0,.3.08.44s0,0,0,0,0,.08-.06.09a.1.1,0,0,1-.1,0c0-.05-.08-.12-.17-.15A.61.61,0,0,1,5,15a.68.68,0,0,1,.13-.5h0a.31.31,0,0,0,.08.29.53.53,0,0,0,0-.16.41.41,0,0,0-.1-.13h0s0-.06,0-.08l-.22-.26s0,0-.07,0l-.23-.1H4.37a.5.5,0,0,0,0-.13s0-.07-.08-.07-.07,0-.08.06a.28.28,0,0,1-.12.16.68.68,0,0,0-.2.36.58.58,0,0,1-.14.32l-.18-.13-.06.23a1.71,1.71,0,0,1,.27.14c.06,0,.13.1.11.19s-.09.1-.17.11l0,0a2,2,0,0,1,.06.26.59.59,0,0,1,0,.26.9.9,0,0,1-.15.19l.15.31c0-.08.05-.14.13-.14l.14,0H4a.76.76,0,0,0,0,.16.32.32,0,0,1-.11.42.42.42,0,0,1,.06.08S4,17,4,17s0,.13-.07.19l-.06.05c0,.15.09.3.13.45.19,0,.34-.06.35-.16l-.17,0c0-.1-.05-.2-.07-.31a.85.85,0,0,1,0-.23s.06-.07.09-.1.1.25.16.38c0-.16.15-.29.11-.47a.24.24,0,0,1-.31-.17c0-.06,0-.09-.1-.13a1,1,0,0,1-.15-.2v0h0a.67.67,0,0,0,0-.31c-.1-.16-.1-.16.06-.28,0,.11.09.23.14.34s.09.05.11.09a.64.64,0,0,1,0,.22l.06-.39.13.21a.09.09,0,0,0,.11.06h0l-.13.21a2,2,0,0,0,.12.21c0,.06.08.08.15,0v-.34l-.14-.1h0a.65.65,0,0,1,0-.14.64.64,0,0,0,0-.49c0-.11,0-.18.14-.27,0,.12.08.22,0,.35a.56.56,0,0,0,0,.52l.15,0v.4l0,0,.12-.1c.09.19,0,.37.08.52s-.13.12-.22.08a.33.33,0,0,0-.21-.06c0,.12.08.22.12.31a.46.46,0,0,0-.07.14c0,.06,0,.12,0,.13l.13-.3h.32A2.58,2.58,0,0,1,5.18,17c0-.06,0-.16.07-.17s.13-.12.19-.18a.06.06,0,0,1,.07,0,.18.18,0,0,1,0,.07c0,.1,0,.2,0,.3l0,0h0l.12-.12v-.14L6,16.57a.21.21,0,0,1,.27,0,.46.46,0,0,1-.07.14.81.81,0,0,1-.1.09c0,.12.1.23.15.37,0-.06.09-.09.09-.13l.06-.53s0-.1.07-.12,0,0,0,.06a3.54,3.54,0,0,1,0,.92,1.08,1.08,0,0,0,0,.36c.09-.07.08-.2.2-.23s0,.16.07.24l0,0Zm-2.15-.66v-.12h0v.12Zm.55-3.88H5.2A.08.08,0,0,0,5.3,13.05Zm2.52,2.83a.1.1,0,0,0,0-.07H7.67a2.36,2.36,0,0,0,0,.6s0,.06.09.1a.34.34,0,0,0,0-.13A.85.85,0,0,1,7.82,15.88ZM7,16.17c0,.15-.06.25-.08.36a.47.47,0,0,0,0,.17s0,.06.06.09C7,16.57,7,16.57,7,16.17Zm.3,1.4s0,0-.08,0h0a1.62,1.62,0,0,0,0-.22A.27.27,0,0,0,7,17.07a.7.7,0,0,0,0,.4l.16.05h0v.23A.19.19,0,0,0,7.25,17.57Zm.23.05,0-.3c-.2-.08-.11-.25-.14-.38C7.27,17.17,7.18,17.4,7.48,17.62Zm1.12.3a.87.87,0,0,0-.13-.19,2.33,2.33,0,0,1-.42-.57A.76.76,0,0,0,8,17.05c-.07.17-.13.31-.18.46a.7.7,0,0,1-.22.31s-.07,0,0,.09A3.26,3.26,0,0,0,8.6,17.92Zm-.69-3.38s.09.08.14,0l-.18-.16A.18.18,0,0,0,7.91,14.54Zm.86,2.57,0-.07,0,0s0,0,0,0Zm.21.07-.11.05c.06.16,0,.36.23.44A.47.47,0,0,0,9,17.18Zm.34.3c0-.14,0-.22-.06-.3C9.25,17.26,9.18,17.35,9.32,17.48Zm.26,0c-.08.15-.08.16.07.25C9.73,17.63,9.63,17.58,9.58,17.48Zm.24.19,0,0,0,0s0,0,0,0Zm1.4.08,0-.05,0,0a.08.08,0,0,0,0,.05Zm3-2.12a.38.38,0,0,1,.07-.36.45.45,0,0,0,.11-.23,1.88,1.88,0,0,1,.12-.3c0-.05.09-.09.11-.14.15-.34.29-.68.43-1a.58.58,0,0,0,0-.14,1.35,1.35,0,0,0-.56,0c-.09.07,0,.21-.16.25s-.05-.06-.05-.09a.5.5,0,0,1,0-.21.1.1,0,0,0,0-.12c-.07,0-.08,0-.12.06a.08.08,0,0,1-.07,0s0,0,0-.05a.14.14,0,0,1,0-.06.74.74,0,0,0-.14-.59c0-.1-.09-.2-.14-.29l-.08-.08h0a.62.62,0,0,0-.11-.48c0,.09,0,.16,0,.23a2.41,2.41,0,0,0,.08.25h0a2.41,2.41,0,0,0,.18.65s0,.08-.06.09-.07,0-.09,0a.13.13,0,0,1,0-.08,6.54,6.54,0,0,0-.28-1.16s0-.05,0-.09l.17,0c0-.2,0-.4,0-.6l0-.62c.11-.07.22-.12.25-.26l0-.07a.09.09,0,0,1,0-.15c0-.05.09,0,.13,0h.07l.13-.12a.29.29,0,0,0,.12-.36A2.82,2.82,0,0,0,14,8.72L13.82,9c0-.07-.08-.11-.07-.14s.09-.25.15-.4l-.17-.57c-.06-.2-.12-.4-.17-.6a.25.25,0,0,0-.12-.19.12.12,0,0,1,0-.18.28.28,0,0,0-.07-.35,1.16,1.16,0,0,1-.18-.27h0c-.06.06,0,.18-.13.23A1.64,1.64,0,0,1,13,6a.5.5,0,0,0,0-.21.2.2,0,0,0-.12-.12s-.09,0-.15.06l-.12-.14c-.07.26.15.28.27.36,0,.25,0,.25-.1.43l-.3-.08,0,0s0,.13-.12.1,0-.08,0-.13,0-.16.05-.2.11-.29.08-.47c0,.16-.14.22-.26.28s0,.16,0,.23,0,.31.07.47a.1.1,0,0,1-.06.05s-.06,0-.07,0a.25.25,0,0,1,0-.12.77.77,0,0,0,0-.26A.88.88,0,0,1,12,6a1.35,1.35,0,0,0-.05-.29c-.07,0-.13,0-.14.09.14.22.14.29,0,.47A1.57,1.57,0,0,0,11.68,6l-.07,0a.1.1,0,0,0,0,.07.85.85,0,0,0,.09.22.26.26,0,0,1,0,.32c-.17-.17-.06-.43-.2-.64,0,.12-.06.21-.1.31s0,.1-.07.11-.16.14-.21.22a.35.35,0,0,0,.06.32c.07-.05.13-.09.1-.17a.2.2,0,0,1,0-.24l.23,0,0,.21h-.16c-.14.17,0,.31,0,.47l-.12,0-.1,0c0,.23,0,.23-.12.39,0,0,0,0,0,0v0a.38.38,0,0,1,.11.29l.13,0c0,.16,0,.16-.1.18l-.12,0a1.4,1.4,0,0,0-.17.09,1.41,1.41,0,0,1,.2.3A.26.26,0,0,1,11,8.9l-.17-.2-.33.13c0,.08,0,.15.05.21s-.05.14,0,.22c.07-.13,0-.3.18-.38s.06.09.06.13c0,.23,0,.47-.08.7a.39.39,0,0,0,0,.26.53.53,0,0,1,0,.17l.08.26a.52.52,0,0,1-.06.13.51.51,0,0,0-.07.43s0,.11,0,.17a1.26,1.26,0,0,1-.1.69c-.08,0-.16.06-.2,0a.29.29,0,0,1,0-.16l.06-.35a2.69,2.69,0,0,1,.11-.7.34.34,0,0,0,0-.32l-.14.07a2.48,2.48,0,0,0,.13-.35c0-.13,0-.25.05-.38s-.24,0-.32-.16a2.44,2.44,0,0,0,.05-.39.34.34,0,0,1,0-.2c.08-.12,0-.2-.08-.26a1,1,0,0,1,.08-.23,1.5,1.5,0,0,1,.17-.23l-.32,0,.08-.26c.09-.09.24,0,.27-.16l-.14,0c-.07-.07,0-.21-.17-.26l-.09.09h0c0-.13,0-.24-.17-.29s0,0,0,0a2.18,2.18,0,0,0,0,.25h.2a.51.51,0,0,1,0,.4.7.7,0,0,0,0,.55.17.17,0,0,1,0,.12.57.57,0,0,0,0,.29,1.69,1.69,0,0,1,0,.23l0,.24a.32.32,0,0,1,0,.14.5.5,0,0,1-.13.12l.13.24.26-.19.1.09a.59.59,0,0,1-.36.35c0,.1,0,.18,0,.25v.27c0,.13-.07.21-.14.21s-.07-.12-.15-.19c0,.19,0,.37-.05.54l-.09,0-.12.05c.07.07.1.15.2.13s0-.15,0-.23a.23.23,0,0,1,.14-.21.11.11,0,0,1,.08,0,.08.08,0,0,1,0,.08s-.08.09-.07.12,0,.22,0,.32,0,.21-.12.31l-.12-.18-.13.15c-.06,0,0-.13-.14-.1a2.47,2.47,0,0,0-.06.29c0,.16,0,.16,0,.26,0-.09.08-.18.13-.27,0,.07.13.08.1.17h0c0,.12-.09.24,0,.36a.07.07,0,0,0,.08-.09,2.76,2.76,0,0,0-.08-.27h0s.08,0,.08,0a.22.22,0,0,1,.14-.2c.14.08,0,.22.09.33.18-.09.23-.16.19-.29a.45.45,0,0,1,0-.23.88.88,0,0,0,0-.23,1.08,1.08,0,0,1,0-.64.58.58,0,0,0,0-.23.36.36,0,0,1,.09-.32s.11,0,.09.1a.87.87,0,0,1-.05.28.64.64,0,0,0,0,.49.65.65,0,0,1,0,.34.6.6,0,0,0,0,.51,1.43,1.43,0,0,1,.19.42h0l-.07,0a.09.09,0,0,0,0,.13l0,0c.06,0,0-.08,0-.12h0l0,.08c0,.06.06.11.14.08s.07,0,.08.05a.18.18,0,0,1,0,.2.75.75,0,0,0-.09.15c0,.09.1.08.12.14a.86.86,0,0,0,.07.1c.1,0,.13-.06.15,0a.1.1,0,0,1,0,.15l-.06,0c-.07,0-.1,0-.12.11s0,.07-.08.06,0-.27-.09-.32,0-.27-.21-.29c0,.09-.05.17-.07.25s0,.21,0,.32a2.25,2.25,0,0,0,0,.44,3,3,0,0,1-.07.67.1.1,0,0,0-.1.11,1.92,1.92,0,0,1,0,.24s0,.05-.06.05a.07.07,0,0,1-.07,0,.41.41,0,0,1,.11-.6s.06-.08,0-.1a1,1,0,0,0-.12-.23s-.09,0-.13,0c0-.2.14-.2.3-.28-.11,0-.2,0-.19-.12s0-.16.11-.16a.07.07,0,0,0,0-.11,2.14,2.14,0,0,0-.13-.19.19.19,0,0,1-.05-.1.41.41,0,0,1,.07-.34h.05c.08,0,0,.16.13.19a.69.69,0,0,0,0-.68c-.07.12,0,.3-.19.35s0-.13-.1-.09a.1.1,0,0,0-.06.12l0,.11H9.82a.4.4,0,0,1-.12-.1.32.32,0,0,0-.12.41.7.7,0,0,1,0,.29.88.88,0,0,0,0,.17c0,.21,0,.21-.06.37.11.1.12.13,0,.2l-.09.05c0,.16.09.2.19.19a.15.15,0,0,0,.11-.18,1.37,1.37,0,0,1,0-.35.6.6,0,0,0,0-.37.22.22,0,0,1,0-.11.8.8,0,0,1,.28-.56h0c0,.05,0,.1,0,.13a.49.49,0,0,0,.05.51s0,0,0,.09l-.17.25a1.7,1.7,0,0,1,0,.55.44.44,0,0,0,0,.32A.64.64,0,0,1,10,15l0,.28c.29,0,.3,0,.44.19a.4.4,0,0,1,.09.25c0,.08-.07.12-.11.17s0,0,0,.05l.1.14-.31.13,0-.26.18-.14a.4.4,0,0,0-.17-.34s-.07,0-.13,0,0,.23,0,.34A.43.43,0,0,1,10,16s-.08-.05-.09-.07a.92.92,0,0,0-.14-.32.26.26,0,0,1,0-.33.41.41,0,0,0,0-.39.54.54,0,0,0-.28.23c.12.22.14.31.07.45-.23,0-.23-.24-.35-.36-.24.14-.31.11-.31-.17a.38.38,0,0,1,0-.1l.3,0a.63.63,0,0,0,0-.45s0,0-.1-.07L9,14.79l-.15,0s-.12,0-.16,0,0-.19.2-.29.1-.08.07-.14,0-.26-.05-.38,0-.1,0-.14l.1-.18a.13.13,0,0,0,0-.19.09.09,0,0,1,0-.13s0-.06,0-.07c-.06-.17.08-.28.1-.42s-.1-.22.07-.37l0,0a.09.09,0,0,0,0-.15.52.52,0,0,1-.13-.06s0-.06,0-.08h0c0-.07.05-.11.09-.17a2.16,2.16,0,0,0,.18-.3s0-.06,0-.07a.11.11,0,0,0-.08,0,.11.11,0,0,0-.07.06L9.15,12s0,0,0,.07h0a.33.33,0,0,0-.25.1c0-.11,0-.22,0-.33s.11-.2.08-.36c-.08.1-.19.16-.19.26a1.74,1.74,0,0,1-.16.55.8.8,0,0,0,0,.57h0a.12.12,0,0,1,0,.17s.07.06.1.05.08,0,.1,0a.23.23,0,0,1,0,.16,1.55,1.55,0,0,1-.12.22l-.07,0c-.14,0-.16-.06-.12-.18a.65.65,0,0,0,0-.28l-.14.1c-.19-.12-.19-.12-.21-.33l-.11,0c-.11-.19-.1-.2.12-.33l.14.29a1,1,0,0,0,.09-.18s0-.09,0-.14a1,1,0,0,1,0-.16l-.27-.07A.19.19,0,0,1,8.24,12a.66.66,0,0,0,.21-.35s0,0,.07,0,0,.07,0,.1a1.23,1.23,0,0,1,0,.19h0c-.07,0-.12.05-.1.13s0,0,.06,0,.06-.1,0-.16h0v0a.58.58,0,0,0,.2-.21l-.07,0c-.1-.06-.11-.12-.05-.18l.15-.1a.18.18,0,0,0,.07-.21c0-.05-.08-.07-.12-.1s-.18.33-.31.46a.59.59,0,0,1,0-.47c-.07,0-.12,0-.13,0s-.06.33-.1.49L7.87,13l-.15.73a.64.64,0,0,0,.13.47l.21-.45c.07,0,.12,0,.16,0s0-.36.11-.5l.15.19c-.05.27,0,.57-.12.85l-.21-.18a1.21,1.21,0,0,0,.16.44.63.63,0,0,1,.15-.11s.09,0,.11,0,0,.08,0,.1a.53.53,0,0,0-.06.37s0,.08,0,.12h0c0,.09,0,.17-.08.27H8.33a.4.4,0,0,1,0-.26.57.57,0,0,0,0-.29c-.16,0-.16,0-.29.13l.12,0A.12.12,0,0,1,8.2,15c0,.07,0,.11-.1.13l-.07,0c0,.09,0,.18.08.24s.17.15,0,.29l0,.05c0,.29,0,.57-.05.85a.45.45,0,0,0,.05.28l.34.56s0,0,.05,0v-.12l.18.12c0-.14,0-.25-.07-.35A.6.6,0,0,0,8.44,17l0,.19a1.08,1.08,0,0,1-.2-.36.44.44,0,0,0,.08-.15s0-.09,0-.14.05-.09.07-.08.12-.06.15-.13a.06.06,0,0,1,.1,0,.2.2,0,0,1,.08.12,2.5,2.5,0,0,1,.05.29l0,0,.05-.07.07.08a.3.3,0,0,0,.06-.13c0-.05,0-.11,0-.17A.58.58,0,0,1,9,16.28l.06,0a.62.62,0,0,1,0,.23c0,.11.1.15.08.25A.11.11,0,0,1,9,16.9l-.09,0c0,.1.06.16.09.22l.21,0,.07-.16a2.75,2.75,0,0,1-.11-.29c0-.09,0-.18.1-.22s.07.2.08.3A.43.43,0,0,0,9.4,17a1.32,1.32,0,0,1,.07.3s0,.05.06.08c.07-.17-.16-.35,0-.5l.11.08a2.17,2.17,0,0,1,0,.26c0,.06,0,.1.06.11s0-.05.08-.07l.06-.05.21.2c0-.06,0-.1,0-.14s0-.29,0-.44a.35.35,0,0,1,.06-.22c.09-.11.18-.16.25-.12s.1.14.09.23a.57.57,0,0,0,.05.34c0,.08,0,.19,0,.29a1,1,0,0,0,0,.17h0s-.1-.07-.16,0h0a.43.43,0,0,0,0-.25,1.07,1.07,0,0,1,0-.25.62.62,0,0,0,.06.5h0c.06.08,0,.12,0,.17s-.05.09,0,.12.06,0,.1,0l.1-.28h0c.11.07,0,.23.13.31s.08-.1.09-.17a.17.17,0,0,1,.09-.14c.1-.07.1-.07.06-.19l-.08.05c-.08,0-.13,0-.14-.06a.41.41,0,0,1,0-.31.74.74,0,0,1,.18-.17c0-.07,0-.17.07-.26s0,0,.07,0a.06.06,0,0,1,.06.05.14.14,0,0,1,0,.11c0,.11-.13.18-.13.32a.36.36,0,0,1,.14.16,1.18,1.18,0,0,1,0,.27s0,0,0,.05.05-.07.05-.1a1.23,1.23,0,0,0,0-.33,1.89,1.89,0,0,1,0-.58c-.2-.11-.2-.15-.06-.26l.07,0c0-.16,0-.29,0-.42s0-.06.06-.1a.48.48,0,0,1,.13.51l-.06.17a.18.18,0,0,0,0,.2.47.47,0,0,1,0,.47c.11.19.12.19.07.36a.7.7,0,0,0,0,.45h.16c0-.16,0-.3.07-.45s0-.28,0-.42a1.55,1.55,0,0,1,0-.43c.13,0,.18.1.15.2a.79.79,0,0,0,0,.43,1.15,1.15,0,0,1,0,.18,2.48,2.48,0,0,0,0,.47,1.1,1.1,0,0,0,.51,0c.17-.05.34.05.52-.07A2.65,2.65,0,0,0,13,17.3c0-.15.08-.28,0-.44s0-.12.08-.18h.07s.06.08.05.1c-.1.17,0,.36-.06.53a2.94,2.94,0,0,0,0,.41c.05,0,.1-.05.11-.07s0-.14,0-.21,0-.21.15-.27a.21.21,0,0,1,.09.26c0,.07-.06.13-.08.19a.1.1,0,0,0,0,.1.09.09,0,0,0,.13,0c0-.06.05-.16.15-.17s.07.1.09.17,0,.07.1,0a3.86,3.86,0,0,0,.09-.84s0,0,0-.05A.17.17,0,0,0,14,17a1.85,1.85,0,0,1,0,.23.17.17,0,0,1-.08.12.71.71,0,0,1-.15,0,.13.13,0,0,1,0-.05,2.39,2.39,0,0,0,.06-.65c0-.06,0-.11.1-.13l.11,0c.07-.25.13-.47.2-.68A.34.34,0,0,0,14.25,15.63ZM8.66,12.88,8.6,13h.05Zm.78-.24c0-.05,0-.09.06-.13s0-.1-.1-.09a.58.58,0,0,0,0,.48.11.11,0,0,1,0,.08h0v0s-.09.08-.08.15a.36.36,0,0,1-.07.22.15.15,0,0,0,0,.11.85.85,0,0,1,0,.32s0,.08.06.08.11-.26.16-.41a.64.64,0,0,1,0-.47l0,0h0c.13-.07.13-.07.08-.2A.23.23,0,0,1,9.44,12.64Zm.17,2.09s.06,0,.09,0l-.09-.17c0-.08-.08-.06-.17,0C9.51,14.59,9.55,14.66,9.61,14.73Zm3-8.56,0,0a.29.29,0,0,0,0-.09l0-.07,0,.06A.11.11,0,0,0,12.65,6.17Zm2,11.43c0-.13-.15-.11-.22-.19a2.78,2.78,0,0,1,.12-.7c.11,0,.25.12.3-.1l-.14-.12-.27.13a3,3,0,0,0-.06,1l.16,0S14.59,17.66,14.61,17.6Zm.06-.38v0Zm.08.68,0,0s0,0,0,0l0,0S14.75,17.91,14.75,17.9Zm.42,0,0,0v0l0,0Zm.54-.3-.11,0c-.12,0-.19,0-.2.14s0,.13,0,.23l.05-.21C15.66,17.67,15.66,17.67,15.71,17.55Zm.1-.18-.24-.25c-.08.09-.16.14-.27.07h0a.25.25,0,0,1,0-.1c.15-.2.11-.44.19-.65a.41.41,0,0,0,0-.15s0-.05-.06-.05-.07,0-.07,0a.82.82,0,0,0,0,.27.62.62,0,0,1-.09.45h-.28a1.92,1.92,0,0,1-.27-.11l0,.14c.24,0,.24,0,.25.25a.25.25,0,0,0,0,.12.21.21,0,0,0,.07.12,1.88,1.88,0,0,0,.23.16c0-.14.06-.25.09-.37a2.13,2.13,0,0,0,.27,0C15.67,17.28,15.68,17.46,15.81,17.37Zm.11.48-.07-.12s-.06,0-.06.05a.2.2,0,0,0,0,.11.12.12,0,0,0,.09.05S15.93,17.89,15.92,17.85Zm.65-.55a.29.29,0,0,1-.34-.16s-.08,0-.11,0l-.14.27.13.15-.15.11.13.3a.47.47,0,0,0,.29-.08c-.06,0-.15-.05-.15-.15s0-.16,0-.23,0,0,0-.06a.08.08,0,0,1,.14,0,2.07,2.07,0,0,1,.11.27C16.48,17.53,16.59,17.45,16.57,17.3Zm.08.65s0,0,0,0l0,0a.43.43,0,0,1,0,0Zm.11-.74a2.46,2.46,0,0,1,0-.28h-.17l-.11.14C16.58,17.14,16.61,17.27,16.76,17.21ZM17,18s0,0,0,0h-.08v-.17h0c.11-.08.26,0,.4-.08l-.09-.16c-.17.06-.33.08-.43-.11h0l0,0,0,0s0,0,0,.05h0a.15.15,0,0,0,0,.16l.12.19h0c-.13.05-.13.08,0,.17v0h0L17,18Zm1.22,0,0-.24-.17,0-.11-.19-.07.24-.34-.08h0a.13.13,0,0,0,0-.06l0,0v0l0,.06h0c0,.11-.1.13-.18.16s-.06.06-.08.09c.19.09.28-.07.39-.14s.15.15.26.12l.09-.12a1.42,1.42,0,0,1,.12.13A.08.08,0,0,0,18.22,18Zm.78-.7c.06-.1,0-.19,0-.32,0,.12-.06.2-.08.28s0,.06.05.09A.18.18,0,0,0,19,17.26Zm.28.64a1.48,1.48,0,0,1-.11-.22.22.22,0,0,0-.11-.18l-.07.23.17.12,0,.21h0Zm-.11-.57h0l0,0,0,0Zm.47.56c0-.06-.09-.11-.09-.15s-.09-.08-.11-.13a.33.33,0,0,1,0-.1v0a.11.11,0,0,0-.12.06.14.14,0,0,0,0,.16,1,1,0,0,1,.15.29s0,0,.06,0Zm.14-.42a1.27,1.27,0,0,0,0-.46.52.52,0,0,1,0-.33l-.12-.09,0-.21.14,0c.05.13.1.27.31.26a3.54,3.54,0,0,0,0-.86,2.3,2.3,0,0,1,0-.26A7,7,0,0,0,19.83,14l0,0,0,.21a.49.49,0,0,1-.15-.33l-.1.07-.09.1a1,1,0,0,1-.06-.26.59.59,0,0,1,0-.21l-.28.1a.71.71,0,0,1,0,.2.3.3,0,0,0,.11.29c.05,0,0,.1-.08.13L19,14.11a1.62,1.62,0,0,0,0-.23s0-.07-.08-.13a1.43,1.43,0,0,1-.05.2.11.11,0,0,1-.09.05.09.09,0,0,1-.06-.06c0-.21,0-.42.22-.53.15.06.15.06.21,0l-.21-.19a1.81,1.81,0,0,0-.25.3,2.29,2.29,0,0,1-.19.35c0,.05.08.09.08.14s0,.19.11.25a.17.17,0,0,1,0,.14s-.07,0-.12.09a.85.85,0,0,0-.42-.54c.19-.15.43-.24.33-.52-.06,0-.11,0-.13,0l-.06.13-.17-.1c-.08,0-.14.06-.11.16s0,.13-.09.18l-.27-.1s0,.09,0,.09a2.5,2.5,0,0,1,.25.09A.21.21,0,0,1,18,14,.19.19,0,0,1,18,14s0,0-.05,0a.63.63,0,0,0-.47,0c-.06,0-.05-.13-.13-.11s0,.14-.11.12L17.11,14a.37.37,0,0,0-.09.16.56.56,0,0,0,0,.19l-.25-.06c0,.06,0,.12,0,.16a.44.44,0,0,0,0,.31L17,15l.18-.2c-.05,0-.14,0-.11-.15h.3c.05.08,0,.21.18.2a.47.47,0,0,0,.26-.26s0-.05.06-.07.14,0,.15,0,0,.11,0,.17c-.17,0-.28.13-.23.33,0,0,0,0-.06,0s0,0-.05-.05h0l-.13,0,0,.06a1.17,1.17,0,0,1,0,.11.1.1,0,0,1-.19,0s0,0,0-.06,0-.07-.16,0,0,0,0,.06a1.17,1.17,0,0,1,.05.2l.2.07a.3.3,0,0,1,.08.08s0,.07-.07.08-.06.06,0,.09,0,.07.08.07a.11.11,0,0,0,.1,0,.46.46,0,0,0,0-.2.67.67,0,0,1,.15-.46h0a2.68,2.68,0,0,1,0,.49.81.81,0,0,0,0,.41h-.24c-.06.18-.06.18,0,.31l.13-.11c0,.13.1.23,0,.37a1.22,1.22,0,0,1-.5-.33.42.42,0,0,1,.16-.42.09.09,0,0,0,0,0,.77.77,0,0,0,0,.15l.06,0,0,0s-.06-.09-.07-.14v0a.25.25,0,0,1-.2-.1s-.06-.07-.08-.07-.27-.12-.43-.06-.09,0-.12-.06-.1-.1-.17,0a.47.47,0,0,1-.28.18h0c0-.07,0-.12,0-.18l-.06,0-.11.22H16a.58.58,0,0,1-.15.37l-.21-.07,0,.14c.13.08.3,0,.35.23l-.18.09c.08.4,0,.37-.15.47l.12.2.14-.07.1,0c.12-.15-.05-.21-.06-.32l.13-.1a1.47,1.47,0,0,0,.07.17l.13.11.11.11.05-.15c.11,0,.11.15.21.15s0-.13,0-.19a.28.28,0,0,0,0-.2c-.06-.11-.05-.11.08-.24,0,.07.09.15.05.22s0,.27,0,.41h.16a2.83,2.83,0,0,0,0,.29l.17,0,0,.25.23-.09c.06,0,.07-.16.2-.09l0,.24c.14,0,.15-.11.21-.19s.2-.07.25-.19L17.86,17c0-.12.09-.1.13-.16a.25.25,0,0,1,0-.08c.05-.13,0-.3.23-.35,0,0,.05-.07.07-.12s0-.14,0-.2.05-.05.08-.08.06.06.06.09a.26.26,0,0,1,0,.15,1.15,1.15,0,0,0,0,.49s0,.07,0,.13c-.05-.11-.09-.19-.12-.27h-.15c0,.13.1.23.07.32s.07.16.09.25l-.12.1.12.25c.05,0,.09-.07.1-.11a1.54,1.54,0,0,0,0-.3s0-.08.05-.12.07,0,.07,0a2.34,2.34,0,0,1,0,.83l.22-.14.07.22a.22.22,0,0,0,.07-.07.25.25,0,0,0,0-.07l-.18-.22c0-.18.06-.33.08-.49h-.16a2.29,2.29,0,0,1,0-.25,4,4,0,0,0-.05-1,.06.06,0,0,1,0-.06l.09-.07c.1.19,0,.37.06.55a2.21,2.21,0,0,1,0,.52H19a.52.52,0,0,1,.1-.11.07.07,0,0,1,.13,0,.45.45,0,0,1,0,.11c-.13.17,0,.26.11.38l.22,0c.08-.11,0-.19,0-.27a.33.33,0,0,1,0-.29s.05,0,.09,0,0,.13,0,.18a1.68,1.68,0,0,0,.09.32c.06.11-.07.2,0,.31A.17.17,0,0,1,19.78,17.47Zm.21.08c-.2.07-.22.14-.13.26Zm-4-3.48h0Zm0,0ZM9.68,9.51h0Zm5.57,7.7h0ZM9.37,9.65Zm-.74,5.68a.55.55,0,0,0,0,.18,1,1,0,0,0,.05.2c-.12,0-.17-.08-.19-.18a.19.19,0,0,0,0-.08s-.05-.07-.08-.07-.09,0-.09.09a.48.48,0,0,0,0,.12c0,.13,0,.26,0,.4l.18.15c.1-.05.08-.13.09-.2s0-.09.1-.09.1.19.18.28a.11.11,0,0,0,.08,0,.08.08,0,0,0,0-.07.47.47,0,0,0,0-.16,2.34,2.34,0,0,1-.12-.3c0-.12,0-.25-.06-.35s0-.23,0-.34,0,0-.06-.05L8.53,15a1.07,1.07,0,0,0,.07.19A.21.21,0,0,1,8.63,15.33Zm1.94-1.11.18-.05a.48.48,0,0,0,.09-.11c.13,0,.2.13.17.26a.65.65,0,0,0,0,.34.18.18,0,0,1-.12.24l-.19.07a4.34,4.34,0,0,1-.14-.48A1.17,1.17,0,0,1,10.57,14.22Zm.22.5c0-.09,0-.17,0-.3C10.69,14.58,10.69,14.58,10.79,14.72Zm.29.31S11,15,11,15a.74.74,0,0,1-.22.08.54.54,0,0,1-.21,0c-.07.23,0,.41.08.41l.08-.18.35,0h.08l0,.12a1.14,1.14,0,0,0,.06.14.56.56,0,0,0,0-.57C11.21,15,11.18,15.1,11.08,15Zm3.18-1c-.19.15,0,.37-.13.55-.07-.17-.13-.31-.19-.47-.07.13-.1.22,0,.34s0,.19,0,.29.24,0,.39,0C14.3,14.45,14.39,14.22,14.26,14Zm-.74,1.51s0,0,0-.05l-.19-.13c0-.09.08-.18,0-.28a.29.29,0,0,1,0-.31.25.25,0,0,0,0-.09,1.4,1.4,0,0,1,0-.5c0-.05,0-.1-.1-.21,0,.1,0,.13,0,.16a1.67,1.67,0,0,1,0,.59l0,.47a.34.34,0,0,0,.24.39A.13.13,0,0,0,13.52,15.5Zm-1-8.3h0Zm.1.53.16-.11.07.07s.09,0,.13,0,0-.07,0-.09-.1-.14-.14-.22l-.1-.26-.09.15-.1,0,.06.46A.13.13,0,0,0,12.59,7.73Zm-.66,2s0-.07-.1-.06a8.57,8.57,0,0,0,0,1.24.22.22,0,0,0,.07.2.26.26,0,0,0,0-.1,4.87,4.87,0,0,0,0-.54,2,2,0,0,1,0-.59Zm-.49-1a.47.47,0,0,0,0,.35.18.18,0,0,0,.09.06s.1,0,.09-.09a2.32,2.32,0,0,0-.07-.38.23.23,0,0,1,0-.24.23.23,0,0,0-.07-.32.24.24,0,0,0-.05.28A.41.41,0,0,1,11.44,8.69Zm.65,7.53h0l.13-.12a.86.86,0,0,0,0-.16.14.14,0,0,0-.16-.14.51.51,0,0,0-.17,0,.07.07,0,0,0,0,.13l.16.11s-.08,0-.09.07a.29.29,0,0,0,0,.1H12A.32.32,0,0,0,12.09,16.22Zm1.5,0s-.05-.05-.13-.11c0,.3,0,.54,0,.77a.29.29,0,0,0,0,.09s0,.05.06,0a.11.11,0,0,0,.08-.07s0-.06,0-.09a.4.4,0,0,1,0-.34A.33.33,0,0,0,13.59,16.21Zm-.3-8.93c.1-.26,0-.45-.24-.65a1.41,1.41,0,0,0,.08.6C13.15,7.31,13.21,7.33,13.29,7.28Zm-4.47,7A2.44,2.44,0,0,0,8.88,14L8.74,14l0-.31c-.14.1-.2.22-.15.35l.1.27s.06,0,.09.05A.1.1,0,0,0,8.82,14.3Zm3.38,2.58s-.06-.11-.09-.09-.07.06-.06.08a.94.94,0,0,1,0,.5,3.23,3.23,0,0,0-.06.33l.08,0,.19-.45-.09-.21A1.3,1.3,0,0,0,12.2,16.88ZM12.79,8c0,.19,0,.31,0,.43a.53.53,0,0,0,.09.16l.26-.12c0-.08-.05-.19-.09-.2S12.89,8.12,12.79,8Zm-2.13,6a.29.29,0,0,1,.05-.27.19.19,0,0,0,0-.15.11.11,0,0,0-.12-.11c0,.12-.08.22-.13.32a.27.27,0,0,0,.06.34C10.63,14.09,10.67,14,10.66,14Zm2.4,2.13-.16,0c-.09.16-.09.16,0,.26s.05,0,.06.06.06.15.15.1a.23.23,0,0,0,0-.15,1.55,1.55,0,0,0,0-.22Zm-.32.82s-.07.06-.06.08a1.7,1.7,0,0,1-.09.5.07.07,0,0,0,0,.05.09.09,0,0,0,.09.1.09.09,0,0,0,.1-.08.56.56,0,0,0,0-.1.37.37,0,0,1,0-.35.16.16,0,0,0,0-.12A.6.6,0,0,0,12.74,16.92Zm-1.3-3.87,0-.11a1.18,1.18,0,0,1-.05-.41.71.71,0,0,0-.06-.48,1.31,1.31,0,0,0-.05.27c0,.2,0,.41.05.62a.26.26,0,0,0,0,.11C11.36,13.11,11.4,13.11,11.44,13.05ZM8.91,12.8A.22.22,0,0,0,9,12.73a.36.36,0,0,0,.07-.1A.35.35,0,0,1,9,12.31a.32.32,0,0,0,0-.13l-.23.33Zm0-.62h0ZM11,11.9a5.1,5.1,0,0,0,.08,1.15,3.21,3.21,0,0,0,0-1.17ZM9.6,15.82a.11.11,0,0,0,0-.08.08.08,0,0,0,0-.07.08.08,0,0,0-.08,0,.16.16,0,0,0-.05.09,2,2,0,0,0,0,.24c0,.06,0,.12,0,.19s.18,0,.25,0,.05,0,.05,0,0-.07,0-.08S9.55,16,9.6,15.82Zm2.94-.18-.09.07s-.06-.08-.12,0a.38.38,0,0,0,.18.41c.12-.09.08-.23.09-.35S12.56,15.67,12.54,15.64Zm-1-4.08a.3.3,0,0,0,.08-.27.81.81,0,0,1,0-.38s0-.09,0-.13a1.13,1.13,0,0,0-.1.62A.73.73,0,0,0,11.51,11.56Zm.19,4a.15.15,0,0,0-.11.07.25.25,0,0,0,0,.17,3.1,3.1,0,0,0,.11.32.77.77,0,0,0,.12-.46A.12.12,0,0,0,11.7,15.58Zm.68-1a.58.58,0,0,0-.11.55C12.5,14.87,12.51,14.81,12.38,14.59Zm1.8-4.88.1-.17c-.11-.09-.15-.24-.32-.24C13.85,9.53,14.07,9.58,14.18,9.71Zm-5,5.68s-.05,0-.08,0a.51.51,0,0,0,0,.32.18.18,0,0,0,.2.16A.7.7,0,0,0,9.14,15.39Zm2.73-7.47c.17-.07.12-.19.1-.31s-.1.13-.2.13a.09.09,0,0,0,0,.07.33.33,0,0,0,0,.28C11.81,8,11.83,7.93,11.87,7.92ZM8,13.53c0,.05,0,.1.12.07a1.76,1.76,0,0,0,0-.58A.44.44,0,0,0,8,13.53Zm3,2.27-.2.2.08.19a.23.23,0,0,0,.24-.22C11.09,15.89,11,15.83,11,15.8ZM9.67,16.92h0Zm.12-.05a.23.23,0,0,0,0-.31.3.3,0,0,1-.13,0,.55.55,0,0,1-.17,0c0,.14,0,.15,0,.16a.19.19,0,0,1,.16.23C9.72,16.92,9.77,16.92,9.79,16.87Zm3.6-4.51a.3.3,0,0,0,.08.07,1.32,1.32,0,0,0-.12-.66A1.08,1.08,0,0,0,13.39,12.36ZM13,10.92c0-.4,0-.4-.1-.52C12.84,10.57,12.84,10.59,13,10.92Zm-1.18,1.57c0,.18.06.35.1.52.06,0,.08,0,.08-.07s-.05-.35-.07-.52c0,0-.05,0-.08-.05A.7.7,0,0,0,11.81,12.49Zm2.27,2.38A.11.11,0,0,0,14,15a.85.85,0,0,0,0,.22s0,.05.07.05,0,0,.06-.05a.61.61,0,0,0,0-.33S14.11,14.85,14.08,14.87Zm-.18,1.55a.31.31,0,0,0,0-.48A.37.37,0,0,0,13.9,16.42Zm-.5-7.49s.06,0,.09,0,0,0,0-.06a1.23,1.23,0,0,0,0-.27s-.07,0-.13-.07,0,.14,0,.19A.33.33,0,0,0,13.4,8.93Zm-.9,7.66c-.11.15-.11.16,0,.39a.16.16,0,0,0,.13-.17C12.6,16.73,12.61,16.63,12.5,16.59Zm-.87-4.37h0l-.05-.06S11.61,12.2,11.63,12.22Zm0-.19c.06-.12,0-.21-.06-.33-.07.22-.06.33.05.46C11.57,12.12,11.59,12.08,11.6,12Zm.72,5.69c.14-.14.25-.25.14-.43C12.29,17.47,12.29,17.47,12.32,17.72Zm-.23-5.2a.36.36,0,0,0,0,.25s0,.06.08.07a.08.08,0,0,0,.05-.06.47.47,0,0,0,0-.17C12.24,12.51,12.18,12.5,12.09,12.52Zm.36.75c.1,0,.13-.08.08-.17a.74.74,0,0,0-.09-.12.9.9,0,0,0-.1.12.17.17,0,0,0,0,.14S12.4,13.29,12.45,13.27ZM11.29,9.7a.48.48,0,0,0,.08.11.47.47,0,0,0,0-.5A.54.54,0,0,0,11.29,9.7Zm1.62,1.59c0,.28,0,.35.15.42A.41.41,0,0,0,12.91,11.29Zm-1.22,2.47a.93.93,0,0,0,0-.14,2,2,0,0,0,0-.25c-.1,0-.15,0-.15.09a.55.55,0,0,0,.06.22S11.65,13.73,11.69,13.76ZM12,11.33c-.12.16,0,.31,0,.5A.47.47,0,0,0,12,11.33Zm1.36-1.65s0,0-.05,0a.08.08,0,0,0-.07,0,.87.87,0,0,0,0,.1.53.53,0,0,0,.05.15.13.13,0,0,0,.11,0s0,0,0-.06A1.55,1.55,0,0,0,13.32,9.68Zm0,3.7a.12.12,0,0,0,0-.1l-.2-.24a.3.3,0,0,0,.08.33A.09.09,0,0,0,13.29,13.38Zm-.52-3.92c-.08.25-.07.33,0,.43a.43.43,0,0,0,0-.33S12.8,9.5,12.77,9.46Zm-1.68.08A.36.36,0,0,0,11,9.23a.49.49,0,0,0,0,.39C11.05,9.65,11.08,9.6,11.09,9.54Zm2.68,0a.45.45,0,0,0-.11,0s0,0-.05.06a.21.21,0,0,0,0,.11l.1.21h0c0-.11,0-.22,0-.32Zm-1.56,1.67,0,0c.06-.13,0-.22-.1-.34a.85.85,0,0,0,0,.32S12.19,11.22,12.21,11.23Zm1.45-2a.1.1,0,0,0,.14-.06A.17.17,0,0,0,13.71,9a.11.11,0,0,0-.1,0A.15.15,0,0,0,13.66,9.26ZM10.6,16.43a.25.25,0,0,0,.06.31c0-.11.06-.19.08-.29s0-.05-.05-.08S10.61,16.4,10.6,16.43Zm1.8-6.87s.06-.06.06-.09,0-.12-.09-.3a.68.68,0,0,0,0,.31S12.37,9.53,12.4,9.56Zm1.1.39s-.06.05-.06.07a.51.51,0,0,0,.09.31.35.35,0,0,0,0-.34S13.51,9.94,13.5,10Zm-.34-2.26s.06,0,.08,0,0-.07,0-.08L13,7.34C13,7.55,13,7.63,13.16,7.69ZM13.74,15a.39.39,0,0,1-.08-.14c0,.12-.08.23,0,.33a.27.27,0,0,0,.22-.09A.63.63,0,0,1,13.74,15Zm1.11-1.42a.11.11,0,0,0-.18,0c-.08.07-.06.15,0,.26C14.76,13.77,14.85,13.73,14.85,13.62Zm-2,1s.05.05.07.08.07-.05.07-.08a2.74,2.74,0,0,0,0-.28h-.05C12.9,14.47,12.88,14.56,12.87,14.66ZM11.23,9a.06.06,0,0,0,.07,0s0-.09,0-.13a1.2,1.2,0,0,0-.1-.22c0,.14-.05.22-.06.31S11.21,9,11.23,9Zm.7-1.63a.45.45,0,0,0-.09-.44.46.46,0,0,0,0,.38S11.88,7.36,11.93,7.38Zm2,6.21s.09-.05.08-.09-.05-.14-.09-.24a.3.3,0,0,0-.07.27S13.86,13.58,13.9,13.59Zm-.62-3.1c0,.06.06.1.15.07s.05-.21-.09-.3A.4.4,0,0,0,13.28,10.49Zm-.49,3.07s.05,0,.08,0,.05,0,.05-.06a.34.34,0,0,0-.12-.29A.4.4,0,0,0,12.79,13.56Zm-1.31-3.13h0Zm.14-.14c0-.07,0-.15-.06-.25a.55.55,0,0,0-.08.38C11.6,10.39,11.63,10.37,11.62,10.29Zm.87-3.1h0Zm0,0c0-.12,0-.23,0-.35s0-.09-.11-.07,0,.09,0,.13a.76.76,0,0,0,0,.15C12.37,7.13,12.42,7.16,12.48,7.19Zm-.38,5a1,1,0,0,0-.08-.14s-.06,0-.07,0a.19.19,0,0,0,0,.24s0,0,.07,0A.19.19,0,0,0,12.1,12.2Zm1.41,1.29a.1.1,0,0,0,.08.1s.07,0,.08,0a.21.21,0,0,0,0-.11,1.26,1.26,0,0,0-.14-.2C13.51,13.37,13.51,13.43,13.51,13.49Zm-1.38-3c-.14.19-.14.19,0,.32C12.21,10.69,12.18,10.59,12.13,10.45ZM12.75,9h0s0,0,0,0a.24.24,0,0,0,.07.27.24.24,0,0,0,0-.28S12.77,9,12.75,9Zm.66,3.92a.16.16,0,0,0,.12.07s.06-.06,0-.11a2.19,2.19,0,0,0-.11-.2A.25.25,0,0,0,13.41,12.93Zm-1,1.2s.05,0,.05-.05a.21.21,0,0,0-.09-.23.29.29,0,0,0,0,.22S12.39,14.12,12.42,14.13Zm-1.13.67c.08-.2.06-.3,0-.38A.64.64,0,0,0,11.29,14.8Zm2.89-1.22a.26.26,0,0,0,0,.27C14.34,13.76,14.34,13.74,14.18,13.58Zm-1.61.4s.06,0,.09,0,0-.05,0-.06a2,2,0,0,0-.13-.23C12.51,13.84,12.52,13.92,12.57,14Zm.31,1.76a.33.33,0,0,0,0-.29s0,0-.07,0-.05,0-.06.05A.25.25,0,0,0,12.88,15.74Zm-1-9.35a.43.43,0,0,0,0,.41C12,6.65,12,6.54,11.89,6.39Zm-.22.7c.06-.14.06-.14,0-.27C11.55,7,11.55,7,11.67,7.09Zm.12,1.73c.12-.15.12-.2,0-.38A.54.54,0,0,0,11.79,8.82ZM12.17,8s.06-.05.06-.07a.45.45,0,0,0,0-.16s0,0-.06,0a.06.06,0,0,0-.06,0,1,1,0,0,0,0,.17S12.15,8,12.17,8Zm.59,8.62h.06V16.4s-.1-.08-.12-.06a.13.13,0,0,0,0,.1A.83.83,0,0,0,12.76,16.6ZM12,16.45a.41.41,0,0,0,0,.11s0,.05.05.06.07,0,.07,0a.49.49,0,0,0,0-.17c0-.06-.09-.11-.06-.19h0C12.07,16.3,12,16.37,12,16.45ZM11.12,10s0,0,0,0,0,.07,0,.11,0,.11,0,.15.12-.05.12-.13S11.2,10,11.12,10Zm-.42,2.24a.08.08,0,0,0,.05.06s.07,0,.08-.06a.26.26,0,0,0-.05-.24A.27.27,0,0,0,10.7,12.25Zm1.52-2.54c0-.1,0-.1-.09-.32a.58.58,0,0,0,0,.39C12.2,9.79,12.21,9.74,12.22,9.71Zm-1.14,4.23s.07,0,.08-.08a.11.11,0,0,0,0-.15,0,0,0,0,0,0,0,1,1,0,0,0-.05.16S11.05,13.91,11.08,13.94Zm1.5,1.21c0,.09-.11.18,0,.27C12.69,15.33,12.69,15.33,12.58,15.15ZM12.26,8.7a.1.1,0,0,0,.05.06.18.18,0,0,0,.08-.06.43.43,0,0,0-.05-.16h-.07A.92.92,0,0,0,12.26,8.7ZM11.06,11c-.05,0-.07,0-.07.08a1.42,1.42,0,0,0,0,.19.16.16,0,0,0,.14-.17A.09.09,0,0,0,11.06,11Zm.72,3.14a.3.3,0,0,0-.06.35A.27.27,0,0,0,11.78,14.16Zm-1.82,2a.16.16,0,0,0,0,.13s0,.07.07.13l.13-.17,0,0S10,16.14,10,16.17Zm.16.09h0Zm1.45-6.59a.1.1,0,0,0,0-.06c0-.08,0-.15-.06-.24a.21.21,0,0,0-.09.25S11.53,9.66,11.57,9.67Zm2.86,4.39.1-.06a.11.11,0,0,0,0-.16.11.11,0,0,0-.08,0,.1.1,0,0,0,0,.12A1,1,0,0,0,14.43,14.06ZM11.82,9a.33.33,0,0,0,0,.29.19.19,0,0,0,.08-.21C11.91,9,11.89,9,11.82,9Zm.47-1.74a.25.25,0,0,0-.1-.29.45.45,0,0,0,0,.36S12.28,7.29,12.29,7.27Zm-.78.23a.06.06,0,0,0,.05-.08s0-.12-.12-.12a.78.78,0,0,0,0,.16S11.48,7.51,11.51,7.5Zm-1.18,7.35s.05,0,.08.07.05-.06.05-.09a.14.14,0,0,0-.13-.18A1.34,1.34,0,0,0,10.33,14.85Zm0-.21h0ZM12,15.76s.08-.07.09-.11,0-.17-.11-.2A.31.31,0,0,0,12,15.76Zm-.49-1.15-.05,0c-.06.06,0,.14,0,.22l0,0s0,0,.05,0A.21.21,0,0,0,11.55,14.61ZM13.19,16c.12-.05.12-.05,0-.26ZM12,14.59h0Zm.07-.32a.59.59,0,0,0-.07.31s.09,0,.1-.06a.42.42,0,0,0,0-.19S12.09,14.29,12.07,14.27Zm2.45,0s-.06,0-.07,0,0,.15,0,.18h0s.09-.07.1-.17ZM14,15.64c0-.07,0-.09-.11-.1s-.06,0-.06.07,0,.13.06.14S14,15.7,14,15.64Zm-2.09-.74h0Zm-.1.33c.12-.11.12-.11.1-.32C11.75,15,11.74,15.09,11.78,15.23ZM11,11.7c.15-.13.15-.13.06-.25A.2.2,0,0,0,11,11.7Zm.72-.16c0,.08,0,.15.07.27,0-.13,0-.2,0-.26a0,0,0,0,0,0,0Zm.61.84.06,0c.09-.1.1-.13,0-.19a.12.12,0,0,0-.1,0C12.27,12.27,12.3,12.33,12.34,12.38Zm.8.26s0-.09,0-.13a1.74,1.74,0,0,0-.11-.15.83.83,0,0,0,0,.2s.06.06.1.09Zm-.34.14a.06.06,0,0,0,0,0c0-.09,0-.17-.11-.2a.22.22,0,0,0,0,.22A.07.07,0,0,0,12.8,12.78Zm-.21-2.06a.82.82,0,0,0,0,.18c.12-.15.11-.17,0-.3C12.6,10.64,12.59,10.68,12.59,10.72Zm.9-2.89s0,0,0,0,0-.16-.1-.26c0,.12,0,.19,0,.25A0,0,0,0,0,13.49,7.83Zm-1.4,7.06,0,0C12,14.9,12,15,12,15a.08.08,0,0,0,0,.05C12.11,15,12.13,15,12.09,14.89ZM13,15a.08.08,0,0,0,.08,0,.21.21,0,0,0,0-.11s-.06,0-.11-.07-.06.07-.05.1S13,15,13,15ZM12,8.57c.07-.24.07-.24,0-.36C12,8.32,12,8.44,12,8.57ZM14.7,13.9c0,.06-.06.1,0,.14s0,.06.07.07.11-.06.09-.09A.57.57,0,0,0,14.7,13.9Zm-3.07-1.68Zm-.05.42c.08,0,.11,0,.11-.07l-.06-.35A.49.49,0,0,0,11.58,12.64Zm1.23-5.55a.78.78,0,0,0,0,.14c.1-.05.1-.11.08-.16A.14.14,0,0,0,12.86,7,.06.06,0,0,0,12.81,7.09Zm-1.25,7c0-.08,0-.12-.13-.14v.22C11.49,14.15,11.55,14.14,11.56,14.11Zm2.06.3s0,.05.05.05a.08.08,0,0,0,.07,0,.18.18,0,0,0-.1-.2A1.76,1.76,0,0,0,13.62,14.41Zm-.7-4.55s0,.05.06.05a.1.1,0,0,0,.07,0A.11.11,0,0,0,13,9.71.12.12,0,0,0,12.92,9.86ZM9.21,16a.13.13,0,0,0-.1.15s0,0,.08.06a.5.5,0,0,0,.08-.14S9.23,16,9.21,16Zm3.43-7.36c.12-.06.09-.14.06-.24C12.59,8.46,12.59,8.46,12.64,8.63ZM13.46,11s-.06.06-.06.09,0,.06.06.09,0,0,0,0a.36.36,0,0,0,0-.1ZM13.2,8c.09.1.13.11.16.06a.21.21,0,0,0,0-.11S13.29,7.91,13.2,8Zm-.53,3.24c0,.13-.05.23,0,.33A.29.29,0,0,0,12.67,11.24Zm.91,2.63a.08.08,0,0,0,.06.11s.06,0,.11-.05l-.1-.12A.19.19,0,0,0,13.58,13.87ZM13,9.19H13s.05,0,0-.06A.56.56,0,0,0,13,9C12.91,9.09,12.9,9.14,13,9.19Zm-.19-2.51s.06,0,.1-.06-.06-.07-.09-.08-.11,0-.09.08A.17.17,0,0,0,12.77,6.68Zm-.19,4.84a.07.07,0,0,0,0-.12l-.05,0s0,0,0,0a.36.36,0,0,0,0,.1Zm.05,3c-.05.06-.1.11,0,.16a.11.11,0,0,0,.08,0C12.74,14.6,12.7,14.55,12.63,14.51ZM12.39,10c0,.15-.06.23,0,.33C12.49,10.25,12.43,10.17,12.39,10ZM12,13.19s0,0-.06,0-.06,0-.06,0a1.22,1.22,0,0,0,.07.2A.88.88,0,0,0,12,13.19Zm1.39.62a.21.21,0,0,0,0-.1l-.06,0a.89.89,0,0,0,0,.15S13.36,13.83,13.36,13.81ZM12,13.71a.08.08,0,0,0-.06,0,.65.65,0,0,0,0,.14.11.11,0,0,0,.11-.13A.06.06,0,0,0,12,13.71Zm1.23-5.48s-.05,0-.08,0,.06.1.08.11.07,0,.07-.07A.12.12,0,0,0,13.24,8.23Zm-1.77,2.2-.1,0-.07.12C11.41,10.53,11.41,10.53,11.47,10.43Zm1,1.39a.21.21,0,0,0,0-.07.51.51,0,0,0-.08-.13,1.15,1.15,0,0,0,0,.14.43.43,0,0,1,0,.07Zm-.23-.23c-.08.06-.08.13,0,.23C12.25,11.73,12.3,11.68,12.26,11.59ZM12.53,8a.08.08,0,0,0-.06,0s0,.06,0,.06l.12,0S12.55,8,12.53,8Zm1.2.16a0,0,0,0,0,0,0s0,0-.06,0,0,0,.06.08A.2.2,0,0,0,13.73,8.2Zm-2.11,4.64s0,0,0,0l.06,0,0,0S11.62,12.82,11.62,12.84ZM8.15,16.07l0,.07.07,0,0-.06Zm2.94-5.28s0,0,0,0L11,10.8l0,0Zm.3-.54v0h0a.09.09,0,0,0,0,0Zm.29-2.88s0,0,0,0,0,0,0,0,0,0,0,0Zm-.37,4.29,0-.05,0,0,0,0S11.3,11.64,11.31,11.66Zm.16,3.51v0l0,0,0,0Zm.51-.52V14.6s0,0,0,0Zm0-.06h0v0Zm-.12.31h0l0-.05Zm-.52-1.45,0,0,0,0,0,0S11.37,13.44,11.36,13.45ZM14,9.15v0h0a0,0,0,0,0,0,0ZM6.82,15.71c.21,0,.21,0,.38-.24a.83.83,0,0,1,.06.49.63.63,0,0,0,0,.47.28.28,0,0,0,.07-.09,1.27,1.27,0,0,0,0-.2,1.14,1.14,0,0,1,.06-.55.6.6,0,0,0,0-.42l-.14.06H7.17c0-.1-.11-.15-.2-.09l-.12-.1C6.93,15.27,6.82,15.49,6.82,15.71Zm0-.66h0v0Zm-2.52-.66-.2-.15c-.12.09-.1.23-.14.35s-.1.25-.15.37l.14.28a1.37,1.37,0,0,0,.16-.58s0,0,.06-.07a.92.92,0,0,1,0,.09.41.41,0,0,0,.16.24s.07,0,.08,0l.08-.08v0A1.08,1.08,0,0,0,4.32,14.39Zm2.73-.16c0,.12.07.17.15.19l.07.43a.33.33,0,0,0-.1.06.12.12,0,0,0,0,.16.08.08,0,0,0,.07,0A.13.13,0,0,0,7.32,15l.09-.75H7.19a1.84,1.84,0,0,1-.07-.3.34.34,0,0,1,0-.2.74.74,0,0,0,0-.44s0-.06-.07-.12c0,.14-.06.24-.07.33a.14.14,0,0,0,0,.09A2.22,2.22,0,0,1,7.05,14.23ZM6,15.74Zm.42-.82s-.11,0-.12.14,0,.12,0,.17a1.55,1.55,0,0,1,0,.23s0,.08-.07.08-.11.13-.16.2l.24.07c.06.11,0,.25.15.36v-.45a.67.67,0,0,1,0-.2,1.75,1.75,0,0,0,.07-.44C6.46,15,6.47,15,6.41,14.92Zm.15-.82s0,.05.07.08l0-.06c.05-.08.1-.09.17,0s0,0,0,0a.14.14,0,0,1,0-.07.27.27,0,0,0,.1-.26c0-.09-.06-.13-.14-.16s0-.06,0-.1,0-.16-.08-.24-.09,0-.1.08a.32.32,0,0,0,0,.14.61.61,0,0,1,0,.4A1.22,1.22,0,0,0,6.56,14.1Zm.11-.9h0ZM5.08,15.42c-.13,0-.13-.18-.22-.31,0,.23,0,.4-.06.57a.14.14,0,0,0,0,.09.79.79,0,0,1,.1.33s0,.08.05.13,0-.05,0-.07c0-.21.07-.42.09-.64C5.13,15.49,5.1,15.42,5.08,15.42Zm.3.73c0-.15-.06-.29-.09-.47-.07.24-.12.43-.16.62a.24.24,0,0,0,0,.12s0,.07.08.07.06,0,.08-.06,0-.12.06-.14.06.19.2.14,0-.31,0-.49C5.42,16,5.46,16.1,5.38,16.15ZM6,14.44l0-.22a.08.08,0,0,1,0-.05l.13-.05,0-.32c-.1-.11-.14-.27-.29-.39,0,.07,0,.12-.06.17s.14.16.2.25S6,14,5.9,14a.21.21,0,0,0-.11.19.25.25,0,0,0,0,.22C5.85,14.48,5.9,14.51,6,14.44Zm-.74-2.22a.17.17,0,0,0-.05.25c.06.1.1.11.33.06a.72.72,0,0,0,0-.41ZM6,15.74Zm-.13.48a.09.09,0,0,0-.06.12.13.13,0,0,0,.1.08,2,2,0,0,0,.24,0A1.5,1.5,0,0,0,6,15.74c0,.15,0,.3,0,.44ZM4.2,15.34a.55.55,0,0,1,0,.28.22.22,0,0,0,.06.13s.09,0,.15,0a1.71,1.71,0,0,0-.18-.61C4.23,15.22,4.19,15.29,4.2,15.34Zm2.1-2.13a.29.29,0,0,0-.08.3c0,.05,0,.1.09.09s.07-.06.06-.08.08-.08.13-.12a.39.39,0,0,0-.1-.32Zm0,1.26a.74.74,0,0,0,0-.58s0,0,0,0a.18.18,0,0,0-.07.05,1,1,0,0,0,0,.46S6.27,14.42,6.31,14.47Zm-1.45.35a.52.52,0,0,1-.09-.32s0-.08-.09-.13l-.08.1a.14.14,0,0,0,0,.16c.05,0,.05.07,0,.12a.11.11,0,0,0,0,.16.15.15,0,0,0,.12,0A.08.08,0,0,0,4.86,14.82ZM6,14.6a.74.74,0,0,0,0,.44s0,0,.08.07a2,2,0,0,0,0-.59C6,14.49,6,14.54,6,14.6Zm.84.43a2.27,2.27,0,0,0,0-.9s0,0,0-.05a.43.43,0,0,0-.1.29A1.82,1.82,0,0,0,6.84,15Zm0-.95Zm-1,1.39s0-.09-.07-.14-.09.19-.09.28a.49.49,0,0,0,.11.37C5.86,15.76,5.88,15.62,5.89,15.47Zm.78-2.27h0Zm.19-.29s0-.06-.07-.1a.66.66,0,0,0-.11.4l.13.07C6.83,13.14,6.85,13,6.86,12.91Zm-1.21-.58a.13.13,0,0,0,.06.05.2.2,0,0,0,.08-.08.22.22,0,0,0-.08-.25C5.6,12.18,5.58,12.22,5.65,12.33Zm.65.1a.05.05,0,0,0,0,0,.08.08,0,0,0-.06,0,.34.34,0,0,0,0,.28C6.32,12.63,6.36,12.55,6.3,12.43Zm1.27,2.25c-.13.11-.13.11,0,.36C7.59,14.9,7.63,14.8,7.57,14.68Zm-1.2-1.83a.08.08,0,0,0,0,.08s0,.05.07,0,.12-.05.12-.13S6.42,12.78,6.37,12.85Zm-.59,2.2L5.84,15l-.06-.1s-.07,0-.07,0,0,.06,0,.09,0,.06.06.09Zm1.82.19c0,.15,0,.16.08.2C7.71,15.29,7.71,15.29,7.6,15.24Zm-.18-1.39s0,0,0-.08,0,.05,0,.08a.43.43,0,0,1,0,.05S7.41,13.87,7.42,13.85Zm-3.9-3.43-.16.05s0-.05,0-.07-.06-.17-.19-.12a1.58,1.58,0,0,1-.52.12.27.27,0,0,1-.07.08l-.12.12a.11.11,0,0,0,0,.11s.06,0,.1,0a.13.13,0,0,0,.07,0A.9.9,0,0,1,3,10.45l.24.26h.21a.25.25,0,0,1,0-.09C3.58,10.56,3.56,10.49,3.52,10.42Zm-.88,0ZM8.44,10a.59.59,0,0,1,.06.16c0,.11.09.14.19.09a.34.34,0,0,1,.22,0,.12.12,0,0,0,.15-.13l-.21,0L8.67,10c0-.07,0-.14-.05-.18l-.15.1A.13.13,0,0,0,8.44,10ZM7,10.06c.08.06.19,0,.28.06a.07.07,0,0,0,.08,0A.53.53,0,0,1,7.65,10c.06,0,.11-.05.11-.13s-.06-.07-.14,0l-.12,0a.24.24,0,0,1-.28.08H7.11C7,9.93,7,10,7,10.06Zm-4.73.58h0l-.17.17-.07,0-.06-.11a.31.31,0,0,0-.24.16.09.09,0,0,0,.05.12.34.34,0,0,0,.14,0L2,11a.29.29,0,0,0,.26-.27A.09.09,0,0,0,2.27,10.64ZM3.33,10l-.08-.09h0c-.13,0-.25.16-.41.08s0,.05-.1.1l.35.16Zm-.65,1c0-.11-.11-.17-.19-.13a.82.82,0,0,0-.2.17.11.11,0,0,0,0,.08.12.12,0,0,0,.08,0A.35.35,0,0,0,2.68,11ZM7.51,9.83h0Zm.16-.13a.19.19,0,0,0,.08,0,.11.11,0,0,0,0-.06l0,0a1.69,1.69,0,0,1-.39.08l0,0s0,.06,0,.09.06.07.11.06h.17C7.54,9.76,7.58,9.69,7.67,9.7Zm.19.68a1,1,0,0,0-.17,0l0,0s0,0,0,.05a.67.67,0,0,0,.14.11A.17.17,0,0,0,8,10.53S8,10.4,7.86,10.38Zm-5,.49.1.06.06,0c.08-.07.11-.13.08-.19s-.11-.08-.18-.06-.13,0-.15.06S2.82,10.83,2.86,10.87ZM3.34,10h0Zm.1.18A.43.43,0,0,0,3.78,10L3.67,10c-.11-.06-.22,0-.33,0s0,.07,0,.1S3.41,10.18,3.44,10.18ZM5.91,10a.2.2,0,0,0,.21-.15.25.25,0,0,0-.4,0A.17.17,0,0,0,5.91,10Zm-2,.16s0,.11.05.12a.24.24,0,0,0,.28-.21S4.14,10,4.11,10A.27.27,0,0,0,3.88,10.16Zm-2.33.5a.39.39,0,0,0-.24.19.06.06,0,0,0,0,.06l.05,0a.35.35,0,0,0,.26-.2s0-.06,0-.08S1.56,10.65,1.55,10.66ZM9.18,9.42c-.09-.06-.19,0-.2.15l.39.07V9.49C9.31,9.45,9.24,9.47,9.18,9.42Zm.19.23h0Zm-5,.33a.29.29,0,0,0,.24-.14c-.14-.1-.14-.1-.35.06C4.28,9.93,4.32,10,4.35,10Zm3.16.21a.31.31,0,0,0,.38.08c0-.06-.07-.11-.12-.13A.21.21,0,0,0,7.51,10.19Zm-.85-.13a.16.16,0,0,0,0,.09c.12,0,.19,0,.22-.17h0c-.08,0-.16,0-.23,0S6.65,10,6.66,10.06ZM4.85,9.74l0,0a.27.27,0,0,0,.28,0s0,0,0-.05a.15.15,0,0,0,0-.06A.24.24,0,0,0,4.85,9.74ZM1.92,11.65s.06,0,.09-.06-.08-.16-.14-.15a.13.13,0,0,0-.09.13A.11.11,0,0,0,1.92,11.65Zm3-1.7c-.06,0-.12.06-.11.1a.15.15,0,0,0,.12.14c.06,0,.14-.08.13-.13A.13.13,0,0,0,4.89,10ZM3.76,9.69c-.08-.15-.12-.14-.32,0C3.56,9.78,3.66,9.73,3.76,9.69ZM7,9.9a.16.16,0,0,0,.09-.17l0,0c-.09,0-.18,0-.23.08s.07.13.12.18S7,9.91,7,9.9ZM4.93,9.48s0-.05,0-.07a.09.09,0,0,0-.07-.05l-.22.08C4.79,9.57,4.85,9.58,4.93,9.48Zm-1.2.88a.06.06,0,0,0,0-.07s0-.07,0-.06a.29.29,0,0,0-.16,0c-.06,0,0,.1,0,.15A.23.23,0,0,0,3.73,10.36Zm-.21.06Zm0,0h0Zm4,.2c-.08,0-.16,0-.16.09s.05.09.12.1a.11.11,0,0,0,.12-.1v0S7.54,10.61,7.51,10.61Zm0-1.16c.08,0,.19-.08.18-.19s-.06,0-.09,0a.17.17,0,0,0-.12.18S7.54,9.45,7.56,9.45ZM4.1,9.78c-.1-.08-.1-.08-.26,0C4,9.87,4,9.87,4.1,9.78Zm4-.42s0,0,0,0-.11,0-.16,0l-.07.07s.07,0,.1,0A.13.13,0,0,0,8.1,9.36Zm.83-.13s.07,0,.1,0a.26.26,0,0,0,.09-.09s0,0,0,0a.13.13,0,0,0-.18.09S8.92,9.23,8.93,9.23Zm-3.21.44c-.1-.11-.1-.11-.24,0C5.57,9.77,5.64,9.73,5.72,9.67Zm2.36.19c-.09,0-.15,0-.2.1.1.06.17.06.22,0S8.09,9.87,8.08,9.86Zm.63-.46c.09,0,.13-.08.1-.2s-.16.06-.16.15S8.69,9.4,8.71,9.4Zm-2.94,0s0,0,0,0,0,0,0,0a.13.13,0,0,0-.18,0s0,0,0,0A.13.13,0,0,0,5.77,9.39Zm3,.14a.15.15,0,0,0,0-.06s-.08,0-.1.09,0,0,.07.09A.35.35,0,0,0,8.79,9.53Zm-6.27.77a.15.15,0,0,0-.09,0s0,.09.08.08l.12,0C2.61,10.34,2.59,10.29,2.52,10.3Zm.12.1h0Zm3.64-.72s0,0,0,.07a.12.12,0,0,0,.1-.1s0-.05,0-.06A.1.1,0,0,0,6.28,9.68Zm-2,0c.06,0,.11,0,.13-.11H4.27s-.08,0-.06.07S4.25,9.63,4.28,9.63Zm4.18.23h0Zm-.05-.1c-.06,0-.11,0-.08.11h.13S8.47,9.77,8.41,9.76ZM6.67,9.37s-.09.06-.07.1.05,0,.07,0a.45.45,0,0,0,.07-.07Zm0-.1a.11.11,0,0,0,.11-.11s0,0,0-.05-.14.07-.12.13Zm1.84.09s0,0,0,0a.07.07,0,0,0-.11,0l-.06,0,0,0A.09.09,0,0,0,8.46,9.36Zm1.09.06s0,0,0,.07a.29.29,0,0,0,.1,0s0,0,.07,0,0-.06,0-.07A.12.12,0,0,0,9.55,9.42Zm.13.1h0ZM6.26,9.24s0-.06,0-.07a.11.11,0,0,0-.13,0l0,0s0,0,0,.05A.09.09,0,0,0,6.26,9.24Zm1,0,.09-.08s0,0,0,0-.11,0-.1.07ZM6,9.52s0,0,0,0a.06.06,0,0,0,0-.05q-.09,0-.09.09S6,9.53,6,9.52Zm1-.41s0,0,0-.06L7,9a0,0,0,0,0,0,.05A.08.08,0,0,0,7.09,9.11ZM9,9.77l-.15.14C9,9.92,9,9.92,9,9.77ZM5.37,9.58l0-.06a.1.1,0,0,0,0-.06s-.09,0-.08,0S5.33,9.55,5.37,9.58Zm.86-.07s.11.05.15,0a.11.11,0,0,0,0-.05C6.29,9.39,6.25,9.43,6.23,9.51Zm2,.14.1,0a.25.25,0,0,0,0-.06l-.09,0S8.22,9.65,8.23,9.65Zm-1.68.13.07,0s0,0,0-.05l-.07,0S6.53,9.77,6.55,9.78ZM7,9.24l0-.06a.1.1,0,0,0,0,0s0,0,0,0Zm0,.29H6.88a0,0,0,0,0,0,0l.07,0Zm.29,0,.06,0,0-.05,0,0Zm1.69.17,0,0,0,.06h0ZM8,9.66h0l0,0H8ZM7.1,9.44h.05l0,0,0,0ZM19.39,17a1.29,1.29,0,0,1,.08-.55.46.46,0,0,0,0-.17h-.19a2.14,2.14,0,0,0,.13-.62c-.08,0-.14,0-.18,0s-.06-.1-.1-.15l-.08,0s0,.08,0,.11,0,.16.11.18,0,.06.06.09a1.29,1.29,0,0,1,0,.19c-.14.1-.14.1-.09.25h0c0,.12.06.24.09.35a.25.25,0,0,1-.07.27l.1.26C19.35,17,19.39,17,19.39,17Zm-.33-1.54Zm.14,1.43h0Zm.41-1.26h0l.12.15.13-.09.11.11.13-.21L20,15.49a.12.12,0,0,1,0-.06,1.09,1.09,0,0,0,0-.37.93.93,0,0,1-.13-.53l-.06,0s-.06,0-.06.06a.75.75,0,0,1,0,.2c0,.12-.08.24.08.31s0,0,0,.08v.29l-.21.17Zm-3.44,0c-.12.14-.12.35-.27.48l.14.21.09-.14.1-.29.2.2s.09.05.13,0,.05-.08,0-.13A.8.8,0,0,0,16.17,15.59Zm2.69-.45A.09.09,0,0,1,18.8,15c.1-.09.06-.19.08-.33-.06,0-.1,0-.11.06s-.05.18-.14.24,0,.09,0,.14h0a.15.15,0,0,1,0,.17c0,.05,0,.11-.05.17s0,.12.07.13a1.07,1.07,0,0,0,.25-.16.21.21,0,0,0,.07-.15C19,15.19,18.94,15.14,18.86,15.14Zm-1.95,1.05a1.5,1.5,0,0,0,0,.4,1.15,1.15,0,0,0,.14.32h.06a2.46,2.46,0,0,0,.1-.5.39.39,0,0,1-.13-.06A.9.9,0,0,1,16.91,16.19ZM18,15.57c.14,0,.19-.14.14-.3s-.11-.2-.24-.21a.1.1,0,0,0,0,.16s.07,0,.1.06a.09.09,0,0,1,0,.15l-.07,0a.16.16,0,0,0-.07.2c0,.06.09.11.13.09s0-.08,0-.12S18,15.6,18,15.57Zm.89.61a.28.28,0,0,1,0,.09c0,.09,0,.17,0,.26s0,0,0,.07l.21-.05c.1-.1.08-.21.09-.32a.53.53,0,0,0-.12,0A.31.31,0,0,1,18.89,16.18Zm-.07,0h0l.07,0A.1.1,0,0,0,18.82,16.14Zm.41-1.63-.08.09-.1-.17s-.05,0-.09-.07c0,.27,0,.27.31.38a.29.29,0,0,0,.07-.28Zm-2-.25s-.05.08,0,.1a.29.29,0,0,0,.11.11.23.23,0,0,0,.23-.06l0-.25A1.9,1.9,0,0,0,17.25,14.26Zm-1,2.06a1.2,1.2,0,0,0,0,.2.16.16,0,0,0,.06.09s.07,0,.13,0c0-.15,0-.29-.13-.39A.08.08,0,0,0,16.27,16.32Zm3.16-2.12a.71.71,0,0,0,.05.49C19.61,14.38,19.61,14.34,19.43,14.2ZM18.26,15s0,.08,0,.12.05.05.07.07.05,0,.05,0l0-.1.18.05-.13-.24C18.35,14.84,18.32,14.94,18.26,15Zm-.13.79s-.08,0-.08.06a.39.39,0,0,0,.09.36.52.52,0,0,0,.05-.36A.09.09,0,0,0,18.13,15.78Zm.19-.43a.16.16,0,0,0-.07.11.45.45,0,0,0,0,.2c0,.05.05.08.14.05a1.94,1.94,0,0,0,0-.24C18.41,15.4,18.36,15.33,18.32,15.35ZM17.19,17c0,.06,0,.1.11.07a.46.46,0,0,0,.05-.48A1,1,0,0,0,17.19,17Zm1.95-2.12a.37.37,0,0,0-.09.31,1.34,1.34,0,0,1,0,.2,2.12,2.12,0,0,0,.12-.2A.28.28,0,0,0,19.14,14.91Zm-.08.51Zm-2.26.32s-.06,0-.07,0-.07.08-.06.09a.47.47,0,0,1,.06.21s.08.06.12.07,0,0,.07,0Zm2-.19a.58.58,0,0,0,0,.18c0,.13,0,.27,0,.41C19,15.84,19,15.75,18.82,15.55Zm1,.8h0Zm.12-.29-.12.29.12.07C20.08,16.19,20.08,16.19,20,16.06Zm-2.11.29c-.05,0-.1.08-.09.21a.47.47,0,0,0,0,.16h.06s0-.1,0-.16S18,16.4,17.87,16.35Zm-.42.6c0,.07,0,.12.15.13l-.06-.38C17.5,16.81,17.47,16.88,17.45,17Zm2.09-1.63c0,.11.05.18.07.27l.09-.3C19.6,15.24,19.55,15.25,19.54,15.32Zm.26.55,0,0c-.06.08-.06.15,0,.26a.22.22,0,0,0,.08-.25A.09.09,0,0,0,19.8,15.87Zm-.27,0a.13.13,0,0,0,0,.18l0,0h0a.13.13,0,0,0,.05-.17S19.55,15.9,19.53,15.91Zm0-1a0,0,0,0,0,0,0,0,0,0,0,0-.05,0c-.07.07-.06.12.06.23Zm-1.8-.77c-.07,0-.11.07-.09.11s0,.09.09.1.1-.07.08-.12A.36.36,0,0,0,17.76,14.13Zm.59.29a.15.15,0,0,0-.05-.06l-.07,0a1.58,1.58,0,0,0,0,.21C18.31,14.54,18.36,14.5,18.35,14.42Zm.22.27c-.08-.06-.08-.06-.17,0C18.47,14.75,18.47,14.75,18.57,14.69Zm-.58,0h0Zm0,.15a.13.13,0,0,0,.1,0c.05,0,0-.07,0-.09L18,14.71A.13.13,0,0,0,18,14.86Zm-.16,1.23L17.77,16l-.05.08.09.06S17.85,16.1,17.85,16.09Zm1.77.19v.09h.1s0-.06,0-.07S19.65,16.29,19.62,16.28Zm.09.1h0Zm-.34-1,.05,0,0,0,0,0ZM8.6,5.07l.15.23c.08,0,.11-.06.07-.12S8.74,5.05,8.6,5.07Zm-.42-.13s0,0-.08,0l.16.17h.08s0-.06,0-.07Zm-1.06.23s0,.08.09.07l0,0-.1-.09S7.12,5.15,7.12,5.17ZM9,5.05s.05,0,0-.06L9,4.88A.7.7,0,0,0,9,5S9,5.05,9,5.05Zm-2.75.24s0,0-.07,0a.22.22,0,0,0,0,.08s0,0,.08,0S6.29,5.29,6.27,5.29Zm1.41,0s0,.07.07.06l.09-.06-.1,0A.08.08,0,0,0,7.68,5.26Zm.24-.14,0,.06,0,0-.06,0Zm6.39-.29c-.06.12-.17.09-.26.1h0S14,5,14,5s0,.08.06.08c.18,0,.3,0,.45-.21Zm.39,0,0,0h0s0,.06,0,.08.05.09.07.14h0A.86.86,0,0,0,14.7,4.84ZM13.07,4.7s-.05,0-.06,0a.07.07,0,0,0,.06.09l.09,0S13.1,4.71,13.07,4.7Zm2.1,12.42a.11.11,0,0,0-.18.07.39.39,0,0,0,0,.26.12.12,0,0,0,.19-.08.47.47,0,0,0,0-.17Zm.08.09h0Z"/><path d="M36.42,7.49a3.17,3.17,0,0,1-2.28,3c-.26.11-.41.13-.41.15s.15,0,.41.06a3.28,3.28,0,0,1,2.9,3.1c0,2.21-1.9,4.43-6.12,4.43H23.7c-.25,0-.39-.11-.39-.35a.41.41,0,0,1,.33-.42c1-.33,1.16-1.2,1.18-2.09L25.08,7c0-.77-.12-1.53-1-1.72a.35.35,0,0,1-.33-.39.36.36,0,0,1,.39-.37h3c1.43,0,3.52-.11,4.65-.11C35.47,4.45,36.42,6,36.42,7.49Zm-4,4.91a3.62,3.62,0,0,0-2.67-.91c-.81,0-1.16.1-1.16.37l-.14,4.07a.83.83,0,0,0,.45.83,3.17,3.17,0,0,0,1.53.31,2.92,2.92,0,0,0,2.07-.8,2.7,2.7,0,0,0,.7-1.89A2.88,2.88,0,0,0,32.43,12.4Zm-.54-6.15a3.22,3.22,0,0,0-2.17-.68c-.42,0-.89.08-.91.41l-.15,3.87c0,.25.15.35.38.44a4.63,4.63,0,0,0,1.13.12A2.65,2.65,0,0,0,32,9.81a2.29,2.29,0,0,0,.75-1.72A2.43,2.43,0,0,0,31.89,6.25Z"/><path d="M48.47,12.62a5.85,5.85,0,0,1-6.26,5.8c-3.6,0-5.17-2.22-5.17-4.66A5.93,5.93,0,0,1,43.3,7.89C46.84,7.89,48.47,10.18,48.47,12.62ZM40.22,12c0,2.11,1.43,4.78,3.31,4.78,1.2,0,1.72-1,1.72-2.29,0-2.15-1.33-5-3.29-5C40.68,9.48,40.22,10.66,40.22,12Z"/><path d="M49.77,10.06c0-.1,0-.12-.16-.12H48.24c-.18,0-.25-.23-.27-.5s.07-.54.29-.58a5.81,5.81,0,0,0,4-3.37c.06-.17.35-.25.6-.25s.53.1.53.33l-.1,2.65c0,.08,0,.14.15.14h2.83c.27,0,.35.25.35.54s-.12.68-.39.7l-3,.31-.14,4.14a2.15,2.15,0,0,0,.43,1.53,1.83,1.83,0,0,0,1.34.52,2.08,2.08,0,0,0,1.22-.37,1.19,1.19,0,0,1,.23-.07.36.36,0,0,1,.35.4.57.57,0,0,1-.1.31,4.71,4.71,0,0,1-3.83,2.07,3.15,3.15,0,0,1-2.5-1,3.58,3.58,0,0,1-.7-2.4Z"/><path d="M59,12.15c-.7,0-1.75-.62-1.75-1.31s.72-1.3,1.3-1.71a6.8,6.8,0,0,1,3.95-1.24c2.28,0,4.38,1.18,4.38,4l-.12,3.58c0,1,.46,1.55.89,1.55A.72.72,0,0,1,68,17a.27.27,0,0,1,.12.25.39.39,0,0,1-.08.25,4.09,4.09,0,0,1-2.52.82c-1.26,0-2.13-.58-2.13-1.8,0,0,0,0-.06,0s-.09,0-.09,0A3.57,3.57,0,0,1,60,18.42a2.94,2.94,0,0,1-3-3.13,1.13,1.13,0,0,1,.53-1.14,16.48,16.48,0,0,1,5.63-2.06c.17-.05.29,0,.29-.29,0-1.39-1.22-2-2.54-2a2.6,2.6,0,0,0-.58,0c-.25,0-.42.15-.42.46C59.82,11.42,59.68,12.15,59,12.15Zm2.61,4.18c1.72,0,1.78-1.89,1.78-2.78v-.49a.11.11,0,0,0-.12-.1c-.05,0-.13,0-.23.06-1,.29-2.9,1-2.9,1.59A1.58,1.58,0,0,0,61.58,16.33Z"/><path d="M76.22,7.87c2.38,0,3.29,1.53,3.29,3.72l-.15,3.87c0,1,.07,1.8.87,2a.37.37,0,0,1,.32.38.38.38,0,0,1-.38.39h-5.4a.32.32,0,0,1-.33-.35.43.43,0,0,1,.31-.42c1-.33,1.08-1.32,1.12-2.29L76,12.5c0-1-.12-2.42-1.53-2.42s-1.78,1.68-1.84,3.23l-.08,2.4c0,.93.14,1.57.87,1.71a.36.36,0,0,1,.29.38.38.38,0,0,1-.38.39H67.91a.32.32,0,0,1-.33-.35.42.42,0,0,1,.31-.42c1-.39,1.09-1.34,1.13-2.29l.15-3.79c0-.78-.37-1.18-1.37-1.18a.45.45,0,0,1-.16-.37.47.47,0,0,1,.45-.5,8.56,8.56,0,0,0,2.8-1,1.87,1.87,0,0,1,1-.37,1,1,0,0,1,.74.31l-.12,2.09c0,.06,0,.08,0,.08s0,0,.06-.06A4,4,0,0,1,76.22,7.87Z"/><path d="M82.13,11.24c0-.81-.45-1.18-1.44-1.18a.42.42,0,0,1-.21-.37.48.48,0,0,1,.45-.5,9.39,9.39,0,0,0,2.92-1,2,2,0,0,1,1-.34,1.26,1.26,0,0,1,.87.32l-.27,7.59c0,.7.07,1.53,1,1.71a.34.34,0,0,1,.29.38.37.37,0,0,1-.37.39H80.85a.32.32,0,0,1-.31-.35.43.43,0,0,1,.29-.42c1-.27,1.14-1.13,1.18-2.29Zm3.81-6.79a1.88,1.88,0,0,1-2.07,2c-1.32,0-1.88-.7-1.88-1.74a1.85,1.85,0,0,1,2.05-2C85.36,2.72,85.94,3.4,85.94,4.45Z"/><path d="M95.64,12.13a.4.4,0,0,1-.35-.23c-.77-1.57-1.78-2.46-3.19-2.46a2.69,2.69,0,0,0-2.61,3,3.29,3.29,0,0,0,3.35,3.47,4.5,4.5,0,0,0,2.82-1.05.58.58,0,0,1,.33-.13.26.26,0,0,1,.27.27.47.47,0,0,1,0,.23,5.38,5.38,0,0,1-5,3.21,4.59,4.59,0,0,1-4.88-4.7c0-2.81,2.09-5.83,6.51-5.83,2.36,0,3.6.62,3.6,2.29C96.44,10.62,96.28,12.13,95.64,12.13Z"/><path d="M19.17,27.16c0,3.82-2.69,7.26-8.11,7.26-1.29,0-2.55-.15-3.5-.15H4.64c-.18,0-.3-.12-.3-.35a.4.4,0,0,1,.28-.41,2,2,0,0,0,1.21-2.09l.28-8.48c0-.73-.24-1.43-1.09-1.53a.33.33,0,0,1-.31-.36.39.39,0,0,1,.37-.41H8c1.44,0,2.46-.1,3.8-.1C16.66,20.54,19.17,23.33,19.17,27.16ZM9.86,32.72a3.07,3.07,0,0,0,1.61.37,3.85,3.85,0,0,0,3.25-1.72A6,6,0,0,0,15.63,28a6.46,6.46,0,0,0-1.57-4.3,5.78,5.78,0,0,0-3.91-2c-.27,0-.38.13-.38.36l-.33,9.68A1.15,1.15,0,0,0,9.86,32.72Z"/><path d="M21.08,28.23c-.7,0-1.75-.62-1.75-1.3s.72-1.31,1.3-1.72A6.8,6.8,0,0,1,24.58,24c2.27,0,4.38,1.18,4.38,4l-.12,3.58c0,1,.46,1.55.89,1.55a.75.75,0,0,1,.33.06.29.29,0,0,1,.13.25.38.38,0,0,1-.09.25,4.09,4.09,0,0,1-2.52.83c-1.26,0-2.13-.58-2.13-1.8,0,0,0,0-.06,0s-.09,0-.09,0a3.57,3.57,0,0,1-3.24,1.86,2.93,2.93,0,0,1-3-3.13,1.11,1.11,0,0,1,.53-1.13,16.45,16.45,0,0,1,5.63-2.07c.16,0,.29,0,.29-.29,0-1.39-1.22-2-2.54-2a2.6,2.6,0,0,0-.58,0c-.25.05-.42.15-.42.46C21.93,27.51,21.79,28.23,21.08,28.23Zm2.61,4.18c1.72,0,1.78-1.88,1.78-2.77v-.5c0-.06-.06-.1-.13-.1s-.12,0-.22.06c-1,.29-2.9.95-2.9,1.59A1.58,1.58,0,0,0,23.69,32.41Z"/><path d="M31.55,27.32c0-.81-.46-1.18-1.45-1.18a.45.45,0,0,1-.21-.37.49.49,0,0,1,.46-.5,9.33,9.33,0,0,0,2.91-1.05,2,2,0,0,1,1-.33,1.27,1.27,0,0,1,.87.31l-.27,7.59c0,.7.06,1.53.95,1.72a.33.33,0,0,1,.29.37.37.37,0,0,1-.37.39H30.27a.32.32,0,0,1-.32-.35.43.43,0,0,1,.29-.41c1-.27,1.14-1.14,1.18-2.3Zm3.8-6.78a1.87,1.87,0,0,1-2.07,2c-1.32,0-1.88-.7-1.88-1.73a1.85,1.85,0,0,1,2.05-2C34.77,18.8,35.35,19.48,35.35,20.54Z"/><path d="M41.16,31.81c0,.68.07,1.59.93,1.7a.34.34,0,0,1,.29.37.35.35,0,0,1-.37.39H36.55c-.19,0-.31-.12-.33-.35a.41.41,0,0,1,.31-.41c1-.29,1.14-1.39,1.16-2.28L38,22.67c0-.79-.4-1.18-1.37-1.18a.42.42,0,0,1-.2-.39.45.45,0,0,1,.45-.46,9,9,0,0,0,2.77-1,2,2,0,0,1,1-.38,1.31,1.31,0,0,1,.86.31Z"/><path d="M41.2,36.4c0-.56.17-.89.56-.89a1.63,1.63,0,0,1,.64.27,7,7,0,0,0,2.9.75.77.77,0,0,0,.76-.87,13.84,13.84,0,0,0-.68-2.13l-2.52-7.22c-.35-1-.93-1.18-1.24-1.24a.39.39,0,0,1-.34-.38.4.4,0,0,1,.42-.39h5.83c.27,0,.35.19.35.39s-.08.38-.33.38c-.62,0-.91.33-.91.82a1.76,1.76,0,0,0,.06.42c.21,1,.89,2.77,1.1,3.7a20.63,20.63,0,0,1,.45,2.85h.09l2.5-6.55a1.06,1.06,0,0,0,.08-.46c0-.58-.64-.76-1.4-.78a.34.34,0,0,1-.35-.38.35.35,0,0,1,.37-.39h4.51a.39.39,0,0,1,0,.77,2,2,0,0,0-1.43,1.24l-2.4,5.13c-.48,1-1,2.25-1.59,3.41-1.16,2.17-2.19,4.2-4.78,4.2A2.49,2.49,0,0,1,41.2,36.4Z"/><path d="M72,27.16c0,3.82-2.68,7.26-8.1,7.26-1.29,0-2.55-.15-3.5-.15H57.48c-.19,0-.31-.12-.31-.35a.4.4,0,0,1,.28-.41,2,2,0,0,0,1.2-2.09l.29-8.48c0-.73-.24-1.43-1.09-1.53a.33.33,0,0,1-.31-.36.39.39,0,0,1,.37-.41h2.94c1.45,0,2.46-.1,3.8-.1C69.49,20.54,72,23.33,72,27.16Zm-9.3,5.56a3.07,3.07,0,0,0,1.61.37,3.85,3.85,0,0,0,3.25-1.72A6,6,0,0,0,68.46,28a6.46,6.46,0,0,0-1.57-4.3,5.78,5.78,0,0,0-3.91-2c-.27,0-.38.13-.38.36l-.33,9.68A1.15,1.15,0,0,0,62.69,32.72Z"/><path d="M73.92,28.23c-.71,0-1.76-.62-1.76-1.3s.72-1.31,1.3-1.72a6.8,6.8,0,0,1,4-1.24c2.28,0,4.38,1.18,4.38,4l-.12,3.58c0,1,.46,1.55.89,1.55a.72.72,0,0,1,.33.06.29.29,0,0,1,.13.25.34.34,0,0,1-.09.25,4.09,4.09,0,0,1-2.52.83c-1.26,0-2.13-.58-2.13-1.8,0,0,0,0-.06,0s-.09,0-.09,0a3.57,3.57,0,0,1-3.24,1.86,2.93,2.93,0,0,1-3-3.13,1.11,1.11,0,0,1,.53-1.13A16.45,16.45,0,0,1,78,28.17c.17,0,.29,0,.29-.29,0-1.39-1.22-2-2.55-2a2.55,2.55,0,0,0-.57,0c-.25.05-.42.15-.42.46C74.76,27.51,74.62,28.23,73.92,28.23Zm2.6,4.18c1.72,0,1.78-1.88,1.78-2.77v-.5a.11.11,0,0,0-.12-.1c-.05,0-.13,0-.23.06-1,.29-2.9.95-2.9,1.59A1.58,1.58,0,0,0,76.52,32.41Z"/><path d="M83.47,26.14c0-.1,0-.12-.17-.12H81.94c-.19,0-.25-.23-.27-.5s.06-.54.29-.58a5.77,5.77,0,0,0,4-3.37c.06-.16.35-.25.6-.25s.54.11.54.33L87,24.3a.14.14,0,0,0,.15.15H90c.27,0,.35.24.35.53s-.12.69-.39.71L87,26l-.14,4.13a2.15,2.15,0,0,0,.43,1.53,1.8,1.8,0,0,0,1.35.52,2.1,2.1,0,0,0,1.22-.37.86.86,0,0,1,.23-.06.36.36,0,0,1,.35.39.51.51,0,0,1-.11.31,4.7,4.7,0,0,1-3.82,2.07,3.15,3.15,0,0,1-2.51-1,3.65,3.65,0,0,1-.7-2.4Z"/><path d="M92.25,28.23c-.7,0-1.75-.62-1.75-1.3s.72-1.31,1.3-1.72a6.8,6.8,0,0,1,4-1.24c2.28,0,4.39,1.18,4.39,4L100,31.5c0,1,.46,1.55.89,1.55a.72.72,0,0,1,.33.06.28.28,0,0,1,.12.25.38.38,0,0,1-.08.25,4.09,4.09,0,0,1-2.52.83c-1.26,0-2.13-.58-2.13-1.8,0,0,0,0-.06,0s-.09,0-.09,0a3.57,3.57,0,0,1-3.24,1.86,2.93,2.93,0,0,1-3-3.13,1.11,1.11,0,0,1,.53-1.13,16.45,16.45,0,0,1,5.63-2.07c.17,0,.29,0,.29-.29,0-1.39-1.22-2-2.54-2a2.6,2.6,0,0,0-.58,0c-.25.05-.42.15-.42.46C93.1,27.51,93,28.23,92.25,28.23Zm2.61,4.18c1.72,0,1.78-1.88,1.78-2.77v-.5a.11.11,0,0,0-.12-.1s-.13,0-.23.06c-1,.29-2.9.95-2.9,1.59A1.58,1.58,0,0,0,94.86,32.41Z"/></g></g></g></svg>
