<svg fill="#a7ff83" xmlns="http://www.w3.org/2000/svg" viewBox="0 0 97.02 39.16"><defs><style>.cls-1{isolation:isolate;}.cls-2{fill-rule:evenodd;mix-blend-mode:multiply;}</style></defs><g class="cls-1"><g id="Camada_2" data-name="Camada 2"><g id="Camada_1-2" data-name="Camada 1"><path d="M32.08,7.61a3.15,3.15,0,0,1-2.27,3c-.27.11-.41.13-.41.15s.14,0,.41.06a3.27,3.27,0,0,1,2.89,3.1c0,2.22-1.9,4.43-6.12,4.43H19.36c-.24,0-.39-.1-.39-.35a.42.42,0,0,1,.33-.42c1-.33,1.16-1.2,1.18-2.08l.27-8.3c0-.76-.12-1.53-1.06-1.72A.35.35,0,0,1,19.36,5a.36.36,0,0,1,.4-.37h2.95c1.43,0,3.52-.1,4.66-.1C31.13,4.57,32.08,6.1,32.08,7.61Zm-4,4.9a3.62,3.62,0,0,0-2.67-.91c-.8,0-1.16.1-1.16.37L24.12,16a.81.81,0,0,0,.46.83,3.17,3.17,0,0,0,1.53.31,2.89,2.89,0,0,0,2.06-.8,2.69,2.69,0,0,0,.71-1.89A2.86,2.86,0,0,0,28.09,12.51Zm-.54-6.15a3.2,3.2,0,0,0-2.17-.68c-.41,0-.89.08-.91.42L24.33,10c0,.25.14.35.37.44a4.71,4.71,0,0,0,1.14.12,2.67,2.67,0,0,0,1.78-.6,2.32,2.32,0,0,0,.74-1.72A2.43,2.43,0,0,0,27.55,6.36Z"/><path d="M44.14,12.73c0,2.84-2.13,5.8-6.27,5.8-3.6,0-5.17-2.22-5.17-4.66A5.93,5.93,0,0,1,39,8C42.5,8,44.14,10.29,44.14,12.73Zm-8.26-.57c0,2.1,1.43,4.77,3.31,4.77,1.2,0,1.72-1,1.72-2.29,0-2.15-1.32-5.05-3.29-5.05C36.34,9.59,35.88,10.77,35.88,12.16Z"/><path d="M45.44,10.17c0-.1,0-.12-.17-.12H43.91c-.19,0-.25-.23-.27-.5S43.7,9,43.93,9A5.8,5.8,0,0,0,48,5.6c.06-.17.35-.25.6-.25s.54.1.54.33L49,8.33a.13.13,0,0,0,.14.14H52c.27,0,.36.25.36.54s-.13.68-.4.7L49,10l-.14,4.13a2.15,2.15,0,0,0,.43,1.53,1.86,1.86,0,0,0,1.35.52,2.1,2.1,0,0,0,1.22-.37.88.88,0,0,1,.23-.07.37.37,0,0,1,.35.4.51.51,0,0,1-.11.31,4.7,4.7,0,0,1-3.82,2.07,3.09,3.09,0,0,1-2.5-1,3.55,3.55,0,0,1-.71-2.39Z"/><path d="M54.64,12.26c-.7,0-1.76-.62-1.76-1.3s.73-1.31,1.3-1.72a6.82,6.82,0,0,1,4-1.24c2.28,0,4.39,1.18,4.39,3.95l-.12,3.58c0,1,.45,1.55.89,1.55a.78.78,0,0,1,.33.06.27.27,0,0,1,.12.25.39.39,0,0,1-.08.25,4.15,4.15,0,0,1-2.53.82c-1.26,0-2.13-.58-2.13-1.79,0,0,0,0-.06,0s-.08,0-.08,0a3.59,3.59,0,0,1-3.25,1.86,2.94,2.94,0,0,1-3-3.13,1.12,1.12,0,0,1,.54-1.14,16.33,16.33,0,0,1,5.62-2.06c.17,0,.29,0,.29-.29,0-1.39-1.22-2-2.54-2a2.64,2.64,0,0,0-.58,0,.41.41,0,0,0-.41.46C55.49,11.54,55.34,12.26,54.64,12.26Zm2.61,4.18C59,16.44,59,14.56,59,13.67v-.5a.11.11,0,0,0-.12-.1s-.12,0-.23.06c-1,.29-2.89.95-2.89,1.59A1.58,1.58,0,0,0,57.25,16.44Z"/><path d="M71.89,8c2.37,0,3.29,1.53,3.29,3.72L75,15.57c0,1,.06,1.8.87,2a.36.36,0,0,1,.31.38.38.38,0,0,1-.37.39h-5.4a.31.31,0,0,1-.33-.35.43.43,0,0,1,.31-.42c1-.33,1.07-1.32,1.12-2.29l.1-2.63c0-1-.13-2.42-1.53-2.42s-1.78,1.68-1.84,3.23l-.09,2.4c0,.93.15,1.57.87,1.71a.35.35,0,0,1,.29.38.37.37,0,0,1-.37.39h-5.4a.32.32,0,0,1-.33-.35.43.43,0,0,1,.31-.42c1-.39,1.1-1.34,1.14-2.29l.14-3.79c0-.78-.37-1.18-1.36-1.18a.43.43,0,0,1-.17-.37.47.47,0,0,1,.46-.49,8.66,8.66,0,0,0,2.79-1,1.87,1.87,0,0,1,1-.37,1,1,0,0,1,.75.31l-.13,2.09c0,.06,0,.08,0,.08s0,0,.06-.06A4,4,0,0,1,71.89,8Z"/><path d="M77.8,11.35c0-.81-.46-1.18-1.45-1.18a.45.45,0,0,1-.21-.37.49.49,0,0,1,.46-.5,9.33,9.33,0,0,0,2.91-1.05,2.05,2.05,0,0,1,1-.33,1.27,1.27,0,0,1,.87.31l-.27,7.59c0,.7.06,1.53,1,1.71a.34.34,0,0,1,.29.38.38.38,0,0,1-.37.39H76.51a.31.31,0,0,1-.3-.35.44.44,0,0,1,.28-.42c1-.27,1.14-1.13,1.18-2.29Zm3.8-6.78a1.87,1.87,0,0,1-2.07,2c-1.32,0-1.88-.7-1.88-1.74a1.85,1.85,0,0,1,2-2C81,2.83,81.6,3.51,81.6,4.57Z"/><path d="M91.3,12.24A.4.4,0,0,1,91,12c-.76-1.57-1.78-2.46-3.18-2.46a2.69,2.69,0,0,0-2.61,3A3.29,3.29,0,0,0,88.51,16,4.48,4.48,0,0,0,91.32,15a.6.6,0,0,1,.33-.13.25.25,0,0,1,.27.27.45.45,0,0,1,0,.23,5.35,5.35,0,0,1-5,3.21A4.6,4.6,0,0,1,82,13.83C82,11,84.08,8,88.51,8c2.36,0,3.6.62,3.6,2.29C92.11,10.73,91.94,12.24,91.3,12.24Z"/><path d="M14.83,27.27c0,3.82-2.69,7.26-8.11,7.26-1.28,0-2.54-.15-3.49-.15H.31C.12,34.38,0,34.26,0,34a.39.39,0,0,1,.29-.41,2,2,0,0,0,1.2-2.09l.29-8.48c0-.73-.25-1.43-1.1-1.53a.34.34,0,0,1-.31-.36.4.4,0,0,1,.37-.41H3.68c1.45,0,2.46-.1,3.81-.1C12.33,20.65,14.83,23.44,14.83,27.27ZM5.52,32.83a3.11,3.11,0,0,0,1.62.37,3.83,3.83,0,0,0,3.24-1.71,6,6,0,0,0,.91-3.35,6.47,6.47,0,0,0-1.57-4.31,5.74,5.74,0,0,0-3.91-2c-.27,0-.37.12-.37.35l-.33,9.68A1.15,1.15,0,0,0,5.52,32.83Z"/><path d="M16.75,28.34c-.7,0-1.76-.62-1.76-1.3s.72-1.3,1.3-1.72a6.82,6.82,0,0,1,3.95-1.24c2.28,0,4.39,1.18,4.39,4l-.12,3.58c0,1,.45,1.55.89,1.55a.78.78,0,0,1,.33.06.28.28,0,0,1,.12.25.38.38,0,0,1-.08.25,4.15,4.15,0,0,1-2.53.83c-1.26,0-2.13-.58-2.13-1.8,0,0,0,0-.06,0s-.08,0-.08,0a3.57,3.57,0,0,1-3.25,1.86,2.93,2.93,0,0,1-3-3.12,1.11,1.11,0,0,1,.54-1.14,16.3,16.3,0,0,1,5.62-2.07c.17,0,.29,0,.29-.29,0-1.39-1.22-2-2.54-2A2.64,2.64,0,0,0,18,26c-.25.05-.41.15-.41.46C17.6,27.62,17.45,28.34,16.75,28.34Zm2.61,4.18c1.71,0,1.77-1.88,1.77-2.77v-.5a.11.11,0,0,0-.12-.1s-.12,0-.23.06c-1,.29-2.89.95-2.89,1.59A1.57,1.57,0,0,0,19.36,32.52Z"/><path d="M27.21,27.43c0-.8-.45-1.18-1.45-1.18a.44.44,0,0,1-.2-.37.48.48,0,0,1,.45-.5,9.48,9.48,0,0,0,2.92-1.05,2,2,0,0,1,1-.33,1.27,1.27,0,0,1,.87.31l-.27,7.59c0,.7.06,1.53.95,1.72a.33.33,0,0,1,.29.37.37.37,0,0,1-.37.39H25.93a.31.31,0,0,1-.31-.35.41.41,0,0,1,.29-.41c1-.27,1.14-1.14,1.18-2.3ZM31,20.65a1.87,1.87,0,0,1-2.07,2c-1.32,0-1.88-.7-1.88-1.73a1.84,1.84,0,0,1,2-2C30.44,18.91,31,19.59,31,20.65Z"/><path d="M36.83,31.92c0,.68.06,1.59.93,1.7a.34.34,0,0,1,.29.37.35.35,0,0,1-.37.39H32.22a.33.33,0,0,1-.34-.35.42.42,0,0,1,.31-.41c1-.29,1.14-1.39,1.16-2.28l.29-8.56c0-.79-.39-1.18-1.36-1.18a.41.41,0,0,1-.21-.39.45.45,0,0,1,.46-.46,8.88,8.88,0,0,0,2.77-1,2,2,0,0,1,1-.38,1.36,1.36,0,0,1,.87.31Z"/><path d="M36.87,36.51c0-.56.16-.89.56-.89a1.69,1.69,0,0,1,.64.27,7,7,0,0,0,2.89.75.77.77,0,0,0,.77-.87,15.38,15.38,0,0,0-.68-2.13l-2.53-7.22c-.35-1-.93-1.18-1.24-1.24a.37.37,0,0,1-.33-.37.39.39,0,0,1,.41-.4H43.2c.26,0,.35.19.35.4a.33.33,0,0,1-.33.37c-.62,0-.91.33-.91.82a1.76,1.76,0,0,0,.06.42c.21.95.89,2.77,1.09,3.7A20.65,20.65,0,0,1,43.92,33H44l2.51-6.55a1.06,1.06,0,0,0,.08-.46c0-.58-.64-.76-1.41-.78a.34.34,0,0,1-.35-.37.35.35,0,0,1,.37-.4h4.51c.23,0,.33.19.33.4a.34.34,0,0,1-.31.37,2,2,0,0,0-1.43,1.24l-2.4,5.13c-.47,1-1,2.25-1.59,3.41-1.16,2.17-2.19,4.2-4.77,4.2A2.48,2.48,0,0,1,36.87,36.51Z"/><path d="M67.66,27.27c0,3.82-2.69,7.26-8.11,7.26-1.28,0-2.54-.15-3.49-.15H53.14c-.19,0-.31-.12-.31-.35a.39.39,0,0,1,.29-.41,2,2,0,0,0,1.2-2.09l.29-8.48c0-.73-.25-1.43-1.1-1.53a.34.34,0,0,1-.31-.36.4.4,0,0,1,.37-.41h2.94c1.45,0,2.46-.1,3.81-.1C65.16,20.65,67.66,23.44,67.66,27.27Zm-9.31,5.56A3.11,3.11,0,0,0,60,33.2a3.83,3.83,0,0,0,3.24-1.71,6,6,0,0,0,.91-3.35,6.47,6.47,0,0,0-1.57-4.31,5.74,5.74,0,0,0-3.91-2c-.27,0-.37.12-.37.35l-.33,9.68A1.15,1.15,0,0,0,58.35,32.83Z"/><path d="M69.58,28.34c-.7,0-1.76-.62-1.76-1.3s.73-1.3,1.3-1.72a6.83,6.83,0,0,1,4-1.24c2.27,0,4.38,1.18,4.38,4l-.12,3.58c0,1,.45,1.55.88,1.55a.8.8,0,0,1,.34.06.28.28,0,0,1,.12.25.38.38,0,0,1-.08.25,4.15,4.15,0,0,1-2.53.83c-1.26,0-2.13-.58-2.13-1.8,0,0,0,0-.06,0s-.08,0-.08,0a3.57,3.57,0,0,1-3.25,1.86,2.93,2.93,0,0,1-3-3.12,1.11,1.11,0,0,1,.54-1.14,16.3,16.3,0,0,1,5.62-2.07c.17,0,.29,0,.29-.29,0-1.39-1.22-2-2.54-2a2.64,2.64,0,0,0-.58,0c-.25.05-.41.15-.41.46C70.43,27.62,70.28,28.34,69.58,28.34Zm2.6,4.18c1.72,0,1.78-1.88,1.78-2.77v-.5a.11.11,0,0,0-.12-.1s-.12,0-.23.06c-1,.29-2.89.95-2.89,1.59A1.57,1.57,0,0,0,72.18,32.52Z"/><path d="M79.13,26.25c0-.1,0-.12-.16-.12H77.6c-.19,0-.25-.23-.27-.5s.06-.54.29-.58a5.81,5.81,0,0,0,4-3.37c.06-.16.35-.25.6-.25s.53.11.53.33l-.1,2.65a.13.13,0,0,0,.14.15h2.84c.27,0,.35.25.35.53s-.12.69-.39.71l-3,.31-.15,4.13A2.18,2.18,0,0,0,83,31.78a1.82,1.82,0,0,0,1.34.51,2.08,2.08,0,0,0,1.22-.37,1,1,0,0,1,.23-.06.35.35,0,0,1,.35.39.55.55,0,0,1-.1.31,4.73,4.73,0,0,1-3.83,2.07,3.15,3.15,0,0,1-2.5-1,3.6,3.6,0,0,1-.7-2.4Z"/><path d="M87.92,28.34c-.7,0-1.76-.62-1.76-1.3s.73-1.3,1.3-1.72a6.82,6.82,0,0,1,4-1.24c2.28,0,4.39,1.18,4.39,4l-.12,3.58c0,1,.45,1.55.89,1.55a.78.78,0,0,1,.33.06.28.28,0,0,1,.12.25.38.38,0,0,1-.08.25,4.15,4.15,0,0,1-2.53.83c-1.26,0-2.13-.58-2.13-1.8,0,0,0,0-.06,0s-.08,0-.08,0a3.57,3.57,0,0,1-3.25,1.86,2.93,2.93,0,0,1-3-3.12,1.11,1.11,0,0,1,.54-1.14A16.29,16.29,0,0,1,92,28.28c.16,0,.28,0,.28-.29,0-1.39-1.22-2-2.54-2a2.64,2.64,0,0,0-.58,0c-.25.05-.41.15-.41.46C88.77,27.62,88.62,28.34,87.92,28.34Zm2.61,4.18c1.71,0,1.77-1.88,1.77-2.77v-.5a.11.11,0,0,0-.12-.1s-.12,0-.23.06c-1,.29-2.89.95-2.89,1.59A1.57,1.57,0,0,0,90.53,32.52Z"/><path class="cls-2" d="M17.73,12.84a.77.77,0,0,1-.08-.19c-.07-.28-.13-.56-.19-.83a1.28,1.28,0,0,0-.24-.59,1.9,1.9,0,0,0-1-.63,2.52,2.52,0,0,0-2.12.47,6.33,6.33,0,0,1-.7.44,1.67,1.67,0,0,0-.42.32s0,.08-.11.06,0-.2,0-.31a10.11,10.11,0,0,1,.31-1.32,1.12,1.12,0,0,1,.28-.51.6.6,0,0,1,.15-.48A1.13,1.13,0,0,1,14,9a3.11,3.11,0,0,1,.55-.27,1.13,1.13,0,0,0,.67-1.21,1.76,1.76,0,0,0-.47-.93c-.12-.12-.24-.25-.35-.38a1.49,1.49,0,0,1-.15-.2c0-.08-.1-.16-.16-.24s-.14-.2-.2-.3A1.21,1.21,0,0,0,13.37,5a1.06,1.06,0,0,0-.95,0l-.14,0a1.22,1.22,0,0,1,.09-.17,1.53,1.53,0,0,0,.17-.69,2.07,2.07,0,0,0-.64-1.45,6.2,6.2,0,0,0-.46-.42A2.1,2.1,0,0,1,11,1.77l-.06-.08L10.5.92A1.48,1.48,0,0,0,10.06.4,6.61,6.61,0,0,0,9.44,0a.31.31,0,0,0-.13,0,2.36,2.36,0,0,0-.46,0c-.36.07-.72.17-1.08.26l-.12,0A5.79,5.79,0,0,0,6.49,1a13.87,13.87,0,0,1-1.56.91s0,0-.08.06-.35.25-.52.38a3,3,0,0,0-.5.36,3.07,3.07,0,0,0-.26.25,1.4,1.4,0,0,0-.42.72,1.71,1.71,0,0,0,.06.87A2.77,2.77,0,0,1,3.36,5a.35.35,0,0,0,.14.24,1,1,0,0,1,.19.17c.08.12.22.12.31.2l.82.13L5.24,6v.14a.93.93,0,0,1,.22.14c.15.15.33.25.47.4A.5.5,0,0,1,6,6.87l.09.24c.12,0,0,.11,0,.18a.5.5,0,0,1,.14.41V9.27c0,.62,0,1.24,0,1.86s-.07,1.24-.1,1.86l-.06,1.18c0,.06,0,.12-.05.16l0,0A7.82,7.82,0,0,1,5.4,12.7l-.15-.46A1.42,1.42,0,0,0,5.18,12,5,5,0,0,1,5,11.5c0-.21-.1-.4-.15-.6a.38.38,0,0,1,0-.21c0-.06.07-.11.1-.16a.13.13,0,0,1,0-.06l-.06-.11c-.07-.14-.06-.17.06-.26a2,2,0,0,0,.55-.46s.05,0,.08-.06a.54.54,0,0,0,.2-.33.8.8,0,0,0,0-.57,2,2,0,0,1-.08-.22A1.23,1.23,0,0,0,5,7.64a1.38,1.38,0,0,1-.35-.22.51.51,0,0,0-.22-.17A2.17,2.17,0,0,1,4,7.06a2.17,2.17,0,0,1-.35-.15.35.35,0,0,0-.25,0l-.56,0A1.38,1.38,0,0,0,2.55,7c-.06,0-.11.06-.16.08a.4.4,0,0,0-.24.18s0,.08-.07.08c-.19,0-.23.18-.34.27s0,.06,0,.06c-.17,0-.22.15-.29.27s-.23.42-.33.64S.94,9,.86,9.15s-.12.2-.16.3a2.21,2.21,0,0,0-.1.92.8.8,0,0,0,.63.67l.43.08a.55.55,0,0,0,.18,0l.41,0a.74.74,0,0,1,.33,0l.06.25c0,.11.16.08.24.17A2.89,2.89,0,0,0,3,12a2.91,2.91,0,0,1,.21.63c.09.34.17.68.24,1s.16.69.22,1,.18.88.31,1.31c0,.1.06.21.11.31a2.53,2.53,0,0,0,.18.27c-.12,0-.12,0-.19,0a3.4,3.4,0,0,1-1-.73l.09-.26-.09-.12a.21.21,0,0,1,0-.26,1.71,1.71,0,0,0,.13-.38.61.61,0,0,0,0-.46.43.43,0,0,1,0-.2c0-.21,0-.42-.26-.55-.06,0-.1-.11-.15-.17a.52.52,0,0,0-.46-.28,1.81,1.81,0,0,1-.23,0l-.3,0-.46,0a.24.24,0,0,0-.22.05,1.73,1.73,0,0,1-.51.29.38.38,0,0,0-.18.15,1.32,1.32,0,0,0-.15.29,1.43,1.43,0,0,1-.15.39.84.84,0,0,0-.11.41,1.48,1.48,0,0,1,0,.21,1.11,1.11,0,0,0,.15.76.62.62,0,0,1,.11.32.22.22,0,0,0,.08.18l.21.14a2.86,2.86,0,0,0,.48.2,1,1,0,0,0,.47.1,1,1,0,0,0,.19.17,1.23,1.23,0,0,0,.29.07,3.43,3.43,0,0,1,.42.78,1.39,1.39,0,0,0,.3.5c0,.06-.06.11-.06.15s.06.1.12.11l.13,0a.32.32,0,0,0,.34,0,.52.52,0,0,1,.18,0l1.16,0a2.81,2.81,0,0,1,.71,0c.36,0,.7.08,1.06.06,0,0,.07,0,.1,0a5.9,5.9,0,0,0,.59.06c.38,0,.75,0,1.13,0,.05,0,.12,0,.15,0s.2.09.29,0l.05,0c.13,0,.27,0,.4.06s.22,0,.25-.13,0-.05,0-.08,0-.07.06-.06a.11.11,0,0,1,.06.07.13.13,0,0,1,0,.08,1.28,1.28,0,0,1,.33.11.47.47,0,0,0,.32.08l.23,0a4.37,4.37,0,0,1,.72.06h0l1.08-.06.31,0c.26,0,.51,0,.77,0a2,2,0,0,1,.72.06h.12l.69,0h.36a.26.26,0,0,0,.21-.09.34.34,0,0,0,0-.12h-.66a.68.68,0,0,1-.31,0,1.55,1.55,0,0,1,0-.15,2.14,2.14,0,0,0,.15-.55c0-.34.09-.68.13-1a5.36,5.36,0,0,1,.32-1.19c.08-.22.18-.43.27-.64a.34.34,0,0,1,.27-.22l.08,0,.08-.27.05,0a3.82,3.82,0,0,0,.75.08,1.78,1.78,0,0,0,.4,0,1.13,1.13,0,0,0,.89-.55.75.75,0,0,0,.07-.28A1.32,1.32,0,0,0,17.73,12.84Zm-1.54-1.6a1.94,1.94,0,0,1-.3,1c0-.09-.05-.16,0-.22s0-.41.15-.59l-.06-.1c-.13.22-.24.41-.36.6a1.23,1.23,0,0,1,.36-.76C16,11.2,16.08,11.28,16.19,11.24Zm-.14-.37v0l-.15.06,0-.05A.14.14,0,0,1,16.05,10.87Zm-.34.08s0,0,0,0-.14.14-.25.16l.07-.08.13-.17Zm-.14-.11a.08.08,0,0,1,.1.05l-.16,0a1.92,1.92,0,0,0-.25.12l-.17.1h.37c0,.07-.07.14,0,.21l.15-.11s0,0,0,.05a2.23,2.23,0,0,0-.3.62,1.28,1.28,0,0,1-.26.47.06.06,0,0,1-.1,0h0a.24.24,0,0,1-.07.21l-.09.12a.86.86,0,0,0-.2.49,1.11,1.11,0,0,0,0,.19h-.1a.28.28,0,0,1-.07-.13.64.64,0,0,1,.16-.39c.11-.14.24-.27.36-.4a.94.94,0,0,0,0-.09h0a.5.5,0,0,0,.17-.29l-.2,0a.19.19,0,0,0-.18.07,1.6,1.6,0,0,1-.27.22l.06-.21L14.4,12a.58.58,0,0,0-.32.23.9.9,0,0,1-.22.26h0a2.34,2.34,0,0,0,0,.26,2.18,2.18,0,0,0,0,.27.49.49,0,0,1,0-.53v0h0a.4.4,0,0,1,.14-.31.8.8,0,0,0,.26-.43.33.33,0,0,1,.1-.14,5,5,0,0,1,.71-.58A1.08,1.08,0,0,1,15.57,10.84Zm-.48,2.67c-.11,0-.21,0-.28-.07a2.81,2.81,0,0,1,.38-.55c0,.1,0,.17-.07.24A.42.42,0,0,0,15.09,13.51ZM14,14.88a.55.55,0,0,1,0-.13c.06-.13.13-.25.2-.38s.07,0,.11,0h0v-.06h0v.06h0c-.08.14-.15.29-.23.44Zm0,.61,0,.13C13.91,15.55,13.9,15.51,14,15.49Zm.06-1.88,0,0,0,.05,0,0Zm.18.14c0-.08.07-.11.15-.07a.12.12,0,0,1,0,.07,1.2,1.2,0,0,1,0,.19h0C14.24,13.92,14.21,13.89,14.23,13.75Zm0-.5,0,0s0,0,0,.07l0,0A.14.14,0,0,1,14.22,13.25Zm.06-.53,0-.06,0,0,0,.06Zm-.46-1a5.72,5.72,0,0,1,.46-.4,4.5,4.5,0,0,1,.4-.22.84.84,0,0,1,0,.1c-.13.13-.27.26-.4.4h0c-.19,0-.29.17-.43.26h0C13.73,11.77,13.78,11.73,13.82,11.69Zm-.42.63,0,.18a.61.61,0,0,0,0,.14c-.07,0-.09,0-.08-.07S13.29,12.47,13.4,12.32ZM13,10.16c-.07,0-.13.09-.21.07h0l0,.06h0l0-.06h0c0-.1,0-.22.21-.24Zm-.46-.52c-.07-.25-.06-.32.09-.92l.35,0,0,0s0,.06,0,.07a.74.74,0,0,0-.13.21C12.79,9.2,12.67,9.42,12.55,9.64Zm.61-.48c-.08.16-.16.32-.26.5a.41.41,0,0,1,0-.07A1.14,1.14,0,0,1,13,9a.4.4,0,0,1,.5-.26C13.43,8.93,13.24,9,13.16,9.16Zm1.52-.86a1.35,1.35,0,0,1-.19.16L14,8.78l-.06,0a.66.66,0,0,0-.36.23.53.53,0,0,1-.14.12h-.06c0,.05,0,.08-.07.1l.07-.1h0L13.48,9s.09-.07.1-.11c.05-.23.25-.28.42-.33a1.79,1.79,0,0,0,.55-.28l.12-.08C14.73,8.24,14.7,8.28,14.68,8.3Zm-.75-.9v0Zm.05.22c.12.35.11.41,0,.59Zm.18-1.44.19.24a2.32,2.32,0,0,1,.43.56h0V7a1.4,1.4,0,0,1,.15.6.17.17,0,0,1-.06.16l0,0a1.51,1.51,0,0,0-.09-.6.12.12,0,0,1,0-.16h0l-.08,0-.36-.43-.27-.35S14.14,6.16,14.16,6.18ZM14,6.2c.07.13.13.26.19.39a.18.18,0,0,1,0,.16h0A.36.36,0,0,1,14.4,7a3.36,3.36,0,0,1,.06.63c-.06,0-.07,0-.07-.05a1.92,1.92,0,0,1-.07-.48s0-.11,0-.17,0-.12,0-.19h0a2.49,2.49,0,0,1-.59-1.1A2.12,2.12,0,0,1,14,6.2Zm-.39-.66a.27.27,0,0,1-.13-.24C13.57,5.34,13.6,5.42,13.61,5.54Zm-.44-.46v0s0,0,0,0v0Zm0,.46c.1,0,.07.13.13.16h0a.22.22,0,0,0,0-.22.39.39,0,0,1-.07-.23c.06,0,.11,0,.13,0a4.64,4.64,0,0,1,.32.72,1.75,1.75,0,0,0,.17.43,1.16,1.16,0,0,1,.14.62.46.46,0,0,1-.07-.1,6,6,0,0,0-.28-.57,1.83,1.83,0,0,1-.25-.53,1,1,0,0,0-.06-.16h0a1.68,1.68,0,0,0,.13.62,3.65,3.65,0,0,1,.18.56.58.58,0,0,1,0,.23c0,.23,0,.46-.06.69a1,1,0,0,1-.27.62l0,0s0,0,0-.08a1.22,1.22,0,0,0,.27-.86,1.59,1.59,0,0,0-.13-.68,2.38,2.38,0,0,1-.14-.54,4.08,4.08,0,0,1-.09-.61A.62.62,0,0,1,13.15,5.54Zm-.64-.32c.08,0,.07.06.06.12s.12-.09.21-.11a.15.15,0,0,0,.05.06A.34.34,0,0,1,13,5.6c0,.16,0,.31,0,.47s0,.39,0,.59l0,.17A1.85,1.85,0,0,1,13,7.92h0s0,0,0-.08a2.89,2.89,0,0,0,0-.72c0-.08,0-.15,0-.23a1,1,0,0,0,0-.25.83.83,0,0,1-.05-.41c0-.17,0-.35,0-.53l0,0c-.05.3-.19.57-.21.87,0,.12,0,.23-.06.35s0,.24,0,.36,0,.44,0,.67a.69.69,0,0,1-.18.49c-.06,0-.05-.05-.05-.07A2.6,2.6,0,0,1,12.32,8a1.57,1.57,0,0,0,0-.61,1.15,1.15,0,0,1,0-.41c0-.14.07-.28.1-.42s0-.22.08-.33a.82.82,0,0,0,0-.35l-.16.25A5.28,5.28,0,0,0,12,7a.53.53,0,0,0,0,.18c0,.36,0,.73-.07,1.1h0a1.47,1.47,0,0,1-.08-1,.67.67,0,0,1-.19-.05l-.14-.11a1,1,0,0,0-.16.57c0,.19.08.36.07.59,0-.06-.07-.08-.08-.11a1.56,1.56,0,0,1,0-.83,1,1,0,0,0,0-.62s-.07,0-.08,0c-.13.18-.26.36-.38.55a.75.75,0,0,0-.06.55c0,.08,0,.15,0,.27-.06-.05-.1-.06-.12-.09a.76.76,0,0,1-.05-.59,2.63,2.63,0,0,1,.53-.82,4.4,4.4,0,0,0,.57-.79,3.85,3.85,0,0,1,.38-.52l.06,0c0,.09-.08.13-.05.22A.77.77,0,0,0,12.51,5.22Zm0,3.52c0,.17-.07.31-.1.46s-.05.31-.07.47l-.12,0a.14.14,0,0,1,0-.06,4.53,4.53,0,0,0,.09-.74C12.27,8.75,12.3,8.73,12.48,8.74Zm-.62.41c-.09-.13,0-.27,0-.4s0-.07.08-.12l.21.14c0,.11,0,.22,0,.33s-.05.22-.07.33a.25.25,0,0,1,0,.07l-.06,0a.11.11,0,0,1,0-.06s0-.05,0-.07A.25.25,0,0,0,11.86,9.15Zm-.58,1.31c-.08.07-.09.08-.09.14A14,14,0,0,1,10.92,12a1.45,1.45,0,0,1-.11.29s0,0-.05,0v0h0a.12.12,0,0,1,0,.15h0a1.11,1.11,0,0,1,0,.17A5.75,5.75,0,0,1,10.25,14c0,.05,0,.11-.11.13h0v.05h0v0h0a.42.42,0,0,1,0-.12,2.58,2.58,0,0,0,.2-.55c.09-.27.2-.54.3-.81,0,0,0,0,.05,0h0l0-.15v0h0a.08.08,0,0,1,0,0c.11-.32.13-.67.21-1s.13-.85.27-1.26c0,0,0-.07.05-.13s0,.13,0,.18,0,.11,0,.22l.11-.12c0-.07,0-.14,0-.2a.74.74,0,0,1,.16-.32.1.1,0,0,1,.09,0s0,.06,0,.09a3.18,3.18,0,0,1-.16.32,1.06,1.06,0,0,0-.13.39,1.25,1.25,0,0,1-.11.35C11.27,10.68,11.32,10.56,11.28,10.46Zm-.08.9a.44.44,0,0,1,.07-.35A.43.43,0,0,1,11.2,11.36ZM11.37,9A.44.44,0,0,1,11,8.52h.26C11.28,8.67,11.44,8.78,11.37,9Zm0-.48c.21,0,.23.15.27.25a.58.58,0,0,1,0,.53A2.07,2.07,0,0,0,11.34,8.49Zm-3-1.8-.07.12c-.09,0-.09-.07-.07-.12s.11-.32.17-.47a.8.8,0,0,1,.08-.16s0,0,.06,0,.1,0,.09.07,0,0,0,.07ZM8.45,8V7.25A1.15,1.15,0,0,1,8.45,8Zm-.2-1s0,0-.05,0a.1.1,0,0,1,0,0s0,0,.07,0S8.27,7,8.25,7Zm0,1.15h0v0ZM7.93,6.7A2.73,2.73,0,0,1,8,6.06a.28.28,0,0,1,.25,0c-.09.25-.17.49-.26.72C7.94,6.77,7.94,6.73,7.93,6.7Zm0,.2,0,0h0s0,0,0,0Zm-.23,0s0,.07-.07.06,0-.2,0-.3a.94.94,0,0,1,0-.44.21.21,0,0,1,.16-.14s0,.07,0,.09a1.21,1.21,0,0,1-.05.18A1,1,0,0,0,7.74,6.88ZM7.23,5.47a4.16,4.16,0,0,1,.15-.83s0,0,0,.06a1.91,1.91,0,0,0,0,.41.61.61,0,0,1-.1.33A.07.07,0,0,1,7.23,5.47Zm0,.26h0Zm0,.55a.21.21,0,0,1,.06-.1s.08,0,.13,0l-.08.63a.42.42,0,0,1-.1-.24A2.53,2.53,0,0,1,7.3,6.28Zm.12-3.65a.25.25,0,0,1,0,.15,1.44,1.44,0,0,0-.17.45c-.11,0-.11,0-.26-.12.06-.11.12-.22.19-.33s.08-.07.15,0a1.59,1.59,0,0,1,.43-.88h0s0,0,0,0a0,0,0,0,1,0,0s0,0,0,0l0,0h0c0,.13-.1.21-.12.33l.07.2c-.07,0-.15,0-.2.06A.46.46,0,0,0,7.42,2.63Zm-.3,4.25A1.13,1.13,0,0,1,7,6.2l.17,0C7.2,6.42,7.08,6.65,7.12,6.88ZM6.88,5.69c0-.35,0-.45,0-.53s0,0,0,0,0,.3,0,.45a0,0,0,0,1,0,0l0,0Zm0,1.12v0l0,0v0ZM6.93,5s-.08,0-.1,0,0-.09,0-.11a1.55,1.55,0,0,1,.29-.43s0,0,0,0a.14.14,0,0,1,0,.09A.66.66,0,0,0,6.93,5Zm0,10.35a.47.47,0,0,1,0,.12.15.15,0,0,1-.15-.12.52.52,0,0,0-.19-.27.36.36,0,0,1-.12-.3c0-.58,0-1.16.07-1.75,0-.39,0-.78,0-1.18a.28.28,0,0,1,0-.09c.05,0,.07,0,.07,0a1.47,1.47,0,0,1,0,.21,1,1,0,0,0,0,.17,3,3,0,0,1,0,.84,4.91,4.91,0,0,1,0,.77c0,.1,0,.19,0,.28a2.54,2.54,0,0,0,0,.73c.09,0,.11,0,.11-.07,0-.2,0-.39,0-.59s0-.6.06-.9,0-.6.06-.9a1.56,1.56,0,0,1,0-.2c0,.05.07.07.08.1a.53.53,0,0,1,0,.13c0,.47,0,.94,0,1.41,0,.3,0,.6,0,.9A3,3,0,0,0,6.89,15.37ZM6.55,7.81c0-.06.13-.1,0-.17s0-.12,0-.18a1.38,1.38,0,0,0,0-.2s0,0,0-.1a.37.37,0,0,1,.12.26,1.34,1.34,0,0,1,0,.2c0,.24,0,.48,0,.72a1.41,1.41,0,0,1,0,.41,1.55,1.55,0,0,0,0,.31c0,.26,0,.53,0,.79a2,2,0,0,1,0,.49c0,.1,0,.22,0,.33,0-.05,0-.1,0-.14V9c0-.34,0-.68,0-1A.76.76,0,0,0,6.55,7.81Zm0-1.63s0,0,0-.08a.65.65,0,0,1,.29.05c.07.08,0,.16.05.24l0,.21s-.07,0-.08,0A1.7,1.7,0,0,0,6.5,6.18Zm-.68-.79c.06.05.07.12.11.22s-.08,0-.08-.05S5.78,5.46,5.82,5.39Zm0-.12c0-.06-.07-.08-.08-.11a1.8,1.8,0,0,1,.13-1C5.83,4.54,5.81,4.89,5.8,5.27ZM6,4.81a.28.28,0,0,0,0-.12,2,2,0,0,1,.34-.77.57.57,0,0,1,.08-.08.24.24,0,0,1,0,.25,5.66,5.66,0,0,0-.27.68c0,.07,0,.17,0,.26a.91.91,0,0,1,0,.33c0,.12,0,.24.1.36s.07,0,.13.07C6.13,5.79,6,5.7,6,5.54A1.22,1.22,0,0,1,6,4.81ZM6,3.74a.49.49,0,0,1,.17-.35A1.62,1.62,0,0,1,6,3.74Zm.26,1.7a1.41,1.41,0,0,0,0-.2.27.27,0,0,1,0-.12c.06-.12.09-.26.21-.34l.06,0h0c0-.11,0-.18.1-.27a.35.35,0,0,1-.1.27h0a2.27,2.27,0,0,1-.13.84C6.35,5.55,6.29,5.54,6.3,5.44Zm.38-1.92h0l0,0a.1.1,0,0,1-.06.12h0S6.63,3.57,6.68,3.52Zm.43.33s0,0,0-.05,0,0,0-.06l.07.06ZM7.67,2.8a.59.59,0,0,0,.09-.24A2.16,2.16,0,0,1,8,2,.1.1,0,0,1,8,2H8l0,0,.16-.38A.38.38,0,0,1,8,1.94V2H8a.85.85,0,0,1-.11.35,1,1,0,0,0-.09.45,1,1,0,0,1,0,.3c0,.12-.06.24-.09.36l-.16,0A1.7,1.7,0,0,1,7.67,2.8ZM8.1,1.4v0h0Zm.44.16h0v.06a2.64,2.64,0,0,0-.15.73,1.13,1.13,0,0,1-.09.35,1.84,1.84,0,0,0-.09.53,2.41,2.41,0,0,1-.07.37s0,0-.06,0a1,1,0,0,1,0-.59,1.49,1.49,0,0,0,0-.21.8.8,0,0,1,0-.15A2.68,2.68,0,0,0,8.35,2,1.18,1.18,0,0,1,8.54,1.56ZM8.4,1.3s0,0,0,0h0ZM8.58,1c0,.05,0,.09,0,.11s0,0-.06,0S8.52,1,8.58,1Zm0,3.36a.44.44,0,0,1,0,.1,3.07,3.07,0,0,1-.2.76c-.06,0-.07,0-.07-.08a4,4,0,0,1,.08-.5.67.67,0,0,1,.1-.23S8.53,4.38,8.56,4.36Zm-.89-.18V4C7.78,4.1,7.74,4.13,7.67,4.18Zm0,.17h0s0,0,0,0h0Zm.11,1,0-.06.12-.17a.19.19,0,0,1,0,.21A.06.06,0,0,1,7.77,5.34Zm.08-.56c0-.1,0-.2.07-.3a1,1,0,0,0,0-.3A.21.21,0,0,1,8.09,4a.55.55,0,0,1,0,.34A1.4,1.4,0,0,0,8,4.73.3.3,0,0,1,7.9,5,.48.48,0,0,1,7.85,4.78Zm.81,1.68a.23.23,0,0,1-.08.25A.34.34,0,0,1,8.66,6.46ZM8.65,4c0-.14,0-.14,0-.21s0-.2,0-.3a.52.52,0,0,0,0-.18,1,1,0,0,1-.07-.48.7.7,0,0,0-.06-.35.13.13,0,0,1,0-.17,1.05,1.05,0,0,0,.22-.45s0-.1.05-.14c0,.11,0,.2.08.3a.62.62,0,0,1,0,.33,1.28,1.28,0,0,0-.06.43A5.28,5.28,0,0,1,8.7,3.93ZM9.21,4a2,2,0,0,1-.12.6,2.32,2.32,0,0,0-.19.58c0,.06,0,.12-.11.13a.89.89,0,0,1,.07-.63A1.59,1.59,0,0,1,9,4.42a.73.73,0,0,0,.15-.35S9.16,4,9.21,4Zm0-.14V3.71h0v.11ZM8.93,6.47a.17.17,0,0,1,0,.14v0h0l-.06.07c0-.07,0-.09.06-.07h0V6.47h0a2.07,2.07,0,0,1,.15-.25,3.88,3.88,0,0,1,.26-.31s.05,0,.08,0-.06.1-.09.14-.18.22-.26.34-.09.06-.14.07h0ZM8.7,6.23,8.8,6l.11.07-.15.23A.07.07,0,0,1,8.7,6.23Zm0,2.13a7,7,0,0,1,0-1.21l.15-.07A.16.16,0,0,0,9,7l.24-.39a2.63,2.63,0,0,1,.28-.4A.4.4,0,0,1,10,6.09a1.27,1.27,0,0,0,.58,0L10.87,6a.78.78,0,0,1,.14,0h0l0,0h0a.81.81,0,0,1-.25.3.82.82,0,0,1-.24.15,1.33,1.33,0,0,0-.5.38.58.58,0,0,0-.08.18c0,.08,0,.17-.13.22l-.07-.11-.18.43a.12.12,0,0,0,0,.08A1.22,1.22,0,0,0,9.64,8V8c.09,0,.14.05.19.1s.21.23.3.35a2,2,0,0,0,.55.57.48.48,0,0,1,.21.42.57.57,0,0,0,0,.13.72.72,0,0,1-.05.5l-.12.36a.93.93,0,0,0,0,.13,3.31,3.31,0,0,1-.17.69.28.28,0,0,0,0,.13,3.69,3.69,0,0,1-.25.86l0,.09a10.15,10.15,0,0,1-.37,1.1,3.52,3.52,0,0,1-.18.4l-.15.32-.06.06a.34.34,0,0,1-.06-.12c-.1-.41-.19-.83-.3-1.25s-.16-1-.24-1.5a11.18,11.18,0,0,1-.12-1.41,7.1,7.1,0,0,1,0-1A3.25,3.25,0,0,0,8.72,8.36Zm1.65-4.29c0-.16,0-.31,0-.46a.69.69,0,0,0-.16-.32A.93.93,0,0,1,10,2.81a1.4,1.4,0,0,0-.09-.29.64.64,0,0,1-.05-.36,1.88,1.88,0,0,1,.12.15c.07.18.14.36.2.53a.61.61,0,0,1,.05.12c.06.35.19.68.23,1a1,1,0,0,1,0,.55,2.7,2.7,0,0,1-.16.48,1.63,1.63,0,0,1-.32.47c-.08-.11,0-.19,0-.27s.12-.2.19-.3a4.84,4.84,0,0,0,.25-.73A.25.25,0,0,0,10.37,4.07Zm-.31-2.3v0Zm.46,3.67.19-.17a.1.1,0,0,1,.15.08v.08a.48.48,0,0,1-.18.24.1.1,0,0,1-.15,0A1.09,1.09,0,0,1,10.52,5.44Zm.76.47s.06-.09.14,0l-.06.07a1.66,1.66,0,0,1-.38.31h0l-.05.07-.06,0c0-.08,0-.09.11-.12h0v0C11.08,6.12,11.17,6,11.28,5.91Zm-.61.62a.06.06,0,0,1,0,0h0l0,0ZM10.25,8.1h0L10.1,8c.1,0,.1,0,.14.09h0a.32.32,0,0,1,.33.23c0,.06.08.1.14.14a.51.51,0,0,1,.19.3l-.11-.07a1.9,1.9,0,0,1-.19-.21,1,1,0,0,0-.22-.2c-.08,0-.15-.09-.14-.19Zm0-.33s0,.05,0,.08a.22.22,0,0,1-.18-.27.71.71,0,0,1,.06-.24L10.33,7l.06-.06s0,.06,0,.08A1,1,0,0,0,10.28,7.77Zm-.51.05a.52.52,0,0,1-.07-.46s.07.07.07.09S9.77,7.7,9.77,7.82ZM11.5,5.74h0v0Zm.08-.6a2.6,2.6,0,0,1,.1-.25c.08-.16.08-.15.23-.24A.25.25,0,0,1,12,4.9a.57.57,0,0,1-.19.29.24.24,0,0,1-.17,0S11.58,5.16,11.58,5.14Zm.5-.71a.18.18,0,0,1-.19-.17c0-.06,0-.13,0-.19a.12.12,0,0,1,.09-.14.1.1,0,0,1,.14.06.92.92,0,0,1,.08.27A.15.15,0,0,1,12.08,4.43Zm-.29-1.54a1.14,1.14,0,0,1,.31.63c-.17-.21-.29-.45-.46-.66A.11.11,0,0,1,11.79,2.89Zm-.07,1a.48.48,0,0,0,0,.17c0,.06.06.1.09.15s-.24.16-.24.32l-.06,0a.08.08,0,0,1-.06,0,.76.76,0,0,1,0-.15c0-.17,0-.33,0-.5l.12-.08Zm-.53-1.39a1.75,1.75,0,0,1,.29.47.17.17,0,0,1,0,.07h0l0,0s0,0,0,0h0a.13.13,0,0,0,0-.06h0l-.27-.37a1.05,1.05,0,0,1-.08-.18Zm-.14,2.86c0-.1.14-.17.1-.29a.62.62,0,0,0,.17-.25h.07l0,0a.59.59,0,0,1,0,.13c-.06.15-.11.3-.17.46H11A.3.3,0,0,1,11.05,5.41ZM11,4.88l-.15-.1.1-.15h0C11,4.71,11.06,4.78,11,4.88Zm0-1a1.08,1.08,0,0,0,0,.18h-.06l0-.16a1.83,1.83,0,0,0-.06-.25c-.07-.17-.16-.34-.23-.52a.88.88,0,0,0-.21-.36.6.6,0,0,1-.09-.13,3.18,3.18,0,0,1-.16-.32.17.17,0,0,1,0-.12.37.37,0,0,0,0-.34A4.51,4.51,0,0,1,10.63,3c0,.09.09.16.14.25s.1.16.14.24A.62.62,0,0,1,11,3.92Zm-.3-2c.15.12.15.27.17.46,0,0-.08,0-.09-.08A.6.6,0,0,1,10.69,1.88Zm-.22.19a1.42,1.42,0,0,1,.45.87l-.06-.08c-.13-.22-.26-.43-.39-.66A.56.56,0,0,1,10.47,2.07ZM7.29.82c0-.08.1-.1.22-.1L7.34.88l0,0S7.28.83,7.29.82Zm-.1.53L7,1.59C7,1.44,7,1.44,7.19,1.35Zm0,.46h0v0Zm-.28-.59a.34.34,0,0,1-.18.22A.38.38,0,0,1,6.91,1.22Zm-.08.53v0l0,0h0Zm-.2-.14-.13.15C6.48,1.65,6.55,1.62,6.63,1.61Zm-3,1.75h0a2.64,2.64,0,0,1,.48-.46.64.64,0,0,1,0,.09l-.28.33a.15.15,0,0,1-.18,0h0l0,0v0s0,0,0,0v0h0Zm-.09.37,0,0,0,0a.05.05,0,0,1,0,0S3.56,3.75,3.57,3.73ZM4.41,5.2a0,0,0,0,1,0,0,0,0,0,0,1,0,0,.33.33,0,0,1,.08.26A.24.24,0,0,1,4.41,5.2ZM5,3.9C5,4,5,4,5,4.07a1.34,1.34,0,0,1,0,.2.88.88,0,0,1,0,.17H4.89A1,1,0,0,1,5,3.9Zm-.06.84h0v0h0ZM5,5.21a.36.36,0,0,1-.06-.28l.27.41A.33.33,0,0,1,5,5.21ZM5,3.77s0,0,0,0H5s0,0,0,0Zm.25,2,0,0,0-.05.09,0A.35.35,0,0,1,5.25,5.77Zm0-1.17c-.13.16-.13.17,0,.42a.2.2,0,0,1,0,.07l0,0v0l0-.06s-.09,0-.11,0a.33.33,0,0,1,0-.32,7.58,7.58,0,0,0,.41-.92,1.55,1.55,0,0,1,.12-.22h0l.16-.36C5.71,3,5.65,3,5.54,3.09l-.21.2c-.08-.09,0-.13,0-.21l-.19-.17C5,3,5,3.07,4.9,3.17a.41.41,0,0,0-.13.4A1.61,1.61,0,0,1,4.7,4a2.16,2.16,0,0,0-.15.62s0,.09,0,.13-.08.28-.25.31a.16.16,0,0,0-.13.13h0l0,0,0,0h0C4.07,5.12,4,5,3.91,4.94a.59.59,0,0,1-.19-.29.62.62,0,0,0-.17-.33h0V4l.06,0s0,.05,0,.08l-.09.26h0c.07-.05.15-.09.15-.19a.43.43,0,0,1,0,0c.18-.28.26-.61.45-.88A2.33,2.33,0,0,1,5,2.38a.39.39,0,0,0,.21-.21s0,0,0,0h0a.54.54,0,0,1-.3.21h0l0,0h0s0,0,0,0h0s0,0,0,0a.44.44,0,0,1,.3-.17h0a1.15,1.15,0,0,1,.37-.25,3.07,3.07,0,0,0,.31-.16.24.24,0,0,1-.11.18l-.42.39-.2.22a5,5,0,0,1-.43.37,1.4,1.4,0,0,0-.62.72c0,.05.06,0,.09,0a2,2,0,0,1,.5-.31c.1-.1.21-.2.3-.31a1.33,1.33,0,0,1,.21-.26.3.3,0,0,0,.09-.13,1.87,1.87,0,0,1,.43-.5.51.51,0,0,1,.45-.15.31.31,0,0,0,.28-.11l0,.17c.14.08.24-.05.36,0a1.22,1.22,0,0,0,.33,0C7.1,2,7,2,7,2.07a.84.84,0,0,0,0,.16l.14-.06A1.56,1.56,0,0,0,7.31,2l.09-.06h0a.26.26,0,0,1,.15-.2h0a.21.21,0,0,1,.15-.19h0l0-.15H7.53s0,0,0,0a1.91,1.91,0,0,1-.06-.21l-.18.09v0L7.54.86,7.79.64A.18.18,0,0,1,7.87.59.53.53,0,0,0,8.28.42a1,1,0,0,1,.2-.16A.85.85,0,0,1,8.65.2l0,.09,0,0,.59,0h0a.25.25,0,0,0,.29.09s.08,0,.09.08A.51.51,0,0,0,10,.71a.4.4,0,0,0,.18.32.51.51,0,0,1,.23.44c0,.12,0,.25,0,.38a.47.47,0,0,1,0,.12c-.14-.15-.12-.33-.16-.5s-.1-.13-.2-.14L10,1.44l-.18-.32a.43.43,0,0,0-.06.3,1,1,0,0,1,0,.39.87.87,0,0,1-.13-.37,2.1,2.1,0,0,1,0-.36c-.09-.09-.19,0-.28,0a.25.25,0,0,0,0,.07,2.55,2.55,0,0,1,.11.55,1.16,1.16,0,0,0,.14.47.79.79,0,0,1,.05.22l0,.54a.61.61,0,0,0,.08.27.79.79,0,0,1,.1.34,1.87,1.87,0,0,1-.09.94c0,.23-.18.4-.23.62a.41.41,0,0,1,0,.09c-.11.16-.23.31-.35.47-.08,0-.09-.08,0-.12s.1-.07.07-.15,0-.09,0-.14c.12-.25.24-.49.35-.74,0,0,0,0,0-.06a.41.41,0,0,0,.16-.39,5.48,5.48,0,0,0-.05-.57,1,1,0,0,0-.12-.31,1,1,0,0,1-.08-.24.48.48,0,0,0-.05-.17l-.1-.24a1.37,1.37,0,0,1,0-.23.23.23,0,0,0-.12.25c0,.1,0,.2,0,.33a.22.22,0,0,1-.09-.22,1,1,0,0,0,0-.35s0-.07,0-.1a.32.32,0,0,0,0-.13,2.33,2.33,0,0,1,0-.59.38.38,0,0,1,0-.15.54.54,0,0,0,0-.41,1.4,1.4,0,0,0-.16.2c0,.1-.12.09-.21.12a.71.71,0,0,1,.2-.46.75.75,0,0,0-.15,0A1,1,0,0,0,8.26,1a2.33,2.33,0,0,0-.42.41s-.06.09-.12.09h0a.23.23,0,0,1-.15.19h0a.26.26,0,0,1-.15.2h0a.86.86,0,0,1-.19.35c-.12.15-.25.3-.36.46a1.12,1.12,0,0,1-.32.33l-.16.12a.46.46,0,0,0-.56.18c0,.06-.07.12-.11.17H5.63a.27.27,0,0,1,0,.26,1.91,1.91,0,0,0-.18,1.13,1.69,1.69,0,0,0,.12.36A.69.69,0,0,1,5.34,5Zm0-1.2v0l0,0,0,0Zm.89,3a1.81,1.81,0,0,1-.42-.28c-.1-.1-.27-.13-.29-.3A1.43,1.43,0,0,1,6,6.09a1.3,1.3,0,0,1,.22.29S6.1,6.4,6.09,6.39Zm.13-.2a2.68,2.68,0,0,1-.28-.25.9.9,0,0,1,.69.9,1.54,1.54,0,0,0-.18-.41A1,1,0,0,0,6.22,6.19Zm.2.62,0,0a.14.14,0,0,1,0-.06h0ZM5.23,8.26c0,.05.1.08.11.12a3.5,3.5,0,0,1,.09.8c-.1,0-.13-.07-.13-.13a1.17,1.17,0,0,0-.06-.45A1.25,1.25,0,0,1,5.23,8.26Zm-.36.85a.44.44,0,0,0,0-.37c.06,0,.08,0,.09,0a.71.71,0,0,1,0,.57c0,.07-.06.15-.1.21a.76.76,0,0,1-.08.11.36.36,0,0,1,0-.4A.6.6,0,0,0,4.87,9.11Zm-.09-.58-.12-.2C4.78,8.38,4.8,8.44,4.78,8.53ZM4.23,7.6l0,.08h0a.27.27,0,0,1,.08.07l.26.42c-.07,0-.09,0-.1,0L4.27,7.7h0a2.18,2.18,0,0,1-.71-.5A1,1,0,0,1,4.23,7.6Zm.15,1.78a.2.2,0,0,0,0-.22A.67.67,0,0,1,4.35,9s0-.07,0-.1a1.26,1.26,0,0,1,.14.6.9.9,0,0,1-.15.46L4.3,10a.08.08,0,0,1,0-.06A.9.9,0,0,1,4.38,9.38Zm-.11-.92a0,0,0,0,1,0,0l0,0,0,0Zm.08,2.06c0-.06.09-.07.21,0a.25.25,0,0,1-.17.19C4.37,10.61,4.34,10.56,4.35,10.52ZM3.74,10a.6.6,0,0,1,0-.35,1.76,1.76,0,0,0,.07-.45l0-.05c.07.14.14.27.2.4A.41.41,0,0,1,4,10a1.86,1.86,0,0,0-.1.2C3.76,10.1,3.76,10.1,3.74,10Zm.16.35-.06.07,0,0a.09.09,0,0,1,0-.06Zm-.11.54S3.73,11,3.7,11a.1.1,0,0,1-.09,0,.08.08,0,0,1,0-.12l.15-.05C3.78,10.85,3.81,10.89,3.79,10.92ZM3.76,9v-.1h0V9ZM4,8.55H4Zm.09,2.07,0,.1v.07C4,10.84,4,10.84,4,10.7ZM3.49,7.31l.38.35a.59.59,0,0,1,.2.37h0l0,.1c-.07,0,0-.07,0-.1H4L3.47,7.4,3.4,7.3Zm-.23.11a.75.75,0,0,0,.09.15.57.57,0,0,1,.13.33.84.84,0,0,0,.13.33s.05.11,0,.15-.06,0-.07-.06C3.35,8,3.14,7.62,3,7.2A.51.51,0,0,1,3.26,7.42Zm0,2,.06.11c.05.15.1.29.14.44a1,1,0,0,1,0,.48l-.05,0A1.35,1.35,0,0,1,3.26,9.44ZM3.38,11a.11.11,0,0,1-.09.11s-.07,0-.08-.08,0-.07.07-.08S3.37,11,3.38,11ZM2.94,7.58a1,1,0,0,1,.19.75c-.06,0-.08,0-.09-.07A2.15,2.15,0,0,1,2.94,7.58Zm0,1.21a.35.35,0,0,1,0,.42C2.88,9.1,2.88,9,2.94,8.79Zm0,.72v0s0,0,0,0a.05.05,0,0,1,0,0Zm-.21-2h0s0,0,0,0c0,.31,0,.62.06,1A1.65,1.65,0,0,1,2.69,7.55Zm-.28.85a3.89,3.89,0,0,0,0-.49,1.15,1.15,0,0,1,0-.41s0,0,.08-.11a1,1,0,0,1,0,.18,1.46,1.46,0,0,0,0,.51c0,.1,0,.2,0,.3a2.37,2.37,0,0,1,0,.75c0,.21-.08.43-.12.65h0a4,4,0,0,1,.07-.5A5.07,5.07,0,0,0,2.41,8.4Zm-.91.35a.42.42,0,0,1,0-.12c.11-.28.22-.56.34-.84l0-.07L2,7.87c.1,0,.1,0,.19-.2,0,0,0,0,0,.06A.39.39,0,0,0,2.26,8a.18.18,0,0,1,0,.2,1,1,0,0,0-.08.42,1.61,1.61,0,0,1-.12.48A1.09,1.09,0,0,0,2,9.74H2c.07,0,.08.09,0,.16s0-.11,0-.16H2c-.06,0-.1,0-.1-.09s0-.12,0-.18,0-.2-.18-.35l-.15.21c0-.11,0-.17,0-.25L1.55,9A.22.22,0,0,1,1.5,8.75Zm-.43,1.42v0h0a0,0,0,0,1,0,0Zm.14.66H1.13v-.07l0,0s0,0,0,0h0l.06,0h0Zm.06-1.26-.06,0h0q.06.12-.09.21V9.62l.1,0h0a.06.06,0,0,1,0,0l0,0ZM1.2,9.09s0,0,0-.05a.6.6,0,0,1,.06-.19c.1-.13.07-.32.22-.44A1.1,1.1,0,0,1,1.32,9S1.29,9.1,1.2,9.09Zm1,1.79-.07,0L2,10.7l-.31.05-.05.1h.06l0,0h0l-.05,0h0c-.16-.06-.18-.22-.25-.34a.33.33,0,0,1,0-.29.76.76,0,0,0,0-.16.18.18,0,0,0,.09,0c.07,0,.14,0,.2,0s.28,0,.33.24a1,1,0,0,0,.08.29.66.66,0,0,0,.27.22Zm.37-.17a.7.7,0,0,1-.22-.52h0l0-.1h0v.1h0s.07,0,.08,0a1.47,1.47,0,0,0,.41.45s0,0,0,.05A.21.21,0,0,1,2.56,10.71ZM3,11.3a.94.94,0,0,1-.14-.13.08.08,0,0,1,0-.09L3,11s.06.05.06.07A.74.74,0,0,1,3,11.3Zm0-.8a1.71,1.71,0,0,0-.2-.27.12.12,0,0,1,0-.08,1,1,0,0,1,0-.48c0,.06.11.1.1.12A.65.65,0,0,0,3,10.2a1.06,1.06,0,0,1,.12.34C3.1,10.57,3.07,10.53,3.05,10.5Zm.46,2.11H3.45v0h0l0,0h0v.11S3.5,12.65,3.51,12.61Zm.19.94V13.4h0s-.06,0-.07,0l-.07-.28h0l0-.14a.11.11,0,0,1,0,.14h0a.05.05,0,0,1,.07,0,2.68,2.68,0,0,1,.07.27h0l0,.15Zm.28,1H4v-.11c-.09-.05-.07-.12-.06-.2s-.06,0-.06-.06a3.18,3.18,0,0,1-.1-.33v-.11h0l0,.1s.09,0,.1.07l.06.32c0,.07,0,.15.06.21Zm0,.27a1.51,1.51,0,0,1,.17.59A1.28,1.28,0,0,1,4,14.84ZM4.14,14c.07.31.14.56.2.82-.08-.08-.1-.11-.16-.37A.9.9,0,0,1,4.14,14ZM2.91,15.74l-.05.1,0,0,.06-.08Zm0-.91s-.06,0-.07-.05a2,2,0,0,0-.71-.66c-.18-.12-.33-.26-.53-.41a.24.24,0,0,1,.28,0,3.36,3.36,0,0,1,.41.34,2,2,0,0,0,.28.23A.67.67,0,0,1,2.9,14.83Zm-.19,1.11,0,0s0,0,0,0l-.09.05,0,0A.09.09,0,0,1,2.71,15.94Zm-.08-.45,0,0,0,0,0,0ZM2,13.23H2Zm-.16.19a.78.78,0,0,1,.64.4l-.17-.11a2.18,2.18,0,0,0-.5-.2.53.53,0,0,0-.35,0C1.54,13.37,1.69,13.4,1.82,13.42Zm-.59-.12.13,0h0l0-.07h0s0,0,0,0l-.07,0h0a.43.43,0,0,1-.09.1s0,0-.06,0S1.19,13.32,1.23,13.3Zm-.13.2h0a.06.06,0,0,1,0,0h0A0,0,0,0,1,1.1,13.5Zm-.36.14v0h0v0Zm.65,2.52-.06,0,0-.05.06.05Zm.38.33,0,0s0,0,.05,0l0,0Zm.05-.38a2,2,0,0,1-.17-.32A3.31,3.31,0,0,0,1.28,15a2.1,2.1,0,0,1-.15-.33.5.5,0,0,0,0,.29,1.57,1.57,0,0,1,0,.53s0,.05,0,.07h0v0a.2.2,0,0,1,0,.2H1.2a.22.22,0,0,1,0,.2l-.11-.2v-.2h0s0,0-.07,0a.42.42,0,0,1-.34-.06c0,.15.05.29,0,.42s-.09-.09-.1-.14a4.43,4.43,0,0,1-.06-.51A2.9,2.9,0,0,1,.7,14a.81.81,0,0,1,.1-.18c.08.07,0,.12,0,.17l0,.06s.05,0,.07,0l0,0,.12.27h0a1.21,1.21,0,0,0,0-.19l0-.24c0,.08.07.12.07.17a4.44,4.44,0,0,0,.29,1,.39.39,0,0,1,0,.18,3.29,3.29,0,0,0,.3.79.83.83,0,0,0,.08.12S1.83,16.14,1.82,16.11Zm.28.34c-.05,0-.1-.05-.09-.1s.05-.06.07-.06.06.05.1.08A.57.57,0,0,1,2.1,16.45Zm.12-.62h0c0-.14-.13-.23-.19-.35s-.12-.25-.19-.37a1.32,1.32,0,0,0-.12-.2.82.82,0,0,1-.14-.26l-.07-.14-.05-.07a.25.25,0,0,1,0-.09c0-.15-.09-.28-.09-.44l0,0c.11,0,.08.13.15.17h0c0-.11-.05-.22-.07-.33s.13,0,.17.1a7.08,7.08,0,0,0,.5.59,2.31,2.31,0,0,1,.45.71.36.36,0,0,1,0,.1s0,0,0,0L2.3,15c-.07-.1-.13-.22-.21-.32a3.42,3.42,0,0,0-.36-.4c-.07-.06-.12-.17-.24-.17h0s0,.07,0,.09c.1.25.2.49.31.73a1.16,1.16,0,0,0,.14.24,1.69,1.69,0,0,1,.28.57.34.34,0,0,1,0,.14h0s.07-.05.11,0a0,0,0,0,1,0,0c0,.05-.07,0-.1,0Zm.27.35c0,.09-.08.12-.18.13a.38.38,0,0,1,.1-.25A.1.1,0,0,1,2.49,16.18Zm-.17.68,0-.08h0l.06.06Zm.31.52h0v-.05a.08.08,0,0,0,0,0v0h0Zm.26.49s0,0,0,0l0,0h0c-.11,0-.11,0-.14-.23l.14.23h0s0,0,0,0S2.89,17.86,2.89,17.87Zm.18.25s0,0,0,0a.06.06,0,0,0,0,0s.05,0,.06,0,0,0,0,.06Zm.07-.42L3,17.51C3.12,17.56,3.15,17.6,3.14,17.7Zm.06.07a.53.53,0,0,1,.27.28A1,1,0,0,1,3.2,17.77Zm.71.24-.37-.34a.08.08,0,0,1,0-.05c.14,0,.22.08.47.38C4,18,3.93,18,3.91,18Zm.6-.39a1.77,1.77,0,0,0-.17-.12A3,3,0,0,1,3.56,17c-.16-.14-.3-.3-.45-.45a.88.88,0,0,0-.29-.25h0a.17.17,0,0,0,0,.18l.32.34.76.69c.11.1.24.19.36.29a.41.41,0,0,1,.16.2s-.07,0-.08,0l-.14-.11c-.3-.28-.65-.5-1-.77a4.16,4.16,0,0,1-.42-.42c-.06-.06-.11-.15-.22-.16s0,.06,0,.09l.53.66s0,.07,0,.1h.09s0,0,0,.06a.08.08,0,0,1-.1-.07h0a.93.93,0,0,1-.42-.41l-.15-.24a.28.28,0,0,0-.22-.14h0c.17.29.35.57.52.85a1.35,1.35,0,0,1-.49-.59c0-.1-.07-.21-.21-.2l.18-.06h0s0,0,0,0a.82.82,0,0,1,.37-.24h0l.05-.07L3.08,16l.33.34a.78.78,0,0,0,.26.21c.17.09.33.21.51.3a1,1,0,0,1,.24.18s0,.06,0,.09A.75.75,0,0,1,4,17l-.77-.64-.14-.1a.08.08,0,0,0,0,.13c.11.12.22.26.34.38a4.33,4.33,0,0,0,.83.65.7.7,0,0,1,.32.24C4.56,17.67,4.53,17.64,4.51,17.62Zm.62.1s0,0,0,0a0,0,0,0,1,0,0h0S5,17.58,5,17.54a4.85,4.85,0,0,0-.29-.49c0-.05,0-.13,0-.19s-.1-.11-.11-.17a.84.84,0,0,0-.12-.31c-.08-.18-.09-.38-.15-.56l0-.09h0V15.6c.07,0,0,.09,0,.13h0a.1.1,0,0,1,.1.06c0,.12.09.24.14.36A11.45,11.45,0,0,0,5,17.35a.45.45,0,0,1,.09.3h0v0a.05.05,0,0,1,0,0Zm-.75-2.64h0v0Zm.93,2.56q-.21-.36-.39-.72a4.73,4.73,0,0,1-.3-.82.61.61,0,0,1,0-.19h0c-.11,0-.07-.15-.1-.23a.3.3,0,0,1,.1.23h0c.07,0,.08.1.1.16.19.52.46,1,.68,1.52a2.1,2.1,0,0,1,.12.28A.54.54,0,0,1,5.31,17.64Zm.6-.06c-.15-.11-.13-.3-.23-.41a1.33,1.33,0,0,1-.21-.41,3.2,3.2,0,0,1-.17-.43c0-.14-.1-.27-.14-.42s-.06-.3-.09-.45A.8.8,0,0,1,5,15c0,.05,0,.11,0,.16.1.31.18.61.28.92s.14.38.23.57a6.32,6.32,0,0,1,.32.82A.4.4,0,0,1,5.91,17.58Zm.23,0a4.32,4.32,0,0,1-.28-.67c-.06-.32-.14-.64-.22-1a1.42,1.42,0,0,0-.14-.36A2.15,2.15,0,0,1,5.26,15a1.83,1.83,0,0,0-.18-.46,6.66,6.66,0,0,1-.31-.73c0-.06,0-.13-.13-.16a1.44,1.44,0,0,0,.15.47.15.15,0,0,1,0,.17l-.06-.06c-.07-.2-.15-.39-.21-.59a5.16,5.16,0,0,0-.31-.73.06.06,0,0,0-.07,0c0,.15,0,.3.09.45.08.34.18.67.27,1a.49.49,0,0,1,0,.12h0v0a.54.54,0,0,1,.1.33h0a.18.18,0,0,1,0,.2h0l.07,0s0,.06,0,.09c.15.42.28.85.44,1.26s.24.53.36.8a1.63,1.63,0,0,1,.11.31.58.58,0,0,1-.31-.36A7.26,7.26,0,0,1,5,16.27a1.16,1.16,0,0,1,0-.18,2.44,2.44,0,0,0-.13-.44c-.07-.21-.13-.42-.19-.64h0v-.2h0v0a.5.5,0,0,1-.1-.33h0a.78.78,0,0,1-.14-.29C4.24,13.76,4.1,13.36,4,13a2.33,2.33,0,0,1-.07-.25l-.12-.42-.25-.73c0-.05,0-.12-.11-.14a.14.14,0,0,0,0,.09c.09.27.19.53.27.8s.14.55.21.82l0,.1h0c.05.17.11.34.16.5v0s0,0,0,0,0,0,0,0a.59.59,0,0,1-.12-.48h0a.92.92,0,0,1-.24-.47c-.07-.26-.12-.52-.19-.77s-.11-.31-.17-.46,0,0-.06,0,0,0,0,.05c.06.21.13.42.19.63h0v.17c-.07-.06,0-.12,0-.17h0s-.08,0-.09,0l-.25-.68a1.93,1.93,0,0,1,.24-.13l.53-.19a3.61,3.61,0,0,0,.8-.32,2.56,2.56,0,0,1,.13.53c0,.17.08.35.12.52s.1.33.14.5a1.78,1.78,0,0,1,.11.53L5,12.64H5a2.17,2.17,0,0,0,.07.24c0,.09.07.17.11.26s.12.12.09.24c-.18-.15-.21-.37-.31-.54s-.18-.35-.26-.52c-.07,0-.07,0-.06.08a.27.27,0,0,0,0,.12,3,3,0,0,0,.23.59h0l.08.27H5v0a.12.12,0,0,1,0,.13H5a.14.14,0,0,1,.07.08H5v0l.13.18h0l0,.18h0s0,.09,0,.14h0a.08.08,0,0,1,.06.1h0s.05,0,.05.05h0v0h0v0l-.05-.05h0l-.06-.1h0V14h0v0c-.07,0,0-.12,0-.18h0s-.08,0-.09-.07a.76.76,0,0,0,0-.11v0H5L5,13.55H5v-.13h0a.2.2,0,0,1-.08-.27h0a.5.5,0,0,1-.23-.32c-.12-.28-.23-.57-.34-.86,0-.1-.06-.2-.08-.3l-.07-.22a.28.28,0,0,0,0,.22q.13.45.3.9c.23.58.44,1.17.66,1.75s.37,1,.6,1.43a1.7,1.7,0,0,1,.17.54,5.69,5.69,0,0,0,.27.89,1.69,1.69,0,0,1,.08.24A.21.21,0,0,1,6.14,17.59Zm-.36-2.41v0Zm.1.21,0,0h0v0a0,0,0,0,1,0,0h0v0h0Zm.58,2.27A3.07,3.07,0,0,0,6.22,17a1.17,1.17,0,0,1-.08-.38c0-.19,0-.39-.08-.58A2.41,2.41,0,0,0,6,15.71c.07,0,.07,0,.09.08.06.22.12.43.17.65s.12.55.19.82A.77.77,0,0,1,6.46,17.66Zm.25-.07c-.06-.14-.09-.24-.14-.35a4,4,0,0,1-.21-.84,3.24,3.24,0,0,0-.25-.72A.87.87,0,0,1,6,15.42c0-.06.1-.05.13,0a1.19,1.19,0,0,1,.11.26c.06.18.13.36.19.53l.14.5c0,.12.07.25.12.37A.61.61,0,0,1,6.71,17.59Zm.37.25A.54.54,0,0,1,7,18,.11.11,0,0,1,7,17.82a2.33,2.33,0,0,0,0-.87,3.69,3.69,0,0,0-.42-1.29,1.17,1.17,0,0,0-.3-.4,1.72,1.72,0,0,1-.41-.62l-.27-.55c-.07-.16-.12-.32-.2-.52a.36.36,0,0,1,.16.17c.07.17.15.34.21.52s.19.28.26.44H6s0,0,0,0H6v-.11c0,.05,0,.05,0,.11H6c.08,0,.16,0,.17.11a.82.82,0,0,0,.16.37c.07.11.13.24.2.36A4.16,4.16,0,0,1,7.07,17a3.76,3.76,0,0,1,0,.67A.77.77,0,0,1,7.08,17.84Zm.34,0,0,0a4,4,0,0,1-.16-1.14.21.21,0,0,1,.12.18,3.58,3.58,0,0,1,.11.87S7.43,17.83,7.42,17.86Zm.79-1.21c0-.14,0-.27,0-.41a4.42,4.42,0,0,0,.11-1.58c0-.27,0-.55,0-.82a3,3,0,0,0-.09-.72,1.6,1.6,0,0,1,0-.23,2.7,2.7,0,0,0,0-.28A3.87,3.87,0,0,1,8,11.93.4.4,0,0,0,8,11.67a.57.57,0,0,0,0,.33.66.66,0,0,1,0,.28s0,.05,0,.08A10.56,10.56,0,0,1,8,13.48a3,3,0,0,1,0,.67,6.5,6.5,0,0,0,0,1.08,5.9,5.9,0,0,1,0,.73c0,.41,0,.82-.06,1.23,0,.1,0,.21,0,.31a1.69,1.69,0,0,0-.06.63s0,0,0,.07l-.17,0a1.42,1.42,0,0,1,0-.58c0-.1,0-.21,0-.31A2.44,2.44,0,0,0,7.8,17a3,3,0,0,1,.06-.67,1,1,0,0,0,0-.25,7.12,7.12,0,0,0,0-.8.5.5,0,0,1,0-.21,2.24,2.24,0,0,0,0-.63,8.7,8.7,0,0,0,0-1.14,1.77,1.77,0,0,0,0-.2A9.87,9.87,0,0,1,7.68,12a.07.07,0,0,0,0,0c0-.09,0-.17,0-.25a2.54,2.54,0,0,1,0-.26s-.06.06-.06.08a11.8,11.8,0,0,1,0,1.33c0,.34,0,.67,0,1,0,.17,0,.34,0,.51a4.35,4.35,0,0,0,0,.72.26.26,0,0,1,0,.15s0,0-.07.06h0a.6.6,0,0,1,0,.35,7.36,7.36,0,0,0,0,1s0,.05,0,.09-.06,0-.06,0a1.46,1.46,0,0,1-.07-.19.61.61,0,0,1,0-.4,3.56,3.56,0,0,0,.11-.86h0c0-.27,0-.53,0-.8s0-.53-.08-.79a.83.83,0,0,0,0-.15,1.2,1.2,0,0,1,0-.2,4.83,4.83,0,0,0,0-.85c0-.25,0-.5,0-.74,0,0,0-.08,0-.12s-.08,0-.09.05,0,.22,0,.33,0,.48,0,.72a4.8,4.8,0,0,1,0,.85,1.69,1.69,0,0,0,0,.23c0,.12,0,.24,0,.36a10.55,10.55,0,0,0,.1,1.38,2,2,0,0,1,0,.49s0,0,0,.07a.23.23,0,0,1-.1-.17c0-.16,0-.32,0-.48s0-.42,0-.62a2.9,2.9,0,0,0-.09-.59A.91.91,0,0,1,7,14c0-.38,0-.75,0-1.13v-.31a1.32,1.32,0,0,1,.06-.48.85.85,0,0,0,0-.23v-1a2.11,2.11,0,0,0,0-.25L7,9.57a.25.25,0,0,0,0,.16c0,.21,0,.41,0,.62a3.23,3.23,0,0,1-.1.76,1.42,1.42,0,0,1-.06-.74,3.07,3.07,0,0,0,0-1,2.48,2.48,0,0,1,0-.72,1.22,1.22,0,0,0,0-.33c0-.08,0-.15,0-.23,0-.28,0-.55,0-.83,0,0,0,0,0-.06s.08,0,.08,0,0,.24,0,.36L7,7.75c0-.22,0-.42.07-.61a.09.09,0,0,1,.13.09v.26a1.41,1.41,0,0,0,0,.2.18.18,0,0,0,.09.08s.06,0,.06-.06a1.81,1.81,0,0,0,.06-.27.17.17,0,0,1,.06.16.28.28,0,0,0,.08.25s.07-.06.07-.09.06-.33.09-.5c0,0,0,0,0,.07s0,.28,0,.41a.57.57,0,0,0,0,.13.62.62,0,0,1,.07.19c0,.18,0,.37,0,.56s0,.19,0,.28.1,0,.11-.05a.19.19,0,0,0,0-.08,1.51,1.51,0,0,1,0-.56A4.09,4.09,0,0,0,8,7.6a1.25,1.25,0,0,1,0-.3,2.27,2.27,0,0,1,.08.49c0,.15.07.3.11.46l.28.06a1.41,1.41,0,0,1,0,.29,7.88,7.88,0,0,0,0,1.19c0,.22,0,.44,0,.67a6.39,6.39,0,0,0,.11,1.23c.07.4.13.81.2,1.22a.8.8,0,0,0,0,.15l.22.82c0,.11,0,.23.07.34h0a.88.88,0,0,1,.12.44s-.07,0-.07,0a1.18,1.18,0,0,1,0-.42h0c-.06,0-.08-.07-.09-.13a2,2,0,0,0-.14-.41.56.56,0,0,1,0-.12c0-.21-.1-.43-.17-.64a5.16,5.16,0,0,0,.08.79h0v0l0,0h0v0h0a.1.1,0,0,1,0,0,1.46,1.46,0,0,1-.07-.19,2.63,2.63,0,0,1-.07-.84l.08.09a5.16,5.16,0,0,0-.06-.58A.14.14,0,0,0,8.53,12c-.15-.12-.13-.32-.22-.47a.09.09,0,0,1,0-.1c0-.1,0-.18-.06-.28a.57.57,0,0,0,0,.12c0,.58,0,1.15.09,1.72,0,.1,0,.19.05.28a4,4,0,0,1,0,.59,6.41,6.41,0,0,0,.06,1.24,1.24,1.24,0,0,1,0,.43.55.55,0,0,0,0,.4s0,.06,0,.09a2.75,2.75,0,0,1-.2.5.8.8,0,0,1-.08.16A0,0,0,0,1,8.21,16.65Zm.61-1.82c0-.22,0-.43,0-.65,0,0,0,0,0-.08h0c0,.11,0,.23.05.35l.06.46a1,1,0,0,1-.19.78c0-.06,0-.09,0-.11A1.64,1.64,0,0,0,8.82,14.83Zm-.31,2.68c-.12.11-.1.25-.11.39a2.17,2.17,0,0,1,0,.25.3.3,0,0,1-.08.07s0-.06,0-.08a3.2,3.2,0,0,1,.35-1.49l.63-1.3s0-.07.09-.07h0a1,1,0,0,1,.17-.45h0a.42.42,0,0,1,.14-.34h0l0-.13h0c0-.07,0-.14.1-.17h0a.58.58,0,0,1,0-.14c.12-.3.26-.58.37-.88s.15-.51.23-.76c.16-.54.27-1.09.41-1.63l.24-.86a1.12,1.12,0,0,1,.08-.18c0,.08,0,.12,0,.14a2.39,2.39,0,0,0-.18.79c0,.33-.15.64-.22,1a4.31,4.31,0,0,1-.19.61,2.52,2.52,0,0,0-.13.47.53.53,0,0,1,0,.12A8.6,8.6,0,0,1,10,14s-.05.13-.12.15h0a.18.18,0,0,1-.1.17v0l0,.13h0a.85.85,0,0,1-.14.34v0h0a2.86,2.86,0,0,1-.07.28.29.29,0,0,1-.14.17h0a.45.45,0,0,1,0,.12c-.08.18-.16.37-.25.54-.16.32-.27.65-.4,1-.05.15-.07.31-.11.47S8.54,17.49,8.51,17.51Zm1.46-3h0v0Zm-1.2,2.8a1.79,1.79,0,0,0-.12.69.43.43,0,0,1,0,.1,1.39,1.39,0,0,1,0-.49,1.74,1.74,0,0,1,.11-.45,7.72,7.72,0,0,1,.41-.93,3,3,0,0,1,.24-.43,6.74,6.74,0,0,0,.34-.72l.15-.32a2.82,2.82,0,0,1-.37,1A7,7,0,0,0,8.77,17.32Zm.37-.11a1.06,1.06,0,0,0-.09.39c0,.15,0,.29-.05.44s0,0,0,.07a.27.27,0,0,1-.06-.22,3.16,3.16,0,0,1,.18-1,3.44,3.44,0,0,1,.35-.69l.06-.09c.18-.31.37-.61.54-.93a3.66,3.66,0,0,0,.22-.58,3.45,3.45,0,0,1,.18-.51,5.77,5.77,0,0,0,.38-1.41,1.74,1.74,0,0,1,.11-.39c.07-.17.12-.36.18-.54h0c0,.08,0,.17,0,.25l-.15.7a4.42,4.42,0,0,1-.14.63c-.1.24-.14.51-.25.75s-.29.76-.44,1.13-.47.94-.7,1.4Zm.27.71h0v-.15a3.82,3.82,0,0,1,.23-1,1.81,1.81,0,0,1,.2-.5,2.22,2.22,0,0,1,.42-.84,2.2,2.2,0,0,0,.36-1,4.83,4.83,0,0,1,.22-.74A6.57,6.57,0,0,0,11,13c.05-.32.15-.62.23-.93a.36.36,0,0,0,0-.27.39.39,0,0,1,0-.28.74.74,0,0,0,.08-.42s0-.08,0-.12.07-.3.11-.45a2.17,2.17,0,0,1,.32-.69.08.08,0,0,1,.12,0,.13.13,0,0,1,0,.09.29.29,0,0,1,0,.1l-.13.36c-.08.21-.15.42-.22.64a1.33,1.33,0,0,0-.05.19,2.84,2.84,0,0,0-.06.31,5.76,5.76,0,0,1-.15.91c-.08.29-.17.57-.26.86a.85.85,0,0,0,0,.17,2.9,2.9,0,0,1-.2.82c-.09.25-.16.51-.24.76,0,0,0,.07,0,.1-.13.29-.25.59-.38.88s-.27.57-.41.86a5.6,5.6,0,0,0-.3.87A1.87,1.87,0,0,0,9.41,17.92Zm.88.32s0,.08-.1.07a.53.53,0,0,1,0-.37,4,4,0,0,1,.16-.49c.12-.36.24-.71.38-1.07s.17-.44.26-.67a.85.85,0,0,0,.06-.17c.06-.26.11-.52.16-.78a2.2,2.2,0,0,0,0-.36l.09-.74a.67.67,0,0,1,.07-.24.89.89,0,0,0,.08-.35c0-.06,0-.12,0-.18a1.77,1.77,0,0,0,0-.2c0-.1,0-.19,0-.28s-.08,0-.08.07a1.6,1.6,0,0,1,0,.23c-.11.35-.14.72-.22,1.08l-.09.35c-.07.25-.13.5-.21.75a15.77,15.77,0,0,1-.66,1.73,3.64,3.64,0,0,0-.14.47l-.27,1.07c0,.11-.07.11-.2,0a2,2,0,0,0,.09-.26l.33-1.21a3.88,3.88,0,0,1,.14-.45c.16-.36.3-.73.44-1.09,0-.07,0-.14.06-.2a.48.48,0,0,1,0-.17A4.76,4.76,0,0,0,11.1,14a1.74,1.74,0,0,0,.05-.39c0-.09,0-.18,0-.28a4.46,4.46,0,0,1,.17-.7A4.52,4.52,0,0,0,11.5,12c.05-.2.06-.41.1-.61s.1-.4.15-.6a.14.14,0,0,1,0-.07c.06-.15.19-.25.21-.41a2.85,2.85,0,0,1,.17-.42l.17.06c-.07.21-.22.38-.28.58a2.77,2.77,0,0,0-.19.65c.05-.05.08-.06.09-.08a1.52,1.52,0,0,0,.06-.2s0-.07,0-.09c.15-.23.27-.48.4-.72,0,0,0,0,.07,0s0,.06,0,.08a3.15,3.15,0,0,0-.3.71.61.61,0,0,1-.09.18.2.2,0,0,0,0,0h.07a3.49,3.49,0,0,0,.2-.44c.06-.19.18-.34.25-.52.07,0,.06.06,0,.09a2.09,2.09,0,0,0-.18.55c.1-.07.13-.16.19-.21a.88.88,0,0,1,.19-.12s0,.08,0,.11a6,6,0,0,0-.21.93c0,.27,0,.55-.06.82a.18.18,0,0,0,.11.2l.05-.17s0,0,0,0a.7.7,0,0,0,.29.49,1.21,1.21,0,0,1,.16.16.91.91,0,0,0,.45.37l.06,0a.32.32,0,0,1,0,.3.18.18,0,0,0,0,.27s0,0,.06.07c-.09.21-.18.42-.28.63l-.16.29a.54.54,0,0,1-.06.11,4.19,4.19,0,0,0-.49.7l-.1.1a.59.59,0,0,1,0-.32c0-.13,0-.26.07-.38a4.31,4.31,0,0,0,0-.88c0-.32,0-.63,0-.95a2.28,2.28,0,0,0-.07-.69l0-.07c-.06,0-.06.06-.06.1s0,.32,0,.49c0,.49,0,1,0,1.47a6.31,6.31,0,0,1-.05,1c0,.21-.08.41-.12.61a.46.46,0,0,1-.19.26.41.41,0,0,1,0-.12,3.14,3.14,0,0,0,.12-1,1.61,1.61,0,0,1,.06-.49.77.77,0,0,0,0-.3c0-.18,0-.36-.06-.54s0-.36,0-.54,0-.32.06-.48a1.06,1.06,0,0,0,0-.31,1.42,1.42,0,0,1,.06-.46c0-.21.08-.42.11-.63a1.87,1.87,0,0,1,.12-.57.29.29,0,0,0,0-.13c-.06,0-.06,0-.07.05a6.46,6.46,0,0,0-.24.86.93.93,0,0,0,0,.23,1.34,1.34,0,0,1-.1.45.56.56,0,0,0,0,.23,2.09,2.09,0,0,1,0,.25l-.09.69a2.26,2.26,0,0,0,0,.26c0,.42,0,.84-.08,1.26a9.15,9.15,0,0,1-.23,1.16,2.34,2.34,0,0,0-.09.38,1,1,0,0,1-.29.61,1.26,1.26,0,0,0-.16.19,1.82,1.82,0,0,1,0-.2,3.42,3.42,0,0,1,.13-.34,1.42,1.42,0,0,1,.08-.18c0-.09.08-.17.11-.26A6.76,6.76,0,0,0,12,14.78a1.2,1.2,0,0,1,.05-.33,3.2,3.2,0,0,0,.07-.87,6,6,0,0,1,0-.85c0-.08,0-.17,0-.25a1.62,1.62,0,0,1,.11-.53.72.72,0,0,0,0-.36s-.07,0-.08.05l0,.12c0,.22-.12.44-.16.65s-.06.46-.07.69,0,.64-.05,1a.17.17,0,0,1,0,.07,6.5,6.5,0,0,1-.25.86v-.94a2.48,2.48,0,0,1,.16-.81,2,2,0,0,0,.1-.68A1.5,1.5,0,0,1,12,12a.34.34,0,0,0,0-.26s0,0-.06,0a1.09,1.09,0,0,0,0,.18,1.6,1.6,0,0,1,0,.23c-.11.41-.12.85-.25,1.26a2.44,2.44,0,0,0-.11.6,2.38,2.38,0,0,1-.05.26c0,.07,0,.15,0,.22a4.58,4.58,0,0,1-.21,1c-.09.35-.17.7-.26,1.05a5.54,5.54,0,0,1-.33,1C10.47,17.76,10.39,18,10.29,18.24Zm3.47-3.43a1.43,1.43,0,0,1-.55.84,2.68,2.68,0,0,1,.24-.48C13.63,15.11,13.65,14.92,13.76,14.81Zm-.65,1a.72.72,0,0,1-.27.38h0c0,.11-.12.13-.17.21a.28.28,0,0,1,.17-.21h0A1,1,0,0,1,13.11,15.77Zm-1,1.28a2.37,2.37,0,0,1-.35.42A.7.7,0,0,1,12.11,17.05Zm-.5-1.82v0ZM10.88,18a2.87,2.87,0,0,0-.09.37h-.17c.07-.19.13-.37.18-.55s.14-.48.23-.71c.2-.49.29-1,.46-1.52l.07-.15c-.07.39-.07.79-.17,1.17,0,.13-.08.27-.13.39C11.14,17.31,11,17.64,10.88,18Zm.61-.09-.09.25c0,.07,0,.15-.05.25h-.16a3.2,3.2,0,0,1,.37-.71C11.59,17.77,11.51,17.82,11.49,17.88Zm.46.27a1,1,0,0,1,0,.16h-.22a4.2,4.2,0,0,1,.26-.65c.16-.26.32-.51.46-.77a1.14,1.14,0,0,1,.26-.32c.08-.07.14-.15.21-.22l.55-.62h.06v0h0a2.61,2.61,0,0,1-.19.27c-.31.42-.68.79-1,1.22A2.12,2.12,0,0,0,12,18.15Zm.61.06,0,0-.17,0,0-.06a3,3,0,0,1,.32-.79c.11-.22.22-.44.34-.66a.87.87,0,0,1,.26-.35.57.57,0,0,0,.25-.39l.26-.22c.05,0,0,.06,0,.09l-.41.54A3.77,3.77,0,0,0,12.61,18,1.46,1.46,0,0,1,12.56,18.21Zm1.74-.91v0Zm.06-.73a5.82,5.82,0,0,0-.27.64,1.88,1.88,0,0,0-.05.33c0,.11,0,.21,0,.31a.66.66,0,0,1-.13.41l-.21,0s0-.06,0-.08a3.52,3.52,0,0,1,.16-.49c.16-.36.28-.73.41-1.11a3.34,3.34,0,0,1,.38-.84A3.61,3.61,0,0,1,14.36,16.57Zm.46-2.13a1.12,1.12,0,0,0-.24.6l.15.06h0a.1.1,0,0,1,0-.12l0,0s0,0,0,0,0,.08,0,.12h0l-.07.11a6.36,6.36,0,0,1-.49,1.1c-.05.08-.08.18-.12.26-.12.26-.25.51-.37.77a6.73,6.73,0,0,0-.35.92l-.11,0c.16-.53.35-1,.55-1.54,0-.05.05-.09.07-.13.15-.22.25-.45.39-.67a5.16,5.16,0,0,0,.32-.67.22.22,0,0,0,0-.09s-.06,0-.07,0l-.53.94-.34.51A3.45,3.45,0,0,0,13.05,18a.36.36,0,0,1-.1.25h-.19a2.38,2.38,0,0,1,.17-.71,8.37,8.37,0,0,1,.44-.84,4.72,4.72,0,0,0,.37-.61.1.1,0,0,1,0-.06.78.78,0,0,0,.27-.37l.18-.31A.37.37,0,0,0,14.3,15c-.13.08-.13.23-.26.32s0-.07,0-.1c.15-.27.22-.57.37-.84a.61.61,0,0,1,.07-.14h.09s0,0,0,.06a.22.22,0,0,0,0,.11l.15-.17a.92.92,0,0,1,.27.16h0c-.06,0,0,.1-.05.16s-.08.14-.16.18S14.88,14.54,14.82,14.44Zm.08.56v0l0,.13h0l0,0v0h0l0-.14h0a.26.26,0,0,1,0-.24l.1-.2h0l.05-.16.16.08Zm.57-.88c0,.06-.06.07-.11.08a.36.36,0,0,1-.25,0L14.6,14a.18.18,0,0,1,.32-.13c.07.27.08.22.27.07l.21.07C15.46,14,15.48,14.05,15.47,14.12Zm.61-.71a.37.37,0,0,0-.16.3l-.05.1a2.72,2.72,0,0,1-.59-.19c.07-.19.1-.39.33-.46a1.27,1.27,0,0,1-.06.39c.12.11.17.12.26,0a.81.81,0,0,1,.33-.3C16.12,13.32,16.11,13.39,16.08,13.41Zm.16-.58s0-.06,0-.08,0-.26,0-.39a.37.37,0,0,1,0-.15,5.82,5.82,0,0,0,.14-.6.62.62,0,0,0,0-.33.27.27,0,0,1,.07-.26s.05,0,.09,0v.48l.06,0,.05,0c0-.1-.05-.22.05-.31a1.32,1.32,0,0,1,.08.76,2.44,2.44,0,0,0,0,.54,1.06,1.06,0,0,1-.1.7s0,0,0,0a3.29,3.29,0,0,0,0-.77.6.6,0,0,1,0-.23.34.34,0,0,0,0-.2.41.41,0,0,1,0-.33.15.15,0,0,0-.12.16,1.34,1.34,0,0,1-.09.53,3.25,3.25,0,0,0-.08.43Zm.08,1.06.27-.27s.05.07.05.1S16.59,13.92,16.32,13.89Zm.67,0a.36.36,0,0,1-.35,0,3.23,3.23,0,0,0,.26-.23,2.1,2.1,0,0,0,.2-.27C17.16,13.59,17,13.7,17,13.87Zm.41-.71c-.1-.27-.21-.51-.3-.77A2,2,0,0,1,17,12a.76.76,0,0,1,.07-.19,2.83,2.83,0,0,1,.18.78.29.29,0,0,0,.08.19.58.58,0,0,1,.16.31S17.48,13.14,17.4,13.16ZM9.65,8Zm0,0V8ZM7.33,9.48a2.63,2.63,0,0,1,0,.84,1.2,1.2,0,0,0,0,.33.17.17,0,0,0,0,.07c0,.15-.06.29,0,.43a.75.75,0,0,1,0,.42c-.09-.06-.08-.13-.09-.2s0-.42,0-.64V10.4c0-.26,0-.51,0-.77a.77.77,0,0,1,0-.15.1.1,0,0,1,0,0ZM8,11.26v.22C7.87,11.4,7.9,11.33,8,11.26Zm-1-3c.09.09,0,.18,0,.27Zm1.44,3.2v-.2c.08.21.08.21,0,.27S8.4,11.51,8.4,11.49ZM7.26,8.38a.12.12,0,0,1,0-.08s0,0,0,0l.06.08Zm0,.66s0,0,0,0l0,0,0,0Zm.9-.65a.51.51,0,0,1,0,.1v0l0,0A.3.3,0,0,0,8.21,8.39Zm.15.22,0,0,0,0s0,0,0,.06Zm0-.16,0,0h0v0Zm-.77,2.87v0s0,0,0,0Zm.32-2.27h0s0,0,0,0h0Zm.56,2.65,0,0h0V11.7Zm3.18.3a1.15,1.15,0,0,1,.16-.72c0,.07,0,.1,0,.12A1.61,1.61,0,0,1,11.65,12Zm.41-.63,0,0,.05,0,0,0Zm.69-.7v0h0v0Zm-8.21.73a.44.44,0,0,1,0-.3s.06.05.07.08c0,.21.06.42.11.63s.11.4.17.6a.07.07,0,0,1-.09-.06C4.71,12,4.62,11.72,4.54,11.4Zm.07,1.93s0,.05,0,.12a6.65,6.65,0,0,1-.37-.85c0-.07-.07-.14,0-.22h0ZM4,12.28a.51.51,0,0,1,.14.35A.51.51,0,0,1,4,12.28Zm-.25-.74c.08.09.12.15.07.25Zm.17.49.06.07,0,0-.05-.07Zm.68.06v0a0,0,0,0,0,0,0h0Zm-.4.77Zm0,0v0l0,0Zm.73-.41,0,0v0l0,0Zm0,0h0ZM9.25,2.1c0-.17-.13-.34-.07-.55.11.08.1.18.12.26A.25.25,0,0,1,9.25,2.1ZM9.35,1s0,0,0,0h0s0,0,0,0ZM14.5,14.66h0Z"/></g></g></g></svg>
