<svg fill="#a7ff83" xmlns="http://www.w3.org/2000/svg" viewBox="0 0 104.49 39.16"><defs><style>.cls-1{isolation:isolate;}.cls-2{fill-rule:evenodd;mix-blend-mode:multiply;}</style></defs><g class="cls-1"><g id="Camada_2" data-name="Camada 2"><g id="Camada_1-2" data-name="Camada 1"><path class="cls-2" d="M10.35,6.7c.18.08.18.08.13.28C10.24,6.9,10.23,6.88,10.35,6.7Zm0-.71a.56.56,0,0,0,.17.09.08.08,0,0,0,.1-.08c0-.11-.13-.2-.25-.16A.09.09,0,0,0,10.36,6Zm-.52,0,.05,0,.09,0,0,0a.14.14,0,0,0,0-.17.11.11,0,0,0-.13,0c-.1,0-.19.08-.19.14S9.78,5.9,9.84,5.94Zm2.68,1.71s-.09,0-.1.09,0,.09.11.1a.22.22,0,0,0,.06-.07A.1.1,0,0,0,12.52,7.65ZM10.59,5.54s0,0,0,0a.13.13,0,0,0-.1-.14.15.15,0,0,0-.15.06v0C10.39,5.51,10.53,5.58,10.59,5.54Zm.34.46s0,0,0,.07a.22.22,0,0,0,.2.17s.05,0,.07,0v0A.2.2,0,0,0,10.93,6Zm.3,0s0,.09.1.07,0,0,.08-.08-.08,0-.12,0S11.24,6,11.23,6ZM12,4.74l.09,0s.05,0,.06,0,.08,0,.09-.07a.14.14,0,0,0,0-.11.31.31,0,0,0-.16-.06.11.11,0,0,0-.13.08A.11.11,0,0,0,12,4.74Zm-.52.92a.14.14,0,0,0,.06-.16,1.21,1.21,0,0,0-.05-.14.13.13,0,0,0-.23,0,2.06,2.06,0,0,0-.11.18l.17.13A.12.12,0,0,0,11.51,5.66ZM11.4,5a.11.11,0,0,0,.13,0,.11.11,0,0,0,0-.14.25.25,0,0,0-.2-.08l-.07.07s0,.07,0,.09A.38.38,0,0,0,11.4,5Zm1.22,0L12.7,5V5a.17.17,0,0,0-.27-.06s0,.05,0,.07A.21.21,0,0,0,12.62,5.07ZM12,7.14a.21.21,0,0,0-.13.16s0,0,0,.07a.17.17,0,0,0,.19,0,.44.44,0,0,0,.09-.11A.13.13,0,0,0,12,7.14Zm-.2-1.81a.12.12,0,0,0,.1-.06A.22.22,0,0,0,11.87,5c-.08,0-.13,0-.19.07l-.06.08A.19.19,0,0,0,11.82,5.33Zm.91-.54a.16.16,0,0,0,.11,0,.1.1,0,0,0,0-.09,1.34,1.34,0,0,0-.11-.14.37.37,0,0,0-.14.07.1.1,0,0,0,0,.09A.18.18,0,0,0,12.73,4.79Zm-1.67,1a.13.13,0,0,0-.15-.15s-.07,0-.08.08a.13.13,0,0,0,.14.11A.19.19,0,0,0,11.06,5.79ZM13,5.3a.12.12,0,0,0,.16-.12c0-.09-.07-.18-.11-.18s-.12.06-.16.11,0,0,0,.09A.64.64,0,0,0,13,5.3Zm-2.08,0a.14.14,0,0,0,.09,0l.08,0s0-.08,0-.1a.11.11,0,0,0-.14-.07s-.09,0-.08.07A.2.2,0,0,0,10.91,5.34Zm-.34,1.94a.2.2,0,0,0-.16.17.14.14,0,0,0,.1.15h.05a.26.26,0,0,0,.17-.2v0A.18.18,0,0,0,10.57,7.28ZM10.86,7a.11.11,0,0,0-.1.09.1.1,0,0,0,.11.08s.06,0,.08,0A.1.1,0,0,0,10.86,7Zm.07.41a.14.14,0,0,0,0,.07.14.14,0,0,0,.18.09s0,0,.07,0,0-.06,0-.08A.14.14,0,0,0,10.93,7.38Zm1.18-.52A.75.75,0,0,0,12,6.74a.09.09,0,0,0-.15,0,1.11,1.11,0,0,0-.12.27s0,.08.07.08A.66.66,0,0,1,12.11,6.86Zm-.87,0a.1.1,0,0,0-.11.1c0,.06.07.11.17.11A.22.22,0,0,0,11.37,7C11.38,7,11.32,6.9,11.24,6.9Zm.36.19c-.07,0-.11,0-.16,0s0,.12,0,.15l.12,0,0-.09C11.66,7.16,11.65,7.11,11.6,7.09Zm-.19-.55a.83.83,0,0,0-.08-.18l-.11,0s-.05,0-.06,0a.25.25,0,0,0,0,.12.2.2,0,0,0,.21.08A.15.15,0,0,0,11.41,6.54Zm.12,1a.21.21,0,0,0-.11.21.21.21,0,0,0,.18.07C11.67,7.67,11.67,7.67,11.53,7.55Zm-.73-.66a.11.11,0,0,0,.07-.19,1.49,1.49,0,0,0-.18-.17c0-.14,0-.21-.1-.26a.14.14,0,0,0-.16,0,.12.12,0,0,0,0,.14l0,0c.1,0,.12.11.14.19a.8.8,0,0,1,0,.15A.1.1,0,0,0,10.8,6.89Zm-.7.24a.08.08,0,0,0,0,.14.42.42,0,0,0,.14.09c.06,0,.12,0,.12-.09A.16.16,0,0,0,10.1,7.13Zm1.68-.91A2.17,2.17,0,0,0,11.89,6c0-.09-.05-.14-.1-.12a.41.41,0,0,0-.22.19.1.1,0,0,0,0,.15C11.66,6.26,11.75,6.27,11.78,6.22Zm-.14.23a.15.15,0,0,0-.14.09c0,.06.06.14.14.14a.11.11,0,0,0,.12-.1A.12.12,0,0,0,11.64,6.45Zm.65-.06a.22.22,0,0,0-.22.09.08.08,0,0,0,0,.07.18.18,0,0,0,.17.07c.06,0,.11-.06.12-.16S12.32,6.4,12.29,6.39Zm-2.19.15s.09,0,.09-.07A.24.24,0,0,0,10,6.16a1.74,1.74,0,0,0-.11.18A.16.16,0,0,0,10.1,6.54Zm-.5-.17h.09a.14.14,0,0,0,.07-.06.12.12,0,0,0,0-.09.11.11,0,0,0-.15,0s-.06.07,0,.11S9.59,6.36,9.6,6.37Zm0,.23-.09,0a.07.07,0,0,0,0,.12.13.13,0,0,0,.2,0,.5.5,0,0,0,.05-.15Zm8.13-1.46a.13.13,0,0,0,.23,0A.34.34,0,0,0,18,5a.2.2,0,0,0-.17-.19l-.06,0A.26.26,0,0,0,17.72,5.14Zm.67,1a.17.17,0,0,0-.1.13.12.12,0,0,0,.08.12l.11,0a.38.38,0,0,0,.13-.06s0-.06,0-.08A.24.24,0,0,0,18.39,6.17Zm.13.56a.1.1,0,0,0,0-.09.2.2,0,0,0-.1-.08.09.09,0,0,0-.12,0,.11.11,0,0,0,0,.13l.05.06a.7.7,0,0,0,.14,0A.11.11,0,0,0,18.52,6.73Zm0-1a.36.36,0,0,0-.1.11.1.1,0,0,0,.06.14l.17,0,.06-.1a.12.12,0,0,0,0-.14A.14.14,0,0,0,18.51,5.77Zm.59.8A.67.67,0,0,0,19,6.43a.16.16,0,0,0-.24,0,.1.1,0,0,0,0,.17A.21.21,0,0,0,19.1,6.57Zm.1-.47a.14.14,0,0,0,.17,0,.24.24,0,0,0,.08-.33,1.12,1.12,0,0,1-.17-.21.09.09,0,0,0-.15,0,.09.09,0,0,0,0,.15.63.63,0,0,0,.12.07.55.55,0,0,0-.08.18A.15.15,0,0,0,19.2,6.1Zm-.52.83,0,0a.15.15,0,0,0-.13-.06.18.18,0,0,0-.13.11.11.11,0,0,0,0,.13.18.18,0,0,0,.12,0l.32,0s.06-.05.07-.08a.4.4,0,0,0,0-.11C18.83,6.82,18.77,6.9,18.68,6.93Zm0-1.43a.17.17,0,0,0,.2.11A.29.29,0,0,0,19,5.54a.19.19,0,0,0-.15-.19H18.8C18.74,5.39,18.7,5.45,18.72,5.5Zm.21-.34s.08,0,.1-.08,0-.16-.11-.17-.14,0-.16.12,0,.09.11.12Zm-.29.89h0Zm0-1.58a.12.12,0,0,0-.17,0s0,.09,0,.12a.16.16,0,0,0,.21,0s0,0,0-.06Zm.21,1.71A.15.15,0,0,0,19,6.11S19,6,18.93,6s-.14-.07-.24,0l-.05,0C18.7,6.11,18.75,6.2,18.86,6.18Zm-.45-1.07-.09.06q-.11.11,0,.18l.09,0a.1.1,0,0,0,.13,0,.15.15,0,0,0,0-.11Zm2.45.71a.12.12,0,0,0-.16,0,.12.12,0,0,1-.16,0,.11.11,0,0,0-.07,0,.2.2,0,0,0-.21.12c0,.06,0,.13.14.16l.1,0c.08-.07.2,0,.31,0S20.94,6,21,6,20.91,5.86,20.86,5.82Zm-.48.42a.14.14,0,0,0-.15.13.12.12,0,0,0,.1.1.16.16,0,0,0,.19-.08C20.54,6.33,20.46,6.25,20.38,6.24Zm-1.3.57a.15.15,0,0,0,0,.08.12.12,0,0,0,.09.11.12.12,0,0,0,.14,0s0,0,0,0A.15.15,0,0,0,19.08,6.81ZM21,5.1l.07,0c.09,0,.16,0,.17-.06s0-.09,0-.13l-.05-.06a.14.14,0,0,0-.14,0,.17.17,0,0,0-.1.13C20.89,5,20.93,5.07,21,5.1Zm.36.05a.11.11,0,0,0,0,.07.18.18,0,0,0,0,.1.27.27,0,0,0,.21.07.1.1,0,0,0,.07-.12l-.13-.2.1-.12c.08-.09,0-.23-.12-.25s-.13,0-.16.14S21.43,5,21.34,5.15Zm-1.5.18a1.17,1.17,0,0,0,.22,0l.08.1a.2.2,0,0,0,.2,0,.1.1,0,0,0,.06-.16.35.35,0,0,0-.13-.11s-.09,0-.16,0A1.85,1.85,0,0,0,20,5.09a.14.14,0,0,0-.17,0,.16.16,0,0,0-.07.13A.16.16,0,0,0,19.84,5.33Zm-.14.47a.13.13,0,0,0,.07.09.64.64,0,0,0,.21,0,.73.73,0,0,0-.07-.17.14.14,0,0,0-.11-.05A.13.13,0,0,0,19.7,5.8Zm.28.37h0l-.14,0s0-.07,0-.1l0-.06a.2.2,0,0,0-.23.07.1.1,0,0,0,0,.14l.18.07c0,.08,0,.16.09.19s.06.07.06.13a.19.19,0,0,0,0,.08c.09,0,.16,0,.19-.06s-.07-.11-.11-.18a.18.18,0,0,0,0-.26h0Zm-.38.4c-.1-.05-.15-.14-.22-.2a.11.11,0,0,0-.16,0,.93.93,0,0,0,0,.1c.08.08.14.15.21.21a.15.15,0,0,0,.18,0C19.63,6.71,19.66,6.6,19.6,6.57ZM20.1,6S20,6,20,6s0,.09,0,.13a.58.58,0,0,0,.19,0s0-.07,0-.08A.28.28,0,0,0,20.1,6ZM21,4Zm-3.23,3a.14.14,0,0,0-.2,0s0,.09,0,.15l.08.06-.05.17s.06,0,.09,0,.15,0,.12-.11-.05-.1,0-.16S17.8,7.14,17.72,7.08Zm0-.4a.08.08,0,0,0-.11,0,.24.24,0,0,0,0,.14s.07.08.13.08.12,0,.16-.12ZM14.93,4.74a.16.16,0,0,0-.11.1c0,.07,0,.11.1.13A.15.15,0,0,0,15,5s.06,0,.09-.08a.69.69,0,0,1,0-.1A.15.15,0,0,0,14.93,4.74Zm5.86-.41s0,.1-.06.13-.1.06-.14.1a.1.1,0,0,0,0,.09.16.16,0,0,0,.16.06c.05,0,.05-.06.05-.1a.14.14,0,0,0,0-.07c.13.07.26.12.39,0l-.07-.22c0-.05.09-.08.11-.12a.12.12,0,0,0-.1-.17H21V4.2A.84.84,0,0,0,20.79,4.33Zm-7.49.2s.08,0,.1,0a.11.11,0,0,0,0-.1.19.19,0,0,0-.14-.13.19.19,0,0,0-.18.1C13.19,4.5,13.21,4.53,13.3,4.53Zm8.21-.31-.1,0s-.07.06-.05.1a.13.13,0,0,0,.06.1.25.25,0,0,0,.25,0,1.27,1.27,0,0,0-.06-.18S21.54,4.23,21.51,4.22Zm-5.31.49a.57.57,0,0,0-.13-.08.15.15,0,0,0-.17.08s0,.11.1.15a.17.17,0,0,0,.17,0s0,0,.07-.07S16.22,4.72,16.2,4.71Zm5.47-.26h0Zm-1.11.76s0,.08,0,.11a.34.34,0,0,0,.12.09.27.27,0,0,1,.11.1.36.36,0,0,0,.11.1.17.17,0,0,0,.1,0,.42.42,0,0,1,.27,0c.08,0,.13,0,.15,0a.13.13,0,0,0-.07-.15.14.14,0,0,0-.11,0s-.07.05-.12.08l0-.06a.36.36,0,0,0-.19-.11c-.07,0-.11-.12-.17-.16S20.6,5.17,20.56,5.21ZM21,4Zm-4.27.68a.94.94,0,0,0-.09-.12.29.29,0,0,0-.22.11.09.09,0,0,0,0,.12.25.25,0,0,0,.18.08A.14.14,0,0,0,16.68,4.72ZM18.1,6.06a.11.11,0,0,0,0,.08.07.07,0,0,0,.1,0,.1.1,0,0,0,.05-.08s0-.07,0-.15S18.12,6,18.1,6.06Zm.19.69h0Zm-.3.18c-.06,0-.13.09-.13.16A.14.14,0,0,0,18,7.2a.11.11,0,0,0,.11-.11A.15.15,0,0,0,18,6.93Zm.07-.45a.14.14,0,0,0-.12.11s0,.09.09.1a.13.13,0,0,0,.14-.08A.16.16,0,0,0,18.06,6.48Zm.14.27-.05,0s0,0,0,0h.06a.2.2,0,0,0,.06-.07ZM18,5.5a.19.19,0,0,0,.18-.07s0-.09-.07-.13a.12.12,0,0,0-.14,0,.14.14,0,0,0-.08.14A.12.12,0,0,0,18,5.5ZM16.73,5a.13.13,0,0,0-.14.08.25.25,0,0,0,0,.11.49.49,0,0,0,.13.06c.1,0,.14-.07.11-.14A.2.2,0,0,0,16.73,5Zm.33-.15,0,0A.14.14,0,0,0,17,5a.17.17,0,0,0,.24,0,.08.08,0,0,0,0,0A.18.18,0,0,0,17.06,4.83Zm1.07,1.06a.5.5,0,0,0,.07-.08.16.16,0,0,0-.12-.16.15.15,0,0,0-.17.08.15.15,0,0,0,.22.16Zm-.66-.8c-.08,0-.15,0-.15.1a.06.06,0,0,0,0,.07l.08.06c.11,0,.18-.06.18-.13A.16.16,0,0,0,17.47,5.09ZM15.62,5c-.07,0-.14.08-.12.13a.19.19,0,0,0,.24.1.07.07,0,0,0,.06-.09A.18.18,0,0,0,15.62,5Zm4.76-.43c0-.08-.15-.09-.24,0s-.05.12,0,.2,0,0,0,0a.29.29,0,0,1,.14.17.22.22,0,0,0,.29.1s0,0,.07-.07-.05-.11-.09-.14A.59.59,0,0,1,20.38,4.52Zm-6-.33a.15.15,0,0,0,.15-.14.13.13,0,0,0-.14-.13c-.1,0-.19.05-.19.12A.17.17,0,0,0,14.36,4.19Zm0,.75a.15.15,0,0,0,.1-.18s0,0-.06-.08l-.2.07a.12.12,0,0,0,0,.09A.16.16,0,0,0,14.34,4.94ZM12.13,6.23a.11.11,0,0,0,.13-.1A.15.15,0,0,0,12.11,6C12,6,12,6,12,6.11S12.05,6.23,12.13,6.23ZM13,5.76a.13.13,0,0,0-.1.15.17.17,0,0,0,.26,0,.08.08,0,0,0,0,0A.18.18,0,0,0,13,5.76Zm2.42-1.61a.16.16,0,0,0,.19-.07.23.23,0,0,0,0-.3c-.23.06-.23.06-.33.23C15.4,4.14,15.4,4.14,15.46,4.15Zm-.69.44a.12.12,0,0,0,.15-.1.57.57,0,0,0,0-.13.09.09,0,0,0-.12-.05.28.28,0,0,0-.17.17l.08.08Zm-2.8,1a.14.14,0,0,0-.13-.06.18.18,0,0,0-.12.13.24.24,0,0,0,.15.11A.14.14,0,0,0,12,5.73.09.09,0,0,0,12,5.62Zm3.34-.78a.17.17,0,0,0,.1-.07.14.14,0,0,0,0-.09.24.24,0,0,0-.16-.12c-.08,0-.13,0-.18.12A.28.28,0,0,0,15.31,4.84Zm-.52-.7.12,0s.07,0,.08,0,.1-.18,0-.29a.41.41,0,0,0-.27.11C14.67,4,14.69,4.1,14.79,4.14ZM12.7,5.86s.07-.08.05-.11a.29.29,0,0,0-.18-.12.1.1,0,0,0-.11.1A.2.2,0,0,0,12.7,5.86Zm1.15-.62s0,0,0,.06a.35.35,0,0,0,.13.08c.06,0,.12,0,.13-.12s0-.07-.09-.08A.14.14,0,0,0,13.85,5.24ZM13.76,5c.05,0,.08-.06.09-.16a.31.31,0,0,0,0-.1c-.05,0-.1,0-.14,0a.27.27,0,0,0-.07.08.09.09,0,0,0,0,.07A.2.2,0,0,0,13.76,5Zm.07-.54A.15.15,0,0,0,14,4.36a.14.14,0,0,0-.14-.15c-.07,0-.14,0-.14.1A.15.15,0,0,0,13.83,4.47Zm-.57.27a.08.08,0,0,0,0,.06.11.11,0,0,0,.09.11h.12s0,0,.05,0a.41.41,0,0,0-.07-.11A.12.12,0,0,0,13.26,4.74Zm.14.65a1.14,1.14,0,0,0-.11.11c.12.12.14.13.22.12a.09.09,0,0,0,.09-.07.15.15,0,0,0-.06-.15A.11.11,0,0,0,13.4,5.39Zm2.14-1c.09.08.16.17.29.11s.13-.14.08-.28l-.22,0C15.6,4.22,15.56,4.27,15.54,4.36ZM12.63,6.45a.11.11,0,0,0,.14,0s0-.07,0-.11,0-.08,0-.14a.74.74,0,0,0-.16.1S12.57,6.41,12.63,6.45Zm.39.27s0-.09,0-.14a.76.76,0,0,0-.12-.1l-.09.2.07.05S13,6.77,13,6.72ZM12.5,5.44a.16.16,0,0,0,.06-.08c0-.06,0-.12-.08-.18l-.24.08a.08.08,0,0,0,0,.11A.21.21,0,0,0,12.5,5.44Zm.45.17a1.43,1.43,0,0,0-.11-.12s-.07,0-.09,0,0,.05,0,.06.06.07.09.07S12.9,5.63,13,5.61Zm1.43-.55s0,.06,0,.06a.31.31,0,0,0,.15.08.51.51,0,0,0,.12,0A.49.49,0,0,0,14.58,5,.14.14,0,0,0,14.38,5.06Zm5.44-.91s0-.05.05-.06a.21.21,0,0,0-.22-.21.13.13,0,0,0-.12.14A.23.23,0,0,0,19.82,4.15ZM19.4,5.42l.1,0c.07,0,.14,0,.15-.08s0-.1-.06-.13-.14,0-.21,0A.07.07,0,0,0,19.4,5.42Zm.16-.48a.19.19,0,0,0,.26,0,1,1,0,0,0-.12-.17c-.05,0-.14,0-.19,0A.11.11,0,0,0,19.56,4.94Zm-.47-1.18,0-.06s0,0,0,0a.27.27,0,0,0-.27-.13.11.11,0,0,0-.08.17A.22.22,0,0,0,19.09,3.76Zm0,.78a.1.1,0,0,0,.08.13l.12,0a.11.11,0,0,0,.09-.13.18.18,0,0,0-.15-.12A.14.14,0,0,0,19.05,4.54Zm.21.44a.13.13,0,0,0-.13.1c0,.06.05.11.13.12a.5.5,0,0,0,.13,0A.16.16,0,0,0,19.26,5Zm1-1a.12.12,0,0,0,0,.14.19.19,0,0,0,.16.1.13.13,0,0,0,.13-.11A.25.25,0,0,0,20.4,4,.13.13,0,0,0,20.24,4Zm.05-.14s0,0,.06-.07a1.1,1.1,0,0,0-.09-.14.14.14,0,0,0-.17,0,.09.09,0,0,0,0,.11A.17.17,0,0,0,20.29,3.89Zm-.2.43c.05,0,.05-.1,0-.2s0,0-.06,0a.2.2,0,0,0-.12.18C20,4.32,20,4.36,20.09,4.32ZM16,4.06a.24.24,0,0,0,.08.06.23.23,0,0,1,.17.15.2.2,0,0,0,.22.11.1.1,0,0,0,.06-.17,1.53,1.53,0,0,0-.21-.14c0-.09,0-.22-.1-.31l-.2.07A.14.14,0,0,0,16,4.06Zm3.63.4a.16.16,0,0,0,0,.12.2.2,0,0,0,.22.08A.47.47,0,0,0,20,4.6a.22.22,0,0,0-.13-.21A.19.19,0,0,0,19.62,4.46ZM17.45,3.8c.06,0,.12.05.17,0a.34.34,0,0,0,.12-.3.47.47,0,0,0-.32.1.12.12,0,0,0-.05.09A.13.13,0,0,0,17.45,3.8ZM17,3.87a.55.55,0,0,0,.22.06s.05,0,.07-.06a.25.25,0,0,0-.2-.22.13.13,0,0,0-.12.09A.1.1,0,0,0,17,3.87Zm-.06.63.12,0a.16.16,0,0,1,.15.08.14.14,0,0,0,.1,0,1.22,1.22,0,0,1,.33,0s.07,0,.09-.07a.1.1,0,0,0,0-.09.18.18,0,0,0-.19-.1.58.58,0,0,1-.19,0c-.05,0-.1,0-.14,0l-.23-.14a.09.09,0,0,0-.11.05.24.24,0,0,0,0,.12A.17.17,0,0,0,16.9,4.5Zm-.38-.75a.16.16,0,0,0,.12,0,1.18,1.18,0,0,0,.11-.19.11.11,0,0,0,0-.06.35.35,0,0,0-.11,0h-.13a.12.12,0,0,0-.07.19A.34.34,0,0,0,16.52,3.75Zm1.18.12L17.47,4a.1.1,0,0,0,0,.09.17.17,0,0,0,.2.11c.07,0,.1-.07.09-.16A1.25,1.25,0,0,0,17.7,3.87ZM12.54,7.21a.24.24,0,0,0-.1,0,.22.22,0,0,0,0,.24.64.64,0,0,0,.19-.08.18.18,0,0,0,0-.11S12.6,7.21,12.54,7.21ZM18.24,4a.11.11,0,0,0,.1-.12.26.26,0,0,0-.23-.15.17.17,0,0,0-.08.07.14.14,0,0,0,0,.09A.21.21,0,0,0,18.24,4Zm.13.91a.26.26,0,0,0,.15,0s0,0,.08-.06-.06-.11-.11-.14a.11.11,0,0,0-.11,0,.19.19,0,0,0-.09.11S18.33,4.91,18.37,4.92ZM18,4.5a.17.17,0,0,0,.19,0,.13.13,0,0,0,.07-.13s0-.11,0-.18a1.11,1.11,0,0,0-.2.07.12.12,0,0,0-.09.08A.13.13,0,0,0,18,4.5Zm.55-.31a1.11,1.11,0,0,0,.17,0c.1.15.11.16.17.18s.16,0,.17-.07A.14.14,0,0,0,19,4.14l-.21,0L18.71,4l-.18,0a.11.11,0,0,0-.08,0,.13.13,0,0,0,0,.12A.29.29,0,0,0,18.59,4.19ZM9.81,6.85a.24.24,0,0,0-.06.08c0,.05,0,.08.1.09s.1,0,.09,0A.14.14,0,0,0,9.81,6.85Zm12.06,6.29Zm-1.37,2.2s-.07.05-.05.1.05.06.08.09a1.16,1.16,0,0,0,.4-.48.89.89,0,0,0-.17.08A2.65,2.65,0,0,0,20.5,15.34Zm1.63-2.57c-.22.11-.24.14-.26.36L22,13A.24.24,0,0,0,22.13,12.77Zm.19-.19a.09.09,0,0,0,.07,0,.43.43,0,0,0,.12-.35l-.2.17a.13.13,0,0,0,0,.14S22.3,12.58,22.32,12.58Zm-1,.58a.72.72,0,0,0,.2-.14,2.51,2.51,0,0,0,.25-.32s0,0,0-.08-.07,0-.09,0a.33.33,0,0,0-.22.16.61.61,0,0,1-.18.21.26.26,0,0,0-.07.1.07.07,0,0,0,0,.07S21.35,13.17,21.36,13.16Zm.46,0a.93.93,0,0,0-.38.23.09.09,0,0,0,0,.07s0,.05,0,.06a.06.06,0,0,0,.07,0l.09-.08.27-.29Zm.05,0h0Zm.28-1-.18.12a.26.26,0,0,0-.12.18.07.07,0,0,0,0,.07.08.08,0,0,0,.07,0c.11-.07.24-.14.27-.28a.2.2,0,0,1,.09-.11.62.62,0,0,0,.25-.35.48.48,0,0,1,.12-.21.75.75,0,0,0,.1-.2s-.05-.09-.08-.08l-.22.12v.25A.51.51,0,0,0,22.15,12.13Zm-5,4.13a.16.16,0,0,1-.06.08c-.15.13-.17.35-.32.48a.08.08,0,0,0,0,.05c0,.11-.05.17-.13.22a.24.24,0,0,0-.11.22.13.13,0,0,1-.05.11s0,0-.07.07a.13.13,0,0,0,0,.16.08.08,0,0,0,.12,0,.31.31,0,0,0,.05-.12.33.33,0,0,1,.08-.18c0-.08.08-.16.13-.25a.2.2,0,0,1,.07-.1,1.62,1.62,0,0,0,.34-.47,1.07,1.07,0,0,1,.25-.27c.11-.09.11-.25.24-.33a1.18,1.18,0,0,0,.21-.18.3.3,0,0,0,.07-.1.23.23,0,0,1,.17-.17.4.4,0,0,0,.24-.22s.05-.09.07-.12l.19,0s.12-.05.14-.1a.43.43,0,0,1,.27-.21.41.41,0,0,0,.26-.27s-.06,0-.09,0a1.83,1.83,0,0,0-.32.14,1.2,1.2,0,0,1-.23.11.42.42,0,0,0-.28.24.27.27,0,0,1-.1.11.6.6,0,0,0-.38.28.44.44,0,0,1-.1.08l-.35.27c0,.05,0,.13,0,.16A1.07,1.07,0,0,0,17.16,16.26Zm6.42-6.72c0-.14.08-.28.11-.42s0-.06,0-.09c-.19.12-.18.12-.19.28s0,.18-.05.29S23.56,9.59,23.58,9.54Zm-7.19,8.27a.16.16,0,0,0-.11.21.11.11,0,0,0,.07.06l.06,0c0-.06.05-.13.08-.2S16.42,17.8,16.39,17.81Zm1.1-2.13h0Zm3.22-2a.06.06,0,0,0,0,.07.14.14,0,0,0,.07.06.11.11,0,0,0,.13,0c.13-.12.25-.25.37-.38s0-.09,0-.14a.17.17,0,0,0-.18.06A2.16,2.16,0,0,1,20.71,13.66Zm-1.76,2c-.08.19-.26.32-.34.52h-.08c-.21,0-.24,0-.16-.29l-.09.06a.85.85,0,0,1-.25.21.36.36,0,0,0-.1.11c-.12.16-.24.33-.37.49a.31.31,0,0,1-.11.09.14.14,0,0,1-.17,0,.13.13,0,0,1,0-.18,3.66,3.66,0,0,1,.38-.5,3.63,3.63,0,0,0,.47-.49c.2-.1.31-.32.51-.41a.49.49,0,0,0,.19-.16l.15-.14.53-.35a2.75,2.75,0,0,1,.52-.31c.08,0,.14-.12.21-.19l.25-.21a.13.13,0,0,1,.09,0s0,0,.05,0a.08.08,0,0,1,0,.11,1,1,0,0,1-.29.2.47.47,0,0,0-.3.34l.2-.05s0,0,0,.05a2.43,2.43,0,0,0-.14.2.12.12,0,0,1-.13.07c-.07,0-.1,0-.09-.12l0-.05a.31.31,0,0,0-.23.21l.12,0c0,.25-.06.27-.32.31a1,1,0,0,0-.14.2.36.36,0,0,1-.22.2S19,15.6,19,15.63Zm-.29-.1-.1.09,0,0,.06,0S18.7,15.59,18.66,15.53Zm.6-.36s.06,0,.09,0l.08-.22c-.05-.06-.1,0-.13,0a.65.65,0,0,1-.46.27c0,.1-.08.17-.05.27s.1,0,.14-.09A.53.53,0,0,1,19.26,15.17Zm-.65,1Zm.86.19a.51.51,0,0,0,0,.13c.16-.12.16-.12.26-.36A.35.35,0,0,0,19.47,16.34ZM20.77,14a.54.54,0,0,1-.23.19.21.21,0,0,0-.1.06s0,.07,0,.09a0,0,0,0,0,.08,0,3,3,0,0,1,.24-.18c.17-.07.25-.21.37-.37C21,13.82,20.84,13.85,20.77,14ZM20,15.72a.1.1,0,0,0,0,.15.11.11,0,0,0,.14,0,.4.4,0,0,0,.06-.27Zm-1.72.94a3.61,3.61,0,0,0,.36-.51.85.85,0,0,1,.17,0,.12.12,0,0,1,.1.18s0,0,0,.05a1.44,1.44,0,0,0-.31.39.28.28,0,0,1-.1.09c-.11,0-.15.12-.2.21s-.09.14-.14.21-.12.1-.27,0-.11.06-.12.11a.31.31,0,0,1-.26.21v.16c-.11.07-.11.07-.19,0a.08.08,0,0,0-.08,0s-.07,0-.08,0a.26.26,0,0,1,0-.12.33.33,0,0,1,.2-.14v.16a.1.1,0,0,0,.12-.08.21.21,0,0,0,0-.19l0,0c-.07-.12-.07-.15,0-.24l.16-.13.32-.22a.53.53,0,0,1,.2-.42.18.18,0,0,1,.21,0,1,1,0,0,1-.17.36,1.25,1.25,0,0,1-.12.08c-.14.08-.17.14-.14.33.09,0,.11-.06.17-.09A.35.35,0,0,0,18.25,16.66Zm-.61.4h0s0,0,0,0h0Zm1.11-.46a.71.71,0,0,0-.1.14s0,.06,0,.09l-.41.45a1.14,1.14,0,0,0-.15.23.1.1,0,0,0,.09.15.12.12,0,0,0,.13-.05,2.05,2.05,0,0,0,.29-.47,1.12,1.12,0,0,1,.21-.34.44.44,0,0,0,.11-.27A.2.2,0,0,0,18.75,16.6Zm1.52-2.79.05,0,.47-.32a.58.58,0,0,0,.1-.12v-.06s-.05,0-.06,0a1.22,1.22,0,0,0-.19.12.58.58,0,0,1-.23.18,1.46,1.46,0,0,0-.19.16s0,0,0,0Zm-.31.31s0,0,0-.07,0-.05-.06-.05-.27.07-.35.29a.61.61,0,0,0,.37-.13A.05.05,0,0,0,20,14.12Zm-1.32,3.31a.12.12,0,0,0,.07.15.1.1,0,0,0,.11-.07l.12-.36A.59.59,0,0,0,18.64,17.43Zm-.82,0a.13.13,0,0,0-.09.16s.05.05.07.07a.13.13,0,0,0,.13-.14A.12.12,0,0,0,17.82,17.43Zm5.95-8.19a2.24,2.24,0,0,1-.19.55,3.38,3.38,0,0,0-.11.34s0,.08.08.1.07-.1.1-.16a2.77,2.77,0,0,0,.1-.26h.05l0,.13h.05l0,0c.06-.16.13-.33.2-.49l0-.05c-.07,0-.09.05-.12.09s0,.13-.15.14A.53.53,0,0,1,24,9.25c.19,0,.24,0,.22-.26L24,9.05l-.09-.21a.38.38,0,0,1-.05.16A.54.54,0,0,0,23.77,9.24ZM14.39,7a.23.23,0,0,0-.06-.22.26.26,0,0,0-.08.36.21.21,0,0,1,0,.19.56.56,0,0,0,0,.12.16.16,0,0,0,.09.16q.12-.07.09-.18A1.24,1.24,0,0,1,14.39,7Zm.09,2.57s0,.08.09.07a.42.42,0,0,0-.07-.56A.53.53,0,0,0,14.48,9.54Zm.19-2.66a.15.15,0,0,0,0-.2C14.58,6.77,14.58,6.79,14.67,6.88Zm-.36.89c-.07.11-.11.16-.14.22a.12.12,0,0,0,0,.14.1.1,0,0,0,.11,0c.06,0,.1-.06.09-.11S14.34,7.91,14.31,7.77Zm.29-.22c-.1.09-.12.1-.08.18a.4.4,0,0,1,0,.41.28.28,0,0,0,0,.12.2.2,0,0,0,.07.23c.13-.05.17-.07.17-.17a.91.91,0,0,0,0-.23A1.64,1.64,0,0,1,14.6,7.55Zm-.5-.93c-.12.11-.12.12-.12.26s0,.07.07.06A1.07,1.07,0,0,0,14.1,6.62Zm.41-.48a.12.12,0,0,0,0-.14s-.09,0-.13,0a.2.2,0,0,0,0,.26A.26.26,0,0,0,14.51,6.14ZM13.8,8.6a.25.25,0,0,0,.06.28c.16-.23.16-.29.06-.62C13.87,8.4,13.84,8.5,13.8,8.6Zm.47-.08a1,1,0,0,0-.2.28c0,.08,0,.16.09.21a.16.16,0,0,0,.19-.09C14.37,8.79,14.41,8.65,14.27,8.52Zm0-2.37s0,0,0,0,0,0,0,0a.2.2,0,0,0,0,.23Zm9.67,2.69h0Zm-9.08-3a.11.11,0,0,0-.17,0,.34.34,0,0,0,0,.24.09.09,0,0,0,.1.1.17.17,0,0,0,.06-.06A1.91,1.91,0,0,0,14.93,6Zm-.49,8.94a.42.42,0,0,0,.29-.44c0-.09-.06-.13-.13-.16a.14.14,0,0,0-.18,0,.54.54,0,0,0-.13.3A.21.21,0,0,0,14.34,14.82Zm.56-7.64a.36.36,0,0,0,0,.32.14.14,0,0,0,.08,0s.07,0,.07-.06a.58.58,0,0,0,0-.43A1.35,1.35,0,0,0,14.9,7.18Zm9,1.65h0Zm-8.35,6.48a.13.13,0,0,0-.11,0,.67.67,0,0,0-.19.35c0,.1,0,.16.13.2a.8.8,0,0,0,.23-.49A.13.13,0,0,0,15.56,15.31Zm-2.17,2a.09.09,0,0,0-.07-.05s-.05,0-.06,0,0,.11,0,.11a1.24,1.24,0,0,0,.15.69.09.09,0,0,0,.17-.07v0a1.64,1.64,0,0,1-.13-.62A.1.1,0,0,0,13.39,17.34ZM14.53,15a.16.16,0,0,0-.16-.16.12.12,0,0,0-.15.1,2.27,2.27,0,0,0-.05.35c0,.07,0,.14,0,.2s-.06.23-.1.35a.75.75,0,0,0,0,.3,1.51,1.51,0,0,1,0,.52.25.25,0,0,0,0,.22.52.52,0,0,1,.1.36,2.62,2.62,0,0,1,0,.28c0,.11,0,.22,0,.33a.17.17,0,0,0,.14.15l0,0a.62.62,0,0,0,0-.13c0-.13,0-.25,0-.38a.34.34,0,0,0-.11-.3c-.06-.05-.05-.12,0-.19a.54.54,0,0,1,0-.11.59.59,0,0,0,0-.45c0-.08-.07-.17-.11-.27a.52.52,0,0,0,.16-.48v-.18a.19.19,0,0,1,.06-.16A.35.35,0,0,0,14.53,15Zm-1.25,2.11a.45.45,0,0,0,0-.14,1.18,1.18,0,0,0,0-.19.06.06,0,0,0-.05-.05.07.07,0,0,0-.07,0,.37.37,0,0,0,0,.38.07.07,0,0,0,.06,0A.16.16,0,0,0,13.28,17.13Zm2-11.19a.11.11,0,0,0-.07-.12.59.59,0,0,0-.14,0,.71.71,0,0,0,0,.73A4,4,0,0,0,15.26,6,.24.24,0,0,0,15.28,5.94Zm-.11,2.18c0,.07,0,.13.05.19a.08.08,0,0,0,.12,0,1.56,1.56,0,0,0,0-.48A.46.46,0,0,0,15.17,8.12Zm-.34,6.33a.15.15,0,0,0,.18,0,.35.35,0,0,0,.08-.24,1.2,1.2,0,0,0,0-.2.61.61,0,0,1,0-.4.41.41,0,0,0,0-.19.08.08,0,0,0-.11-.06.22.22,0,0,0-.1.09.32.32,0,0,0,0,.46c0,.1-.07.19-.1.28a1.09,1.09,0,0,0-.05.17A.11.11,0,0,0,14.83,14.45Zm-1.62,2.07a.89.89,0,0,0,0-.43.29.29,0,0,1,0-.22.59.59,0,0,0,0-.45c.07-.15.2-.28.14-.46,0,0-.06,0-.08,0a.3.3,0,0,0-.16.3.59.59,0,0,1-.05.32.41.41,0,0,0,0,.44c0,.14-.09.26-.12.38a.13.13,0,0,0,.12.17ZM25.3,9.34ZM23.72,7.79s.05,0,.09-.06-.08-.07-.11-.07-.06,0-.07.06S23.68,7.8,23.72,7.79Zm-.22,0a.1.1,0,0,0-.12,0,.08.08,0,0,0,.06.09.1.1,0,0,0,.13-.08S23.53,7.77,23.5,7.76Zm-.07-.21s-.08-.06-.12-.06a.1.1,0,0,0-.1.09s0,0,0,.06a.12.12,0,0,0,.14,0Zm.32.47a.09.09,0,0,0-.11.07.11.11,0,0,0,.07.11c.06,0,.13,0,.13-.08S23.8,8,23.75,8Zm.15-.5s-.08,0-.07.08.05.1.1.09S24,7.64,24,7.6A.53.53,0,0,0,23.9,7.52Zm0,.33A1.11,1.11,0,0,1,24,8a.12.12,0,0,0,.08.12q.11,0,.15-.09c0-.05,0-.11-.07-.17S24.05,7.79,23.94,7.85Zm.49-.23s-.05-.09-.12-.09a.17.17,0,0,0-.06.08s0,.09.09.09S24.44,7.66,24.43,7.62Zm-1.91,1a.12.12,0,0,0-.11.09c0,.05.05.09.13.08s.07,0,.09-.08S22.58,8.58,22.52,8.57Zm.68-.74c-.06,0-.13,0-.11.09a.22.22,0,0,0,.07.07c.07,0,.12,0,.1-.1A.07.07,0,0,0,23.2,7.83Zm-.58,0s-.05,0-.05,0,0,.14-.08.19,0,.09,0,.11l.13,0s.08-.07.08-.1,0-.1,0-.13a.07.07,0,0,0,0-.11A.1.1,0,0,0,22.62,7.82Zm.45.22C23,8,22.93,8,22.86,8s.08.19.18.19.05,0,.06-.06S23.09,8.05,23.07,8ZM23,7.71a.13.13,0,0,0-.14-.11.26.26,0,0,0-.09.09s.05.1.1.1S23,7.75,23,7.71Zm-.51.58a.21.21,0,0,0,0,.07.13.13,0,0,0,.16.08s.05,0,.07-.06,0-.05,0-.06A.13.13,0,0,0,22.49,8.29Zm2.76.3a.13.13,0,0,0,0,.12l.28.18s.06,0,.07-.05a.16.16,0,0,0,0-.12,1.28,1.28,0,0,0-.25-.15A.13.13,0,0,0,25.25,8.59Zm.23-.41-.11,0-.05.07a1.56,1.56,0,0,1-.07.17c.06,0,.09,0,.13,0s.06,0,.08,0a1.71,1.71,0,0,0,.11-.14s0,0,0,0A.32.32,0,0,0,25.48,8.18Zm1.38.56a.8.8,0,0,1,0,.15c0,.13-.08.26-.1.39a1.57,1.57,0,0,1-.14.38.46.46,0,0,0-.07.14,1.6,1.6,0,0,1-.53.7,3.9,3.9,0,0,1-.59.41,2.59,2.59,0,0,1-.57.22.54.54,0,0,0-.39.31c-.12.28-.28.54-.42.82s-.48.72-.7,1.09a4.62,4.62,0,0,1-.73.92c-.24.25-.5.48-.76.71l-.81.7-.26.2a2.28,2.28,0,0,0-.46.36c-.23.24-.47.47-.69.72a1.57,1.57,0,0,0-.34.47,2,2,0,0,1-.1.26h0v0a3.57,3.57,0,0,0-.07.37h.7A14,14,0,0,0,21.37,18h.25c.08,0,.13,0,.14.14a1.69,1.69,0,0,1-.45.14s-.08,0-.1,0a1.54,1.54,0,0,1-.67.09l-.69,0c-.61,0-1.22-.05-1.83,0-.28,0-.57,0-.85,0l-1.71,0c-.44,0-.88,0-1.32.06a14.59,14.59,0,0,1-1.48,0c-.33,0-.66,0-1,0l-1.15-.06a3.93,3.93,0,0,0-.84,0,1.05,1.05,0,0,1-.3,0,2.36,2.36,0,0,0-.53,0,5.81,5.81,0,0,1-.59,0,1.53,1.53,0,0,0-.3,0,2.36,2.36,0,0,1-.53,0H7.3l.09,0c-.61,0-1.22,0-1.84,0l-.69,0a1.5,1.5,0,0,1-.66-.1H4.1a1.41,1.41,0,0,1-.45-.15c0-.09.06-.13.13-.13a2.26,2.26,0,0,1,.26,0c.52.05,1,.07,1.58.07h.67c-.07-.11-.17-.21-.24-.31l-.2-.27a2.44,2.44,0,0,1-.19-.44c-.21-.53-.37-1.08-.53-1.63-.11-.35-.19-.72-.29-1.08s-.25-.83-.37-1.25c-.06-.21-.12-.42-.19-.63-.13-.4-.29-.78-.4-1.19a5,5,0,0,0-.25-.59.13.13,0,0,0-.13-.09H3.24a3.66,3.66,0,0,1-1,0l-.58,0L.4,10.44A.46.46,0,0,1,0,9.84a1,1,0,0,1,.19-.42,5.56,5.56,0,0,1,.85-.9,11.54,11.54,0,0,0,1.09-1,5.86,5.86,0,0,1,.44-.42l.64-.55a2.91,2.91,0,0,1,1-.52A1.5,1.5,0,0,1,5,6a4.43,4.43,0,0,1,1.3.52c.24.14.49.27.74.4a10.69,10.69,0,0,0,1.1.47l1,.41a.46.46,0,0,1,.15.09c.13.08.13.2,0,.32a.38.38,0,0,0-.09.12.83.83,0,0,1-.44.46c-.34.14-.66.3-1,.46a.34.34,0,0,1-.12,0,2.63,2.63,0,0,0-.79.34c-.19.08-.38.19-.57.29L6.17,10a2,2,0,0,0,.09.5c0,.21.11.43.17.64s.2.68.33,1,.35.88.54,1.32a9.46,9.46,0,0,0,.94,1.6c.25.35.53.67.81,1a.1.1,0,0,0,0,0c.06,0,.07-.05.08-.09.06-.34.14-.67.19-1s0-.43,0-.64A.46.46,0,0,0,9.26,14s0,0-.07,0a.32.32,0,0,1-.36-.17,1.45,1.45,0,0,0-.57-.5l-.36-.19a.5.5,0,0,1-.29-.34,2.36,2.36,0,0,1-.08-.45A1.49,1.49,0,0,1,7.61,12a2.82,2.82,0,0,1,.4-.77c.26-.35.5-.73.76-1.09a6.54,6.54,0,0,1,.4-.52,2.5,2.5,0,0,1,.34-.31l.65-.41a.39.39,0,0,1,.19-.06c.16,0,.32,0,.48-.06h.1a2.48,2.48,0,0,1,.82.39,2.7,2.7,0,0,1,.49.52c.15.2.3.41.44.62a4.24,4.24,0,0,1,.44.78,3.86,3.86,0,0,1,.21.6,1.14,1.14,0,0,0,.06.15.38.38,0,0,0,.06-.26c0-.39,0-.77,0-1.15l0-1.33a1.54,1.54,0,0,0,0-.37L13,8.61h0a8.26,8.26,0,0,1-1.72-.18c-.36-.06-.73-.14-1.09-.22,0,0-.06,0-.07,0S9.82,8,9.67,7.91a1.36,1.36,0,0,1-.43-.27.62.62,0,0,0-.17-.11.53.53,0,0,1-.27-.26,2.11,2.11,0,0,1-.22-.54,1.51,1.51,0,0,1,0-.6,2.93,2.93,0,0,1,.3-.86,7.71,7.71,0,0,1,.53-.93c.23-.35.43-.71.69-1s.54-.59.81-.89a4,4,0,0,0,.28-.3s0-.06.07-.07a2.53,2.53,0,0,0,.51-.42,4.35,4.35,0,0,1,.6-.43A8.11,8.11,0,0,1,13.51.52c.13-.07.28-.13.42-.19A3,3,0,0,0,14.3.17,1,1,0,0,1,14.6.1L15,0c.2,0,.41,0,.61,0s.51,0,.76,0l.33,0A6.07,6.07,0,0,1,18,.45a6,6,0,0,1,.7.28,1.85,1.85,0,0,1,.37.19c.47.23,1,.45,1.4.72a13.44,13.44,0,0,1,1.26.87,5.59,5.59,0,0,1,.67.62,1.31,1.31,0,0,1,.37.63l0,.09a1.25,1.25,0,0,1,.08.5,5.34,5.34,0,0,1-.05.69.85.85,0,0,1-.15.37,5.16,5.16,0,0,1-.67.87,3,3,0,0,1-.87.69L21,7.05a8.82,8.82,0,0,1-1,.51,2.13,2.13,0,0,1-.27.08c-.26.09-.54.16-.79.27a2.81,2.81,0,0,1-.56.18l-1,.22a.8.8,0,0,0,0,.15c0,.58,0,1.16,0,1.73s0,.89.05,1.33a2,2,0,0,0,0,.32.35.35,0,0,0,.12-.05l.22-.19a1.16,1.16,0,0,1,0-.18s0-.09,0-.12a.82.82,0,0,0,0-.38,1.49,1.49,0,0,1,.52-1.17,3.12,3.12,0,0,1,1.25-.65A4,4,0,0,1,20.08,9a1.55,1.55,0,0,1,.9.11.3.3,0,0,0,.23.07c0-.05,0-.09,0-.14a1.51,1.51,0,0,1,.2-1.15A4.72,4.72,0,0,1,22,7.07l0,0a4.16,4.16,0,0,1,.82-.63l.5-.26a3.25,3.25,0,0,1,1.06-.27.78.78,0,0,1,.3,0c.15,0,.29.1.43.15l.16.08.26.15a.78.78,0,0,1,.41.37.53.53,0,0,0,.1.12,3.33,3.33,0,0,0,.28.25.65.65,0,0,1,.26.37.79.79,0,0,0,.17.31.33.33,0,0,1,.11.27C26.83,8.25,26.85,8.5,26.86,8.74Zm-18-1.88,0,0,0,0a.05.05,0,0,0,0,0ZM24.16,6.2a1.85,1.85,0,0,1,.16.6.08.08,0,0,0,0,.06l.09,0-.12-.22.4,0a.21.21,0,0,1,.13.07A.69.69,0,0,0,25.3,7l.11,0s0,.13.09.11l.08-.21a.31.31,0,0,0-.12-.4l-.32-.17a1.17,1.17,0,0,0-.64-.1A.47.47,0,0,1,24.16,6.2Zm-.42.72c.05,0,.11,0,.13,0l-.08-.35c-.1.09-.09.2-.13.29S23.69,6.91,23.74,6.92Zm-.67-.38a.34.34,0,0,0,.11,0s0,0,.05-.07a0,0,0,0,0-.07,0A.24.24,0,0,0,23.07,6.54Zm.1.35c-.08.13-.08.13-.06.23s.1,0,.12-.07S23.2,7,23.17,6.89Zm-.61,0s0,0,0,0l.09,0s-.06-.05-.07,0S22.56,6.84,22.56,6.86Zm-.43.41,0,.17a.76.76,0,0,0,0,.15l0,.12.12-.11c-.09-.13-.09-.13-.18-.16a1.09,1.09,0,0,0,.05-.17l-.05,0A0,0,0,0,0,22.13,7.27ZM21.64,8l.09.09.08.12c.08-.06.11-.11.07-.18s-.07-.17-.12-.28A.32.32,0,0,0,21.64,8Zm-.18,1.17h0V9.09l0,0S21.45,9.14,21.46,9.15Zm-.05-.52h0s0,0,0,0A.05.05,0,0,0,21.41,8.63Zm-.09,2s0,0,.05.08a1.42,1.42,0,0,0,.07-.57l-.05-.05h0C21.35,10.31,21.33,10.48,21.32,10.66Zm-.08.44c.11,0,.09-.09.07-.16Zm-.12,1-.07.08a2.48,2.48,0,0,1-.85.45,1.27,1.27,0,0,0-.32.13.61.61,0,0,1-.49.1.23.23,0,0,0-.25.07,1.29,1.29,0,0,1-.17.16.3.3,0,0,0-.07.1.63.63,0,0,1-.19.41c-.12.11-.1.29-.21.4a.46.46,0,0,0-.07.07,1.31,1.31,0,0,0-.22.4s0,.07,0,.14l.15-.1c.38-.27.76-.55,1.15-.81a7.86,7.86,0,0,0,1.1-.9l.73-.75a3.88,3.88,0,0,0,.81-1.31.83.83,0,0,0,0-.15c-.19-.09-.25-.31-.45-.38a1,1,0,0,0,0,.33,2.46,2.46,0,0,1-.2.89C21.37,11.66,21.24,11.88,21.12,12.1Zm1-.49,0-.11v0h0a.44.44,0,0,0,.21-.34.53.53,0,0,0-.21.34h0v0S22.11,11.55,22.14,11.61Zm-3.85,2.11a.32.32,0,0,0,.16-.24s.05-.09.08-.12a.81.81,0,0,0,.24-.46,1,1,0,0,0-.2.15c-.07.08-.13.17-.2.26l-.08.13a1,1,0,0,1-.24.41s-.07.08-.06.09ZM20,12.18s0,0,0,0a.3.3,0,0,0,.08-.08l0,0-.08.08Zm.23-.21s0,0,0,0,.05,0,.06,0a.87.87,0,0,1,.22-.21.26.26,0,0,0,.15-.25l0-.2A4.21,4.21,0,0,0,20.22,12Zm.5-.73s0,0,0,0,0-.07,0-.11h0a.31.31,0,0,0-.05.1S20.71,11.24,20.72,11.24Zm.18-.73a1.69,1.69,0,0,0-.13.31s-.05.11,0,.16l.06-.07c.05-.12.11-.23.15-.35s.13-.35.19-.53a.74.74,0,0,0,0-.15l-.08,0a1.89,1.89,0,0,0-.09.21A1.22,1.22,0,0,1,20.9,10.51Zm-.09-.6-.08.05a3,3,0,0,1-.26.5,8,8,0,0,1-.51.9s0,0,0,.08.11-.08.14-.12.15-.2.24-.3a2.59,2.59,0,0,0,.47-.92A.56.56,0,0,0,20.81,9.91Zm-.13-.21h.05a.05.05,0,0,0,0,0l0,0Zm-.13.07a2.9,2.9,0,0,0-.83,1c0,.06-.1.12,0,.23s.06,0,.07,0l.74-.87a1,1,0,0,0,.09-.18S20.56,9.81,20.55,9.77Zm-.82-.51c.05,0,.09,0,.13,0h0c.05,0,.12,0,.14-.09s-.13,0-.14.09h0A.09.09,0,0,0,19.73,9.26Zm-1.56,2,0,0c.11-.05.06-.21.2-.27a.35.35,0,0,0,.36.06l.15,0c.08,0,.13,0,.12.13s0,.11,0,.17a.52.52,0,0,0,.07.32c.05.1.15.12.24.17s-.15.13-.06.24a1,1,0,0,0,.58-.17l-.08-.18s.06-.11,0-.17l-.16,0a1.62,1.62,0,0,0,0-.62.86.86,0,0,1-.39,0s0-.06,0-.08a7.73,7.73,0,0,1,.49-.64c.22-.24.47-.45.7-.67,0,0,.08-.06.06-.13a4.11,4.11,0,0,0-.76.43l-.11-.17.55-.45a.27.27,0,0,0-.22,0l-.38.26a2.07,2.07,0,0,1-.32.19,1.71,1.71,0,0,0-.69.56.5.5,0,0,0-.12.27.87.87,0,0,1-.19.54S18.18,11.24,18.17,11.28Zm-.06-.53h0l0,0Zm.11-2.89a.11.11,0,0,0,0-.09s-.09,0-.2,0a1,1,0,0,0,.13.14S18.22,7.9,18.22,7.86Zm1.25-.41s0,0,0-.06a.24.24,0,0,0-.12,0s0,0,0,0,0,0,0,.06l.06,0,.08,0ZM20.52,7a.57.57,0,0,0-.11-.11.11.11,0,0,0-.06,0s0,.09.09.1S20.48,7,20.52,7Zm.81-.67-.06,0a.57.57,0,0,0-.26.24l.28,0c.06,0,.12,0,.13-.1S21.37,6.34,21.33,6.32Zm.74-.59s0-.05-.07-.06a.11.11,0,0,0-.08,0s0,0,0,0l.13.07S22.07,5.75,22.07,5.73Zm.22-1.37c.12-.06.12-.06.12-.16C22.25,4.25,22.25,4.25,22.29,4.36Zm-.18,1a1,1,0,0,0,.42-.43l0,0L22.21,5A2,2,0,0,0,22.11,5.37ZM21.9,3.79c.09,0,.17,0,.2-.11a.24.24,0,0,0-.09-.3C22,3.53,21.87,3.64,21.9,3.79Zm-.6-.74a.48.48,0,0,0,0,.45l.13-.18a.17.17,0,0,0,0-.19A.15.15,0,0,0,21.3,3.05Zm-.06-.3a.07.07,0,0,0,.09.07l.09-.07-.14-.08S21.24,2.72,21.24,2.75Zm-.86-.41c0,.15.05.25.06.35a2,2,0,0,0,.14.48s.05.08.09.07a.16.16,0,0,0,.1-.08.42.42,0,0,0,0-.36A4,4,0,0,0,20.38,2.34Zm-.2-.28s.08,0,.13,0L20.38,2l-.07-.07c-.06,0-.1,0-.13.05A.09.09,0,0,0,20.18,2.06Zm.13.17h0l0,0h0Zm-.67.34a.32.32,0,0,1,.08.39,1.46,1.46,0,0,0-.07.19.15.15,0,0,0,.2.05c0-.15,0-.31,0-.47a.3.3,0,0,0,0-.1l-.18-.42a.44.44,0,0,0-.1-.08A.36.36,0,0,0,19.64,2.57Zm-1.12-.64c0,.22,0,.22.26.26s.11,0,.14.12a.39.39,0,0,1,0,.3.09.09,0,0,0,0,.13l.15-.17a.32.32,0,0,0,0-.42.91.91,0,0,1-.18-.47s0,0,0-.06c-.16,0-.16,0-.31-.17a1.16,1.16,0,0,1,0,.21c0,.06,0,.12,0,.17A.16.16,0,0,0,18.52,1.93ZM17.72.66v0ZM17.05.8A1.39,1.39,0,0,0,17.2,1a.46.46,0,0,0,.18.13.29.29,0,0,1,.21.19l.12.36a.2.2,0,0,1-.05.23l-.13.18.13.31c.23.08.34.3.57.46A.87.87,0,0,0,18,2a.53.53,0,0,1-.17-.33,1.21,1.21,0,0,0-.16-.45,1.55,1.55,0,0,1-.21-.35A1.08,1.08,0,0,0,17.22.6a.12.12,0,0,0-.16,0ZM18.16,3s0,0,0,0V3l0,0ZM16.9,2.55a.51.51,0,0,1,.31.46.15.15,0,0,0,.08-.17c0-.23,0-.48-.22-.65A.45.45,0,0,1,17,2.07l-.07,0c0,.12-.07.23-.1.34A.13.13,0,0,0,16.9,2.55ZM16.2.66c0,.09,0,.16,0,.23a.15.15,0,0,0,.12.14l.09,0a.36.36,0,0,1,.23.19c0,.05.07.08.15.16a.68.68,0,0,0-.12-.4l-.3-.47-.05,0ZM16,2c.05.34.1.67.16,1,.07,0,.08-.06.07-.11,0-.23,0-.45-.07-.68a.9.9,0,0,0-.06-.22s-.05,0-.07-.06S16,2,16,2Zm-.42-1a1.24,1.24,0,0,1,.26.46.78.78,0,0,0,.12.19.83.83,0,0,0,0-.5,2,2,0,0,0-.12-.34A.77.77,0,0,0,15.7.53c-.1,0-.17.08-.17.18A.4.4,0,0,0,15.62,1Zm-.39.31s0,.05.08.12a3.9,3.9,0,0,0,0-.47.55.55,0,0,0,0-.17s0-.06-.09,0A1.78,1.78,0,0,0,15.23,1.32Zm.07,1.82L15.47,3a.45.45,0,0,1,0-.28s0-.05,0-.08-.17-.26-.2-.29a1.33,1.33,0,0,0-.09.59A.23.23,0,0,0,15.3,3.14ZM14,1.22c.22,0,.22,0,.3-.13s.09-.14.13-.22a.37.37,0,0,0-.11-.29c-.14.06-.18.2-.25.31A.45.45,0,0,0,14,1.22Zm-.17.86,0-.19a1.94,1.94,0,0,1-.11.24,1.29,1.29,0,0,1-.17.16.43.43,0,0,0-.08.41.28.28,0,0,0,0,.12.28.28,0,0,1,0,.22.69.69,0,0,0,0,.18l.11.08s.05,0,.08,0l.09-.24a1.45,1.45,0,0,0,.62-.22l.06.24c.15-.09.16-.31.33-.37a1.06,1.06,0,0,0,0-.23,1.06,1.06,0,0,0-.06-.19.22.22,0,0,1,0-.08l0-.66c0-.1,0-.19.13-.23a.2.2,0,0,0,.13-.14.59.59,0,0,0,0-.45.35.35,0,0,0-.21.25c0,.15-.07.3-.1.44a.74.74,0,0,0,0,.21,1.4,1.4,0,0,1,0,.5,1,1,0,0,1,0,.11l-.06-.08a.25.25,0,0,0,0-.07A.31.31,0,0,0,14,2Zm-.48-1a.23.23,0,0,0,.22-.17A.22.22,0,0,0,13.31,1.05ZM11.11,3.3a.25.25,0,0,1,0,.09v.12a.28.28,0,0,0,.43.24l.1,0c.06.07.09.14.15.18s0,.17.11.23a.42.42,0,0,0,.23-.1,1.36,1.36,0,0,1-.12-.12.23.23,0,0,1,0-.36,2.36,2.36,0,0,0,.67-.92.25.25,0,0,1,.09-.07c0,.12,0,.21,0,.3s-.11.15-.1.27c.21-.06.27-.24.39-.36a.35.35,0,0,1,.05-.36c.06-.07.1-.14.15-.21A1.43,1.43,0,0,0,13.49,2a.83.83,0,0,1,.23-.3.24.24,0,0,0,.06-.28.23.23,0,0,0-.21-.16.43.43,0,0,0-.25,0l-.49.22a1.2,1.2,0,0,0-.34.21,6.19,6.19,0,0,0-1.08,1.15l-.19.24L11.13,3C11,3.15,11,3.15,11.11,3.3Zm-.26.86c.1.09.07.21.08.33l0,0,.22-.08A.27.27,0,0,1,11,4.16c0-.11,0-.23,0-.35A.21.21,0,0,0,11,3.63c-.13.15-.07.34-.12.5S10.85,4.15,10.85,4.16Zm-.41-.87c.08.1.08.1.28.12a.61.61,0,0,0-.09-.31ZM10.35,4c.14,0,.19,0,.17-.16Zm0,.94c.08,0,.12,0,.16-.08S10.36,4.73,10.3,4.9Zm-.07-.82h0V4h0Zm-.07.18h0Zm-.11.13c.11.09.11.09.21.11C10.2,4.44,10.19,4.35,10.05,4.39Zm-.64.43a.13.13,0,0,0,.2,0,1.17,1.17,0,0,0,.13-.45,1.61,1.61,0,0,0-.35.43S9.4,4.81,9.41,4.82ZM9.13,6.67s0-.1-.07-.09,0,.15.06.21A.25.25,0,0,0,9.13,6.67Zm.1-.92H9.14a.16.16,0,0,0-.05.09,2.31,2.31,0,0,0-.1.28l.09,0,.18-.35S9.25,5.76,9.23,5.75Zm.47,2c0-.1-.09-.15-.2-.14S9.6,7.76,9.7,7.79Zm1.39.46v0H11a0,0,0,0,0,0,0S11.05,8.28,11.09,8.25Zm1.54.11c0-.06,0-.09,0-.11s-.1,0-.16,0a.07.07,0,0,0,0,0C12.48,8.35,12.54,8.35,12.63,8.36Zm.79.05h0Zm.08-1.56a3.26,3.26,0,0,0,.05-.45l-.22.12a.17.17,0,0,1-.18-.06.21.21,0,0,1,.13-.32c.1,0,.22,0,.31-.1l-.08-.23h.14l.27,0s.07,0,.07-.1a1,1,0,0,1-.17,0,.16.16,0,0,1-.16-.1c0-.07,0-.11.07-.15l.06,0,.34.11c.07-.05.19,0,.21-.16s.06,0,.1,0,.17.09.25.15.24,0,.33-.13a.4.4,0,0,0-.25-.27s0-.06,0-.09a.06.06,0,0,1,.09,0,2.48,2.48,0,0,1,.51.28.83.83,0,0,1,.24,0,1.08,1.08,0,0,0,.47.07s.07,0,.08,0l-.19-.07a.14.14,0,0,1,0-.11s0-.08.1-.1a.13.13,0,0,1,.13,0,.19.19,0,0,0,.23.07s.07,0,.12,0a.7.7,0,0,0,0,.14.1.1,0,0,0,0,.08h.06l.16-.13a.43.43,0,0,0,.38-.08l.06,0c.09.07.11.13.07.22s-.1.07-.17.06H17s-.05,0-.09,0a1.41,1.41,0,0,0,.52.18s.08,0,.12,0l0-.05c-.06-.09-.06-.14,0-.18a.13.13,0,0,1,.18,0,.25.25,0,0,1,0,.09.57.57,0,0,1,0,.14c0,.09,0,.13-.07.16l-.32.14c0,.08,0,.13.09.13l.17-.12a.29.29,0,0,0,.23.09c.06,0,.09,0,.09.11a.1.1,0,0,1-.1.09l-.08,0c-.09,0-.14,0-.17.11l0,0h-.13c0,.19,0,.38,0,.56s-.07.37,0,.55a1.67,1.67,0,0,0,.74-.12c-.1-.13-.1-.18,0-.25a.1.1,0,0,1,.14,0,.13.13,0,0,1,.06.15l-.05.11c.24,0,.25,0,.37-.19s.09-.07.14,0a.14.14,0,0,0,.22,0c.07-.11.14-.19.28-.13s.08,0,.12,0a10.19,10.19,0,0,0,1.27-.66,1.84,1.84,0,0,0,.22-.17c.14-.12.27-.26.42-.37a1.13,1.13,0,0,0,.4-.49l.13-.27a.78.78,0,0,0,.07-.3l-.14-.07c-.16-.08-.17-.1-.11-.29h.17c.06,0,.07.11.17.09s0-.08,0-.09a2.71,2.71,0,0,0-.4-.36,2.34,2.34,0,0,0-.44-.24c-.07,0-.13-.09-.23-.05L21,4a.2.2,0,0,1-.21,0c-.09,0-.11-.09,0-.15a1.32,1.32,0,0,1,.16-.12,2.25,2.25,0,0,0-.63-.16,2.91,2.91,0,0,0-.59-.1v.23l-.06,0h-.05c-.14,0-.16-.08-.12-.22a.19.19,0,0,0,0-.08l-.33-.06A4.67,4.67,0,0,0,18,3.32c-.54,0-1.08.07-1.62.09a.33.33,0,0,0-.22.06.33.33,0,0,1-.29.07,1.08,1.08,0,0,0-.4,0c-.18,0-.35.07-.53.09a3.34,3.34,0,0,0-.71.17,2.21,2.21,0,0,1-.25.05l-.18,0c-.21,0-.43.09-.64.16-.43.12-.85.24-1.27.39s-.79.34-1.18.53a1.21,1.21,0,0,0-.28.18l-.23.16a2.77,2.77,0,0,0-.53.43.67.67,0,0,0-.21.48s0,.07,0,.1a1,1,0,0,0-.06.4.57.57,0,0,0,.14.37c.11.13.23.25.32.34l.42.15.51.15a1.74,1.74,0,0,1,.46.13,1,1,0,0,0,.57.08l0-.08a.36.36,0,0,1,0-.1s.06-.07.09-.07.07,0,.08,0a1.91,1.91,0,0,1,.24-.07.1.1,0,0,1,.07.06.11.11,0,0,1-.12.16c-.05,0-.09-.06-.13,0s0,0,0,0A6.23,6.23,0,0,0,13.43,8a1.48,1.48,0,0,0,0-.21s0-.12-.06-.15l0,0c-.06,0,0,.08,0,.13s-.06.12-.14.1-.13-.08-.11-.14a.59.59,0,0,0,0-.22.29.29,0,0,1,.12-.22c.06,0,.12,0,.17,0l.07,0C13.47,7.13,13.49,7,13.5,6.85Zm.22,3.74s0-.05-.08-.09l0,.76c.08,0,.09,0,.08-.06a.82.82,0,0,1,0-.49A.49.49,0,0,0,13.72,10.59Zm-.09,1a.67.67,0,0,0,0,.48c0-.13.09-.22.11-.32A.12.12,0,0,0,13.63,11.62Zm-.75.89c.17-.18.2-.25.2-.41a.33.33,0,0,0-.08-.27.34.34,0,0,0,0,.22,1.38,1.38,0,0,1,0,.2A2.43,2.43,0,0,0,12.88,12.51Zm-.41.24a.61.61,0,0,0-.05.12s0,.06-.05.07-.06,0-.06,0a.13.13,0,0,0-.07-.09c0-.09.07-.17,0-.23a1,1,0,0,0-.08.23.45.45,0,0,0,0,.2s.08,0,.11.06l.1.12.2-.22a.21.21,0,0,0,0-.19l0,0Zm0-2.29,0,0,0,0h-.05Zm-.19,1.24a1,1,0,0,1,.17.36s0,0,.06,0c0-.23,0-.24-.09-.88a1.75,1.75,0,0,0-.2-.52.43.43,0,0,0-.11.27A1.43,1.43,0,0,0,12.24,11.7Zm-.78-2.48a3.22,3.22,0,0,0,.53.63h0A1.49,1.49,0,0,0,11.46,9.22ZM11,11.51a.88.88,0,0,1,.19.49c0,.08,0,.17.05.25a.2.2,0,0,1,0,.21s0,.13,0,.19,0,.06,0,.1a.2.2,0,0,1,0,.11s-.06,0-.09,0-.07,0-.08,0a.46.46,0,0,0,0,.44.07.07,0,0,0,.11,0l.06,0a.84.84,0,0,1,.36-.22s0,0,.09,0,.07.05.11,0,.09-.08.08-.11a.71.71,0,0,1,.06-.22,1.57,1.57,0,0,0,0-.37,1.85,1.85,0,0,0-.06-.74v0a1.75,1.75,0,0,0-.16-.71s0-.07,0-.1c-.08-.25-.15-.49-.23-.73,0,0,0,0-.09-.11,0,.15.06.23.07.32a1.53,1.53,0,0,1,0,.3,1.63,1.63,0,0,0,.09.45c.06.2.13.39.17.59a2.32,2.32,0,0,1,.06.45,2.06,2.06,0,0,0,0,.35.12.12,0,0,1-.16.13.53.53,0,0,1-.12-.1,1.13,1.13,0,0,0-.12-.18.28.28,0,0,1-.09-.18l0-.56a2.83,2.83,0,0,0-.2-1l-.06,0-.12.7A.3.3,0,0,0,11,11.51Zm.72,4.3,0,0,0,0,0,0S11.72,15.79,11.72,15.81Zm0-.22a.65.65,0,0,0-.05-.4Zm0-2.39,0,0h0l0,0ZM10.33,9.4a.16.16,0,0,0,.16-.12.05.05,0,0,0,0,0h0Zm.05,2.39a.66.66,0,0,1,0,.15,1.3,1.3,0,0,0,.09.39,1.07,1.07,0,0,1,.06.35.92.92,0,0,0,0,.16c.09,0,.1-.05.09-.09a1.21,1.21,0,0,1,0-.38v-.15c0-.21,0-.42-.05-.63a2.18,2.18,0,0,1,0-.51,1.18,1.18,0,0,0,0-.42.2.2,0,0,0-.2.08c-.05.07-.12.13-.12.22s0,.19,0,.28A1.47,1.47,0,0,0,10.38,11.79ZM10.65,13s0,0,0,0l0,0c0,.12-.1.25,0,.39A.35.35,0,0,0,10.65,13Zm-2-2.17a.92.92,0,0,0,.14-.13,7.88,7.88,0,0,0,.84-1.19A4.53,4.53,0,0,0,8.65,10.81Zm-.24,2.32a3.05,3.05,0,0,1-.26-.3.45.45,0,0,1-.1-.14,1.18,1.18,0,0,1,0-.92,1.42,1.42,0,0,0,0-.15L8,11.73a3.31,3.31,0,0,0-.12.7c0,.25,0,.48.27.61a.54.54,0,0,1,.12.09Zm1-.21a1.74,1.74,0,0,1,.25.49h0l-.06,0s-.07,0-.08,0l.14,0h0l.12.05a.75.75,0,0,1,.27-.26l.11.09s.06-.08.08-.12a.23.23,0,0,0,0-.24,2,2,0,0,0-.11-.2.1.1,0,0,0-.09,0s-.08,0-.08.07A.74.74,0,0,0,10,13a.2.2,0,0,1-.1.23.85.85,0,0,0-.22-.13.26.26,0,0,1-.19-.21,1.8,1.8,0,0,1-.09-.65c0-.27.05-.53.09-.79a1.49,1.49,0,0,1,.41-.72h0c0,.13,0,.25-.06.37a.27.27,0,0,1-.11.19.55.55,0,0,0-.2.43,2.09,2.09,0,0,0,0,.25c0,.22.07.28.3.34l.05,0c.05,0,0,.14.12.15a.61.61,0,0,1,0-.19s.09-.09.13-.15a.74.74,0,0,0,.07-.72.39.39,0,0,0-.08-.1,1.14,1.14,0,0,0-.11-.11,1.55,1.55,0,0,0,0-.21,4.25,4.25,0,0,0,.13-.87,3.38,3.38,0,0,1,0-.45l-.15-.06a.28.28,0,0,0-.36.08l-.09.1A10.41,10.41,0,0,0,8.74,11a.72.72,0,0,0-.11.41c0,.25-.07.5-.05.75,0,0,0,.05,0,.08a.92.92,0,0,0,.27.9s.07.05.11,0a1.38,1.38,0,0,1-.22-1.18.47.47,0,0,0,.39-.16l.18-.2s0-.06.09,0l0,.12a2.29,2.29,0,0,0-.06.9A.9.9,0,0,0,9.42,12.92Zm.49.6,0,0,0,0,0,0ZM8.84,8.19l.09-.13s0,0,0-.06-.16-.12-.27-.08S8.71,8.13,8.84,8.19ZM7.37,7.53c.1.18.18.31.26.43s.07,0,.14-.06C7.62,7.82,7.62,7.6,7.37,7.53Zm-.67.2V8l.23,0a.24.24,0,0,0,.11-.06.11.11,0,0,0,0-.18.22.22,0,0,0-.11,0A.54.54,0,0,0,6.7,7.73Zm-.27-.54a0,0,0,0,0,.07,0s.08,0,.11,0a.15.15,0,0,0,.09,0s0-.06,0-.09h0v0l0,0h0l-.17,0a.14.14,0,0,0-.09,0A.1.1,0,0,0,6.43,7.19Zm-.19-.34a.56.56,0,0,0,0,.12.08.08,0,0,0,.07,0l0,0-.1-.1Zm-.07.9a.53.53,0,0,0-.17,0V8c.14,0,.24,0,.33,0S6.27,7.76,6.17,7.75ZM5.89,7v0l.15,0s0-.08,0-.11Zm-.12.18h0Zm-.54.62a.38.38,0,0,0,.24.2c.06,0,.14-.06.17-.17A.89.89,0,0,0,5.23,7.83Zm.28-.64,0,0s0,0,0-.06l0,0A.13.13,0,0,0,5.51,7.19ZM5,6.37c.1.13.16.29.33.37a.79.79,0,0,1,.18.14L5.6,7a.33.33,0,0,0-.11-.36,4,4,0,0,0-.4-.27H5Zm.08.77c.08-.23.08-.23-.17-.43A.54.54,0,0,0,5.06,7.14Zm-.32.66a.44.44,0,0,0,.06.25c.07,0,.14-.08.11-.17A.12.12,0,0,0,4.74,7.8Zm-.09-.51c.14-.13.14-.17,0-.24S4.63,7.19,4.65,7.29Zm-.37,0s0,0,.09,0c0-.19.07-.37.09-.59l-.06,0A1,1,0,0,0,4.28,7.32Zm-.07-.76,0,0,0,0,0,0Zm-.43,1A.3.3,0,0,0,3.87,8l.16.1,0,.17.22,0-.09-.14.22-.24a.25.25,0,0,0,0-.33A.47.47,0,0,0,3.78,7.56Zm-1.16.25A.46.46,0,0,0,2.53,8a.45.45,0,0,0,0,.3c0,.16.16.23.3.16A.92.92,0,0,0,3,8.25l.58-.68a1.84,1.84,0,0,0,.17-.22C4,7,4,7.12,3.9,6.72a.77.77,0,0,0-.49.22A7.22,7.22,0,0,0,2.62,7.81ZM3.57,8c-.14,0-.15.17-.23.24l-.25.25a.94.94,0,0,0,.54-.18Zm-1.3-.15A7.06,7.06,0,0,0,3,7.23l0-.06H3c.14,0,.14-.06.17-.21C3.09,7,3,7.07,3,7.16H3l-.07,0-.58.51S2.24,7.77,2.27,7.87Zm-.22,1c.05,0,.08,0,.1,0l.21-.08c.13,0,.14-.08.11-.29Zm-.31-.49.2-.17C1.79,8.24,1.79,8.24,1.74,8.36Zm.16.56a.3.3,0,0,0,0,.08h0L1.79,9h0s0,0,0,0h.08l.08,0s0,0,0,0ZM.76,9.15s.06,0,.08,0L1,9.11a3.86,3.86,0,0,1,.6-.54.1.1,0,0,0,.05-.06s0,0,0,0l-.06,0a.15.15,0,0,0-.07,0Zm.35.56c.11,0,.14,0,.31-.24C1.2,9.58,1.2,9.58,1.11,9.71ZM.87,9.43a.24.24,0,0,0-.08.06s0,0,0,.06h0S.9,9.49.87,9.43Zm3,.69L3.76,10a.09.09,0,0,1,.05-.15.22.22,0,0,1,.14,0,1.25,1.25,0,0,1,.19.15l.52-.2-.09-.16a.38.38,0,0,1,.11-.08h.07l.16.21c.09,0,.19,0,.27-.08l-.06-.13-.25-.07a.13.13,0,0,1-.08-.17s0-.06,0-.08h0l-.12,0H4.52a.06.06,0,0,1,0-.1l.11,0a.11.11,0,0,0,.07-.09c.18,0,.19,0,.22.19l.32.27a.8.8,0,0,0,.22,0c.07,0,.14-.08.21,0a.68.68,0,0,1,.15.18L6,9.6l.21-.07,0,0,0-.12c.13-.11.2,0,.3.07a.17.17,0,0,1,.22-.14h.1a.08.08,0,0,0,.06,0,.08.08,0,0,0,0-.07A.58.58,0,0,0,6.63,9a.55.55,0,0,1-.15-.08l.08-.17,0-.06c0-.08,0-.12.05-.14h.12c.09,0,.1.1.07.21s0,.16.08.17a.27.27,0,0,1,.21.12.2.2,0,0,0,.2.09c.09,0,.15-.07.14-.13s-.07-.09-.12-.11a.5.5,0,0,0-.12,0l-.09-.05a.08.08,0,0,1,0-.11.18.18,0,0,1,.08-.05c.07,0,.13.05.19,0s.23,0,.26.19.06.09.11.08.07,0,.11-.06L7.5,8.62l.06-.17c0-.08.09-.11.19-.08a.11.11,0,0,1,.08.15l0,.14L8,8.85l.14-.08s0,0,0,0S8.05,8.64,8,8.41a.23.23,0,0,1,.19-.09h0l.12.29.16,0,0-.21a.33.33,0,0,0-.26-.06h0A1,1,0,0,0,8,8.25c-.11,0-.23,0-.35,0H7.47l0,.06c0,.13-.07.15-.16.08l-.14-.12-.22,0s0,0-.06,0l0,.17c-.18.05-.21,0-.21-.14l-.19,0c-.06,0-.12,0-.17,0a.91.91,0,0,1-.17-.09L6,8.36l-.11-.08a.08.08,0,0,0-.12.05,1.17,1.17,0,0,1,0,.11.14.14,0,0,1,0,.09.07.07,0,0,1-.09,0,1,1,0,0,1-.18-.13.28.28,0,0,0,0,.29s0,.06-.06.06-.15,0-.13-.13a.37.37,0,0,0,0-.15.34.34,0,0,1,0-.16L5,8.4c-.11-.08-.19,0-.27,0s-.07,0-.1,0H4.52s0,.05,0,.07-.07.14-.14.1a.83.83,0,0,1-.15-.11h0l-.08.11c-.23,0-.23,0-.37,0a.29.29,0,0,0,0,.09c0,.08,0,.14-.1.11s-.22,0-.31-.1-.13,0-.13.08,0,.09,0,.14A.5.5,0,0,1,3,8.87c-.08,0-.16,0-.18.09a.19.19,0,0,1-.07.12.14.14,0,0,0,0,.09c0,.1-.07.13-.15.12s-.15-.06-.19,0-.2,0-.29,0l0,.15a.3.3,0,0,1-.26,0c-.08,0-.1,0-.24,0l.06,0a.1.1,0,0,1,0,.15.11.11,0,0,1-.12.07H1.39L1.27,10,1,10s0,.07.07.09a.52.52,0,0,0,.29.11c.06-.06.07-.16.18-.14s.09.15.11.24h.15c-.07-.12,0-.24-.08-.34s0-.07.05-.08.06,0,.08,0,0,0,0,.07a.09.09,0,0,0,0,.11c.09,0,.09.11.07.19s0,0,0,.06H2.1l.1-.2c.11,0,.17.07.15.18a.14.14,0,0,0,0,.06c.08,0,.14-.09.21-.09s.14.06.22.1A.42.42,0,0,0,2.91,10V9.91A.07.07,0,0,1,3,9.84s.07,0,.07.06.1.22.08.35a.5.5,0,0,0,0,.12.23.23,0,0,0,.24,0s-.07-.08-.07-.12a.52.52,0,0,1,0-.17S3.26,10,3.27,9.9s0-.13-.1-.16a2.47,2.47,0,0,1-.36-.11s-.05-.05,0-.07,0-.05.07-.06h.07a.3.3,0,0,0,.16.05c.11,0,.2.12.32.09s0,0,0,.06,0,.08,0,.12.09.26.22.34S3.77,10.21,3.88,10.12Zm2,1.12a.09.09,0,0,0,0,.07.09.09,0,0,0,.07,0l0,0c0-.05,0-.1,0-.15a.36.36,0,0,1,0-.11l.15,0-.21-1s0-.07-.08-.11a.58.58,0,0,1-.12.14s-.09,0-.11,0,0-.11-.09-.12.06.22,0,.33a.53.53,0,0,1-.13.37c.13,0,.19,0,.22.1a.22.22,0,0,0,.16.16A.5.5,0,0,1,5.85,11.24Zm-.37-.14.2,0V11c-.08,0-.15-.1-.23-.09a.17.17,0,0,1-.19-.15.76.76,0,0,1,0-.21.31.31,0,0,0-.13-.25l-.1.09c.1.15.21.28.15.47,0,0,0,.06,0,.09s0,.06,0,.09.13.3.09.47,0,.08.05.11l.18.19s.09-.06.09-.09a.2.2,0,0,0-.09-.24s-.08-.05-.09-.08A.32.32,0,0,1,5.48,11.1Zm-.16-.85c0,.06,0,.11,0,.18l.16.08A1,1,0,0,0,5.28,10L5,10s-.05.08,0,.11.06,0,.08,0a.87.87,0,0,0,.1-.08.1.1,0,0,1,.15,0A.27.27,0,0,1,5.32,10.25Zm.16-.55,0,0,0,0,0,0Zm-.34,4.44S5.13,14,5,14a1.09,1.09,0,0,0,0,.14s0,0,0,0S5.14,14.15,5.14,14.14Zm1.54,4-.06,0s0,0,0,0a.1.1,0,0,0,.05,0Zm2-.3a1.53,1.53,0,0,1-.19-.3.49.49,0,0,0-.2-.25.36.36,0,0,1-.08-.15.44.44,0,0,0-.13-.24A.36.36,0,0,1,8,16.59c0-.05,0-.12-.08-.13s-.16-.16-.19-.27a.37.37,0,0,0-.15-.25.39.39,0,0,1-.15-.27.59.59,0,0,0,0-.19c-.07-.1-.15-.18-.22-.27h0A.38.38,0,0,0,7,14.84a.44.44,0,0,1-.1-.43l0,0c.06,0,.11.08.18,0s0,0,0-.05A.9.9,0,0,1,7,13.88l0,0L6.8,14a.47.47,0,0,1-.21-.34,2.81,2.81,0,0,0-.19-.58,1.57,1.57,0,0,1,0-.23.46.46,0,0,0-.08-.24.76.76,0,0,1-.09-.18c0-.11-.1-.23,0-.37l.29.08h0a.73.73,0,0,0-.08.46.15.15,0,0,0,.09.14l0-.2c.07,0,.09.1.16.05h0v.23a.71.71,0,0,0,.17.46.11.11,0,0,0,.14,0s0,.1,0,.14H7a.76.76,0,0,0,.15.54.75.75,0,0,1,.1.2.85.85,0,0,0,.24.38.06.06,0,0,0,.09,0v0l-.52-1L7,13.46H7v-.14c-.09-.07-.09-.18-.13-.27a1.74,1.74,0,0,1-.17-.45h0l-.19-.45h0a3.33,3.33,0,0,0-.29-.83L6,11.39c0,.16.14.15.18.28-.14,0-.15.08-.18.16-.15-.07-.13-.23-.22-.34-.08.07,0,.14,0,.2s0,.12-.08.19.18.11.21.23.12.19.16.29a1.15,1.15,0,0,1,.11.31c0,.1.12.19.07.31H6.17a.05.05,0,0,0,0,0,0,0,0,0,0,0,0l0,.06a.44.44,0,0,1,.21.41s0,.08,0,.12a.41.41,0,0,0,.21.41s.07.07.1.1a.27.27,0,0,1,.08.19,1.09,1.09,0,0,0,.28.74.56.56,0,0,1,0,.08h0a.3.3,0,0,0,.11.29.5.5,0,0,1,.1.14.59.59,0,0,1,0,.37.55.55,0,0,1-.27-.48A.26.26,0,0,0,7,15.37a1.15,1.15,0,0,1-.23-.47.55.55,0,0,0-.13-.25.92.92,0,0,1-.26-.54.51.51,0,0,0-.17-.35A.74.74,0,0,1,6,13.32a.29.29,0,0,0-.07-.16,1.4,1.4,0,0,1-.29-.5.21.21,0,0,1,0-.23c.13,0,.18.11.3.11l-.2-.47h-.1l-.07,0v.08a.1.1,0,0,1-.06.12c-.07,0-.1,0-.12-.07s-.17-.33-.1-.53c-.17-.11-.22-.15-.22-.26a1.55,1.55,0,0,0-.15-.56.42.42,0,0,1,0-.12l-.09-.37-.16,0s0-.1-.05-.14,0-.12-.07-.15,0,.23-.11.29l-.12,0a.22.22,0,0,1,0,.11.63.63,0,0,1-.12.07c0,.06.06.16.15.16s.13,0,.15.09.09.14.05.22a.12.12,0,0,1-.05.05.11.11,0,0,1-.07,0l-.11-.18c-.09,0-.15,0-.18-.07a1.16,1.16,0,0,1,0-.18c0-.12,0-.14-.18-.23a.74.74,0,0,0,0,.15A2.78,2.78,0,0,0,4,11c.14.3.24.62.35.93a3.56,3.56,0,0,0,.17.41h0a.7.7,0,0,0,.1.34s0,0,0,0,.13-.07.17,0a.21.21,0,0,1,0,.07,1.47,1.47,0,0,0,.16.53.15.15,0,0,1,0,.22l-.14,0a2.06,2.06,0,0,0,.12.35l0-.08s0-.07.1-.06a.11.11,0,0,1,.11.09c0,.06,0,.12,0,.18s0,.11,0,.15.07.37.2.52a.22.22,0,0,1,0,.28c-.15-.09-.15-.09-.18-.21a.42.42,0,0,0-.14-.31.57.57,0,0,0,0,.14c.05.21.13.42.17.63a5.39,5.39,0,0,0,.23.81c.06.19.12.39.19.58l.13.36c0,.08.07.15.1.24a1.74,1.74,0,0,0,.43.67c0-.15,0-.26-.09-.34a.38.38,0,0,1-.14-.26A.29.29,0,0,0,6.06,17,.16.16,0,0,1,6,16.81a.31.31,0,0,0-.09-.3.26.26,0,0,1-.07-.16.43.43,0,0,0-.1-.31.12.12,0,0,1,0-.16s0-.06.07-.05a.09.09,0,0,1,.07.05.3.3,0,0,1,0,.13.25.25,0,0,0,.09.24.27.27,0,0,1,.08.24.19.19,0,0,0,.08.22.28.28,0,0,1,.08.21.69.69,0,0,0,0,.13c.06.06.18.07.2.18a.58.58,0,0,0,.21.44c0,.2.18.32.23.51a.74.74,0,0,0,.36,0,.93.93,0,0,0,0-.1s-.07-.1-.12-.13a.57.57,0,0,1-.26-.5.24.24,0,0,0-.07-.18A.36.36,0,0,1,6.62,17a.35.35,0,0,0-.13-.29.38.38,0,0,1-.12-.28s0-.11,0-.14a1.55,1.55,0,0,1-.22-.51A1.45,1.45,0,0,0,6,15.56a.54.54,0,0,1-.07-.13.33.33,0,0,1,0-.14.08.08,0,0,1,.06,0s.06,0,.06,0a.35.35,0,0,1,.06.17.45.45,0,0,0,.16.38.24.24,0,0,1,.1.22.39.39,0,0,0,.11.27.51.51,0,0,1,.11.25.4.4,0,0,0,.14.29.39.39,0,0,1,.13.32.48.48,0,0,0,0,.14c.05.11.11.21.15.32a.42.42,0,0,0,.24.31.37.37,0,0,1,.15.13.21.21,0,0,0,.3.08s0-.07,0-.09a2.06,2.06,0,0,0-.23-.41.64.64,0,0,1-.18-.39.51.51,0,0,1-.29-.4A.44.44,0,0,0,7,16.68a.57.57,0,0,1-.21-.42A.46.46,0,0,0,6.65,16a.44.44,0,0,1-.11-.2.9.9,0,0,0-.18-.44.27.27,0,0,1-.07-.13.34.34,0,0,1,0-.34.2.2,0,0,1,.2,0,.22.22,0,0,1,.1.17c0,.14,0,.28,0,.44a.28.28,0,0,1,.17.32c0,.07,0,.15,0,.22.24.14.26.39.32.62.24.09.28.3.29.51a2.11,2.11,0,0,1,.15.15,1.43,1.43,0,0,0,.48.43v.31l.1.05a5.3,5.3,0,0,0,.69,0A.45.45,0,0,0,8.71,17.81ZM4.55,12.36Zm2.13.92s0,0,0,.06,0,0,0,.05l0-.07Zm2.14,3.88c-.05-.11-.08-.24-.2-.29a.44.44,0,0,1-.25-.27.22.22,0,0,0-.09-.12.66.66,0,0,1-.19-.38c0-.2-.23-.32-.23-.53l0,0,0,0a.81.81,0,0,1-.25-.46.56.56,0,0,0-.13-.22c0-.05-.09-.12-.17-.12s-.07.12,0,.16a.4.4,0,0,1,.19.37v0a.17.17,0,0,0,.13.17c.07,0,.09.07.11.13l0,.15a.43.43,0,0,0,.16.31.26.26,0,0,1,.1.35s0,0,0,.07a.43.43,0,0,1,.26.46.35.35,0,0,1,.25.33.22.22,0,0,0,.05.08l.28.2A.47.47,0,0,0,8.82,17.16Zm.12-.25s0-.05,0-.07l-.29-.42s0-.09,0-.12.11.19.25.11c0-.1-.08-.15-.13-.22L8.63,16a11.38,11.38,0,0,1-.85-1.12l-.14-.19c0,.18.1.27.15.37a2.63,2.63,0,0,0,.2.33c.07.11.15.2.22.3l-.07.11.06.05a.44.44,0,0,1,.23.29c0,.06,0,.12,0,.18a.54.54,0,0,0,.07.13.43.43,0,0,1,.15.28.18.18,0,0,0,.08.12A.13.13,0,0,0,8.94,16.91Zm2.47.53c-.08,0-.08.07-.08.12s0,.15,0,.23a1.7,1.7,0,0,1,0,.22c0,.07,0,.13-.08.21h.14Zm.12-2,0-.06a13.37,13.37,0,0,1,.11-1.42l-.19-.07a2.62,2.62,0,0,1,0,.29.15.15,0,0,1-.12.14.44.44,0,0,1,0-.5c-.06,0-.1,0-.13,0a.1.1,0,0,0-.08.11,1.18,1.18,0,0,1,0,.46.55.55,0,0,1-.08.15.39.39,0,0,1-.09-.3A1.64,1.64,0,0,1,11,14c0-.14,0-.19-.18-.18l-.27,0a.44.44,0,0,0-.41.2l0,0A.58.58,0,0,0,10,14a.25.25,0,0,0-.27.07,1,1,0,0,1,0,.58s0,.09,0,.13a1.35,1.35,0,0,1-.05.53c-.11.36-.16.73-.3,1.08a.86.86,0,0,0,0,.17c0,.05,0,.11,0,.15-.11.29-.09.61-.2.89a.78.78,0,0,0,0,.16.49.49,0,0,1,0,.17,1.12,1.12,0,0,1-.1.18,1,1,0,0,0,.34,0s0,0,0-.06a.57.57,0,0,1,0-.58.44.44,0,0,1,.1-.08.87.87,0,0,1,.09.36.92.92,0,0,0,.19.35l.08,0c0-.05,0-.12,0-.14s-.08-.21-.07-.33a1.87,1.87,0,0,0,0-.41.79.79,0,0,1,0-.22.53.53,0,0,0,0-.33s-.06,0-.06.07l-.06.29a.48.48,0,0,1-.05.17s-.07.05-.1.05a.09.09,0,0,1-.07-.1c0-.13,0-.25,0-.38a3.56,3.56,0,0,0,.18-.58s.06,0,.08,0a.12.12,0,0,1,.06.08.57.57,0,0,0,0,.14c0,.06,0,.12.06.14s.05,0,.05-.06A1.17,1.17,0,0,1,9.91,16a.11.11,0,0,0,0-.08.78.78,0,0,1,.15-.57s0,0,.09-.06a.64.64,0,0,1,0,.56.47.47,0,0,0,0,.4L10,16.4a.44.44,0,0,1,0,.43A.31.31,0,0,0,10,17a.34.34,0,0,1-.14.32.91.91,0,0,1,.13.53A.33.33,0,0,0,10,18c0,.07.09.17.19.2a.24.24,0,0,0,0-.23.92.92,0,0,1-.08-.27,1.09,1.09,0,0,0,0-.4c0-.06,0-.15,0-.22a1.06,1.06,0,0,1,.08-.47.13.13,0,0,0,0-.1.3.3,0,0,1,0-.29.27.27,0,0,0,0-.2c0-.1,0-.19.08-.29s0-.1.1-.11a.31.31,0,0,1,.08.36.73.73,0,0,0-.06.32.2.2,0,0,1-.09.2l-.05.07c.06.1.14.18.11.29a.83.83,0,0,0,0,.35,1.08,1.08,0,0,1,0,.4,1.09,1.09,0,0,0,.09.57.3.3,0,0,0,.08.07,1.29,1.29,0,0,0,0-.25,2.42,2.42,0,0,0,0-.47c0-.15,0-.27,0-.41a1.07,1.07,0,0,1,0-.4.85.85,0,0,0,0-.22.41.41,0,0,0,0-.15,3.12,3.12,0,0,1,0-.61.46.46,0,0,1,.06-.3c.14.1.16.12.12.24a.39.39,0,0,0,0,.3.51.51,0,0,1,0,.22.39.39,0,0,0,0,.39.38.38,0,0,1,0,.15.77.77,0,0,0,0,.3.85.85,0,0,1,0,.23l0,.32c0,.11.09.2.07.31h0s-.06.06-.06.09a1,1,0,0,0,0,.24H11l-.06-.32h0a.11.11,0,0,0,.08-.1,1.54,1.54,0,0,1,.05-.43.44.44,0,0,0,0-.2.55.55,0,0,1,0-.38.42.42,0,0,0,0-.27.44.44,0,0,1,0-.3.6.6,0,0,0,0-.35.37.37,0,0,1,.11-.37.18.18,0,0,1,.09.18,1,1,0,0,1-.05.25.23.23,0,0,0,0,.2.31.31,0,0,1,0,.46.55.55,0,0,1,.08.46.07.07,0,0,0,0,.05c0,.05,0,.1.1.09a1.18,1.18,0,0,0,0-.56.25.25,0,0,1,0-.17,1.18,1.18,0,0,0,0-.46,3.73,3.73,0,0,1,0-.48v0a.36.36,0,0,1,0-.25.5.5,0,0,0,0-.32.71.71,0,0,1,.05-.45.36.36,0,0,1,.07.41.34.34,0,0,0,0,.2l.06.17A1,1,0,0,1,11.53,15.42Zm.28,2.43a2.77,2.77,0,0,1,0-.64.34.34,0,0,0-.06-.24.37.37,0,0,1,0-.14.76.76,0,0,0,0-.47c0-.06,0-.15,0-.23l-.05-.08,0,0c0,.2.06.4,0,.6,0,0,0,.08,0,.12s.07.3.1.45a.94.94,0,0,0,0,.47s0,.07,0,.1l0,.2c0,.06,0,.12,0,.17s0,0,0,.06h.18c0-.09,0-.15,0-.22A.52.52,0,0,0,11.81,17.85Zm.06-3.66v0c-.1.11-.11.13-.08.38Zm.15-.46,0,0-.18.14.09.11A.3.3,0,0,0,12,13.73ZM12,17l0-.14C12,17,12,17,12,17Zm.11,1.19,0,0-.06,0,0,.08A.59.59,0,0,0,12.14,18.2Zm0-.77c-.13.14-.09.29,0,.45C12.19,17.58,12.2,17.53,12.11,17.43Zm.22-.49a6.6,6.6,0,0,0,.38.86c0,.06.06.11.08.16s.06.09.08.07,0-.24,0-.24h0a2.26,2.26,0,0,1-.17-.56,5.17,5.17,0,0,1,0-1.71c.09-.49.21-1,.32-1.47s.19-.84.29-1.27a1,1,0,0,0,0-.18,2.1,2.1,0,0,0-.34.52,3.11,3.11,0,0,0-.2.41c-.08.15-.17.28-.36.29l-.07,0,0,.06c0,.24-.12.46-.17.69a1.09,1.09,0,0,0,0,.18V15A7.53,7.53,0,0,0,12.13,16,7.18,7.18,0,0,0,12.33,16.94Zm.15,1.31h.13a.33.33,0,0,0-.1-.14l0,0h-.07l-.05.18Zm3.3-.17c.07-.25.13-.51.19-.77a.52.52,0,0,0,0-.25.77.77,0,0,1,.05-.61s0-.1,0-.15a.48.48,0,0,1,.08-.16.14.14,0,0,1,.2,0,.14.14,0,0,1,0,.22.93.93,0,0,1-.14.14.3.3,0,0,0,0,.22c.11-.15.21-.29.31-.41a.35.35,0,0,0,.09-.29,2.09,2.09,0,0,1,0-.25.86.86,0,0,1,.15-.45.14.14,0,0,0,0-.21s-.05.05-.06.08a1.3,1.3,0,0,1-.17.45.17.17,0,0,0,0,.07c0,.16-.13.23-.23.32s0,0-.07,0a.39.39,0,0,1,0-.35.53.53,0,0,0,0-.12.41.41,0,0,1,.17-.37.26.26,0,0,0,.09-.18.93.93,0,0,1,.2-.41c.11-.16.21-.34.33-.51a.8.8,0,0,1,.15-.17.12.12,0,0,1,.14,0s0,.07,0,.13a.74.74,0,0,1-.12.13.6.6,0,0,0-.06.11.56.56,0,0,1-.17.3s0,.08,0,.12l.09,0a.29.29,0,0,1,.1,0,.12.12,0,0,1,.14.17c-.07.16-.15.31-.24.48s0,.08,0,.13v.15l0,.16c.17-.11.2-.27.29-.4a.44.44,0,0,0,.06-.25c0-.14.06-.22.21-.34a2.09,2.09,0,0,0,0,.24c0,.09-.1.13-.08.25l.18-.13.13-.14c-.08-.25.11-.45.1-.67l-.13-.09c0-.06.06-.11.08-.16a1.48,1.48,0,0,0,.16-.27,1.12,1.12,0,0,1,.16-.28l.55-.77s.06-.06,0-.11h0l-.15.1s-.07.05-.11,0,.15-.14.13-.28l-.24.11.08-.19s0-.06,0-.09a.64.64,0,0,0-.25.18,1.32,1.32,0,0,0-.25.28.62.62,0,0,1-.27.26l0,0c-.05.16-.2.25-.27.39a.32.32,0,0,1-.34.19s0-.09,0-.12a1.7,1.7,0,0,1,.26-.34c.25-.21.48-.45.72-.69l.24-.28a0,0,0,0,0,0,0l0,0a.55.55,0,0,0-.44.32.56.56,0,0,1-.31.33.16.16,0,0,0-.09.07c-.05.18-.2.24-.34.33-.06.3-.12.33-.41.24a.53.53,0,0,1,.19-.26.27.27,0,0,0,.09-.12.51.51,0,0,1,.24-.22.58.58,0,0,0,.19-.16,1.67,1.67,0,0,1,.33-.32c.13-.11.25-.23.37-.35s0-.08-.06-.15a2.93,2.93,0,0,1-.65.51,1.27,1.27,0,0,0-.12.1l-.59.6c-.13.15-.26.29-.38.44a5.56,5.56,0,0,0-.69,1.11A6.86,6.86,0,0,0,15,15.9c-.12.45-.17.9-.25,1.36a1.21,1.21,0,0,0,0,.38,1.27,1.27,0,0,1,0,.2v.22l-.08,0a.41.41,0,0,1-.15-.26,4,4,0,0,1,0-1.2,2.15,2.15,0,0,0,.09-.8.09.09,0,0,1,0-.07,1.1,1.1,0,0,0,0-.51,1.74,1.74,0,0,1,.06-.45c0-.11.14-.12.22,0s0,.13.11.12l.22-.46.24-.47c-.2-.09-.2-.09-.19-.26a1.4,1.4,0,0,1,.06-.28s0,0,.07-.09a.33.33,0,0,1,.11.34s0,.1,0,.13c.13-.13.13-.13.14-.26s0-.46,0-.69a.43.43,0,0,0,0-.19.41.41,0,0,1,.06-.49.16.16,0,0,1,.12.16v.15a.78.78,0,0,0,.06.5c0,.07,0,.17.08.23a.43.43,0,0,0,.25-.42,1.58,1.58,0,0,0-.05-.38l-.06-.22a.33.33,0,0,1,.07-.29.1.1,0,0,1,.16,0,.25.25,0,0,1,0,.12c0,.1,0,.2,0,.3s0,.19,0,.28a.33.33,0,0,0,.06.12l.28-.28a1.58,1.58,0,0,0-.12-.61.36.36,0,0,1,0-.15c0-.14,0-.29,0-.43a.33.33,0,0,0,0-.17,1.38,1.38,0,0,1-.08-.85.22.22,0,0,1,.12-.19.2.2,0,0,1,.11.21,4.91,4.91,0,0,1,0,.86.93.93,0,0,1,.18.7.51.51,0,0,0,.15.42l.17-.13c-.24-.17-.21-.4-.23-.63l.14,0v-.25c0-.47,0-.94,0-1.4s0-.8,0-1.2a1.09,1.09,0,0,0,0-.18A.08.08,0,0,0,17,8.29c.05.35.05.35-.06.49a.21.21,0,0,1-.06-.21.61.61,0,0,0,0-.42.17.17,0,0,1,.08-.21l.11.21A.18.18,0,0,0,17.15,8a1.79,1.79,0,0,1,0-.33,7.48,7.48,0,0,0,0-.82c0-.15,0-.3,0-.46a1,1,0,0,0-.05-.26c-.08,0-.08.06-.13,0l-.06-.29a.26.26,0,0,0-.3,0l-.13-.12-.13.22c0,.08.07.15.06.21s0,.28-.11.38h0a.62.62,0,0,1,0-.63l-.05-.19c-.13.12-.18.18-.14.26a.34.34,0,0,1,0,.28,2.74,2.74,0,0,0-.07.5A.69.69,0,0,1,16,7c0,.08-.06.18-.1.27l0,0a1.42,1.42,0,0,1,0-.68,2,2,0,0,0,.06-.48.36.36,0,0,1,0-.2.23.23,0,0,0,0-.24.34.34,0,0,0-.24.06.52.52,0,0,0-.09.34.1.1,0,0,1,0,.09c-.06.08,0,.16,0,.22a2.4,2.4,0,0,0-.11.23,1,1,0,0,0,0,.43c0,.05,0,.1,0,.15a.42.42,0,0,1-.15.38s-.07-.09-.07-.13a1.5,1.5,0,0,1,.07-.51.69.69,0,0,0,0-.47.25.25,0,0,1,0-.17,3,3,0,0,0,.16-.61,2.06,2.06,0,0,0-.9.16c-.16.06-.29.19-.46.21s0,0-.05,0a.82.82,0,0,0-.26.39,2.25,2.25,0,0,0-.11.63.77.77,0,0,1,0,.15c0,.19,0,.39-.06.58a.62.62,0,0,0,0,.19s.11,0,.13,0a.46.46,0,0,0,.14-.44.41.41,0,0,1,.16-.44.3.3,0,0,1,0,.14,1,1,0,0,0-.05.45.69.69,0,0,1-.11.45l-.08-.05c-.1-.05-.18,0-.19.09a1.31,1.31,0,0,0,0,.28c0,.16,0,.32,0,.48v.41s0,.07,0,.07a1.09,1.09,0,0,0,.08-.15l.11-.21a1.24,1.24,0,0,1,0,.26,1.53,1.53,0,0,1,0,.3.45.45,0,0,1-.06.12l-.15-.12a2.77,2.77,0,0,0,0,.5.92.92,0,0,1,.09-.13.07.07,0,0,1,.11,0,1.08,1.08,0,0,1,0,.44.77.77,0,0,0,0,.26.93.93,0,0,1,0,.47.48.48,0,0,0,0,.12c.11-.11.21-.25.14-.4a.61.61,0,0,1,0-.51.61.61,0,0,0,.05-.12.44.44,0,0,0,0-.37.19.19,0,0,1,0-.14.78.78,0,0,1,.18-.44c.18.1.11.28.16.42s-.07.25-.16.35a1.82,1.82,0,0,0,.08.19c0,.06,0,.15.1.19a1.13,1.13,0,0,1,.19-.44c0,.06,0,.08.05.11a1.63,1.63,0,0,1,0,.66.53.53,0,0,0,.18.52c.05-.12.07-.25.11-.37a.36.36,0,0,0,0-.27,1.42,1.42,0,0,1,0-.71.47.47,0,0,0,0-.17,1.83,1.83,0,0,1,0-.66,1.45,1.45,0,0,0,0-.55s0-.08,0-.12A.35.35,0,0,1,15,8a.41.41,0,0,1,.06.42A.77.77,0,0,0,15,9a.8.8,0,0,1,.05.43,3,3,0,0,1-.07.32.26.26,0,0,0,0,.15,2.11,2.11,0,0,1,.17.5s0,0,.07.08c0-.16,0-.16,0-.24a.48.48,0,0,1,0-.35c0-.1.06-.19.09-.29a.24.24,0,0,0,0-.22.6.6,0,0,1,0-.61l.06-.07a.27.27,0,0,1,.08.25l0,.33a1,1,0,0,0,0,.3,1.27,1.27,0,0,1,0,.55.74.74,0,0,0,0,.33,1,1,0,0,1,0,.58.21.21,0,0,0,0,.17l.08.13a.32.32,0,0,1,0,.27.58.58,0,0,0,0,.32.87.87,0,0,1-.07.72.47.47,0,0,1,.06.09l.06.11a.22.22,0,0,1-.08.27s-.12,0-.13,0a.5.5,0,0,1,0-.12,1.89,1.89,0,0,1,.05-.23.15.15,0,0,0,0-.17.36.36,0,0,1-.09-.33c0-.08,0-.16,0-.25a.65.65,0,0,0,0-.28.56.56,0,0,1,0-.44.58.58,0,0,0-.1-.54c-.07.13-.07.13-.05.2a.77.77,0,0,1,0,.37,1.25,1.25,0,0,0,0,.51.61.61,0,0,1,0,.42.54.54,0,0,0,0,.45.41.41,0,0,1-.07.38s-.07.05-.11.05-.05,0-.07-.06a.37.37,0,0,1,0-.34.52.52,0,0,0,0-.51.36.36,0,0,1,0-.23c0-.06,0-.13.05-.2a.37.37,0,0,0-.12-.33l-.17.52a.81.81,0,0,1,.11.63.87.87,0,0,0,0,.48.4.4,0,0,0-.09.38.87.87,0,0,1,0,.32.34.34,0,0,1-.23.33.34.34,0,0,1-.13-.27,1.2,1.2,0,0,1,.08-.5.79.79,0,0,0,0-.43.76.76,0,0,1,0-.3,2.63,2.63,0,0,0,0-.56,1.45,1.45,0,0,1,0-.55c0-.13,0-.25.05-.38a.34.34,0,0,0,0-.22l-.11-.22a.77.77,0,0,0-.09.13l-.09.12c0,.09,0,.16,0,.24s0,.23-.11.41a.11.11,0,0,0,0,0,.07.07,0,0,0,0,.05.84.84,0,0,1,0,.74.17.17,0,0,0,0,.14,1.19,1.19,0,0,1,.05.46.23.23,0,0,1-.08.2s0,0,0,.07l.16.14a2.56,2.56,0,0,0,0,.27c0,.1,0,.21,0,.31a.53.53,0,0,0,0,.25.42.42,0,0,1,0,.27l-.1.21a.45.45,0,0,1,0,.42c0,.16-.1.25-.18.38a.75.75,0,0,1,.06.13.24.24,0,0,1,0,.15,1.38,1.38,0,0,0-.18.34s0,.08-.08.08c-.14-.15-.14-.15-.11-.31a.8.8,0,0,0,0-.15,3.32,3.32,0,0,1,.1-.77,1.62,1.62,0,0,0,.11-.65s0-.05,0-.07,0-.17,0-.26a1.73,1.73,0,0,1,.06-.6.36.36,0,0,0,0-.32.37.37,0,0,1,0-.15c0-.11.06-.21.08-.32a.36.36,0,0,0,0-.25.54.54,0,0,1,0-.22,1.35,1.35,0,0,1,0-.45c0-.1,0-.19-.1-.24a.5.5,0,0,0,0,.32.36.36,0,0,1,0,.25.63.63,0,0,0,0,.45v.07a5.33,5.33,0,0,1-.06.89,1.29,1.29,0,0,0,0,.28,1,1,0,0,1-.08.42.44.44,0,0,0,0,.2.45.45,0,0,1-.12.37s-.07,0-.09,0a.11.11,0,0,1-.05-.08c0-.06,0-.13,0-.19a.73.73,0,0,0,0-.2.62.62,0,0,1,.05-.27,1,1,0,0,0,.07-.32,1.33,1.33,0,0,1,0-.53.44.44,0,0,0,0-.32.26.26,0,0,1,0-.15,1.09,1.09,0,0,1,.07-.24c0-.09,0-.11-.11-.2a.69.69,0,0,0-.05.24,7.22,7.22,0,0,1-.14,1c-.08.38-.2.75-.25,1.14a.5.5,0,0,1,0,.13c-.05.24-.11.48-.15.72a3.83,3.83,0,0,0,0,.76,7.54,7.54,0,0,0,0,.82c0,.22.1.45.16.67h0l.06.22h0l.07.27h.56c.07,0,.11-.08.07-.12a.38.38,0,0,1-.1-.3.4.4,0,0,0,0-.15,1.78,1.78,0,0,1-.08-.45.85.85,0,0,0,0-.17.76.76,0,0,1,0-.66.07.07,0,0,1,.11,0,.34.34,0,0,1,.14.34,1,1,0,0,0,.06.59,1,1,0,0,1,.06.38A.83.83,0,0,0,14,18a.29.29,0,0,0,.34.26l.59,0a.5.5,0,0,0,.13,0,1.66,1.66,0,0,1,0-.24.53.53,0,0,0,0-.35.5.5,0,0,1,0-.32c0-.21,0-.43,0-.64a1.1,1.1,0,0,1,.19-.52s.12,0,.13,0a.36.36,0,0,1,0,.17,1.67,1.67,0,0,1-.08.32.61.61,0,0,0-.08.37,1.24,1.24,0,0,1,0,.43,1.54,1.54,0,0,0,.06.52,2,2,0,0,1,0,.26l.16,0c0-.09,0-.18,0-.26a2.7,2.7,0,0,1,0-.28s0-.05.07-.05a.09.09,0,0,1,.08.05.36.36,0,0,1,0,.15c0,.1,0,.2,0,.3s0,.07.05.07S15.78,18.09,15.78,18.08Zm8.59-7.47-.11.06c-.09,0,0-.13-.12-.15a.47.47,0,0,1-.14.27.13.13,0,0,0,0,.07.41.41,0,0,1-.09.28,1.35,1.35,0,0,0-.15.26c-.07,0-.09,0-.08-.07a1.4,1.4,0,0,0,.1-.39.15.15,0,0,1,0-.09.4.4,0,0,0,.15-.31.18.18,0,0,1,.07-.1c.09-.07.1-.22.23-.25a.7.7,0,0,0,.15-.34c0-.11,0-.21,0-.31a.79.79,0,0,1,.05-.3.3.3,0,0,0,0-.29c-.05-.08,0-.13,0-.21l-.21-.12c-.09,0-.13.11-.19.16l-.1.05A.66.66,0,0,0,24,8.64c-.05-.05-.08,0-.11,0a.46.46,0,0,1-.21.18l-.05-.13c-.06.05-.11.09-.11.16a.19.19,0,0,1-.1.17.4.4,0,0,0-.17.34.65.65,0,0,1-.1.36.21.21,0,0,0,0,.1.73.73,0,0,1-.16.42.24.24,0,0,0,.21-.2.77.77,0,0,0,0-.15.24.24,0,0,1,.21-.21c0,.06,0,.13,0,.15a.49.49,0,0,0-.15.41c0,.05,0,.1-.05.15a.86.86,0,0,0-.12.35.26.26,0,0,1-.18.25c-.1,0-.07-.13-.11-.18h-.05a1.36,1.36,0,0,0-.14.33,1.49,1.49,0,0,1-.14.24h0A2.7,2.7,0,0,1,22,12a.49.49,0,0,0-.14.21.85.85,0,0,1-.28.39,1.56,1.56,0,0,0-.27.3.6.6,0,0,1-.31.25.25.25,0,0,1,.09-.24,1.8,1.8,0,0,0,.38-.4,2.28,2.28,0,0,1,.22-.22.32.32,0,0,0,.13-.29l-.09.07a3.47,3.47,0,0,1-.41.45,6.55,6.55,0,0,1-.66.63,1.1,1.1,0,0,0-.22.21,6,6,0,0,1-.76.56,1.37,1.37,0,0,0-.28.21.7.7,0,0,1-.23.15c-.27.16-.51.37-.77.55s-.54.47-.8.7a.52.52,0,0,0-.12.18c-.07,0-.1,0-.13.07-.2.31-.48.57-.69.87a5.54,5.54,0,0,0-.36.62c-.12.25-.21.52-.32.78,0,0,0,.06,0,.11l.12,0h.38c.09-.11.18-.22.26-.34a.37.37,0,0,0,0-.15.2.2,0,0,1,.07-.18.33.33,0,0,0,.13-.26.15.15,0,0,1,.06-.1l.2-.13c.09,0,.1.1.06.15s-.07.06-.09.09-.17.15-.17.28a.14.14,0,0,1-.05.09c-.16.14-.14.35-.21.55.15,0,.12-.21.27-.22l.06.12.12-.07,0,.13h.33a1.21,1.21,0,0,0,0-.18c0-.08,0-.11.11-.11s.11,0,.11.1a.24.24,0,0,1,0,.08v.07a.15.15,0,0,0,.19,0l.08-.23c.12,0,.12,0,.11.22h.15c.1-.14.11-.34.29-.44.06.08,0,.15,0,.22a1.55,1.55,0,0,1,0,.21l.21,0h0a1.11,1.11,0,0,1,0-.29v0l.18-.48a.8.8,0,0,1,.08-.16c0-.06-.14-.05-.15-.13a.25.25,0,0,1,.12-.22l.14-.08c0,.06,0,.09,0,.13v.13l.15-.13.53-.55c0-.05.1-.11.16-.16a1.43,1.43,0,0,1,.23-.2A7.1,7.1,0,0,0,21.44,15l.11-.1a4,4,0,0,0,.57-.52,6.39,6.39,0,0,0,.77-.87l.39-.63s0,0,0,0-.07,0-.09,0L23,13l-.12.09h-.07a.11.11,0,0,1,0-.07.19.19,0,0,1,0-.07s0-.07,0-.1-.08-.13,0-.22l.09-.08c.1-.09.2-.17.21-.31s.05-.08.09-.11h.07a.07.07,0,0,1,0,.06.25.25,0,0,1-.1.2.75.75,0,0,0-.25.38.26.26,0,0,0,.32-.13.57.57,0,0,1,.3-.29c.08,0,.13-.1.11-.18s0-.24.15-.3l.05,0c0-.11,0-.22,0-.33a.25.25,0,0,1,.08-.23.3.3,0,0,0,.11-.24.2.2,0,0,1,.13-.16.08.08,0,0,1,.05.11,1.22,1.22,0,0,1-.1.23,1.25,1.25,0,0,0-.16.41A2.2,2.2,0,0,0,24.37,10.61Zm-1.25-1.5a1.41,1.41,0,0,0-.28.64.74.74,0,0,1-.12.31.42.42,0,0,0-.07.32c.14-.06.24-.13.25-.29a.21.21,0,0,1,0-.14A.4.4,0,0,0,23,9.69a.51.51,0,0,1,.05-.22.57.57,0,0,0,.05-.36h0c.05,0,.06,0,.08-.14l-.08.14h0Zm-.55,1.45a.15.15,0,0,0-.05.06,1.28,1.28,0,0,0-.07.35.62.62,0,0,0,.22-.3.08.08,0,0,0,0-.05s0-.06,0-.06Zm-.11.84Zm2-1.36a1.7,1.7,0,0,1,0,.22,1,1,0,0,1-.1.21c.07,0,.1,0,.11-.05s.07-.22.1-.33S24.55,10,24.49,10Zm.46.2s0,0,0,0l-.09,0,.07.05Zm.69.15c-.07,0-.11,0-.14,0a.14.14,0,0,0-.07.19A.37.37,0,0,0,25.64,10.39Zm.3-2.33c-.06,0-.11.08-.18,0s-.07-.09,0-.12l.16-.07s0-.08,0-.11a3.45,3.45,0,0,0-.28-.26,2.24,2.24,0,0,0-1.06-.39h-.26a1,1,0,0,1,.07.16.08.08,0,0,1-.09.11c-.09,0-.12-.06-.12-.16s0,0,0-.07h-.08L24,7.2v.06a.09.09,0,0,1-.06.12.08.08,0,0,1-.12,0s0-.07-.05-.09h-.11a.73.73,0,0,0,.05.12.12.12,0,0,1,0,.14s-.11,0-.16,0a1,1,0,0,1-.09-.13c-.25,0-.41.16-.63.2a3.56,3.56,0,0,0-.31.26.7.7,0,0,0-.24.32l.12.14c-.08.19-.19,0-.28,0a.87.87,0,0,0-.1.19,1.33,1.33,0,0,1,0,.19,1.31,1.31,0,0,0-.08.21.61.61,0,0,0,0,.19c.08,0,.16,0,.18.1s-.15.06-.21.14a.58.58,0,0,0,.12.53c.1,0,.2-.14.3,0l-.11.15c0,.08.07.14.17.17a1.31,1.31,0,0,0,.14-.38l-.1-.07a.09.09,0,0,1,.05-.15l.15,0,.23-.5L22.69,9a.09.09,0,0,1,0-.14l.13,0A.15.15,0,0,0,23,8.71l-.17-.07a.79.79,0,0,0,0-.13.74.74,0,0,0,0-.14.14.14,0,0,1,0-.09.14.14,0,0,1,.17,0s0,.08,0,.16,0,0,0,.06l.1.12.18-.12c0-.11,0-.22,0-.32s0-.08.06-.09.12,0,.13,0a.57.57,0,0,1,0,.13.14.14,0,0,0,.09.14l.52-.1s.05,0,.06,0,.2-.1.31-.14.06,0,.07,0a.32.32,0,0,1,0,.09s-.11,0-.12.07l.21.09,0-.08s0,0,0-.07a.08.08,0,0,1,.13,0,.31.31,0,0,1,.07.09l-.12.14c.05,0,.08,0,.11,0s.06,0,.1-.06a.08.08,0,0,1,.11,0,.07.07,0,0,1,0,.11l-.07.06c.05.11.11.18.24.16s.06,0,.07.06,0,.06,0,.08l-.05,0a.07.07,0,0,0-.06.09.11.11,0,0,0,.05.08.17.17,0,0,1,.16.19h-.19A1.57,1.57,0,0,0,25,10l.2.12c.1,0,.09-.09.08-.17s0-.12.12-.11l.1,0,.05,0,0-.16c.2-.11.2-.11.26-.39a.14.14,0,0,1,0-.09.42.42,0,0,0,.12-.31l-.13-.17c0-.06.07-.13,0-.18h-.2a.07.07,0,0,1,0-.12.18.18,0,0,1,.11,0s.07,0,.12,0,.05-.21.16-.26S26,8.09,25.94,8.06Zm.14,1.51s-.07,0-.08,0a.75.75,0,0,0,0,.11l.07-.05A.81.81,0,0,0,26.08,9.57ZM26,7.22c0,.09-.05.19-.08.29l.07.06h.05C26.18,7.35,26.18,7.3,26,7.22ZM26.4,8.7a.45.45,0,0,0-.11,0c-.05.17-.05.17,0,.29.08,0,.1-.1.14-.17A.13.13,0,0,0,26.4,8.7Zm-.92-.85a.11.11,0,0,1-.14,0l0,0a.1.1,0,0,0-.14.07.12.12,0,0,0,.07.12h.1a.12.12,0,0,1,.14,0,.41.41,0,0,0,.11.07c.09-.06.08-.12.05-.17A.1.1,0,0,0,25.48,7.85ZM25,8.12c-.05,0-.1.05-.1.09a.12.12,0,0,0,.12.1.1.1,0,0,0,.1-.09C25.16,8.16,25.11,8.12,25,8.12Zm.24-.39a.34.34,0,0,0,.12-.06.15.15,0,0,0-.12-.16.11.11,0,0,0-.11.08A.12.12,0,0,0,25.28,7.73Zm.48,1.39s0,0,.06,0a.11.11,0,0,0,0-.17.14.14,0,0,0-.18,0s0,.09,0,.15S25.73,9.1,25.76,9.12Zm-.55.45s-.07,0-.12.08l.15.12s.07,0,.08,0a.1.1,0,0,0,0-.09A.23.23,0,0,0,25.21,9.57ZM24.46,7.8a.09.09,0,0,0-.09.07.11.11,0,0,0,.08.12.1.1,0,0,0,.1-.09A.09.09,0,0,0,24.46,7.8Zm.28.11s-.07,0-.09.08,0,.1.11.1A.1.1,0,0,0,24.87,8S24.83,7.92,24.74,7.91Zm.11-.42a.1.1,0,0,0,0-.13.12.12,0,0,0-.14,0,.14.14,0,0,0,0,.11.19.19,0,0,1,0,.14c0,.13,0,.15.24.12l-.12-.19Zm.83,1.76-.14-.09a.43.43,0,0,0,0-.11.09.09,0,0,0-.1-.1.1.1,0,0,0-.09.1.09.09,0,0,0,0,0,.22.22,0,0,1-.07.24,1.87,1.87,0,0,0,.22.07C25.62,9.43,25.69,9.35,25.68,9.25Zm-3.11,3.46a.09.09,0,0,0-.13,0c-.06.06-.11.14-.16.2s-.05.12-.1.14a1.2,1.2,0,0,0-.26.24l-.27.27s-.08.09,0,.13,0,.18.06.27a.17.17,0,0,0,.1,0,.32.32,0,0,0,.1-.1c0-.07.07-.14.1-.2l-.08-.07a.52.52,0,0,1,.29-.31c0,.06.05.14.14.13s.08-.08.1-.14,0-.07,0-.12h-.17l.1-.14c.06-.06.13-.11.18-.17S22.61,12.74,22.57,12.71ZM23.3,11a.77.77,0,0,1,.12-.33.28.28,0,0,0,0-.3l-.1.1c-.07.08-.06.19-.09.28s-.13.15-.15.26a.9.9,0,0,1-.24.5.53.53,0,0,0-.06.1c0,.05,0,.09,0,.11a.06.06,0,0,0,.1,0,2.28,2.28,0,0,1,.2-.38A1.35,1.35,0,0,0,23.3,11Zm-.37,1.23s-.08,0-.09,0l-.2.34s0,0,0,0h.05l.24-.32S22.94,12.21,22.93,12.2Zm-.21-.1c0-.07.05-.14.1-.24a.26.26,0,0,0-.24.16c0,.05,0,.09,0,.11A.07.07,0,0,0,22.72,12.1ZM22,14a.23.23,0,0,0-.2.16.08.08,0,0,0,0,.07.1.1,0,0,0,.09,0,.22.22,0,0,0,.16-.23Zm.46-.5a.26.26,0,0,0-.22.18.1.1,0,0,0,0,.1s.1,0,.12,0l.11-.23ZM21.3,14.63a.12.12,0,0,0,.18.09.32.32,0,0,0,.12-.27l-.3.08A.34.34,0,0,0,21.3,14.63Zm0-.09h0Zm0-.48a1.35,1.35,0,0,0-.4.35.6.6,0,0,1-.28.21.2.2,0,0,0-.11.06,1.77,1.77,0,0,1-.33.34s0,.06-.07.12l.21,0,0,.05a1.54,1.54,0,0,1-.08.19.18.18,0,0,1-.16.11.25.25,0,0,0-.2.17.6.6,0,0,1-.06.11.25.25,0,0,1-.26.17c-.13,0-.18.11-.23.21l-.09.2a.39.39,0,0,1-.08.1c-.05,0-.1,0-.14,0a.11.11,0,0,1,0-.14.86.86,0,0,1,.07-.1,1.34,1.34,0,0,0,.06-.12L19,16a.31.31,0,0,1,.13-.31,1.11,1.11,0,0,0,.27-.26l.06-.05a2.93,2.93,0,0,0,.43-.36,1.28,1.28,0,0,0,.26-.26.48.48,0,0,1,.27-.19.51.51,0,0,0,.23-.15.4.4,0,0,1,.15-.1.51.51,0,0,0,.29-.23.58.58,0,0,1,.32-.24h.07s0,.07,0,.09Zm-1.89,1.6-.06.12s0,0,0,0,.07,0,.08-.07S19.46,15.71,19.44,15.66Zm1.86-1.13h0Zm1.2-5.41c-.06,0-.15.07-.13.11a.43.43,0,0,0,.13.09s.08-.07.09-.11S22.55,9.12,22.5,9.12Zm-1.12,5-.19.13c-.05,0-.12.08-.1.16s.11.09.19.1h0l.22-.41Zm.8-5.34s.05,0,.06-.07,0-.1-.09-.1a.1.1,0,0,0-.1.09S22.1,8.8,22.18,8.79Zm-1.57,6.05a.12.12,0,0,0,0,.17.11.11,0,0,0,.16,0l.16-.33A.47.47,0,0,0,20.61,14.84ZM25.3,9.33h0ZM22.43,9s-.05-.1-.11-.11a.1.1,0,0,0-.11.07c0,.06,0,.1.13.11S22.41,9,22.43,9Zm-.15.4a.14.14,0,0,0-.16,0s-.06.05-.05.08a.08.08,0,0,0,.05.07.13.13,0,0,0,.18,0s0,0,0-.05Zm1.12,1.79c-.1,0-.16.07-.17.16a.15.15,0,0,0,0,.09.11.11,0,0,0,.09,0A.17.17,0,0,0,23.4,11.15Zm0,.7s0,.08.05.1.08,0,.1,0a.17.17,0,0,0,0-.19A.14.14,0,0,0,23.39,11.85Zm-.18-.33a.19.19,0,0,0-.08.31.32.32,0,0,0,.15-.25A.06.06,0,0,0,23.21,11.52Zm.49-1.11a.08.08,0,0,0,.06,0,.25.25,0,0,0,0-.3.69.69,0,0,0-.15.14.3.3,0,0,0,0,.14S23.67,10.4,23.7,10.41Zm-.15.34h0l-.06.16,0,0,.08-.13Zm-7.86,1.19a.1.1,0,0,0,.09,0,.38.38,0,0,0,.1-.39.34.34,0,0,1,0-.34.35.35,0,0,0,0-.38.61.61,0,0,0,0-.12.32.32,0,0,1,0-.27.52.52,0,0,0-.08-.61l0,0,0,.06a.8.8,0,0,0,0,.53.53.53,0,0,1,0,.35.74.74,0,0,0-.05.29,1.87,1.87,0,0,1,0,.58v.18A.15.15,0,0,0,15.69,11.94Zm-9.88-3h0Zm-1.44.76c-.07,0-.16,0-.15.08s0,.08.09.1h.08s.07,0,.08,0a.13.13,0,0,0,0-.09A.16.16,0,0,0,4.37,9.68ZM2.46,9.41a.11.11,0,0,0-.11.07s0,.12.1.11a.36.36,0,0,0,.11,0A.11.11,0,0,0,2.46,9.41Zm.39-.18s-.08.06-.09.09.05.1.12.1S3,9.37,3,9.33Zm.53,0h-.2c-.05,0-.09,0-.09.07a.16.16,0,0,0,.05.08.59.59,0,0,0,.22.05.08.08,0,0,0,.09-.07A.1.1,0,0,0,3.38,9.28Zm-1.12.5a.87.87,0,0,0-.1.08.19.19,0,0,0,.16.16A.1.1,0,0,0,2.4,9.9C2.38,9.82,2.32,9.76,2.26,9.78ZM3,9a.13.13,0,0,0-.13.05.12.12,0,0,0,.07.12H3a.16.16,0,0,0,0-.06A.1.1,0,0,0,3,9Zm2.78,1.18a.11.11,0,0,0-.07.09c0,.06,0,.11.08.11s.11,0,.11-.08A.15.15,0,0,0,5.76,10.21Zm-3.94-.6,0,0a.15.15,0,0,0,.14.17l0,0s0-.1,0-.16A.11.11,0,0,0,1.82,9.61Zm3.68-.5s.06,0,.09,0a.17.17,0,0,0-.13-.16s-.1,0-.09.09S5.44,9.12,5.5,9.11Zm-.32.09a.14.14,0,0,0,0,.11.24.24,0,0,0,.28,0,.14.14,0,0,0-.06-.18.31.31,0,0,0-.17,0A.11.11,0,0,0,5.18,9.2Zm-.11-.41S5,8.84,5,8.88a.16.16,0,0,0,.2.1s0,0,0-.05A.16.16,0,0,0,5.07,8.79Zm0-.15s0,0,0-.05,0-.09-.09-.11H5s0,.06,0,.09A.1.1,0,0,0,5.09,8.64ZM6,10.79c0-.06,0-.12-.15-.11v.24H6A.09.09,0,0,0,6,10.79Zm-.17.13ZM3.64,9.39a.08.08,0,0,0-.08.08c0,.06.07.11.14.11l.06-.05C3.77,9.44,3.71,9.38,3.64,9.39Zm.08-.32h0ZM5.8,8.92a.23.23,0,0,0,0-.11c0-.09-.07-.13-.16-.08s0,0,0,.07A.2.2,0,0,0,5.8,8.92Zm0,2h0Zm-2-1.3a.13.13,0,0,0,.06.09s.08,0,.13,0,.1,0,.1-.07A.14.14,0,0,0,4,9.56a.25.25,0,0,0-.15,0S3.81,9.59,3.81,9.62Zm-.1-.54h0Zm.5.29a.11.11,0,0,0,0,.13l.12.05h.07c.06,0,.1-.06.06-.1a.44.44,0,0,0-.14-.13S4.24,9.32,4.21,9.37Zm-.06-.1a.11.11,0,0,0,.09-.13l0,0a.14.14,0,0,0-.16,0l0,0A.12.12,0,0,0,4.15,9.27ZM3.7,8.92,3.6,9s0,0,0,.07l.13.05Zm0,.24a.23.23,0,0,0,.07.1.1.1,0,0,0,.15,0,.1.1,0,0,0,0-.13.58.58,0,0,0-.14,0A.41.41,0,0,0,3.68,9.16Zm-1,.57a.18.18,0,0,0-.17,0s0,.07,0,.12l0,.09,0,.05c0,.11,0,.16.07.21a.08.08,0,0,0,.11,0s0-.09,0-.12-.06-.11,0-.17A.09.09,0,0,0,2.72,9.73ZM3.19,9h0Zm8.46,3.91h0Zm-7-3.82h0Zm.11-.11a.13.13,0,0,0,.08-.18.13.13,0,0,0-.16,0l-.19.1s0,0,0,0-.16-.17-.31,0h0c-.18-.13-.18-.13-.28,0,.1.09.1.09.4.17l.12-.1c.1.11.17.24.33.18a.2.2,0,0,1,0-.08S4.77,9,4.79,8.94ZM3.19,9Zm1.49.09h0Zm8.14-1.59a.22.22,0,0,0-.16.17c0,.06.08.12.17.11A.13.13,0,0,0,13,7.63.19.19,0,0,0,12.82,7.46Zm3,1,0,0a.66.66,0,0,0,0-.55l-.05,0a.44.44,0,0,0,0,.55ZM13.22,6.72a.12.12,0,0,0-.11.12.12.12,0,0,0,.13.12.41.41,0,0,0,.11-.07C13.35,6.79,13.28,6.71,13.22,6.72Zm-1,6.16v-.07a.14.14,0,0,0,0,.06Zm0-.07h0ZM6,8.64a.12.12,0,0,0,.06-.06A.12.12,0,0,0,6,8.46a.11.11,0,0,0-.09.08A.13.13,0,0,0,6,8.64Zm.14.27a.15.15,0,0,0,.17,0s0,0,0-.06,0-.14-.1-.13a.16.16,0,0,0-.1,0,.09.09,0,0,0-.06.07A.1.1,0,0,0,6.17,8.91Zm6.33-2.1a.17.17,0,0,0-.12.15c0,.06.11.13.2.11s.05-.05.07-.07S12.57,6.8,12.5,6.81ZM5.79,9c0,.1.1.18.22.17a.41.41,0,0,1,.29.05.17.17,0,0,0,.1,0s.07,0,.08,0a.12.12,0,0,0,0-.1A.18.18,0,0,0,6.25,9l-.1,0a.3.3,0,0,0-.34-.15S5.78,9,5.79,9Zm.6-.45a.15.15,0,0,0,.05-.06c0-.08-.06-.13-.12-.12s-.08,0-.08.08A.12.12,0,0,0,6.39,8.57Zm-3.11.56a.09.09,0,0,0,.12,0s0-.06,0-.08A.13.13,0,0,0,3.36,9,.43.43,0,0,0,3.2,9C3.21,9,3.22,9.1,3.28,9.13Zm2.52-.2h0ZM2,9.44H2Zm4-.16a.37.37,0,0,0-.14,0c-.07,0-.09.07-.1.16l.14.08c.07,0,.14,0,.15,0A.13.13,0,0,0,6,9.28ZM2,9.44H2Zm.18.15c.05,0,.07-.09,0-.12a.12.12,0,0,0-.1-.05.45.45,0,0,0-.11,0s0,.05,0,.07A.12.12,0,0,0,2.19,9.59Zm5-1a.15.15,0,0,0,.06-.05.1.1,0,0,0,0-.09.2.2,0,0,0-.2-.08A.19.19,0,0,0,7,8.47a.07.07,0,0,0,0,.07A.26.26,0,0,0,7.23,8.63ZM13,6.92a.74.74,0,0,0-.09.12.11.11,0,0,0,.06.17c.06,0,.13,0,.16,0a.17.17,0,0,0,0-.14S13.05,7,13,6.92ZM18,13.19s0,.05,0,.06h.07a.39.39,0,0,0,.21-.37l-.2.19A.38.38,0,0,0,18,13.19Zm-.47,1.34a.06.06,0,0,0,0,0s.05,0,.07,0a.16.16,0,0,0,.09-.07.22.22,0,0,0,0-.23Zm.61-1.79a.36.36,0,0,0-.26.19.12.12,0,0,0,0,.08C18.17,13,18.19,12.92,18.17,12.74Zm-7.91,1.53a.26.26,0,0,0,0,.37c.1-.06.1-.17.1-.27S10.28,14.3,10.26,14.27Zm6.31-4.9a.72.72,0,0,0-.11.44.09.09,0,0,0,0,0l.07,0a.67.67,0,0,0,.07-.42S16.6,9.39,16.57,9.37Zm1.16,4c.06-.07.08-.15,0-.18s-.1,0-.16,0l-.07.08-.15.33.14,0C17.6,13.56,17.66,13.48,17.73,13.41Zm-6.61,1.37a.56.56,0,0,0-.1.41.09.09,0,0,0,.06.07s.1,0,.11,0a.5.5,0,0,0,0-.34S11.16,14.81,11.12,14.78Zm5.49-1.39h0c0,.06,0,.08-.08.12a.83.83,0,0,0-.37.49c0,.05-.07.09-.11.13a.38.38,0,0,0-.14.21,1,1,0,0,1-.24.44.5.5,0,0,0-.08.12.13.13,0,0,0,.07.15c.05,0,.12,0,.14,0s.18-.2.19-.35a.26.26,0,0,1,.12-.19l.19-.11a.45.45,0,0,1,.17-.42.42.42,0,0,0,.15-.45.53.53,0,0,1,0-.13Zm-5.77.85a.17.17,0,0,0,0-.19s-.07,0-.09,0a.16.16,0,0,0-.08.08.16.16,0,0,0,0,.12.36.36,0,0,1,0,.25l-.16-.06c-.06.3-.11.56-.16.83a.55.55,0,0,0,0,.18s0,.06.05.1a.21.21,0,0,0,.15-.14.61.61,0,0,0,0-.42l.07-.11s0-.08.11,0a3.11,3.11,0,0,0,0,.32s0,.08,0,.12,0,.07.06.08.08,0,.1,0a.17.17,0,0,0,0-.17c0-.07,0-.14-.07-.22a.3.3,0,0,0,0-.45Zm5.2.61a.37.37,0,0,0-.11.38,1.58,1.58,0,0,0-.13.18c-.07.12,0,.26-.07.39a1.49,1.49,0,0,0-.14.37s0,0,0,0a.33.33,0,0,1,0,.14.45.45,0,0,0,0,.52c-.08.26-.08.26,0,.41a.14.14,0,0,0,.15-.11.32.32,0,0,0,0-.33.63.63,0,0,0,.14-.54l.17-.22c.06-.11,0-.21,0-.3a3.16,3.16,0,0,1,.18-.27c.07-.1,0-.19,0-.26l.24-.27c.07-.09,0-.21.05-.3l0,0c.11-.07.22-.14.21-.3s0-.07.06-.11.1-.14.14-.21,0-.13,0-.16-.11,0-.16,0a.49.49,0,0,0-.13.12,1.28,1.28,0,0,0-.11.2.37.37,0,0,1-.14.16A1.19,1.19,0,0,1,16,14.85Zm.26-.45h0Zm1.32-.64-.39.65s0,.09,0,.15a.29.29,0,0,0,.27-.22.6.6,0,0,1,.18-.33.51.51,0,0,0,.09-.18.24.24,0,0,1,.15-.21c.1,0,.11-.14.07-.26a.58.58,0,0,0-.25.24ZM16.71,6.6l.12,0a.13.13,0,0,0,.15,0,.43.43,0,0,1,0-.07.15.15,0,0,0-.08-.21l-.15,0s0-.08,0-.11a1.34,1.34,0,0,0,0-.2s0,0-.05,0l-.06,0a1.23,1.23,0,0,1,0,.2c0,.06-.08.1-.11.16s0,0,0,0S16.57,6.57,16.71,6.6Zm-.47,3a.18.18,0,0,0,.12,0,.24.24,0,0,0,.09-.2,1.17,1.17,0,0,0,0-.27c-.05-.15,0-.18.11-.25a.21.21,0,0,0,.15-.19.38.38,0,0,0-.1-.34,1.15,1.15,0,0,1-.17.06c-.12,0-.17,0-.18.16a1.53,1.53,0,0,0,0,.37,1.13,1.13,0,0,1,0,.26,1.66,1.66,0,0,0,0,.32A.12.12,0,0,0,16.24,9.59Zm.74.76a.14.14,0,0,0-.07-.1s-.07,0-.09.06a.22.22,0,0,0,.08.28A1.11,1.11,0,0,0,17,10.35Zm-.79,1a.51.51,0,0,0,0,.3c0,.05.05.11.1.1a.17.17,0,0,0,.12-.08.3.3,0,0,0,0-.39,1,1,0,0,1-.08-.11.6.6,0,0,0,0-.72.49.49,0,0,0,.09-.49s0-.07-.07-.09-.1,0-.13.06a.4.4,0,0,0-.05.37.58.58,0,0,1,0,.39.48.48,0,0,0,0,.42A.23.23,0,0,1,16.19,11.3Zm-.35-2.36c-.15.19-.16.35,0,.7.08-.13.18-.23.15-.38S16,9,15.84,8.94ZM7.48,16.48a1,1,0,0,1,.23.54c0,.11.12.19.19.27s.09.2.15.29a.12.12,0,0,0,.07.07.48.48,0,0,1,.18.24c0,.08,0,.17.16.18s.12-.11.12-.18-.06-.12-.12-.15l-.16-.1c0-.08,0-.14,0-.21a.17.17,0,0,0,0-.12A1.14,1.14,0,0,1,8,16.89a1.14,1.14,0,0,0-.15-.17l-.08-.06a1.25,1.25,0,0,0-.11-.31A1.44,1.44,0,0,0,7.37,16l.09.38A.19.19,0,0,0,7.48,16.48ZM16.86,10c.11-.15.13-.21.11-.3s0-.05,0-.05a.08.08,0,0,0-.07,0,.51.51,0,0,0-.07.15A.18.18,0,0,0,16.86,10Zm0,.83c-.07.14,0,.25.07.4a.4.4,0,0,0,.05-.4.06.06,0,0,0-.12,0ZM17,7s0-.06-.06-.07-.06,0-.07.06a.49.49,0,0,0,0,.3A.43.43,0,0,0,17,7Zm-.13,2.34h0A.2.2,0,0,0,17,9.09l0,0-.07,0A.26.26,0,0,0,16.85,9.32Zm.07-1.93c-.09.17-.09.17,0,.37.09-.17.1-.18.08-.27A.23.23,0,0,0,16.92,7.39Zm-.68.44a1.06,1.06,0,0,0,0,.25.13.13,0,0,0,.06.1.16.16,0,0,0,.12,0,.14.14,0,0,0,.07-.1.42.42,0,0,0,0-.27.49.49,0,0,1-.06-.17s0-.08.06-.07.06.23.09.38a.43.43,0,0,0,.18-.34c0-.12.07-.29-.09-.38l-.12.06c0-.08-.05-.15-.08-.22a.08.08,0,0,0-.06,0l-.08,0a.45.45,0,0,0,0,.39A.62.62,0,0,1,16.24,7.83ZM4.19,11s0,0,0,.06a.19.19,0,0,0,0,.12s0,.05.07,0a.12.12,0,0,0,0-.07A.12.12,0,0,0,4.19,11Zm.45-.25s-.1,0-.1,0a.32.32,0,0,0,.11.33s.09,0,.14,0a2.29,2.29,0,0,0-.1-.23A.22.22,0,0,0,4.64,10.75Zm.23.51h0s0,.05,0,.07a1.31,1.31,0,0,0,.06.27.07.07,0,0,0,.1.05s.08-.06.08-.09A.35.35,0,0,0,4.87,11.26Zm5.33,3.5-.09.38c.08,0,.11,0,.13,0a.36.36,0,0,0,0-.41ZM5.25,12.23c.06-.14,0-.24-.08-.35h0s-.09,0-.09,0,0,.29.14.39ZM5,12.7a.4.4,0,0,0,.2.34.51.51,0,0,0,0-.42.27.27,0,0,0-.2-.19A2.43,2.43,0,0,0,5,12.7Zm-.29-.27-.12-.07a2.91,2.91,0,0,0-.28-.91s0,0,0-.07,0,0,0,0l.16,0,0-.12s.08,0,.09.05.08.17.11.26a.14.14,0,0,1,0,.16c-.09.1,0,.21,0,.31s0,0,.07.06L4.8,12c.09,0,.12.06.15.12a.69.69,0,0,1,0,.32l-.17-.12Zm-.17-.84,0,0s0,0,0,.05h0S4.53,11.59,4.5,11.59Zm.46.83H5ZM7.37,16h0ZM5,12.42H5Zm.6,3Zm0,0Zm4.2.15a.45.45,0,0,0,0,.11s.05,0,.06,0a.2.2,0,0,0,.07-.09s0-.07,0-.16C9.79,15.48,9.76,15.5,9.76,15.53Zm0,.26s0,0-.06,0a1.34,1.34,0,0,0-.07.18s0,.06.06.07a.06.06,0,0,0,.07,0s.05-.12.08-.18S9.8,15.8,9.77,15.79Zm.7-1.46s.1-.05.11-.14a.24.24,0,0,0-.11-.24h0s0,0,0,0a1.27,1.27,0,0,0,0,.2C10.39,14.24,10.4,14.31,10.47,14.33Zm-.54,0a.19.19,0,0,0,0,.07,3.39,3.39,0,0,1-.09.78s0,.05,0,.12a1,1,0,0,0,.09-.18c0-.16,0-.32.07-.48a2.09,2.09,0,0,0,0-.25C10,14.33,10,14.3,9.93,14.32Zm-3.79-.1A.14.14,0,0,1,6,14.06a.73.73,0,0,0,0-.29,1.59,1.59,0,0,0-.3-.46s-.06,0-.09,0h0c.12.06.12.17.12.28a.66.66,0,0,0,.2.53.32.32,0,0,1,.09.25,1.33,1.33,0,0,0,0,.28.22.22,0,0,0,.17.18l.06,0a.41.41,0,0,0,.1-.35A.24.24,0,0,0,6.14,14.22Zm-.58,1.16c.07,0,0,.11,0,.16a.18.18,0,0,0,.1.18h.05a.07.07,0,0,0,0-.05C5.79,15.51,5.74,15.44,5.56,15.38Zm.11-2.29a4.83,4.83,0,0,0-.16-.5.13.13,0,0,0-.16-.07,1.47,1.47,0,0,0,.15.58c0,.06.11.1.1.19A.18.18,0,0,0,5.67,13.09ZM5.52,15a.19.19,0,0,0,0,.3v0C5.69,15.21,5.69,15.17,5.52,15Zm-.09-1.69a.19.19,0,0,0-.18-.1.62.62,0,0,0,.23.61h.06A.91.91,0,0,0,5.43,13.35Zm.11.51Zm.33.76a.92.92,0,0,0-.13-.14,3,3,0,0,1,0-.31.29.29,0,0,0-.21-.31.23.23,0,0,0,0,.32,1.08,1.08,0,0,1,.18.49.39.39,0,0,0,.17.32.17.17,0,0,0,.08-.18A.49.49,0,0,0,5.87,14.62Z"/><path d="M39.56,7.61a3.16,3.16,0,0,1-2.28,3c-.27.11-.41.13-.41.15s.14,0,.41.06a3.28,3.28,0,0,1,2.9,3.1c0,2.22-1.91,4.43-6.12,4.43H26.84c-.25,0-.4-.1-.4-.35a.42.42,0,0,1,.34-.42c1-.33,1.15-1.2,1.17-2.08l.27-8.3c0-.76-.12-1.53-1-1.72A.35.35,0,0,1,26.84,5a.36.36,0,0,1,.39-.37h3c1.43,0,3.51-.1,4.65-.1C38.61,4.57,39.56,6.1,39.56,7.61Zm-4,4.9a3.65,3.65,0,0,0-2.67-.91c-.81,0-1.16.1-1.16.37L31.59,16a.83.83,0,0,0,.46.83,3.17,3.17,0,0,0,1.53.31,2.92,2.92,0,0,0,2.07-.8,2.73,2.73,0,0,0,.7-1.89A2.89,2.89,0,0,0,35.57,12.51ZM35,6.36a3.22,3.22,0,0,0-2.17-.68c-.42,0-.89.08-.91.42L31.8,10c0,.25.15.35.37.44a4.76,4.76,0,0,0,1.14.12,2.65,2.65,0,0,0,1.78-.6,2.28,2.28,0,0,0,.74-1.72A2.46,2.46,0,0,0,35,6.36Z"/><path d="M51.61,12.73c0,2.84-2.13,5.8-6.27,5.8-3.59,0-5.17-2.22-5.17-4.66A5.94,5.94,0,0,1,46.44,8C50,8,51.61,10.29,51.61,12.73Zm-8.25-.57c0,2.1,1.43,4.77,3.31,4.77,1.2,0,1.72-1,1.72-2.29,0-2.15-1.33-5.05-3.29-5.05C43.81,9.59,43.36,10.77,43.36,12.16Z"/><path d="M52.91,10.17c0-.1,0-.12-.16-.12H51.38c-.18,0-.25-.23-.27-.5S51.17,9,51.4,9a5.8,5.8,0,0,0,4-3.37c.07-.17.36-.25.6-.25s.54.1.54.33l-.1,2.65a.13.13,0,0,0,.14.14h2.84c.27,0,.35.25.35.54s-.12.68-.39.7l-3,.32-.15,4.13a2.15,2.15,0,0,0,.44,1.53,1.83,1.83,0,0,0,1.34.52,2.08,2.08,0,0,0,1.22-.37,1,1,0,0,1,.23-.07.36.36,0,0,1,.35.4.57.57,0,0,1-.1.31A4.73,4.73,0,0,1,56,18.55a3.12,3.12,0,0,1-2.5-1,3.55,3.55,0,0,1-.7-2.39Z"/><path d="M62.11,12.26c-.7,0-1.76-.62-1.76-1.3s.73-1.31,1.31-1.72a6.8,6.8,0,0,1,4-1.24C67.88,8,70,9.18,70,12l-.12,3.58c0,1,.45,1.55.89,1.55a.75.75,0,0,1,.33.06.27.27,0,0,1,.12.25.39.39,0,0,1-.08.25,4.09,4.09,0,0,1-2.52.82c-1.26,0-2.13-.58-2.13-1.79,0,0,0,0-.06,0s-.09,0-.09,0a3.59,3.59,0,0,1-3.25,1.86,2.94,2.94,0,0,1-3-3.13,1.13,1.13,0,0,1,.54-1.14,16.4,16.4,0,0,1,5.63-2.06c.16,0,.29,0,.29-.29,0-1.39-1.22-2-2.55-2a2.69,2.69,0,0,0-.58,0,.42.42,0,0,0-.41.46C63,11.54,62.82,12.26,62.11,12.26Zm2.61,4.18c1.72,0,1.78-1.88,1.78-2.77v-.5c0-.06-.06-.1-.13-.1s-.12,0-.22.06c-1,.29-2.9.95-2.9,1.59A1.58,1.58,0,0,0,64.72,16.44Z"/><path d="M79.36,8c2.38,0,3.29,1.53,3.29,3.72l-.15,3.87c0,1,.07,1.8.87,2a.36.36,0,0,1,.31.38.37.37,0,0,1-.37.39h-5.4a.31.31,0,0,1-.33-.35.44.44,0,0,1,.31-.42c1-.33,1.08-1.32,1.12-2.29l.1-2.63c0-1-.12-2.42-1.53-2.42s-1.78,1.68-1.84,3.23l-.08,2.4c0,.93.14,1.57.87,1.71a.36.36,0,0,1,.29.38.38.38,0,0,1-.38.39H71a.31.31,0,0,1-.32-.35.43.43,0,0,1,.3-.42c1-.39,1.1-1.34,1.14-2.29l.15-3.79c0-.78-.38-1.18-1.37-1.18a.45.45,0,0,1-.16-.37.46.46,0,0,1,.45-.49,8.66,8.66,0,0,0,2.79-1,1.88,1.88,0,0,1,1-.37,1,1,0,0,1,.74.31l-.12,2.09c0,.06,0,.08,0,.08s0,0,.06-.06A4,4,0,0,1,79.36,8Z"/><path d="M85.27,11.35c0-.81-.45-1.18-1.45-1.18a.44.44,0,0,1-.2-.37.48.48,0,0,1,.45-.5A9.48,9.48,0,0,0,87,8.25a2,2,0,0,1,1-.33,1.27,1.27,0,0,1,.87.31l-.27,7.59c0,.7.06,1.53,1,1.71a.34.34,0,0,1,.29.38.37.37,0,0,1-.37.39H84a.31.31,0,0,1-.31-.35.44.44,0,0,1,.29-.42c1-.27,1.14-1.13,1.18-2.29Zm3.81-6.78a1.87,1.87,0,0,1-2.07,2c-1.33,0-1.88-.7-1.88-1.74a1.84,1.84,0,0,1,2-2C88.5,2.83,89.08,3.51,89.08,4.57Z"/><path d="M98.78,12.24a.41.41,0,0,1-.36-.23c-.76-1.57-1.78-2.46-3.18-2.46a2.69,2.69,0,0,0-2.61,3A3.29,3.29,0,0,0,96,16,4.52,4.52,0,0,0,98.8,15a.55.55,0,0,1,.33-.13.26.26,0,0,1,.27.27.45.45,0,0,1,0,.23,5.38,5.38,0,0,1-5,3.21,4.59,4.59,0,0,1-4.88-4.7C89.47,11,91.56,8,96,8c2.36,0,3.6.62,3.6,2.29C99.58,10.73,99.42,12.24,98.78,12.24Z"/><path d="M22.3,27.27c0,3.82-2.69,7.26-8.1,7.26-1.29,0-2.55-.15-3.5-.15H7.78A.31.31,0,0,1,7.47,34a.4.4,0,0,1,.29-.41A2,2,0,0,0,9,31.53l.29-8.48c0-.73-.25-1.43-1.09-1.53a.33.33,0,0,1-.31-.36.39.39,0,0,1,.37-.41h2.94c1.44,0,2.46-.1,3.8-.1C19.8,20.65,22.3,23.44,22.3,27.27ZM13,32.83a3.07,3.07,0,0,0,1.61.37,3.86,3.86,0,0,0,3.25-1.71,6,6,0,0,0,.91-3.35,6.47,6.47,0,0,0-1.57-4.31,5.78,5.78,0,0,0-3.91-2c-.27,0-.38.12-.38.35l-.33,9.68A1.15,1.15,0,0,0,13,32.83Z"/><path d="M24.22,28.34c-.7,0-1.76-.62-1.76-1.3s.73-1.3,1.31-1.72a6.8,6.8,0,0,1,3.95-1.24c2.27,0,4.38,1.18,4.38,4L32,31.61c0,1,.45,1.55.89,1.55a.75.75,0,0,1,.33.06.28.28,0,0,1,.12.25.38.38,0,0,1-.08.25,4.09,4.09,0,0,1-2.52.83c-1.26,0-2.13-.58-2.13-1.8,0,0,0,0-.06,0s-.09,0-.09,0a3.57,3.57,0,0,1-3.25,1.86,2.94,2.94,0,0,1-3-3.12,1.13,1.13,0,0,1,.54-1.14,16.37,16.37,0,0,1,5.63-2.07c.16,0,.29,0,.29-.29,0-1.39-1.22-2-2.55-2a2.69,2.69,0,0,0-.58,0c-.24.05-.41.15-.41.46C25.07,27.62,24.93,28.34,24.22,28.34Zm2.61,4.18c1.72,0,1.78-1.88,1.78-2.77v-.5c0-.06-.06-.1-.13-.1s-.12,0-.22.06c-1,.29-2.9.95-2.9,1.59A1.58,1.58,0,0,0,26.83,32.52Z"/><path d="M34.68,27.43c0-.8-.45-1.18-1.44-1.18a.42.42,0,0,1-.21-.37.49.49,0,0,1,.46-.5,9.33,9.33,0,0,0,2.91-1.05,2,2,0,0,1,1-.33,1.25,1.25,0,0,1,.87.31L38,31.9c0,.7.06,1.53.95,1.72a.33.33,0,0,1,.29.37.38.38,0,0,1-.38.39H33.4a.32.32,0,0,1-.31-.35.43.43,0,0,1,.29-.41c1-.27,1.14-1.14,1.18-2.3Zm3.81-6.78a1.87,1.87,0,0,1-2.07,2c-1.32,0-1.88-.7-1.88-1.73a1.85,1.85,0,0,1,2.05-2C37.91,18.91,38.49,19.59,38.49,20.65Z"/><path d="M44.3,31.92c0,.68.06,1.59.93,1.7a.34.34,0,0,1,.29.37.35.35,0,0,1-.37.39H39.69c-.19,0-.31-.12-.33-.35a.41.41,0,0,1,.31-.41c1-.29,1.14-1.39,1.16-2.28l.29-8.56c0-.79-.4-1.18-1.37-1.18a.43.43,0,0,1-.21-.39.46.46,0,0,1,.46-.46,8.79,8.79,0,0,0,2.77-1,2,2,0,0,1,1-.38,1.34,1.34,0,0,1,.87.31Z"/><path d="M44.34,36.51c0-.56.17-.89.56-.89a1.69,1.69,0,0,1,.64.27,7,7,0,0,0,2.9.75.77.77,0,0,0,.76-.87,15.38,15.38,0,0,0-.68-2.13L46,26.42c-.35-1-.93-1.18-1.24-1.24a.38.38,0,0,1-.33-.37.39.39,0,0,1,.42-.4h5.83c.27,0,.35.19.35.4s-.08.37-.33.37c-.62,0-.91.33-.91.82a1.76,1.76,0,0,0,.06.42c.21.95.89,2.77,1.1,3.7A22.26,22.26,0,0,1,51.39,33h.09L54,26.42a1.06,1.06,0,0,0,.08-.46c0-.58-.64-.76-1.41-.78a.35.35,0,0,1-.35-.37.36.36,0,0,1,.38-.4h4.5c.23,0,.34.19.34.4a.35.35,0,0,1-.31.37,2,2,0,0,0-1.43,1.24l-2.4,5.13c-.48,1-1,2.25-1.59,3.41-1.16,2.17-2.2,4.2-4.78,4.2A2.48,2.48,0,0,1,44.34,36.51Z"/><path d="M75.13,27.27c0,3.82-2.69,7.26-8.1,7.26-1.29,0-2.55-.15-3.5-.15H60.61A.31.31,0,0,1,60.3,34a.4.4,0,0,1,.29-.41c1-.33,1.18-1.2,1.2-2.09l.29-8.48c0-.73-.25-1.43-1.09-1.53a.33.33,0,0,1-.31-.36.39.39,0,0,1,.37-.41H64c1.44,0,2.46-.1,3.8-.1C72.63,20.65,75.13,23.44,75.13,27.27Zm-9.3,5.56a3.07,3.07,0,0,0,1.61.37,3.86,3.86,0,0,0,3.25-1.71,6,6,0,0,0,.91-3.35A6.42,6.42,0,0,0,70,23.83a5.74,5.74,0,0,0-3.9-2c-.27,0-.38.12-.38.35l-.33,9.68A1.15,1.15,0,0,0,65.83,32.83Z"/><path d="M77.05,28.34c-.7,0-1.76-.62-1.76-1.3s.73-1.3,1.31-1.72a6.8,6.8,0,0,1,4-1.24c2.27,0,4.38,1.18,4.38,4l-.12,3.58c0,1,.45,1.55.89,1.55a.75.75,0,0,1,.33.06.28.28,0,0,1,.12.25.38.38,0,0,1-.08.25,4.09,4.09,0,0,1-2.52.83c-1.26,0-2.13-.58-2.13-1.8,0,0,0,0-.07,0s-.08,0-.08,0A3.57,3.57,0,0,1,78,34.61a2.94,2.94,0,0,1-3-3.12,1.13,1.13,0,0,1,.54-1.14,16.37,16.37,0,0,1,5.63-2.07c.16,0,.29,0,.29-.29,0-1.39-1.22-2-2.55-2a2.69,2.69,0,0,0-.58,0c-.24.05-.41.15-.41.46C77.9,27.62,77.76,28.34,77.05,28.34Zm2.61,4.18c1.72,0,1.78-1.88,1.78-2.77v-.5c0-.06-.06-.1-.13-.1s-.12,0-.22.06c-1,.29-2.9.95-2.9,1.59A1.58,1.58,0,0,0,79.66,32.52Z"/><path d="M86.61,26.25c0-.1,0-.12-.17-.12H85.07c-.18,0-.24-.23-.26-.5s.06-.54.29-.58a5.79,5.79,0,0,0,4-3.37c.06-.16.35-.25.6-.25s.54.11.54.33l-.11,2.65a.14.14,0,0,0,.15.15h2.83c.27,0,.35.25.35.53s-.12.69-.39.71l-3,.31L90,30.24a2.18,2.18,0,0,0,.43,1.54,1.83,1.83,0,0,0,1.35.51A2.12,2.12,0,0,0,93,31.92a.9.9,0,0,1,.22-.06.36.36,0,0,1,.36.39.55.55,0,0,1-.11.31,4.71,4.71,0,0,1-3.82,2.07,3.15,3.15,0,0,1-2.51-1,3.65,3.65,0,0,1-.7-2.4Z"/><path d="M95.39,28.34c-.7,0-1.76-.62-1.76-1.3s.73-1.3,1.31-1.72a6.8,6.8,0,0,1,4-1.24c2.27,0,4.38,1.18,4.38,4l-.12,3.58c0,1,.45,1.55.89,1.55a.75.75,0,0,1,.33.06.28.28,0,0,1,.12.25.38.38,0,0,1-.08.25,4.09,4.09,0,0,1-2.52.83c-1.26,0-2.13-.58-2.13-1.8,0,0,0,0-.07,0s-.08,0-.08,0a3.57,3.57,0,0,1-3.25,1.86,2.93,2.93,0,0,1-3-3.12,1.13,1.13,0,0,1,.54-1.14,16.45,16.45,0,0,1,5.63-2.07c.16,0,.29,0,.29-.29,0-1.39-1.22-2-2.55-2a2.69,2.69,0,0,0-.58,0c-.24.05-.41.15-.41.46C96.24,27.62,96.1,28.34,95.39,28.34ZM98,32.52c1.72,0,1.78-1.88,1.78-2.77v-.5c0-.06-.06-.1-.13-.1s-.12,0-.22.06c-1,.29-2.9.95-2.9,1.59A1.58,1.58,0,0,0,98,32.52Z"/></g></g></g></svg>
